<?xml version="1.0" encoding="UTF-8"?>
<svg width="851px" height="600px" viewBox="0 0 851 600" version="1.1" xmlns="http://www.w3.org/2000/svg" xmlns:xlink="http://www.w3.org/1999/xlink">
    <!-- Generator: Sketch 49 (51002) - http://www.bohemiancoding.com/sketch -->
    <title>Path 24</title>
    <desc>Created with Sketch.</desc>
    <defs></defs>
    <g id="Page-1" stroke="none" stroke-width="1" fill="none" fill-rule="evenodd">
        <g id="b0x-website_2560" stroke="#979797">
            <path d="M850.669983,0 L779.778117,0 L737.816132,8.93036042 L713.599104,28.129015 L702.784542,54.4247367 L696.034699,108.923546 L682.349833,140.265454 L650.406133,164.783436 L621.059595,170.83423 L477.599977,170.83423 C437.285006,171.89481 409.029492,175.098444 392.833434,180.445131 C382.108844,183.985562 359.203597,188.929937 324.372067,205.676061 C312.525178,211.371748 291.659924,223.366856 261.776305,241.661386 C244.55757,250.639585 226.584224,263.631585 207.856265,280.637386 C189.128307,297.643188 170.32319,316.195251 151.440914,336.293578 C111.368768,393.999711 81.7413725,437.29969 62.5587267,466.193517 C43.376081,495.087343 22.523172,539.395017 0,599.116538" id="Path-24"></path>
        </g>
    </g>
</svg>