<svg viewBox="0 0 247 291" version="1.1" xmlns="http://www.w3.org/2000/svg" xmlns:xlink="http://www.w3.org/1999/xlink">
    <defs>
        <rect id="as_path-1" x="51.1374179" y="139.590739" width="70.0582625" height="99.2614541"></rect>
    </defs>
    <style type="text/css">
        @keyframes l-ball-safe {
            0% {
                transform: translate3d(0, 0, 1px);
            }
            50% {
                transform: translate3d(0, 2rem, 1px);
            }
            100% {
                transform: translate3d(0, 0, 1px);
            }
        }
    </style>
    <g id="absolutely-safe" transform="translate(0, 2.000000)" stroke="none" stroke-width="1" fill="none" fill-rule="evenodd">
        <g id="Group-41" transform="translate(36.108994, 0.000000)">
            <g id="Group-45" stroke="#231F20" stroke-width="2.41499984">
                <path d="M165.284427,235.13438 L165.284427,103.172759 C165.284427,42.8446822 130.42675,6.21938935 84.0307481,6.21938935 C37.6218621,6.21938935 5.5283695,42.8446822 5.5283695,103.172759 L5.5283695,235.13438 L0.22113478,235.13438 L0.22113478,99.0264994 C0.22113478,38.6984226 35.0498627,0.691043261 84.8328301,0.691043261 C134.601977,0.691043261 170.812797,38.6984226 170.812797,99.0264994 L170.812797,235.13438 L165.284427,235.13438 Z" id="Combined-Shape"></path>
            </g>
            <rect id="Rectangle-path" stroke="#231F20" stroke-width="2.41499984" x="49.929918" y="94.1564701" width="72.4732624" height="145.364209"></rect>
            <ellipse id="l-ball-safe" stroke="#231F20" stroke-width="2.41499984" fill="#38EDFA" cx="85.6897273" cy="92.599797" rx="20.7313856" ry="20.7312978"></ellipse>
            <g id="Rectangle-path">
                <use fill="#407BF7" fill-rule="evenodd" xlink:href="#as_path-1"></use>
                <rect stroke="#231F20" stroke-width="2.41499984" x="49.929918" y="138.383239" width="72.4732624" height="101.676454"></rect>
            </g>
        </g>
        <rect id="Rectangle-path" fill="#231F20"  x="0" y="255.989983" width="245.984801" height="32.8660175"></rect>
    </g>
</svg>