<svg xmlns="http://www.w3.org/2000/svg" width="326" height="59" viewBox="0 0 326 59">
    <g fill="#FFF" fill-rule="evenodd">
        <path d="M54.302 18.905c-2.446 0-4.436 1.978-4.436 4.41V49.13c0 4.093-3.35 7.423-7.468 7.423-4.119 0-7.469-3.33-7.469-7.423V9.87c0-2.432-1.99-4.41-4.437-4.41-2.446 0-4.436 1.978-4.436 4.41v25.816c0 4.094-3.35 7.423-7.468 7.423-4.119 0-7.469-3.33-7.469-7.423v-4.947H3.977a1.513 1.513 0 0 1-1.516-1.507c0-.831.68-1.507 1.516-1.507h8.658c.836 0 1.516.676 1.516 1.507v6.454c0 2.432 1.99 4.41 4.437 4.41 2.446 0 4.436-1.978 4.436-4.41V9.87c0-4.094 3.35-7.423 7.468-7.423 4.119 0 7.469 3.33 7.469 7.423V49.13c0 2.432 1.99 4.41 4.437 4.41 2.446 0 4.436-1.978 4.436-4.41V23.315c0-4.094 3.35-7.424 7.468-7.424s7.468 3.33 7.468 7.424v4.678h7.143c.836 0 1.516.676 1.516 1.507 0 .83-.68 1.507-1.516 1.507h-8.658a1.513 1.513 0 0 1-1.516-1.507v-6.185c0-2.432-1.99-4.41-4.437-4.41m14.611 6.643h-4.682v-2.233c0-5.442-4.454-9.869-9.929-9.869-5.475 0-9.929 4.427-9.929 9.869V49.13a1.973 1.973 0 0 1-1.975 1.964 1.972 1.972 0 0 1-1.976-1.964V9.87c0-5.442-4.455-9.869-9.93-9.869-5.474 0-9.929 4.427-9.929 9.869v25.816a1.973 1.973 0 0 1-1.975 1.964 1.972 1.972 0 0 1-1.976-1.964v-6.454c0-2.18-1.784-3.953-3.977-3.953H3.977C1.784 25.278 0 27.052 0 29.231c0 2.18 1.784 3.953 3.977 3.953h4.681v2.501c0 5.442 4.455 9.869 9.93 9.869s9.929-4.427 9.929-9.869V9.87c0-1.083.886-1.964 1.975-1.964 1.09 0 1.976.881 1.976 1.964V49.13c0 5.442 4.455 9.869 9.93 9.869 5.474 0 9.929-4.427 9.929-9.869V23.315c0-1.083.886-1.964 1.975-1.964 1.09 0 1.976.88 1.976 1.964V29.5c0 2.18 1.784 3.952 3.977 3.952h8.658c2.193 0 3.976-1.772 3.976-3.952 0-2.179-1.783-3.952-3.976-3.952M112.367 23.502c0-5.055-3.881-9.1-8.604-9.1-4.676 0-8.604 4.045-8.604 9.1 0 5.054 3.928 9.052 8.604 9.052 4.723 0 8.604-3.998 8.604-9.052m2.245-10.156v20.311c0 .598-.515 1.103-1.123 1.103-.607 0-1.122-.505-1.122-1.103v-3.354c-1.964 2.665-5.097 4.457-8.604 4.457-6.032 0-10.849-5.1-10.849-11.258 0-6.158 4.817-11.259 10.85-11.259 3.506 0 6.639 1.746 8.603 4.412v-3.309c0-.644.515-1.103 1.122-1.103.608 0 1.123.46 1.123 1.103M160.751 21.406c-.091-3.822-3.118-6.999-6.969-6.999-3.806 0-6.923 3.177-6.923 7v12.432c0 .047-.046.092-.046.092v.092c-.092.277-.321.46-.55.599a1.217 1.217 0 0 1-.55.138h-.229c-.047 0-.093-.046-.093-.046-.09 0-.183-.092-.275-.138-.045 0-.091-.046-.137-.092l-.138-.138c-.046-.046-.046-.092-.091-.092 0-.047 0-.047-.046-.092 0 0 0-.047-.046-.092 0-.047 0-.093-.046-.139V21.406c0-3.822-3.072-6.999-6.923-6.999-3.852 0-6.924 3.177-6.924 7V33.7c0 .369-.183.691-.504.875-.046.046-.184.138-.275.138-.046.046-.092.046-.184.046h-.275c-.412-.046-.78-.414-.917-.829V13.302c0-.599.505-1.059 1.055-1.059.642 0 1.1.46 1.1 1.059v2.165a8.955 8.955 0 0 1 6.924-3.224c3.484 0 6.465 1.934 8.023 4.789 1.605-2.855 4.631-4.789 8.07-4.789 5.044 0 9.125 4.098 9.125 9.163v12.295a1.08 1.08 0 0 1-1.1 1.06 1.069 1.069 0 0 1-1.056-1.06V21.406zM194.259 23.502c0-5.055-3.882-9.1-8.605-9.1-4.676 0-8.604 4.045-8.604 9.1 0 5.054 3.928 9.052 8.604 9.052 4.723 0 8.605-3.998 8.605-9.052m2.244-10.156v20.311c0 .598-.514 1.103-1.122 1.103-.608 0-1.122-.505-1.122-1.103v-3.354c-1.965 2.665-5.098 4.457-8.605 4.457-6.032 0-10.848-5.1-10.848-11.258 0-6.158 4.816-11.259 10.848-11.259 3.507 0 6.64 1.746 8.605 4.412v-3.309c0-.644.514-1.103 1.122-1.103.608 0 1.122.46 1.122 1.103M228.557 23.848v-.74c-.184-4.855-3.983-8.74-8.606-8.74-4.715 0-8.606 4.07-8.606 9.11 0 4.994 3.89 9.017 8.606 9.017 4.623 0 8.422-3.838 8.606-8.647zm0 6.52c-1.969 2.681-5.081 4.392-8.606 4.392-6.042 0-10.849-5.086-10.849-11.283 0-6.288 4.807-11.374 10.849-11.374 3.525 0 6.637 1.757 8.606 4.438V3.501c0-.6.504-1.11 1.144-1.11a1.12 1.12 0 0 1 1.099 1.11v30.15a1.12 1.12 0 0 1-1.099 1.11c-.64 0-1.144-.51-1.144-1.11v-3.283zM245.733 21.756h16.983c-.733-4.228-4.303-7.307-8.423-7.307-4.211 0-7.736 3.033-8.56 7.307m-2.335 1.792c0-6.25 4.853-11.305 10.895-11.305 5.768 0 10.345 4.595 10.803 10.477v.184c0 .598-.503 1.012-1.098 1.012h-18.402c.229 4.916 4.074 8.639 8.697 8.639a8.425 8.425 0 0 0 7.233-4.09c.32-.552 1.007-.643 1.464-.368.504.368.687 1.01.367 1.562-1.923 3.08-5.264 5.101-9.064 5.101-6.042 0-10.895-5.054-10.895-11.212M276.995 13.344c0-.642.502-1.1 1.095-1.1s1.094.458 1.094 1.1v12.244c0 3.852 3.056 6.925 6.842 6.971 3.831-.046 6.932-3.119 6.932-6.97V13.343c0-.642.547-1.1 1.095-1.1.638 0 1.14.458 1.14 1.1v12.244c0 5.045-4.059 9.172-9.167 9.172-5.017 0-9.031-4.127-9.031-9.172V13.344zM308.736 30.073c.365-.46 1.052-.551 1.555-.138 1.554 1.15 4.024 2.62 6.859 2.62 1.738 0 3.247-.552 4.253-1.379 1.098-.735 1.692-1.747 1.692-2.757-.046-1.057-.457-1.792-1.6-2.758-.96-.735-2.562-1.286-4.757-1.654l-.09-.046c-2.013-.367-3.797-.827-5.077-1.746-1.418-.827-2.424-2.298-2.424-4.044 0-1.792 1.006-3.355 2.424-4.412 1.326-.918 3.201-1.516 5.488-1.516 2.88 0 4.939 1.332 6.676 2.435.503.368.64 1.058.32 1.563-.32.506-1.006.643-1.509.322-1.646-1.103-3.292-2.252-5.487-2.252-1.83 0-3.293.505-4.253 1.287-.915.735-1.418 1.654-1.418 2.573 0 .92.412 1.563 1.28 2.252 1.006.69 2.516 1.24 4.573 1.562h.092c2.149.322 3.887.966 5.442 1.839 1.463.964 2.515 2.71 2.515 4.595 0 1.884-1.052 3.4-2.56 4.55-1.555 1.148-3.385 1.791-5.58 1.791-3.613-.045-6.448-1.746-8.277-3.217-.458-.413-.503-1.01-.137-1.47M162.147 51.648c0-.893-.083-1.656-.25-2.289-.167-.633-.391-1.15-.672-1.553-.28-.402-.61-.697-.987-.884a2.645 2.645 0 0 0-2.373 0c-.374.187-.704.482-.987.884-.283.402-.509.92-.676 1.553-.167.633-.25 1.396-.25 2.29 0 .897.083 1.662.25 2.292.167.631.393 1.148.676 1.55.283.402.613.695.987.88.375.184.77.276 1.185.276.415 0 .81-.092 1.188-.276.377-.185.706-.478.987-.88.28-.402.505-.919.672-1.55.167-.63.25-1.395.25-2.293m.76 0c0 .966-.101 1.801-.304 2.507-.202.706-.478 1.29-.827 1.752-.35.462-.758.806-1.227 1.032a3.408 3.408 0 0 1-1.5.338c-.53 0-1.03-.113-1.495-.338a3.376 3.376 0 0 1-1.223-1.032c-.349-.462-.624-1.046-.823-1.752-.2-.706-.3-1.541-.3-2.507 0-.965.1-1.801.3-2.507.2-.706.474-1.29.823-1.752.35-.462.757-.805 1.223-1.031a3.384 3.384 0 0 1 1.496-.34c.532 0 1.031.114 1.5.34.468.226.876.57 1.226 1.031.349.462.625 1.046.827 1.752.203.706.304 1.542.304 2.507M174.806 57.277h-.79a.223.223 0 0 1-.172-.067.89.89 0 0 1-.102-.131l-3.485-5.196a.84.84 0 0 1-.11.239l-3.424 4.957a1.792 1.792 0 0 1-.114.135.196.196 0 0 1-.152.063h-.75l4.002-5.776-3.822-5.482h.789c.073 0 .126.016.16.048a.575.575 0 0 1 .09.111l3.361 4.925c.032-.08.071-.159.118-.239l3.244-4.678a.398.398 0 0 1 .098-.12.21.21 0 0 1 .136-.047h.766l-3.822 5.434 3.979 5.824zM187.35 51.58c.494 0 .937-.059 1.329-.178.391-.12.723-.29.994-.514.27-.222.477-.49.62-.803.14-.313.212-.666.212-1.059 0-.8-.259-1.395-.777-1.782s-1.274-.58-2.267-.58h-2.044v4.917h1.933zm4.954 5.697h-.694a.517.517 0 0 1-.225-.043.443.443 0 0 1-.17-.163l-3.581-4.567a1.072 1.072 0 0 0-.13-.152.5.5 0 0 0-.15-.099.763.763 0 0 0-.197-.052 2.074 2.074 0 0 0-.28-.016h-1.46v5.092h-.812V46.02h2.856c1.282 0 2.243.25 2.882.752.64.501.959 1.237.959 2.208 0 .43-.074.822-.22 1.177-.149.356-.36.668-.636.935a3.31 3.31 0 0 1-1.002.657c-.392.17-.832.283-1.32.342.125.08.238.186.338.318l3.842 4.87zM202.803 56.601l-.016.676h-6.984V46.02h6.984v.676h-6.135v4.551h5.105v.66h-5.105v4.695zM212.602 56.585v.692h-6.3V46.02h.84v10.566zM222.064 53.188l-2.241-5.69a5.76 5.76 0 0 1-.226-.668 5.487 5.487 0 0 1-.101.362c-.037.115-.075.22-.117.315l-2.241 5.68h4.926zm2.436 4.09h-.614a.269.269 0 0 1-.18-.06.4.4 0 0 1-.108-.155l-1.292-3.27h-5.41l-1.292 3.27a.345.345 0 0 1-.109.15.286.286 0 0 1-.187.064h-.607l4.507-11.258h.786l4.506 11.258zM230.154 52.639v4.638h-.807V52.64l-4.147-6.62h.713c.074 0 .134.017.182.052a.387.387 0 0 1 .118.147l3.205 5.172c.068.122.131.24.19.354.057.114.108.226.15.338a4.884 4.884 0 0 1 .324-.692l3.205-5.172a.36.36 0 0 1 .115-.143.303.303 0 0 1 .186-.056h.711l-4.145 6.62zM244.798 56.601l-.016.676H237.8V46.02h6.983v.676h-6.135v4.551h5.106v.66h-5.106v4.695zM251.044 51.58c.493 0 .937-.059 1.328-.178.392-.12.723-.29.994-.514.271-.222.477-.49.62-.803.141-.313.213-.666.213-1.059 0-.8-.26-1.395-.778-1.782-.517-.387-1.273-.58-2.267-.58h-2.044v4.917h1.934zm4.953 5.697h-.694a.517.517 0 0 1-.225-.043.443.443 0 0 1-.17-.163l-3.581-4.567a1.072 1.072 0 0 0-.13-.152.5.5 0 0 0-.15-.099.763.763 0 0 0-.197-.052 2.074 2.074 0 0 0-.28-.016h-1.46v5.092h-.812V46.02h2.856c1.283 0 2.244.25 2.883.752.639.501.958 1.237.958 2.208 0 .43-.074.822-.22 1.177-.148.356-.36.668-.636.935a3.31 3.31 0 0 1-1.001.657c-.392.17-.833.283-1.321.342.126.08.239.186.338.318l3.842 4.87z"/>
    </g>
</svg>
