<svg aria-labelledby="label" role="img" xmlns="http://www.w3.org/2000/svg" width="169.97963mm" height="28.032053mm" viewBox="0 0 602.29003 99.326172"><title id="label">Bamboo Relay</title><g  transform="translate(-813.1407,-362.69912)"> <path style="fill:#f8a651;fill-opacity:1;fill-rule:nonzero;stroke:none" d="M 1226.085,383.55361 C 1228.3799,383.55361 1230.2696,383.71474 1231.754,384.04189 L 1230.6407,394.66201 C 1229.0245,394.27138 1227.3448,394.08095 1225.5967,394.08095 1221.0411,394.08095 1217.3448,395.56533 1214.5128,398.53896 1211.6856,401.51748 1210.2745,405.37978 1210.2745,410.13076 L 1210.2745,438.16298 1198.8731,438.16298 1198.8731,384.52529 1207.7989,384.52529 1209.3028,393.9833 1209.8839,393.9833 C 1211.6612,390.78017 1213.9805,388.24111 1216.8419,386.36611 1219.7032,384.49111 1222.7842,383.55361 1226.085,383.55361" /><path style="fill:#f8a651;fill-opacity:1;fill-rule:nonzero;stroke:none" d="M 1259.0635,392.18642 C 1255.4454,392.18642 1252.5401,393.33388 1250.3575,395.6288 1248.1749,397.92373 1246.876,401.27333 1246.4561,405.66787 L 1270.8018,405.66787 C 1270.7383,401.23916 1269.669,397.88466 1267.5987,395.60439 1265.5333,393.329 1262.6817,392.18642 1259.0635,392.18642 M 1261.1534,439.13467 C 1252.8087,439.13467 1246.2852,436.69814 1241.5831,431.83486 1236.876,426.96669 1234.5225,420.26748 1234.5225,411.73232 1234.5225,402.96767 1236.7051,396.08291 1241.0704,391.07314 1245.4356,386.06337 1251.4317,383.55361 1259.0635,383.55361 1266.1436,383.55361 1271.7393,385.70693 1275.8458,390.0038 1279.9473,394.30556 1282.003,400.22353 1282.003,407.75283 L 1282.003,413.91494 1246.2608,413.91494 C 1246.4219,419.12002 1247.8282,423.11904 1250.4796,425.91689 1253.1309,428.71474 1256.8663,430.11123 1261.6856,430.11123 1264.8546,430.11123 1267.7989,429.81338 1270.5333,429.21279 1273.2628,428.61708 1276.1973,427.62588 1279.337,426.23427 L 1279.337,435.49697 C 1276.5538,436.82021 1273.7413,437.75771 1270.8995,438.30947 1268.0528,438.85634 1264.8057,439.13467 1261.1534,439.13467" /><path style="fill:#f8a651;fill-opacity:1;fill-rule:nonzero;stroke:none" d="M 1300.3917,438.16298 1288.9952,438.16298 1288.9952,362.704 1300.3917,362.704 Z M 1300.3917,438.16298" /><path style="fill:#f8a651;fill-opacity:1;fill-rule:nonzero;stroke:none" d="M 1331.2852,430.40419 C 1335.4258,430.40419 1338.7462,429.24697 1341.251,426.93739 1343.7559,424.62294 1345.0108,421.38564 1345.0108,417.21083 L 1345.0108,412.55752 1338.126,412.84561 C 1332.7549,413.04092 1328.8536,413.93936 1326.4122,415.53603 1323.9659,417.13759 1322.7501,419.58877 1322.7501,422.88467 1322.7501,425.27724 1323.4581,427.12783 1324.8839,428.44131 1326.3048,429.74989 1328.4385,430.40419 1331.2852,430.40419 M 1348.2579,438.16298 1345.9825,430.69228 1345.5919,430.69228 C 1343.004,433.95888 1340.4014,436.18544 1337.7794,437.36221 1335.1671,438.54384 1331.7979,439.12978 1327.6964,439.12978 1322.4229,439.12978 1318.3116,437.70888 1315.3526,434.86221 1312.3936,432.02041 1310.9141,427.99697 1310.9141,422.79189 1310.9141,417.25967 1312.9698,413.08974 1317.0762,410.27724 1321.1827,407.46474 1327.4376,405.92666 1335.8409,405.66787 L 1345.1085,405.37978 1345.1085,402.51846 C 1345.1085,399.09072 1344.3077,396.52724 1342.7061,394.83291 1341.1046,393.13369 1338.6241,392.28408 1335.2598,392.28408 1332.5108,392.28408 1329.879,392.68935 1327.3546,393.49502 1324.835,394.30556 1322.4083,395.25771 1320.0792,396.35634 L 1316.3975,388.21181 C 1319.3077,386.68837 1322.4913,385.53603 1325.9483,384.74502 1329.4053,383.94912 1332.6719,383.55361 1335.7432,383.55361 1342.5645,383.55361 1347.7159,385.04287 1351.1924,388.0165 1354.6641,390.99013 1356.4073,395.66298 1356.4073,402.03017 L 1356.4073,438.16298 Z M 1348.2579,438.16298" /><path style="fill:#f8a651;fill-opacity:1;fill-rule:nonzero;stroke:none" d="M 1362.1788,384.52529 1374.5958,384.52529 1385.504,414.93057 C 1387.1544,419.26651 1388.253,423.33877 1388.8048,427.15224 L 1389.1905,427.15224 C 1389.4835,425.37489 1390.0157,423.21669 1390.7921,420.67763 1391.5684,418.14346 1395.6749,406.08779 1403.1114,384.52529 L 1415.4307,384.52529 1392.4913,445.29189 C 1388.3165,456.44423 1381.3682,462.02529 1371.6368,462.02529 1369.1173,462.02529 1366.6563,461.74697 1364.2637,461.20009 L 1364.2637,452.17666 C 1365.9776,452.56728 1367.9356,452.75771 1370.1329,452.75771 1375.6309,452.75771 1379.4932,449.57412 1381.7247,443.20693 L 1383.712,438.16298 Z M 1362.1788,384.52529" /><path style="fill:#4ad1a3;fill-opacity:1;fill-rule:nonzero;stroke:none" d="M 838.55085,394.75966 C 834.89851,394.75966 832.23248,395.88271 830.5528,398.1288 828.87311,400.3749 827.9991,404.08583 827.93561,409.25673 L 827.93561,410.85829 C 827.93561,416.67861 828.79498,420.84853 830.52351,423.37294 832.25691,425.89248 834.99616,427.15224 838.74616,427.15224 841.78816,427.15224 844.20515,425.75576 845.99713,422.95791 847.79401,420.16494 848.68757,416.09756 848.68757,410.76064 848.68757,405.42861 847.78425,401.42471 845.97272,398.75869 844.1612,396.09267 841.6905,394.75966 838.55085,394.75966 M 843.30671,382.92373 C 849.70807,382.92373 854.71785,385.42373 858.34088,390.41884 861.96393,395.41396 863.77546,402.25967 863.77546,410.95596 863.77546,419.91103 861.90535,426.84463 858.16998,431.76162 854.43463,436.67861 849.35163,439.13467 842.91608,439.13467 836.5489,439.13467 831.55378,436.82021 827.93561,432.19619 L 826.91511,432.19619 824.43952,438.16298 813.1407,438.16298 813.1407,362.69912 827.93561,362.69912 827.93561,380.25771 C 827.93561,382.48916 827.7403,386.05849 827.34967,390.97548 L 827.93561,390.97548 C 831.39265,385.60927 836.51472,382.92373 843.30671,382.92373" /><path style="fill:#4ad1a3;fill-opacity:1;fill-rule:nonzero;stroke:none" d="M 904.0782,413.04092 898.35553,413.23623 C 894.0489,413.36318 890.85066,414.13954 888.74616,415.56533 886.64655,416.98623 885.59675,419.15419 885.59675,422.05947 885.59675,426.23427 887.98932,428.31923 892.77448,428.31923 896.20222,428.31923 898.94147,427.33291 900.99226,425.36026 903.04792,423.38759 904.0782,420.77041 904.0782,417.50381 Z M 908.43855,438.16298 905.57722,430.78994 905.19147,430.78994 C 902.69636,433.92958 900.13776,436.10243 897.50105,437.31337 894.86921,438.52431 891.43171,439.13467 887.19831,439.13467 881.98835,439.13467 877.89655,437.64541 874.90338,434.67177 871.91511,431.69814 870.41608,427.45986 870.41608,421.96669 870.41608,416.20986 872.43268,411.96669 876.45612,409.23232 880.47956,406.50283 886.5489,404.98916 894.66901,404.70107 L 904.0782,404.40811 904.0782,402.03017 C 904.0782,396.53701 901.26081,393.78798 895.63581,393.78798 891.29987,393.78798 886.21198,395.09658 880.35748,397.71865 L 875.46003,387.72841 C 881.70026,384.46181 888.61921,382.82607 896.21686,382.82607 903.49226,382.82607 909.06842,384.41298 912.95026,387.58193 916.82722,390.75087 918.77057,395.56533 918.77057,402.03017 L 918.77057,438.16298 Z M 908.43855,438.16298" /><path style="fill:#4ad1a3;fill-opacity:1;fill-rule:nonzero;stroke:none" d="M 976.58307,438.16298 961.79303,438.16298 961.79303,406.49307 C 961.79303,402.58193 961.13873,399.64736 959.83014,397.68935 958.52154,395.73623 956.45612,394.75966 953.64362,394.75966 949.85944,394.75966 947.11529,396.15127 945.40143,398.92959 943.68757,401.70791 942.82819,406.28311 942.82819,412.65029 L 942.82819,438.16298 928.03816,438.16298 928.03816,383.94423 939.33698,383.94423 941.32917,390.87783 942.14948,390.87783 C 943.60455,388.38759 945.70904,386.43935 948.45319,385.0331 951.20222,383.62685 954.35651,382.92373 957.91119,382.92373 966.02643,382.92373 971.52448,385.57509 974.40046,390.87783 L 975.71393,390.87783 C 977.16901,388.3583 979.30768,386.40029 982.13483,385.00869 984.96198,383.62197 988.16022,382.92373 991.7149,382.92373 997.85748,382.92373 1002.5059,384.50087 1005.6602,387.65029 1008.8096,390.80459 1010.3868,395.8583 1010.3868,402.80654 L 1010.3868,438.16298 995.54792,438.16298 995.54792,406.49307 C 995.54792,402.58193 994.88873,399.64736 993.58503,397.68935 992.27643,395.73623 990.21101,394.75966 987.39851,394.75966 983.78034,394.75966 981.07038,396.05361 979.27351,398.63662 977.48151,401.22451 976.58307,405.33096 976.58307,410.95596 Z M 976.58307,438.16298" /><path style="fill:#4ad1a3;fill-opacity:1;fill-rule:nonzero;stroke:none" d="M 1045.0206,394.75966 C 1041.3633,394.75966 1038.6973,395.88271 1037.0176,398.1288 1035.338,400.3749 1034.4639,404.08583 1034.4005,409.25673 L 1034.4005,410.85829 C 1034.4005,416.67861 1035.2598,420.84853 1036.9932,423.37294 1038.7217,425.89248 1041.461,427.15224 1045.211,427.15224 1048.253,427.15224 1050.67,425.75576 1052.462,422.95791 1054.2589,420.16494 1055.1524,416.09756 1055.1524,410.76064 1055.1524,405.42861 1054.2491,401.42471 1052.4424,398.75869 1050.626,396.09267 1048.1553,394.75966 1045.0206,394.75966 M 1049.7715,382.92373 C 1056.1729,382.92373 1061.1876,385.42373 1064.8057,390.41884 1068.4288,395.41396 1070.2403,402.25967 1070.2403,410.95596 1070.2403,419.91103 1068.3702,426.84463 1064.6348,431.76162 1060.8995,436.67861 1055.8165,439.13467 1049.3809,439.13467 1043.0137,439.13467 1038.0186,436.82021 1034.4005,432.19619 L 1033.3799,432.19619 1030.9044,438.16298 1019.6104,438.16298 1019.6104,362.69912 1034.4005,362.69912 1034.4005,380.25771 C 1034.4005,382.48916 1034.2051,386.05849 1033.8145,390.97548 L 1034.4005,390.97548 C 1037.8575,385.60927 1042.9796,382.92373 1049.7715,382.92373" /><path style="fill:#4ad1a3;fill-opacity:1;fill-rule:nonzero;stroke:none" d="M 1092.2569,410.95596 C 1092.2569,416.32217 1093.1358,420.37978 1094.8985,423.12881 1096.6612,425.87783 1099.5323,427.24989 1103.5118,427.24989 1107.4522,427.24989 1110.2891,425.88759 1112.0225,423.15322 1113.7462,420.41884 1114.6153,416.35634 1114.6153,410.95596 1114.6153,405.58974 1113.7413,401.56631 1111.9932,398.88076 1110.2501,396.19521 1107.3887,394.85244 1103.4141,394.85244 1099.4688,394.85244 1096.6221,396.19033 1094.879,398.85634 1093.1309,401.52236 1092.2569,405.55557 1092.2569,410.95596 M 1129.7423,410.95596 C 1129.7423,419.78408 1127.418,426.68349 1122.7598,431.66396 1118.1065,436.64443 1111.6221,439.13467 1103.3165,439.13467 1098.1114,439.13467 1093.5215,437.99208 1089.5421,435.71181 1085.5626,433.43642 1082.5059,430.16006 1080.3721,425.89248 1078.2383,421.62489 1077.1739,416.64932 1077.1739,410.95596 1077.1739,402.09853 1079.4835,395.20888 1084.1075,390.29677 1088.7364,385.37978 1095.2305,382.92373 1103.6046,382.92373 1108.8096,382.92373 1113.3995,384.05654 1117.379,386.31728 1121.3536,388.58291 1124.4102,391.82998 1126.544,396.06826 1128.6778,400.30166 1129.7423,405.26748 1129.7423,410.95596" /><path style="fill:#4ad1a3;fill-opacity:1;fill-rule:nonzero;stroke:none" d="M 1151.7637,410.95596 C 1151.7637,416.32217 1152.6426,420.37978 1154.4053,423.12881 1156.168,425.87783 1159.0391,427.24989 1163.0137,427.24989 1166.959,427.24989 1169.8008,425.88759 1171.5294,423.15322 1173.2579,420.41884 1174.1221,416.35634 1174.1221,410.95596 1174.1221,405.58974 1173.2481,401.56631 1171.5001,398.88076 1169.7569,396.19521 1166.8956,394.85244 1162.921,394.85244 1158.9757,394.85244 1156.129,396.19033 1154.3858,398.85634 1152.6378,401.52236 1151.7637,405.55557 1151.7637,410.95596 M 1189.254,410.95596 C 1189.254,419.78408 1186.9249,426.68349 1182.2667,431.66396 1177.6133,436.64443 1171.129,439.13467 1162.8233,439.13467 1157.6182,439.13467 1153.0284,437.99208 1149.0489,435.71181 1145.0743,433.43642 1142.0176,430.16006 1139.8839,425.89248 1137.7501,421.62489 1136.6856,416.64932 1136.6856,410.95596 1136.6856,402.09853 1138.9903,395.20888 1143.6143,390.29677 1148.2432,385.37978 1154.7423,382.92373 1163.1114,382.92373 1168.3165,382.92373 1172.9112,384.05654 1176.8858,386.31728 1180.8604,388.58291 1183.9219,391.82998 1186.0557,396.06826 1188.1895,400.30166 1189.254,405.26748 1189.254,410.95596" /></g></svg> 