<svg width="115" height="22" viewBox="0 0 115 22" fill="none" xmlns="http://www.w3.org/2000/svg">
<path fill-rule="evenodd" clip-rule="evenodd" d="M56.1387 20.625C61.4544 20.625 65.7637 16.3157 65.7637 11C65.7637 5.68426 61.4544 1.375 56.1387 1.375C50.8229 1.375 46.5137 5.68426 46.5137 11C46.5137 16.3157 50.8229 20.625 56.1387 20.625ZM56.1387 22C62.2138 22 67.1387 17.0751 67.1387 11C67.1387 4.92487 62.2138 0 56.1387 0C50.0635 0 45.1387 4.92487 45.1387 11C45.1387 17.0751 50.0635 22 56.1387 22Z" fill="#80DBB8"/>
<path d="M65.0757 11C65.0757 15.936 61.0742 19.9375 56.1382 19.9375C51.2021 19.9375 47.2007 15.936 47.2007 11C47.2007 6.06395 51.2021 2.0625 56.1382 2.0625C61.0742 2.0625 65.0757 6.06395 65.0757 11Z" fill="#1DC887"/>
<path d="M53.7719 6.8937L47.2031 4.46875C47.1466 5.48492 47.9173 6.0161 48.3097 6.15467C49.2907 6.49339 51.4646 7.2586 52.3122 7.60964C53.1598 7.96068 53.717 8.81826 53.8896 9.20318L55.5141 12.6212C55.4121 11.5203 55.2269 9.12465 55.1139 8.34867C55.0009 7.57269 54.1721 7.05536 53.7719 6.8937Z" fill="white"/>
<path d="M52.1945 7.90987L48.2155 6.4549C48.5546 7.6004 49.2672 8.13312 49.5811 8.25629L53.7719 9.80364C53.5835 8.86137 52.6418 8.14851 52.1945 7.90987Z" fill="white"/>
<path d="M53.8896 10.0808L49.8871 8.6489C49.9625 9.48031 50.7975 10.0731 51.2056 10.2655L54.6195 11.4896C54.4704 11.1816 54.1533 10.5196 54.078 10.3348C54.0026 10.1501 53.921 10.0885 53.8896 10.0808Z" fill="white"/>
<path d="M58.5035 6.8937L65.0723 4.46875C65.1288 5.48492 64.3581 6.0161 63.9657 6.15467C62.9847 6.49339 60.8108 7.2586 59.9632 7.60964C59.1156 7.96068 58.5584 8.81826 58.3858 9.20318L56.7612 12.6212C56.8633 11.5203 57.0485 9.12465 57.1615 8.34867C57.2745 7.57269 58.1032 7.05536 58.5035 6.8937Z" fill="white"/>
<path d="M60.0809 7.90987L64.0599 6.4549C63.7208 7.6004 63.0082 8.13312 62.6943 8.25629L58.5035 9.80364C58.6918 8.86137 59.6336 8.14851 60.0809 7.90987Z" fill="white"/>
<path d="M58.3858 10.0808L62.3882 8.6489C62.3129 9.48031 61.4779 10.0731 61.0698 10.2655L57.6559 11.4896C57.805 11.1816 58.1221 10.5196 58.1974 10.3348C58.2728 10.1501 58.3544 10.0885 58.3858 10.0808Z" fill="white"/>
<path d="M56.0531 6.55912L55.9641 6.86397V15.7101L56.0531 15.7996L60.1257 13.3724L56.0531 6.55912Z" fill="#19A670"/>
<path d="M56.0531 6.55914L51.9805 13.3724L56.0531 15.7996V11.506V6.55914Z" fill="#18DAA3"/>
<path d="M56.0535 16.5771L56.0034 16.6387V19.7899L56.0535 19.9375L60.1286 14.1511L56.0535 16.5771Z" fill="#1AA670"/>
<path d="M56.0531 19.9375V16.577L51.9805 14.1511L56.0531 19.9375Z" fill="#18DAA3"/>
<path d="M56.0527 15.7996L60.1253 13.3724L56.0527 11.506V15.7996Z" fill="#137B54"/>
<path d="M51.9805 13.3724L56.053 15.7996V11.506L51.9805 13.3724Z" fill="#147B55"/>
<path d="M9.82575 11.1017C10.6837 11.3987 11.385 11.8855 11.9295 12.562C12.474 13.2385 12.7462 14.0965 12.7462 15.136C12.7462 16.753 12.2017 17.9575 11.1128 18.7495C10.0238 19.5415 8.547 19.9375 6.6825 19.9375H0V3.42925H6.11325C8.04375 3.42925 9.471 3.817 10.395 4.5925C11.3355 5.368 11.8057 6.4735 11.8057 7.909C11.8057 8.7175 11.6242 9.361 11.2612 9.8395C10.9148 10.3015 10.4362 10.7222 9.82575 11.1017ZM2.7225 10.3097H6.435C7.2105 10.3097 7.8375 10.153 8.316 9.8395C8.811 9.526 9.0585 8.95675 9.0585 8.13175C9.0585 7.25725 8.811 6.6385 8.316 6.2755C7.8375 5.9125 7.13625 5.731 6.21225 5.731H2.7225V10.3097ZM6.65775 17.6605C7.66425 17.6605 8.4645 17.4707 9.0585 17.0912C9.6525 16.6952 9.9495 16.0022 9.9495 15.0122C9.9495 14.0222 9.636 13.3622 9.009 13.0322C8.3985 12.6857 7.59 12.5125 6.5835 12.5125H2.74725V17.6605H6.65775Z" fill="#19A670"/>
<path d="M16.0005 3.42925H26.8162V5.731H18.7477V10.5077H25.7767V12.8342H18.723V17.6357H26.8162V19.9375H16.0005V3.42925Z" fill="#19A670"/>
<path d="M34.4129 5.731H29.0917V3.42925H42.4814V5.731H37.1354V19.9375H34.4129V5.731Z" fill="#19A670"/>
<path d="M74.382 12.9085L72.8723 14.5667V19.9375H70.125V3.42925H72.8723V11.4482L79.5053 3.42925H82.9703L76.263 10.8295L83.5147 19.9375H79.926L74.382 12.9085Z" fill="#167C57"/>
<path d="M86.0046 3.42925H96.8204V5.731H88.7519V10.5077H95.7809V12.8342H88.7271V17.6357H96.8204V19.9375H86.0046V3.42925Z" fill="#167C57"/>
<path d="M114.49 3.42925V19.9375H112.04L103.105 7.6615V19.9375H100.507V3.42925H103.13L111.892 15.5567V3.42925H114.49Z" fill="#167C57"/>
</svg>
