<svg id="box-makes-visuals" viewBox="0 0 1833 1638" version="1.1" xmlns="http://www.w3.org/2000/svg" xmlns:xlink="http://www.w3.org/1999/xlink">
    <g stroke="none" stroke-width="1" fill="none" fill-rule="evenodd">
        <path d="M98.2283229,491.086881 C139.626277,458.976936 127.231399,381.552649 272.950535,360.107332 C418.669672,338.662016 391.855694,255.120225 409.610968,231.287934 C427.366241,207.455644 503.891709,0 783.572985,0 C948.023567,0 1055.04532,100.70893 1168.68265,222.352641 C1254.72072,314.452743 1335.89224,273.543689 1437.25145,245.21347 C1573.95414,207.004641 1625.54746,318.538092 1632.32013,360.107332 C1637.63745,392.743922 1625.54746,448.069414 1718.1714,469.578147 C1810.79535,491.086881 1826.4224,553.304601 1826.4224,640.065896 C1744.19436,635.344193 1135.8971,635.344193 1.53061811,640.065896 C1.53061811,554.241781 56.830369,523.196827 98.2283229,491.086881 Z"
            id="smoke" fill="#FFFFFF" opacity="0.200000003" transform="translate(913.976508, 320.032948) scale(-1, 1) translate(-913.976508, -320.032948) "></path>
        <g id="tube" transform="translate(0.000000, 412.056066)">
            <g id="black_hole" transform="translate(0.148124, 0.000000)">
                <g id="other_details">
                    <path d="M129.954415,400.607786 L129.954415,1069.96953 C129.954415,1118.87606 330.621226,1223.11211 899.759026,1223.11211 C1468.89683,1223.11211 1703.23233,1121.21735 1703.23233,1069.96953 L1703.23233,401.014796 C1542.84051,481.889165 1275.80926,522.326349 902.138581,522.326349 C528.467899,522.326349 271.073176,481.753495 129.954415,400.607786 Z"
                        id="Path-3" stroke="#231F20" stroke-width="2.41499984" fill="#E1E9F3"></path>
                    <path d="M131.336908,400.607786 L131.336908,474.561259 C171.078749,489.01778 351.453447,576.046368 900.326785,576.046368 C1449.20012,576.046368 1655.64974,489.01778 1701.84983,470.735733 L1701.84983,400.999441 C1543.03495,459.678334 1276.65437,489.01778 902.708095,489.01778 C528.761816,489.01778 271.638088,459.547782 131.336908,400.607786 Z"
                        id="Path-3" fill="#BED1F4"></path>
                    <path d="M914.517246,497.850471 C409.443252,497.850471 0,408.163073 0,297.53294 C0,223.779518 0,193.853597 0,207.755178 L1829.03767,207.755178 C1829.03767,224.667679 1829.03767,254.5936 1829.03767,297.53294 C1829.03767,408.163073 1419.59124,497.850471 914.517246,497.850471 Z"
                        id="Fill-4380" stroke="#231F20" stroke-width="2.41499984" fill="#E1E9F3"></path>
                    <path d="M1829.03926,200.306132 C1829.03926,310.927497 1419.59247,400.607786 914.518041,400.607786 C409.443608,400.607786 0,310.927497 0,200.306132 C0,89.6847677 409.443608,0 914.518041,0 C1419.59247,0 1829.03926,89.6847677 1829.03926,200.306132"
                        id="Fill-4380" stroke="#231F20" stroke-width="2.41499984" fill="#FFFFFF"></path>
                </g>
                <g id="hole" transform="translate(129.954415, 52.493434)" stroke="#231F20" stroke-width="2.41499984">
                    <path d="M1567.74794,141.596027 C1567.74794,219.796962 1216.79574,283.188263 783.872544,283.188263 C350.9522,283.188263 0,219.796962 0,141.596027 C0,63.3950931 350.9522,0 783.872544,0 C1216.79574,0 1567.74794,63.3950931 1567.74794,141.596027"
                        id="Fill-4384" fill="#231F20"></path>
                    <path d="M1560.71553,160.243114 C1509.2088,91.2228928 1181.03473,38.0018786 783.872544,38.0018786 C386.712973,38.0018786 58.5391183,91.2228928 7.03240329,160.243114 C2.39467173,154.028484 0,147.685745 0,141.242207 C0,63.2366813 350.9522,0 783.872544,0 C1216.79574,0 1567.74794,63.2366813 1567.74794,141.242207 C1567.74794,147.685745 1565.35327,154.028484 1560.71553,160.24311 Z"
                        id="Combined-Shape" fill="#BED1F4"></path>
                </g>
            </g>
            <g id="Group-81" transform="translate(0.000000, 222.406392)" stroke="#231F20" stroke-width="2.41499984">
                <path d="M1797.88419,112.600107 C1790.16771,120.801847 1774.93763,132.563072 1754.75606,142.645921 M1741.13107,148.939537 C1730.68094,153.237989 1720.58038,156.915422 1711.67541,160.243114"
                    id="Path-13-Copy"></path>
                <path d="M1829.18703,0.690703079 C1829.00211,47.1640069 1755.69299,74.7238998 1711.67541,91.1728065" id="Path-13-Copy"></path>
                <path d="M485.404789,241.400726 L503.375857,242.782132" id="Path-39" fill="#407BF7"></path>
                <path d="M0.142723966,6.90163468 C0.142723966,20.7210924 18.1205434,37.9886694 43.0054313,53.8694441" id="Path-40"></path>
                <path d="M0.0363253123,49.8735549 C0.0363253123,56.2625584 5.5663004,61.6155073 8.33128795,64.0329681" id="Path-39"></path>
            </g>
        </g>
        <g id="lines" transform="translate(213.052165, 948.455094)" stroke="#231F20" stroke-width="2.41499984">
            <g id="right" transform="translate(1366.889910, 0.000000)">
                <ellipse id="Oval" fill="#E1E9F3" fill-rule="nonzero" cx="17.972419" cy="78.740151" rx="5.52997509" ry="5.52562463"></ellipse>
                <ellipse id="Oval" fill="#E1E9F3" fill-rule="nonzero" cx="17.972419" cy="306.672167" rx="5.52997509" ry="5.52562463"></ellipse>
                <ellipse id="Oval" fill="#E1E9F3" fill-rule="nonzero" cx="17.972419" cy="534.604183" rx="5.52997509" ry="5.52562463"></ellipse>
                <path d="M1.38249377,1.35451847 L1.38249377,569.146865" id="Path-6" fill="#FFFFFF"></path>
            </g>
            <g id="left" transform="translate(0.000000, 14.489999)">
                <ellipse id="Oval" fill="#E1E9F3" fill-rule="nonzero" cx="5.52997509" cy="26.246717" rx="5.52997509" ry="5.52562463"></ellipse>
                <ellipse id="Oval" fill="#E1E9F3" fill-rule="nonzero" cx="5.52997509" cy="254.178733" rx="5.52997509" ry="5.52562463"></ellipse>
                <ellipse id="Oval" fill="#E1E9F3" fill-rule="nonzero" cx="5.52997509" cy="482.110749" rx="5.52997509" ry="5.52562463"></ellipse>
                <path d="M34.5623443,0 L34.5623443,261.089418" id="Path-6" fill="#FFFFFF"></path>
                <path d="M34.5623443,280.42545 L34.5623443,541.514869" id="Path-6" fill="#FFFFFF"></path>
            </g>
        </g>
    </g>
</svg>