<svg id="box-makes-tablet-visuals" viewBox="0 0 1517 1397" version="1.1" xmlns="http://www.w3.org/2000/svg" xmlns:xlink="http://www.w3.org/1999/xlink">
    <g stroke="none" stroke-width="1" fill="none" fill-rule="evenodd">
        <path d="M81.0651489,406.639455 C115.342419,380.051144 105.07953,315.940757 225.734146,298.183183 C346.388761,280.425609 324.18694,211.249685 338.888205,191.515601 C353.589471,171.781518 416.952122,0 648.526626,0 C784.690771,0 873.304176,83.3909968 967.395232,184.116823 C1038.63427,260.379368 1105.84382,226.505046 1189.76867,203.046499 C1302.95772,171.408069 1345.6767,263.762199 1351.28443,298.183183 C1355.68714,325.207576 1345.6767,371.019282 1422.36879,388.829368 C1499.06089,406.639455 1512,458.158199 1512,530 C1443.91565,526.090242 940.248985,526.090242 1,530 C1,458.934221 46.7878788,433.227766 81.0651489,406.639455 Z" id="smoke" fill="#FFFFFF" opacity="0.200000003" transform="translate(756.500000, 265.000000) scale(-1, 1) translate(-756.500000, -265.000000) "></path>
        <g id="black_hole" transform="translate(0.122670, 302.000000)">
            <g id="other_details">
                <path d="M108,332 L108,966.336888 C108,1006.83919 274.183705,1093.16304 745.519389,1093.16304 C1216.85507,1093.16304 1410.92175,1008.77814 1410.92175,966.336888 L1410.92175,332.337068 C1278.09208,399.313776 1056.94818,432.802129 747.490035,432.802129 C438.031893,432.802129 224.868548,399.20142 108,332 Z" id="Path-3" stroke="#231F20" stroke-width="2" fill="#E1E9F3"></path>
                <path d="M108.767633,331.766304 L108.767633,393.01142 C141.680133,404.983696 291.058775,477.057065 745.612293,477.057065 C1200.16581,477.057065 1371.13859,404.983696 1409.39954,389.843283 L1409.39954,332.090657 C1277.87582,380.686016 1057.27077,404.983696 747.584393,404.983696 C437.898014,404.983696 224.959094,380.577899 108.767633,331.766304 Z" id="Path-3" fill="#BED1F4"></path>
                <path d="M757.364229,412.298554 C339.083461,412.298554 0,338.023271 0,246.404107 C0,185.324665 0,160.541292 0,172.053989 L1514.73109,172.053989 C1514.73109,186.060202 1514.73109,210.843575 1514.73109,246.404107 C1514.73109,338.023271 1175.645,412.298554 757.364229,412.298554 Z" id="Fill-4380" stroke="#231F20" stroke-width="2" fill="#E1E9F3"></path>
                <path d="M1514.73241,165.885007 C1514.73241,257.496909 1175.64602,331.766304 757.364887,331.766304 C339.083756,331.766304 0,257.496909 0,165.885007 C0,74.2731044 339.083756,0 757.364887,0 C1175.64602,0 1514.73241,74.2731044 1514.73241,165.885007" id="Fill-4380" stroke="#231F20" stroke-width="2" fill="#FFFFFF"></path>
            </g>
            <g id="hole" transform="translate(107.622711, 43.472826)" stroke="#231F20" stroke-width="2">
                <path d="M1298.34206,117.263799 C1298.34206,182.026482 1007.6984,234.524457 649.169852,234.524457 C290.643663,234.524457 0,182.026482 0,117.263799 C0,52.5011158 290.643663,0 649.169852,0 C1007.6984,0 1298.34206,52.5011158 1298.34206,117.263799" id="Fill-4384" fill="#231F20"></path>
                <path d="M1292.51813,132.706522 C1249.86244,75.5469142 978.082656,31.4715372 649.169852,31.4715372 C320.259212,31.4715372 48.4796042,75.5469142 5.82393686,132.706522 C1.98316513,127.559829 0,122.307043 0,116.97078 C0,52.3699259 290.643663,0 649.169852,0 C1007.6984,0 1298.34206,52.3699259 1298.34206,116.97078 C1298.34206,122.307043 1296.3589,127.559829 1292.51812,132.706518 Z" id="Combined-Shape" fill="#BED1F4"></path>
            </g>
        </g>
        <g id="Group-81" transform="translate(0.000000, 486.187500)" stroke="#231F20" stroke-width="2">
            <path d="M1488.93111,93.2506121 C1482.54064,100.042944 1469.92774,109.78309 1453.21422,118.133275 M1441.93059,123.34538 C1433.27624,126.905175 1424.91138,129.950668 1417.53667,132.706522" id="Path-13-Copy"></path>
            <path d="M1514.85479,0.57201087 C1514.70164,39.0592215 1453.99015,61.8831509 1417.53667,75.5054348" id="Path-13-Copy"></path>
            <path d="M401.99157,199.917799 L416.874444,201.061821" id="Path-39" fill="#407BF7"></path>
            <path d="M0.11819791,5.71563986 C0.11819791,17.1603261 15.0066622,31.4605978 35.6152664,44.612379" id="Path-40"></path>
            <path d="M0.0300830764,41.3031538 C0.0300830764,46.5942544 4.60977289,51.0273386 6.8996178,53.0293766" id="Path-39"></path>
        </g>
    </g>
</svg>