<?xml version="1.0" encoding="UTF-8"?>
<svg width="296px" height="60px" viewBox="0 0 296 60" version="1.1" xmlns="http://www.w3.org/2000/svg" xmlns:xlink="http://www.w3.org/1999/xlink">
    <!-- Generator: Sketch 49.2 (51160) - http://www.bohemiancoding.com/sketch -->
    <title>button-bg</title>
    <desc>Created with Sketch.</desc>
    <defs></defs>
    <g id="Page-1" stroke="none" stroke-width="1" fill="none" fill-rule="evenodd">
        <g id="bZx-website_2560" transform="translate(-1901.000000, -60.000000)">
            <g id="1st_screen" transform="translate(362.412432, 60.000000)">
                <g id="header">
                    <g id="subscribe" transform="translate(1538.587568, 0.000000)">
                        <g id="Group-21">
                            <g id="button-bg">
                                <polygon id="Fill-3273" fill="#FFFFFF" points="0 60 296 60 296 0 0 0"></polygon>
                                <path d="M22.9424985,11.4712492 C22.9424985,13.1385006 21.591,14.489999 19.9237487,14.489999 C18.2564974,14.489999 16.9049989,13.1385006 16.9049989,11.4712492 C16.9049989,9.80399793 18.2564974,8.45249944 19.9237487,8.45249944 C21.591,8.45249944 22.9424985,9.80399793 22.9424985,11.4712492 Z" id="Stroke-3280" stroke="#000000" stroke-width="1.20749992"></path>
                                <path d="M291.007481,11.4712492 C291.007481,13.1385006 289.655982,14.489999 287.988731,14.489999 C286.32148,14.489999 284.969981,13.1385006 284.969981,11.4712492 C284.969981,9.80399793 286.32148,8.45249944 287.988731,8.45249944 C289.655982,8.45249944 291.007481,9.80399793 291.007481,11.4712492 Z" id="Stroke-3280" stroke="#000000" stroke-width="1.20749992"></path>
                                <path d="M22.9424985,48.9037468 C22.9424985,50.5709981 21.591,51.9224966 19.9237487,51.9224966 C18.2564974,51.9224966 16.9049989,50.5709981 16.9049989,48.9037468 C16.9049989,47.2364955 18.2564974,45.884997 19.9237487,45.884997 C21.591,45.884997 22.9424985,47.2364955 22.9424985,48.9037468 Z" id="Stroke-3280" stroke="#000000" stroke-width="1.20749992"></path>
                                <path d="M291.007481,48.9037468 C291.007481,50.5709981 289.655982,51.9224966 287.988731,51.9224966 C286.32148,51.9224966 284.969981,50.5709981 284.969981,48.9037468 C284.969981,47.2364955 286.32148,45.884997 287.988731,45.884997 C289.655982,45.884997 291.007481,47.2364955 291.007481,48.9037468 Z" id="Stroke-3280" stroke="#000000" stroke-width="1.20749992"></path>
                            </g>
                        </g>
                    </g>
                </g>
            </g>
        </g>
    </g>
</svg>