<svg class="history__coin--right" width="460px" height="495px" viewBox="0 0 460 495" version="1.1" xmlns="http://www.w3.org/2000/svg" xmlns:xlink="http://www.w3.org/1999/xlink">
    <defs>
        <ellipse id="cr_path-1" cx="223.501035" cy="174.764536" rx="182.641613" ry="174.756988"></ellipse>
        <ellipse id="cr_path-3" cx="232.621441" cy="174.764536" rx="112.772003" ry="107.804636"></ellipse>
    </defs>
    <g id="Page-1" stroke="none" stroke-width="1" fill="none" fill-rule="evenodd">
        <g id="bZx-website_1080" transform="translate(-309.000000, -17241.000000)">
            <g id="Group-187" transform="translate(311.000000, 17006.000000)">
                <g id="Group-167" transform="translate(0.361220, 237.266956)">
                    <g id="Group-100-Copy-3">
                        <path d="M228.010164,490.320232 C353.9367,490.320232 456.020327,391.067408 456.020327,268.632846 C456.020327,146.198283 0,146.198283 0,268.632846 C0,391.067408 102.083627,490.320232 228.010164,490.320232 Z" id="Oval-3" stroke="#231F20" stroke-width="3.18779998" fill="#407BF7"></path>
                        <ellipse id="Oval-3-Copy" stroke="#231F20" stroke-width="3.18779998" fill="#73A0FF" cx="225.274042" cy="257.008003" rx="225.274042" ry="129.415377"></ellipse>
                        <ellipse id="Oval-3-Copy" stroke="#231F20" stroke-width="3.18779998" fill="#001135" cx="226.186082" cy="257.919378" rx="191.528537" ry="104.808228"></ellipse>
                        <g id="Group" transform="translate(232.455433, 178.000000) scale(-1, 1) translate(-232.455433, -178.000000) translate(28.955433, 0.000000)">
                            <g>
                                <ellipse id="Oval" stroke="#231F20" stroke-width="3.18779998" fill="#FFB439" fill-rule="nonzero" cx="183.050207" cy="174.764536" rx="182.641613" ry="174.756988"></ellipse>
                                <ellipse id="Oval" stroke="#231F20" stroke-width="3.18779998" fill="#FFCB76" fill-rule="nonzero" cx="223.501035" cy="174.764536" rx="182.641613" ry="174.756988"></ellipse>
                                <mask id="mask-2" fill="white">
                                    <use xlink:href="#cr_path-1"></use>
                                </mask>
                                <use id="Oval" stroke="#231F20" stroke-width="3.18779998" fill="#FFCB76" fill-rule="nonzero" xlink:href="#path-1"></use>
                                <polygon id="Rectangle" opacity="0.100000001" mask="url(#mask-2)" points="313.741985 12.7592625 355.695855 12.7592625 268.139952 357.259351 226.186082 357.259351"></polygon>
                                <polygon id="Rectangle" fill="#FFFFFF" opacity="0.100000001" mask="url(#mask-2)" points="291.853009 -5.46825537 308.269741 -5.46825537 220.713838 339.031833 204.297107 339.031833"></polygon>
                                <ellipse id="Oval" stroke="#231F20" stroke-width="3.18779998" fill="#FFB439" fill-rule="nonzero" mask="url(#mask-2)" cx="223.501035" cy="174.764536" rx="112.772003" ry="107.804636"></ellipse>
                                <mask id="mask-4" fill="white">
                                    <use xlink:href="#cr_path-3"></use>
                                </mask>
                                <use id="Oval" stroke="#231F20" stroke-width="3.18779998" fill="#FFCB76" fill-rule="nonzero" xlink:href="#path-3"></use>
                                <polygon id="Rectangle" fill="#FFFFFF" opacity="0.200000003" mask="url(#mask-4)" points="310.093822 67.4418163 352.047693 67.4418163 297.325253 284.349279 255.371383 284.349279"></polygon>
                                <polygon id="Rectangle" fill="#FFFFFF" opacity="0.100000001" mask="url(#mask-4)" points="280.908522 67.4418163 297.325253 67.4418163 242.602814 284.349279 226.186082 284.349279"></polygon>
                            </g>
                            <path d="M77.6537471,71.1307187 L35.9604601,71.1307187" id="Shape" stroke="#231F20" stroke-width="3.18779998" fill="#29CC86" fill-rule="nonzero"></path>
                            <path d="M83.1259911,63.8397115 L39.6086227,63.8397115" id="Shape" stroke="#231F20" stroke-width="3.18779998" fill="#29CC86" fill-rule="nonzero"></path>
                            <path d="M157.913325,10.9799096 L116.220038,10.9799096" id="Shape" stroke="#231F20" stroke-width="3.18779998" fill="#29CC86" fill-rule="nonzero"></path>
                            <path d="M177.978219,5.51165422 L136.284932,5.51165422" id="Shape" stroke="#231F20" stroke-width="3.18779998" fill="#29CC86" fill-rule="nonzero"></path>
                            <path d="M41.6932871,174.984172 L0,174.984172" id="Shape" stroke="#231F20" stroke-width="3.18779998" fill="#29CC86" fill-rule="nonzero"></path>
                            <path d="M41.6932871,167.693165 L0,167.693165" id="Shape" stroke="#231F20" stroke-width="3.18779998" fill="#29CC86" fill-rule="nonzero"></path>
                            <path d="M70.0968389,271.676815 L32.5728805,271.676815" id="Shape" stroke="#231F20" stroke-width="3.18779998" fill="#29CC86" fill-rule="nonzero"></path>
                            <path d="M77.3931641,278.967822 L39.8692057,278.967822" id="Shape" stroke="#231F20" stroke-width="3.18779998" fill="#29CC86" fill-rule="nonzero"></path>
                            <path d="M156.089243,337.209081 L118.565285,337.209081" id="Shape" stroke="#231F20" stroke-width="3.18779998" fill="#29CC86" fill-rule="nonzero"></path>
                            <path d="M170.681894,342.677337 L133.157936,342.677337" id="Shape" stroke="#231F20" stroke-width="3.18779998" fill="#29CC86" fill-rule="nonzero"></path>
                        </g>
                    </g>
                    <g id="Group-162" transform="translate(202.964624, 174.287726) scale(-1, 1) rotate(-4.000000) translate(-202.964624, -174.287726) translate(136.827954, 151.992727)" fill="#231F20">
                        <path d="M6.61227063,37.7012841 L30.580699,37.7012841 L30.580699,42.4914758 L1.42458339,42.4914758 L1.42458339,36.3889028 C1.42458339,31.5330678 3.26323896,27.9678009 6.94060526,25.6929953 C8.12261586,24.9493089 9.43594127,24.2931248 10.8806209,23.7244234 L19.0233199,20.4434702 C23.2260242,18.7811122 25.3273449,16.0470119 25.3273449,12.2410871 C25.3273449,10.1412665 24.6050159,8.42425152 23.1603363,7.08999053 C21.7156566,5.75572955 19.6909466,5.08860907 17.0861455,5.08860907 C14.4813444,5.08860907 12.358135,5.63542914 10.7164536,6.72908568 C9.07477219,7.82274222 8.12261127,9.46320243 7.85994224,11.6505155 L2.14691959,11.6505155 C2.36581044,8.06332205 3.81046839,5.30734891 6.48093678,3.38251339 C9.15140516,1.45767788 12.5769956,0.495274555 16.7578109,0.495274555 C20.9386261,0.495274555 24.3423278,1.6326603 26.969018,3.90746591 C29.5957083,6.18227152 30.9090337,8.99292667 30.9090337,12.3395157 C30.9090337,15.6861047 30.0444278,18.3436502 28.31519,20.312232 C26.5859523,22.2808138 24.2110222,23.8556556 21.1903284,25.0368047 L12.8506287,28.383377 C10.7492765,29.2583022 9.18423042,30.2535147 8.15544342,31.3690444 C7.12665641,32.4845741 6.61227063,33.9391154 6.61227063,35.7327122 L6.61227063,37.7012841 Z M54.8774621,0.495274555 C59.8681735,0.495274555 63.8081497,2.33258999 66.6975089,6.00727597 C69.5868682,9.68196195 71.0315261,14.9642438 71.0315261,21.85428 C71.0315261,28.7443163 69.5868682,34.0265981 66.6975089,37.7012841 C63.8081497,41.3759701 59.8681735,43.2132855 54.8774621,43.2132855 C49.8867506,43.2132855 45.93583,41.3978429 43.0245817,37.7669032 C40.1133334,34.1359635 38.6577311,28.8318088 38.6577311,21.85428 C38.6577311,14.8767513 40.1133334,9.57259663 43.0245817,5.94165691 C45.93583,2.31071718 49.8867506,0.495274555 54.8774621,0.495274555 Z M65.6468381,21.8870896 C65.6468381,16.5062994 64.7275103,12.3832761 62.8888272,9.51789592 C61.050144,6.65251578 58.3687713,5.2198472 54.8446286,5.2198472 C51.3204859,5.2198472 48.6391132,6.65251578 46.80043,9.51789592 C44.9617469,12.3832761 44.0424191,16.495363 44.0424191,21.85428 C44.0424191,27.2131971 44.9617469,31.325284 46.80043,34.1906642 C48.6391132,37.0560443 51.3204859,38.4887129 54.8446286,38.4887129 C58.3687713,38.4887129 61.050144,37.0560443 62.8888272,34.1906642 C64.7275103,31.325284 65.6468381,27.2241335 65.6468381,21.8870896 Z M77.5325519,4.43241842 C80.4656893,4.03870207 83.0266739,2.92318913 85.2155824,1.08584613 L89.4182657,1.08584613 L89.4182657,42.4914758 L84.2962454,42.4914758 L84.2962454,7.2540382 C82.1073369,8.65391857 79.8527949,9.41946667 77.5325519,9.55070545 L77.5325519,4.43241842 Z M114.568699,0.495274555 C116.801385,0.495274555 118.924595,0.976476215 120.938391,1.93889397 C122.952187,2.90131173 124.681398,4.2792983 126.126078,6.07289503 C129.278106,9.92256607 130.854097,14.9314379 130.854097,21.0996608 C130.854097,31.8174949 127.877226,38.685555 121.923395,41.704047 C119.865821,42.7102111 117.633167,43.2132855 115.225368,43.2132855 C110.716217,43.2132855 107.148349,41.9884086 104.521659,39.5386179 C101.894969,37.0888273 100.581643,34.0047621 100.581643,30.2863298 L106.031998,30.2863298 C106.119555,32.7798667 106.90755,34.7702918 108.396008,36.2576647 C109.884465,37.7450376 111.766899,38.4887129 114.043363,38.4887129 C116.319828,38.4887129 118.158484,38.0731296 119.559385,37.2419507 C123.543199,34.7484137 125.535076,29.1271034 125.535076,20.3778511 C125.535076,18.5842544 125.425632,16.965667 125.206741,15.5220403 C124.768959,19.0654875 123.488467,21.7120967 121.365226,23.4619471 C119.241984,25.2117976 116.462112,26.0867097 113.025526,26.0867097 C109.58894,26.0867097 106.623013,24.8727691 104.127657,22.4448516 C101.632302,20.0169341 100.384643,16.9219325 100.384643,13.159754 C100.384643,9.35382923 101.676079,6.29163684 104.258991,3.97308497 C106.841903,1.6545331 110.278438,0.495274555 114.568699,0.495274555 Z M120.544389,7.51651445 C118.924597,6.02914155 116.867054,5.28546626 114.371698,5.28546626 C111.876342,5.28546626 109.818799,6.00726875 108.199007,7.45089539 C106.579215,8.89452202 105.769331,10.8849471 105.769331,13.4222303 C105.769331,15.9595134 106.590159,17.9499385 108.23184,19.3935651 C109.873522,20.8371918 111.931065,21.5589942 114.404531,21.5589942 C116.877998,21.5589942 118.935541,20.7825098 120.577223,19.2295175 C122.218904,17.6765252 123.039732,15.6970365 123.039732,13.2909921 C123.039732,10.8849477 122.20796,8.96014109 120.544389,7.51651445 Z" id="2019" transform="translate(66.139340, 21.854280) scale(-1, 1) translate(-66.139340, -21.854280) "></path>
                    </g>
                </g>
            </g>
        </g>
    </g>
</svg>