<svg class="footer__bg" width="1834px" height="413px" viewBox="0 0 1834 413" version="1.1" xmlns="http://www.w3.org/2000/svg" xmlns:xlink="http://www.w3.org/1999/xlink">
    <defs>
        <path d="M33.9992375,33.3008443 C33.9992375,36.3541421 31.5241788,38.8291903 28.470868,38.8291903 C25.4175572,38.8291903 22.9424985,36.3541421 22.9424985,33.3008443 C22.9424985,30.2475464 25.4175572,27.7724982 28.470868,27.7724982 C31.5241788,27.7724982 33.9992375,30.2475464 33.9992375,33.3008443 Z" id="footer_bg_path-1"></path>
        <path d="M1799.36412,34.5083442 C1799.36412,37.561642 1796.88906,40.0366903 1793.83575,40.0366903 C1790.78244,40.0366903 1788.30738,37.561642 1788.30738,34.5083442 C1788.30738,31.4550463 1790.78244,28.9799981 1793.83575,28.9799981 C1796.88906,28.9799981 1799.36412,31.4550463 1799.36412,34.5083442 Z" id="footer_bg_path-2"></path>
        <path d="M33.9992375,378.645821 C33.9992375,381.699119 31.5241788,384.174168 28.470868,384.174168 C25.4175572,384.174168 22.9424985,381.699119 22.9424985,378.645821 C22.9424985,375.592524 25.4175572,373.117475 28.470868,373.117475 C31.5241788,373.117475 33.9992375,375.592524 33.9992375,378.645821 Z" id="footer_bg_path-3"></path>
        <path d="M1799.36412,378.645821 C1799.36412,381.699119 1796.88906,384.174168 1793.83575,384.174168 C1790.78244,384.174168 1788.30738,381.699119 1788.30738,378.645821 C1788.30738,375.592524 1790.78244,373.117475 1793.83575,373.117475 C1796.88906,373.117475 1799.36412,375.592524 1799.36412,378.645821 Z" id="footer_bg_path-4"></path>
    </defs>
    <g id="Page-1" stroke="none" stroke-width="1" fill="none" fill-rule="evenodd">
        <g id="bZx-website_2560" transform="translate(-363.000000, -24070.000000)">
            <g id="bottom_cta" transform="translate(-167.212022, 24070.402152)">
                <g id="Group-131" transform="translate(530.710701, 0.000000)">
                    <g id="Group-14">
                        <rect id="Rectangle-5-Copy-8" fill="#E1E9F3" x="0" y="0" width="1832.98488" height="411.861784"></rect>
                    </g>
                    <g id="Stroke-3280">
                        <use fill="#E1E9F3" fill-rule="evenodd" xlink:href="#footer_bg_path-1"></use>
                        <path stroke="#231F20" stroke-width="2.41499984" d="M35.2067374,33.3008443 C35.2067374,37.021027 32.1910614,40.0366903 28.470868,40.0366903 C24.7506746,40.0366903 21.7349986,37.021027 21.7349986,33.3008443 C21.7349986,29.5806615 24.7506746,26.5649982 28.470868,26.5649982 C32.1910614,26.5649982 35.2067374,29.5806615 35.2067374,33.3008443 Z"></path>
                    </g>
                    <g id="Stroke-3280">
                        <use fill="#E1E9F3" fill-rule="evenodd" xlink:href="#footer_bg_path-2"></use>
                        <path stroke="#231F20" stroke-width="2.41499984" d="M1800.57162,34.5083442 C1800.57162,38.228527 1797.55594,41.2441902 1793.83575,41.2441902 C1790.11556,41.2441902 1787.09988,38.228527 1787.09988,34.5083442 C1787.09988,30.7881614 1790.11556,27.7724982 1793.83575,27.7724982 C1797.55594,27.7724982 1800.57162,30.7881614 1800.57162,34.5083442 Z"></path>
                    </g>
                    <g id="Stroke-3280">
                        <use fill="#E1E9F3" fill-rule="evenodd" xlink:href="#footer_bg_path-3"></use>
                        <path stroke="#231F20" stroke-width="2.41499984" d="M35.2067374,378.645821 C35.2067374,382.366004 32.1910614,385.381667 28.470868,385.381667 C24.7506746,385.381667 21.7349986,382.366004 21.7349986,378.645821 C21.7349986,374.925639 24.7506746,371.909975 28.470868,371.909975 C32.1910614,371.909975 35.2067374,374.925639 35.2067374,378.645821 Z"></path>
                    </g>
                    <g id="Stroke-3280">
                        <use fill="#E1E9F3" fill-rule="evenodd" xlink:href="#footer_bg_path-4"></use>
                        <path stroke="#231F20" stroke-width="2.41499984" d="M1800.57162,378.645821 C1800.57162,382.366004 1797.55594,385.381667 1793.83575,385.381667 C1790.11556,385.381667 1787.09988,382.366004 1787.09988,378.645821 C1787.09988,374.925639 1790.11556,371.909975 1793.83575,371.909975 C1797.55594,371.909975 1800.57162,374.925639 1800.57162,378.645821 Z"></path>
                    </g>
                </g>
            </g>
        </g>
    </g>
</svg>