<svg width="2560px" height="2795px" viewBox="0 0 2560 2795" version="1.1" xmlns="http://www.w3.org/2000/svg" xmlns:xlink="http://www.w3.org/1999/xlink">
    <defs>
        <ellipse id="history_path-1" cx="169.345015" cy="132.513769" rx="138.386145" ry="132.508046"></ellipse>
        <ellipse id="history_path-3" cx="176.255477" cy="132.513769" rx="85.4464791" ry="81.7419765"></ellipse>
        <ellipse id="history_path-5" cx="169.345015" cy="132.513769" rx="138.386145" ry="132.508046"></ellipse>
        <ellipse id="history_path-7" cx="176.255477" cy="132.513769" rx="85.4464791" ry="81.7419765"></ellipse>
        <ellipse id="history_path-9" cx="169.345015" cy="132.513769" rx="138.386145" ry="132.508046"></ellipse>
        <ellipse id="history_path-11" cx="176.255477" cy="132.513769" rx="85.4464791" ry="81.7419765"></ellipse>
        <ellipse id="history_path-13" cx="169.345015" cy="132.513769" rx="138.386145" ry="132.508046"></ellipse>
        <ellipse id="history_path-15" cx="176.255477" cy="132.513769" rx="85.4464791" ry="81.7419765"></ellipse>
        <ellipse id="history_path-17" cx="169.345015" cy="132.513769" rx="138.386145" ry="132.508046"></ellipse>
        <ellipse id="history_path-19" cx="176.255477" cy="132.513769" rx="85.4464791" ry="81.7419765"></ellipse>
        <ellipse id="history_path-21" cx="169.345015" cy="132.513769" rx="138.386145" ry="132.508046"></ellipse>
        <ellipse id="history_path-23" cx="176.255477" cy="132.513769" rx="85.4464791" ry="81.7419765"></ellipse>
        <ellipse id="history_path-25" cx="169.345015" cy="132.513769" rx="138.386145" ry="132.508046"></ellipse>
        <ellipse id="history_path-27" cx="176.664576" cy="132.879178" rx="85.4464791" ry="81.7419765"></ellipse>
        <ellipse id="history_path-29" cx="169.345015" cy="132.513769" rx="138.386145" ry="132.508046"></ellipse>
        <ellipse id="history_path-31" cx="176.664576" cy="132.879178" rx="85.4464791" ry="81.7419765"></ellipse>
        <ellipse id="history_path-33" cx="169.345015" cy="132.513769" rx="138.386145" ry="132.508046"></ellipse>
        <ellipse id="history_path-35" cx="176.664576" cy="132.879178" rx="85.4464791" ry="81.7419765"></ellipse>
    </defs>
    <g id="Page-1" stroke="none" stroke-width="1" fill="none" fill-rule="evenodd">
        <g id="bZx-website_2560" transform="translate(0.000000, -18015.000000)">
            <g id="history_section" transform="translate(-310.999376, 17207.848019)">
                <g id="Group-172" transform="translate(0.000000, 803.223138)">
                    <g id="Group-168" transform="translate(67.648589, 0.000000)">
                        <g id="Group-163">
                            <g id="balk" transform="translate(1518.545158, 644.534403) scale(-1, 1) rotate(6.000000) translate(-1518.545158, -644.534403) translate(-2.300992, 590.196906)">
                                <rect id="Rectangle-5" stroke="#231F20" stroke-width="2.04067487" fill="#BED1F4" x="0" y="54.2336711" width="2914.66556" height="53.936933"></rect>
                                <rect id="Rectangle-5" stroke="#000000" stroke-width="2.41499984" fill="#E1E9F3" x="2.27373675e-13" y="0" width="3019.38539" height="53.936933"></rect>
                                <rect id="Rectangle-5" stroke="#231F20" stroke-width="2.04067487" fill="#BED1F4" x="0" y="22.1133844" width="3041.49887" height="6.91043261"></rect>
                                <g id="Group-186" transform="translate(471.408265, 61.925551)" fill="#231F20" fill-rule="nonzero">
                                    <polygon id="Path-17" points="106.59413 3.64141275 106.591566 0.87724089 239.990275 0.75352546 239.992838 3.51769732"></polygon>
                                    <polygon id="Path-17" points="1838.36694 40.3349348 1838.36438 37.5707629 1971.76309 37.4470475 1971.76565 40.2112193"></polygon>
                                    <polygon id="Path-17" points="0.988043222 3.0655398 1.01763852 0.301525188 97.0153404 1.32939841 96.9857451 4.09341302"></polygon>
                                </g>
                            </g>
                            <g id="Group-187" transform="translate(2071.517026, 0.000000)">
                                <g id="Group-167" transform="translate(20.731386, 179.905714)">
                                    <g id="Group-100-Copy-3">
                                        <path d="M172.761547,371.781275 C268.175115,371.781275 345.523094,296.523639 345.523094,203.688641 C345.523094,110.853643 0,110.853643 0,203.688641 C0,296.523639 77.3479793,371.781275 172.761547,371.781275 Z" id="Oval-3" stroke="#231F20" stroke-width="2.41499984" fill="#407BF7"></path>
                                        <ellipse id="Oval-3-Copy" stroke="#231F20" stroke-width="2.41499984" fill="#73A0FF" cx="170.688408" cy="194.8742" rx="170.688408" ry="98.1281431"></ellipse>
                                        <ellipse id="Oval-3-Copy" stroke="#231F20" stroke-width="2.41499984" fill="#001135" cx="171.379455" cy="195.565243" rx="145.1197" ry="79.4699751"></ellipse>
                                        <g id="Group" transform="translate(176.363838, 135.239991) scale(-1, 1) translate(-176.363838, -135.239991) translate(22.407598, 0.000000)">
                                            <g>
                                                <ellipse id="Oval" stroke="#231F20" stroke-width="2.41499984" fill="#FFB439" fill-rule="nonzero" cx="138.695734" cy="132.513769" rx="138.386145" ry="132.508046"></ellipse>
                                                <ellipse id="Oval" stroke="#231F20" stroke-width="2.41499984" fill="#FFCB76" fill-rule="nonzero" cx="169.345015" cy="132.513769" rx="138.386145" ry="132.508046"></ellipse>
                                                <mask id="mask-2" fill="white">
                                                    <use xlink:href="#history_path-1"></use>
                                                </mask>
                                                <use id="Oval" stroke="#231F20" stroke-width="2.41499984" fill="#FFCB76" fill-rule="nonzero" xlink:href="#history_path-1"></use>
                                                <polygon id="Rectangle" opacity="0.100000001" mask="url(#mask-2)" points="237.719889 9.67460566 269.508013 9.67460566 203.167579 270.888958 171.379455 270.888958"></polygon>
                                                <polygon id="Rectangle" fill="#FFFFFF" opacity="0.100000001" mask="url(#mask-2)" points="221.13478 -4.14625957 233.573612 -4.14625957 167.233178 257.068093 154.794346 257.068093"></polygon>
                                                <ellipse id="Oval" stroke="#231F20" stroke-width="2.41499984" fill="#FFB439" fill-rule="nonzero" mask="url(#mask-2)" cx="169.345015" cy="132.513769" rx="85.4464791" ry="81.7419765"></ellipse>
                                                <mask id="mask-4" fill="white">
                                                    <use xlink:href="#history_path-3"></use>
                                                </mask>
                                                <use id="Oval" stroke="#231F20" stroke-width="2.41499984" fill="#FFCB76" fill-rule="nonzero" xlink:href="#history_path-3"></use>
                                                <polygon id="Rectangle" fill="#FFFFFF" opacity="0.200000003" mask="url(#mask-4)" points="234.955704 51.1372013 266.743829 51.1372013 225.281057 215.605498 193.492933 215.605498"></polygon>
                                                <polygon id="Rectangle" fill="#FFFFFF" opacity="0.100000001" mask="url(#mask-4)" points="212.842226 51.1372013 225.281057 51.1372013 183.818286 215.605498 171.379455 215.605498"></polygon>
                                            </g>
                                            <path d="M58.8376469,53.9342812 L27.246964,53.9342812" id="Shape" stroke="#231F20" stroke-width="2.41499984" fill="#29CC86" fill-rule="nonzero"></path>
                                            <path d="M62.983924,48.4059351 L30.0111487,48.4059351" id="Shape" stroke="#231F20" stroke-width="2.41499984" fill="#29CC86" fill-rule="nonzero"></path>
                                            <path d="M119.649711,8.32542596 L88.0590285,8.32542596" id="Shape" stroke="#231F20" stroke-width="2.41499984" fill="#29CC86" fill-rule="nonzero"></path>
                                            <path d="M134.852728,4.17916639 L103.262045,4.17916639" id="Shape" stroke="#231F20" stroke-width="2.41499984" fill="#29CC86" fill-rule="nonzero"></path>
                                            <path d="M31.5906829,132.680306 L0,132.680306" id="Shape" stroke="#231F20" stroke-width="2.41499984" fill="#29CC86" fill-rule="nonzero"></path>
                                            <path d="M31.5906829,127.15196 L0,127.15196" id="Shape" stroke="#231F20" stroke-width="2.41499984" fill="#29CC86" fill-rule="nonzero"></path>
                                            <path d="M53.1118356,205.996706 L24.680221,205.996706" id="Shape" stroke="#231F20" stroke-width="2.41499984" fill="#29CC86" fill-rule="nonzero"></path>
                                            <path d="M58.6402051,211.525052 L30.2085905,211.525052" id="Shape" stroke="#231F20" stroke-width="2.41499984" fill="#29CC86" fill-rule="nonzero"></path>
                                            <path d="M118.267619,255.686007 L89.8360045,255.686007" id="Shape" stroke="#231F20" stroke-width="2.41499984" fill="#29CC86" fill-rule="nonzero"></path>
                                            <path d="M129.324358,259.832266 L100.892743,259.832266" id="Shape" stroke="#231F20" stroke-width="2.41499984" fill="#29CC86" fill-rule="nonzero"></path>
                                        </g>
                                    </g>
                                    <g id="Group-162" transform="translate(153.784735, 132.152232) scale(-1, 1) rotate(-4.000000) translate(-153.784735, -132.152232) translate(103.673488, 115.247233)" fill="#231F20">
                                        <path d="M5.01006659,28.586688 L23.1707604,28.586688 L23.1707604,32.2188113 L1.07939587,32.2188113 L1.07939587,27.5915857 C1.07939587,23.9096887 2.47253106,21.2063545 5.25884322,19.4815019 C6.15444356,18.9176078 7.14954012,18.4200616 8.24416275,17.9888485 L14.4138231,15.5010928 C17.5981799,14.2406235 19.1903344,12.1675145 19.1903344,9.2817034 C19.1903344,7.68953177 18.6430313,6.38761928 17.5484086,5.37592689 C16.453786,4.3642345 14.9196788,3.85839589 12.946041,3.85839589 C10.9724032,3.85839589 9.3636638,4.2730177 8.11977444,5.10227376 C6.87588508,5.93152982 6.15444007,7.17539525 5.95541778,8.83390737 L1.62670446,8.83390737 C1.79255637,6.11394749 2.88716259,4.02425357 4.91055594,2.5647629 C6.9339493,1.10527224 9.52949282,0.375537849 12.6972644,0.375537849 C15.865036,0.375537849 18.4439945,1.23795122 20.4342175,2.96280382 C22.4244405,4.68765642 23.419537,6.81881253 23.419537,9.35633607 C23.419537,11.8938596 22.7644318,13.9089216 21.4542017,15.4015825 C20.1439716,16.8942434 18.3445053,18.0883542 16.0557489,18.9839508 L9.73682252,21.5214616 C8.14464414,22.1848665 6.95882074,22.9394782 6.17931674,23.7853194 C5.39981274,24.6311606 5.01006659,25.7340546 5.01006659,27.0940345 L5.01006659,28.586688 Z M41.5802309,0.375537849 C45.3616545,0.375537849 48.3469442,1.76866713 50.5361895,4.55496749 C52.7254347,7.34126786 53.8200409,11.3465145 53.8200409,16.5708277 C53.8200409,21.7951409 52.7254347,25.8003876 50.5361895,28.586688 C48.3469442,31.3729883 45.3616545,32.7661176 41.5802309,32.7661176 C37.7988072,32.7661176 34.8052251,31.3895732 32.5993946,28.6364431 C30.3935641,25.8833129 29.2906655,21.8614814 29.2906655,16.5708277 C29.2906655,11.2801741 30.3935641,7.2583425 32.5993946,4.50521238 C34.8052251,1.75208226 37.7988072,0.375537849 41.5802309,0.375537849 Z M49.7401043,16.5957053 C49.7401043,12.5157655 49.0435367,9.38951701 47.6503806,7.21686614 C46.2572245,5.04421526 44.225569,3.95790612 41.5553532,3.95790612 C38.8851374,3.95790612 36.8534819,5.04421526 35.4603258,7.21686614 C34.0671697,9.38951701 33.3706022,12.507473 33.3706022,16.5708277 C33.3706022,20.6341824 34.0671697,23.7521384 35.4603258,25.9247893 C36.8534819,28.0974402 38.8851374,29.1837493 41.5553532,29.1837493 C44.225569,29.1837493 46.2572245,28.0974402 47.6503806,25.9247893 C49.0435367,23.7521384 49.7401043,20.6424749 49.7401043,16.5957053 Z M58.7458182,3.36084474 C60.9682338,3.06231256 62.9086721,2.21648406 64.5671913,0.823333882 L67.7515321,0.823333882 L67.7515321,32.2188113 L63.8706167,32.2188113 L63.8706167,5.50031468 C62.2120976,6.56176243 60.5038485,7.14223297 58.7458182,7.24174369 L58.7458182,3.36084474 Z M86.8078218,0.375537849 C88.4995113,0.375537849 90.1082508,0.740405042 91.6340884,1.47015038 C93.159926,2.19989571 94.4701364,3.24474267 95.5647591,4.60472261 C97.9530266,7.52370394 99.1471425,11.3216397 99.1471425,15.9986439 C99.1471425,24.1253533 96.8915903,29.3330032 92.3804182,31.62175 C90.8214103,32.3846655 89.1297461,32.7661176 87.305375,32.7661176 C83.8888256,32.7661176 81.1854799,31.8373647 79.195257,29.9798312 C77.205034,28.1222976 76.2099374,25.7838306 76.2099374,22.96436 L80.3396295,22.96436 C80.4059702,24.8550638 81.0030282,26.3642872 82.1308212,27.4920754 C83.2586142,28.6198637 84.6849193,29.1837493 86.4097792,29.1837493 C88.1346391,29.1837493 89.5277743,28.8686368 90.5892265,28.2384021 C93.6077314,26.3476983 95.1169612,22.0853861 95.1169612,15.4513376 C95.1169612,14.0913577 95.0340364,12.8640771 94.8681845,11.7694591 C94.5364807,14.4562488 93.5662615,16.4630183 91.957498,17.789828 C90.3487344,19.1166377 88.2424467,19.7800326 85.6385716,19.7800326 C83.0346966,19.7800326 80.7874368,18.8595722 78.896725,17.0186238 C77.0060132,15.1776753 76.0606715,12.8309159 76.0606715,9.97827501 C76.0606715,7.09246392 77.0391831,4.77058178 78.9962357,3.01255893 C80.9532883,1.25453609 83.5571243,0.375537849 86.8078218,0.375537849 Z M91.3355564,5.69933513 C90.1082522,4.57154689 88.5492676,4.00766123 86.6585558,4.00766123 C84.767844,4.00766123 83.2088594,4.55496202 81.9815552,5.64958002 C80.754251,6.74419802 80.1406082,8.25342141 80.1406082,10.1772955 C80.1406082,12.1011695 80.7625435,13.6103929 82.0064329,14.7050109 C83.2503222,15.7996289 84.8093068,16.3469297 86.6834335,16.3469297 C88.5575601,16.3469297 90.1165447,15.7581667 91.3604341,14.5806231 C92.6043234,13.4030795 93.2262588,11.9021486 93.2262588,10.0777852 C93.2262588,8.25342191 92.596031,6.79395313 91.3355564,5.69933513 Z" id="2019" transform="translate(50.113269, 16.570828) scale(-1, 1) translate(-50.113269, -16.570828) "></path>
                                    </g>
                                </g>
                            </g>
                            <g id="Group-170" transform="translate(580.415119, 152.713258)">
                                <g id="Group-167" transform="translate(24.877663, 181.287800)">
                                    <g id="Group-100-Copy-3">
                                        <path d="M172.761547,371.781275 C268.175115,371.781275 345.523094,296.523639 345.523094,203.688641 C345.523094,110.853643 0,110.853643 0,203.688641 C0,296.523639 77.3479793,371.781275 172.761547,371.781275 Z" id="Oval-3" stroke="#231F20" stroke-width="2.41499984" fill="#407BF7"></path>
                                        <ellipse id="Oval-3-Copy" stroke="#231F20" stroke-width="2.41499984" fill="#73A0FF" cx="170.688408" cy="194.8742" rx="170.688408" ry="98.1281431"></ellipse>
                                        <ellipse id="Oval-3-Copy" stroke="#231F20" stroke-width="2.41499984" fill="#001135" cx="171.379455" cy="195.565243" rx="145.1197" ry="79.4699751"></ellipse>
                                        <g id="Group" transform="translate(176.363838, 135.239991) scale(-1, 1) translate(-176.363838, -135.239991) translate(22.407598, 0.000000)">
                                            <g>
                                                <ellipse id="Oval" stroke="#231F20" stroke-width="2.41499984" fill="#FFB439" fill-rule="nonzero" cx="138.695734" cy="132.513769" rx="138.386145" ry="132.508046"></ellipse>
                                                <ellipse id="Oval" stroke="#231F20" stroke-width="2.41499984" fill="#FFCB76" fill-rule="nonzero" cx="169.345015" cy="132.513769" rx="138.386145" ry="132.508046"></ellipse>
                                                <mask id="mask-6" fill="white">
                                                    <use xlink:href="#history_path-5"></use>
                                                </mask>
                                                <use id="Oval" stroke="#231F20" stroke-width="2.41499984" fill="#FFCB76" fill-rule="nonzero" xlink:href="#history_path-5"></use>
                                                <polygon id="Rectangle" opacity="0.100000001" mask="url(#mask-6)" points="237.719889 9.67460566 269.508013 9.67460566 203.167579 270.888958 171.379455 270.888958"></polygon>
                                                <polygon id="Rectangle" fill="#FFFFFF" opacity="0.100000001" mask="url(#mask-6)" points="221.13478 -4.14625957 233.573612 -4.14625957 167.233178 257.068093 154.794346 257.068093"></polygon>
                                                <ellipse id="Oval" stroke="#231F20" stroke-width="2.41499984" fill="#FFB439" fill-rule="nonzero" mask="url(#mask-6)" cx="169.345015" cy="132.513769" rx="85.4464791" ry="81.7419765"></ellipse>
                                                <mask id="mask-8" fill="white">
                                                    <use xlink:href="#history_path-7"></use>
                                                </mask>
                                                <use id="Oval" stroke="#231F20" stroke-width="2.41499984" fill="#FFCB76" fill-rule="nonzero" xlink:href="#history_path-7"></use>
                                                <polygon id="Rectangle" fill="#FFFFFF" opacity="0.200000003" mask="url(#mask-8)" points="234.955704 51.1372013 266.743829 51.1372013 225.281057 215.605498 193.492933 215.605498"></polygon>
                                                <polygon id="Rectangle" fill="#FFFFFF" opacity="0.100000001" mask="url(#mask-8)" points="212.842226 51.1372013 225.281057 51.1372013 183.818286 215.605498 171.379455 215.605498"></polygon>
                                            </g>
                                            <path d="M58.8376469,53.9342812 L27.246964,53.9342812" id="Shape" stroke="#231F20" stroke-width="2.41499984" fill="#29CC86" fill-rule="nonzero"></path>
                                            <path d="M62.983924,48.4059351 L30.0111487,48.4059351" id="Shape" stroke="#231F20" stroke-width="2.41499984" fill="#29CC86" fill-rule="nonzero"></path>
                                            <path d="M119.649711,8.32542596 L88.0590285,8.32542596" id="Shape" stroke="#231F20" stroke-width="2.41499984" fill="#29CC86" fill-rule="nonzero"></path>
                                            <path d="M134.852728,4.17916639 L103.262045,4.17916639" id="Shape" stroke="#231F20" stroke-width="2.41499984" fill="#29CC86" fill-rule="nonzero"></path>
                                            <path d="M31.5906829,132.680306 L0,132.680306" id="Shape" stroke="#231F20" stroke-width="2.41499984" fill="#29CC86" fill-rule="nonzero"></path>
                                            <path d="M31.5906829,127.15196 L0,127.15196" id="Shape" stroke="#231F20" stroke-width="2.41499984" fill="#29CC86" fill-rule="nonzero"></path>
                                            <path d="M53.1118356,205.996706 L24.680221,205.996706" id="Shape" stroke="#231F20" stroke-width="2.41499984" fill="#29CC86" fill-rule="nonzero"></path>
                                            <path d="M58.6402051,211.525052 L30.2085905,211.525052" id="Shape" stroke="#231F20" stroke-width="2.41499984" fill="#29CC86" fill-rule="nonzero"></path>
                                            <path d="M118.267619,255.686007 L89.8360045,255.686007" id="Shape" stroke="#231F20" stroke-width="2.41499984" fill="#29CC86" fill-rule="nonzero"></path>
                                            <path d="M129.324358,259.832266 L100.892743,259.832266" id="Shape" stroke="#231F20" stroke-width="2.41499984" fill="#29CC86" fill-rule="nonzero"></path>
                                        </g>
                                    </g>
                                    <g id="Group-162" transform="translate(153.784735, 132.152232) scale(-1, 1) rotate(-4.000000) translate(-153.784735, -132.152232) translate(103.673488, 115.247233)" fill="#231F20">
                                        <path d="M5.01006659,28.586688 L23.1707604,28.586688 L23.1707604,32.2188113 L1.07939587,32.2188113 L1.07939587,27.5915857 C1.07939587,23.9096887 2.47253106,21.2063545 5.25884322,19.4815019 C6.15444356,18.9176078 7.14954012,18.4200616 8.24416275,17.9888485 L14.4138231,15.5010928 C17.5981799,14.2406235 19.1903344,12.1675145 19.1903344,9.2817034 C19.1903344,7.68953177 18.6430313,6.38761928 17.5484086,5.37592689 C16.453786,4.3642345 14.9196788,3.85839589 12.946041,3.85839589 C10.9724032,3.85839589 9.3636638,4.2730177 8.11977444,5.10227376 C6.87588508,5.93152982 6.15444007,7.17539525 5.95541778,8.83390737 L1.62670446,8.83390737 C1.79255637,6.11394749 2.88716259,4.02425357 4.91055594,2.5647629 C6.9339493,1.10527224 9.52949282,0.375537849 12.6972644,0.375537849 C15.865036,0.375537849 18.4439945,1.23795122 20.4342175,2.96280382 C22.4244405,4.68765642 23.419537,6.81881253 23.419537,9.35633607 C23.419537,11.8938596 22.7644318,13.9089216 21.4542017,15.4015825 C20.1439716,16.8942434 18.3445053,18.0883542 16.0557489,18.9839508 L9.73682252,21.5214616 C8.14464414,22.1848665 6.95882074,22.9394782 6.17931674,23.7853194 C5.39981274,24.6311606 5.01006659,25.7340546 5.01006659,27.0940345 L5.01006659,28.586688 Z M41.5802309,0.375537849 C45.3616545,0.375537849 48.3469442,1.76866713 50.5361895,4.55496749 C52.7254347,7.34126786 53.8200409,11.3465145 53.8200409,16.5708277 C53.8200409,21.7951409 52.7254347,25.8003876 50.5361895,28.586688 C48.3469442,31.3729883 45.3616545,32.7661176 41.5802309,32.7661176 C37.7988072,32.7661176 34.8052251,31.3895732 32.5993946,28.6364431 C30.3935641,25.8833129 29.2906655,21.8614814 29.2906655,16.5708277 C29.2906655,11.2801741 30.3935641,7.2583425 32.5993946,4.50521238 C34.8052251,1.75208226 37.7988072,0.375537849 41.5802309,0.375537849 Z M49.7401043,16.5957053 C49.7401043,12.5157655 49.0435367,9.38951701 47.6503806,7.21686614 C46.2572245,5.04421526 44.225569,3.95790612 41.5553532,3.95790612 C38.8851374,3.95790612 36.8534819,5.04421526 35.4603258,7.21686614 C34.0671697,9.38951701 33.3706022,12.507473 33.3706022,16.5708277 C33.3706022,20.6341824 34.0671697,23.7521384 35.4603258,25.9247893 C36.8534819,28.0974402 38.8851374,29.1837493 41.5553532,29.1837493 C44.225569,29.1837493 46.2572245,28.0974402 47.6503806,25.9247893 C49.0435367,23.7521384 49.7401043,20.6424749 49.7401043,16.5957053 Z M58.7458182,3.36084474 C60.9682338,3.06231256 62.9086721,2.21648406 64.5671913,0.823333882 L67.7515321,0.823333882 L67.7515321,32.2188113 L63.8706167,32.2188113 L63.8706167,5.50031468 C62.2120976,6.56176243 60.5038485,7.14223297 58.7458182,7.24174369 L58.7458182,3.36084474 Z M86.8078218,0.375537849 C88.4995113,0.375537849 90.1082508,0.740405042 91.6340884,1.47015038 C93.159926,2.19989571 94.4701364,3.24474267 95.5647591,4.60472261 C97.9530266,7.52370394 99.1471425,11.3216397 99.1471425,15.9986439 C99.1471425,24.1253533 96.8915903,29.3330032 92.3804182,31.62175 C90.8214103,32.3846655 89.1297461,32.7661176 87.305375,32.7661176 C83.8888256,32.7661176 81.1854799,31.8373647 79.195257,29.9798312 C77.205034,28.1222976 76.2099374,25.7838306 76.2099374,22.96436 L80.3396295,22.96436 C80.4059702,24.8550638 81.0030282,26.3642872 82.1308212,27.4920754 C83.2586142,28.6198637 84.6849193,29.1837493 86.4097792,29.1837493 C88.1346391,29.1837493 89.5277743,28.8686368 90.5892265,28.2384021 C93.6077314,26.3476983 95.1169612,22.0853861 95.1169612,15.4513376 C95.1169612,14.0913577 95.0340364,12.8640771 94.8681845,11.7694591 C94.5364807,14.4562488 93.5662615,16.4630183 91.957498,17.789828 C90.3487344,19.1166377 88.2424467,19.7800326 85.6385716,19.7800326 C83.0346966,19.7800326 80.7874368,18.8595722 78.896725,17.0186238 C77.0060132,15.1776753 76.0606715,12.8309159 76.0606715,9.97827501 C76.0606715,7.09246392 77.0391831,4.77058178 78.9962357,3.01255893 C80.9532883,1.25453609 83.5571243,0.375537849 86.8078218,0.375537849 Z M91.3355564,5.69933513 C90.1082522,4.57154689 88.5492676,4.00766123 86.6585558,4.00766123 C84.767844,4.00766123 83.2088594,4.55496202 81.9815552,5.64958002 C80.754251,6.74419802 80.1406082,8.25342141 80.1406082,10.1772955 C80.1406082,12.1011695 80.7625435,13.6103929 82.0064329,14.7050109 C83.2503222,15.7996289 84.8093068,16.3469297 86.6834335,16.3469297 C88.5575601,16.3469297 90.1165447,15.7581667 91.3604341,14.5806231 C92.6043234,13.4030795 93.2262588,11.9021486 93.2262588,10.0777852 C93.2262588,8.25342191 92.596031,6.79395313 91.3355564,5.69933513 Z" id="2019" transform="translate(50.113269, 16.570828) scale(-1, 1) translate(-50.113269, -16.570828) "></path>
                                    </g>
                                </g>
                            </g>
                            <g id="Group-169" transform="translate(1325.834912, 74.864995)">
                                <g id="Group-167" transform="translate(24.877663, 181.287800)">
                                    <g id="Group-100-Copy-3">
                                        <path d="M172.761547,371.781275 C268.175115,371.781275 345.523094,296.523639 345.523094,203.688641 C345.523094,110.853643 0,110.853643 0,203.688641 C0,296.523639 77.3479793,371.781275 172.761547,371.781275 Z" id="Oval-3" stroke="#231F20" stroke-width="2.41499984" fill="#407BF7"></path>
                                        <ellipse id="Oval-3-Copy" stroke="#231F20" stroke-width="2.41499984" fill="#73A0FF" cx="170.688408" cy="194.8742" rx="170.688408" ry="98.1281431"></ellipse>
                                        <ellipse id="Oval-3-Copy" stroke="#231F20" stroke-width="2.41499984" fill="#001135" cx="171.379455" cy="195.565243" rx="145.1197" ry="79.4699751"></ellipse>
                                        <g id="Group" transform="translate(176.320078, 135.000000) scale(-1, 1) translate(-176.320078, -135.000000) translate(22.320078, 0.000000)">
                                            <g>
                                                <ellipse id="Oval" stroke="#231F20" stroke-width="2.41499984" fill="#FFB439" fill-rule="nonzero" cx="138.695734" cy="132.513769" rx="138.386145" ry="132.508046"></ellipse>
                                                <ellipse id="Oval" stroke="#231F20" stroke-width="2.41499984" fill="#FFCB76" fill-rule="nonzero" cx="169.345015" cy="132.513769" rx="138.386145" ry="132.508046"></ellipse>
                                                <mask id="mask-10" fill="white">
                                                    <use xlink:href="#history_path-9"></use>
                                                </mask>
                                                <use id="Oval" stroke="#231F20" stroke-width="2.41499984" fill="#FFCB76" fill-rule="nonzero" xlink:href="#history_path-9"></use>
                                                <polygon id="Rectangle" opacity="0.100000001" mask="url(#mask-10)" points="237.719889 9.67460566 269.508013 9.67460566 203.167579 270.888958 171.379455 270.888958"></polygon>
                                                <polygon id="Rectangle" fill="#FFFFFF" opacity="0.100000001" mask="url(#mask-10)" points="221.13478 -4.14625957 233.573612 -4.14625957 167.233178 257.068093 154.794346 257.068093"></polygon>
                                                <ellipse id="Oval" stroke="#231F20" stroke-width="2.41499984" fill="#FFB439" fill-rule="nonzero" mask="url(#mask-10)" cx="169.345015" cy="132.513769" rx="85.4464791" ry="81.7419765"></ellipse>
                                                <mask id="mask-12" fill="white">
                                                    <use xlink:href="#history_path-11"></use>
                                                </mask>
                                                <use id="Oval" stroke="#231F20" stroke-width="2.41499984" fill="#FFCB76" fill-rule="nonzero" xlink:href="#history_path-11"></use>
                                                <polygon id="Rectangle" fill="#FFFFFF" opacity="0.200000003" mask="url(#mask-12)" points="234.955704 51.1372013 266.743829 51.1372013 225.281057 215.605498 193.492933 215.605498"></polygon>
                                                <polygon id="Rectangle" fill="#FFFFFF" opacity="0.100000001" mask="url(#mask-12)" points="212.842226 51.1372013 225.281057 51.1372013 183.818286 215.605498 171.379455 215.605498"></polygon>
                                            </g>
                                            <path d="M58.8376469,53.9342812 L27.246964,53.9342812" id="Shape" stroke="#231F20" stroke-width="2.41499984" fill="#29CC86" fill-rule="nonzero"></path>
                                            <path d="M62.983924,48.4059351 L30.0111487,48.4059351" id="Shape" stroke="#231F20" stroke-width="2.41499984" fill="#29CC86" fill-rule="nonzero"></path>
                                            <path d="M119.649711,8.32542596 L88.0590285,8.32542596" id="Shape" stroke="#231F20" stroke-width="2.41499984" fill="#29CC86" fill-rule="nonzero"></path>
                                            <path d="M134.852728,4.17916639 L103.262045,4.17916639" id="Shape" stroke="#231F20" stroke-width="2.41499984" fill="#29CC86" fill-rule="nonzero"></path>
                                            <path d="M31.5906829,132.680306 L0,132.680306" id="Shape" stroke="#231F20" stroke-width="2.41499984" fill="#29CC86" fill-rule="nonzero"></path>
                                            <path d="M31.5906829,127.15196 L0,127.15196" id="Shape" stroke="#231F20" stroke-width="2.41499984" fill="#29CC86" fill-rule="nonzero"></path>
                                            <path d="M53.1118356,205.996706 L24.680221,205.996706" id="Shape" stroke="#231F20" stroke-width="2.41499984" fill="#29CC86" fill-rule="nonzero"></path>
                                            <path d="M58.6402051,211.525052 L30.2085905,211.525052" id="Shape" stroke="#231F20" stroke-width="2.41499984" fill="#29CC86" fill-rule="nonzero"></path>
                                            <path d="M118.267619,255.686007 L89.8360045,255.686007" id="Shape" stroke="#231F20" stroke-width="2.41499984" fill="#29CC86" fill-rule="nonzero"></path>
                                            <path d="M129.324358,259.832266 L100.892743,259.832266" id="Shape" stroke="#231F20" stroke-width="2.41499984" fill="#29CC86" fill-rule="nonzero"></path>
                                        </g>
                                    </g>
                                    <g id="Group-162" transform="translate(153.784735, 132.152232) scale(-1, 1) rotate(-4.000000) translate(-153.784735, -132.152232) translate(103.673488, 115.247233)" fill="#231F20">
                                        <path d="M5.01006659,28.586688 L23.1707604,28.586688 L23.1707604,32.2188113 L1.07939587,32.2188113 L1.07939587,27.5915857 C1.07939587,23.9096887 2.47253106,21.2063545 5.25884322,19.4815019 C6.15444356,18.9176078 7.14954012,18.4200616 8.24416275,17.9888485 L14.4138231,15.5010928 C17.5981799,14.2406235 19.1903344,12.1675145 19.1903344,9.2817034 C19.1903344,7.68953177 18.6430313,6.38761928 17.5484086,5.37592689 C16.453786,4.3642345 14.9196788,3.85839589 12.946041,3.85839589 C10.9724032,3.85839589 9.3636638,4.2730177 8.11977444,5.10227376 C6.87588508,5.93152982 6.15444007,7.17539525 5.95541778,8.83390737 L1.62670446,8.83390737 C1.79255637,6.11394749 2.88716259,4.02425357 4.91055594,2.5647629 C6.9339493,1.10527224 9.52949282,0.375537849 12.6972644,0.375537849 C15.865036,0.375537849 18.4439945,1.23795122 20.4342175,2.96280382 C22.4244405,4.68765642 23.419537,6.81881253 23.419537,9.35633607 C23.419537,11.8938596 22.7644318,13.9089216 21.4542017,15.4015825 C20.1439716,16.8942434 18.3445053,18.0883542 16.0557489,18.9839508 L9.73682252,21.5214616 C8.14464414,22.1848665 6.95882074,22.9394782 6.17931674,23.7853194 C5.39981274,24.6311606 5.01006659,25.7340546 5.01006659,27.0940345 L5.01006659,28.586688 Z M41.5802309,0.375537849 C45.3616545,0.375537849 48.3469442,1.76866713 50.5361895,4.55496749 C52.7254347,7.34126786 53.8200409,11.3465145 53.8200409,16.5708277 C53.8200409,21.7951409 52.7254347,25.8003876 50.5361895,28.586688 C48.3469442,31.3729883 45.3616545,32.7661176 41.5802309,32.7661176 C37.7988072,32.7661176 34.8052251,31.3895732 32.5993946,28.6364431 C30.3935641,25.8833129 29.2906655,21.8614814 29.2906655,16.5708277 C29.2906655,11.2801741 30.3935641,7.2583425 32.5993946,4.50521238 C34.8052251,1.75208226 37.7988072,0.375537849 41.5802309,0.375537849 Z M49.7401043,16.5957053 C49.7401043,12.5157655 49.0435367,9.38951701 47.6503806,7.21686614 C46.2572245,5.04421526 44.225569,3.95790612 41.5553532,3.95790612 C38.8851374,3.95790612 36.8534819,5.04421526 35.4603258,7.21686614 C34.0671697,9.38951701 33.3706022,12.507473 33.3706022,16.5708277 C33.3706022,20.6341824 34.0671697,23.7521384 35.4603258,25.9247893 C36.8534819,28.0974402 38.8851374,29.1837493 41.5553532,29.1837493 C44.225569,29.1837493 46.2572245,28.0974402 47.6503806,25.9247893 C49.0435367,23.7521384 49.7401043,20.6424749 49.7401043,16.5957053 Z M58.7458182,3.36084474 C60.9682338,3.06231256 62.9086721,2.21648406 64.5671913,0.823333882 L67.7515321,0.823333882 L67.7515321,32.2188113 L63.8706167,32.2188113 L63.8706167,5.50031468 C62.2120976,6.56176243 60.5038485,7.14223297 58.7458182,7.24174369 L58.7458182,3.36084474 Z M86.8078218,0.375537849 C88.4995113,0.375537849 90.1082508,0.740405042 91.6340884,1.47015038 C93.159926,2.19989571 94.4701364,3.24474267 95.5647591,4.60472261 C97.9530266,7.52370394 99.1471425,11.3216397 99.1471425,15.9986439 C99.1471425,24.1253533 96.8915903,29.3330032 92.3804182,31.62175 C90.8214103,32.3846655 89.1297461,32.7661176 87.305375,32.7661176 C83.8888256,32.7661176 81.1854799,31.8373647 79.195257,29.9798312 C77.205034,28.1222976 76.2099374,25.7838306 76.2099374,22.96436 L80.3396295,22.96436 C80.4059702,24.8550638 81.0030282,26.3642872 82.1308212,27.4920754 C83.2586142,28.6198637 84.6849193,29.1837493 86.4097792,29.1837493 C88.1346391,29.1837493 89.5277743,28.8686368 90.5892265,28.2384021 C93.6077314,26.3476983 95.1169612,22.0853861 95.1169612,15.4513376 C95.1169612,14.0913577 95.0340364,12.8640771 94.8681845,11.7694591 C94.5364807,14.4562488 93.5662615,16.4630183 91.957498,17.789828 C90.3487344,19.1166377 88.2424467,19.7800326 85.6385716,19.7800326 C83.0346966,19.7800326 80.7874368,18.8595722 78.896725,17.0186238 C77.0060132,15.1776753 76.0606715,12.8309159 76.0606715,9.97827501 C76.0606715,7.09246392 77.0391831,4.77058178 78.9962357,3.01255893 C80.9532883,1.25453609 83.5571243,0.375537849 86.8078218,0.375537849 Z M91.3355564,5.69933513 C90.1082522,4.57154689 88.5492676,4.00766123 86.6585558,4.00766123 C84.767844,4.00766123 83.2088594,4.55496202 81.9815552,5.64958002 C80.754251,6.74419802 80.1406082,8.25342141 80.1406082,10.1772955 C80.1406082,12.1011695 80.7625435,13.6103929 82.0064329,14.7050109 C83.2503222,15.7996289 84.8093068,16.3469297 86.6834335,16.3469297 C88.5575601,16.3469297 90.1165447,15.7581667 91.3604341,14.5806231 C92.6043234,13.4030795 93.2262588,11.9021486 93.2262588,10.0777852 C93.2262588,8.25342191 92.596031,6.79395313 91.3355564,5.69933513 Z" id="2019" transform="translate(50.113269, 16.570828) scale(-1, 1) translate(-50.113269, -16.570828) "></path>
                                    </g>
                                </g>
                            </g>
                        </g>
                    </g>
                    <g id="Group-168" transform="translate(0.000000, 1977.940401)">
                        <g id="Group-163">
                            <g id="balk" transform="translate(1518.609734, 638.578809) scale(-1, 1) rotate(6.000000) translate(-1518.609734, -638.578809) translate(-2.236415, 584.241313)">
                                <rect id="Rectangle-5" stroke="#231F20" stroke-width="2.04067487" fill="#BED1F4" x="0" y="54.2336711" width="2914.66556" height="53.936933"></rect>
                                <rect id="Rectangle-5" stroke="#000000" stroke-width="2.41499984" fill="#E1E9F3" x="2.27373675e-13" y="0" width="3019.38539" height="53.936933"></rect>
                                <rect id="Rectangle-5" stroke="#231F20" stroke-width="2.04067487" fill="#BED1F4" x="0" y="22.1133844" width="3041.49887" height="6.91043261"></rect>
                                <g id="Group-186" transform="translate(471.408265, 61.925551)" fill="#231F20" fill-rule="nonzero">
                                    <polygon id="Path-17" points="106.59413 3.64141275 106.591566 0.87724089 239.990275 0.75352546 239.992838 3.51769732"></polygon>
                                    <polygon id="Path-17" points="1838.36694 40.3349348 1838.36438 37.5707629 1971.76309 37.4470475 1971.76565 40.2112193"></polygon>
                                    <polygon id="Path-17" points="0.988043222 3.0655398 1.01763852 0.301525188 97.0153404 1.32939841 96.9857451 4.09341302"></polygon>
                                </g>
                            </g>
                            <g id="Group-182" transform="translate(2136.576022, 0.000000)">
                                <g id="Group-167" transform="translate(24.877663, 166.084849)">
                                    <g id="Group-100-Copy-3">
                                        <path d="M172.761547,371.781275 C268.175115,371.781275 345.523094,296.523639 345.523094,203.688641 C345.523094,110.853643 0,110.853643 0,203.688641 C0,296.523639 77.3479793,371.781275 172.761547,371.781275 Z" id="Oval-3" stroke="#231F20" stroke-width="2.41499984" fill="#407BF7"></path>
                                        <ellipse id="Oval-3-Copy" stroke="#231F20" stroke-width="2.41499984" fill="#73A0FF" cx="170.688408" cy="194.8742" rx="170.688408" ry="98.1281431"></ellipse>
                                        <ellipse id="Oval-3-Copy" stroke="#231F20" stroke-width="2.41499984" fill="#001135" cx="171.379455" cy="195.565243" rx="145.1197" ry="79.4699751"></ellipse>
                                        <g id="Group" transform="translate(176.363838, 135.239991) scale(-1, 1) translate(-176.363838, -135.239991) translate(22.407598, 0.000000)">
                                            <g>
                                                <ellipse id="Oval" stroke="#231F20" stroke-width="2.41499984" fill="#FFB439" fill-rule="nonzero" cx="138.695734" cy="132.513769" rx="138.386145" ry="132.508046"></ellipse>
                                                <ellipse id="Oval" stroke="#231F20" stroke-width="2.41499984" fill="#FFCB76" fill-rule="nonzero" cx="169.345015" cy="132.513769" rx="138.386145" ry="132.508046"></ellipse>
                                                <mask id="mask-14" fill="white">
                                                    <use xlink:href="#history_path-13"></use>
                                                </mask>
                                                <use id="Oval" stroke="#231F20" stroke-width="2.41499984" fill="#FFCB76" fill-rule="nonzero" xlink:href="#history_path-13"></use>
                                                <polygon id="Rectangle" opacity="0.100000001" mask="url(#mask-14)" points="237.719889 9.67460566 269.508013 9.67460566 203.167579 270.888958 171.379455 270.888958"></polygon>
                                                <polygon id="Rectangle" fill="#FFFFFF" opacity="0.100000001" mask="url(#mask-14)" points="221.13478 -4.14625957 233.573612 -4.14625957 167.233178 257.068093 154.794346 257.068093"></polygon>
                                                <ellipse id="Oval" stroke="#231F20" stroke-width="2.41499984" fill="#FFB439" fill-rule="nonzero" mask="url(#mask-14)" cx="169.345015" cy="132.513769" rx="85.4464791" ry="81.7419765"></ellipse>
                                                <mask id="mask-16" fill="white">
                                                    <use xlink:href="#history_path-15"></use>
                                                </mask>
                                                <use id="Oval" stroke="#231F20" stroke-width="2.41499984" fill="#FFCB76" fill-rule="nonzero" xlink:href="#history_path-15"></use>
                                                <polygon id="Rectangle" fill="#FFFFFF" opacity="0.200000003" mask="url(#mask-16)" points="234.955704 51.1372013 266.743829 51.1372013 225.281057 215.605498 193.492933 215.605498"></polygon>
                                                <polygon id="Rectangle" fill="#FFFFFF" opacity="0.100000001" mask="url(#mask-16)" points="212.842226 51.1372013 225.281057 51.1372013 183.818286 215.605498 171.379455 215.605498"></polygon>
                                            </g>
                                            <path d="M58.8376469,53.9342812 L27.246964,53.9342812" id="Shape" stroke="#231F20" stroke-width="2.41499984" fill="#29CC86" fill-rule="nonzero"></path>
                                            <path d="M62.983924,48.4059351 L30.0111487,48.4059351" id="Shape" stroke="#231F20" stroke-width="2.41499984" fill="#29CC86" fill-rule="nonzero"></path>
                                            <path d="M119.649711,8.32542596 L88.0590285,8.32542596" id="Shape" stroke="#231F20" stroke-width="2.41499984" fill="#29CC86" fill-rule="nonzero"></path>
                                            <path d="M134.852728,4.17916639 L103.262045,4.17916639" id="Shape" stroke="#231F20" stroke-width="2.41499984" fill="#29CC86" fill-rule="nonzero"></path>
                                            <path d="M31.5906829,132.680306 L0,132.680306" id="Shape" stroke="#231F20" stroke-width="2.41499984" fill="#29CC86" fill-rule="nonzero"></path>
                                            <path d="M31.5906829,127.15196 L0,127.15196" id="Shape" stroke="#231F20" stroke-width="2.41499984" fill="#29CC86" fill-rule="nonzero"></path>
                                            <path d="M53.1118356,205.996706 L24.680221,205.996706" id="Shape" stroke="#231F20" stroke-width="2.41499984" fill="#29CC86" fill-rule="nonzero"></path>
                                            <path d="M58.6402051,211.525052 L30.2085905,211.525052" id="Shape" stroke="#231F20" stroke-width="2.41499984" fill="#29CC86" fill-rule="nonzero"></path>
                                            <path d="M118.267619,255.686007 L89.8360045,255.686007" id="Shape" stroke="#231F20" stroke-width="2.41499984" fill="#29CC86" fill-rule="nonzero"></path>
                                            <path d="M129.324358,259.832266 L100.892743,259.832266" id="Shape" stroke="#231F20" stroke-width="2.41499984" fill="#29CC86" fill-rule="nonzero"></path>
                                        </g>
                                    </g>
                                    <g id="Group-162" transform="translate(153.784735, 132.152232) scale(-1, 1) rotate(-4.000000) translate(-153.784735, -132.152232) translate(103.673488, 115.247233)" fill="#231F20">
                                        <path d="M5.01006659,28.586688 L23.1707604,28.586688 L23.1707604,32.2188113 L1.07939587,32.2188113 L1.07939587,27.5915857 C1.07939587,23.9096887 2.47253106,21.2063545 5.25884322,19.4815019 C6.15444356,18.9176078 7.14954012,18.4200616 8.24416275,17.9888485 L14.4138231,15.5010928 C17.5981799,14.2406235 19.1903344,12.1675145 19.1903344,9.2817034 C19.1903344,7.68953177 18.6430313,6.38761928 17.5484086,5.37592689 C16.453786,4.3642345 14.9196788,3.85839589 12.946041,3.85839589 C10.9724032,3.85839589 9.3636638,4.2730177 8.11977444,5.10227376 C6.87588508,5.93152982 6.15444007,7.17539525 5.95541778,8.83390737 L1.62670446,8.83390737 C1.79255637,6.11394749 2.88716259,4.02425357 4.91055594,2.5647629 C6.9339493,1.10527224 9.52949282,0.375537849 12.6972644,0.375537849 C15.865036,0.375537849 18.4439945,1.23795122 20.4342175,2.96280382 C22.4244405,4.68765642 23.419537,6.81881253 23.419537,9.35633607 C23.419537,11.8938596 22.7644318,13.9089216 21.4542017,15.4015825 C20.1439716,16.8942434 18.3445053,18.0883542 16.0557489,18.9839508 L9.73682252,21.5214616 C8.14464414,22.1848665 6.95882074,22.9394782 6.17931674,23.7853194 C5.39981274,24.6311606 5.01006659,25.7340546 5.01006659,27.0940345 L5.01006659,28.586688 Z M41.5802309,0.375537849 C45.3616545,0.375537849 48.3469442,1.76866713 50.5361895,4.55496749 C52.7254347,7.34126786 53.8200409,11.3465145 53.8200409,16.5708277 C53.8200409,21.7951409 52.7254347,25.8003876 50.5361895,28.586688 C48.3469442,31.3729883 45.3616545,32.7661176 41.5802309,32.7661176 C37.7988072,32.7661176 34.8052251,31.3895732 32.5993946,28.6364431 C30.3935641,25.8833129 29.2906655,21.8614814 29.2906655,16.5708277 C29.2906655,11.2801741 30.3935641,7.2583425 32.5993946,4.50521238 C34.8052251,1.75208226 37.7988072,0.375537849 41.5802309,0.375537849 Z M49.7401043,16.5957053 C49.7401043,12.5157655 49.0435367,9.38951701 47.6503806,7.21686614 C46.2572245,5.04421526 44.225569,3.95790612 41.5553532,3.95790612 C38.8851374,3.95790612 36.8534819,5.04421526 35.4603258,7.21686614 C34.0671697,9.38951701 33.3706022,12.507473 33.3706022,16.5708277 C33.3706022,20.6341824 34.0671697,23.7521384 35.4603258,25.9247893 C36.8534819,28.0974402 38.8851374,29.1837493 41.5553532,29.1837493 C44.225569,29.1837493 46.2572245,28.0974402 47.6503806,25.9247893 C49.0435367,23.7521384 49.7401043,20.6424749 49.7401043,16.5957053 Z M58.7458182,3.36084474 C60.9682338,3.06231256 62.9086721,2.21648406 64.5671913,0.823333882 L67.7515321,0.823333882 L67.7515321,32.2188113 L63.8706167,32.2188113 L63.8706167,5.50031468 C62.2120976,6.56176243 60.5038485,7.14223297 58.7458182,7.24174369 L58.7458182,3.36084474 Z M86.8078218,0.375537849 C88.4995113,0.375537849 90.1082508,0.740405042 91.6340884,1.47015038 C93.159926,2.19989571 94.4701364,3.24474267 95.5647591,4.60472261 C97.9530266,7.52370394 99.1471425,11.3216397 99.1471425,15.9986439 C99.1471425,24.1253533 96.8915903,29.3330032 92.3804182,31.62175 C90.8214103,32.3846655 89.1297461,32.7661176 87.305375,32.7661176 C83.8888256,32.7661176 81.1854799,31.8373647 79.195257,29.9798312 C77.205034,28.1222976 76.2099374,25.7838306 76.2099374,22.96436 L80.3396295,22.96436 C80.4059702,24.8550638 81.0030282,26.3642872 82.1308212,27.4920754 C83.2586142,28.6198637 84.6849193,29.1837493 86.4097792,29.1837493 C88.1346391,29.1837493 89.5277743,28.8686368 90.5892265,28.2384021 C93.6077314,26.3476983 95.1169612,22.0853861 95.1169612,15.4513376 C95.1169612,14.0913577 95.0340364,12.8640771 94.8681845,11.7694591 C94.5364807,14.4562488 93.5662615,16.4630183 91.957498,17.789828 C90.3487344,19.1166377 88.2424467,19.7800326 85.6385716,19.7800326 C83.0346966,19.7800326 80.7874368,18.8595722 78.896725,17.0186238 C77.0060132,15.1776753 76.0606715,12.8309159 76.0606715,9.97827501 C76.0606715,7.09246392 77.0391831,4.77058178 78.9962357,3.01255893 C80.9532883,1.25453609 83.5571243,0.375537849 86.8078218,0.375537849 Z M91.3355564,5.69933513 C90.1082522,4.57154689 88.5492676,4.00766123 86.6585558,4.00766123 C84.767844,4.00766123 83.2088594,4.55496202 81.9815552,5.64958002 C80.754251,6.74419802 80.1406082,8.25342141 80.1406082,10.1772955 C80.1406082,12.1011695 80.7625435,13.6103929 82.0064329,14.7050109 C83.2503222,15.7996289 84.8093068,16.3469297 86.6834335,16.3469297 C88.5575601,16.3469297 90.1165447,15.7581667 91.3604341,14.5806231 C92.6043234,13.4030795 93.2262588,11.9021486 93.2262588,10.0777852 C93.2262588,8.25342191 92.596031,6.79395313 91.3355564,5.69933513 Z" id="2019" transform="translate(50.113269, 16.570828) scale(-1, 1) translate(-50.113269, -16.570828) "></path>
                                    </g>
                                </g>
                            </g>
                            <g id="Group-170" transform="translate(645.997893, 154.953671)">
                                <g id="Group-167" transform="translate(24.877663, 167.466935)">
                                    <g id="Group-100-Copy-3">
                                        <path d="M172.761547,371.781275 C268.175115,371.781275 345.523094,296.523639 345.523094,203.688641 C345.523094,110.853643 0,110.853643 0,203.688641 C0,296.523639 77.3479793,371.781275 172.761547,371.781275 Z" id="Oval-3" stroke="#231F20" stroke-width="2.41499984" fill="#407BF7"></path>
                                        <ellipse id="Oval-3-Copy" stroke="#231F20" stroke-width="2.41499984" fill="#73A0FF" cx="170.688408" cy="194.8742" rx="170.688408" ry="98.1281431"></ellipse>
                                        <ellipse id="Oval-3-Copy" stroke="#231F20" stroke-width="2.41499984" fill="#001135" cx="171.379455" cy="195.565243" rx="145.1197" ry="79.4699751"></ellipse>
                                        <g id="Group" transform="translate(176.363838, 135.239991) scale(-1, 1) translate(-176.363838, -135.239991) translate(22.407598, 0.000000)">
                                            <g>
                                                <ellipse id="Oval" stroke="#231F20" stroke-width="2.41499984" fill="#FFB439" fill-rule="nonzero" cx="138.695734" cy="132.513769" rx="138.386145" ry="132.508046"></ellipse>
                                                <ellipse id="Oval" stroke="#231F20" stroke-width="2.41499984" fill="#FFCB76" fill-rule="nonzero" cx="169.345015" cy="132.513769" rx="138.386145" ry="132.508046"></ellipse>
                                                <mask id="mask-18" fill="white">
                                                    <use xlink:href="#history_path-17"></use>
                                                </mask>
                                                <use id="Oval" stroke="#231F20" stroke-width="2.41499984" fill="#FFCB76" fill-rule="nonzero" xlink:href="#history_path-17"></use>
                                                <polygon id="Rectangle" opacity="0.100000001" mask="url(#mask-18)" points="237.719889 9.67460566 269.508013 9.67460566 203.167579 270.888958 171.379455 270.888958"></polygon>
                                                <polygon id="Rectangle" fill="#FFFFFF" opacity="0.100000001" mask="url(#mask-18)" points="221.13478 -4.14625957 233.573612 -4.14625957 167.233178 257.068093 154.794346 257.068093"></polygon>
                                                <ellipse id="Oval" stroke="#231F20" stroke-width="2.41499984" fill="#FFB439" fill-rule="nonzero" mask="url(#mask-18)" cx="169.345015" cy="132.513769" rx="85.4464791" ry="81.7419765"></ellipse>
                                                <mask id="mask-20" fill="white">
                                                    <use xlink:href="#history_path-19"></use>
                                                </mask>
                                                <use id="Oval" stroke="#231F20" stroke-width="2.41499984" fill="#FFCB76" fill-rule="nonzero" xlink:href="#history_path-19"></use>
                                                <polygon id="Rectangle" fill="#FFFFFF" opacity="0.200000003" mask="url(#mask-20)" points="234.955704 51.1372013 266.743829 51.1372013 225.281057 215.605498 193.492933 215.605498"></polygon>
                                                <polygon id="Rectangle" fill="#FFFFFF" opacity="0.100000001" mask="url(#mask-20)" points="212.842226 51.1372013 225.281057 51.1372013 183.818286 215.605498 171.379455 215.605498"></polygon>
                                            </g>
                                            <path d="M58.8376469,53.9342812 L27.246964,53.9342812" id="Shape" stroke="#231F20" stroke-width="2.41499984" fill="#29CC86" fill-rule="nonzero"></path>
                                            <path d="M62.983924,48.4059351 L30.0111487,48.4059351" id="Shape" stroke="#231F20" stroke-width="2.41499984" fill="#29CC86" fill-rule="nonzero"></path>
                                            <path d="M119.649711,8.32542596 L88.0590285,8.32542596" id="Shape" stroke="#231F20" stroke-width="2.41499984" fill="#29CC86" fill-rule="nonzero"></path>
                                            <path d="M134.852728,4.17916639 L103.262045,4.17916639" id="Shape" stroke="#231F20" stroke-width="2.41499984" fill="#29CC86" fill-rule="nonzero"></path>
                                            <path d="M31.5906829,132.680306 L0,132.680306" id="Shape" stroke="#231F20" stroke-width="2.41499984" fill="#29CC86" fill-rule="nonzero"></path>
                                            <path d="M31.5906829,127.15196 L0,127.15196" id="Shape" stroke="#231F20" stroke-width="2.41499984" fill="#29CC86" fill-rule="nonzero"></path>
                                            <path d="M53.1118356,205.996706 L24.680221,205.996706" id="Shape" stroke="#231F20" stroke-width="2.41499984" fill="#29CC86" fill-rule="nonzero"></path>
                                            <path d="M58.6402051,211.525052 L30.2085905,211.525052" id="Shape" stroke="#231F20" stroke-width="2.41499984" fill="#29CC86" fill-rule="nonzero"></path>
                                            <path d="M118.267619,255.686007 L89.8360045,255.686007" id="Shape" stroke="#231F20" stroke-width="2.41499984" fill="#29CC86" fill-rule="nonzero"></path>
                                            <path d="M129.324358,259.832266 L100.892743,259.832266" id="Shape" stroke="#231F20" stroke-width="2.41499984" fill="#29CC86" fill-rule="nonzero"></path>
                                        </g>
                                    </g>
                                    <g id="Group-162" transform="translate(153.784735, 132.152232) scale(-1, 1) rotate(-4.000000) translate(-153.784735, -132.152232) translate(103.673488, 115.247233)" fill="#231F20">
                                        <path d="M5.01006659,28.586688 L23.1707604,28.586688 L23.1707604,32.2188113 L1.07939587,32.2188113 L1.07939587,27.5915857 C1.07939587,23.9096887 2.47253106,21.2063545 5.25884322,19.4815019 C6.15444356,18.9176078 7.14954012,18.4200616 8.24416275,17.9888485 L14.4138231,15.5010928 C17.5981799,14.2406235 19.1903344,12.1675145 19.1903344,9.2817034 C19.1903344,7.68953177 18.6430313,6.38761928 17.5484086,5.37592689 C16.453786,4.3642345 14.9196788,3.85839589 12.946041,3.85839589 C10.9724032,3.85839589 9.3636638,4.2730177 8.11977444,5.10227376 C6.87588508,5.93152982 6.15444007,7.17539525 5.95541778,8.83390737 L1.62670446,8.83390737 C1.79255637,6.11394749 2.88716259,4.02425357 4.91055594,2.5647629 C6.9339493,1.10527224 9.52949282,0.375537849 12.6972644,0.375537849 C15.865036,0.375537849 18.4439945,1.23795122 20.4342175,2.96280382 C22.4244405,4.68765642 23.419537,6.81881253 23.419537,9.35633607 C23.419537,11.8938596 22.7644318,13.9089216 21.4542017,15.4015825 C20.1439716,16.8942434 18.3445053,18.0883542 16.0557489,18.9839508 L9.73682252,21.5214616 C8.14464414,22.1848665 6.95882074,22.9394782 6.17931674,23.7853194 C5.39981274,24.6311606 5.01006659,25.7340546 5.01006659,27.0940345 L5.01006659,28.586688 Z M41.5802309,0.375537849 C45.3616545,0.375537849 48.3469442,1.76866713 50.5361895,4.55496749 C52.7254347,7.34126786 53.8200409,11.3465145 53.8200409,16.5708277 C53.8200409,21.7951409 52.7254347,25.8003876 50.5361895,28.586688 C48.3469442,31.3729883 45.3616545,32.7661176 41.5802309,32.7661176 C37.7988072,32.7661176 34.8052251,31.3895732 32.5993946,28.6364431 C30.3935641,25.8833129 29.2906655,21.8614814 29.2906655,16.5708277 C29.2906655,11.2801741 30.3935641,7.2583425 32.5993946,4.50521238 C34.8052251,1.75208226 37.7988072,0.375537849 41.5802309,0.375537849 Z M49.7401043,16.5957053 C49.7401043,12.5157655 49.0435367,9.38951701 47.6503806,7.21686614 C46.2572245,5.04421526 44.225569,3.95790612 41.5553532,3.95790612 C38.8851374,3.95790612 36.8534819,5.04421526 35.4603258,7.21686614 C34.0671697,9.38951701 33.3706022,12.507473 33.3706022,16.5708277 C33.3706022,20.6341824 34.0671697,23.7521384 35.4603258,25.9247893 C36.8534819,28.0974402 38.8851374,29.1837493 41.5553532,29.1837493 C44.225569,29.1837493 46.2572245,28.0974402 47.6503806,25.9247893 C49.0435367,23.7521384 49.7401043,20.6424749 49.7401043,16.5957053 Z M58.7458182,3.36084474 C60.9682338,3.06231256 62.9086721,2.21648406 64.5671913,0.823333882 L67.7515321,0.823333882 L67.7515321,32.2188113 L63.8706167,32.2188113 L63.8706167,5.50031468 C62.2120976,6.56176243 60.5038485,7.14223297 58.7458182,7.24174369 L58.7458182,3.36084474 Z M86.8078218,0.375537849 C88.4995113,0.375537849 90.1082508,0.740405042 91.6340884,1.47015038 C93.159926,2.19989571 94.4701364,3.24474267 95.5647591,4.60472261 C97.9530266,7.52370394 99.1471425,11.3216397 99.1471425,15.9986439 C99.1471425,24.1253533 96.8915903,29.3330032 92.3804182,31.62175 C90.8214103,32.3846655 89.1297461,32.7661176 87.305375,32.7661176 C83.8888256,32.7661176 81.1854799,31.8373647 79.195257,29.9798312 C77.205034,28.1222976 76.2099374,25.7838306 76.2099374,22.96436 L80.3396295,22.96436 C80.4059702,24.8550638 81.0030282,26.3642872 82.1308212,27.4920754 C83.2586142,28.6198637 84.6849193,29.1837493 86.4097792,29.1837493 C88.1346391,29.1837493 89.5277743,28.8686368 90.5892265,28.2384021 C93.6077314,26.3476983 95.1169612,22.0853861 95.1169612,15.4513376 C95.1169612,14.0913577 95.0340364,12.8640771 94.8681845,11.7694591 C94.5364807,14.4562488 93.5662615,16.4630183 91.957498,17.789828 C90.3487344,19.1166377 88.2424467,19.7800326 85.6385716,19.7800326 C83.0346966,19.7800326 80.7874368,18.8595722 78.896725,17.0186238 C77.0060132,15.1776753 76.0606715,12.8309159 76.0606715,9.97827501 C76.0606715,7.09246392 77.0391831,4.77058178 78.9962357,3.01255893 C80.9532883,1.25453609 83.5571243,0.375537849 86.8078218,0.375537849 Z M91.3355564,5.69933513 C90.1082522,4.57154689 88.5492676,4.00766123 86.6585558,4.00766123 C84.767844,4.00766123 83.2088594,4.55496202 81.9815552,5.64958002 C80.754251,6.74419802 80.1406082,8.25342141 80.1406082,10.1772955 C80.1406082,12.1011695 80.7625435,13.6103929 82.0064329,14.7050109 C83.2503222,15.7996289 84.8093068,16.3469297 86.6834335,16.3469297 C88.5575601,16.3469297 90.1165447,15.7581667 91.3604341,14.5806231 C92.6043234,13.4030795 93.2262588,11.9021486 93.2262588,10.0777852 C93.2262588,8.25342191 92.596031,6.79395313 91.3355564,5.69933513 Z" id="2019" transform="translate(50.113269, 16.570828) scale(-1, 1) translate(-50.113269, -16.570828) "></path>
                                    </g>
                                </g>
                            </g>
                            <g id="Group-169" transform="translate(1393.454908, 74.864995)">
                                <g id="Group-167" transform="translate(24.877663, 167.466935)">
                                    <g id="Group-100-Copy-3">
                                        <path d="M172.761547,371.781275 C268.175115,371.781275 345.523094,296.523639 345.523094,203.688641 C345.523094,110.853643 0,110.853643 0,203.688641 C0,296.523639 77.3479793,371.781275 172.761547,371.781275 Z" id="Oval-3" stroke="#231F20" stroke-width="2.41499984" fill="#407BF7"></path>
                                        <ellipse id="Oval-3-Copy" stroke="#231F20" stroke-width="2.41499984" fill="#73A0FF" cx="170.688408" cy="194.8742" rx="170.688408" ry="98.1281431"></ellipse>
                                        <ellipse id="Oval-3-Copy" stroke="#231F20" stroke-width="2.41499984" fill="#001135" cx="171.379455" cy="195.565243" rx="145.1197" ry="79.4699751"></ellipse>
                                        <g id="Group" transform="translate(176.363838, 135.239991) scale(-1, 1) translate(-176.363838, -135.239991) translate(22.407598, 0.000000)">
                                            <g>
                                                <ellipse id="Oval" stroke="#231F20" stroke-width="2.41499984" fill="#FFB439" fill-rule="nonzero" cx="138.695734" cy="132.513769" rx="138.386145" ry="132.508046"></ellipse>
                                                <ellipse id="Oval" stroke="#231F20" stroke-width="2.41499984" fill="#FFCB76" fill-rule="nonzero" cx="169.345015" cy="132.513769" rx="138.386145" ry="132.508046"></ellipse>
                                                <mask id="mask-22" fill="white">
                                                    <use xlink:href="#history_path-21"></use>
                                                </mask>
                                                <use id="Oval" stroke="#231F20" stroke-width="2.41499984" fill="#FFCB76" fill-rule="nonzero" xlink:href="#history_path-21"></use>
                                                <polygon id="Rectangle" opacity="0.100000001" mask="url(#mask-22)" points="237.719889 9.67460566 269.508013 9.67460566 203.167579 270.888958 171.379455 270.888958"></polygon>
                                                <polygon id="Rectangle" fill="#FFFFFF" opacity="0.100000001" mask="url(#mask-22)" points="221.13478 -4.14625957 233.573612 -4.14625957 167.233178 257.068093 154.794346 257.068093"></polygon>
                                                <ellipse id="Oval" stroke="#231F20" stroke-width="2.41499984" fill="#FFB439" fill-rule="nonzero" mask="url(#mask-22)" cx="169.345015" cy="132.513769" rx="85.4464791" ry="81.7419765"></ellipse>
                                                <mask id="mask-24" fill="white">
                                                    <use xlink:href="#history_path-23"></use>
                                                </mask>
                                                <use id="Oval" stroke="#231F20" stroke-width="2.41499984" fill="#FFCB76" fill-rule="nonzero" xlink:href="#history_path-23"></use>
                                                <polygon id="Rectangle" fill="#FFFFFF" opacity="0.200000003" mask="url(#mask-24)" points="234.955704 51.1372013 266.743829 51.1372013 225.281057 215.605498 193.492933 215.605498"></polygon>
                                                <polygon id="Rectangle" fill="#FFFFFF" opacity="0.100000001" mask="url(#mask-24)" points="212.842226 51.1372013 225.281057 51.1372013 183.818286 215.605498 171.379455 215.605498"></polygon>
                                            </g>
                                            <path d="M58.8376469,53.9342812 L27.246964,53.9342812" id="Shape" stroke="#231F20" stroke-width="2.41499984" fill="#29CC86" fill-rule="nonzero"></path>
                                            <path d="M62.983924,48.4059351 L30.0111487,48.4059351" id="Shape" stroke="#231F20" stroke-width="2.41499984" fill="#29CC86" fill-rule="nonzero"></path>
                                            <path d="M119.649711,8.32542596 L88.0590285,8.32542596" id="Shape" stroke="#231F20" stroke-width="2.41499984" fill="#29CC86" fill-rule="nonzero"></path>
                                            <path d="M134.852728,4.17916639 L103.262045,4.17916639" id="Shape" stroke="#231F20" stroke-width="2.41499984" fill="#29CC86" fill-rule="nonzero"></path>
                                            <path d="M31.5906829,132.680306 L0,132.680306" id="Shape" stroke="#231F20" stroke-width="2.41499984" fill="#29CC86" fill-rule="nonzero"></path>
                                            <path d="M31.5906829,127.15196 L0,127.15196" id="Shape" stroke="#231F20" stroke-width="2.41499984" fill="#29CC86" fill-rule="nonzero"></path>
                                            <path d="M53.1118356,205.996706 L24.680221,205.996706" id="Shape" stroke="#231F20" stroke-width="2.41499984" fill="#29CC86" fill-rule="nonzero"></path>
                                            <path d="M58.6402051,211.525052 L30.2085905,211.525052" id="Shape" stroke="#231F20" stroke-width="2.41499984" fill="#29CC86" fill-rule="nonzero"></path>
                                            <path d="M118.267619,255.686007 L89.8360045,255.686007" id="Shape" stroke="#231F20" stroke-width="2.41499984" fill="#29CC86" fill-rule="nonzero"></path>
                                            <path d="M129.324358,259.832266 L100.892743,259.832266" id="Shape" stroke="#231F20" stroke-width="2.41499984" fill="#29CC86" fill-rule="nonzero"></path>
                                        </g>
                                    </g>
                                    <g id="Group-162" transform="translate(153.784735, 132.152232) scale(-1, 1) rotate(-4.000000) translate(-153.784735, -132.152232) translate(103.673488, 115.247233)" fill="#231F20">
                                        <path d="M5.01006659,28.586688 L23.1707604,28.586688 L23.1707604,32.2188113 L1.07939587,32.2188113 L1.07939587,27.5915857 C1.07939587,23.9096887 2.47253106,21.2063545 5.25884322,19.4815019 C6.15444356,18.9176078 7.14954012,18.4200616 8.24416275,17.9888485 L14.4138231,15.5010928 C17.5981799,14.2406235 19.1903344,12.1675145 19.1903344,9.2817034 C19.1903344,7.68953177 18.6430313,6.38761928 17.5484086,5.37592689 C16.453786,4.3642345 14.9196788,3.85839589 12.946041,3.85839589 C10.9724032,3.85839589 9.3636638,4.2730177 8.11977444,5.10227376 C6.87588508,5.93152982 6.15444007,7.17539525 5.95541778,8.83390737 L1.62670446,8.83390737 C1.79255637,6.11394749 2.88716259,4.02425357 4.91055594,2.5647629 C6.9339493,1.10527224 9.52949282,0.375537849 12.6972644,0.375537849 C15.865036,0.375537849 18.4439945,1.23795122 20.4342175,2.96280382 C22.4244405,4.68765642 23.419537,6.81881253 23.419537,9.35633607 C23.419537,11.8938596 22.7644318,13.9089216 21.4542017,15.4015825 C20.1439716,16.8942434 18.3445053,18.0883542 16.0557489,18.9839508 L9.73682252,21.5214616 C8.14464414,22.1848665 6.95882074,22.9394782 6.17931674,23.7853194 C5.39981274,24.6311606 5.01006659,25.7340546 5.01006659,27.0940345 L5.01006659,28.586688 Z M41.5802309,0.375537849 C45.3616545,0.375537849 48.3469442,1.76866713 50.5361895,4.55496749 C52.7254347,7.34126786 53.8200409,11.3465145 53.8200409,16.5708277 C53.8200409,21.7951409 52.7254347,25.8003876 50.5361895,28.586688 C48.3469442,31.3729883 45.3616545,32.7661176 41.5802309,32.7661176 C37.7988072,32.7661176 34.8052251,31.3895732 32.5993946,28.6364431 C30.3935641,25.8833129 29.2906655,21.8614814 29.2906655,16.5708277 C29.2906655,11.2801741 30.3935641,7.2583425 32.5993946,4.50521238 C34.8052251,1.75208226 37.7988072,0.375537849 41.5802309,0.375537849 Z M49.7401043,16.5957053 C49.7401043,12.5157655 49.0435367,9.38951701 47.6503806,7.21686614 C46.2572245,5.04421526 44.225569,3.95790612 41.5553532,3.95790612 C38.8851374,3.95790612 36.8534819,5.04421526 35.4603258,7.21686614 C34.0671697,9.38951701 33.3706022,12.507473 33.3706022,16.5708277 C33.3706022,20.6341824 34.0671697,23.7521384 35.4603258,25.9247893 C36.8534819,28.0974402 38.8851374,29.1837493 41.5553532,29.1837493 C44.225569,29.1837493 46.2572245,28.0974402 47.6503806,25.9247893 C49.0435367,23.7521384 49.7401043,20.6424749 49.7401043,16.5957053 Z M58.7458182,3.36084474 C60.9682338,3.06231256 62.9086721,2.21648406 64.5671913,0.823333882 L67.7515321,0.823333882 L67.7515321,32.2188113 L63.8706167,32.2188113 L63.8706167,5.50031468 C62.2120976,6.56176243 60.5038485,7.14223297 58.7458182,7.24174369 L58.7458182,3.36084474 Z M86.8078218,0.375537849 C88.4995113,0.375537849 90.1082508,0.740405042 91.6340884,1.47015038 C93.159926,2.19989571 94.4701364,3.24474267 95.5647591,4.60472261 C97.9530266,7.52370394 99.1471425,11.3216397 99.1471425,15.9986439 C99.1471425,24.1253533 96.8915903,29.3330032 92.3804182,31.62175 C90.8214103,32.3846655 89.1297461,32.7661176 87.305375,32.7661176 C83.8888256,32.7661176 81.1854799,31.8373647 79.195257,29.9798312 C77.205034,28.1222976 76.2099374,25.7838306 76.2099374,22.96436 L80.3396295,22.96436 C80.4059702,24.8550638 81.0030282,26.3642872 82.1308212,27.4920754 C83.2586142,28.6198637 84.6849193,29.1837493 86.4097792,29.1837493 C88.1346391,29.1837493 89.5277743,28.8686368 90.5892265,28.2384021 C93.6077314,26.3476983 95.1169612,22.0853861 95.1169612,15.4513376 C95.1169612,14.0913577 95.0340364,12.8640771 94.8681845,11.7694591 C94.5364807,14.4562488 93.5662615,16.4630183 91.957498,17.789828 C90.3487344,19.1166377 88.2424467,19.7800326 85.6385716,19.7800326 C83.0346966,19.7800326 80.7874368,18.8595722 78.896725,17.0186238 C77.0060132,15.1776753 76.0606715,12.8309159 76.0606715,9.97827501 C76.0606715,7.09246392 77.0391831,4.77058178 78.9962357,3.01255893 C80.9532883,1.25453609 83.5571243,0.375537849 86.8078218,0.375537849 Z M91.3355564,5.69933513 C90.1082522,4.57154689 88.5492676,4.00766123 86.6585558,4.00766123 C84.767844,4.00766123 83.2088594,4.55496202 81.9815552,5.64958002 C80.754251,6.74419802 80.1406082,8.25342141 80.1406082,10.1772955 C80.1406082,12.1011695 80.7625435,13.6103929 82.0064329,14.7050109 C83.2503222,15.7996289 84.8093068,16.3469297 86.6834335,16.3469297 C88.5575601,16.3469297 90.1165447,15.7581667 91.3604341,14.5806231 C92.6043234,13.4030795 93.2262588,11.9021486 93.2262588,10.0777852 C93.2262588,8.25342191 92.596031,6.79395313 91.3355564,5.69933513 Z" id="2019" transform="translate(50.113269, 16.570828) scale(-1, 1) translate(-50.113269, -16.570828) "></path>
                                    </g>
                                </g>
                            </g>
                        </g>
                    </g>
                    <g id="balk" transform="translate(1585.955626, 1620.287488) rotate(6.000000) translate(-1585.955626, -1620.287488) translate(65.109477, 1565.949992)">
                        <rect id="Rectangle-5" stroke="#231F20" stroke-width="2.04067487" fill="#BED1F4" x="0" y="54.2336711" width="2914.66556" height="53.936933"></rect>
                        <rect id="Rectangle-5" stroke="#000000" stroke-width="2.41499984" fill="#E1E9F3" x="2.27373675e-13" y="0" width="3019.38539" height="53.936933"></rect>
                        <rect id="Rectangle-5" stroke="#231F20" stroke-width="2.04067487" fill="#BED1F4" x="0" y="22.1133844" width="3041.49887" height="6.91043261"></rect>
                        <g id="Group-186" transform="translate(471.408265, 61.925551)" fill="#231F20" fill-rule="nonzero">
                            <polygon id="Path-17" points="106.59413 3.64141275 106.591566 0.87724089 239.990275 0.75352546 239.992838 3.51769732"></polygon>
                            <polygon id="Path-17" points="1838.36694 40.3349348 1838.36438 37.5707629 1971.76309 37.4470475 1971.76565 40.2112193"></polygon>
                            <polygon id="Path-17" points="0.988043222 3.0655398 1.01763852 0.301525188 97.0153404 1.32939841 96.9857451 4.09341302"></polygon>
                        </g>
                    </g>
                    <g id="Group-192" transform="translate(2133.652359, 1148.332424)">
                        <g id="vagon-copy-2" transform="translate(23.495570, 161.938589)">
                            <g id="Group-188" transform="translate(0.000000, 96.746057)" stroke="#231F20" stroke-width="2.41499984">
                                <path d="M172.761547,275.035218 C268.175115,275.035218 345.523094,199.777583 345.523094,106.942585 C345.523094,14.1075866 0,14.1075866 0,106.942585 C0,199.777583 77.3479793,275.035218 172.761547,275.035218 Z" id="Oval-3" fill="#407BF7" transform="translate(172.761547, 156.175777) scale(-1, 1) translate(-172.761547, -156.175777) "></path>
                                <ellipse id="Oval-3-Copy" fill="#73A0FF" transform="translate(174.834686, 98.128143) scale(-1, 1) translate(-174.834686, -98.128143) " cx="174.834686" cy="98.1281431" rx="170.688408" ry="98.1281431"></ellipse>
                                <ellipse id="Oval-3-Copy" fill="#001135" transform="translate(174.143639, 98.819186) scale(-1, 1) translate(-174.143639, -98.819186) " cx="174.143639" cy="98.8191864" rx="145.1197" ry="79.4699751"></ellipse>
                            </g>
                            <g id="coin" transform="translate(15.203016, 0.000000)">
                                <g id="Group">
                                    <ellipse id="Oval" stroke="#231F20" stroke-width="2.41499984" fill="#FFB439" fill-rule="nonzero" cx="138.695734" cy="132.513769" rx="138.386145" ry="132.508046"></ellipse>
                                    <ellipse id="Oval" stroke="#231F20" stroke-width="2.41499984" fill="#FFCB76" fill-rule="nonzero" cx="169.345015" cy="132.513769" rx="138.386145" ry="132.508046"></ellipse>
                                    <mask id="mask-26" fill="white">
                                        <use xlink:href="#history_path-25"></use>
                                    </mask>
                                    <use id="Oval" stroke="#231F20" stroke-width="2.41499984" fill="#FFCB76" fill-rule="nonzero" xlink:href="#history_path-25"></use>
                                    <polygon id="Rectangle" opacity="0.100000001" mask="url(#mask-26)" points="237.719889 9.67460566 269.508013 9.67460566 203.167579 270.888958 171.379455 270.888958"></polygon>
                                    <polygon id="Rectangle" fill="#FFFFFF" opacity="0.100000001" mask="url(#mask-26)" points="221.13478 -4.14625957 233.573612 -4.14625957 167.233178 257.068093 154.794346 257.068093"></polygon>
                                    <ellipse id="Oval" stroke="#231F20" stroke-width="2.41499984" fill="#FFB439" fill-rule="nonzero" mask="url(#mask-26)" cx="169.345015" cy="132.513769" rx="85.4464791" ry="81.7419765"></ellipse>
                                    <mask id="mask-28" fill="white">
                                        <use xlink:href="#history_path-27"></use>
                                    </mask>
                                    <use id="Oval" stroke="#231F20" stroke-width="2.41499984" fill="#FFCB76" fill-rule="nonzero" xlink:href="#history_path-27"></use>
                                    <polygon id="Rectangle" fill="#FFFFFF" opacity="0.200000003" mask="url(#mask-28)" points="234.955704 51.1372013 266.743829 51.1372013 225.281057 215.605498 193.492933 215.605498"></polygon>
                                    <polygon id="Rectangle" fill="#FFFFFF" opacity="0.100000001" mask="url(#mask-28)" points="212.842226 51.1372013 225.281057 51.1372013 183.818286 215.605498 171.379455 215.605498"></polygon>
                                </g>
                                <g id="Group-189" transform="translate(0.000000, 4.146260)" fill-rule="nonzero" stroke="#231F20" stroke-width="2.41499984">
                                    <path d="M58.8376469,49.7880216 L27.246964,49.7880216 L58.8376469,49.7880216 Z" id="Shape"></path>
                                    <path d="M62.983924,44.2596756 L30.0111487,44.2596756 L62.983924,44.2596756 Z" id="Shape"></path>
                                    <path d="M119.649711,4.17916639 L88.0590285,4.17916639 L119.649711,4.17916639 Z" id="Shape"></path>
                                    <path d="M134.852728,0.032906822 L103.262045,0.032906822 L134.852728,0.032906822 Z" id="Shape"></path>
                                    <path d="M31.5906829,128.534047 L0,128.534047 L31.5906829,128.534047 Z" id="Shape"></path>
                                    <path d="M31.5906829,123.005701 L0,123.005701 L31.5906829,123.005701 Z" id="Shape"></path>
                                    <path d="M53.1118356,201.850446 L24.680221,201.850446 L53.1118356,201.850446 Z" id="Shape"></path>
                                    <path d="M58.6402051,207.378792 L30.2085905,207.378792 L58.6402051,207.378792 Z" id="Shape"></path>
                                    <path d="M118.267619,251.539747 L89.8360045,251.539747 L118.267619,251.539747 Z" id="Shape"></path>
                                    <path d="M129.324358,255.686007 L100.892743,255.686007 L129.324358,255.686007 Z" id="Shape"></path>
                                </g>
                                <path d="M130.431458,142.367073 L148.547913,143.633893 L148.294548,147.257169 L126.256997,145.71616 L126.579777,141.100206 C126.836614,137.427278 128.414932,134.827709 131.314777,133.30142 C132.247531,132.801374 133.274911,132.374453 134.396947,132.020647 L140.725116,129.969324 C143.989642,128.934053 145.722532,126.977057 145.923836,124.098276 C146.034901,122.509982 145.579749,121.173064 144.558365,120.087479 C143.536981,119.001894 142.041896,118.390274 140.073066,118.252601 C138.104236,118.114928 136.470493,118.41632 135.171787,119.156787 C133.873082,119.897254 133.066626,121.087764 132.752396,122.728353 L128.434227,122.426399 C128.789411,119.724634 130.027121,117.716386 132.147395,116.401594 C134.267669,115.086803 136.907794,114.539902 140.067849,114.760873 C143.227904,114.981845 145.740421,116.022056 147.605476,117.881537 C149.47053,119.741018 150.31454,121.936397 150.137531,124.467739 C149.960521,126.999082 149.166448,128.963538 147.755286,130.361166 C146.344124,131.758794 144.465744,132.824472 142.120089,133.558232 L135.639547,135.648778 C134.00497,136.199502 132.769396,136.869557 131.932788,137.658963 C131.096179,138.448368 130.630448,139.521388 130.53558,140.878055 L130.431458,142.367073 Z M168.880458,116.775639 C172.65267,117.039416 175.533507,118.637394 177.523056,121.569621 C179.512606,124.501847 180.325152,128.573693 179.960721,133.78528 C179.59629,138.996867 178.224957,142.916002 175.846681,145.542801 C173.468406,148.169601 170.393208,149.351094 166.620995,149.087317 C162.848783,148.823539 159.958517,147.241527 157.950109,144.341233 C155.941701,141.440939 155.122039,137.35197 155.491098,132.074204 C155.860157,126.796439 157.240919,122.861338 159.633425,120.268785 C162.025932,117.676231 165.108245,116.511861 168.880458,116.775639 Z M175.888988,133.525496 C176.173591,129.455495 175.696797,126.288272 174.458592,124.023732 C173.220387,121.759193 171.269457,120.533809 168.605746,120.347545 C165.942035,120.161281 163.839551,121.103223 162.298231,123.173401 C160.756912,125.243578 159.844543,128.305349 159.561096,132.358805 C159.27765,136.412262 159.755022,139.571213 160.993227,141.835752 C162.231432,144.100292 164.182362,145.325675 166.846073,145.511939 C169.509784,145.698203 171.612268,144.756261 173.153588,142.686084 C174.694907,140.615907 175.606698,137.562408 175.888988,133.525496 Z M185.795985,120.951079 C188.033812,120.808301 190.028525,120.099891 191.780186,118.825826 L194.95677,119.047954 L192.766723,150.366953 L188.895261,150.096236 L190.759057,123.442824 C189.030535,124.385994 187.285955,124.84589 185.525266,124.822525 L185.795985,120.951079 Z M213.997876,119.930543 C215.685445,120.048548 217.264814,120.524746 218.73603,121.359151 C220.207246,122.193555 221.44138,123.327252 222.438468,124.760276 C224.617299,127.838743 225.543574,131.710724 225.217322,136.376335 C224.650429,144.483248 222.037102,149.520874 217.377264,151.489363 C215.768835,152.14167 214.054682,152.404189 212.234755,152.276928 C208.826529,152.038602 206.194555,150.923537 204.338756,148.931698 C202.482956,146.939859 201.653408,144.537674 201.850085,141.725071 L205.969717,142.013143 C205.904007,143.903869 206.394332,145.451064 207.440707,146.654776 C208.487082,147.858487 209.870577,148.520493 211.591236,148.640813 C213.311894,148.761132 214.723617,148.543967 215.826446,147.989311 C218.969488,146.313772 220.772366,142.16712 221.235136,135.549232 C221.330004,134.192565 221.332892,132.96249 221.243801,131.858969 C220.725484,134.516075 219.617642,136.450278 217.920244,137.661634 C216.222845,138.872991 214.075412,139.387843 211.47788,139.206206 C208.880347,139.02457 206.70277,137.949592 204.945083,135.981239 C203.187395,134.012886 202.408059,131.6059 202.60705,128.760208 C202.808355,125.881426 203.94645,123.633457 206.021369,122.016234 C208.096288,120.39901 210.755097,119.703786 213.997876,119.930543 Z M218.143211,125.557209 C216.997567,124.346556 215.481715,123.675295 213.595609,123.543406 C211.709503,123.411517 210.116138,123.848736 208.815466,124.855075 C207.514795,125.861415 206.797368,127.324157 206.663165,129.243344 C206.528962,131.162532 207.044103,132.711463 208.208606,133.890183 C209.373108,135.068904 210.890117,135.72362 212.759678,135.854352 C214.62924,135.985084 216.225497,135.506504 217.548498,134.418598 C218.871499,133.330692 219.596619,131.876801 219.723881,130.056881 C219.851143,128.236962 219.324258,126.737086 218.143211,125.557209 Z" id="2019" fill="#231F20"></path>
                            </g>
                        </g>
                    </g>
                    <g id="Group-193" transform="translate(1393.454908, 1068.637429)">
                        <g id="vagon-copy" transform="translate(23.495570, 166.084849)">
                            <g id="Group-188" transform="translate(0.000000, 96.746057)" stroke="#231F20" stroke-width="2.41499984">
                                <path d="M172.761547,275.035218 C268.175115,275.035218 345.523094,199.777583 345.523094,106.942585 C345.523094,14.1075866 0,14.1075866 0,106.942585 C0,199.777583 77.3479793,275.035218 172.761547,275.035218 Z" id="Oval-3" fill="#407BF7" transform="translate(172.761547, 156.175777) scale(-1, 1) translate(-172.761547, -156.175777) "></path>
                                <ellipse id="Oval-3-Copy" fill="#73A0FF" transform="translate(174.834686, 98.128143) scale(-1, 1) translate(-174.834686, -98.128143) " cx="174.834686" cy="98.1281431" rx="170.688408" ry="98.1281431"></ellipse>
                                <ellipse id="Oval-3-Copy" fill="#001135" transform="translate(174.143639, 98.819186) scale(-1, 1) translate(-174.143639, -98.819186) " cx="174.143639" cy="98.8191864" rx="145.1197" ry="79.4699751"></ellipse>
                            </g>
                            <g id="coin" transform="translate(15.203016, 0.000000)">
                                <g id="Group">
                                    <ellipse id="Oval" stroke="#231F20" stroke-width="2.41499984" fill="#FFB439" fill-rule="nonzero" cx="138.695734" cy="132.513769" rx="138.386145" ry="132.508046"></ellipse>
                                    <ellipse id="Oval" stroke="#231F20" stroke-width="2.41499984" fill="#FFCB76" fill-rule="nonzero" cx="169.345015" cy="132.513769" rx="138.386145" ry="132.508046"></ellipse>
                                    <mask id="mask-30" fill="white">
                                        <use xlink:href="#history_path-29"></use>
                                    </mask>
                                    <use id="Oval" stroke="#231F20" stroke-width="2.41499984" fill="#FFCB76" fill-rule="nonzero" xlink:href="#history_path-29"></use>
                                    <polygon id="Rectangle" opacity="0.100000001" mask="url(#mask-30)" points="237.719889 9.67460566 269.508013 9.67460566 203.167579 270.888958 171.379455 270.888958"></polygon>
                                    <polygon id="Rectangle" fill="#FFFFFF" opacity="0.100000001" mask="url(#mask-30)" points="221.13478 -4.14625957 233.573612 -4.14625957 167.233178 257.068093 154.794346 257.068093"></polygon>
                                    <ellipse id="Oval" stroke="#231F20" stroke-width="2.41499984" fill="#FFB439" fill-rule="nonzero" mask="url(#mask-30)" cx="169.345015" cy="132.513769" rx="85.4464791" ry="81.7419765"></ellipse>
                                    <mask id="mask-32" fill="white">
                                        <use xlink:href="#history_path-31"></use>
                                    </mask>
                                    <use id="Oval" stroke="#231F20" stroke-width="2.41499984" fill="#FFCB76" fill-rule="nonzero" xlink:href="#history_path-31"></use>
                                    <polygon id="Rectangle" fill="#FFFFFF" opacity="0.200000003" mask="url(#mask-32)" points="234.955704 51.1372013 266.743829 51.1372013 225.281057 215.605498 193.492933 215.605498"></polygon>
                                    <polygon id="Rectangle" fill="#FFFFFF" opacity="0.100000001" mask="url(#mask-32)" points="212.842226 51.1372013 225.281057 51.1372013 183.818286 215.605498 171.379455 215.605498"></polygon>
                                </g>
                                <g id="Group-189" transform="translate(0.000000, 4.146260)" fill-rule="nonzero" stroke="#231F20" stroke-width="2.41499984">
                                    <path d="M58.8376469,49.7880216 L27.246964,49.7880216 L58.8376469,49.7880216 Z" id="Shape"></path>
                                    <path d="M62.983924,44.2596756 L30.0111487,44.2596756 L62.983924,44.2596756 Z" id="Shape"></path>
                                    <path d="M119.649711,4.17916639 L88.0590285,4.17916639 L119.649711,4.17916639 Z" id="Shape"></path>
                                    <path d="M134.852728,0.032906822 L103.262045,0.032906822 L134.852728,0.032906822 Z" id="Shape"></path>
                                    <path d="M31.5906829,128.534047 L0,128.534047 L31.5906829,128.534047 Z" id="Shape"></path>
                                    <path d="M31.5906829,123.005701 L0,123.005701 L31.5906829,123.005701 Z" id="Shape"></path>
                                    <path d="M53.1118356,201.850446 L24.680221,201.850446 L53.1118356,201.850446 Z" id="Shape"></path>
                                    <path d="M58.6402051,207.378792 L30.2085905,207.378792 L58.6402051,207.378792 Z" id="Shape"></path>
                                    <path d="M118.267619,251.539747 L89.8360045,251.539747 L118.267619,251.539747 Z" id="Shape"></path>
                                    <path d="M129.324358,255.686007 L100.892743,255.686007 L129.324358,255.686007 Z" id="Shape"></path>
                                </g>
                                <path d="M130.431458,142.367073 L148.547913,143.633893 L148.294548,147.257169 L126.256997,145.71616 L126.579777,141.100206 C126.836614,137.427278 128.414932,134.827709 131.314777,133.30142 C132.247531,132.801374 133.274911,132.374453 134.396947,132.020647 L140.725116,129.969324 C143.989642,128.934053 145.722532,126.977057 145.923836,124.098276 C146.034901,122.509982 145.579749,121.173064 144.558365,120.087479 C143.536981,119.001894 142.041896,118.390274 140.073066,118.252601 C138.104236,118.114928 136.470493,118.41632 135.171787,119.156787 C133.873082,119.897254 133.066626,121.087764 132.752396,122.728353 L128.434227,122.426399 C128.789411,119.724634 130.027121,117.716386 132.147395,116.401594 C134.267669,115.086803 136.907794,114.539902 140.067849,114.760873 C143.227904,114.981845 145.740421,116.022056 147.605476,117.881537 C149.47053,119.741018 150.31454,121.936397 150.137531,124.467739 C149.960521,126.999082 149.166448,128.963538 147.755286,130.361166 C146.344124,131.758794 144.465744,132.824472 142.120089,133.558232 L135.639547,135.648778 C134.00497,136.199502 132.769396,136.869557 131.932788,137.658963 C131.096179,138.448368 130.630448,139.521388 130.53558,140.878055 L130.431458,142.367073 Z M168.880458,116.775639 C172.65267,117.039416 175.533507,118.637394 177.523056,121.569621 C179.512606,124.501847 180.325152,128.573693 179.960721,133.78528 C179.59629,138.996867 178.224957,142.916002 175.846681,145.542801 C173.468406,148.169601 170.393208,149.351094 166.620995,149.087317 C162.848783,148.823539 159.958517,147.241527 157.950109,144.341233 C155.941701,141.440939 155.122039,137.35197 155.491098,132.074204 C155.860157,126.796439 157.240919,122.861338 159.633425,120.268785 C162.025932,117.676231 165.108245,116.511861 168.880458,116.775639 Z M175.888988,133.525496 C176.173591,129.455495 175.696797,126.288272 174.458592,124.023732 C173.220387,121.759193 171.269457,120.533809 168.605746,120.347545 C165.942035,120.161281 163.839551,121.103223 162.298231,123.173401 C160.756912,125.243578 159.844543,128.305349 159.561096,132.358805 C159.27765,136.412262 159.755022,139.571213 160.993227,141.835752 C162.231432,144.100292 164.182362,145.325675 166.846073,145.511939 C169.509784,145.698203 171.612268,144.756261 173.153588,142.686084 C174.694907,140.615907 175.606698,137.562408 175.888988,133.525496 Z M185.795985,120.951079 C188.033812,120.808301 190.028525,120.099891 191.780186,118.825826 L194.95677,119.047954 L192.766723,150.366953 L188.895261,150.096236 L190.759057,123.442824 C189.030535,124.385994 187.285955,124.84589 185.525266,124.822525 L185.795985,120.951079 Z M213.997876,119.930543 C215.685445,120.048548 217.264814,120.524746 218.73603,121.359151 C220.207246,122.193555 221.44138,123.327252 222.438468,124.760276 C224.617299,127.838743 225.543574,131.710724 225.217322,136.376335 C224.650429,144.483248 222.037102,149.520874 217.377264,151.489363 C215.768835,152.14167 214.054682,152.404189 212.234755,152.276928 C208.826529,152.038602 206.194555,150.923537 204.338756,148.931698 C202.482956,146.939859 201.653408,144.537674 201.850085,141.725071 L205.969717,142.013143 C205.904007,143.903869 206.394332,145.451064 207.440707,146.654776 C208.487082,147.858487 209.870577,148.520493 211.591236,148.640813 C213.311894,148.761132 214.723617,148.543967 215.826446,147.989311 C218.969488,146.313772 220.772366,142.16712 221.235136,135.549232 C221.330004,134.192565 221.332892,132.96249 221.243801,131.858969 C220.725484,134.516075 219.617642,136.450278 217.920244,137.661634 C216.222845,138.872991 214.075412,139.387843 211.47788,139.206206 C208.880347,139.02457 206.70277,137.949592 204.945083,135.981239 C203.187395,134.012886 202.408059,131.6059 202.60705,128.760208 C202.808355,125.881426 203.94645,123.633457 206.021369,122.016234 C208.096288,120.39901 210.755097,119.703786 213.997876,119.930543 Z M218.143211,125.557209 C216.997567,124.346556 215.481715,123.675295 213.595609,123.543406 C211.709503,123.411517 210.116138,123.848736 208.815466,124.855075 C207.514795,125.861415 206.797368,127.324157 206.663165,129.243344 C206.528962,131.162532 207.044103,132.711463 208.208606,133.890183 C209.373108,135.068904 210.890117,135.72362 212.759678,135.854352 C214.62924,135.985084 216.225497,135.506504 217.548498,134.418598 C218.871499,133.330692 219.596619,131.876801 219.723881,130.056881 C219.851143,128.236962 219.324258,126.737086 218.143211,125.557209 Z" id="2019" fill="#231F20"></path>
                            </g>
                        </g>
                    </g>
                    <g id="Group-194" transform="translate(646.681616, 989.399364)">
                        <g id="vagon" transform="translate(23.495570, 166.084849)">
                            <g id="Group-188" transform="translate(0.000000, 96.746057)" stroke="#231F20" stroke-width="2.41499984">
                                <path d="M172.761547,275.035218 C268.175115,275.035218 345.523094,199.777583 345.523094,106.942585 C345.523094,14.1075866 0,14.1075866 0,106.942585 C0,199.777583 77.3479793,275.035218 172.761547,275.035218 Z" id="Oval-3" fill="#407BF7" transform="translate(172.761547, 156.175777) scale(-1, 1) translate(-172.761547, -156.175777) "></path>
                                <ellipse id="Oval-3-Copy" fill="#73A0FF" transform="translate(174.834686, 98.128143) scale(-1, 1) translate(-174.834686, -98.128143) " cx="174.834686" cy="98.1281431" rx="170.688408" ry="98.1281431"></ellipse>
                                <ellipse id="Oval-3-Copy" fill="#001135" transform="translate(174.143639, 98.819186) scale(-1, 1) translate(-174.143639, -98.819186) " cx="174.143639" cy="98.8191864" rx="145.1197" ry="79.4699751"></ellipse>
                            </g>
                            <g id="coin" transform="translate(15.203016, 0.000000)">
                                <g id="Group">
                                    <ellipse id="Oval" stroke="#231F20" stroke-width="2.41499984" fill="#FFB439" fill-rule="nonzero" cx="138.695734" cy="132.513769" rx="138.386145" ry="132.508046"></ellipse>
                                    <ellipse id="Oval" stroke="#231F20" stroke-width="2.41499984" fill="#FFCB76" fill-rule="nonzero" cx="169.345015" cy="132.513769" rx="138.386145" ry="132.508046"></ellipse>
                                    <mask id="mask-34" fill="white">
                                        <use xlink:href="#history_path-33"></use>
                                    </mask>
                                    <use id="Oval" stroke="#231F20" stroke-width="2.41499984" fill="#FFCB76" fill-rule="nonzero" xlink:href="#history_path-33"></use>
                                    <polygon id="Rectangle" opacity="0.100000001" mask="url(#mask-34)" points="237.719889 9.67460566 269.508013 9.67460566 203.167579 270.888958 171.379455 270.888958"></polygon>
                                    <polygon id="Rectangle" fill="#FFFFFF" opacity="0.100000001" mask="url(#mask-34)" points="221.13478 -4.14625957 233.573612 -4.14625957 167.233178 257.068093 154.794346 257.068093"></polygon>
                                    <ellipse id="Oval" stroke="#231F20" stroke-width="2.41499984" fill="#FFB439" fill-rule="nonzero" mask="url(#mask-34)" cx="169.345015" cy="132.513769" rx="85.4464791" ry="81.7419765"></ellipse>
                                    <mask id="mask-36" fill="white">
                                        <use xlink:href="#history_path-35"></use>
                                    </mask>
                                    <use id="Oval" stroke="#231F20" stroke-width="2.41499984" fill="#FFCB76" fill-rule="nonzero" xlink:href="#history_path-35"></use>
                                    <polygon id="Rectangle" fill="#FFFFFF" opacity="0.200000003" mask="url(#mask-36)" points="234.955704 51.1372013 266.743829 51.1372013 225.281057 215.605498 193.492933 215.605498"></polygon>
                                    <polygon id="Rectangle" fill="#FFFFFF" opacity="0.100000001" mask="url(#mask-36)" points="212.842226 51.1372013 225.281057 51.1372013 183.818286 215.605498 171.379455 215.605498"></polygon>
                                </g>
                                <g id="Group-189" transform="translate(0.000000, 4.146260)" fill-rule="nonzero" stroke="#231F20" stroke-width="2.41499984">
                                    <path d="M58.8376469,49.7880216 L27.246964,49.7880216 L58.8376469,49.7880216 Z" id="Shape"></path>
                                    <path d="M62.983924,44.2596756 L30.0111487,44.2596756 L62.983924,44.2596756 Z" id="Shape"></path>
                                    <path d="M119.649711,4.17916639 L88.0590285,4.17916639 L119.649711,4.17916639 Z" id="Shape"></path>
                                    <path d="M134.852728,0.032906822 L103.262045,0.032906822 L134.852728,0.032906822 Z" id="Shape"></path>
                                    <path d="M31.5906829,128.534047 L0,128.534047 L31.5906829,128.534047 Z" id="Shape"></path>
                                    <path d="M31.5906829,123.005701 L0,123.005701 L31.5906829,123.005701 Z" id="Shape"></path>
                                    <path d="M53.1118356,201.850446 L24.680221,201.850446 L53.1118356,201.850446 Z" id="Shape"></path>
                                    <path d="M58.6402051,207.378792 L30.2085905,207.378792 L58.6402051,207.378792 Z" id="Shape"></path>
                                    <path d="M118.267619,251.539747 L89.8360045,251.539747 L118.267619,251.539747 Z" id="Shape"></path>
                                    <path d="M129.324358,255.686007 L100.892743,255.686007 L129.324358,255.686007 Z" id="Shape"></path>
                                </g>
                                <path d="M130.431458,142.367073 L148.547913,143.633893 L148.294548,147.257169 L126.256997,145.71616 L126.579777,141.100206 C126.836614,137.427278 128.414932,134.827709 131.314777,133.30142 C132.247531,132.801374 133.274911,132.374453 134.396947,132.020647 L140.725116,129.969324 C143.989642,128.934053 145.722532,126.977057 145.923836,124.098276 C146.034901,122.509982 145.579749,121.173064 144.558365,120.087479 C143.536981,119.001894 142.041896,118.390274 140.073066,118.252601 C138.104236,118.114928 136.470493,118.41632 135.171787,119.156787 C133.873082,119.897254 133.066626,121.087764 132.752396,122.728353 L128.434227,122.426399 C128.789411,119.724634 130.027121,117.716386 132.147395,116.401594 C134.267669,115.086803 136.907794,114.539902 140.067849,114.760873 C143.227904,114.981845 145.740421,116.022056 147.605476,117.881537 C149.47053,119.741018 150.31454,121.936397 150.137531,124.467739 C149.960521,126.999082 149.166448,128.963538 147.755286,130.361166 C146.344124,131.758794 144.465744,132.824472 142.120089,133.558232 L135.639547,135.648778 C134.00497,136.199502 132.769396,136.869557 131.932788,137.658963 C131.096179,138.448368 130.630448,139.521388 130.53558,140.878055 L130.431458,142.367073 Z M168.880458,116.775639 C172.65267,117.039416 175.533507,118.637394 177.523056,121.569621 C179.512606,124.501847 180.325152,128.573693 179.960721,133.78528 C179.59629,138.996867 178.224957,142.916002 175.846681,145.542801 C173.468406,148.169601 170.393208,149.351094 166.620995,149.087317 C162.848783,148.823539 159.958517,147.241527 157.950109,144.341233 C155.941701,141.440939 155.122039,137.35197 155.491098,132.074204 C155.860157,126.796439 157.240919,122.861338 159.633425,120.268785 C162.025932,117.676231 165.108245,116.511861 168.880458,116.775639 Z M175.888988,133.525496 C176.173591,129.455495 175.696797,126.288272 174.458592,124.023732 C173.220387,121.759193 171.269457,120.533809 168.605746,120.347545 C165.942035,120.161281 163.839551,121.103223 162.298231,123.173401 C160.756912,125.243578 159.844543,128.305349 159.561096,132.358805 C159.27765,136.412262 159.755022,139.571213 160.993227,141.835752 C162.231432,144.100292 164.182362,145.325675 166.846073,145.511939 C169.509784,145.698203 171.612268,144.756261 173.153588,142.686084 C174.694907,140.615907 175.606698,137.562408 175.888988,133.525496 Z M185.795985,120.951079 C188.033812,120.808301 190.028525,120.099891 191.780186,118.825826 L194.95677,119.047954 L192.766723,150.366953 L188.895261,150.096236 L190.759057,123.442824 C189.030535,124.385994 187.285955,124.84589 185.525266,124.822525 L185.795985,120.951079 Z M213.997876,119.930543 C215.685445,120.048548 217.264814,120.524746 218.73603,121.359151 C220.207246,122.193555 221.44138,123.327252 222.438468,124.760276 C224.617299,127.838743 225.543574,131.710724 225.217322,136.376335 C224.650429,144.483248 222.037102,149.520874 217.377264,151.489363 C215.768835,152.14167 214.054682,152.404189 212.234755,152.276928 C208.826529,152.038602 206.194555,150.923537 204.338756,148.931698 C202.482956,146.939859 201.653408,144.537674 201.850085,141.725071 L205.969717,142.013143 C205.904007,143.903869 206.394332,145.451064 207.440707,146.654776 C208.487082,147.858487 209.870577,148.520493 211.591236,148.640813 C213.311894,148.761132 214.723617,148.543967 215.826446,147.989311 C218.969488,146.313772 220.772366,142.16712 221.235136,135.549232 C221.330004,134.192565 221.332892,132.96249 221.243801,131.858969 C220.725484,134.516075 219.617642,136.450278 217.920244,137.661634 C216.222845,138.872991 214.075412,139.387843 211.47788,139.206206 C208.880347,139.02457 206.70277,137.949592 204.945083,135.981239 C203.187395,134.012886 202.408059,131.6059 202.60705,128.760208 C202.808355,125.881426 203.94645,123.633457 206.021369,122.016234 C208.096288,120.39901 210.755097,119.703786 213.997876,119.930543 Z M218.143211,125.557209 C216.997567,124.346556 215.481715,123.675295 213.595609,123.543406 C211.709503,123.411517 210.116138,123.848736 208.815466,124.855075 C207.514795,125.861415 206.797368,127.324157 206.663165,129.243344 C206.528962,131.162532 207.044103,132.711463 208.208606,133.890183 C209.373108,135.068904 210.890117,135.72362 212.759678,135.854352 C214.62924,135.985084 216.225497,135.506504 217.548498,134.418598 C218.871499,133.330692 219.596619,131.876801 219.723881,130.056881 C219.851143,128.236962 219.324258,126.737086 218.143211,125.557209 Z" id="2019" fill="#231F20"></path>
                            </g>
                        </g>
                    </g>
                </g>
            </g>
        </g>
    </g>
</svg>