<?xml version="1.0" encoding="UTF-8"?>
<svg width="2560px" height="4084px" viewBox="0 0 2560 4084" version="1.1" xmlns="http://www.w3.org/2000/svg" xmlns:xlink="http://www.w3.org/1999/xlink">
    <!-- Generator: Sketch 49 (51002) - http://www.bohemiancoding.com/sketch -->
    <title>texture</title>
    <desc>Created with Sketch.</desc>
    <defs></defs>
    <g id="Page-1" stroke="none" stroke-width="1" fill="none" fill-rule="evenodd" opacity="0.100000001">
        <g id="bZx-website_2560" transform="translate(0.000000, -17143.000000)" fill="#BED1F4" fill-rule="nonzero">
            <g id="bg" transform="translate(-52.806509, 285.802485)">
                <g id="texture" transform="translate(1.764185, 16857.309318)">
                    <path d="M0,540.647335 C0,403.896702 142.962766,268.085694 388.129349,165.524148 C638.253944,60.8884974 971.981219,0 1323.15608,0 C1674.33093,0 2008.05821,60.8884974 2258.1828,165.524148 C2503.34939,268.085694 2646.31215,403.896702 2642.65955,540.647335 C2642.65955,405.781055 2500.72559,270.947393 2256.77316,168.893769 C2007.1169,64.4540374 1673.86674,3.6525893 1323.15608,3.6525893 C972.445412,3.6525893 639.195251,64.4540374 389.538988,168.893769 C145.586559,270.947393 3.65260477,405.781055 0,540.647335 Z" id="Fill-1818"></path>
                    <path d="M3.65260477,1070.27278 C3.65260477,933.52215 146.615371,797.711142 391.781954,695.149596 C641.906549,590.513945 975.633823,529.625448 1326.80868,529.625448 C1677.98354,529.625448 2011.71081,590.513945 2261.83541,695.149596 C2507.00199,797.711142 2649.96476,933.52215 2646.31215,1070.27278 C2646.31215,935.406503 2504.3782,800.572841 2260.42577,698.519217 C2010.76951,594.079485 1677.51935,533.278037 1326.80868,533.278037 C976.098016,533.278037 642.847855,594.079485 393.191593,698.519217 C149.239164,800.572841 7.30520953,935.406503 3.65260477,1070.27278 Z" id="Fill-1818"></path>
                    <path d="M3.65260477,1598.07194 C3.65260477,1461.3213 146.615371,1325.5103 391.781954,1222.94875 C641.906549,1118.3131 975.633823,1057.4246 1326.80868,1057.4246 C1677.98354,1057.4246 2011.71081,1118.3131 2261.83541,1222.94875 C2507.00199,1325.5103 2649.96476,1461.3213 2646.31215,1598.07194 C2646.31215,1463.20566 2504.3782,1328.37199 2260.42577,1226.31837 C2010.76951,1121.87864 1677.51935,1061.07719 1326.80868,1061.07719 C976.098016,1061.07719 642.847855,1121.87864 393.191593,1226.31837 C149.239164,1328.37199 7.30520953,1463.20566 3.65260477,1598.07194 Z" id="Fill-1818"></path>
                    <path d="M3.65260477,2127.69738 C3.65260477,1990.94675 146.615371,1855.13574 391.781954,1752.5742 C641.906549,1647.93855 975.633823,1587.05005 1326.80868,1587.05005 C1677.98354,1587.05005 2011.71081,1647.93855 2261.83541,1752.5742 C2507.00199,1855.13574 2649.96476,1990.94675 2646.31215,2127.69738 C2646.31215,1992.8311 2504.3782,1857.99744 2260.42577,1755.94382 C2010.76951,1651.50409 1677.51935,1590.70264 1326.80868,1590.70264 C976.098016,1590.70264 642.847855,1651.50409 393.191593,1755.94382 C149.239164,1857.99744 7.30520953,1992.8311 3.65260477,2127.69738 Z" id="Fill-1818"></path>
                    <path d="M7.30520953,2655.49654 C7.30520953,2518.7459 150.267976,2382.9349 395.434559,2280.37335 C645.559153,2175.7377 979.286428,2114.8492 1330.46129,2114.8492 C1681.63614,2114.8492 2015.36342,2175.7377 2265.48801,2280.37335 C2510.6546,2382.9349 2653.61736,2518.7459 2649.96476,2655.49654 C2649.96476,2520.63026 2508.0308,2385.7966 2264.07837,2283.74297 C2014.42211,2179.30324 1681.17195,2118.50179 1330.46129,2118.50179 C979.750621,2118.50179 646.50046,2179.30324 396.844198,2283.74297 C152.891768,2385.7966 10.9578143,2520.63026 7.30520953,2655.49654 Z" id="Fill-1818"></path>
                    <path d="M7.30520953,3185.12199 C7.30520953,3048.37135 150.267976,2912.56034 395.434559,2809.9988 C645.559153,2705.36315 979.286428,2644.47465 1330.46129,2644.47465 C1681.63614,2644.47465 2015.36342,2705.36315 2265.48801,2809.9988 C2510.6546,2912.56034 2653.61736,3048.37135 2649.96476,3185.12199 C2649.96476,3050.25571 2508.0308,2915.42204 2264.07837,2813.36842 C2014.42211,2708.92869 1681.17195,2648.12724 1330.46129,2648.12724 C979.750621,2648.12724 646.50046,2708.92869 396.844198,2813.36842 C152.891768,2915.42204 10.9578143,3050.25571 7.30520953,3185.12199 Z" id="Fill-1818"></path>
                    <path d="M9.65999936,3831.08462 C9.65999936,3694.33398 152.622765,3558.52298 397.789349,3455.96143 C647.913943,3351.32578 981.641218,3290.43728 1332.81608,3290.43728 C1683.99093,3290.43728 2017.71821,3351.32578 2267.8428,3455.96143 C2513.00939,3558.52298 2655.97215,3694.33398 2652.31955,3831.08462 C2652.31955,3696.21834 2510.38559,3561.38468 2266.43316,3459.33105 C2016.7769,3354.89132 1683.52674,3294.08987 1332.81608,3294.08987 C982.105411,3294.08987 648.85525,3354.89132 399.198988,3459.33105 C155.246558,3561.38468 13.3126041,3696.21834 9.65999936,3831.08462 Z" id="Fill-1818"></path>
                    <path d="M9.13151191,4207.84699 C9.13151191,4071.09636 152.094278,3935.28535 397.260861,3832.7238 C647.385456,3728.08815 981.11273,3667.19965 1332.28759,3667.19965 C1683.46245,3667.19965 2017.18972,3728.08815 2267.31432,3832.7238 C2512.4809,3935.28535 2655.44366,4071.09636 2651.79106,4207.84699 C2651.79106,4072.98071 2509.85711,3938.14705 2265.90468,3836.09342 C2016.24841,3731.65369 1682.99825,3670.85224 1332.28759,3670.85224 C981.576924,3670.85224 648.326763,3731.65369 398.6705,3836.09342 C154.718071,3938.14705 12.7841167,4072.98071 9.13151191,4207.84699 Z" id="Fill-1818"></path>
                </g>
            </g>
        </g>
    </g>
</svg>