<svg id="hodl-tablet-visuals" viewBox="0 0 885 280" version="1.1" xmlns="http://www.w3.org/2000/svg" xmlns:xlink="http://www.w3.org/1999/xlink">
    <defs>
        <path d="M44.702496,89.3969696 C69.3896735,89.3969696 89.40404,69.3851377 89.40404,44.6980089 C89.40404,20.0118319 69.3896735,0 44.702496,0 C20.0134146,0 0,20.0118319 0,44.6980089 C0,69.3851377 20.0134146,89.3969696 44.702496,89.3969696 Z" id="hodl-tablet-path-1"></path>
        <path d="M47.7227477,0.100418962 C24.44228,1.65346101 6.04072398,21.0267957 6.04072398,44.6980089 C6.04072398,68.3701347 24.44228,87.743507 47.7227477,89.2965506 C46.7246069,89.3631413 45.7175009,89.3969696 44.702496,89.3969696 C20.0134146,89.3969696 0,69.3851377 0,44.6980089 C0,20.0118319 20.0134146,0 44.702496,0 C45.7175009,0 46.7246069,0.0338283102 47.7227477,0.100418962 Z" id="hodl-tablet-path-2"></path>
        <path d="M36.9110502,211.979029 C55.6993868,211.979029 86.3596525,208.357387 110.162527,187.983867 C131.795101,169.468283 142.762738,142.038986 142.762738,106.457425 C142.762738,81.7131876 149.277449,63.6335326 162.126014,52.7191128 C183.303586,34.728928 216.496822,39.5641293 216.827126,39.6193343 C227.195074,41.3173656 236.990939,34.2863358 238.69196,23.9106412 C240.391078,13.5358984 233.356636,3.74747132 222.981073,2.0475364 C220.926902,1.71154702 172.267413,-5.85249712 137.474056,23.7031463 C115.718689,42.1835139 104.687276,70.0258971 104.687276,106.457425 C104.687276,130.409756 98.1992173,148.108686 85.4020546,159.060227 C62.7918935,178.413405 26.1072183,173.328415 25.7435172,173.271721 C12.0104976,171.130977 1.9942975,178.757961 0.372282828,189.144125 C-1.24877996,199.531242 5.2390169,208.792464 18.6622325,210.888254 C19.4113877,211.005221 27.1703952,211.979029 36.9110502,211.979029 Z" id="hodl-tablet-path-3"></path>
        <path d="M34.1339956,15.4912995 C34.1339956,23.5874061 27.5707379,30.149193 19.4749428,30.149193 L16.3222374,30.149193 L16.3222374,0.834357756 C16.7803227,0.834357756 17.8312244,0.834357756 19.4749428,0.834357756 C27.5707379,0.834357756 34.1339956,7.39614463 34.1339956,15.4912995 Z" id="hodl-tablet-path-4"></path>
        <path d="M15.0477081,30.149193 C6.95191301,30.149193 0.388655277,23.5874061 0.388655277,15.4912995 C0.388655277,7.39614463 6.95191301,0.834357756 15.0477081,0.834357756 C23.1435032,0.834357756 29.7067609,7.39614463 29.7067609,15.4912995 C29.7067609,23.5874061 23.1435032,30.149193 15.0477081,30.149193 Z" id="hodl-tablet-path-5"></path>
        <path d="M109.413661,218.824991 C169.837903,218.824991 218.824991,169.840233 218.824991,109.411331 C218.824991,48.9847582 169.837903,0 109.413661,0 C48.9847582,0 0,48.9847582 0,109.411331 C0,169.840233 48.9847582,218.824991 109.413661,218.824991 Z" id="hodl-tablet-path-6"></path>
        <path d="M115.380455,0.245804201 C59.0946984,4.04732243 14.6048056,51.4691747 14.6048056,109.411331 C14.6048056,167.355721 59.0946984,214.777665 115.380455,218.579187 C112.967221,218.742187 110.532316,218.824991 108.078314,218.824991 C48.3869202,218.824991 0,169.840233 0,109.411331 C0,48.9847582 48.3869202,0 108.078314,0 C110.532316,0 112.967221,0.0828045929 115.38045,0.245804512 Z" id="hodl-tablet-path-7"></path>
    </defs>
    <g stroke="none" stroke-width="1" fill="none" fill-rule="evenodd" transform="translate(3.000000, 3.000000)">
        <g id="pipe" transform="translate(613.000000, 0.000000)">
            <g id="Group-47" transform="translate(176.389140, 0.000000)">
                <g id="Fill-4451">
                    <use fill="#231F20" fill-rule="evenodd" xlink:href="#hodl-tablet-path-1"></use>
                    <path stroke="#231F20" stroke-width="2.41499984" d="M44.702496,90.6044695 C19.3465522,90.6044695 -1.20749992,70.0520429 -1.20749992,44.6980089 C-1.20749992,19.3447756 19.3467034,-1.20749992 44.702496,-1.20749992 C70.0568607,-1.20749992 90.61154,19.3452515 90.61154,44.6980089 C90.61154,70.051567 70.0570119,90.6044695 44.702496,90.6044695 Z"></path>
                </g>
                <g id="Combined-Shape">
                    <use fill="#0DA6A3" fill-rule="evenodd" xlink:href="#hodl-tablet-path-2"></use>
                    <path stroke="#231F20" stroke-width="2.41499984" d="M47.8031214,1.30524099 C25.0462764,2.82335213 7.2482239,21.77292 7.2482239,44.6980089 C7.2482239,67.6238818 25.0461492,86.5736074 47.8031215,88.0917285 L47.803127,90.5013722 C46.7743774,90.570005 45.740458,90.6044695 44.702496,90.6044695 C19.3465522,90.6044695 -1.20749992,70.0520429 -1.20749992,44.6980089 C-1.20749992,19.3447756 19.3467034,-1.20749992 44.702496,-1.20749992 C45.7404577,-1.20749992 46.7743771,-1.17303542 47.803127,-1.10440269 L47.8031214,1.30524099 Z"></path>
                </g>
            </g>
            <g id="Group-4454" transform="translate(0.910663, 24.885352)">
                <g id="Stroke-4453">
                    <use fill-opacity="0.5" fill="#BBD0EF" fill-rule="evenodd" xlink:href="#hodl-tablet-path-3"></use>
                    <path stroke="#000000" stroke-width="2.41499984" d="M36.9110502,213.186529 C32.5760397,213.186529 28.3139814,212.99833 24.3192743,212.681217 C21.7071641,212.47386 19.3125006,212.21191 18.4759602,212.0813 C4.93775981,209.967557 -2.62308187,200.506384 -0.820756049,188.957808 C0.993017358,177.343764 12.1551406,169.931442 25.9294998,172.078629 C26.8116181,172.216137 29.2301526,172.454555 32.0962518,172.590489 C36.8259202,172.814811 41.9000041,172.73671 47.1164879,172.242558 C61.913313,170.840868 74.9352514,166.429857 84.6169457,158.142806 C97.1147318,147.447466 103.479776,130.085546 103.479776,106.457425 C103.479776,69.6932546 114.645672,41.5106503 136.692308,22.7828605 C152.166892,9.63778606 171.36642,2.67200605 192.378629,0.465084735 C199.82699,-0.317219846 207.016727,-0.438132919 213.712654,-0.0724860054 C216.123906,0.059186069 218.323138,0.247127405 220.280581,0.469563706 C221.556619,0.61456783 222.535831,0.751165032 223.176307,0.85592416 C234.210084,2.66370101 241.690458,13.0731041 239.883553,24.1059943 C238.075077,35.1371305 227.660537,42.6171848 216.628073,40.8103146 C215.879322,40.685173 213.653883,40.4528735 211.056628,40.3189123 C206.769867,40.0978097 202.159847,40.1575278 197.407336,40.6043995 C183.927616,41.8718778 171.96416,45.9460585 162.907764,53.6393969 C150.363429,64.2953843 143.970238,82.0381077 143.970238,106.457425 C143.970238,142.372636 132.866817,170.140392 110.947715,188.901221 C99.8582696,198.392975 86.6653936,204.881953 71.9664894,208.788507 C60.4121227,211.859331 48.5326133,213.186529 36.9110502,213.186529 Z"></path>
                </g>
            </g>
            <g id="Group-112" transform="translate(1.208145, 24.162437)">
                <ellipse id="Oval-Copy-2" stroke="#0DA6A3" stroke-width="1.20749992" opacity="0.300000012" stroke-linecap="round" cx="123.230769" cy="114.771574" rx="19.3303167" ry="19.3299492"></ellipse>
                <ellipse id="Oval-Copy-2" stroke="#231F20" stroke-width="1.20749992" opacity="0.300000012" stroke-linecap="round" cx="202.364253" cy="21.142132" rx="19.9343891" ry="19.9340102"></ellipse>
                <path d="M231.963801,30.8071066 C231.963801,19.7978568 223.038871,10.8730964 212.029412,10.8730964 C201.019953,10.8730964 192.095023,19.7978568 192.095023,30.8071066" id="Oval-Copy-2" stroke="#000000" stroke-width="1.20749992" stroke-linecap="round" transform="translate(212.029412, 20.840102) rotate(-270.000000) translate(-212.029412, -20.840102) "></path>
                <path d="M142.561086,114.771574 C142.561086,104.095937 133.906608,95.4416244 123.230769,95.4416244 C112.55493,95.4416244 103.900452,104.095937 103.900452,114.771574" id="Oval-Copy-2" stroke="#000000" stroke-width="1.20749992" stroke-linecap="round"></path>
                <path d="M-1.20749992,192.694953 C-1.20749992,181.686574 7.71751492,172.762043 18.7257663,172.762043 C29.7348164,172.762043 38.6599886,181.686416 38.6599886,192.694953 C38.6599886,203.703654 29.7346531,212.62882 18.7257663,212.62882 C7.71767823,212.62882 -1.20749992,203.703496 -1.20749992,192.694953 Z" id="Stroke-4459" stroke="#231F20" stroke-width="2.41499984"></path>
                <path d="M1.81253963,192.694962 C1.81253963,183.354085 9.38494977,175.782037 18.7262443,175.782037 C28.0681592,175.782037 35.6399491,183.353766 35.6399491,192.694962 C35.6399491,202.036326 28.0679908,209.608826 18.7262443,209.608826 C9.38511817,209.608826 1.81253963,202.036007 1.81253963,192.694962 Z" id="Fill-4460" stroke="#231F20" stroke-width="1.20749992"></path>
                <g id="Group-4476" transform="translate(59.488259, 170.145321)">
                    <path d="M32.9258508,15.4912995 C32.9258508,23.5874061 26.3625931,30.149193 18.266798,30.149193 C10.1710029,30.149193 3.6077452,23.5874061 3.6077452,15.4912995 C3.6077452,7.39614463 10.1710029,0.834357756 18.266798,0.834357756 C26.3625931,0.834357756 32.9258508,7.39614463 32.9258508,15.4912995" id="Fill-4461" fill="#29CC86"></path>
                    <g id="Stroke-4462">
                        <use fill="#4FE2DF" fill-rule="evenodd" xlink:href="#hodl-tablet-path-4"></use>
                        <path stroke="#231F20" stroke-width="2.41499984" d="M35.3414955,15.4912995 C35.3414955,24.2539947 28.2379169,31.3566929 19.4749428,31.3566929 L15.1147375,31.3566929 L15.1147375,-0.373142164 L16.3222374,-0.373142164 C17.3057736,-0.373142164 17.3057736,-0.373142164 19.4749428,-0.373142164 C28.2377576,-0.373142164 35.3414955,6.72939675 35.3414955,15.4912995 Z"></path>
                    </g>
                    <g id="Fill-4463">
                        <use fill="#4FE2DF" fill-rule="evenodd" xlink:href="#hodl-tablet-path-5"></use>
                        <path stroke="#231F20" stroke-width="2.41499984" d="M15.0477081,31.3566929 C6.28473395,31.3566929 -0.818844643,24.2539947 -0.818844643,15.4912995 C-0.818844643,6.72939675 6.28489327,-0.373142164 15.0477081,-0.373142164 C23.8105229,-0.373142164 30.9142608,6.72939675 30.9142608,15.4912995 C30.9142608,24.2539947 23.8106822,31.3566929 15.0477081,31.3566929 Z"></path>
                    </g>
                    <path d="M24.0754001,15.4912995 C24.0754001,20.4768869 20.0336898,24.5182775 15.0477081,24.5182775 C10.0607745,24.5182775 6.0190642,20.4768869 6.0190642,15.4912995 C6.0190642,10.505712 10.0607745,6.4643214 15.0477081,6.4643214 C20.0336898,6.4643214 24.0754001,10.505712 24.0754001,15.4912995" id="Fill-4465" fill="#4FE2DF"></path>
                    <path d="M24.0754001,15.4912995 C24.0754001,20.4768869 20.0336898,24.5182775 15.0477081,24.5182775 C10.0607745,24.5182775 6.0190642,20.4768869 6.0190642,15.4912995 C6.0190642,10.505712 10.0607745,6.4643214 15.0477081,6.4643214 C20.0336898,6.4643214 24.0754001,10.505712 24.0754001,15.4912995 Z" id="Stroke-4466" stroke="#231F20" stroke-width="2.21366147"></path>
                    <g id="Group-4469" transform="translate(24.749050, 3.550935)">
                        <path d="M0.715152362,1.62853686 L3.93538455,1.62853686" id="Fill-4467" fill="#29CC86"></path>
                        <path d="M2.29606223,1.62853686 L6.67558712,1.62853686" id="Stroke-4468" stroke="#231F20" stroke-width="2.21366147"></path>
                    </g>
                    <g id="Group-4472" transform="translate(29.508483, 14.020858)">
                        <path d="M0.198277968,1.47044101 L3.41755827,1.47044101" id="Fill-4470" fill="#29CC86"></path>
                        <path d="M2.21819058,1.47044101 L5.84262497,1.47044101" id="Stroke-4471" stroke="#231F20" stroke-width="2.21366147"></path>
                    </g>
                    <g id="Group-4475" transform="translate(25.700937, 23.795282)">
                        <path d="M0.891727316,0.723376563 L4.00534821,0.723376563" id="Fill-4473" fill="#29CC86"></path>
                        <path d="M3.30801691,0.723376563 L6.4216378,0.723376563" id="Stroke-4474" stroke="#231F20" stroke-width="2.21366147"></path>
                    </g>
                </g>
            </g>
            <g id="Group-10" transform="translate(39.868778, 30.203046)" opacity="0.5" stroke="#FFFFFF" stroke-linecap="round" stroke-width="4.82999968">
                <path d="M70.7540288,94.2335025 C70.0723982,102.587929 70.0723982,108.730964 70.0723982,108.730964" id="Stroke-4477"></path>
                <path d="M135.091128,-13.0660134 C134.409498,-4.71158697 135.523028,11.9442394 138.821603,22.0033596" id="Stroke-4477-Copy" transform="translate(136.860603, 4.468673) rotate(82.000000) translate(-136.860603, -4.468673) "></path>
                <path d="M111.15876,14.1765546 C75.8983933,39.9329097 73.6586433,74.072964 72.4886878,82.1522843" id="Stroke-4478"></path>
                <path d="M27.504167,143.55619 C24.5074272,149.966014 16.5919598,169.26325 22.1020021,190.235362" id="Stroke-4478-Copy" transform="translate(23.852012, 166.895776) rotate(-113.000000) translate(-23.852012, -166.895776) "></path>
            </g>
            <path d="M36.2443439,230.870882 C55.0493379,230.870882 84.2732273,229.154812 108.097205,208.804412 C129.748958,190.309838 139.773588,162.911668 139.773588,127.370484 C139.773588,102.654326 146.294076,84.5951878 159.154031,73.6931536 C180.350379,55.7233838 213.573043,57.7009046 213.903641,57.7560471 C223.543368,58.1724673 228.135528,57.3472327 232.277048,53.1573604" id="Stroke-4513" stroke="#0DA6A3" stroke-width="5.18017505" opacity="0.5" stroke-linecap="round"></path>
        </g>
        <g id="coin" transform="translate(459.000000, 238.000000)">
            <path d="M42,18.5 C42,28.7170455 33.6722727,37 23.4,37 C13.1277273,37 4.8,28.7170455 4.8,18.5 C4.8,8.28295455 13.1277273,0 23.4,0 C33.6722727,0 42,8.28295455 42,18.5" id="Fill-1422" fill="#4FE2DF"></path>
            <path d="M42,18.5 C42,28.7170455 33.6722727,37 23.4,37 C13.1277273,37 4.8,28.7170455 4.8,18.5 C4.8,8.28295455 13.1277273,0 23.4,0 C33.6722727,0 42,8.28295455 42,18.5 Z" id="Stroke-1424" stroke="#231F20" stroke-width="2.41499984"></path>
            <path d="M37.2,18.5 C37.2,28.7170455 28.8722727,37 18.6,37 C8.32772727,37 0,28.7170455 0,18.5 C0,8.28295455 8.32772727,0 18.6,0 C28.8722727,0 37.2,8.28295455 37.2,18.5" id="Fill-1426" fill="#4FE2DF"></path>
            <path d="M37.2,18.5 C37.2,28.7170455 28.8722727,37 18.6,37 C8.32772727,37 0,28.7170455 0,18.5 C0,8.28295455 8.32772727,0 18.6,0 C28.8722727,0 37.2,8.28295455 37.2,18.5 Z" id="Stroke-1428" stroke="#231F20" stroke-width="2.41499984"></path>
            <path d="M30,18.5 C30,24.7623536 24.8964732,29.8387097 18.600601,29.8387097 C12.3035268,29.8387097 7.2,24.7623536 7.2,18.5 C7.2,12.2376464 12.3035268,7.16129032 18.600601,7.16129032 C24.8964732,7.16129032 30,12.2376464 30,18.5" id="Fill-1430" fill="#4FE2DF"></path>
            <path d="M30,18.5 C30,24.7623536 24.8964732,29.8387097 18.600601,29.8387097 C12.3035268,29.8387097 7.2,24.7623536 7.2,18.5 C7.2,12.2376464 12.3035268,7.16129032 18.600601,7.16129032 C24.8964732,7.16129032 30,12.2376464 30,18.5 Z" id="Stroke-1432" stroke="#231F20" stroke-width="2.41499984"></path>
            <g id="Group-1437" transform="translate(32.400000, 4.774194)">
                <path d="M0.099147102,0.257297484 L4.63791092,0.257297484" id="Fill-1434" fill="#407BF7"></path>
                <path d="M0.099147102,0.257297484 L4.63791092,0.257297484" id="Stroke-1436" stroke="#231F20" stroke-width="2.41499984"></path>
            </g>
            <g id="Group-1441" transform="translate(37.200000, 17.903226)">
                <path d="M0.152544328,0.11930229 L4.68996651,0.11930229" id="Fill-1438" fill="#407BF7"></path>
                <path d="M0.152544328,0.11930229 L4.68996651,0.11930229" id="Stroke-1440" stroke="#231F20" stroke-width="2.41499984"></path>
            </g>
            <g id="Group-1445" transform="translate(33.600000, 29.838710)">
                <path d="M0.348826069,0.0378012121 L4.73732635,0.0378012121" id="Fill-1442" fill="#407BF7"></path>
                <path d="M0.348826069,0.0378012121 L4.73732635,0.0378012121" id="Stroke-1444" stroke="#231F20" stroke-width="2.41499984"></path>
            </g>
        </g>
        <g id="eye-wrap" transform="translate(0.000000, 9.000000)">
            <g id="Group-47" transform="translate(110.324991, 109.500000) scale(-1, 1) translate(-110.324991, -109.500000) translate(0.824991, 0.000000)">
                <g id="Fill-4451">
                    <use fill="#231F20" fill-rule="evenodd" xlink:href="#hodl-tablet-path-6"></use>
                    <path stroke="#231F20" stroke-width="2.41499984" d="M109.413661,220.032491 C48.3178744,220.032491 -1.20749992,170.507117 -1.20749992,109.411331 C-1.20749992,48.3175101 48.3182386,-1.20749992 109.413661,-1.20749992 C170.505588,-1.20749992 220.032491,48.318675 220.032491,109.411331 C220.032491,170.505952 170.505952,220.032491 109.413661,220.032491 Z"></path>
                </g>
                <g id="Combined-Shape">
                    <use fill="#0DA6A3" fill-rule="evenodd" xlink:href="#hodl-tablet-path-7"></use>
                    <path stroke="#231F20" stroke-width="2.41499984" d="M115.461823,1.45055944 C59.5469078,5.22703124 15.8123055,52.3702605 15.8123055,109.411331 C15.8123055,166.454314 59.5465947,213.597935 115.461823,217.374432 L115.461829,219.783942 C113.012184,219.949401 110.550127,220.032491 108.078314,220.032491 C47.7166948,220.032491 -1.20749992,170.50382 -1.20749992,109.411331 C-1.20749992,48.3208068 47.7170547,-1.20749992 108.078314,-1.20749992 C110.550128,-1.20749992 113.012186,-1.12440951 115.461829,-0.958950659 L115.461823,1.45055944 Z"></path>
                </g>
            </g>
            <g id="eye" transform="translate(49.743634, 78.583406)">
                <path d="M0.361723918,31.37359 C0.361723918,31.37359 18.4648018,0.927766259 59.100334,0.927766259 C96.4475322,0.927766259 119.672762,31.37359 119.672762,31.37359 C119.672762,31.37359 103.169965,60.6314217 60.0172431,60.6314217 C22.08385,60.6314217 0.361723918,31.37359 0.361723918,31.37359" id="Fill-4499" fill="#FFFFFF"></path>
                <g id="iris" transform="translate(66.000000, 26.000000)">
                    <path d="M30.4763303,15.7693146 C30.4763303,24.0084629 23.7962162,30.689743 15.5550055,30.689743 C7.31692957,30.689743 0.636815466,24.0084629 0.636815466,15.7693146 C0.636815466,7.53016623 7.31692957,0.850453427 15.5550055,0.850453427 C23.7962162,0.850453427 30.4763303,7.53016623 30.4763303,15.7693146 Z" id="Stroke-4501" stroke="#231F20" stroke-width="3.19271456"></path>
                    <path d="M25.7153334,15.3768295 C25.7153334,21.2039464 20.9912922,25.9261366 15.1653925,25.9261366 C9.33949294,25.9261366 4.61545167,21.2039464 4.61545167,15.3768295 C4.61545167,9.55127984 9.33949294,4.82908963 15.1653925,4.82908963 C20.9912922,4.82908963 25.7153334,9.55127984 25.7153334,15.3768295" id="Fill-4502" fill="#231F20"></path>
                </g>
            </g>
        </g>
    </g>
</svg>