<svg id="hodl-mobile-box" viewBox="0 0 277 180" version="1.1" xmlns="http://www.w3.org/2000/svg" xmlns:xlink="http://www.w3.org/1999/xlink">
    <defs>
        <polygon id="hodl-mobile-box-path-1" points="0 114.899744 11.9438855 114.899744 11.9438855 0 0 0"></polygon>
        <polygon id="hodl-mobile-box-path-3" points="197.514523 107.478924 162.298202 107.478924 1.0461248 107.478924 1.0461248 0.323661252 197.514523 0.323661252"></polygon>
        <polygon id="hodl-mobile-box-path-4" points="0 107.333204 79.0144579 107.333204 79.0144579 0 0 0"></polygon>
        <path d="M1.29460581,2.58929002 C0.579596823,2.58929002 0,2.00967564 0,1.29464501 C0,0.579614372 0.579596823,0 1.29460581,0 C2.0096148,0 2.58921162,0.579614372 2.58921162,1.29464501 C2.58921162,2.00967564 2.0096148,2.58929002 1.29460581,2.58929002 Z" id="hodl-mobile-box-path-5"></path>
        <path d="M63.4356846,2.58929002 C62.7206757,2.58929002 62.1410788,2.00967564 62.1410788,1.29464501 C62.1410788,0.579614372 62.7206757,0 63.4356846,0 C64.1506936,0 64.7302905,0.579614372 64.7302905,1.29464501 C64.7302905,2.00967564 64.1506936,2.58929002 63.4356846,2.58929002 Z" id="hodl-mobile-box-path-6"></path>
        <path d="M1.29460581,92.2434568 C0.579596823,92.2434568 0,91.6638425 0,90.9488118 C0,90.2337812 0.579596823,89.6541668 1.29460581,89.6541668 C2.0096148,89.6541668 2.58921162,90.2337812 2.58921162,90.9488118 C2.58921162,91.6638425 2.0096148,92.2434568 1.29460581,92.2434568 Z" id="hodl-mobile-box-path-7"></path>
        <path d="M63.4356846,92.2434568 C62.7206757,92.2434568 62.1410788,91.6638425 62.1410788,90.9488118 C62.1410788,90.2337812 62.7206757,89.6541668 63.4356846,89.6541668 C64.1506936,89.6541668 64.7302905,90.2337812 64.7302905,90.9488118 C64.7302905,91.6638425 64.1506936,92.2434568 63.4356846,92.2434568 Z" id="hodl-mobile-box-path-8"></path>
        <polygon id="hodl-mobile-box-path-9" points="0 0.0158391074 42.3983402 0 42.3983402 75.736733 0 75.736733"></polygon>
        <polygon id="hodl-mobile-box-path-10" points="42.3983402 0.0158391074 47.5767635 0 47.5767635 75.736733 42.3983402 75.736733"></polygon>
    </defs>
    <g stroke="none" stroke-width="1" fill="none" fill-rule="evenodd">
        <g id="Group-97" transform="translate(133.000000, 78.000000)">
            <mask id="mask-2" fill="white">
                <use xlink:href="#hodl-mobile-box-path-1"></use>
            </mask>
            <g id="Fill-4395">
                <use fill="#BED1F4" fill-rule="evenodd" xlink:href="#hodl-mobile-box-path-1"></use>
                <path stroke="#231F20" stroke-width="0.64633538" d="M-0.32316769,115.222912 L-0.32316769,-0.32316769 L12.2670532,-0.32316769 L12.2670532,115.222912 L-0.32316769,115.222912 Z"></path>
            </g>
            <path d="M-1.73916003e-13,82.8572805 C-2.47505823e-13,84.3946715 2.75195002,86.0129777 5.97194274,86.0129777 C9.19193546,86.0129777 11.9438855,84.3946715 11.9438855,82.8572805 L11.9438855,0 L-1.73916003e-13,0 L-1.73916003e-13,82.8572805 Z" id="Fill-4395" fill="#336ADF" opacity="0.5" mask="url(#mask-2)"></path>
            <path d="M13.2374708,51.6239697 C10.890396,55.4566219 8.63020891,58.4133636 6.45690969,60.4941948 C4.28361046,62.575026 2.02342341,63.9463286 -0.323651452,64.6081027 L-0.323651452,76.6485451 C1.93116247,76.1138533 4.19134952,74.8230199 6.45690969,72.7760449 C8.72246985,70.7290698 10.9826569,67.8491407 13.2374708,64.1362574 L13.2374708,77.0726081 C11.1552289,80.4122372 8.89504182,83.1119064 6.45690969,85.1716158 C4.01877755,87.2313251 1.75859051,88.6065011 -0.323651452,89.2971437 L-0.323651452,100.3329 C2.13618387,99.4746717 4.39637092,98.2874186 6.45690969,96.7711409 C8.51744846,95.2548631 10.7776355,92.7635307 13.2374708,89.2971437 L13.2374708,100.3329 C10.8855193,104.326761 8.62533227,107.157644 6.45690969,108.825549 C4.2884871,110.493455 2.02830005,111.5052 -0.323651452,111.860784 L-0.323651452,117.165373 L13.2374708,117.165373 L13.2374708,51.6239697 Z" id="Path-2" stroke="#231F20" stroke-width="0.64633538" stroke-linejoin="round" mask="url(#mask-2)"></path>
        </g>
        <g id="coins" transform="translate(190.231737, 25.236599) rotate(-8.000000) translate(-190.231737, -25.236599) translate(141.684019, 11.966487)">
            <g id="Group-74" transform="translate(43.369295, 12.299128)">
                <path d="M11.8135195,5.17455732 C11.8135195,8.02643468 9.45856871,10.3384505 6.55373099,10.3384505 C3.64889327,10.3384505 1.29394253,8.02643468 1.29394253,5.17455732 C1.29394253,2.32267996 3.64889327,0.0106641599 6.55373099,0.0106641599 C9.45856871,0.0106641599 11.8135195,2.32267996 11.8135195,5.17455732" id="Fill-1422" fill="#407BF7"></path>
                <path d="M11.8135195,5.17455732 C11.8135195,8.02643468 9.45856871,10.3384505 6.55373099,10.3384505 C3.64889327,10.3384505 1.29394253,8.02643468 1.29394253,5.17455732 C1.29394253,2.32267996 3.64889327,0.0106641599 6.55373099,0.0106641599 C9.45856871,0.0106641599 11.8135195,2.32267996 11.8135195,5.17455732 Z" id="Stroke-1424" stroke="#231F20" stroke-width="0.64633538"></path>
                <path d="M10.6584153,5.17455732 C10.6584153,8.02643468 8.30346452,10.3384505 5.3986268,10.3384505 C2.49378908,10.3384505 0.138838335,8.02643468 0.138838335,5.17455732 C0.138838335,2.32267996 2.49378908,0.0106641599 5.3986268,0.0106641599 C8.30346452,0.0106641599 10.6584153,2.32267996 10.6584153,5.17455732" id="Fill-1426" fill="#407BF7"></path>
                <path d="M10.6584153,5.17455732 C10.6584153,8.02643468 8.30346452,10.3384505 5.3986268,10.3384505 C2.49378908,10.3384505 0.138838335,8.02643468 0.138838335,5.17455732 C0.138838335,2.32267996 2.49378908,0.0106641599 5.3986268,0.0106641599 C8.30346452,0.0106641599 10.6584153,2.32267996 10.6584153,5.17455732 Z" id="Stroke-1428" stroke="#231F20" stroke-width="0.64633538"></path>
                <path d="M8.63804171,5.17455732 C8.63804171,6.93095163 7.18784289,8.35471075 5.39883172,8.35471075 C3.60947901,8.35471075 2.15928019,6.93095163 2.15928019,5.17455732 C2.15928019,3.41816301 3.60947901,1.9944039 5.39883172,1.9944039 C7.18784289,1.9944039 8.63804171,3.41816301 8.63804171,5.17455732" id="Fill-1430" fill="#407BF7"></path>
                <path d="M8.63804171,5.17455732 C8.63804171,6.93095163 7.18784289,8.35471075 5.39883172,8.35471075 C3.60947901,8.35471075 2.15928019,6.93095163 2.15928019,5.17455732 C2.15928019,3.41816301 3.60947901,1.9944039 5.39883172,1.9944039 C7.18784289,1.9944039 8.63804171,3.41816301 8.63804171,5.17455732 Z" id="Stroke-1432" stroke="#231F20" stroke-width="0.64633538"></path>
                <g id="Group-1437" transform="translate(9.110842, 1.437911)"></g>
                <g id="Group-1441" transform="translate(10.619582, 5.126406)"></g>
                <g id="Group-1445" transform="translate(9.452387, 8.339621)"></g>
            </g>
            <g id="Group-74" transform="translate(32.688797, 11.328144)">
                <path d="M11.8135195,5.17455732 C11.8135195,8.02643468 9.45856871,10.3384505 6.55373099,10.3384505 C3.64889327,10.3384505 1.29394253,8.02643468 1.29394253,5.17455732 C1.29394253,2.32267996 3.64889327,0.0106641599 6.55373099,0.0106641599 C9.45856871,0.0106641599 11.8135195,2.32267996 11.8135195,5.17455732" id="Fill-1422" fill="#407BF7"></path>
                <path d="M11.8135195,5.17455732 C11.8135195,8.02643468 9.45856871,10.3384505 6.55373099,10.3384505 C3.64889327,10.3384505 1.29394253,8.02643468 1.29394253,5.17455732 C1.29394253,2.32267996 3.64889327,0.0106641599 6.55373099,0.0106641599 C9.45856871,0.0106641599 11.8135195,2.32267996 11.8135195,5.17455732 Z" id="Stroke-1424" stroke="#231F20" stroke-width="0.64633538"></path>
                <path d="M10.6584153,5.17455732 C10.6584153,8.02643468 8.30346452,10.3384505 5.3986268,10.3384505 C2.49378908,10.3384505 0.138838335,8.02643468 0.138838335,5.17455732 C0.138838335,2.32267996 2.49378908,0.0106641599 5.3986268,0.0106641599 C8.30346452,0.0106641599 10.6584153,2.32267996 10.6584153,5.17455732" id="Fill-1426" fill="#407BF7"></path>
                <path d="M10.6584153,5.17455732 C10.6584153,8.02643468 8.30346452,10.3384505 5.3986268,10.3384505 C2.49378908,10.3384505 0.138838335,8.02643468 0.138838335,5.17455732 C0.138838335,2.32267996 2.49378908,0.0106641599 5.3986268,0.0106641599 C8.30346452,0.0106641599 10.6584153,2.32267996 10.6584153,5.17455732 Z" id="Stroke-1428" stroke="#231F20" stroke-width="0.64633538"></path>
                <path d="M8.63804171,5.17455732 C8.63804171,6.93095163 7.18784289,8.35471075 5.39883172,8.35471075 C3.60947901,8.35471075 2.15928019,6.93095163 2.15928019,5.17455732 C2.15928019,3.41816301 3.60947901,1.9944039 5.39883172,1.9944039 C7.18784289,1.9944039 8.63804171,3.41816301 8.63804171,5.17455732" id="Fill-1430" fill="#407BF7"></path>
                <path d="M8.63804171,5.17455732 C8.63804171,6.93095163 7.18784289,8.35471075 5.39883172,8.35471075 C3.60947901,8.35471075 2.15928019,6.93095163 2.15928019,5.17455732 C2.15928019,3.41816301 3.60947901,1.9944039 5.39883172,1.9944039 C7.18784289,1.9944039 8.63804171,3.41816301 8.63804171,5.17455732 Z" id="Stroke-1432" stroke="#231F20" stroke-width="0.64633538"></path>
                <g id="Group-1437" transform="translate(9.110842, 1.437911)"></g>
                <g id="Group-1441" transform="translate(10.619582, 5.126406)"></g>
                <g id="Group-1445" transform="translate(9.452387, 8.339621)"></g>
            </g>
            <g id="Group-74" transform="translate(38.838174, 14.888418)">
                <path d="M11.8135195,5.17455732 C11.8135195,8.02643468 9.45856871,10.3384505 6.55373099,10.3384505 C3.64889327,10.3384505 1.29394253,8.02643468 1.29394253,5.17455732 C1.29394253,2.32267996 3.64889327,0.0106641599 6.55373099,0.0106641599 C9.45856871,0.0106641599 11.8135195,2.32267996 11.8135195,5.17455732" id="Fill-1422" fill="#407BF7"></path>
                <path d="M11.8135195,5.17455732 C11.8135195,8.02643468 9.45856871,10.3384505 6.55373099,10.3384505 C3.64889327,10.3384505 1.29394253,8.02643468 1.29394253,5.17455732 C1.29394253,2.32267996 3.64889327,0.0106641599 6.55373099,0.0106641599 C9.45856871,0.0106641599 11.8135195,2.32267996 11.8135195,5.17455732 Z" id="Stroke-1424" stroke="#231F20" stroke-width="0.64633538"></path>
                <path d="M10.6584153,5.17455732 C10.6584153,8.02643468 8.30346452,10.3384505 5.3986268,10.3384505 C2.49378908,10.3384505 0.138838335,8.02643468 0.138838335,5.17455732 C0.138838335,2.32267996 2.49378908,0.0106641599 5.3986268,0.0106641599 C8.30346452,0.0106641599 10.6584153,2.32267996 10.6584153,5.17455732" id="Fill-1426" fill="#407BF7"></path>
                <path d="M10.6584153,5.17455732 C10.6584153,8.02643468 8.30346452,10.3384505 5.3986268,10.3384505 C2.49378908,10.3384505 0.138838335,8.02643468 0.138838335,5.17455732 C0.138838335,2.32267996 2.49378908,0.0106641599 5.3986268,0.0106641599 C8.30346452,0.0106641599 10.6584153,2.32267996 10.6584153,5.17455732 Z" id="Stroke-1428" stroke="#231F20" stroke-width="0.64633538"></path>
                <path d="M8.63804171,5.17455732 C8.63804171,6.93095163 7.18784289,8.35471075 5.39883172,8.35471075 C3.60947901,8.35471075 2.15928019,6.93095163 2.15928019,5.17455732 C2.15928019,3.41816301 3.60947901,1.9944039 5.39883172,1.9944039 C7.18784289,1.9944039 8.63804171,3.41816301 8.63804171,5.17455732" id="Fill-1430" fill="#407BF7"></path>
                <path d="M8.63804171,5.17455732 C8.63804171,6.93095163 7.18784289,8.35471075 5.39883172,8.35471075 C3.60947901,8.35471075 2.15928019,6.93095163 2.15928019,5.17455732 C2.15928019,3.41816301 3.60947901,1.9944039 5.39883172,1.9944039 C7.18784289,1.9944039 8.63804171,3.41816301 8.63804171,5.17455732 Z" id="Stroke-1432" stroke="#231F20" stroke-width="0.64633538"></path>
                <g id="Group-1437" transform="translate(9.110842, 1.437911)"></g>
                <g id="Group-1441" transform="translate(10.619582, 5.126406)"></g>
                <g id="Group-1445" transform="translate(9.452387, 8.339621)"></g>
            </g>
            <g id="Group-74" transform="translate(48.871369, 15.535740)">
                <path d="M11.8135195,5.17455732 C11.8135195,8.02643468 9.45856871,10.3384505 6.55373099,10.3384505 C3.64889327,10.3384505 1.29394253,8.02643468 1.29394253,5.17455732 C1.29394253,2.32267996 3.64889327,0.0106641599 6.55373099,0.0106641599 C9.45856871,0.0106641599 11.8135195,2.32267996 11.8135195,5.17455732" id="Fill-1422" fill="#407BF7"></path>
                <path d="M11.8135195,5.17455732 C11.8135195,8.02643468 9.45856871,10.3384505 6.55373099,10.3384505 C3.64889327,10.3384505 1.29394253,8.02643468 1.29394253,5.17455732 C1.29394253,2.32267996 3.64889327,0.0106641599 6.55373099,0.0106641599 C9.45856871,0.0106641599 11.8135195,2.32267996 11.8135195,5.17455732 Z" id="Stroke-1424" stroke="#231F20" stroke-width="0.64633538"></path>
                <path d="M10.6584153,5.17455732 C10.6584153,8.02643468 8.30346452,10.3384505 5.3986268,10.3384505 C2.49378908,10.3384505 0.138838335,8.02643468 0.138838335,5.17455732 C0.138838335,2.32267996 2.49378908,0.0106641599 5.3986268,0.0106641599 C8.30346452,0.0106641599 10.6584153,2.32267996 10.6584153,5.17455732" id="Fill-1426" fill="#407BF7"></path>
                <path d="M10.6584153,5.17455732 C10.6584153,8.02643468 8.30346452,10.3384505 5.3986268,10.3384505 C2.49378908,10.3384505 0.138838335,8.02643468 0.138838335,5.17455732 C0.138838335,2.32267996 2.49378908,0.0106641599 5.3986268,0.0106641599 C8.30346452,0.0106641599 10.6584153,2.32267996 10.6584153,5.17455732 Z" id="Stroke-1428" stroke="#231F20" stroke-width="0.64633538"></path>
                <path d="M8.63804171,5.17455732 C8.63804171,6.93095163 7.18784289,8.35471075 5.39883172,8.35471075 C3.60947901,8.35471075 2.15928019,6.93095163 2.15928019,5.17455732 C2.15928019,3.41816301 3.60947901,1.9944039 5.39883172,1.9944039 C7.18784289,1.9944039 8.63804171,3.41816301 8.63804171,5.17455732" id="Fill-1430" fill="#407BF7"></path>
                <path d="M8.63804171,5.17455732 C8.63804171,6.93095163 7.18784289,8.35471075 5.39883172,8.35471075 C3.60947901,8.35471075 2.15928019,6.93095163 2.15928019,5.17455732 C2.15928019,3.41816301 3.60947901,1.9944039 5.39883172,1.9944039 C7.18784289,1.9944039 8.63804171,3.41816301 8.63804171,5.17455732 Z" id="Stroke-1432" stroke="#231F20" stroke-width="0.64633538"></path>
                <g id="Group-1437" transform="translate(9.110842, 1.437911)"></g>
                <g id="Group-1441" transform="translate(10.619582, 5.126406)"></g>
                <g id="Group-1445" transform="translate(9.452387, 8.339621)"></g>
            </g>
            <g id="Group-74">
                <path d="M11.8135195,5.17455732 C11.8135195,8.02643468 9.45856871,10.3384505 6.55373099,10.3384505 C3.64889327,10.3384505 1.29394253,8.02643468 1.29394253,5.17455732 C1.29394253,2.32267996 3.64889327,0.0106641599 6.55373099,0.0106641599 C9.45856871,0.0106641599 11.8135195,2.32267996 11.8135195,5.17455732" id="Fill-1422" fill="#407BF7"></path>
                <path d="M11.8135195,5.17455732 C11.8135195,8.02643468 9.45856871,10.3384505 6.55373099,10.3384505 C3.64889327,10.3384505 1.29394253,8.02643468 1.29394253,5.17455732 C1.29394253,2.32267996 3.64889327,0.0106641599 6.55373099,0.0106641599 C9.45856871,0.0106641599 11.8135195,2.32267996 11.8135195,5.17455732 Z" id="Stroke-1424" stroke="#231F20" stroke-width="0.64633538"></path>
                <path d="M10.6584153,5.17455732 C10.6584153,8.02643468 8.30346452,10.3384505 5.3986268,10.3384505 C2.49378908,10.3384505 0.138838335,8.02643468 0.138838335,5.17455732 C0.138838335,2.32267996 2.49378908,0.0106641599 5.3986268,0.0106641599 C8.30346452,0.0106641599 10.6584153,2.32267996 10.6584153,5.17455732" id="Fill-1426" fill="#407BF7"></path>
                <path d="M10.6584153,5.17455732 C10.6584153,8.02643468 8.30346452,10.3384505 5.3986268,10.3384505 C2.49378908,10.3384505 0.138838335,8.02643468 0.138838335,5.17455732 C0.138838335,2.32267996 2.49378908,0.0106641599 5.3986268,0.0106641599 C8.30346452,0.0106641599 10.6584153,2.32267996 10.6584153,5.17455732 Z" id="Stroke-1428" stroke="#231F20" stroke-width="0.64633538"></path>
                <path d="M8.63804171,5.17455732 C8.63804171,6.93095163 7.18784289,8.35471075 5.39883172,8.35471075 C3.60947901,8.35471075 2.15928019,6.93095163 2.15928019,5.17455732 C2.15928019,3.41816301 3.60947901,1.9944039 5.39883172,1.9944039 C7.18784289,1.9944039 8.63804171,3.41816301 8.63804171,5.17455732" id="Fill-1430" fill="#407BF7"></path>
                <path d="M8.63804171,5.17455732 C8.63804171,6.93095163 7.18784289,8.35471075 5.39883172,8.35471075 C3.60947901,8.35471075 2.15928019,6.93095163 2.15928019,5.17455732 C2.15928019,3.41816301 3.60947901,1.9944039 5.39883172,1.9944039 C7.18784289,1.9944039 8.63804171,3.41816301 8.63804171,5.17455732 Z" id="Stroke-1432" stroke="#231F20" stroke-width="0.64633538"></path>
                <g id="Group-1437" transform="translate(9.110842, 1.437911)"></g>
                <g id="Group-1441" transform="translate(10.619582, 5.126406)"></g>
                <g id="Group-1445" transform="translate(9.452387, 8.339621)"></g>
            </g>
            <g id="Group-74" transform="translate(17.153527, 8.091531)">
                <path d="M11.8135195,5.17455732 C11.8135195,8.02643468 9.45856871,10.3384505 6.55373099,10.3384505 C3.64889327,10.3384505 1.29394253,8.02643468 1.29394253,5.17455732 C1.29394253,2.32267996 3.64889327,0.0106641599 6.55373099,0.0106641599 C9.45856871,0.0106641599 11.8135195,2.32267996 11.8135195,5.17455732" id="Fill-1422" fill="#407BF7"></path>
                <path d="M11.8135195,5.17455732 C11.8135195,8.02643468 9.45856871,10.3384505 6.55373099,10.3384505 C3.64889327,10.3384505 1.29394253,8.02643468 1.29394253,5.17455732 C1.29394253,2.32267996 3.64889327,0.0106641599 6.55373099,0.0106641599 C9.45856871,0.0106641599 11.8135195,2.32267996 11.8135195,5.17455732 Z" id="Stroke-1424" stroke="#231F20" stroke-width="0.64633538"></path>
                <path d="M10.6584153,5.17455732 C10.6584153,8.02643468 8.30346452,10.3384505 5.3986268,10.3384505 C2.49378908,10.3384505 0.138838335,8.02643468 0.138838335,5.17455732 C0.138838335,2.32267996 2.49378908,0.0106641599 5.3986268,0.0106641599 C8.30346452,0.0106641599 10.6584153,2.32267996 10.6584153,5.17455732" id="Fill-1426" fill="#407BF7"></path>
                <path d="M10.6584153,5.17455732 C10.6584153,8.02643468 8.30346452,10.3384505 5.3986268,10.3384505 C2.49378908,10.3384505 0.138838335,8.02643468 0.138838335,5.17455732 C0.138838335,2.32267996 2.49378908,0.0106641599 5.3986268,0.0106641599 C8.30346452,0.0106641599 10.6584153,2.32267996 10.6584153,5.17455732 Z" id="Stroke-1428" stroke="#231F20" stroke-width="0.64633538"></path>
                <path d="M8.63804171,5.17455732 C8.63804171,6.93095163 7.18784289,8.35471075 5.39883172,8.35471075 C3.60947901,8.35471075 2.15928019,6.93095163 2.15928019,5.17455732 C2.15928019,3.41816301 3.60947901,1.9944039 5.39883172,1.9944039 C7.18784289,1.9944039 8.63804171,3.41816301 8.63804171,5.17455732" id="Fill-1430" fill="#407BF7"></path>
                <path d="M8.63804171,5.17455732 C8.63804171,6.93095163 7.18784289,8.35471075 5.39883172,8.35471075 C3.60947901,8.35471075 2.15928019,6.93095163 2.15928019,5.17455732 C2.15928019,3.41816301 3.60947901,1.9944039 5.39883172,1.9944039 C7.18784289,1.9944039 8.63804171,3.41816301 8.63804171,5.17455732 Z" id="Stroke-1432" stroke="#231F20" stroke-width="0.64633538"></path>
                <g id="Group-1437" transform="translate(9.110842, 1.437911)"></g>
                <g id="Group-1441" transform="translate(10.619582, 5.126406)"></g>
                <g id="Group-1445" transform="translate(9.452387, 8.339621)"></g>
            </g>
            <g id="Group-74" transform="translate(23.950207, 4.207596)">
                <path d="M11.8135195,5.17455732 C11.8135195,8.02643468 9.45856871,10.3384505 6.55373099,10.3384505 C3.64889327,10.3384505 1.29394253,8.02643468 1.29394253,5.17455732 C1.29394253,2.32267996 3.64889327,0.0106641599 6.55373099,0.0106641599 C9.45856871,0.0106641599 11.8135195,2.32267996 11.8135195,5.17455732" id="Fill-1422" fill="#407BF7"></path>
                <path d="M11.8135195,5.17455732 C11.8135195,8.02643468 9.45856871,10.3384505 6.55373099,10.3384505 C3.64889327,10.3384505 1.29394253,8.02643468 1.29394253,5.17455732 C1.29394253,2.32267996 3.64889327,0.0106641599 6.55373099,0.0106641599 C9.45856871,0.0106641599 11.8135195,2.32267996 11.8135195,5.17455732 Z" id="Stroke-1424" stroke="#231F20" stroke-width="0.64633538"></path>
                <path d="M10.6584153,5.17455732 C10.6584153,8.02643468 8.30346452,10.3384505 5.3986268,10.3384505 C2.49378908,10.3384505 0.138838335,8.02643468 0.138838335,5.17455732 C0.138838335,2.32267996 2.49378908,0.0106641599 5.3986268,0.0106641599 C8.30346452,0.0106641599 10.6584153,2.32267996 10.6584153,5.17455732" id="Fill-1426" fill="#407BF7"></path>
                <path d="M10.6584153,5.17455732 C10.6584153,8.02643468 8.30346452,10.3384505 5.3986268,10.3384505 C2.49378908,10.3384505 0.138838335,8.02643468 0.138838335,5.17455732 C0.138838335,2.32267996 2.49378908,0.0106641599 5.3986268,0.0106641599 C8.30346452,0.0106641599 10.6584153,2.32267996 10.6584153,5.17455732 Z" id="Stroke-1428" stroke="#231F20" stroke-width="0.64633538"></path>
                <path d="M8.63804171,5.17455732 C8.63804171,6.93095163 7.18784289,8.35471075 5.39883172,8.35471075 C3.60947901,8.35471075 2.15928019,6.93095163 2.15928019,5.17455732 C2.15928019,3.41816301 3.60947901,1.9944039 5.39883172,1.9944039 C7.18784289,1.9944039 8.63804171,3.41816301 8.63804171,5.17455732" id="Fill-1430" fill="#407BF7"></path>
                <path d="M8.63804171,5.17455732 C8.63804171,6.93095163 7.18784289,8.35471075 5.39883172,8.35471075 C3.60947901,8.35471075 2.15928019,6.93095163 2.15928019,5.17455732 C2.15928019,3.41816301 3.60947901,1.9944039 5.39883172,1.9944039 C7.18784289,1.9944039 8.63804171,3.41816301 8.63804171,5.17455732 Z" id="Stroke-1432" stroke="#231F20" stroke-width="0.64633538"></path>
                <g id="Group-1437" transform="translate(9.110842, 1.437911)"></g>
                <g id="Group-1441" transform="translate(10.619582, 5.126406)"></g>
                <g id="Group-1445" transform="translate(9.452387, 8.339621)"></g>
            </g>
            <g id="Group-74" transform="translate(42.721992, 11.004483)">
                <path d="M11.8135195,5.17455732 C11.8135195,8.02643468 9.45856871,10.3384505 6.55373099,10.3384505 C3.64889327,10.3384505 1.29394253,8.02643468 1.29394253,5.17455732 C1.29394253,2.32267996 3.64889327,0.0106641599 6.55373099,0.0106641599 C9.45856871,0.0106641599 11.8135195,2.32267996 11.8135195,5.17455732" id="Fill-1422" fill="#407BF7"></path>
                <path d="M11.8135195,5.17455732 C11.8135195,8.02643468 9.45856871,10.3384505 6.55373099,10.3384505 C3.64889327,10.3384505 1.29394253,8.02643468 1.29394253,5.17455732 C1.29394253,2.32267996 3.64889327,0.0106641599 6.55373099,0.0106641599 C9.45856871,0.0106641599 11.8135195,2.32267996 11.8135195,5.17455732 Z" id="Stroke-1424" stroke="#231F20" stroke-width="0.64633538"></path>
                <path d="M10.6584153,5.17455732 C10.6584153,8.02643468 8.30346452,10.3384505 5.3986268,10.3384505 C2.49378908,10.3384505 0.138838335,8.02643468 0.138838335,5.17455732 C0.138838335,2.32267996 2.49378908,0.0106641599 5.3986268,0.0106641599 C8.30346452,0.0106641599 10.6584153,2.32267996 10.6584153,5.17455732" id="Fill-1426" fill="#407BF7"></path>
                <path d="M10.6584153,5.17455732 C10.6584153,8.02643468 8.30346452,10.3384505 5.3986268,10.3384505 C2.49378908,10.3384505 0.138838335,8.02643468 0.138838335,5.17455732 C0.138838335,2.32267996 2.49378908,0.0106641599 5.3986268,0.0106641599 C8.30346452,0.0106641599 10.6584153,2.32267996 10.6584153,5.17455732 Z" id="Stroke-1428" stroke="#231F20" stroke-width="0.64633538"></path>
                <path d="M8.63804171,5.17455732 C8.63804171,6.93095163 7.18784289,8.35471075 5.39883172,8.35471075 C3.60947901,8.35471075 2.15928019,6.93095163 2.15928019,5.17455732 C2.15928019,3.41816301 3.60947901,1.9944039 5.39883172,1.9944039 C7.18784289,1.9944039 8.63804171,3.41816301 8.63804171,5.17455732" id="Fill-1430" fill="#407BF7"></path>
                <path d="M8.63804171,5.17455732 C8.63804171,6.93095163 7.18784289,8.35471075 5.39883172,8.35471075 C3.60947901,8.35471075 2.15928019,6.93095163 2.15928019,5.17455732 C2.15928019,3.41816301 3.60947901,1.9944039 5.39883172,1.9944039 C7.18784289,1.9944039 8.63804171,3.41816301 8.63804171,5.17455732 Z" id="Stroke-1432" stroke="#231F20" stroke-width="0.64633538"></path>
                <g id="Group-1437" transform="translate(9.110842, 1.437911)"></g>
                <g id="Group-1441" transform="translate(10.619582, 5.126406)"></g>
                <g id="Group-1445" transform="translate(9.452387, 8.339621)"></g>
            </g>
            <g id="Group-74" transform="translate(49.195021, 7.767870)">
                <path d="M11.6182799,5.17455732 C11.6182799,8.02643468 9.30224896,10.3384505 6.44541888,10.3384505 C3.58858879,10.3384505 1.27255782,8.02643468 1.27255782,5.17455732 C1.27255782,2.32267996 3.58858879,0.0106641599 6.44541888,0.0106641599 C9.30224896,0.0106641599 11.6182799,2.32267996 11.6182799,5.17455732" id="Fill-1422" stroke="#000000" stroke-width="0.64633538" fill="#4FE2DF"></path>
                <path d="M10.4822659,5.17455732 C10.4822659,8.02643468 8.16623493,10.3384505 5.30940484,10.3384505 C2.45257476,10.3384505 0.136543784,8.02643468 0.136543784,5.17455732 C0.136543784,2.32267996 2.45257476,0.0106641599 5.30940484,0.0106641599 C8.16623493,0.0106641599 10.4822659,2.32267996 10.4822659,5.17455732" id="Fill-1426" stroke="#000000" stroke-width="0.64633538" fill="#4FE2DF"></path>
                <path d="M8.49528264,5.17455732 C8.49528264,6.93095163 7.06905094,8.35471075 5.30960638,8.35471075 C3.54982592,8.35471075 2.12359423,6.93095163 2.12359423,5.17455732 C2.12359423,3.41816301 3.54982592,1.9944039 5.30960638,1.9944039 C7.06905094,1.9944039 8.49528264,3.41816301 8.49528264,5.17455732" id="Fill-1430" stroke="#000000" stroke-width="0.64633538" fill="#4FE2DF"></path>
                <g id="Group-1445" transform="translate(7.753918, 0.641732)"></g>
            </g>
            <g id="Group-74" transform="translate(16.506224, 4.854919)">
                <path d="M12.0334025,5.17455732 C12.0334025,8.02643468 9.63461944,10.3384505 6.67571447,10.3384505 C3.7168095,10.3384505 1.31802646,8.02643468 1.31802646,5.17455732 C1.31802646,2.32267996 3.7168095,0.0106641599 6.67571447,0.0106641599 C9.63461944,0.0106641599 12.0334025,2.32267996 12.0334025,5.17455732" id="Fill-1422" stroke="#000000" stroke-width="0.64633538" fill="#4FE2DF"></path>
                <path d="M10.8567985,5.17455732 C10.8567985,8.02643468 8.45801549,10.3384505 5.49911052,10.3384505 C2.54020555,10.3384505 0.141422509,8.02643468 0.141422509,5.17455732 C0.141422509,2.32267996 2.54020555,0.0106641599 5.49911052,0.0106641599 C8.45801549,0.0106641599 10.8567985,2.32267996 10.8567985,5.17455732" id="Fill-1426" stroke="#000000" stroke-width="0.64633538" fill="#4FE2DF"></path>
                <path d="M8.79882011,5.17455732 C8.79882011,6.93095163 7.32162899,8.35471075 5.49931926,8.35471075 C3.67666163,8.35471075 2.19947051,6.93095163 2.19947051,5.17455732 C2.19947051,3.41816301 3.67666163,1.9944039 5.49931926,1.9944039 C7.32162899,1.9944039 8.79882011,3.41816301 8.79882011,5.17455732" id="Fill-1430" stroke="#000000" stroke-width="0.64633538" fill="#4FE2DF"></path>
                <g id="Group-1445" transform="translate(8.902251, 1.201579)"></g>
            </g>
            <g id="Group-74" transform="translate(56.962656, 11.004483)">
                <path d="M11.8135195,5.17455732 C11.8135195,8.02643468 9.45856871,10.3384505 6.55373099,10.3384505 C3.64889327,10.3384505 1.29394253,8.02643468 1.29394253,5.17455732 C1.29394253,2.32267996 3.64889327,0.0106641599 6.55373099,0.0106641599 C9.45856871,0.0106641599 11.8135195,2.32267996 11.8135195,5.17455732" id="Fill-1422" fill="#407BF7"></path>
                <path d="M11.8135195,5.17455732 C11.8135195,8.02643468 9.45856871,10.3384505 6.55373099,10.3384505 C3.64889327,10.3384505 1.29394253,8.02643468 1.29394253,5.17455732 C1.29394253,2.32267996 3.64889327,0.0106641599 6.55373099,0.0106641599 C9.45856871,0.0106641599 11.8135195,2.32267996 11.8135195,5.17455732 Z" id="Stroke-1424" stroke="#231F20" stroke-width="0.64633538"></path>
                <path d="M10.6584153,5.17455732 C10.6584153,8.02643468 8.30346452,10.3384505 5.3986268,10.3384505 C2.49378908,10.3384505 0.138838335,8.02643468 0.138838335,5.17455732 C0.138838335,2.32267996 2.49378908,0.0106641599 5.3986268,0.0106641599 C8.30346452,0.0106641599 10.6584153,2.32267996 10.6584153,5.17455732" id="Fill-1426" fill="#407BF7"></path>
                <path d="M10.6584153,5.17455732 C10.6584153,8.02643468 8.30346452,10.3384505 5.3986268,10.3384505 C2.49378908,10.3384505 0.138838335,8.02643468 0.138838335,5.17455732 C0.138838335,2.32267996 2.49378908,0.0106641599 5.3986268,0.0106641599 C8.30346452,0.0106641599 10.6584153,2.32267996 10.6584153,5.17455732 Z" id="Stroke-1428" stroke="#231F20" stroke-width="0.64633538"></path>
                <path d="M8.63804171,5.17455732 C8.63804171,6.93095163 7.18784289,8.35471075 5.39883172,8.35471075 C3.60947901,8.35471075 2.15928019,6.93095163 2.15928019,5.17455732 C2.15928019,3.41816301 3.60947901,1.9944039 5.39883172,1.9944039 C7.18784289,1.9944039 8.63804171,3.41816301 8.63804171,5.17455732" id="Fill-1430" fill="#407BF7"></path>
                <path d="M8.63804171,5.17455732 C8.63804171,6.93095163 7.18784289,8.35471075 5.39883172,8.35471075 C3.60947901,8.35471075 2.15928019,6.93095163 2.15928019,5.17455732 C2.15928019,3.41816301 3.60947901,1.9944039 5.39883172,1.9944039 C7.18784289,1.9944039 8.63804171,3.41816301 8.63804171,5.17455732 Z" id="Stroke-1432" stroke="#231F20" stroke-width="0.64633538"></path>
                <g id="Group-1437" transform="translate(9.110842, 1.437911)"></g>
                <g id="Group-1441" transform="translate(10.619582, 5.126406)"></g>
                <g id="Group-1445" transform="translate(9.452387, 8.339621)"></g>
            </g>
            <g id="Group-74" transform="translate(8.414938, 5.178580)">
                <path d="M11.8135195,5.17455732 C11.8135195,8.02643468 9.45856871,10.3384505 6.55373099,10.3384505 C3.64889327,10.3384505 1.29394253,8.02643468 1.29394253,5.17455732 C1.29394253,2.32267996 3.64889327,0.0106641599 6.55373099,0.0106641599 C9.45856871,0.0106641599 11.8135195,2.32267996 11.8135195,5.17455732" id="Fill-1422" fill="#407BF7"></path>
                <path d="M11.8135195,5.17455732 C11.8135195,8.02643468 9.45856871,10.3384505 6.55373099,10.3384505 C3.64889327,10.3384505 1.29394253,8.02643468 1.29394253,5.17455732 C1.29394253,2.32267996 3.64889327,0.0106641599 6.55373099,0.0106641599 C9.45856871,0.0106641599 11.8135195,2.32267996 11.8135195,5.17455732 Z" id="Stroke-1424" stroke="#231F20" stroke-width="0.64633538"></path>
                <path d="M10.6584153,5.17455732 C10.6584153,8.02643468 8.30346452,10.3384505 5.3986268,10.3384505 C2.49378908,10.3384505 0.138838335,8.02643468 0.138838335,5.17455732 C0.138838335,2.32267996 2.49378908,0.0106641599 5.3986268,0.0106641599 C8.30346452,0.0106641599 10.6584153,2.32267996 10.6584153,5.17455732" id="Fill-1426" fill="#407BF7"></path>
                <path d="M10.6584153,5.17455732 C10.6584153,8.02643468 8.30346452,10.3384505 5.3986268,10.3384505 C2.49378908,10.3384505 0.138838335,8.02643468 0.138838335,5.17455732 C0.138838335,2.32267996 2.49378908,0.0106641599 5.3986268,0.0106641599 C8.30346452,0.0106641599 10.6584153,2.32267996 10.6584153,5.17455732 Z" id="Stroke-1428" stroke="#231F20" stroke-width="0.64633538"></path>
                <path d="M8.63804171,5.17455732 C8.63804171,6.93095163 7.18784289,8.35471075 5.39883172,8.35471075 C3.60947901,8.35471075 2.15928019,6.93095163 2.15928019,5.17455732 C2.15928019,3.41816301 3.60947901,1.9944039 5.39883172,1.9944039 C7.18784289,1.9944039 8.63804171,3.41816301 8.63804171,5.17455732" id="Fill-1430" fill="#407BF7"></path>
                <path d="M8.63804171,5.17455732 C8.63804171,6.93095163 7.18784289,8.35471075 5.39883172,8.35471075 C3.60947901,8.35471075 2.15928019,6.93095163 2.15928019,5.17455732 C2.15928019,3.41816301 3.60947901,1.9944039 5.39883172,1.9944039 C7.18784289,1.9944039 8.63804171,3.41816301 8.63804171,5.17455732 Z" id="Stroke-1432" stroke="#231F20" stroke-width="0.64633538"></path>
                <g id="Group-1437" transform="translate(9.110842, 1.437911)"></g>
                <g id="Group-1441" transform="translate(10.619582, 5.126406)"></g>
                <g id="Group-1445" transform="translate(9.452387, 8.339621)"></g>
            </g>
            <g id="Group-74" transform="translate(58.257261, 12.946450)">
                <path d="M11.8135195,5.17455732 C11.8135195,8.02643468 9.45856871,10.3384505 6.55373099,10.3384505 C3.64889327,10.3384505 1.29394253,8.02643468 1.29394253,5.17455732 C1.29394253,2.32267996 3.64889327,0.0106641599 6.55373099,0.0106641599 C9.45856871,0.0106641599 11.8135195,2.32267996 11.8135195,5.17455732" id="Fill-1422" fill="#407BF7"></path>
                <path d="M11.8135195,5.17455732 C11.8135195,8.02643468 9.45856871,10.3384505 6.55373099,10.3384505 C3.64889327,10.3384505 1.29394253,8.02643468 1.29394253,5.17455732 C1.29394253,2.32267996 3.64889327,0.0106641599 6.55373099,0.0106641599 C9.45856871,0.0106641599 11.8135195,2.32267996 11.8135195,5.17455732 Z" id="Stroke-1424" stroke="#231F20" stroke-width="0.64633538"></path>
                <path d="M10.6584153,5.17455732 C10.6584153,8.02643468 8.30346452,10.3384505 5.3986268,10.3384505 C2.49378908,10.3384505 0.138838335,8.02643468 0.138838335,5.17455732 C0.138838335,2.32267996 2.49378908,0.0106641599 5.3986268,0.0106641599 C8.30346452,0.0106641599 10.6584153,2.32267996 10.6584153,5.17455732" id="Fill-1426" fill="#407BF7"></path>
                <path d="M10.6584153,5.17455732 C10.6584153,8.02643468 8.30346452,10.3384505 5.3986268,10.3384505 C2.49378908,10.3384505 0.138838335,8.02643468 0.138838335,5.17455732 C0.138838335,2.32267996 2.49378908,0.0106641599 5.3986268,0.0106641599 C8.30346452,0.0106641599 10.6584153,2.32267996 10.6584153,5.17455732 Z" id="Stroke-1428" stroke="#231F20" stroke-width="0.64633538"></path>
                <path d="M8.63804171,5.17455732 C8.63804171,6.93095163 7.18784289,8.35471075 5.39883172,8.35471075 C3.60947901,8.35471075 2.15928019,6.93095163 2.15928019,5.17455732 C2.15928019,3.41816301 3.60947901,1.9944039 5.39883172,1.9944039 C7.18784289,1.9944039 8.63804171,3.41816301 8.63804171,5.17455732" id="Fill-1430" fill="#407BF7"></path>
                <path d="M8.63804171,5.17455732 C8.63804171,6.93095163 7.18784289,8.35471075 5.39883172,8.35471075 C3.60947901,8.35471075 2.15928019,6.93095163 2.15928019,5.17455732 C2.15928019,3.41816301 3.60947901,1.9944039 5.39883172,1.9944039 C7.18784289,1.9944039 8.63804171,3.41816301 8.63804171,5.17455732 Z" id="Stroke-1432" stroke="#231F20" stroke-width="0.64633538"></path>
                <g id="Group-1437" transform="translate(9.110842, 1.437911)"></g>
                <g id="Group-1441" transform="translate(10.619582, 5.126406)"></g>
                <g id="Group-1445" transform="translate(9.452387, 8.339621)"></g>
            </g>
            <g id="Group-74" transform="translate(68.974456, 10.706020)">
                <path d="M11.8135195,5.17455732 C11.8135195,8.02643468 9.45856871,10.3384505 6.55373099,10.3384505 C3.64889327,10.3384505 1.29394253,8.02643468 1.29394253,5.17455732 C1.29394253,2.32267996 3.64889327,0.0106641599 6.55373099,0.0106641599 C9.45856871,0.0106641599 11.8135195,2.32267996 11.8135195,5.17455732" id="Fill-1422" fill="#4FE2DF"></path>
                <path d="M11.8135195,5.17455732 C11.8135195,8.02643468 9.45856871,10.3384505 6.55373099,10.3384505 C3.64889327,10.3384505 1.29394253,8.02643468 1.29394253,5.17455732 C1.29394253,2.32267996 3.64889327,0.0106641599 6.55373099,0.0106641599 C9.45856871,0.0106641599 11.8135195,2.32267996 11.8135195,5.17455732 Z" id="Stroke-1424" stroke="#231F20" stroke-width="0.64633538"></path>
                <path d="M10.6584153,5.17455732 C10.6584153,8.02643468 8.30346452,10.3384505 5.3986268,10.3384505 C2.49378908,10.3384505 0.138838335,8.02643468 0.138838335,5.17455732 C0.138838335,2.32267996 2.49378908,0.0106641599 5.3986268,0.0106641599 C8.30346452,0.0106641599 10.6584153,2.32267996 10.6584153,5.17455732" id="Fill-1426" fill="#4FE2DF"></path>
                <path d="M10.6584153,5.17455732 C10.6584153,8.02643468 8.30346452,10.3384505 5.3986268,10.3384505 C2.49378908,10.3384505 0.138838335,8.02643468 0.138838335,5.17455732 C0.138838335,2.32267996 2.49378908,0.0106641599 5.3986268,0.0106641599 C8.30346452,0.0106641599 10.6584153,2.32267996 10.6584153,5.17455732 Z" id="Stroke-1428" stroke="#231F20" stroke-width="0.64633538"></path>
                <path d="M8.63804171,5.17455732 C8.63804171,6.93095163 7.18784289,8.35471075 5.39883172,8.35471075 C3.60947901,8.35471075 2.15928019,6.93095163 2.15928019,5.17455732 C2.15928019,3.41816301 3.60947901,1.9944039 5.39883172,1.9944039 C7.18784289,1.9944039 8.63804171,3.41816301 8.63804171,5.17455732" id="Fill-1430" fill="#4FE2DF"></path>
                <path d="M8.63804171,5.17455732 C8.63804171,6.93095163 7.18784289,8.35471075 5.39883172,8.35471075 C3.60947901,8.35471075 2.15928019,6.93095163 2.15928019,5.17455732 C2.15928019,3.41816301 3.60947901,1.9944039 5.39883172,1.9944039 C7.18784289,1.9944039 8.63804171,3.41816301 8.63804171,5.17455732 Z" id="Stroke-1432" stroke="#231F20" stroke-width="0.64633538"></path>
                <g id="Group-1437" transform="translate(9.110842, 1.437911)"></g>
                <g id="Group-1441" transform="translate(10.619582, 5.126406)"></g>
                <g id="Group-1445" transform="translate(9.452387, 8.339621)"></g>
            </g>
            <g id="Group-74" transform="translate(84.899055, 15.884606)">
                <path d="M11.8135195,5.17455732 C11.8135195,8.02643468 9.45856871,10.3384505 6.55373099,10.3384505 C3.64889327,10.3384505 1.29394253,8.02643468 1.29394253,5.17455732 C1.29394253,2.32267996 3.64889327,0.0106641599 6.55373099,0.0106641599 C9.45856871,0.0106641599 11.8135195,2.32267996 11.8135195,5.17455732" id="Fill-1422" fill="#407BF7"></path>
                <path d="M11.8135195,5.17455732 C11.8135195,8.02643468 9.45856871,10.3384505 6.55373099,10.3384505 C3.64889327,10.3384505 1.29394253,8.02643468 1.29394253,5.17455732 C1.29394253,2.32267996 3.64889327,0.0106641599 6.55373099,0.0106641599 C9.45856871,0.0106641599 11.8135195,2.32267996 11.8135195,5.17455732 Z" id="Stroke-1424" stroke="#231F20" stroke-width="0.64633538"></path>
                <path d="M10.6584153,5.17455732 C10.6584153,8.02643468 8.30346452,10.3384505 5.3986268,10.3384505 C2.49378908,10.3384505 0.138838335,8.02643468 0.138838335,5.17455732 C0.138838335,2.32267996 2.49378908,0.0106641599 5.3986268,0.0106641599 C8.30346452,0.0106641599 10.6584153,2.32267996 10.6584153,5.17455732" id="Fill-1426" fill="#407BF7"></path>
                <path d="M10.6584153,5.17455732 C10.6584153,8.02643468 8.30346452,10.3384505 5.3986268,10.3384505 C2.49378908,10.3384505 0.138838335,8.02643468 0.138838335,5.17455732 C0.138838335,2.32267996 2.49378908,0.0106641599 5.3986268,0.0106641599 C8.30346452,0.0106641599 10.6584153,2.32267996 10.6584153,5.17455732 Z" id="Stroke-1428" stroke="#231F20" stroke-width="0.64633538"></path>
                <path d="M8.63804171,5.17455732 C8.63804171,6.93095163 7.18784289,8.35471075 5.39883172,8.35471075 C3.60947901,8.35471075 2.15928019,6.93095163 2.15928019,5.17455732 C2.15928019,3.41816301 3.60947901,1.9944039 5.39883172,1.9944039 C7.18784289,1.9944039 8.63804171,3.41816301 8.63804171,5.17455732" id="Fill-1430" fill="#407BF7"></path>
                <path d="M8.63804171,5.17455732 C8.63804171,6.93095163 7.18784289,8.35471075 5.39883172,8.35471075 C3.60947901,8.35471075 2.15928019,6.93095163 2.15928019,5.17455732 C2.15928019,3.41816301 3.60947901,1.9944039 5.39883172,1.9944039 C7.18784289,1.9944039 8.63804171,3.41816301 8.63804171,5.17455732 Z" id="Stroke-1432" stroke="#231F20" stroke-width="0.64633538"></path>
                <g id="Group-1437" transform="translate(9.110842, 1.437911)"></g>
                <g id="Group-1441" transform="translate(10.619582, 5.126406)"></g>
                <g id="Group-1445" transform="translate(9.452387, 8.339621)"></g>
            </g>
            <g id="Group-74" transform="translate(27.510373, 6.473225)">
                <path d="M11.8135195,5.17455732 C11.8135195,8.02643468 9.45856871,10.3384505 6.55373099,10.3384505 C3.64889327,10.3384505 1.29394253,8.02643468 1.29394253,5.17455732 C1.29394253,2.32267996 3.64889327,0.0106641599 6.55373099,0.0106641599 C9.45856871,0.0106641599 11.8135195,2.32267996 11.8135195,5.17455732" id="Fill-1422" fill="#407BF7"></path>
                <path d="M11.8135195,5.17455732 C11.8135195,8.02643468 9.45856871,10.3384505 6.55373099,10.3384505 C3.64889327,10.3384505 1.29394253,8.02643468 1.29394253,5.17455732 C1.29394253,2.32267996 3.64889327,0.0106641599 6.55373099,0.0106641599 C9.45856871,0.0106641599 11.8135195,2.32267996 11.8135195,5.17455732 Z" id="Stroke-1424" stroke="#231F20" stroke-width="0.64633538"></path>
                <path d="M10.6584153,5.17455732 C10.6584153,8.02643468 8.30346452,10.3384505 5.3986268,10.3384505 C2.49378908,10.3384505 0.138838335,8.02643468 0.138838335,5.17455732 C0.138838335,2.32267996 2.49378908,0.0106641599 5.3986268,0.0106641599 C8.30346452,0.0106641599 10.6584153,2.32267996 10.6584153,5.17455732" id="Fill-1426" fill="#407BF7"></path>
                <path d="M10.6621377,5.16389316 C10.6621377,8.01577052 8.30718694,10.3277863 5.40234922,10.3277863 C2.4975115,10.3277863 0.142560759,8.01577052 0.142560759,5.16389316 C0.142560759,2.3120158 2.4975115,0 5.40234922,0 C8.30718694,0 10.6621377,2.3120158 10.6621377,5.16389316 Z" id="Stroke-1428" stroke="#231F20" stroke-width="0.64633538"></path>
                <path d="M8.63804171,5.17455732 C8.63804171,6.93095163 7.18784289,8.35471075 5.39883172,8.35471075 C3.60947901,8.35471075 2.15928019,6.93095163 2.15928019,5.17455732 C2.15928019,3.41816301 3.60947901,1.9944039 5.39883172,1.9944039 C7.18784289,1.9944039 8.63804171,3.41816301 8.63804171,5.17455732" id="Fill-1430" fill="#407BF7"></path>
                <path d="M8.63804171,5.17455732 C8.63804171,6.93095163 7.18784289,8.35471075 5.39883172,8.35471075 C3.60947901,8.35471075 2.15928019,6.93095163 2.15928019,5.17455732 C2.15928019,3.41816301 3.60947901,1.9944039 5.39883172,1.9944039 C7.18784289,1.9944039 8.63804171,3.41816301 8.63804171,5.17455732 Z" id="Stroke-1432" stroke="#231F20" stroke-width="0.64633538"></path>
                <g id="Group-1437" transform="translate(9.110842, 1.437911)"></g>
                <g id="Group-1441" transform="translate(10.619582, 5.126406)"></g>
                <g id="Group-1445" transform="translate(9.452387, 8.339621)"></g>
            </g>
        </g>
        <g id="coins" transform="translate(89.430857, 26.011961) scale(1, -1) rotate(-10.000000) translate(-89.430857, -26.011961) translate(30.688118, 9.990729)">
            <g id="Group-74" transform="translate(73.145228, 18.448691)">
                <path d="M11.8135195,5.17455732 C11.8135195,8.02643468 9.45856871,10.3384505 6.55373099,10.3384505 C3.64889327,10.3384505 1.29394253,8.02643468 1.29394253,5.17455732 C1.29394253,2.32267996 3.64889327,0.0106641599 6.55373099,0.0106641599 C9.45856871,0.0106641599 11.8135195,2.32267996 11.8135195,5.17455732" id="Fill-1422" fill="#407BF7"></path>
                <path d="M11.8135195,5.17455732 C11.8135195,8.02643468 9.45856871,10.3384505 6.55373099,10.3384505 C3.64889327,10.3384505 1.29394253,8.02643468 1.29394253,5.17455732 C1.29394253,2.32267996 3.64889327,0.0106641599 6.55373099,0.0106641599 C9.45856871,0.0106641599 11.8135195,2.32267996 11.8135195,5.17455732 Z" id="Stroke-1424" stroke="#231F20" stroke-width="0.64633538"></path>
                <path d="M10.6584153,5.17455732 C10.6584153,8.02643468 8.30346452,10.3384505 5.3986268,10.3384505 C2.49378908,10.3384505 0.138838335,8.02643468 0.138838335,5.17455732 C0.138838335,2.32267996 2.49378908,0.0106641599 5.3986268,0.0106641599 C8.30346452,0.0106641599 10.6584153,2.32267996 10.6584153,5.17455732" id="Fill-1426" fill="#407BF7"></path>
                <path d="M10.6584153,5.17455732 C10.6584153,8.02643468 8.30346452,10.3384505 5.3986268,10.3384505 C2.49378908,10.3384505 0.138838335,8.02643468 0.138838335,5.17455732 C0.138838335,2.32267996 2.49378908,0.0106641599 5.3986268,0.0106641599 C8.30346452,0.0106641599 10.6584153,2.32267996 10.6584153,5.17455732 Z" id="Stroke-1428" stroke="#231F20" stroke-width="0.64633538"></path>
                <path d="M8.63804171,5.17455732 C8.63804171,6.93095163 7.18784289,8.35471075 5.39883172,8.35471075 C3.60947901,8.35471075 2.15928019,6.93095163 2.15928019,5.17455732 C2.15928019,3.41816301 3.60947901,1.9944039 5.39883172,1.9944039 C7.18784289,1.9944039 8.63804171,3.41816301 8.63804171,5.17455732" id="Fill-1430" fill="#407BF7"></path>
                <path d="M8.63804171,5.17455732 C8.63804171,6.93095163 7.18784289,8.35471075 5.39883172,8.35471075 C3.60947901,8.35471075 2.15928019,6.93095163 2.15928019,5.17455732 C2.15928019,3.41816301 3.60947901,1.9944039 5.39883172,1.9944039 C7.18784289,1.9944039 8.63804171,3.41816301 8.63804171,5.17455732 Z" id="Stroke-1432" stroke="#231F20" stroke-width="0.64633538"></path>
                <g id="Group-1437" transform="translate(9.110842, 1.437911)"></g>
                <g id="Group-1441" transform="translate(10.619582, 5.126406)"></g>
                <g id="Group-1445" transform="translate(9.452387, 8.339621)"></g>
            </g>
            <g id="Group-74" transform="translate(62.464730, 17.477708)">
                <path d="M11.8135195,5.17455732 C11.8135195,8.02643468 9.45856871,10.3384505 6.55373099,10.3384505 C3.64889327,10.3384505 1.29394253,8.02643468 1.29394253,5.17455732 C1.29394253,2.32267996 3.64889327,0.0106641599 6.55373099,0.0106641599 C9.45856871,0.0106641599 11.8135195,2.32267996 11.8135195,5.17455732" id="Fill-1422" fill="#407BF7"></path>
                <path d="M11.8135195,5.17455732 C11.8135195,8.02643468 9.45856871,10.3384505 6.55373099,10.3384505 C3.64889327,10.3384505 1.29394253,8.02643468 1.29394253,5.17455732 C1.29394253,2.32267996 3.64889327,0.0106641599 6.55373099,0.0106641599 C9.45856871,0.0106641599 11.8135195,2.32267996 11.8135195,5.17455732 Z" id="Stroke-1424" stroke="#231F20" stroke-width="0.64633538"></path>
                <path d="M10.6584153,5.17455732 C10.6584153,8.02643468 8.30346452,10.3384505 5.3986268,10.3384505 C2.49378908,10.3384505 0.138838335,8.02643468 0.138838335,5.17455732 C0.138838335,2.32267996 2.49378908,0.0106641599 5.3986268,0.0106641599 C8.30346452,0.0106641599 10.6584153,2.32267996 10.6584153,5.17455732" id="Fill-1426" fill="#407BF7"></path>
                <path d="M10.6584153,5.17455732 C10.6584153,8.02643468 8.30346452,10.3384505 5.3986268,10.3384505 C2.49378908,10.3384505 0.138838335,8.02643468 0.138838335,5.17455732 C0.138838335,2.32267996 2.49378908,0.0106641599 5.3986268,0.0106641599 C8.30346452,0.0106641599 10.6584153,2.32267996 10.6584153,5.17455732 Z" id="Stroke-1428" stroke="#231F20" stroke-width="0.64633538"></path>
                <path d="M8.63804171,5.17455732 C8.63804171,6.93095163 7.18784289,8.35471075 5.39883172,8.35471075 C3.60947901,8.35471075 2.15928019,6.93095163 2.15928019,5.17455732 C2.15928019,3.41816301 3.60947901,1.9944039 5.39883172,1.9944039 C7.18784289,1.9944039 8.63804171,3.41816301 8.63804171,5.17455732" id="Fill-1430" fill="#407BF7"></path>
                <path d="M8.63804171,5.17455732 C8.63804171,6.93095163 7.18784289,8.35471075 5.39883172,8.35471075 C3.60947901,8.35471075 2.15928019,6.93095163 2.15928019,5.17455732 C2.15928019,3.41816301 3.60947901,1.9944039 5.39883172,1.9944039 C7.18784289,1.9944039 8.63804171,3.41816301 8.63804171,5.17455732 Z" id="Stroke-1432" stroke="#231F20" stroke-width="0.64633538"></path>
                <g id="Group-1437" transform="translate(9.110842, 1.437911)"></g>
                <g id="Group-1441" transform="translate(10.619582, 5.126406)"></g>
                <g id="Group-1445" transform="translate(9.452387, 8.339621)"></g>
            </g>
            <g id="Group-74" transform="translate(0.009967, 0.067189)">
                <path d="M11.8135195,5.17455732 C11.8135195,8.02643468 9.45856871,10.3384505 6.55373099,10.3384505 C3.64889327,10.3384505 1.29394253,8.02643468 1.29394253,5.17455732 C1.29394253,2.32267996 3.64889327,0.0106641599 6.55373099,0.0106641599 C9.45856871,0.0106641599 11.8135195,2.32267996 11.8135195,5.17455732" id="Fill-1422" fill="#407BF7"></path>
                <path d="M11.8135195,5.17455732 C11.8135195,8.02643468 9.45856871,10.3384505 6.55373099,10.3384505 C3.64889327,10.3384505 1.29394253,8.02643468 1.29394253,5.17455732 C1.29394253,2.32267996 3.64889327,0.0106641599 6.55373099,0.0106641599 C9.45856871,0.0106641599 11.8135195,2.32267996 11.8135195,5.17455732 Z" id="Stroke-1424" stroke="#231F20" stroke-width="0.64633538"></path>
                <path d="M10.6584153,5.17455732 C10.6584153,8.02643468 8.30346452,10.3384505 5.3986268,10.3384505 C2.49378908,10.3384505 0.138838335,8.02643468 0.138838335,5.17455732 C0.138838335,2.32267996 2.49378908,0.0106641599 5.3986268,0.0106641599 C8.30346452,0.0106641599 10.6584153,2.32267996 10.6584153,5.17455732" id="Fill-1426" fill="#407BF7"></path>
                <path d="M10.6584153,5.17455732 C10.6584153,8.02643468 8.30346452,10.3384505 5.3986268,10.3384505 C2.49378908,10.3384505 0.138838335,8.02643468 0.138838335,5.17455732 C0.138838335,2.32267996 2.49378908,0.0106641599 5.3986268,0.0106641599 C8.30346452,0.0106641599 10.6584153,2.32267996 10.6584153,5.17455732 Z" id="Stroke-1428" stroke="#231F20" stroke-width="0.64633538"></path>
                <path d="M8.63804171,5.17455732 C8.63804171,6.93095163 7.18784289,8.35471075 5.39883172,8.35471075 C3.60947901,8.35471075 2.15928019,6.93095163 2.15928019,5.17455732 C2.15928019,3.41816301 3.60947901,1.9944039 5.39883172,1.9944039 C7.18784289,1.9944039 8.63804171,3.41816301 8.63804171,5.17455732" id="Fill-1430" fill="#407BF7"></path>
                <path d="M8.63804171,5.17455732 C8.63804171,6.93095163 7.18784289,8.35471075 5.39883172,8.35471075 C3.60947901,8.35471075 2.15928019,6.93095163 2.15928019,5.17455732 C2.15928019,3.41816301 3.60947901,1.9944039 5.39883172,1.9944039 C7.18784289,1.9944039 8.63804171,3.41816301 8.63804171,5.17455732 Z" id="Stroke-1432" stroke="#231F20" stroke-width="0.64633538"></path>
                <g id="Group-1437" transform="translate(9.110842, 1.437911)"></g>
                <g id="Group-1441" transform="translate(10.619582, 5.126406)"></g>
                <g id="Group-1445" transform="translate(9.452387, 8.339621)"></g>
            </g>
            <g id="Group-74" transform="translate(18.740624, 5.670589)">
                <path d="M11.8135195,5.17455732 C11.8135195,8.02643468 9.45856871,10.3384505 6.55373099,10.3384505 C3.64889327,10.3384505 1.29394253,8.02643468 1.29394253,5.17455732 C1.29394253,2.32267996 3.64889327,0.0106641599 6.55373099,0.0106641599 C9.45856871,0.0106641599 11.8135195,2.32267996 11.8135195,5.17455732" id="Fill-1422" fill="#407BF7"></path>
                <path d="M11.8135195,5.17455732 C11.8135195,8.02643468 9.45856871,10.3384505 6.55373099,10.3384505 C3.64889327,10.3384505 1.29394253,8.02643468 1.29394253,5.17455732 C1.29394253,2.32267996 3.64889327,0.0106641599 6.55373099,0.0106641599 C9.45856871,0.0106641599 11.8135195,2.32267996 11.8135195,5.17455732 Z" id="Stroke-1424" stroke="#231F20" stroke-width="0.64633538"></path>
                <path d="M10.6584153,5.17455732 C10.6584153,8.02643468 8.30346452,10.3384505 5.3986268,10.3384505 C2.49378908,10.3384505 0.138838335,8.02643468 0.138838335,5.17455732 C0.138838335,2.32267996 2.49378908,0.0106641599 5.3986268,0.0106641599 C8.30346452,0.0106641599 10.6584153,2.32267996 10.6584153,5.17455732" id="Fill-1426" fill="#407BF7"></path>
                <path d="M10.6584153,5.17455732 C10.6584153,8.02643468 8.30346452,10.3384505 5.3986268,10.3384505 C2.49378908,10.3384505 0.138838335,8.02643468 0.138838335,5.17455732 C0.138838335,2.32267996 2.49378908,0.0106641599 5.3986268,0.0106641599 C8.30346452,0.0106641599 10.6584153,2.32267996 10.6584153,5.17455732 Z" id="Stroke-1428" stroke="#231F20" stroke-width="0.64633538"></path>
                <path d="M8.63804171,5.17455732 C8.63804171,6.93095163 7.18784289,8.35471075 5.39883172,8.35471075 C3.60947901,8.35471075 2.15928019,6.93095163 2.15928019,5.17455732 C2.15928019,3.41816301 3.60947901,1.9944039 5.39883172,1.9944039 C7.18784289,1.9944039 8.63804171,3.41816301 8.63804171,5.17455732" id="Fill-1430" fill="#407BF7"></path>
                <path d="M8.63804171,5.17455732 C8.63804171,6.93095163 7.18784289,8.35471075 5.39883172,8.35471075 C3.60947901,8.35471075 2.15928019,6.93095163 2.15928019,5.17455732 C2.15928019,3.41816301 3.60947901,1.9944039 5.39883172,1.9944039 C7.18784289,1.9944039 8.63804171,3.41816301 8.63804171,5.17455732 Z" id="Stroke-1432" stroke="#231F20" stroke-width="0.64633538"></path>
                <g id="Group-1437" transform="translate(9.110842, 1.437911)"></g>
                <g id="Group-1441" transform="translate(10.619582, 5.126406)"></g>
                <g id="Group-1445" transform="translate(9.452387, 8.339621)"></g>
            </g>
            <g id="Group-74" transform="translate(78.647303, 21.685304)">
                <path d="M11.8135195,5.17455732 C11.8135195,8.02643468 9.45856871,10.3384505 6.55373099,10.3384505 C3.64889327,10.3384505 1.29394253,8.02643468 1.29394253,5.17455732 C1.29394253,2.32267996 3.64889327,0.0106641599 6.55373099,0.0106641599 C9.45856871,0.0106641599 11.8135195,2.32267996 11.8135195,5.17455732" id="Fill-1422" fill="#407BF7"></path>
                <path d="M11.8135195,5.17455732 C11.8135195,8.02643468 9.45856871,10.3384505 6.55373099,10.3384505 C3.64889327,10.3384505 1.29394253,8.02643468 1.29394253,5.17455732 C1.29394253,2.32267996 3.64889327,0.0106641599 6.55373099,0.0106641599 C9.45856871,0.0106641599 11.8135195,2.32267996 11.8135195,5.17455732 Z" id="Stroke-1424" stroke="#231F20" stroke-width="0.64633538"></path>
                <path d="M10.6584153,5.17455732 C10.6584153,8.02643468 8.30346452,10.3384505 5.3986268,10.3384505 C2.49378908,10.3384505 0.138838335,8.02643468 0.138838335,5.17455732 C0.138838335,2.32267996 2.49378908,0.0106641599 5.3986268,0.0106641599 C8.30346452,0.0106641599 10.6584153,2.32267996 10.6584153,5.17455732" id="Fill-1426" fill="#407BF7"></path>
                <path d="M10.6584153,5.17455732 C10.6584153,8.02643468 8.30346452,10.3384505 5.3986268,10.3384505 C2.49378908,10.3384505 0.138838335,8.02643468 0.138838335,5.17455732 C0.138838335,2.32267996 2.49378908,0.0106641599 5.3986268,0.0106641599 C8.30346452,0.0106641599 10.6584153,2.32267996 10.6584153,5.17455732 Z" id="Stroke-1428" stroke="#231F20" stroke-width="0.64633538"></path>
                <path d="M8.63804171,5.17455732 C8.63804171,6.93095163 7.18784289,8.35471075 5.39883172,8.35471075 C3.60947901,8.35471075 2.15928019,6.93095163 2.15928019,5.17455732 C2.15928019,3.41816301 3.60947901,1.9944039 5.39883172,1.9944039 C7.18784289,1.9944039 8.63804171,3.41816301 8.63804171,5.17455732" id="Fill-1430" fill="#407BF7"></path>
                <path d="M8.63804171,5.17455732 C8.63804171,6.93095163 7.18784289,8.35471075 5.39883172,8.35471075 C3.60947901,8.35471075 2.15928019,6.93095163 2.15928019,5.17455732 C2.15928019,3.41816301 3.60947901,1.9944039 5.39883172,1.9944039 C7.18784289,1.9944039 8.63804171,3.41816301 8.63804171,5.17455732 Z" id="Stroke-1432" stroke="#231F20" stroke-width="0.64633538"></path>
                <g id="Group-1437" transform="translate(9.110842, 1.437911)"></g>
                <g id="Group-1441" transform="translate(10.619582, 5.126406)"></g>
                <g id="Group-1445" transform="translate(9.452387, 8.339621)"></g>
            </g>
            <g id="Group-74" transform="translate(29.775934, 6.149564)">
                <path d="M11.8135195,5.17455732 C11.8135195,8.02643468 9.45856871,10.3384505 6.55373099,10.3384505 C3.64889327,10.3384505 1.29394253,8.02643468 1.29394253,5.17455732 C1.29394253,2.32267996 3.64889327,0.0106641599 6.55373099,0.0106641599 C9.45856871,0.0106641599 11.8135195,2.32267996 11.8135195,5.17455732" id="Fill-1422" fill="#407BF7"></path>
                <path d="M11.8135195,5.17455732 C11.8135195,8.02643468 9.45856871,10.3384505 6.55373099,10.3384505 C3.64889327,10.3384505 1.29394253,8.02643468 1.29394253,5.17455732 C1.29394253,2.32267996 3.64889327,0.0106641599 6.55373099,0.0106641599 C9.45856871,0.0106641599 11.8135195,2.32267996 11.8135195,5.17455732 Z" id="Stroke-1424" stroke="#231F20" stroke-width="0.64633538"></path>
                <path d="M10.6584153,5.17455732 C10.6584153,8.02643468 8.30346452,10.3384505 5.3986268,10.3384505 C2.49378908,10.3384505 0.138838335,8.02643468 0.138838335,5.17455732 C0.138838335,2.32267996 2.49378908,0.0106641599 5.3986268,0.0106641599 C8.30346452,0.0106641599 10.6584153,2.32267996 10.6584153,5.17455732" id="Fill-1426" fill="#407BF7"></path>
                <path d="M10.6584153,5.17455732 C10.6584153,8.02643468 8.30346452,10.3384505 5.3986268,10.3384505 C2.49378908,10.3384505 0.138838335,8.02643468 0.138838335,5.17455732 C0.138838335,2.32267996 2.49378908,0.0106641599 5.3986268,0.0106641599 C8.30346452,0.0106641599 10.6584153,2.32267996 10.6584153,5.17455732 Z" id="Stroke-1428" stroke="#231F20" stroke-width="0.64633538"></path>
                <path d="M8.63804171,5.17455732 C8.63804171,6.93095163 7.18784289,8.35471075 5.39883172,8.35471075 C3.60947901,8.35471075 2.15928019,6.93095163 2.15928019,5.17455732 C2.15928019,3.41816301 3.60947901,1.9944039 5.39883172,1.9944039 C7.18784289,1.9944039 8.63804171,3.41816301 8.63804171,5.17455732" id="Fill-1430" fill="#407BF7"></path>
                <path d="M8.63804171,5.17455732 C8.63804171,6.93095163 7.18784289,8.35471075 5.39883172,8.35471075 C3.60947901,8.35471075 2.15928019,6.93095163 2.15928019,5.17455732 C2.15928019,3.41816301 3.60947901,1.9944039 5.39883172,1.9944039 C7.18784289,1.9944039 8.63804171,3.41816301 8.63804171,5.17455732 Z" id="Stroke-1432" stroke="#231F20" stroke-width="0.64633538"></path>
                <g id="Group-1437" transform="translate(9.110842, 1.437911)"></g>
                <g id="Group-1441" transform="translate(10.619582, 5.126406)"></g>
                <g id="Group-1445" transform="translate(9.452387, 8.339621)"></g>
            </g>
            <g id="Group-74" transform="translate(46.929461, 14.241095)">
                <path d="M11.8135195,5.17455732 C11.8135195,8.02643468 9.45856871,10.3384505 6.55373099,10.3384505 C3.64889327,10.3384505 1.29394253,8.02643468 1.29394253,5.17455732 C1.29394253,2.32267996 3.64889327,0.0106641599 6.55373099,0.0106641599 C9.45856871,0.0106641599 11.8135195,2.32267996 11.8135195,5.17455732" id="Fill-1422" fill="#407BF7"></path>
                <path d="M11.8135195,5.17455732 C11.8135195,8.02643468 9.45856871,10.3384505 6.55373099,10.3384505 C3.64889327,10.3384505 1.29394253,8.02643468 1.29394253,5.17455732 C1.29394253,2.32267996 3.64889327,0.0106641599 6.55373099,0.0106641599 C9.45856871,0.0106641599 11.8135195,2.32267996 11.8135195,5.17455732 Z" id="Stroke-1424" stroke="#231F20" stroke-width="0.64633538"></path>
                <path d="M10.6584153,5.17455732 C10.6584153,8.02643468 8.30346452,10.3384505 5.3986268,10.3384505 C2.49378908,10.3384505 0.138838335,8.02643468 0.138838335,5.17455732 C0.138838335,2.32267996 2.49378908,0.0106641599 5.3986268,0.0106641599 C8.30346452,0.0106641599 10.6584153,2.32267996 10.6584153,5.17455732" id="Fill-1426" fill="#407BF7"></path>
                <path d="M10.6584153,5.17455732 C10.6584153,8.02643468 8.30346452,10.3384505 5.3986268,10.3384505 C2.49378908,10.3384505 0.138838335,8.02643468 0.138838335,5.17455732 C0.138838335,2.32267996 2.49378908,0.0106641599 5.3986268,0.0106641599 C8.30346452,0.0106641599 10.6584153,2.32267996 10.6584153,5.17455732 Z" id="Stroke-1428" stroke="#231F20" stroke-width="0.64633538"></path>
                <path d="M8.63804171,5.17455732 C8.63804171,6.93095163 7.18784289,8.35471075 5.39883172,8.35471075 C3.60947901,8.35471075 2.15928019,6.93095163 2.15928019,5.17455732 C2.15928019,3.41816301 3.60947901,1.9944039 5.39883172,1.9944039 C7.18784289,1.9944039 8.63804171,3.41816301 8.63804171,5.17455732" id="Fill-1430" fill="#407BF7"></path>
                <path d="M8.63804171,5.17455732 C8.63804171,6.93095163 7.18784289,8.35471075 5.39883172,8.35471075 C3.60947901,8.35471075 2.15928019,6.93095163 2.15928019,5.17455732 C2.15928019,3.41816301 3.60947901,1.9944039 5.39883172,1.9944039 C7.18784289,1.9944039 8.63804171,3.41816301 8.63804171,5.17455732 Z" id="Stroke-1432" stroke="#231F20" stroke-width="0.64633538"></path>
                <g id="Group-1437" transform="translate(9.110842, 1.437911)"></g>
                <g id="Group-1441" transform="translate(10.619582, 5.126406)"></g>
                <g id="Group-1445" transform="translate(9.452387, 8.339621)"></g>
            </g>
            <g id="Group-74" transform="translate(53.726141, 10.357160)">
                <path d="M11.8135195,5.17455732 C11.8135195,8.02643468 9.45856871,10.3384505 6.55373099,10.3384505 C3.64889327,10.3384505 1.29394253,8.02643468 1.29394253,5.17455732 C1.29394253,2.32267996 3.64889327,0.0106641599 6.55373099,0.0106641599 C9.45856871,0.0106641599 11.8135195,2.32267996 11.8135195,5.17455732" id="Fill-1422" fill="#407BF7"></path>
                <path d="M11.8135195,5.17455732 C11.8135195,8.02643468 9.45856871,10.3384505 6.55373099,10.3384505 C3.64889327,10.3384505 1.29394253,8.02643468 1.29394253,5.17455732 C1.29394253,2.32267996 3.64889327,0.0106641599 6.55373099,0.0106641599 C9.45856871,0.0106641599 11.8135195,2.32267996 11.8135195,5.17455732 Z" id="Stroke-1424" stroke="#231F20" stroke-width="0.64633538"></path>
                <path d="M10.6584153,5.17455732 C10.6584153,8.02643468 8.30346452,10.3384505 5.3986268,10.3384505 C2.49378908,10.3384505 0.138838335,8.02643468 0.138838335,5.17455732 C0.138838335,2.32267996 2.49378908,0.0106641599 5.3986268,0.0106641599 C8.30346452,0.0106641599 10.6584153,2.32267996 10.6584153,5.17455732" id="Fill-1426" fill="#407BF7"></path>
                <path d="M10.6584153,5.17455732 C10.6584153,8.02643468 8.30346452,10.3384505 5.3986268,10.3384505 C2.49378908,10.3384505 0.138838335,8.02643468 0.138838335,5.17455732 C0.138838335,2.32267996 2.49378908,0.0106641599 5.3986268,0.0106641599 C8.30346452,0.0106641599 10.6584153,2.32267996 10.6584153,5.17455732 Z" id="Stroke-1428" stroke="#231F20" stroke-width="0.64633538"></path>
                <path d="M8.63804171,5.17455732 C8.63804171,6.93095163 7.18784289,8.35471075 5.39883172,8.35471075 C3.60947901,8.35471075 2.15928019,6.93095163 2.15928019,5.17455732 C2.15928019,3.41816301 3.60947901,1.9944039 5.39883172,1.9944039 C7.18784289,1.9944039 8.63804171,3.41816301 8.63804171,5.17455732" id="Fill-1430" fill="#407BF7"></path>
                <path d="M8.63804171,5.17455732 C8.63804171,6.93095163 7.18784289,8.35471075 5.39883172,8.35471075 C3.60947901,8.35471075 2.15928019,6.93095163 2.15928019,5.17455732 C2.15928019,3.41816301 3.60947901,1.9944039 5.39883172,1.9944039 C7.18784289,1.9944039 8.63804171,3.41816301 8.63804171,5.17455732 Z" id="Stroke-1432" stroke="#231F20" stroke-width="0.64633538"></path>
                <g id="Group-1437" transform="translate(9.110842, 1.437911)"></g>
                <g id="Group-1441" transform="translate(10.619582, 5.126406)"></g>
                <g id="Group-1445" transform="translate(9.452387, 8.339621)"></g>
            </g>
            <g id="Group-74" transform="translate(72.497925, 17.154046)">
                <path d="M11.8135195,5.17455732 C11.8135195,8.02643468 9.45856871,10.3384505 6.55373099,10.3384505 C3.64889327,10.3384505 1.29394253,8.02643468 1.29394253,5.17455732 C1.29394253,2.32267996 3.64889327,0.0106641599 6.55373099,0.0106641599 C9.45856871,0.0106641599 11.8135195,2.32267996 11.8135195,5.17455732" id="Fill-1422" fill="#407BF7"></path>
                <path d="M11.8135195,5.17455732 C11.8135195,8.02643468 9.45856871,10.3384505 6.55373099,10.3384505 C3.64889327,10.3384505 1.29394253,8.02643468 1.29394253,5.17455732 C1.29394253,2.32267996 3.64889327,0.0106641599 6.55373099,0.0106641599 C9.45856871,0.0106641599 11.8135195,2.32267996 11.8135195,5.17455732 Z" id="Stroke-1424" stroke="#231F20" stroke-width="0.64633538"></path>
                <path d="M10.6584153,5.17455732 C10.6584153,8.02643468 8.30346452,10.3384505 5.3986268,10.3384505 C2.49378908,10.3384505 0.138838335,8.02643468 0.138838335,5.17455732 C0.138838335,2.32267996 2.49378908,0.0106641599 5.3986268,0.0106641599 C8.30346452,0.0106641599 10.6584153,2.32267996 10.6584153,5.17455732" id="Fill-1426" fill="#407BF7"></path>
                <path d="M10.6584153,5.17455732 C10.6584153,8.02643468 8.30346452,10.3384505 5.3986268,10.3384505 C2.49378908,10.3384505 0.138838335,8.02643468 0.138838335,5.17455732 C0.138838335,2.32267996 2.49378908,0.0106641599 5.3986268,0.0106641599 C8.30346452,0.0106641599 10.6584153,2.32267996 10.6584153,5.17455732 Z" id="Stroke-1428" stroke="#231F20" stroke-width="0.64633538"></path>
                <path d="M8.63804171,5.17455732 C8.63804171,6.93095163 7.18784289,8.35471075 5.39883172,8.35471075 C3.60947901,8.35471075 2.15928019,6.93095163 2.15928019,5.17455732 C2.15928019,3.41816301 3.60947901,1.9944039 5.39883172,1.9944039 C7.18784289,1.9944039 8.63804171,3.41816301 8.63804171,5.17455732" id="Fill-1430" fill="#407BF7"></path>
                <path d="M8.63804171,5.17455732 C8.63804171,6.93095163 7.18784289,8.35471075 5.39883172,8.35471075 C3.60947901,8.35471075 2.15928019,6.93095163 2.15928019,5.17455732 C2.15928019,3.41816301 3.60947901,1.9944039 5.39883172,1.9944039 C7.18784289,1.9944039 8.63804171,3.41816301 8.63804171,5.17455732 Z" id="Stroke-1432" stroke="#231F20" stroke-width="0.64633538"></path>
                <g id="Group-1437" transform="translate(9.110842, 1.437911)"></g>
                <g id="Group-1441" transform="translate(10.619582, 5.126406)"></g>
                <g id="Group-1445" transform="translate(9.452387, 8.339621)"></g>
            </g>
            <g id="Group-74" transform="translate(78.970954, 13.917434)">
                <path d="M11.6182799,5.17455732 C11.6182799,8.02643468 9.30224896,10.3384505 6.44541888,10.3384505 C3.58858879,10.3384505 1.27255782,8.02643468 1.27255782,5.17455732 C1.27255782,2.32267996 3.58858879,0.0106641599 6.44541888,0.0106641599 C9.30224896,0.0106641599 11.6182799,2.32267996 11.6182799,5.17455732" id="Fill-1422" stroke="#000000" stroke-width="0.64633538" fill="#4FE2DF"></path>
                <path d="M10.4822659,5.17455732 C10.4822659,8.02643468 8.16623493,10.3384505 5.30940484,10.3384505 C2.45257476,10.3384505 0.136543784,8.02643468 0.136543784,5.17455732 C0.136543784,2.32267996 2.45257476,0.0106641599 5.30940484,0.0106641599 C8.16623493,0.0106641599 10.4822659,2.32267996 10.4822659,5.17455732" id="Fill-1426" stroke="#000000" stroke-width="0.64633538" fill="#4FE2DF"></path>
                <path d="M8.49528264,5.17455732 C8.49528264,6.93095163 7.06905094,8.35471075 5.30960638,8.35471075 C3.54982592,8.35471075 2.12359423,6.93095163 2.12359423,5.17455732 C2.12359423,3.41816301 3.54982592,1.9944039 5.30960638,1.9944039 C7.06905094,1.9944039 8.49528264,3.41816301 8.49528264,5.17455732" id="Fill-1430" stroke="#000000" stroke-width="0.64633538" fill="#4FE2DF"></path>
                <g id="Group-1445" transform="translate(7.753918, 0.641732)"></g>
            </g>
            <g id="Group-74" transform="translate(46.282158, 11.004483)">
                <path d="M12.0334025,5.17455732 C12.0334025,8.02643468 9.63461944,10.3384505 6.67571447,10.3384505 C3.7168095,10.3384505 1.31802646,8.02643468 1.31802646,5.17455732 C1.31802646,2.32267996 3.7168095,0.0106641599 6.67571447,0.0106641599 C9.63461944,0.0106641599 12.0334025,2.32267996 12.0334025,5.17455732" id="Fill-1422" stroke="#000000" stroke-width="0.64633538" fill="#4FE2DF"></path>
                <path d="M10.8567985,5.17455732 C10.8567985,8.02643468 8.45801549,10.3384505 5.49911052,10.3384505 C2.54020555,10.3384505 0.141422509,8.02643468 0.141422509,5.17455732 C0.141422509,2.32267996 2.54020555,0.0106641599 5.49911052,0.0106641599 C8.45801549,0.0106641599 10.8567985,2.32267996 10.8567985,5.17455732" id="Fill-1426" stroke="#000000" stroke-width="0.64633538" fill="#4FE2DF"></path>
                <path d="M8.79882011,5.17455732 C8.79882011,6.93095163 7.32162899,8.35471075 5.49931926,8.35471075 C3.67666163,8.35471075 2.19947051,6.93095163 2.19947051,5.17455732 C2.19947051,3.41816301 3.67666163,1.9944039 5.49931926,1.9944039 C7.32162899,1.9944039 8.79882011,3.41816301 8.79882011,5.17455732" id="Fill-1430" stroke="#000000" stroke-width="0.64633538" fill="#4FE2DF"></path>
                <g id="Group-1445" transform="translate(8.902251, 1.201579)"></g>
            </g>
            <g id="Group-74" transform="translate(86.738589, 17.154046)">
                <path d="M11.8135195,5.17455732 C11.8135195,8.02643468 9.45856871,10.3384505 6.55373099,10.3384505 C3.64889327,10.3384505 1.29394253,8.02643468 1.29394253,5.17455732 C1.29394253,2.32267996 3.64889327,0.0106641599 6.55373099,0.0106641599 C9.45856871,0.0106641599 11.8135195,2.32267996 11.8135195,5.17455732" id="Fill-1422" fill="#407BF7"></path>
                <path d="M11.8135195,5.17455732 C11.8135195,8.02643468 9.45856871,10.3384505 6.55373099,10.3384505 C3.64889327,10.3384505 1.29394253,8.02643468 1.29394253,5.17455732 C1.29394253,2.32267996 3.64889327,0.0106641599 6.55373099,0.0106641599 C9.45856871,0.0106641599 11.8135195,2.32267996 11.8135195,5.17455732 Z" id="Stroke-1424" stroke="#231F20" stroke-width="0.64633538"></path>
                <path d="M10.6584153,5.17455732 C10.6584153,8.02643468 8.30346452,10.3384505 5.3986268,10.3384505 C2.49378908,10.3384505 0.138838335,8.02643468 0.138838335,5.17455732 C0.138838335,2.32267996 2.49378908,0.0106641599 5.3986268,0.0106641599 C8.30346452,0.0106641599 10.6584153,2.32267996 10.6584153,5.17455732" id="Fill-1426" fill="#407BF7"></path>
                <path d="M10.6584153,5.17455732 C10.6584153,8.02643468 8.30346452,10.3384505 5.3986268,10.3384505 C2.49378908,10.3384505 0.138838335,8.02643468 0.138838335,5.17455732 C0.138838335,2.32267996 2.49378908,0.0106641599 5.3986268,0.0106641599 C8.30346452,0.0106641599 10.6584153,2.32267996 10.6584153,5.17455732 Z" id="Stroke-1428" stroke="#231F20" stroke-width="0.64633538"></path>
                <path d="M8.63804171,5.17455732 C8.63804171,6.93095163 7.18784289,8.35471075 5.39883172,8.35471075 C3.60947901,8.35471075 2.15928019,6.93095163 2.15928019,5.17455732 C2.15928019,3.41816301 3.60947901,1.9944039 5.39883172,1.9944039 C7.18784289,1.9944039 8.63804171,3.41816301 8.63804171,5.17455732" id="Fill-1430" fill="#407BF7"></path>
                <path d="M8.63804171,5.17455732 C8.63804171,6.93095163 7.18784289,8.35471075 5.39883172,8.35471075 C3.60947901,8.35471075 2.15928019,6.93095163 2.15928019,5.17455732 C2.15928019,3.41816301 3.60947901,1.9944039 5.39883172,1.9944039 C7.18784289,1.9944039 8.63804171,3.41816301 8.63804171,5.17455732 Z" id="Stroke-1432" stroke="#231F20" stroke-width="0.64633538"></path>
                <g id="Group-1437" transform="translate(9.110842, 1.437911)"></g>
                <g id="Group-1441" transform="translate(10.619582, 5.126406)"></g>
                <g id="Group-1445" transform="translate(9.452387, 8.339621)"></g>
            </g>
            <g id="Group-74" transform="translate(38.190871, 11.328144)">
                <path d="M11.8135195,5.17455732 C11.8135195,8.02643468 9.45856871,10.3384505 6.55373099,10.3384505 C3.64889327,10.3384505 1.29394253,8.02643468 1.29394253,5.17455732 C1.29394253,2.32267996 3.64889327,0.0106641599 6.55373099,0.0106641599 C9.45856871,0.0106641599 11.8135195,2.32267996 11.8135195,5.17455732" id="Fill-1422" fill="#407BF7"></path>
                <path d="M11.8135195,5.17455732 C11.8135195,8.02643468 9.45856871,10.3384505 6.55373099,10.3384505 C3.64889327,10.3384505 1.29394253,8.02643468 1.29394253,5.17455732 C1.29394253,2.32267996 3.64889327,0.0106641599 6.55373099,0.0106641599 C9.45856871,0.0106641599 11.8135195,2.32267996 11.8135195,5.17455732 Z" id="Stroke-1424" stroke="#231F20" stroke-width="0.64633538"></path>
                <path d="M10.6584153,5.17455732 C10.6584153,8.02643468 8.30346452,10.3384505 5.3986268,10.3384505 C2.49378908,10.3384505 0.138838335,8.02643468 0.138838335,5.17455732 C0.138838335,2.32267996 2.49378908,0.0106641599 5.3986268,0.0106641599 C8.30346452,0.0106641599 10.6584153,2.32267996 10.6584153,5.17455732" id="Fill-1426" fill="#407BF7"></path>
                <path d="M10.6584153,5.17455732 C10.6584153,8.02643468 8.30346452,10.3384505 5.3986268,10.3384505 C2.49378908,10.3384505 0.138838335,8.02643468 0.138838335,5.17455732 C0.138838335,2.32267996 2.49378908,0.0106641599 5.3986268,0.0106641599 C8.30346452,0.0106641599 10.6584153,2.32267996 10.6584153,5.17455732 Z" id="Stroke-1428" stroke="#231F20" stroke-width="0.64633538"></path>
                <path d="M8.63804171,5.17455732 C8.63804171,6.93095163 7.18784289,8.35471075 5.39883172,8.35471075 C3.60947901,8.35471075 2.15928019,6.93095163 2.15928019,5.17455732 C2.15928019,3.41816301 3.60947901,1.9944039 5.39883172,1.9944039 C7.18784289,1.9944039 8.63804171,3.41816301 8.63804171,5.17455732" id="Fill-1430" fill="#407BF7"></path>
                <path d="M8.63804171,5.17455732 C8.63804171,6.93095163 7.18784289,8.35471075 5.39883172,8.35471075 C3.60947901,8.35471075 2.15928019,6.93095163 2.15928019,5.17455732 C2.15928019,3.41816301 3.60947901,1.9944039 5.39883172,1.9944039 C7.18784289,1.9944039 8.63804171,3.41816301 8.63804171,5.17455732 Z" id="Stroke-1432" stroke="#231F20" stroke-width="0.64633538"></path>
                <g id="Group-1437" transform="translate(9.110842, 1.437911)"></g>
                <g id="Group-1441" transform="translate(10.619582, 5.126406)"></g>
                <g id="Group-1445" transform="translate(9.452387, 8.339621)"></g>
            </g>
            <g id="Group-74" transform="translate(88.033195, 19.096014)">
                <path d="M11.8135195,5.17455732 C11.8135195,8.02643468 9.45856871,10.3384505 6.55373099,10.3384505 C3.64889327,10.3384505 1.29394253,8.02643468 1.29394253,5.17455732 C1.29394253,2.32267996 3.64889327,0.0106641599 6.55373099,0.0106641599 C9.45856871,0.0106641599 11.8135195,2.32267996 11.8135195,5.17455732" id="Fill-1422" fill="#407BF7"></path>
                <path d="M11.8135195,5.17455732 C11.8135195,8.02643468 9.45856871,10.3384505 6.55373099,10.3384505 C3.64889327,10.3384505 1.29394253,8.02643468 1.29394253,5.17455732 C1.29394253,2.32267996 3.64889327,0.0106641599 6.55373099,0.0106641599 C9.45856871,0.0106641599 11.8135195,2.32267996 11.8135195,5.17455732 Z" id="Stroke-1424" stroke="#231F20" stroke-width="0.64633538"></path>
                <path d="M10.6584153,5.17455732 C10.6584153,8.02643468 8.30346452,10.3384505 5.3986268,10.3384505 C2.49378908,10.3384505 0.138838335,8.02643468 0.138838335,5.17455732 C0.138838335,2.32267996 2.49378908,0.0106641599 5.3986268,0.0106641599 C8.30346452,0.0106641599 10.6584153,2.32267996 10.6584153,5.17455732" id="Fill-1426" fill="#407BF7"></path>
                <path d="M10.6584153,5.17455732 C10.6584153,8.02643468 8.30346452,10.3384505 5.3986268,10.3384505 C2.49378908,10.3384505 0.138838335,8.02643468 0.138838335,5.17455732 C0.138838335,2.32267996 2.49378908,0.0106641599 5.3986268,0.0106641599 C8.30346452,0.0106641599 10.6584153,2.32267996 10.6584153,5.17455732 Z" id="Stroke-1428" stroke="#231F20" stroke-width="0.64633538"></path>
                <path d="M8.63804171,5.17455732 C8.63804171,6.93095163 7.18784289,8.35471075 5.39883172,8.35471075 C3.60947901,8.35471075 2.15928019,6.93095163 2.15928019,5.17455732 C2.15928019,3.41816301 3.60947901,1.9944039 5.39883172,1.9944039 C7.18784289,1.9944039 8.63804171,3.41816301 8.63804171,5.17455732" id="Fill-1430" fill="#407BF7"></path>
                <path d="M8.63804171,5.17455732 C8.63804171,6.93095163 7.18784289,8.35471075 5.39883172,8.35471075 C3.60947901,8.35471075 2.15928019,6.93095163 2.15928019,5.17455732 C2.15928019,3.41816301 3.60947901,1.9944039 5.39883172,1.9944039 C7.18784289,1.9944039 8.63804171,3.41816301 8.63804171,5.17455732 Z" id="Stroke-1432" stroke="#231F20" stroke-width="0.64633538"></path>
                <g id="Group-1437" transform="translate(9.110842, 1.437911)"></g>
                <g id="Group-1441" transform="translate(10.619582, 5.126406)"></g>
                <g id="Group-1445" transform="translate(9.452387, 8.339621)"></g>
            </g>
            <g id="Group-74" transform="translate(98.390041, 19.419675)">
                <path d="M11.8135195,5.17455732 C11.8135195,8.02643468 9.45856871,10.3384505 6.55373099,10.3384505 C3.64889327,10.3384505 1.29394253,8.02643468 1.29394253,5.17455732 C1.29394253,2.32267996 3.64889327,0.0106641599 6.55373099,0.0106641599 C9.45856871,0.0106641599 11.8135195,2.32267996 11.8135195,5.17455732" id="Fill-1422" fill="#4FE2DF"></path>
                <path d="M11.8135195,5.17455732 C11.8135195,8.02643468 9.45856871,10.3384505 6.55373099,10.3384505 C3.64889327,10.3384505 1.29394253,8.02643468 1.29394253,5.17455732 C1.29394253,2.32267996 3.64889327,0.0106641599 6.55373099,0.0106641599 C9.45856871,0.0106641599 11.8135195,2.32267996 11.8135195,5.17455732 Z" id="Stroke-1424" stroke="#231F20" stroke-width="0.64633538"></path>
                <path d="M10.6584153,5.17455732 C10.6584153,8.02643468 8.30346452,10.3384505 5.3986268,10.3384505 C2.49378908,10.3384505 0.138838335,8.02643468 0.138838335,5.17455732 C0.138838335,2.32267996 2.49378908,0.0106641599 5.3986268,0.0106641599 C8.30346452,0.0106641599 10.6584153,2.32267996 10.6584153,5.17455732" id="Fill-1426" fill="#4FE2DF"></path>
                <path d="M10.6584153,5.17455732 C10.6584153,8.02643468 8.30346452,10.3384505 5.3986268,10.3384505 C2.49378908,10.3384505 0.138838335,8.02643468 0.138838335,5.17455732 C0.138838335,2.32267996 2.49378908,0.0106641599 5.3986268,0.0106641599 C8.30346452,0.0106641599 10.6584153,2.32267996 10.6584153,5.17455732 Z" id="Stroke-1428" stroke="#231F20" stroke-width="0.64633538"></path>
                <path d="M8.63804171,5.17455732 C8.63804171,6.93095163 7.18784289,8.35471075 5.39883172,8.35471075 C3.60947901,8.35471075 2.15928019,6.93095163 2.15928019,5.17455732 C2.15928019,3.41816301 3.60947901,1.9944039 5.39883172,1.9944039 C7.18784289,1.9944039 8.63804171,3.41816301 8.63804171,5.17455732" id="Fill-1430" fill="#4FE2DF"></path>
                <path d="M8.63804171,5.17455732 C8.63804171,6.93095163 7.18784289,8.35471075 5.39883172,8.35471075 C3.60947901,8.35471075 2.15928019,6.93095163 2.15928019,5.17455732 C2.15928019,3.41816301 3.60947901,1.9944039 5.39883172,1.9944039 C7.18784289,1.9944039 8.63804171,3.41816301 8.63804171,5.17455732 Z" id="Stroke-1432" stroke="#231F20" stroke-width="0.64633538"></path>
                <g id="Group-1437" transform="translate(9.110842, 1.437911)"></g>
                <g id="Group-1441" transform="translate(10.619582, 5.126406)"></g>
                <g id="Group-1445" transform="translate(9.452387, 8.339621)"></g>
            </g>
            <g id="Group-74" transform="translate(105.510373, 17.477708)">
                <path d="M11.8135195,5.17455732 C11.8135195,8.02643468 9.45856871,10.3384505 6.55373099,10.3384505 C3.64889327,10.3384505 1.29394253,8.02643468 1.29394253,5.17455732 C1.29394253,2.32267996 3.64889327,0.0106641599 6.55373099,0.0106641599 C9.45856871,0.0106641599 11.8135195,2.32267996 11.8135195,5.17455732" id="Fill-1422" fill="#407BF7"></path>
                <path d="M11.8135195,5.17455732 C11.8135195,8.02643468 9.45856871,10.3384505 6.55373099,10.3384505 C3.64889327,10.3384505 1.29394253,8.02643468 1.29394253,5.17455732 C1.29394253,2.32267996 3.64889327,0.0106641599 6.55373099,0.0106641599 C9.45856871,0.0106641599 11.8135195,2.32267996 11.8135195,5.17455732 Z" id="Stroke-1424" stroke="#231F20" stroke-width="0.64633538"></path>
                <path d="M10.6584153,5.17455732 C10.6584153,8.02643468 8.30346452,10.3384505 5.3986268,10.3384505 C2.49378908,10.3384505 0.138838335,8.02643468 0.138838335,5.17455732 C0.138838335,2.32267996 2.49378908,0.0106641599 5.3986268,0.0106641599 C8.30346452,0.0106641599 10.6584153,2.32267996 10.6584153,5.17455732" id="Fill-1426" fill="#407BF7"></path>
                <path d="M10.6584153,5.17455732 C10.6584153,8.02643468 8.30346452,10.3384505 5.3986268,10.3384505 C2.49378908,10.3384505 0.138838335,8.02643468 0.138838335,5.17455732 C0.138838335,2.32267996 2.49378908,0.0106641599 5.3986268,0.0106641599 C8.30346452,0.0106641599 10.6584153,2.32267996 10.6584153,5.17455732 Z" id="Stroke-1428" stroke="#231F20" stroke-width="0.64633538"></path>
                <path d="M8.63804171,5.17455732 C8.63804171,6.93095163 7.18784289,8.35471075 5.39883172,8.35471075 C3.60947901,8.35471075 2.15928019,6.93095163 2.15928019,5.17455732 C2.15928019,3.41816301 3.60947901,1.9944039 5.39883172,1.9944039 C7.18784289,1.9944039 8.63804171,3.41816301 8.63804171,5.17455732" id="Fill-1430" fill="#407BF7"></path>
                <path d="M8.63804171,5.17455732 C8.63804171,6.93095163 7.18784289,8.35471075 5.39883172,8.35471075 C3.60947901,8.35471075 2.15928019,6.93095163 2.15928019,5.17455732 C2.15928019,3.41816301 3.60947901,1.9944039 5.39883172,1.9944039 C7.18784289,1.9944039 8.63804171,3.41816301 8.63804171,5.17455732 Z" id="Stroke-1432" stroke="#231F20" stroke-width="0.64633538"></path>
                <g id="Group-1437" transform="translate(9.110842, 1.437911)"></g>
                <g id="Group-1441" transform="translate(10.619582, 5.126406)"></g>
                <g id="Group-1445" transform="translate(9.452387, 8.339621)"></g>
            </g>
            <g id="Group-74" transform="translate(57.286307, 12.622789)">
                <path d="M11.8135195,5.17455732 C11.8135195,8.02643468 9.45856871,10.3384505 6.55373099,10.3384505 C3.64889327,10.3384505 1.29394253,8.02643468 1.29394253,5.17455732 C1.29394253,2.32267996 3.64889327,0.0106641599 6.55373099,0.0106641599 C9.45856871,0.0106641599 11.8135195,2.32267996 11.8135195,5.17455732" id="Fill-1422" fill="#407BF7"></path>
                <path d="M11.8135195,5.17455732 C11.8135195,8.02643468 9.45856871,10.3384505 6.55373099,10.3384505 C3.64889327,10.3384505 1.29394253,8.02643468 1.29394253,5.17455732 C1.29394253,2.32267996 3.64889327,0.0106641599 6.55373099,0.0106641599 C9.45856871,0.0106641599 11.8135195,2.32267996 11.8135195,5.17455732 Z" id="Stroke-1424" stroke="#231F20" stroke-width="0.64633538"></path>
                <path d="M10.6584153,5.17455732 C10.6584153,8.02643468 8.30346452,10.3384505 5.3986268,10.3384505 C2.49378908,10.3384505 0.138838335,8.02643468 0.138838335,5.17455732 C0.138838335,2.32267996 2.49378908,0.0106641599 5.3986268,0.0106641599 C8.30346452,0.0106641599 10.6584153,2.32267996 10.6584153,5.17455732" id="Fill-1426" fill="#407BF7"></path>
                <path d="M10.6621377,5.16389316 C10.6621377,8.01577052 8.30718694,10.3277863 5.40234922,10.3277863 C2.4975115,10.3277863 0.142560759,8.01577052 0.142560759,5.16389316 C0.142560759,2.3120158 2.4975115,0 5.40234922,0 C8.30718694,0 10.6621377,2.3120158 10.6621377,5.16389316 Z" id="Stroke-1428" stroke="#231F20" stroke-width="0.64633538"></path>
                <path d="M8.63804171,5.17455732 C8.63804171,6.93095163 7.18784289,8.35471075 5.39883172,8.35471075 C3.60947901,8.35471075 2.15928019,6.93095163 2.15928019,5.17455732 C2.15928019,3.41816301 3.60947901,1.9944039 5.39883172,1.9944039 C7.18784289,1.9944039 8.63804171,3.41816301 8.63804171,5.17455732" id="Fill-1430" fill="#407BF7"></path>
                <path d="M8.63804171,5.17455732 C8.63804171,6.93095163 7.18784289,8.35471075 5.39883172,8.35471075 C3.60947901,8.35471075 2.15928019,6.93095163 2.15928019,5.17455732 C2.15928019,3.41816301 3.60947901,1.9944039 5.39883172,1.9944039 C7.18784289,1.9944039 8.63804171,3.41816301 8.63804171,5.17455732 Z" id="Stroke-1432" stroke="#231F20" stroke-width="0.64633538"></path>
                <g id="Group-1437" transform="translate(9.110842, 1.437911)"></g>
                <g id="Group-1441" transform="translate(10.619582, 5.126406)"></g>
                <g id="Group-1445" transform="translate(9.452387, 8.339621)"></g>
            </g>
        </g>
        <g id="Group-37" transform="translate(0.000000, 24.921916)">
            <g id="Fill-4398">
                <use fill="#E1E9F3" fill-rule="evenodd" xlink:href="#hodl-mobile-box-path-3"></use>
                <path stroke="#231F20" stroke-width="0.64633538" d="M197.837691,107.802092 L0.722957114,107.802092 L0.722957114,0.000493562225 L197.837691,0.000493562225 L197.837691,107.802092 Z"></path>
            </g>
            <path d="M1.0461248,107.517727 L188.893455,107.517727 L175.108034,97.1109439 C168.575427,91.7677071 159.661625,89.9879826 151.454641,92.3887145 C140.249846,95.6657643 128.095815,92.0927709 120.715449,83.3532942 C114.649356,76.1693834 105.494546,72.0498764 95.8682877,72.1731298 L82.3210564,72.34582 C68.2340217,72.5259595 55.3442793,64.757611 49.3782545,52.4932233 C44.0556633,39.7190531 33.7894954,42.5130862 31.685249,34.3282497 C29.568318,26.0966852 24.1984728,22.4850905 16.6207898,21.5972599 C6.34620423,18.2768682 11.9838369,4.67565545 1.0461248,0.362464644 L1.0461248,107.517727 Z" id="Fill-4400" fill="#FFFFFF" opacity="0.5"></path>
            <polygon id="Fill-4483" fill="#231F20" points="0.5 39.810334 196.968398 39.810334 196.968398 27.2972988 0.5 27.2972988"></polygon>
            <polygon id="Fill-4509" fill="#FFFFFF" opacity="0.300000012" points="117.237384 0.278364274 63.0051507 107.164977 96.6767004 107.164977 150.440688 0.00971413267"></polygon>
            <polygon id="Fill-4511" fill="#FFFFFF" opacity="0.2" points="160.504747 0.278364274 106.272513 107.164977 118.165216 107.164977 171.929204 0.00971413267"></polygon>
        </g>
        <g id="Group-12" transform="translate(196.705394, 25.245578)">
            <g id="Stroke-4397">
                <use fill="#BED1F4" fill-rule="evenodd" xlink:href="#hodl-mobile-box-path-4"></use>
                <path stroke="#231F20" stroke-width="0.64633538" d="M-0.32316769,107.656372 L-0.32316769,-0.32316769 L79.3376256,-0.32316769 L79.3376256,107.656372 L-0.32316769,107.656372 Z"></path>
            </g>
            <g id="Group-56" transform="translate(6.796680, 7.444209)">
                <g id="Fill-4405">
                    <use fill="#E1E9F3" fill-rule="evenodd" xlink:href="#hodl-mobile-box-path-5"></use>
                    <path stroke="#000000" stroke-width="0.64633538" d="M1.29460581,2.91245771 C0.401114045,2.91245771 -0.32316769,2.18815404 -0.32316769,1.29464501 C-0.32316769,0.401135976 0.401114045,-0.32316769 1.29460581,-0.32316769 C2.18809757,-0.32316769 2.91237931,0.401135976 2.91237931,1.29464501 C2.91237931,2.18815404 2.18809757,2.91245771 1.29460581,2.91245771 Z"></path>
                </g>
                <g id="Fill-4407">
                    <use fill="#E1E9F3" fill-rule="evenodd" xlink:href="#hodl-mobile-box-path-6"></use>
                    <path stroke="#000000" stroke-width="0.64633538" d="M63.4356846,2.91245771 C62.5421929,2.91245771 61.8179111,2.18815404 61.8179111,1.29464501 C61.8179111,0.401135976 62.5421929,-0.32316769 63.4356846,-0.32316769 C64.3291764,-0.32316769 65.0534581,0.401135976 65.0534581,1.29464501 C65.0534581,2.18815404 64.3291764,2.91245771 63.4356846,2.91245771 Z"></path>
                </g>
                <g id="Fill-4409">
                    <use fill="#E1E9F3" fill-rule="evenodd" xlink:href="#hodl-mobile-box-path-7"></use>
                    <path stroke="#000000" stroke-width="0.64633538" d="M1.29460581,92.5666245 C0.401114045,92.5666245 -0.32316769,91.8423209 -0.32316769,90.9488118 C-0.32316769,90.0553028 0.401114045,89.3309991 1.29460581,89.3309991 C2.18809757,89.3309991 2.91237931,90.0553028 2.91237931,90.9488118 C2.91237931,91.8423209 2.18809757,92.5666245 1.29460581,92.5666245 Z"></path>
                </g>
                <g id="Fill-4411">
                    <use fill="#E1E9F3" fill-rule="evenodd" xlink:href="#hodl-mobile-box-path-8"></use>
                    <path stroke="#000000" stroke-width="0.64633538" d="M63.4356846,92.5666245 C62.5421929,92.5666245 61.8179111,91.8423209 61.8179111,90.9488118 C61.8179111,90.0553028 62.5421929,89.3309991 63.4356846,89.3309991 C64.3291764,89.3309991 65.0534581,90.0553028 65.0534581,90.9488118 C65.0534581,91.8423209 64.3291764,92.5666245 63.4356846,92.5666245 Z"></path>
                </g>
            </g>
            <g id="Group-55" transform="translate(16.182573, 15.859401)">
                <g id="Stroke-4404">
                    <use fill="#BED1F4" fill-rule="evenodd" xlink:href="#hodl-mobile-box-path-9"></use>
                    <path stroke="#231F20" stroke-width="0.64633538" d="M-0.32316769,-0.307207877 L42.7215079,-0.323288441 L42.7215079,76.0599007 L-0.32316769,76.0599007 L-0.32316769,-0.307207877 Z"></path>
                </g>
                <g id="Stroke-4404">
                    <use fill="#E1E9F3" fill-rule="evenodd" xlink:href="#hodl-mobile-box-path-10"></use>
                    <path stroke="#231F20" stroke-width="0.64633538" d="M42.0751726,-0.30634163 L47.8999312,-0.324157666 L47.8999312,76.0599007 L42.0751726,76.0599007 L42.0751726,-0.30634163 Z"></path>
                </g>
            </g>
        </g>
    </g>
</svg>