<svg class="how-work__background balk-title" width="2840px" height="662px" viewBox="0 0 2560 662" version="1.1" xmlns="http://www.w3.org/2000/svg" xmlns:xlink="http://www.w3.org/1999/xlink">
    <defs>
        <polygon id="path-1" points="0.0407412077 0.191956461 845.297535 0.191956461 845.297535 233.305791 0.0407412077 233.305791"></polygon>
        <path d="M36.7734945,44.4187252 C33.7201837,44.4187252 31.245125,41.943677 31.245125,38.8903791 C31.245125,35.8370812 33.7201837,33.362033 36.7734945,33.362033 C39.8268053,33.362033 42.301864,35.8370812 42.301864,38.8903791 C42.301864,41.943677 39.8268053,44.4187252 36.7734945,44.4187252 Z" id="path-2"></path>
        <path d="M806.598948,44.4187252 C803.545637,44.4187252 801.070579,41.943677 801.070579,38.8903791 C801.070579,35.8370812 803.545637,33.362033 806.598948,33.362033 C809.652259,33.362033 812.127318,35.8370812 812.127318,38.8903791 C812.127318,41.943677 809.652259,44.4187252 806.598948,44.4187252 Z" id="path-3"></path>
        <path d="M36.7305724,200.853942 C33.6772616,200.853942 31.2022029,198.378893 31.2022029,195.325595 C31.2022029,192.272298 33.6772616,189.797249 36.7305724,189.797249 C39.7838831,189.797249 42.2589419,192.272298 42.2589419,195.325595 C42.2589419,198.378893 39.7838831,200.853942 36.7305724,200.853942 Z" id="path-4"></path>
        <path d="M807.079676,200.853942 C804.026365,200.853942 801.551306,198.378893 801.551306,195.325595 C801.551306,192.272298 804.026365,189.797249 807.079676,189.797249 C810.132987,189.797249 812.608045,192.272298 812.608045,195.325595 C812.608045,198.378893 810.132987,200.853942 807.079676,200.853942 Z" id="path-5"></path>
    </defs>
    <g id="Page-1" stroke="none" stroke-width="1" fill="none" fill-rule="evenodd">
        <g id="bZx-website_2560" transform="translate(0.000000, -12090.000000)">
            <g id="how_box_works" transform="translate(-670.000000, 12091.529204)">
                <g id="title" transform="translate(527.677465, 0.000000)">
                    <g id="bg" transform="translate(0.062114, 0.000000)" fill-rule="nonzero">
                        <g id="Group-119-Copy-2" transform="translate(0.000000, 109.184835)">
                            <polygon id="Rectangle-path" stroke="#231F20" stroke-width="2.41499984" fill="#BED1F4" points="2.46509138 550.070436 2.46509138 493.404889 2836.35265 493.404889 2836.35265 550.070436"></polygon>
                            <polygon id="Rectangle-path" stroke="#231F20" stroke-width="2.41499984" fill="#BED1F4" points="0.499843421 443.649774 0.499843421 1.38208652 2834.3874 1.38208652 2834.3874 443.649774"></polygon>
                            <polygon id="Rectangle-path" fill="#A4C2F8" points="42.8448637 25.5686007 42.8448637 0 2793.20869 1.22753942e-13 2793.20869 25.5686007"></polygon>
                            <g id="Group-111" transform="translate(0.000000, 440.885601)" fill="#E1E9F3" stroke-width="2.41499984">
                                <polygon id="Rectangle-path-Copy-4" stroke="#231F20" points="0.499843421 56.6655474 0.499843421 -3.33955086e-13 2838.3179 -2.16111301e-13 2838.3179 56.6655474"></polygon>
                                <g id="Group-118" transform="translate(565.275782, 22.113384)" stroke="#000D6D">
                                    <ellipse id="Oval" cx="854.824135" cy="6.21938935" rx="6.21941569" ry="6.21938935"></ellipse>
                                    <ellipse id="Oval" cx="430.521775" cy="6.21938935" rx="6.21941569" ry="6.21938935"></ellipse>
                                    <ellipse id="Oval-Copy-9" cx="6.21941569" cy="6.21938935" rx="6.21941569" ry="6.21938935"></ellipse>
                                    <ellipse id="Oval" cx="1279.12649" cy="6.21938935" rx="6.21941569" ry="6.21938935"></ellipse>
                                    <ellipse id="Oval" cx="1703.42885" cy="6.21938935" rx="6.21941569" ry="6.21938935"></ellipse>
                                </g>
                            </g>
                        </g>
                        <polygon id="Rectangle-path" stroke="#231F20" stroke-width="2.41499984" fill="#BED1F4" points="2.46509138 109.184835 2.46509138 52.5192879 2836.35265 52.5192879 2836.35265 109.184835"></polygon>
                        <g id="Group-114" fill="#E1E9F3" stroke="#231F20" stroke-width="2.41499984">
                            <polygon id="Rectangle-path-Copy-4" points="0.499843421 56.6655474 0.499843421 -5.61328761e-13 2834.3874 -4.43484977e-13 2834.3874 56.6655474"></polygon>
                            <g id="Group-118" transform="translate(563.893689, 15.202952)">
                                <ellipse id="Oval" cx="854.824135" cy="6.21938935" rx="6.21941569" ry="6.21938935"></ellipse>
                                <ellipse id="Oval" cx="430.521775" cy="6.21938935" rx="6.21941569" ry="6.21938935"></ellipse>
                                <ellipse id="Oval-Copy-9" cx="6.21941569" cy="6.21938935" rx="6.21941569" ry="6.21938935"></ellipse>
                                <ellipse id="Oval" cx="1279.12649" cy="6.21938935" rx="6.21941569" ry="6.21938935"></ellipse>
                                <ellipse id="Oval" cx="1703.42885" cy="6.21938935" rx="6.21941569" ry="6.21938935"></ellipse>
                            </g>
                        </g>
                        <g id="Group-86" transform="translate(414.627713, 147.883258)" fill="#231F20">
                            <polygon id="Path-21" points="1908.66957 2.76417305 1908.66957 -9.09494702e-13 2000.08434 -9.09494702e-13 2000.08434 2.76417305"></polygon>
                            <polygon id="Path-21-Copy-3" points="639.90877 49.7551148 639.90877 46.9909418 681.371541 46.9909418 681.371541 49.7551148"></polygon>
                            <polygon id="Path-21-Copy-2" points="1858.91425 2.76417305 1858.91425 -9.09494702e-13 1885.37067 -9.09494702e-13 1885.37067 2.76417305"></polygon>
                            <polygon id="Path-21-Copy-4" points="610.88483 49.7551148 610.88483 46.9909418 624.902427 46.9909418 624.902427 49.7551148"></polygon>
                            <polygon id="Path-21-Copy" points="1962.57117 20.7312978 1962.57117 17.9671248 1986.06674 17.9671248 1986.06674 20.7312978"></polygon>
                            <polygon id="Path-21-Copy-5" points="0 391.130486 0 388.366313 142.355515 388.366313 142.355515 391.130486"></polygon>
                            <polygon id="Path-21-Copy-6" points="168.61527 391.130486 168.61527 388.366313 199.146688 388.366313 199.146688 391.130486"></polygon>
                        </g>
                    </g>
                    <g id="title_table" transform="translate(998.817670, 204.548805)">
                        <g id="bg_title">
                            <g id="Fill-3273">
                                <use fill="#E1E9F3" fill-rule="evenodd" xlink:href="#path-1"></use>
                                <path stroke="#231F20" stroke-width="2.41499984" d="M-1.16675871,-1.01554346 L846.505034,-1.01554346 L846.505034,234.513291 L-1.16675871,234.513291 L-1.16675871,-1.01554346 Z"></path>
                            </g>
                            <polygon id="Fill-3273" fill="#A4C2F8" points="845.297535 236.069964 845.297535 248.508743 0.0407412077 248.508743 0.0407412077 236.069964"></polygon>
                            <g id="Stroke-3280">
                                <use fill="#E1E9F3" fill-rule="evenodd" xlink:href="#path-2"></use>
                                <path stroke="#231F20" stroke-width="2.41499984" d="M36.7734945,45.6262251 C33.0533011,45.6262251 30.0376251,42.6105619 30.0376251,38.8903791 C30.0376251,35.1701963 33.0533011,32.1545331 36.7734945,32.1545331 C40.4936879,32.1545331 43.5093639,35.1701963 43.5093639,38.8903791 C43.5093639,42.6105619 40.4936879,45.6262251 36.7734945,45.6262251 Z"></path>
                            </g>
                            <g id="Stroke-3280">
                                <use fill="#E1E9F3" fill-rule="evenodd" xlink:href="#path-3"></use>
                                <path stroke="#231F20" stroke-width="2.41499984" d="M806.598948,45.6262251 C802.878755,45.6262251 799.863079,42.6105619 799.863079,38.8903791 C799.863079,35.1701963 802.878755,32.1545331 806.598948,32.1545331 C810.319141,32.1545331 813.334817,35.1701963 813.334817,38.8903791 C813.334817,42.6105619 810.319141,45.6262251 806.598948,45.6262251 Z"></path>
                            </g>
                            <g id="Stroke-3280">
                                <use fill="#E1E9F3" fill-rule="evenodd" xlink:href="#path-4"></use>
                                <path stroke="#231F20" stroke-width="2.41499984" d="M36.7305724,202.061441 C33.0103789,202.061441 29.9947029,199.045778 29.9947029,195.325595 C29.9947029,191.605413 33.0103789,188.589749 36.7305724,188.589749 C40.4507658,188.589749 43.4664418,191.605413 43.4664418,195.325595 C43.4664418,199.045778 40.4507658,202.061441 36.7305724,202.061441 Z"></path>
                            </g>
                            <g id="Stroke-3280">
                                <use fill="#E1E9F3" fill-rule="evenodd" xlink:href="#path-5"></use>
                                <path stroke="#231F20" stroke-width="2.41499984" d="M807.079676,202.061441 C803.359482,202.061441 800.343806,199.045778 800.343806,195.325595 C800.343806,191.605413 803.359482,188.589749 807.079676,188.589749 C810.799869,188.589749 813.815545,191.605413 813.815545,195.325595 C813.815545,199.045778 810.799869,202.061441 807.079676,202.061441 Z"></path>
                            </g>
                        </g>
                        <text id="How-bZx-Works" font-family=".SFNSDisplay, .SF NS Display" font-size="51" font-weight="normal" line-spacing="63.9974958" letter-spacing="-0.4903846" fill="#000000">
                            <tspan x="255.742264" y="138.354994">How bZx Works</tspan>
                        </text>
                    </g>
                </g>
            </g>
        </g>
    </g>
</svg>