<svg width="2560px" height="664px" viewBox="0 0 2560 664" version="1.1" xmlns="http://www.w3.org/2000/svg" xmlns:xlink="http://www.w3.org/1999/xlink">
    <defs>
        <rect id="path-1" x="1.41499984" y="8022.62947" width="2653.61736" height="3808.45475"></rect>
        <path d="M-138.715355,693.116391 C-138.792475,553.046503 -138.834151,482.370234 -138.840382,481.087585 C-139.447167,386.952759 -62.9921724,311.660511 30.9079106,311.660511 L494.825432,311.660511 C511.208646,311.660511 525.316412,323.032175 525.923198,339.581685 C526.529984,356.890346 512.72561,371.01057 495.583914,371.01057 L32.2731784,371.01057 C-27.7986033,371.01057 -77.5550285,418.988966 -78.1618142,479.11379 C-78.1738912,480.322559 -78.1479985,550.885629 -78.084136,690.803001 L-138.715355,693.116391 Z" id="path-2"></path>
        <polygon id="path-3" points="0.0407412077 0.191956461 845.297535 0.191956461 845.297535 233.305791 0.0407412077 233.305791"></polygon>
        <path d="M36.7734945,44.4187252 C33.7201837,44.4187252 31.245125,41.943677 31.245125,38.8903791 C31.245125,35.8370812 33.7201837,33.362033 36.7734945,33.362033 C39.8268053,33.362033 42.301864,35.8370812 42.301864,38.8903791 C42.301864,41.943677 39.8268053,44.4187252 36.7734945,44.4187252 Z" id="path-4"></path>
        <path d="M806.598948,44.4187252 C803.545637,44.4187252 801.070579,41.943677 801.070579,38.8903791 C801.070579,35.8370812 803.545637,33.362033 806.598948,33.362033 C809.652259,33.362033 812.127318,35.8370812 812.127318,38.8903791 C812.127318,41.943677 809.652259,44.4187252 806.598948,44.4187252 Z" id="path-5"></path>
        <path d="M36.7305724,200.853942 C33.6772616,200.853942 31.2022029,198.378893 31.2022029,195.325595 C31.2022029,192.272298 33.6772616,189.797249 36.7305724,189.797249 C39.7838831,189.797249 42.2589419,192.272298 42.2589419,195.325595 C42.2589419,198.378893 39.7838831,200.853942 36.7305724,200.853942 Z" id="path-6"></path>
        <path d="M807.079676,200.853942 C804.026365,200.853942 801.551306,198.378893 801.551306,195.325595 C801.551306,192.272298 804.026365,189.797249 807.079676,189.797249 C810.132987,189.797249 812.608045,192.272298 812.608045,195.325595 C812.608045,198.378893 810.132987,200.853942 807.079676,200.853942 Z" id="path-7"></path>
    </defs>
    <g id="Page-1" stroke="none" stroke-width="1" fill="none" fill-rule="evenodd">
        <g id="bZx-website_2560" transform="translate(0.000000, -12089.000000)">
            <g id="bg" transform="translate(-52.806509, 285.802485)">
                <rect id="Rectangle-3" fill="#FFFFFF" x="1.76418475" y="0" width="2653.61736" height="23154.0955"></rect>
                <rect id="Rectangle-6" stroke="#2A144C" stroke-width="2.41499984" fill="#407BF7" x="1.76418475" y="11939.8455" width="2653.61736" height="2064.7386"></rect>
                <g id="Rectangle-3">
                    <use fill="#231F20" xlink:href="#path-1"></use>
                    <use fill="#001136" xlink:href="#path-1"></use>
                </g>
            </g>
            <g id="how_box_works" transform="translate(-670.000000, 12091.529204)">
                <g id="long_positions" transform="translate(0.000000, 250.157661)">
                    <g id="corner_tubes" transform="translate(382.777475, 0.000000)">
                        <g id="left_corner_tube" transform="translate(448.940417, 394.121401) rotate(-180.000000) translate(-448.940417, -394.121401) translate(0.957947, 187.035165)" stroke-width="2.41499984">
                            <path d="M0.138506725,413.24387 C0.0554545638,262.554965 0.0105733059,186.520568 0.00386295143,185.140678 C-0.649598543,83.8692764 81.6865498,1.38208652 182.809716,1.38208652 L862.08521,1.38208652 C879.72867,1.38208652 894.92165,15.102728 895.575112,32.9068938 C896.228573,51.5277644 881.362324,66.7184746 862.902037,66.7184746 L184.280004,66.7184746 C119.587316,66.7184746 66.0034739,118.334221 65.3500124,183.017245 C65.3370064,184.317653 65.3648909,260.23027 65.4336658,410.755096 L0.138506725,413.24387 Z" id="Shape" stroke="#000000" fill-opacity="0.5" fill="#BBD0EF" fill-rule="nonzero"></path>
                            <path d="M182.907823,66.7009197 C118.179049,66.7009197 65.3825998,119.28258 65.3825998,184.111522 C65.3825998,185.73971 65.4565787,262.117159 65.6045365,413.24387 L0.125252848,412.779795 C0.0417509493,261.853843 0,185.631085 0,184.111522 C0,83.3572222 82.0551627,1.38208652 182.907823,1.38208652 C228.34873,1.38208652 228.34873,66.7009197 182.907823,66.7009197 Z" id="Shape" stroke="#231F20" fill="#336ADF" fill-rule="nonzero"></path>
                            <path d="M33.3924888,413.24387 C33.2443076,261.598778 33.170217,184.848175 33.170217,182.992061 C33.170217,98.5322631 101.935746,33.1700765 186.381775,33.1700765 L215.606411,33.1700765" id="Shape" stroke="#231F20"></path>
                        </g>
                        <g id="right_corner_tube" transform="translate(2231.459852, 0.000000)">
                            <g id="Shape" fill-rule="nonzero" transform="translate(193.549248, 502.388451) rotate(-90.000000) translate(-193.549248, -502.388451) ">
                                <use fill-opacity="0.5" fill="#BBD0EF" fill-rule="evenodd" xlink:href="#path-2"></use>
                                <path stroke="#231F20" stroke-width="2.41499984" d="M-139.922855,693.117056 C-139.999949,553.094097 -140.041651,482.373094 -140.047856,481.095368 C-140.656734,386.63595 -64.0118261,310.453011 30.9079106,310.453011 L494.825432,310.453011 C512.344953,310.453011 526.515102,322.769764 527.129957,339.53938 C527.758632,357.472437 513.467986,372.21807 495.583914,372.21807 L32.2731784,372.21807 C-27.3980691,372.21807 -76.3568713,419.920806 -76.9543745,479.125854 C-76.9663787,480.327327 -76.9404436,551.005779 -76.8766363,690.80245 L-76.8761055,691.965287 L-139.922165,694.370816 L-139.922855,693.117056 Z"></path>
                            </g>
                            <path d="M158.309245,490.133996 C160.599171,490.133996 162.455522,491.99034 162.455522,494.280255 C162.455522,496.570171 160.599171,498.426515 158.309245,498.426515 L-55.6300787,498.426515 C-57.9200043,498.426515 -59.7763558,496.570171 -59.7763558,494.280255 C-59.7763558,491.99034 -57.9200043,490.133996 -55.6300787,490.133996 L158.309245,490.133996 Z" id="Shape" fill="#FFFFFF" fill-rule="nonzero" opacity="0.5" transform="translate(51.339583, 494.280255) rotate(-90.000000) translate(-51.339583, -494.280255) "></path>
                            <path d="M281.066638,270.382239 C283.356563,270.382239 285.212915,272.238582 285.212915,274.528498 C285.212915,276.818414 283.356563,278.674758 281.066638,278.674758 L-257.569244,278.674758 C-259.859169,278.674758 -261.715521,276.818414 -261.715521,274.528498 C-261.715521,272.238582 -259.859169,270.382239 -257.569244,270.382239 L281.066638,270.382239 Z" id="Shape" fill="#336ADF" fill-rule="nonzero" opacity="0.300000012" transform="translate(11.748697, 274.528498) rotate(-90.000000) translate(-11.748697, -274.528498) "></path>
                            <path d="M182.67122,254.488244 L-97.7489061,254.488244" id="Shape" stroke="#FFFFFF" stroke-width="7.24499952" opacity="0.200000003" stroke-linecap="round" transform="translate(42.901179, 254.303920) rotate(-90.000000) translate(-42.901179, -254.303920) "></path>
                        </g>
                    </g>
                </g>
                <g id="title" transform="translate(527.677465, 0.000000)">
                    <g id="bg" transform="translate(0.062114, 0.000000)" fill-rule="nonzero">
                        <g id="Group-119-Copy-2" transform="translate(0.000000, 109.184835)">
                            <polygon id="Rectangle-path" stroke="#231F20" stroke-width="2.41499984" fill="#BED1F4" points="2.46509138 550.070436 2.46509138 493.404889 2836.35265 493.404889 2836.35265 550.070436"></polygon>
                            <polygon id="Rectangle-path" stroke="#231F20" stroke-width="2.41499984" fill="#BED1F4" points="0.499843421 443.649774 0.499843421 1.38208652 2834.3874 1.38208652 2834.3874 443.649774"></polygon>
                            <polygon id="Rectangle-path" fill="#A4C2F8" points="42.8448637 25.5686007 42.8448637 0 2793.20869 1.22753942e-13 2793.20869 25.5686007"></polygon>
                            <g id="Group-111" transform="translate(0.000000, 440.885601)" fill="#E1E9F3" stroke-width="2.41499984">
                                <polygon id="Rectangle-path-Copy-4" stroke="#231F20" points="0.499843421 56.6655474 0.499843421 -3.33955086e-13 2838.3179 -2.16111301e-13 2838.3179 56.6655474"></polygon>
                                <g id="Group-118" transform="translate(565.275782, 22.113384)" stroke="#000D6D">
                                    <ellipse id="Oval" cx="854.824135" cy="6.21938935" rx="6.21941569" ry="6.21938935"></ellipse>
                                    <ellipse id="Oval" cx="430.521775" cy="6.21938935" rx="6.21941569" ry="6.21938935"></ellipse>
                                    <ellipse id="Oval-Copy-9" cx="6.21941569" cy="6.21938935" rx="6.21941569" ry="6.21938935"></ellipse>
                                    <ellipse id="Oval" cx="1279.12649" cy="6.21938935" rx="6.21941569" ry="6.21938935"></ellipse>
                                    <ellipse id="Oval" cx="1703.42885" cy="6.21938935" rx="6.21941569" ry="6.21938935"></ellipse>
                                </g>
                            </g>
                        </g>
                        <polygon id="Rectangle-path" stroke="#231F20" stroke-width="2.41499984" fill="#BED1F4" points="2.46509138 109.184835 2.46509138 52.5192879 2836.35265 52.5192879 2836.35265 109.184835"></polygon>
                        <g id="Group-114" fill="#E1E9F3" stroke="#231F20" stroke-width="2.41499984">
                            <polygon id="Rectangle-path-Copy-4" points="0.499843421 56.6655474 0.499843421 -5.61328761e-13 2834.3874 -4.43484977e-13 2834.3874 56.6655474"></polygon>
                            <g id="Group-118" transform="translate(563.893689, 15.202952)">
                                <ellipse id="Oval" cx="854.824135" cy="6.21938935" rx="6.21941569" ry="6.21938935"></ellipse>
                                <ellipse id="Oval" cx="430.521775" cy="6.21938935" rx="6.21941569" ry="6.21938935"></ellipse>
                                <ellipse id="Oval-Copy-9" cx="6.21941569" cy="6.21938935" rx="6.21941569" ry="6.21938935"></ellipse>
                                <ellipse id="Oval" cx="1279.12649" cy="6.21938935" rx="6.21941569" ry="6.21938935"></ellipse>
                                <ellipse id="Oval" cx="1703.42885" cy="6.21938935" rx="6.21941569" ry="6.21938935"></ellipse>
                            </g>
                        </g>
                        <g id="Group-86" transform="translate(414.627713, 147.883258)" fill="#231F20">
                            <polygon id="Path-21" points="1908.66957 2.76417305 1908.66957 -9.09494702e-13 2000.08434 -9.09494702e-13 2000.08434 2.76417305"></polygon>
                            <polygon id="Path-21-Copy-3" points="639.90877 49.7551148 639.90877 46.9909418 681.371541 46.9909418 681.371541 49.7551148"></polygon>
                            <polygon id="Path-21-Copy-2" points="1858.91425 2.76417305 1858.91425 -9.09494702e-13 1885.37067 -9.09494702e-13 1885.37067 2.76417305"></polygon>
                            <polygon id="Path-21-Copy-4" points="610.88483 49.7551148 610.88483 46.9909418 624.902427 46.9909418 624.902427 49.7551148"></polygon>
                            <polygon id="Path-21-Copy" points="1962.57117 20.7312978 1962.57117 17.9671248 1986.06674 17.9671248 1986.06674 20.7312978"></polygon>
                            <polygon id="Path-21-Copy-5" points="0 391.130486 0 388.366313 142.355515 388.366313 142.355515 391.130486"></polygon>
                            <polygon id="Path-21-Copy-6" points="168.61527 391.130486 168.61527 388.366313 199.146688 388.366313 199.146688 391.130486"></polygon>
                        </g>
                    </g>
                    <g id="title_table" transform="translate(998.817670, 204.548805)">
                        <g id="bg_title">
                            <g id="Fill-3273">
                                <use fill="#E1E9F3" fill-rule="evenodd" xlink:href="#path-3"></use>
                                <path stroke="#231F20" stroke-width="2.41499984" d="M-1.16675871,-1.01554346 L846.505034,-1.01554346 L846.505034,234.513291 L-1.16675871,234.513291 L-1.16675871,-1.01554346 Z"></path>
                            </g>
                            <polygon id="Fill-3273" fill="#A4C2F8" points="845.297535 236.069964 845.297535 248.508743 0.0407412077 248.508743 0.0407412077 236.069964"></polygon>
                            <g id="Stroke-3280">
                                <use fill="#E1E9F3" fill-rule="evenodd" xlink:href="#path-4"></use>
                                <path stroke="#231F20" stroke-width="2.41499984" d="M36.7734945,45.6262251 C33.0533011,45.6262251 30.0376251,42.6105619 30.0376251,38.8903791 C30.0376251,35.1701963 33.0533011,32.1545331 36.7734945,32.1545331 C40.4936879,32.1545331 43.5093639,35.1701963 43.5093639,38.8903791 C43.5093639,42.6105619 40.4936879,45.6262251 36.7734945,45.6262251 Z"></path>
                            </g>
                            <g id="Stroke-3280">
                                <use fill="#E1E9F3" fill-rule="evenodd" xlink:href="#path-5"></use>
                                <path stroke="#231F20" stroke-width="2.41499984" d="M806.598948,45.6262251 C802.878755,45.6262251 799.863079,42.6105619 799.863079,38.8903791 C799.863079,35.1701963 802.878755,32.1545331 806.598948,32.1545331 C810.319141,32.1545331 813.334817,35.1701963 813.334817,38.8903791 C813.334817,42.6105619 810.319141,45.6262251 806.598948,45.6262251 Z"></path>
                            </g>
                            <g id="Stroke-3280">
                                <use fill="#E1E9F3" fill-rule="evenodd" xlink:href="#path-6"></use>
                                <path stroke="#231F20" stroke-width="2.41499984" d="M36.7305724,202.061441 C33.0103789,202.061441 29.9947029,199.045778 29.9947029,195.325595 C29.9947029,191.605413 33.0103789,188.589749 36.7305724,188.589749 C40.4507658,188.589749 43.4664418,191.605413 43.4664418,195.325595 C43.4664418,199.045778 40.4507658,202.061441 36.7305724,202.061441 Z"></path>
                            </g>
                            <g id="Stroke-3280">
                                <use fill="#E1E9F3" fill-rule="evenodd" xlink:href="#path-7"></use>
                                <path stroke="#231F20" stroke-width="2.41499984" d="M807.079676,202.061441 C803.359482,202.061441 800.343806,199.045778 800.343806,195.325595 C800.343806,191.605413 803.359482,188.589749 807.079676,188.589749 C810.799869,188.589749 813.815545,191.605413 813.815545,195.325595 C813.815545,199.045778 810.799869,202.061441 807.079676,202.061441 Z"></path>
                            </g>
                        </g>
                        <text id="How-bZx-Works" font-family=".SFNSDisplay, .SF NS Display" font-size="51" font-weight="normal" line-spacing="63.9974958" letter-spacing="-0.4903846" fill="#000000">
                            <tspan x="255.742264" y="138.354994">How bZx Works</tspan>
                        </text>
                    </g>
                </g>
            </g>
        </g>
    </g>
</svg>