<?xml version="1.0" encoding="utf-8"?>
<!-- Generator: Adobe Illustrator 19.2.1, SVG Export Plug-In . SVG Version: 6.00 Build 0)  -->
<svg version="1.1" id="Layer_1" xmlns="http://www.w3.org/2000/svg" xmlns:xlink="http://www.w3.org/1999/xlink" x="0px" y="0px"
	 viewBox="0 0 300 98.8" style="enable-background:new 0 0 268.3 98.8;" xml:space="preserve">
<style type="text/css">
	.st0{fill:#DAE2EA;}
	.st1{fill:#FFFFFF;}
	.st2{font-family:'Futura-Medium';}
	.st3{font-size:48px;}
	.st4{fill:#CAD5E5;}
	.st5{fill:#A3B6CC;}
	.st6{fill:#001235;}
	.st7{fill:#41587C;}
</style>
<title>logo2</title>
<polygon class="st0" points="40.7,0 0,74.4 23.7,88.6 40.6,98.5 57.6,88.6 81.3,74.4 "/>
<text transform="matrix(1 0 0 1 105 67.54)" class="st1 st2 st3">IN</text>
<text transform="matrix(1 0 0 1 159.68 67.54)" class="st1 st2 st3">S</text>
<text transform="matrix(1 0 0 1 188.34 67.54)" class="st1 st2 st3">TEX</text>
<polygon class="st4" points="0,74.4 0,24.3 40.7,0 40.6,41.1 40.6,48.3 "/>
<polygon class="st5" points="81.3,74.4 81.3,24.4 40.7,0 40.7,41.1 40.7,48.3 "/>
<polygon class="st5" points="23.7,67.5 23.7,88.6 40.6,98.5 57.6,88.6 57.6,67.5 40.6,78.4 "/>
<polygon class="st4" points="57.6,67.5 57.6,88.6 40.7,98.5 40.7,78.4 "/>
<polygon class="st1" points="40.7,78.4 23.7,67.5 40.7,57.4 57.6,67.5 "/>
<polygon class="st6" points="40.7,27.1 27.9,50.9 40.7,58.6 53.4,50.8 "/>
<polygon class="st7" points="40.7,27.1 27.9,50.9 40.7,44.4 53.4,50.9 "/>
<polygon class="st7" points="40.7,71.6 27.9,53.3 40.7,61.4 53.4,53.3 "/>
<polygon class="st7" points="40.6,71.6 40.6,61.4 27.9,53.3 "/>
<polygon class="st6" points="40.6,44.3 40.6,58.6 27.9,50.8 "/>
<polygon class="st4" points="57.6,10.1 57.6,31.2 40.7,41.1 23.8,31.2 23.8,10.1 40.7,21 "/>
<polygon class="st5" points="23.8,10.1 23.8,31.2 40.7,41.1 40.7,21 "/>
<polygon class="st1" points="40.7,21 23.8,10.1 40.7,0 57.6,10.1 "/>
</svg>
