<?xml version="1.0" encoding="UTF-8"?>
<svg width="62px" height="36px" viewBox="0 0 62 36" version="1.1" xmlns="http://www.w3.org/2000/svg" xmlns:xlink="http://www.w3.org/1999/xlink">
    <!-- Generator: Sketch 49.2 (51160) - http://www.bohemiancoding.com/sketch -->
    <title>bZx_squarelogo_wordmark_horizontal</title>
    <desc>Created with Sketch.</desc>
    <defs></defs>
    <g id="Page-1" stroke="none" stroke-width="1" fill="none" fill-rule="evenodd">
        <g id="bZx-website_1920х17500" transform="translate(-295.000000, -27.000000)" fill-rule="nonzero">
            <g id="header" transform="translate(295.000000, 27.000000)">
                <g id="header-menu">
                    <g id="bZx_squarelogo_wordmark_horizontal">
                        <g id="Group">
                            <g fill="#407BF7" id="Shape">
                                <path d="M9.89873646,8.88648649 C7.80805505,8.88648649 5.82404106,9.70810811 5.01336868,11.2864865 L5.01336868,0.0864864865 L0.085333935,0.0864864865 L0.085333935,26.1189189 L5.01336868,26.1189189 L5.01336868,24.0432432 C5.82404106,25.5567568 7.85072202,26.4864865 9.89873646,26.4864865 C14.1867667,26.4864865 17.9414598,23.0702703 17.9414598,17.7297297 C17.9627933,12.3243243 14.2081002,8.88648649 9.89873646,8.88648649 Z M8.93872969,21.7297297 C6.89071525,21.7297297 5.07736913,20.0432432 5.07736913,17.6432432 C5.07736913,15.0918919 6.89071525,13.6216216 8.93872969,13.6216216 C11.0934116,13.6216216 12.8000903,15.2432432 12.8000903,17.6432432 C12.8000903,20.1513514 11.0294111,21.7297297 8.93872969,21.7297297 Z"></path>
                                <polygon points="54.5283845 16.9945946 60.0110898 9.27567568 54.2723827 9.27567568 51.7976986 12.972973 49.3230144 9.27567568 43.5843073 9.27567568 49.0670126 16.9945946 42.5176331 26.1189189 48.2563403 26.1189189 51.7976986 20.972973 55.3390569 26.1189189 61.0137635 26.1189189"></polygon>
                                <path d="M36.7149255,6.87567568 C35.3282491,5.31891892 33.2589012,4.54054054 30.5282153,4.54054054 C27.7975293,4.54054054 25.7281814,5.31891892 24.341505,6.87567568 C22.9548285,8.43243243 22.2081566,10.4432432 22.1014892,12.9297297 C22.0801557,13.5135135 22.0801557,14.5081081 22.0801557,15.8918919 C22.0801557,17.2540541 22.0801557,18.227027 22.1014892,18.7891892 C22.2294901,21.2972973 22.976162,23.3513514 24.3201715,24.8864865 C25.6855144,26.4432432 27.7335289,27.2216216 30.5068818,27.2216216 C33.2802347,27.2216216 35.3495826,26.4432432 36.6935921,24.8864865 C38.058935,23.3297297 38.7842735,21.2972973 38.9122744,18.7891892 C38.9549413,17.6648649 38.9762748,16.6918919 38.9762748,15.8918919 C38.9762748,15.0918919 38.9549413,14.1189189 38.9122744,12.9297297 C38.8482739,10.4432432 38.101602,8.43243243 36.7149255,6.87567568 Z M26.6241877,13.0810811 C26.6668547,11.5459459 27.0081904,10.3567568 27.6481949,9.49189189 C28.2881995,8.62702703 29.2482062,8.19459459 30.5282153,8.17297297 C30.9975519,8.17297297 31.4242216,8.23783784 31.8082243,8.36756757 L26.8801895,20.6486486 C26.7308551,20.0648649 26.6241877,19.3945946 26.6028542,18.6378378 C26.5815208,18.0324324 26.5815208,17.1027027 26.5815208,15.827027 C26.6028542,14.5513514 26.6028542,13.6432432 26.6241877,13.0810811 Z M34.4535763,18.6162162 C34.4109093,20.1945946 34.0695736,21.4054054 33.429569,22.2486486 C32.7895645,23.0918919 31.8295578,23.5243243 30.5495487,23.5243243 C30.0588786,23.5243243 29.6322089,23.4594595 29.2268727,23.3297297 L34.176241,11.0054054 C34.3469088,11.6108108 34.4535763,12.3027027 34.4749097,13.0594595 C34.4962432,13.6216216 34.4962432,14.5297297 34.4962432,15.8054054 C34.4962432,17.0810811 34.4749097,18.0108108 34.4535763,18.6162162 Z"></path>
                            </g>
                            <g transform="translate(0.000000, 29.837838)" fill="#4FE2DF" id="Shape">
                                <path d="M0.128000903,4.36756757 C0.106667419,4.34594595 0.085333935,4.3027027 0.085333935,4.25945946 L0.085333935,0.475675676 C0.085333935,0.432432432 0.106667419,0.389189189 0.128000903,0.367567568 C0.149334386,0.345945946 0.192001354,0.324324324 0.234668321,0.324324324 L0.704004964,0.324324324 C0.768005415,0.324324324 0.832005866,0.367567568 0.874672834,0.432432432 L1.98401399,2.50810811 L3.09335514,0.432432432 C3.13602211,0.367567568 3.20002256,0.324324324 3.26402301,0.324324324 L3.71202617,0.324324324 C3.75469314,0.324324324 3.79736011,0.345945946 3.81869359,0.367567568 C3.84002708,0.389189189 3.86136056,0.432432432 3.86136056,0.475675676 L3.86136056,4.25945946 C3.86136056,4.3027027 3.84002708,4.34594595 3.81869359,4.36756757 C3.79736011,4.38918919 3.75469314,4.41081081 3.71202617,4.41081081 L3.22135605,4.41081081 C3.17868908,4.41081081 3.1573556,4.38918919 3.11468863,4.36756757 C3.09335514,4.34594595 3.07202166,4.3027027 3.07202166,4.25945946 L3.07202166,1.77297297 L2.28268276,3.30810811 C2.24001579,3.39459459 2.17601534,3.43783784 2.09068141,3.43783784 L1.85601309,3.43783784 C1.77067915,3.43783784 1.7066787,3.39459459 1.66401173,3.30810811 L0.874672834,1.77297297 L0.874672834,4.25945946 C0.874672834,4.3027027 0.85333935,4.32432432 0.832005866,4.36756757 C0.810672383,4.38918919 0.768005415,4.41081081 0.725338448,4.41081081 L0.234668321,4.41081081 C0.192001354,4.41081081 0.149334386,4.38918919 0.128000903,4.36756757 Z"></path>
                                <path d="M4.9920352,4.34594595 C4.82136733,4.25945946 4.69336643,4.15135135 4.60803249,4.02162162 C4.52269856,3.89189189 4.4586981,3.74054054 4.4586981,3.56756757 C4.4586981,3.30810811 4.56536552,3.09189189 4.77870036,2.91891892 C4.9920352,2.74594595 5.26937049,2.63783784 5.65337319,2.59459459 L6.44271209,2.48648649 L6.44271209,2.37837838 C6.44271209,2.20540541 6.40004513,2.07567568 6.31471119,2.01081081 C6.22937726,1.92432432 6.10137635,1.88108108 5.909375,1.88108108 C5.7813741,1.88108108 5.67470668,1.9027027 5.61070623,1.94594595 C5.52537229,1.98918919 5.48270532,2.03243243 5.41870487,2.0972973 C5.37603791,2.14054054 5.33337094,2.18378378 5.33337094,2.18378378 C5.31203745,2.22702703 5.29070397,2.24864865 5.248037,2.24864865 L4.80003384,2.24864865 C4.75736688,2.24864865 4.73603339,2.22702703 4.71469991,2.20540541 C4.69336643,2.18378378 4.67203294,2.14054054 4.67203294,2.11891892 C4.67203294,2.03243243 4.71469991,1.9027027 4.82136733,1.79459459 C4.90670126,1.66486486 5.05603565,1.55675676 5.22670352,1.47027027 C5.41870487,1.38378378 5.65337319,1.34054054 5.909375,1.34054054 C6.35737816,1.34054054 6.67738042,1.44864865 6.89071525,1.64324324 C7.10405009,1.83783784 7.18938403,2.11891892 7.18938403,2.44324324 L7.18938403,4.25945946 C7.18938403,4.3027027 7.16805054,4.32432432 7.14671706,4.36756757 C7.12538357,4.38918919 7.08271661,4.41081081 7.04004964,4.41081081 L6.570713,4.41081081 C6.52804603,4.41081081 6.50671255,4.38918919 6.46404558,4.36756757 C6.44271209,4.34594595 6.42137861,4.3027027 6.42137861,4.25945946 L6.42137861,4.04324324 C6.33604468,4.17297297 6.22937726,4.25945946 6.05870939,4.34594595 C5.909375,4.43243243 5.71737365,4.47567568 5.48270532,4.47567568 C5.33337094,4.47567568 5.16270307,4.43243243 4.9920352,4.34594595 Z M6.25071074,3.6972973 C6.37871164,3.56756757 6.44271209,3.35135135 6.44271209,3.09189189 L6.44271209,2.98378378 L5.86670803,3.07027027 C5.41870487,3.13513514 5.20537004,3.28648649 5.20537004,3.52432432 C5.20537004,3.65405405 5.248037,3.74054054 5.35470442,3.80540541 C5.46137184,3.87027027 5.56803926,3.91351351 5.71737365,3.91351351 C5.95204197,3.91351351 6.12270984,3.84864865 6.25071074,3.6972973 Z"></path>
                                <path d="M7.97872292,4.36756757 C7.95738944,4.34594595 7.93605596,4.3027027 7.93605596,4.25945946 L7.93605596,1.53513514 C7.93605596,1.49189189 7.95738944,1.44864865 7.97872292,1.42702703 C8.00005641,1.40540541 8.04272338,1.38378378 8.08539034,1.38378378 L8.55472699,1.38378378 C8.59739395,1.38378378 8.64006092,1.40540541 8.6613944,1.42702703 C8.68272789,1.44864865 8.70406137,1.49189189 8.70406137,1.53513514 L8.70406137,1.77297297 C8.89606273,1.51351351 9.17339801,1.38378378 9.53606724,1.38378378 L9.77073556,1.38378378 C9.81340253,1.38378378 9.85606949,1.40540541 9.87740298,1.42702703 C9.89873646,1.44864865 9.92006995,1.49189189 9.92006995,1.53513514 L9.92006995,1.96756757 C9.92006995,2.01081081 9.89873646,2.03243243 9.87740298,2.07567568 C9.85606949,2.0972973 9.81340253,2.11891892 9.77073556,2.11891892 L9.3227324,2.11891892 C9.15206453,2.11891892 9.00273014,2.16216216 8.89606273,2.27027027 C8.78939531,2.37837838 8.74672834,2.50810811 8.74672834,2.7027027 L8.74672834,4.3027027 C8.74672834,4.34594595 8.72539486,4.36756757 8.70406137,4.41081081 C8.68272789,4.43243243 8.64006092,4.45405405 8.59739395,4.45405405 L8.08539034,4.45405405 C8.04272338,4.41081081 8.02138989,4.38918919 7.97872292,4.36756757 Z"></path>
                                <path d="M10.8160763,5.51351351 C10.6027414,5.40540541 10.453407,5.27567568 10.3680731,5.12432432 C10.2827392,4.97297297 10.2400722,4.84324324 10.2400722,4.75675676 C10.2400722,4.71351351 10.2614057,4.69189189 10.2827392,4.67027027 C10.3040727,4.64864865 10.3467396,4.62702703 10.3894066,4.62702703 L10.9014102,4.62702703 C10.9440772,4.62702703 10.9654106,4.62702703 10.9867441,4.64864865 C11.0080776,4.67027027 11.0294111,4.69189189 11.0507446,4.73513514 C11.0934116,4.84324324 11.157412,4.92972973 11.2427459,4.99459459 C11.3280799,5.05945946 11.4560808,5.1027027 11.6267486,5.1027027 C11.861417,5.1027027 12.0320848,5.05945946 12.1387523,4.95135135 C12.2454197,4.84324324 12.3094201,4.67027027 12.3094201,4.41081081 L12.3094201,4.02162162 C12.0960853,4.25945946 11.81875,4.38918919 11.4347473,4.38918919 C11.0294111,4.38918919 10.7307423,4.25945946 10.538741,4.02162162 C10.3467396,3.78378378 10.2400722,3.43783784 10.2187387,3.02702703 L10.2187387,2.87567568 L10.2187387,2.72432432 C10.2400722,2.31351351 10.3467396,1.96756757 10.538741,1.72972973 C10.7307423,1.47027027 11.0294111,1.36216216 11.4347473,1.36216216 C11.6267486,1.36216216 11.81875,1.40540541 11.9680844,1.47027027 C12.1174188,1.55675676 12.2454197,1.64324324 12.3520871,1.77297297 L12.3520871,1.55675676 C12.3520871,1.51351351 12.3734206,1.47027027 12.3947541,1.44864865 C12.4160875,1.42702703 12.4587545,1.40540541 12.5014215,1.40540541 L12.9707581,1.40540541 C13.0134251,1.40540541 13.0347586,1.42702703 13.0774255,1.44864865 C13.098759,1.47027027 13.1200925,1.51351351 13.1200925,1.55675676 L13.1200925,4.34594595 C13.1200925,4.77837838 12.9920916,5.1027027 12.7574233,5.34054054 C12.522755,5.57837838 12.1600857,5.68648649 11.6907491,5.68648649 C11.3067464,5.68648649 11.0294111,5.62162162 10.8160763,5.51351351 Z M12.0960853,3.56756757 C12.2027527,3.43783784 12.2667532,3.26486486 12.2667532,3.04864865 C12.2667532,3.02702703 12.2667532,2.96216216 12.2667532,2.85405405 C12.2667532,2.76756757 12.2667532,2.7027027 12.2667532,2.65945946 C12.2454197,2.46486486 12.2027527,2.29189189 12.0960853,2.14054054 C11.9894179,2.01081081 11.81875,1.92432432 11.6054152,1.92432432 C11.200079,1.92432432 10.9654106,2.18378378 10.9440772,2.68108108 L10.9440772,2.81081081 C10.9440772,3.41621622 11.157412,3.71891892 11.6054152,3.71891892 C11.8400835,3.76216216 11.9894179,3.6972973 12.0960853,3.56756757 Z"></path>
                                <path d="M13.845431,0.864864865 C13.8240975,0.843243243 13.802764,0.8 13.802764,0.756756757 L13.802764,0.324324324 C13.802764,0.281081081 13.8240975,0.237837838 13.845431,0.216216216 C13.8667644,0.194594595 13.9094314,0.172972973 13.9520984,0.172972973 L14.4854355,0.172972973 C14.5281024,0.172972973 14.5707694,0.194594595 14.5921029,0.216216216 C14.6134364,0.237837838 14.6347699,0.281081081 14.6347699,0.324324324 L14.6347699,0.756756757 C14.6347699,0.8 14.6134364,0.821621622 14.5921029,0.864864865 C14.5707694,0.886486486 14.5281024,0.908108108 14.4854355,0.908108108 L13.9520984,0.908108108 C13.9094314,0.908108108 13.8667644,0.886486486 13.845431,0.864864865 Z M13.8667644,4.36756757 C13.845431,4.34594595 13.8240975,4.3027027 13.8240975,4.25945946 L13.8240975,1.51351351 C13.8240975,1.47027027 13.845431,1.42702703 13.8667644,1.40540541 C13.8880979,1.38378378 13.9307649,1.36216216 13.9734319,1.36216216 L14.464102,1.36216216 C14.506769,1.36216216 14.5281024,1.38378378 14.5707694,1.40540541 C14.5921029,1.42702703 14.6134364,1.47027027 14.6134364,1.51351351 L14.6134364,4.25945946 C14.6134364,4.3027027 14.5921029,4.32432432 14.5707694,4.36756757 C14.5494359,4.41081081 14.506769,4.41081081 14.464102,4.41081081 L13.9734319,4.41081081 C13.9307649,4.41081081 13.8880979,4.38918919 13.8667644,4.36756757 Z"></path>
                                <path d="M15.3814418,4.36756757 C15.3601083,4.34594595 15.3387748,4.3027027 15.3387748,4.25945946 L15.3387748,1.51351351 C15.3387748,1.47027027 15.3601083,1.42702703 15.3814418,1.40540541 C15.4027753,1.38378378 15.4454422,1.36216216 15.4881092,1.36216216 L15.9574458,1.36216216 C16.0001128,1.36216216 16.0427798,1.38378378 16.0641133,1.40540541 C16.0854468,1.42702703 16.1067802,1.47027027 16.1067802,1.51351351 L16.1067802,1.75135135 C16.3414486,1.47027027 16.6614508,1.31891892 17.066787,1.31891892 C17.4081227,1.31891892 17.7067915,1.42702703 17.8987929,1.66486486 C18.1121277,1.9027027 18.1974616,2.20540541 18.1974616,2.61621622 L18.1974616,4.23783784 C18.1974616,4.28108108 18.1761282,4.3027027 18.1547947,4.34594595 C18.1334612,4.36756757 18.0907942,4.38918919 18.0481273,4.38918919 L17.5361236,4.38918919 C17.4934567,4.38918919 17.4721232,4.36756757 17.4294562,4.34594595 C17.4081227,4.32432432 17.3867893,4.28108108 17.3867893,4.23783784 L17.3867893,2.63783784 C17.3867893,2.42162162 17.3227888,2.24864865 17.2161214,2.11891892 C17.109454,1.98918919 16.9601196,1.92432432 16.7467847,1.92432432 C16.5547834,1.92432432 16.405449,1.98918919 16.2774481,2.11891892 C16.1494472,2.24864865 16.1067802,2.42162162 16.1067802,2.63783784 L16.1067802,4.23783784 C16.1067802,4.28108108 16.0854468,4.3027027 16.0641133,4.34594595 C16.0427798,4.36756757 16.0001128,4.38918919 15.9574458,4.38918919 L15.4454422,4.38918919 C15.4454422,4.41081081 15.4027753,4.38918919 15.3814418,4.36756757 Z"></path>
                                <path d="M18.9228001,4.36756757 C18.9014666,4.34594595 18.8801331,4.3027027 18.8801331,4.25945946 L18.8801331,3.67567568 C18.8801331,3.63243243 18.9014666,3.61081081 18.9228001,3.56756757 C18.9441336,3.54594595 18.9868005,3.52432432 19.0294675,3.52432432 L19.6054716,3.52432432 C19.6481385,3.52432432 19.669472,3.54594595 19.712139,3.56756757 C19.7334725,3.58918919 19.754806,3.63243243 19.754806,3.67567568 L19.754806,4.25945946 C19.754806,4.3027027 19.7334725,4.32432432 19.712139,4.36756757 C19.6908055,4.38918919 19.6481385,4.41081081 19.6054716,4.41081081 L19.0294675,4.41081081 C18.9868005,4.41081081 18.9654671,4.38918919 18.9228001,4.36756757 Z"></path>
                                <path d="M21.8881543,4.36756757 C21.8668208,4.34594595 21.8454874,4.3027027 21.8454874,4.25945946 L21.8454874,0.475675676 C21.8454874,0.432432432 21.8668208,0.389189189 21.8881543,0.367567568 C21.9094878,0.345945946 21.9521548,0.324324324 21.9948218,0.324324324 L23.3814982,0.324324324 C24.5121728,0.324324324 25.0881769,0.843243243 25.1095104,1.9027027 C25.1095104,2.11891892 25.1308439,2.27027027 25.1308439,2.35675676 C25.1308439,2.42162162 25.1308439,2.57297297 25.1095104,2.81081081 C25.0881769,3.35135135 24.960176,3.76216216 24.6828407,4 C24.4055054,4.25945946 23.9788357,4.38918919 23.4241652,4.38918919 L21.9734883,4.38918919 C21.9308213,4.41081081 21.9094878,4.38918919 21.8881543,4.36756757 Z M23.3814982,3.74054054 C23.7015005,3.74054054 23.9361688,3.67567568 24.0641697,3.52432432 C24.2135041,3.37297297 24.2775045,3.13513514 24.2775045,2.81081081 C24.2775045,2.57297297 24.298838,2.44324324 24.298838,2.37837838 C24.298838,2.31351351 24.298838,2.18378378 24.2775045,1.94594595 C24.2775045,1.62162162 24.1921706,1.40540541 24.0428362,1.25405405 C23.8935018,1.1027027 23.6588335,1.03783784 23.3388312,1.03783784 L22.6348263,1.03783784 L22.6348263,3.76216216 L23.3814982,3.76216216 L23.3814982,3.74054054 Z"></path>
                                <path d="M26.0695171,4.08648649 C25.8135153,3.84864865 25.6855144,3.48108108 25.664181,3.02702703 L25.664181,2.87567568 C25.664181,2.4 25.7921819,2.01081081 26.0481837,1.72972973 C26.3041855,1.44864865 26.6455212,1.31891892 27.0935244,1.31891892 C27.5415275,1.31891892 27.9041968,1.44864865 28.1388651,1.72972973 C28.3735334,2.01081081 28.5015343,2.37837838 28.5015343,2.85405405 L28.5015343,2.98378378 C28.5015343,3.02702703 28.4802008,3.04864865 28.4588673,3.09189189 C28.4375338,3.11351351 28.3948669,3.13513514 28.3521999,3.13513514 L26.4535199,3.13513514 L26.4535199,3.17837838 C26.4535199,3.39459459 26.5175203,3.56756757 26.6241877,3.71891892 C26.7308551,3.87027027 26.8801895,3.93513514 27.0721909,3.93513514 C27.2855257,3.93513514 27.4775271,3.84864865 27.605528,3.67567568 C27.6481949,3.63243243 27.6695284,3.61081081 27.6908619,3.58918919 C27.7121954,3.58918919 27.7335289,3.56756757 27.7975293,3.56756757 L28.3095329,3.56756757 C28.3521999,3.56756757 28.3735334,3.56756757 28.3948669,3.58918919 C28.4162004,3.61081081 28.4375338,3.63243243 28.4375338,3.67567568 C28.4375338,3.76216216 28.3735334,3.87027027 28.266866,4 C28.1601986,4.12972973 28.0108642,4.23783784 27.7975293,4.32432432 C27.605528,4.41081081 27.3708597,4.45405405 27.0935244,4.45405405 C26.6455212,4.47567568 26.325519,4.34594595 26.0695171,4.08648649 Z M27.7121954,2.63783784 C27.7121954,2.4 27.6481949,2.20540541 27.5415275,2.07567568 C27.4348601,1.94594595 27.2855257,1.85945946 27.0721909,1.85945946 C26.8801895,1.85945946 26.7308551,1.92432432 26.6241877,2.07567568 C26.5175203,2.20540541 26.4535199,2.4 26.4535199,2.61621622 L26.4535199,2.63783784 L27.7121954,2.63783784 Z"></path>
                                <path d="M29.3975406,4.10810811 C29.1415388,3.87027027 29.0135379,3.54594595 28.9922044,3.13513514 L28.9922044,2.8972973 L28.9922044,2.65945946 C29.0135379,2.24864865 29.1415388,1.92432432 29.3975406,1.68648649 C29.6535424,1.44864865 29.9735447,1.34054054 30.4002144,1.34054054 C30.6988831,1.34054054 30.9548849,1.40540541 31.1682198,1.51351351 C31.3815546,1.62162162 31.530889,1.75135135 31.6375564,1.9027027 C31.7442238,2.05405405 31.7868908,2.20540541 31.8082243,2.35675676 C31.8082243,2.4 31.8082243,2.42162162 31.7655573,2.46486486 C31.7442238,2.48648649 31.7015569,2.50810811 31.6588899,2.50810811 L31.1468863,2.50810811 C31.1042193,2.50810811 31.0828858,2.50810811 31.0615523,2.48648649 C31.0402189,2.46486486 31.0188854,2.44324324 30.9975519,2.4 C30.9335514,2.24864865 30.869551,2.14054054 30.7628836,2.07567568 C30.6775496,2.01081081 30.5495487,1.96756757 30.4002144,1.96756757 C30.208213,1.96756757 30.0588786,2.03243243 29.9522112,2.16216216 C29.8455438,2.29189189 29.7815433,2.46486486 29.7815433,2.72432432 L29.7815433,2.94054054 L29.7815433,3.13513514 C29.8028768,3.63243243 30.0162116,3.89189189 30.4215478,3.89189189 C30.5708822,3.89189189 30.6988831,3.87027027 30.7842171,3.80540541 C30.869551,3.74054054 30.9548849,3.63243243 30.9975519,3.48108108 C31.0188854,3.43783784 31.0402189,3.41621622 31.0615523,3.39459459 C31.0828858,3.37297297 31.1042193,3.37297297 31.1468863,3.37297297 L31.6588899,3.37297297 C31.7015569,3.37297297 31.7228903,3.39459459 31.7655573,3.41621622 C31.7868908,3.43783784 31.8082243,3.48108108 31.8082243,3.52432432 C31.8082243,3.65405405 31.7442238,3.80540541 31.6375564,3.95675676 C31.530889,4.10810811 31.3815546,4.23783784 31.1895532,4.36756757 C30.9762184,4.47567568 30.7202166,4.54054054 30.4215478,4.54054054 C29.9735447,4.47567568 29.6322089,4.34594595 29.3975406,4.10810811 Z"></path>
                                <path d="M32.6402301,4.08648649 C32.3842283,3.84864865 32.2562274,3.48108108 32.234894,3.02702703 L32.234894,2.87567568 C32.234894,2.4 32.3628949,2.01081081 32.6188967,1.72972973 C32.8748985,1.44864865 33.2162342,1.31891892 33.6642374,1.31891892 C34.1122405,1.31891892 34.4749097,1.44864865 34.7095781,1.72972973 C34.9442464,2.01081081 35.0722473,2.37837838 35.0722473,2.85405405 L35.0722473,2.98378378 C35.0722473,3.02702703 35.0509138,3.04864865 35.0295803,3.09189189 C35.0082468,3.11351351 34.9655799,3.13513514 34.9229129,3.13513514 L33.0242329,3.13513514 L33.0242329,3.17837838 C33.0242329,3.39459459 33.0882333,3.56756757 33.1949007,3.71891892 C33.3015681,3.87027027 33.4509025,3.93513514 33.6429039,3.93513514 C33.8562387,3.93513514 34.0482401,3.84864865 34.176241,3.67567568 C34.2189079,3.63243243 34.2402414,3.61081081 34.2615749,3.58918919 C34.2829084,3.58918919 34.3042419,3.56756757 34.3682423,3.56756757 L34.8802459,3.56756757 C34.9229129,3.56756757 34.9442464,3.56756757 34.9655799,3.58918919 C34.9869134,3.61081081 35.0082468,3.63243243 35.0082468,3.67567568 C35.0082468,3.76216216 34.9442464,3.87027027 34.837579,4 C34.7309116,4.12972973 34.5815772,4.23783784 34.3682423,4.32432432 C34.176241,4.41081081 33.9415727,4.45405405 33.6642374,4.45405405 C33.2375677,4.47567568 32.8962319,4.34594595 32.6402301,4.08648649 Z M34.2829084,2.63783784 C34.2829084,2.4 34.2189079,2.20540541 34.1122405,2.07567568 C34.0055731,1.94594595 33.8562387,1.85945946 33.6429039,1.85945946 C33.4509025,1.85945946 33.3015681,1.92432432 33.1949007,2.07567568 C33.0882333,2.20540541 33.0242329,2.4 33.0242329,2.61621622 L33.0242329,2.63783784 L34.2829084,2.63783784 Z"></path>
                                <path d="M35.7335853,4.36756757 C35.7122518,4.34594595 35.6909183,4.3027027 35.6909183,4.25945946 L35.6909183,1.51351351 C35.6909183,1.47027027 35.7122518,1.42702703 35.7335853,1.40540541 C35.7549188,1.38378378 35.7975857,1.36216216 35.8402527,1.36216216 L36.3095894,1.36216216 C36.3522563,1.36216216 36.3949233,1.38378378 36.4162568,1.40540541 C36.4375903,1.42702703 36.4589237,1.47027027 36.4589237,1.51351351 L36.4589237,1.75135135 C36.6935921,1.47027027 37.0135943,1.31891892 37.4189305,1.31891892 C37.7602662,1.31891892 38.058935,1.42702703 38.2509364,1.66486486 C38.4642712,1.9027027 38.5496051,2.20540541 38.5496051,2.61621622 L38.5496051,4.23783784 C38.5496051,4.28108108 38.5282717,4.3027027 38.5069382,4.34594595 C38.4856047,4.36756757 38.4429377,4.38918919 38.4002708,4.38918919 L37.8882671,4.38918919 C37.8456002,4.38918919 37.8242667,4.36756757 37.7815997,4.34594595 C37.7602662,4.32432432 37.7389328,4.28108108 37.7389328,4.23783784 L37.7389328,2.63783784 C37.7389328,2.42162162 37.6749323,2.24864865 37.5682649,2.11891892 C37.4615975,1.98918919 37.3122631,1.92432432 37.0989282,1.92432432 C36.9069269,1.92432432 36.7575925,1.98918919 36.6295916,2.11891892 C36.5015907,2.24864865 36.4589237,2.42162162 36.4589237,2.63783784 L36.4589237,4.23783784 C36.4589237,4.28108108 36.4375903,4.3027027 36.4162568,4.34594595 C36.3949233,4.36756757 36.3522563,4.38918919 36.3095894,4.38918919 L35.7975857,4.38918919 C35.7975857,4.41081081 35.7549188,4.38918919 35.7335853,4.36756757 Z"></path>
                                <path d="M39.8082807,4.12972973 C39.6376128,3.95675676 39.5522789,3.67567568 39.5522789,3.32972973 L39.5522789,2.01081081 L39.1042757,2.01081081 C39.0616088,2.01081081 39.0402753,1.98918919 38.9976083,1.96756757 C38.9762748,1.94594595 38.9549413,1.9027027 38.9549413,1.85945946 L38.9549413,1.51351351 C38.9549413,1.47027027 38.9762748,1.44864865 38.9976083,1.40540541 C39.0189418,1.38378378 39.0616088,1.36216216 39.1042757,1.36216216 L39.5522789,1.36216216 L39.5522789,0.432432432 C39.5522789,0.389189189 39.5736124,0.345945946 39.5949458,0.324324324 C39.6162793,0.302702703 39.6589463,0.281081081 39.7016133,0.281081081 L40.1709499,0.281081081 C40.2136169,0.281081081 40.2562838,0.302702703 40.2776173,0.324324324 C40.2989508,0.345945946 40.3202843,0.389189189 40.3202843,0.432432432 L40.3202843,1.40540541 L41.0456227,1.40540541 C41.0882897,1.40540541 41.1096232,1.42702703 41.1522902,1.44864865 C41.1736236,1.47027027 41.1949571,1.51351351 41.1949571,1.55675676 L41.1949571,1.9027027 C41.1949571,1.94594595 41.1736236,1.96756757 41.1522902,2.01081081 C41.1309567,2.03243243 41.0882897,2.05405405 41.0456227,2.05405405 L40.3202843,2.05405405 L40.3202843,3.30810811 C40.3202843,3.48108108 40.3416178,3.61081081 40.4056182,3.67567568 C40.4696187,3.76216216 40.5549526,3.80540541 40.6829535,3.80540541 L41.0882897,3.80540541 C41.1309567,3.80540541 41.1736236,3.82702703 41.1949571,3.84864865 C41.2162906,3.87027027 41.2376241,3.91351351 41.2376241,3.95675676 L41.2376241,4.32432432 C41.2376241,4.36756757 41.2162906,4.38918919 41.1949571,4.43243243 C41.1736236,4.45405405 41.1309567,4.47567568 41.0882897,4.47567568 L40.6189531,4.47567568 C40.2349504,4.41081081 39.9789486,4.32432432 39.8082807,4.12972973 Z"></path>
                                <path d="M41.7496277,4.36756757 C41.7282942,4.34594595 41.7069607,4.3027027 41.7069607,4.25945946 L41.7069607,1.53513514 C41.7069607,1.49189189 41.7282942,1.44864865 41.7496277,1.42702703 C41.7709612,1.40540541 41.8136282,1.38378378 41.8562951,1.38378378 L42.3256318,1.38378378 C42.3682987,1.38378378 42.4109657,1.40540541 42.4322992,1.42702703 C42.4536327,1.44864865 42.4749662,1.49189189 42.4749662,1.53513514 L42.4749662,1.77297297 C42.6669675,1.51351351 42.9443028,1.38378378 43.306972,1.38378378 L43.5416403,1.38378378 C43.5843073,1.38378378 43.6269743,1.40540541 43.6483078,1.42702703 C43.6696412,1.44864865 43.6909747,1.49189189 43.6909747,1.53513514 L43.6909747,1.96756757 C43.6909747,2.01081081 43.6696412,2.03243243 43.6483078,2.07567568 C43.6269743,2.0972973 43.5843073,2.11891892 43.5416403,2.11891892 L43.0936372,2.11891892 C42.9229693,2.11891892 42.7736349,2.16216216 42.6669675,2.27027027 C42.5603001,2.37837838 42.5176331,2.50810811 42.5176331,2.7027027 L42.5176331,4.3027027 C42.5176331,4.34594595 42.4962996,4.36756757 42.4749662,4.41081081 C42.4536327,4.43243243 42.4109657,4.45405405 42.3682987,4.45405405 L41.8562951,4.45405405 C41.7922947,4.41081081 41.7709612,4.38918919 41.7496277,4.36756757 Z"></path>
                                <path d="M44.3736462,4.34594595 C44.2029783,4.25945946 44.0749774,4.15135135 43.9896435,4.02162162 C43.9043096,3.89189189 43.8403091,3.74054054 43.8403091,3.56756757 C43.8403091,3.30810811 43.9469765,3.09189189 44.1603114,2.91891892 C44.3736462,2.74594595 44.6509815,2.63783784 45.0349842,2.59459459 L45.8243231,2.48648649 L45.8243231,2.37837838 C45.8243231,2.20540541 45.7816561,2.07567568 45.6963222,2.01081081 C45.6109883,1.92432432 45.4829874,1.88108108 45.290986,1.88108108 C45.1629851,1.88108108 45.0563177,1.9027027 44.9923172,1.94594595 C44.9069833,1.98918919 44.8643163,2.03243243 44.8003159,2.0972973 C44.7576489,2.14054054 44.7149819,2.18378378 44.7149819,2.18378378 C44.6936485,2.22702703 44.672315,2.24864865 44.629648,2.24864865 L44.1816449,2.24864865 C44.1389779,2.24864865 44.1176444,2.22702703 44.0963109,2.20540541 C44.0749774,2.18378378 44.053644,2.14054054 44.053644,2.11891892 C44.053644,2.03243243 44.0963109,1.9027027 44.2029783,1.79459459 C44.2883123,1.66486486 44.4376467,1.55675676 44.6083145,1.47027027 C44.8003159,1.38378378 45.0349842,1.34054054 45.290986,1.34054054 C45.7389892,1.34054054 46.0589914,1.44864865 46.2723263,1.64324324 C46.4856611,1.83783784 46.570995,2.11891892 46.570995,2.44324324 L46.570995,4.25945946 C46.570995,4.3027027 46.5496616,4.32432432 46.5283281,4.36756757 C46.5069946,4.38918919 46.4643276,4.41081081 46.4216606,4.41081081 L45.952324,4.41081081 C45.909657,4.41081081 45.8883236,4.38918919 45.8456566,4.36756757 C45.8243231,4.34594595 45.8029896,4.3027027 45.8029896,4.25945946 L45.8029896,4.04324324 C45.7176557,4.17297297 45.6109883,4.25945946 45.4403204,4.34594595 C45.290986,4.43243243 45.0989847,4.47567568 44.8643163,4.47567568 C44.7149819,4.47567568 44.5443141,4.43243243 44.3736462,4.34594595 Z M45.6323218,3.6972973 C45.7603227,3.56756757 45.8243231,3.35135135 45.8243231,3.09189189 L45.8243231,2.98378378 L45.248319,3.07027027 C44.8003159,3.13513514 44.586981,3.28648649 44.586981,3.52432432 C44.586981,3.65405405 44.629648,3.74054054 44.7363154,3.80540541 C44.8429829,3.87027027 44.9496503,3.91351351 45.0989847,3.91351351 C45.3123195,3.91351351 45.5043208,3.84864865 45.6323218,3.6972973 Z"></path>
                                <path d="M47.3816674,4.36756757 C47.3603339,4.34594595 47.3390005,4.3027027 47.3390005,4.25945946 L47.3390005,0.432432432 C47.3390005,0.389189189 47.3603339,0.345945946 47.3816674,0.324324324 C47.4030009,0.302702703 47.4456679,0.281081081 47.4883348,0.281081081 L47.979005,0.281081081 C48.0216719,0.281081081 48.0643389,0.302702703 48.0856724,0.324324324 C48.1070059,0.345945946 48.1283394,0.389189189 48.1283394,0.432432432 L48.1283394,4.28108108 C48.1283394,4.32432432 48.1070059,4.34594595 48.0856724,4.38918919 C48.0643389,4.41081081 48.0216719,4.43243243 47.979005,4.43243243 L47.4883348,4.43243243 C47.4243344,4.41081081 47.4030009,4.38918919 47.3816674,4.36756757 Z"></path>
                                <path d="M48.8750113,0.864864865 C48.8536778,0.843243243 48.8323443,0.8 48.8323443,0.756756757 L48.8323443,0.324324324 C48.8323443,0.281081081 48.8536778,0.237837838 48.8750113,0.216216216 C48.8963448,0.194594595 48.9390117,0.172972973 48.9816787,0.172972973 L49.5150158,0.172972973 C49.5576828,0.172972973 49.6003497,0.194594595 49.6216832,0.216216216 C49.6430167,0.237837838 49.6643502,0.281081081 49.6643502,0.324324324 L49.6643502,0.756756757 C49.6643502,0.8 49.6430167,0.821621622 49.6216832,0.864864865 C49.6003497,0.886486486 49.5576828,0.908108108 49.5150158,0.908108108 L48.9816787,0.908108108 C48.9176782,0.908108108 48.8963448,0.886486486 48.8750113,0.864864865 Z M48.8963448,4.36756757 C48.8750113,4.34594595 48.8536778,4.3027027 48.8536778,4.25945946 L48.8536778,1.51351351 C48.8536778,1.47027027 48.8750113,1.42702703 48.8963448,1.40540541 C48.9176782,1.38378378 48.9603452,1.36216216 49.0030122,1.36216216 L49.4936823,1.36216216 C49.5363493,1.36216216 49.5576828,1.38378378 49.6003497,1.40540541 C49.6216832,1.42702703 49.6430167,1.47027027 49.6430167,1.51351351 L49.6430167,4.25945946 C49.6430167,4.3027027 49.6216832,4.32432432 49.6003497,4.36756757 C49.5790162,4.41081081 49.5363493,4.41081081 49.4936823,4.41081081 L49.0030122,4.41081081 C48.9603452,4.41081081 48.9176782,4.38918919 48.8963448,4.36756757 Z"></path>
                                <path d="M50.2616877,4.36756757 C50.2403542,4.34594595 50.2190208,4.3027027 50.2190208,4.25945946 L50.2190208,3.91351351 C50.2190208,3.87027027 50.2190208,3.84864865 50.2403542,3.82702703 C50.2616877,3.80540541 50.2830212,3.76216216 50.3043547,3.71891892 L51.7550316,1.98918919 L50.3896886,1.98918919 C50.3470217,1.98918919 50.3256882,1.96756757 50.2830212,1.94594595 C50.2616877,1.92432432 50.2403542,1.88108108 50.2403542,1.83783784 L50.2403542,1.51351351 C50.2403542,1.47027027 50.2616877,1.44864865 50.2830212,1.40540541 C50.3043547,1.38378378 50.3470217,1.36216216 50.3896886,1.36216216 L52.565704,1.36216216 C52.6083709,1.36216216 52.6297044,1.38378378 52.6723714,1.40540541 C52.6937049,1.42702703 52.7150384,1.47027027 52.7150384,1.51351351 L52.7150384,1.88108108 C52.7150384,1.9027027 52.7150384,1.94594595 52.6937049,1.96756757 C52.6723714,1.98918919 52.6510379,2.03243243 52.6297044,2.05405405 L51.200361,3.78378378 L52.6937049,3.78378378 C52.7363718,3.78378378 52.7577053,3.80540541 52.8003723,3.82702703 C52.8217058,3.84864865 52.8430393,3.89189189 52.8430393,3.93513514 L52.8430393,4.25945946 C52.8430393,4.3027027 52.8217058,4.32432432 52.8003723,4.36756757 C52.7790388,4.38918919 52.7363718,4.41081081 52.6937049,4.41081081 L50.3470217,4.41081081 C50.3256882,4.41081081 50.2830212,4.38918919 50.2616877,4.36756757 Z"></path>
                                <path d="M53.6537116,4.08648649 C53.3977098,3.84864865 53.2697089,3.48108108 53.2483755,3.02702703 L53.2483755,2.87567568 C53.2483755,2.4 53.3763764,2.01081081 53.6323782,1.72972973 C53.88838,1.44864865 54.2297157,1.31891892 54.6777189,1.31891892 C55.125722,1.31891892 55.4883912,1.44864865 55.7230596,1.72972973 C55.9577279,2.01081081 56.0857288,2.37837838 56.0857288,2.85405405 L56.0857288,2.98378378 C56.0857288,3.02702703 56.0643953,3.04864865 56.0430618,3.09189189 C56.0217283,3.11351351 55.9790614,3.13513514 55.9363944,3.13513514 L54.0377144,3.13513514 L54.0377144,3.17837838 C54.0377144,3.39459459 54.1017148,3.56756757 54.2083822,3.71891892 C54.3150496,3.87027027 54.464384,3.93513514 54.6563854,3.93513514 C54.8697202,3.93513514 55.0617216,3.84864865 55.1897225,3.67567568 C55.2323894,3.63243243 55.2537229,3.61081081 55.2750564,3.58918919 C55.2963899,3.58918919 55.3177234,3.56756757 55.3817238,3.56756757 L55.8937274,3.56756757 C55.9363944,3.56756757 55.9577279,3.56756757 55.9790614,3.58918919 C56.0003949,3.61081081 56.0217283,3.63243243 56.0217283,3.67567568 C56.0217283,3.76216216 55.9577279,3.87027027 55.8510605,4 C55.7443931,4.12972973 55.5950587,4.23783784 55.3817238,4.32432432 C55.1897225,4.41081081 54.9550542,4.45405405 54.6777189,4.45405405 C54.2510492,4.47567568 53.9097134,4.34594595 53.6537116,4.08648649 Z M55.2963899,2.63783784 C55.2963899,2.4 55.2323894,2.20540541 55.125722,2.07567568 C55.0190546,1.94594595 54.8697202,1.85945946 54.6563854,1.85945946 C54.464384,1.85945946 54.3150496,1.92432432 54.2083822,2.07567568 C54.1017148,2.20540541 54.0377144,2.4 54.0377144,2.61621622 L54.0377144,2.63783784 L55.2963899,2.63783784 Z"></path>
                                <path d="M56.8964012,4.08648649 C56.6830663,3.82702703 56.5763989,3.5027027 56.5550654,3.09189189 L56.5550654,2.8972973 L56.5550654,2.7027027 C56.5763989,2.29189189 56.6830663,1.96756757 56.8964012,1.70810811 C57.109736,1.44864865 57.4084048,1.31891892 57.7924075,1.31891892 C58.1550767,1.31891892 58.4537455,1.44864865 58.6670803,1.70810811 L58.6670803,0.410810811 C58.6670803,0.367567568 58.6884138,0.324324324 58.7097473,0.302702703 C58.7310808,0.281081081 58.7737477,0.259459459 58.8164147,0.259459459 L59.3070848,0.259459459 C59.3497518,0.259459459 59.3924188,0.281081081 59.4137523,0.302702703 C59.4350857,0.324324324 59.4564192,0.367567568 59.4564192,0.410810811 L59.4564192,4.25945946 C59.4564192,4.3027027 59.4350857,4.32432432 59.4137523,4.36756757 C59.3924188,4.38918919 59.3497518,4.41081081 59.3070848,4.41081081 L58.8377482,4.41081081 C58.7950812,4.41081081 58.7737477,4.38918919 58.7310808,4.36756757 C58.7097473,4.34594595 58.6884138,4.3027027 58.6884138,4.25945946 L58.6884138,4.04324324 C58.475079,4.32432432 58.1764102,4.45405405 57.771074,4.45405405 C57.4084048,4.47567568 57.109736,4.34594595 56.8964012,4.08648649 Z M58.4964125,3.63243243 C58.6030799,3.48108108 58.6670803,3.30810811 58.6670803,3.11351351 C58.6670803,3.07027027 58.6670803,2.98378378 58.6670803,2.8972973 C58.6670803,2.78918919 58.6670803,2.72432432 58.6670803,2.68108108 C58.6670803,2.48648649 58.6030799,2.31351351 58.4964125,2.18378378 C58.389745,2.05405405 58.2190772,1.98918919 58.0057423,1.98918919 C57.6004061,1.98918919 57.3870713,2.24864865 57.3444043,2.74594595 L57.3444043,2.91891892 L57.3444043,3.09189189 C57.3657378,3.61081081 57.5790727,3.84864865 58.0057423,3.84864865 C58.2190772,3.84864865 58.389745,3.76216216 58.4964125,3.63243243 Z"></path>
                                <path d="M60.2030912,4.36756757 C60.1817577,4.34594595 60.1604242,4.3027027 60.1604242,4.25945946 L60.1604242,3.67567568 C60.1604242,3.63243243 60.1817577,3.61081081 60.2030912,3.56756757 C60.2244246,3.54594595 60.2670916,3.52432432 60.3097586,3.52432432 L60.8857626,3.52432432 C60.9284296,3.52432432 60.9497631,3.54594595 60.9924301,3.56756757 C61.0137635,3.58918919 61.035097,3.63243243 61.035097,3.67567568 L61.035097,4.25945946 C61.035097,4.3027027 61.0137635,4.32432432 60.9924301,4.36756757 C60.9710966,4.38918919 60.9284296,4.41081081 60.8857626,4.41081081 L60.3097586,4.41081081 C60.2670916,4.41081081 60.2457581,4.38918919 60.2030912,4.36756757 Z"></path>
                            </g>
                        </g>
                    </g>
                </g>
            </g>
        </g>
    </g>
</svg>