<svg class="show-desktop long-positions__visual hor-centered" width="2560px" height="1720px" viewBox="0 0 2560 1720" version="1.1" xmlns="http://www.w3.org/2000/svg" xmlns:xlink="http://www.w3.org/1999/xlink">
    <defs>
        <path d="M665.530183,507.226736 C1033.09325,507.226736 1331.06037,393.678985 1331.06037,253.613368 C1331.06037,113.547751 1033.09325,0 665.530183,0 C297.96712,0 0,113.547751 0,253.613368 C0,393.678985 297.96712,507.226736 665.530183,507.226736 Z" id="long-positions_path-1_1"></path>
        <path d="M-138.715355,693.116391 C-138.792475,553.046503 -138.834151,482.370234 -138.840382,481.087585 C-139.447167,386.952759 -62.9921724,311.660511 30.9079106,311.660511 L494.825432,311.660511 C511.208646,311.660511 525.316412,323.032175 525.923198,339.581685 C526.529984,356.890346 512.72561,371.01057 495.583914,371.01057 L32.2731784,371.01057 C-27.7986033,371.01057 -77.5550285,418.988966 -78.1618142,479.11379 C-78.1738912,480.322559 -78.1479985,550.885629 -78.084136,690.803001 L-138.715355,693.116391 Z" id="long-positions_path-3"></path>
        <path d="M345.674672,519.568554 C285.481035,519.568554 236.3837,568.444795 236.3837,628.705255 C236.3837,630.218705 236.452496,756.497311 236.590087,1007.54108 L175.698524,1007.1097 C175.620873,756.25255 175.582047,630.117734 175.582047,628.705255 C175.582047,535.05109 251.888122,460.234812 345.674672,460.234812 C387.931821,460.234812 387.931821,519.568554 345.674672,519.568554 Z" id="long-positions_path-4_1"></path>
        <path d="M1305.80167,509.989927 L1061.28212,509.989927 C964.772632,509.989927 886.469442,433.159454 886.469442,338.465106 L886.469442,303.369705 C886.469442,243.612671 837.006316,195.079842 776.264953,195.079842 L141.461318,202.826124 C103.9209,203.300386 68.3138938,189.230608 41.5683599,163.304276 C14.6617083,137.219856 0,101.175931 0,64.0253938 L0,31.6174784 C0,14.2278653 14.5005907,0 32.2235348,0 C49.9464789,0 64.4470696,14.2278653 64.4470696,31.6174784 L64.4470696,65.4481803 C64.4470696,85.3671917 72.3418356,104.021504 86.8424263,117.933195 C101.343017,131.844885 120.354902,139.43308 140.655729,139.274992 L775.942718,131.52871 C872.291087,131.52871 950.755394,208.51727 950.755394,303.053531 L950.755394,338.148932 C950.755394,398.064053 1000.21852,446.438795 1061.121,446.438795 L1305.64056,446.438795 C1323.3635,446.438795 1337.86409,460.666661 1337.86409,478.056274 C1338.02521,495.762062 1323.52462,509.989927 1305.80167,509.989927 Z" id="long-positions_path-5"></path>
        <path d="M76.0150807,0 C79.0683149,-5.60867642e-16 81.5434502,2.47512485 81.5434502,5.52834609 C81.5434502,8.58156733 79.0683149,11.0566922 76.0150807,11.0566922 C72.9618465,11.0566922 70.4867112,8.58156733 70.4867112,5.52834609 C70.4867112,2.47512485 72.9618465,1.17463735e-15 76.0150807,0 Z" id="long-positions_path-6"></path>
        <rect id="long-positions_path-7" x="34.5523094" y="0" width="11.056739" height="11.0566922" rx="5.52834609"></rect>
        <rect id="long-positions_path-8" x="-8.52651283e-13" y="0" width="11.056739" height="11.0566922" rx="5.52834609"></rect>
        <path d="M76.0150807,0 C79.0683149,-5.60867642e-16 81.5434502,2.47512485 81.5434502,5.52834609 C81.5434502,8.58156733 79.0683149,11.0566922 76.0150807,11.0566922 C72.9618465,11.0566922 70.4867112,8.58156733 70.4867112,5.52834609 C70.4867112,2.47512485 72.9618465,1.78840707e-15 76.0150807,0 Z" id="long-positions_path-9"></path>
        <rect id="long-positions_path-10" x="35.9344018" y="0" width="11.056739" height="11.0566922" rx="5.52834609"></rect>
        <rect id="long-positions_path-11" x="2.27373675e-13" y="0" width="11.056739" height="11.0566922" rx="5.52834609"></rect>
        <path d="M60.812712,121.623614 C94.3968372,121.623614 121.624129,94.3977323 121.624129,60.8111595 C121.624129,27.2258817 94.3968372,0 60.812712,0 C27.225997,0 0,27.2258817 0,60.8111595 C0,94.3977323 27.225997,121.623614 60.812712,121.623614 Z" id="long-positions_path-12"></path>
        <path d="M64.1290888,0.136618743 C32.8451572,2.24951445 8.11743096,28.6067282 8.11743096,60.8111595 C8.11743096,93.0168326 32.8451572,119.374097 64.1290888,121.486995 C62.7878003,121.577591 61.4344669,121.623614 60.070519,121.623614 C26.8937154,121.623614 0,94.3977323 0,60.8111595 C0,27.2258817 26.8937154,0 60.070519,0 C61.4344669,0 62.7878003,0.0460230515 64.1290863,0.136618916 Z" id="long-positions_path-13"></path>
        <rect id="long-positions_path-14" x="70.4867112" y="0" width="11.056739" height="11.0566922" rx="5.52834609"></rect>
        <rect id="long-positions_path-15" x="34.5523094" y="0" width="11.056739" height="11.0566922" rx="5.52834609"></rect>
        <rect id="long-positions_path-16" x="-6.82121026e-13" y="0" width="11.056739" height="11.0566922" rx="5.52834609"></rect>
        <rect id="long-positions_path-17" x="70.4867112" y="4.54747351e-13" width="11.056739" height="11.0566922" rx="5.52834609"></rect>
        <rect id="long-positions_path-18" x="34.6835093" y="4.54747351e-13" width="11.056739" height="11.0566922" rx="5.52834609"></rect>
        <rect id="long-positions_path-19" x="0.131199895" y="4.54747351e-13" width="11.056739" height="11.0566922" rx="5.52834609"></rect>
        <path d="M60.812712,121.623614 C94.3968372,121.623614 121.624129,94.3977323 121.624129,60.8111595 C121.624129,27.2258817 94.3968372,0 60.812712,0 C27.225997,0 0,27.2258817 0,60.8111595 C0,94.3977323 27.225997,121.623614 60.812712,121.623614 Z" id="long-positions_path-20"></path>
        <path d="M64.1290888,0.136618743 C32.8451572,2.24951445 8.11743096,28.6067282 8.11743096,60.8111595 C8.11743096,93.0168326 32.8451572,119.374097 64.1290888,121.486995 C62.7878003,121.577591 61.4344669,121.623614 60.070519,121.623614 C26.8937154,121.623614 0,94.3977323 0,60.8111595 C0,27.2258817 26.8937154,0 60.070519,0 C61.4344669,0 62.7878003,0.0460230515 64.1290863,0.136618916 Z" id="long-positions_path-21"></path>
        <polygon id="long-positions_path-22" points="1.06460307 1.54528255 245.949831 1.06430491 245.994119 63.0949053 1.13841732 63.5758829"></polygon>
        <polygon id="long-positions_path-23" points="19.3492933 17.9671248 496.171163 17.9671248 496.171163 280.563564 19.3492933 280.563564"></polygon>
        <rect id="long-positions_path-24" x="19.3492933" y="17.9671248" width="6.91046188" height="262.596439"></rect>
        <polygon id="long-positions_path-25" points="529.34138 15.2029518 592.861825 15.2029518 592.861825 283.327737 529.34138 283.327737"></polygon>
        <rect id="long-positions_path-26" x="555.601135" y="29.023817" width="11.056739" height="11.0566922" rx="5.52834609"></rect>
        <rect id="long-positions_path-27" x="555.601135" y="59.4297205" width="11.056739" height="11.0566922" rx="5.52834609"></rect>
        <polygon id="long-positions_path-28" points="587.539695 15.0551538 594.450157 15.0551538 594.450157 283.179939 587.539695 283.179939"></polygon>
    </defs>
    <g id="Page-1" stroke="none" stroke-width="1" fill="none" fill-rule="evenodd">
        <g id="bZx-website_2560" transform="translate(0.000000, -12342.000000)">
            <g id="how_box_works" transform="translate(-670.000000, 12091.529204)">
                <g id="long_positions" transform="translate(0.000000, 250.157661)">
                    <g id="black_hole" transform="translate(1284.779915, 1133.842425)">
                        <path d="M0,253.494786 L0,332.062478 L1330.66491,332.062478 L1330.66491,253.494786 C1330.66491,113.494659 1032.78632,0 665.332456,0 C297.878595,0 0,113.494659 0,253.494786" id="Fill-1814" stroke="#231F20" stroke-width="2.04067487" fill="#BED1F4"></path>
                        <g id="Group-183" transform="translate(0.000000, 77.279995)">
                            <mask id="mask-2" fill="white">
                                <use xlink:href="#path-1"></use>
                            </mask>
                            <use id="Fill-1818" stroke="#231F20" stroke-width="2.41499984" fill="#001135" xlink:href="#long-positions_path-1_1"></use>
                            <path d="M-598.012628,651.20736 C-598.012628,519.786958 -460.732956,389.269556 -225.312301,290.705627 C14.869274,190.148437 335.330133,131.633236 672.544994,131.633236 C1009.75986,131.633236 1330.22071,190.148437 1570.40229,290.705627 C1805.82294,389.269556 1943.10262,519.786958 1939.59521,651.20736 C1939.59521,521.597863 1803.30345,392.019712 1569.04869,293.943908 C1329.31683,193.575001 1009.31411,135.143456 672.544994,135.143456 C335.775873,135.143456 15.7731618,193.575001 -223.958698,293.943908 C-458.213465,392.019712 -594.505223,521.597863 -598.012628,651.20736 Z" id="Fill-1818" fill="#BED1F4" fill-rule="nonzero" opacity="0.100000001" mask="url(#mask-2)"></path>
                            <path d="M-590.997817,949.576029 C-590.997817,818.155626 -453.718146,687.638224 -218.29749,589.074295 C21.8840849,488.517106 342.344944,430.001904 679.559805,430.001904 C1016.77467,430.001904 1337.23553,488.517106 1577.4171,589.074295 C1812.83776,687.638224 1950.11743,818.155626 1946.61002,949.576029 C1946.61002,819.966531 1810.31826,690.38838 1576.0635,592.312576 C1336.33164,491.943669 1016.32893,433.512124 679.559805,433.512124 C342.790684,433.512124 22.7879727,491.943669 -216.943887,592.312576 C-451.198654,690.38838 -587.490412,819.966531 -590.997817,949.576029 Z" id="Fill-1818" fill="#BED1F4" fill-rule="nonzero" opacity="0.100000001" mask="url(#mask-2)"></path>
                        </g>
                        <path d="M559.676213,12.0749992 L559.676213,54.3374964" id="Path-10" stroke="#000000" stroke-width="2.41499984"></path>
                        <path d="M575.172462,10.8674993 L575.172462,73.1458393" id="Path-10-Copy" stroke="#000000" stroke-width="2.41499984"></path>
                        <path d="M295.23373,47.0924969 L295.23373,66.4124956" id="Path-10-Copy-5" stroke="#000000" stroke-width="2.41499984"></path>
                        <path d="M305.89998,40.238604 L305.89998,54.3374964" id="Path-10-Copy-7" stroke="#000000" stroke-width="2.41499984"></path>
                        <path d="M493.464967,62.7899958 L493.464967,82.1099946" id="Path-10-Copy-6" stroke="#000000" stroke-width="2.41499984"></path>
                        <path d="M798.761197,1.20749992 L798.761197,73.6574951" id="Path-10-Copy-2" stroke="#000000" stroke-width="2.41499984"></path>
                        <path d="M1183.95367,91.7699939 L1183.95367,160.597489" id="Path-10-Copy-3" stroke="#000000" stroke-width="2.41499984"></path>
                        <path d="M1171.87867,101.977142 L1171.87867,135.900343" id="Path-10-Copy-4" stroke="#000000" stroke-width="2.41499984"></path>
                        <path d="M0,318.779979 C0,263.924942 28.5774981,216.027445 85.7324943,175.087488" id="Path-11" stroke="#000000" stroke-width="2.41499984"></path>
                        <path d="M94.1849938,170.257489 L114.712492,158.18249" id="Path-12" stroke="#000000" stroke-width="2.41499984"></path>
                        <path d="M53.1299965,216.142486 C67.4097984,202.281393 81.4972975,190.608894 95.3924937,181.124988" id="Path-12-Copy" stroke="#000000" stroke-width="2.41499984"></path>
                    </g>
                    <g id="corner_tubes" transform="translate(382.777475, 0.000000)">
                        <g id="left_corner_tube" transform="translate(448.940417, 394.121401) rotate(-180.000000) translate(-448.940417, -394.121401) translate(0.957947, 187.035165)">
                            <path d="M0.138506725,413.24387 C0.0554545638,262.554965 0.0105733059,186.520568 0.00386295143,185.140678 C-0.649598543,83.8692764 81.6865498,1.38208652 182.809716,1.38208652 L862.08521,1.38208652 C879.72867,1.38208652 894.92165,15.102728 895.575112,32.9068938 C896.228573,51.5277644 881.362324,66.7184746 862.902037,66.7184746 L184.280004,66.7184746 C119.587316,66.7184746 66.0034739,118.334221 65.3500124,183.017245 C65.3370064,184.317653 65.3648909,260.23027 65.4336658,410.755096 L0.138506725,413.24387 Z" id="Shape" stroke="#000000" stroke-width="2.41499984" fill-opacity="0.5" fill="#BBD0EF" fill-rule="nonzero"></path>
                            <g id="Group-202" transform="translate(299.914046, 0.000000)">
                                <ellipse id="Oval" stroke="#000D6D" stroke-width="2.41499984" opacity="0.2" cx="32.4791708" cy="33.8611198" rx="32.4791708" ry="32.4790333"></ellipse>
                                <path d="M32.4791708,67.7222396 L32.4791708,64.9580666 C49.653613,64.9580666 63.5762493,51.0354893 63.5762493,33.8611198 C63.5762493,16.6867503 49.653613,2.76417305 32.4791708,2.76417305 L32.4791708,2.27373675e-13 C51.1802301,2.27373675e-13 66.3404341,15.1601397 66.3404341,33.8611198 C66.3404341,52.5620999 51.1802301,67.7222396 32.4791708,67.7222396 Z" id="Oval" fill="#231F20" fill-rule="nonzero"></path>
                            </g>
                            <path d="M391.281251,51.3215249 C393.571176,51.3215249 395.427528,53.1778685 395.427528,55.4677845 C395.427528,57.7577004 393.571176,59.614044 391.281251,59.614044 L197.949568,59.614044 C195.659643,59.614044 193.803291,57.7577004 193.803291,55.4677845 C193.803291,53.1778685 195.659643,51.3215249 197.949568,51.3215249 L391.281251,51.3215249 Z" id="Shape" fill="#FFFFFF" fill-rule="nonzero" opacity="0.5"></path>
                            <path d="M182.907823,66.7009197 C118.179049,66.7009197 65.3825998,119.28258 65.3825998,184.111522 C65.3825998,185.73971 65.4565787,262.117159 65.6045365,413.24387 L0.125252848,412.779795 C0.0417509493,261.853843 0,185.631085 0,184.111522 C0,83.3572222 82.0551627,1.38208652 182.907823,1.38208652 C228.34873,1.38208652 228.34873,66.7009197 182.907823,66.7009197 Z" id="Shape" stroke="#231F20" stroke-width="2.41499984" fill="#336ADF" fill-rule="nonzero"></path>
                            <path d="M33.3924888,413.24387 C33.2443076,261.598778 33.170217,184.848175 33.170217,182.992061 C33.170217,98.5322631 101.935746,33.1700765 186.381775,33.1700765 L215.606411,33.1700765" id="Shape" stroke="#231F20" stroke-width="2.41499984"></path>
                            <path d="M280.564752,8.29251914 C282.854678,8.29251914 284.711029,10.1488628 284.711029,12.4387787 C284.711029,14.7286946 282.854678,16.5850383 280.564752,16.5850383 L211.460134,16.5850383 C209.170208,16.5850383 207.313856,14.7286946 207.313856,12.4387787 C207.313856,10.1488628 209.170208,8.29251914 211.460134,8.29251914 L280.564752,8.29251914 Z" id="Shape" fill="#336ADF" fill-rule="nonzero" opacity="0.300000012"></path>
                            <path d="M884.27481,8.47684268 C886.564736,8.47684268 888.421087,10.3331863 888.421087,12.6231023 C888.421087,14.9130182 886.564736,16.7693618 884.27481,16.7693618 L304.311368,16.7693618 C302.021442,16.7693618 300.16509,14.9130182 300.16509,12.6231023 C300.16509,10.3331863 302.021442,8.47684268 304.311368,8.47684268 L884.27481,8.47684268 Z" id="Shape" fill="#336ADF" fill-rule="nonzero" opacity="0.300000012"></path>
                            <path d="M880.571555,52.7036114 L420.47942,52.7036114" id="Shape" stroke="#FFFFFF" stroke-width="7.24499952" opacity="0.5" stroke-linecap="round"></path>
                        </g>
                        <g id="right_corner_tube" transform="translate(2231.459852, 0.000000)">
                            <g id="Shape" fill-rule="nonzero" transform="translate(193.549248, 502.388451) rotate(-90.000000) translate(-193.549248, -502.388451) ">
                                <use fill-opacity="0.5" fill="#BBD0EF" fill-rule="evenodd" xlink:href="#long-positions_path-3"></use>
                                <path stroke="#231F20" stroke-width="2.41499984" d="M-139.922855,693.117056 C-139.999949,553.094097 -140.041651,482.373094 -140.047856,481.095368 C-140.656734,386.63595 -64.0118261,310.453011 30.9079106,310.453011 L494.825432,310.453011 C512.344953,310.453011 526.515102,322.769764 527.129957,339.53938 C527.758632,357.472437 513.467986,372.21807 495.583914,372.21807 L32.2731784,372.21807 C-27.3980691,372.21807 -76.3568713,419.920806 -76.9543745,479.125854 C-76.9663787,480.327327 -76.9404436,551.005779 -76.8766363,690.80245 L-76.8761055,691.965287 L-139.922165,694.370816 L-139.922855,693.117056 Z"></path>
                            </g>
                            <path d="M158.309245,490.133996 C160.599171,490.133996 162.455522,491.99034 162.455522,494.280255 C162.455522,496.570171 160.599171,498.426515 158.309245,498.426515 L-55.6300787,498.426515 C-57.9200043,498.426515 -59.7763558,496.570171 -59.7763558,494.280255 C-59.7763558,491.99034 -57.9200043,490.133996 -55.6300787,490.133996 L158.309245,490.133996 Z" id="Shape" fill="#FFFFFF" fill-rule="nonzero" opacity="0.5" transform="translate(51.339583, 494.280255) rotate(-90.000000) translate(-51.339583, -494.280255) "></path>
                            <g id="Shape" fill-rule="nonzero" transform="translate(276.474790, 733.887944) rotate(-90.000000) translate(-276.474790, -733.887944) ">
                                <use fill="#336ADF" fill-rule="evenodd" xlink:href="#long-positions_path-4_1"></use>
                                <path stroke="#231F20" stroke-width="2.41499984" d="M345.674672,520.776054 C286.094785,520.776054 237.5912,569.16469 237.5912,628.705255 C237.5912,630.218321 237.660001,756.505745 237.797587,1007.54041 L237.798254,1008.75716 L174.491395,1008.30868 L174.491024,1007.11008 C174.413371,756.247422 174.374547,630.117951 174.374547,628.705255 C174.374547,534.643778 250.958254,459.027312 345.674672,459.027312 C365.723783,459.027312 378.575034,472.560752 378.575034,489.901683 C378.575034,507.242614 365.723783,520.776054 345.674672,520.776054 Z"></path>
                            </g>
                            <path d="M204.813104,975.753085 C204.675026,724.569805 204.605987,598.117603 204.605987,596.396479 C204.605987,518.079212 268.682957,457.470639 347.371302,457.470639 L374.603349,457.470639" id="Shape" stroke="#231F20" stroke-width="2.41499984" transform="translate(289.604668, 716.611862) rotate(-90.000000) translate(-289.604668, -716.611862) "></path>
                            <path d="M58.104195,606.735983 C60.3941206,606.735983 62.2504721,608.592327 62.2504721,610.882243 C62.2504721,613.172159 60.3941206,615.028503 58.104195,615.028503 L-33.1139018,615.028503 C-35.4038274,615.028503 -37.2601789,613.172159 -37.2601789,610.882243 C-37.2601789,608.592327 -35.4038274,606.735983 -33.1139018,606.735983 L58.104195,606.735983 Z" id="Shape" fill="#336ADF" fill-rule="nonzero" opacity="0.300000012" transform="translate(12.495147, 610.882243) rotate(-90.000000) translate(-12.495147, -610.882243) "></path>
                            <path d="M281.066638,270.382239 C283.356563,270.382239 285.212915,272.238582 285.212915,274.528498 C285.212915,276.818414 283.356563,278.674758 281.066638,278.674758 L-257.569244,278.674758 C-259.859169,278.674758 -261.715521,276.818414 -261.715521,274.528498 C-261.715521,272.238582 -259.859169,270.382239 -257.569244,270.382239 L281.066638,270.382239 Z" id="Shape" fill="#336ADF" fill-rule="nonzero" opacity="0.300000012" transform="translate(11.748697, 274.528498) rotate(-90.000000) translate(-11.748697, -274.528498) "></path>
                            <path d="M182.67122,254.488244 L-97.7489061,254.488244" id="Shape" stroke="#FFFFFF" stroke-width="7.24499952" opacity="0.200000003" stroke-linecap="round" transform="translate(42.901179, 254.303920) rotate(-90.000000) translate(-42.901179, -254.303920) "></path>
                            <path d="M62.2504721,485.112369 C62.2504721,501.905086 48.6372278,515.518273 31.8444399,515.518273 C15.0516519,515.518273 1.4384076,501.905086 1.4384076,485.112369 C1.4384076,468.319653 15.0516519,454.706466 31.8444399,454.706466 C48.6372278,454.706466 62.2504721,468.319653 62.2504721,485.112369 Z" id="Oval" stroke="#000D6D" stroke-width="2.41499984" opacity="0.2"></path>
                            <path d="M65.7057031,487.185499 L62.9415183,487.185499 C62.9415183,470.774435 49.6376659,457.470639 33.2265322,457.470639 C16.8153986,457.470639 3.51154616,470.774435 3.51154616,487.185499 L0.747361407,487.185499 C0.747361407,469.247824 15.2887815,454.706466 33.2265322,454.706466 C51.164283,454.706466 65.7057031,469.247824 65.7057031,487.185499 Z" id="Oval" fill="#231F20" fill-rule="nonzero"></path>
                        </g>
                    </g>
                    <g id="bg_lines" transform="translate(1028.582432, 574.769962)">
                        <g id="right" transform="translate(2.622500, 0.000000)" fill="#000000">
                            <polygon id="Stroke-4484" fill-rule="nonzero" points="1833.7792 461.614143 1740.79172 461.614143 1740.79172 493.402133 1647.02989 493.402133 1647.02989 490.63796 1738.02753 490.63796 1738.02753 458.84997 1833.7792 458.84997"></polygon>
                            <polygon id="Stroke-4486" fill-rule="nonzero" points="1834.99445 438.778711 1810.11679 438.778711 1810.11679 436.014538 1834.99445 436.014538"></polygon>
                            <polygon id="Stroke-4486" fill-rule="nonzero" points="1834.99445 342.032655 1782.47494 342.032655 1782.47494 339.268481 1834.99445 339.268481"></polygon>
                            <polygon id="Stroke-4486" fill-rule="nonzero" points="1834.71616 278.932482 1834.71616 489.700676 1830.56988 489.700676 1830.56988 278.932482"></polygon>
                            <g id="Group-7" transform="translate(1779.854882, 0.000000)" fill-rule="nonzero">
                                <polygon id="Stroke-4486-Copy" points="52.7245721 108.094875 41.6678331 108.094875 41.6678331 105.330702 52.7245721 105.330702"></polygon>
                                <polygon id="Stroke-4486" points="54.8612738 0 54.8612738 114.930898 50.7149966 114.930898 50.7149966 0"></polygon>
                                <polygon id="Stroke-4486" points="52.5195103 2.76417305 0 2.76417305 0 0 52.5195103 0"></polygon>
                            </g>
                            <polygon id="Stroke-4486" fill-rule="nonzero" points="1662.72739 1118.14493 1780.23776 1118.14493 1780.23776 1120.9091 1662.72739 1120.9091"></polygon>
                            <polygon id="Stroke-4486" fill-rule="nonzero" points="0 1118.14493 117.510367 1118.14493 117.510367 1120.9091 0 1120.9091"></polygon>
                            <polygon id="Stroke-4486" fill-rule="nonzero" points="0 1106.06993 60.374996 1106.06993 60.374996 1108.8341 0 1108.8341"></polygon>
                            <polygon id="Stroke-4486" fill-rule="nonzero" points="1804.00488 1118.14493 1834.5363 1118.14493 1834.5363 1120.9091 1804.00488 1120.9091"></polygon>
                            <text id="_0x" font-family=".SFNSDisplay, .SF NS Display" font-size="20.7207002" font-weight="normal" letter-spacing="-0.0345344979">
                                <tspan x="1653.06739" y="919.58744">_</tspan>
                                <tspan x="1661.76428" y="919.58744" letter-spacing="0.172672513">0</tspan>
                                <tspan x="1674.85704" y="919.58744">x</tspan>
                            </text>
                        </g>
                        <g id="left" transform="translate(0.036248, 72.777535)">
                            <g id="2" transform="translate(1.207500, 159.389989)" fill="#231F20">
                                <polygon id="Stroke-4487-Copy" fill-rule="nonzero" points="316.364979 215.284159 316.364979 212.519986 345.388919 212.519986 345.388919 215.284159"></polygon>
                                <path d="M1.32241441,1.58110199 C1.27245645,-0.642918902 0.00241399661,-0.463200042 0.000193642668,1.75877859 C-0.0142386579,25.9942753 0.782868406,344.139544 0.782868406,344.139544 C0.782868406,344.139544 35.9344018,321.603208 35.9344018,264.468948 C35.9344018,237.80112 31.2849806,221.795931 23.4371396,199.259594 C9.00594922,160.334123 18.1316039,124.467957 19.3583495,105.405504 C21.6586361,69.6700426 2.84446704,69.6700426 1.32241441,1.58110199" id="Fill-4507" stroke="#231F20" stroke-width="2.41499984"></path>
                            </g>
                            <g id="1" transform="translate(0.858315, 1.131024)" fill="#000000" fill-rule="nonzero">
                                <polygon id="Stroke-3048" transform="translate(2.073139, 164.889008) scale(-1, 1) translate(-2.073139, -164.889008) " points="9.20658467e-15 90.562494 4.14627713 90.562494 4.14627713 239.215521 0 239.215521"></polygon>
                                <polygon id="Stroke-4485" points="3.28796212 180.74798 3.28796212 177.983807 149.894026 177.983807 149.894026 180.74798"></polygon>
                                <polygon id="Stroke-4485" points="3.11336966 166.927115 3.11336966 164.162942 34.9014943 164.162942 34.9014943 166.927115"></polygon>
                                <polygon id="Stroke-4489" points="1.20749992 2.76417305 1.20749992 0 20.5567932 0 20.5567932 2.76417305"></polygon>
                                <polygon id="Stroke-4489" points="1.20749992 16.0466722 1.20749992 13.2824991 20.5567932 13.2824991 20.5567932 16.0466722"></polygon>
                            </g>
                        </g>
                    </g>
                    <g id="curve_tubes" transform="translate(0.000000, 886.760493)">
                        <g id="left">
                            <path d="M1305.80167,509.989927 L1061.28212,509.989927 C964.772632,509.989927 886.469442,433.159454 886.469442,338.465106 L886.469442,303.369705 C886.469442,243.612671 837.006316,195.079842 776.264953,195.079842 L141.461318,202.826124 C103.9209,203.300386 68.3138938,189.230608 41.5683599,163.304276 C14.6617083,137.219856 0,101.175931 0,64.0253938 L0,31.6174784 C0,14.2278653 14.5005907,0 32.2235348,0 C49.9464789,0 64.4470696,14.2278653 64.4470696,31.6174784 L64.4470696,65.4481803 C64.4470696,85.3671917 72.3418356,104.021504 86.8424263,117.933195 C101.343017,131.844885 120.354902,139.43308 140.655729,139.274992 L775.942718,131.52871 C872.291087,131.52871 950.755394,208.51727 950.755394,303.053531 L950.755394,338.148932 C950.755394,398.064053 1000.21852,446.438795 1061.121,446.438795 L1305.64056,446.438795 C1323.3635,446.438795 1337.86409,460.666661 1337.86409,478.056274 C1338.02521,495.762062 1323.52462,509.989927 1305.80167,509.989927 Z" id="Shape" stroke="#231F20" stroke-width="2.41499984" fill-opacity="0.5" fill="#BBD0EF" fill-rule="nonzero"></path>
                            <path d="M424.810982,146.716106 C422.521056,146.716106 420.664705,144.859762 420.664705,142.569846 C420.664705,140.27993 422.521056,138.423587 424.810982,138.423587 L777.67271,138.423587 C868.101419,138.423587 944.088834,212.127573 944.088834,300.457632 L944.088834,347.682948 C944.088834,376.758257 957.71863,403.497116 981.134173,423.534383 C1003.11813,442.346606 1031.83526,453.401126 1058.61149,453.401126 L1278.95615,453.401126 C1281.24607,453.401126 1283.10242,455.25747 1283.10242,457.547386 C1283.10242,459.837302 1281.24607,461.693645 1278.95615,461.693645 L1058.61149,461.693645 C1029.81677,461.693645 999.199658,449.907736 975.742588,429.834934 C950.569079,408.293331 935.79628,379.312134 935.79628,347.682948 L935.79628,300.457632 C935.79628,216.764972 863.577225,146.716106 777.67271,146.716106 L424.810982,146.716106 Z" id="Path" fill="#FFFFFF" fill-rule="nonzero" opacity="0.5"></path>
                            <path d="M1309.50919,496.184618 C1311.79911,496.184618 1313.65546,498.040961 1313.65546,500.330877 C1313.65546,502.620793 1311.79911,504.477137 1309.50919,504.477137 L1068.14948,504.477137 C970.614668,504.477137 891.449583,426.800979 891.449583,331.02262 C891.449583,328.732704 893.305934,326.87636 895.59586,326.87636 C897.885785,326.87636 899.742137,328.732704 899.742137,331.02262 C899.742137,422.185544 975.159655,496.184618 1068.14948,496.184618 L1309.50919,496.184618 Z" id="Path" fill="#336ADF" fill-rule="nonzero" opacity="0.300000012"></path>
                            <path d="M901.242055,308.212527 C901.242055,310.502443 899.385703,312.358787 897.095778,312.358787 C894.805852,312.358787 892.9495,310.502443 892.9495,308.212527 C892.9495,299.409038 892.24271,283.962605 891.404698,279.12691 C882.560522,228.092109 837.219311,190.113769 783.94158,190.113769 L411.607282,190.113769 C409.317356,190.113769 407.461005,188.257425 407.461005,185.967509 C407.461005,183.677593 409.317356,181.82125 411.607282,181.82125 L783.94158,181.82125 C841.244671,181.82125 890.041158,222.693771 899.57547,277.710952 C900.519547,283.158693 901.242055,298.94862 901.242055,308.212527 Z" id="Path" fill="#336ADF" fill-rule="nonzero" opacity="0.300000012"></path>
                            <g id="Group-197" transform="translate(678.607357, 131.298220)">
                                <ellipse id="Oval" stroke="#000D6D" stroke-width="2.41499984" opacity="0.2" cx="33.170217" cy="32.5993923" rx="31.7881247" ry="31.2173058"></ellipse>
                                <path d="M32.8848737,6.82121026e-13 L32.8848737,2.76417305 C16.4129277,2.76417305 3.04952806,16.3718116 3.04952806,33.1700765 C3.04952806,49.9683414 16.4129277,63.57598 32.8848737,63.57598 L32.8848737,66.3401531 C14.8749898,66.3401531 0.285343311,51.4838559 0.285343311,33.1700765 C0.285343311,14.8562972 14.8749898,6.82121026e-13 32.8848737,6.82121026e-13 Z" id="Oval" fill="#231F20" fill-rule="nonzero"></path>
                            </g>
                            <g id="Group" transform="translate(884.539121, 284.709824)">
                                <g id="Group-198">
                                    <ellipse id="Oval" stroke="#000D6D" stroke-width="2.41499984" opacity="0.2" cx="34.2457429" cy="33.7121639" rx="31.7881247" ry="31.2173058"></ellipse>
                                    <path d="M67.4159599,33.7121639 L64.6517752,33.7121639 C64.6517752,17.2402876 51.0440789,3.87694457 34.2457429,3.87694457 C17.4474068,3.87694457 3.83971062,17.2402876 3.83971062,33.7121639 L1.07552587,33.7121639 C1.07552587,15.7023562 15.931886,1.11277153 34.2457429,1.11277153 C52.5595998,1.11277153 67.4159599,15.7023562 67.4159599,33.7121639 Z" id="Oval" fill="#231F20" fill-rule="nonzero"></path>
                                </g>
                                <g id="Group-197" transform="translate(164.468993, 160.322037)">
                                    <ellipse id="Oval" stroke="#000D6D" stroke-width="2.41499984" opacity="0.2" cx="33.170217" cy="32.5993923" rx="31.7881247" ry="31.2173058"></ellipse>
                                    <path d="M32.8848737,6.82121026e-13 L32.8848737,2.76417305 C16.4129277,2.76417305 3.04952806,16.3718116 3.04952806,33.1700765 C3.04952806,49.9683414 16.4129277,63.57598 32.8848737,63.57598 L32.8848737,66.3401531 C14.8749898,66.3401531 0.285343311,51.4838559 0.285343311,33.1700765 C0.285343311,14.8562972 14.8749898,6.82121026e-13 32.8848737,6.82121026e-13 Z" id="Oval" fill="#231F20" fill-rule="nonzero"></path>
                                </g>
                            </g>
                        </g>
                        <g id="right" transform="translate(3222.577757, 256.593733) scale(-1, 1) translate(-3222.577757, -256.593733) translate(2553.622802, 0.000000)">
                            <g id="Shape" fill-rule="nonzero">
                                <use fill-opacity="0.5" fill="#BBD0EF" fill-rule="evenodd" xlink:href="#long-positions_path-5"></use>
                                <path stroke="#231F20" stroke-width="2.41499984" d="M1305.80167,511.197427 L1061.28212,511.197427 C964.110826,511.197427 885.261942,433.831524 885.261942,338.465106 L885.261942,303.369705 C885.261942,244.308949 836.369174,196.287342 776.279687,196.287252 L141.476571,204.033528 C103.601885,204.512013 67.6916655,190.309152 40.7278781,164.171251 C13.8486443,138.113412 -1.20749992,101.879422 -1.20749992,64.0253938 L-1.20749992,31.6174784 C-1.20749992,13.5557959 13.8387847,-1.20749992 32.2235348,-1.20749992 C50.6082849,-1.20749992 65.6545695,13.5557959 65.6545695,31.6174784 L65.6545695,65.4481803 C65.6545695,85.0948307 73.4558687,103.416948 87.6783808,117.061853 C101.983416,130.78593 120.704234,138.222823 140.641007,138.067582 L775.942718,130.32121 C872.952893,130.32121 951.962894,207.845201 951.962894,303.053531 L951.962894,338.148932 C951.962894,397.337124 1000.82438,445.231295 1061.121,445.231295 L1305.64056,445.231295 C1324.02531,445.231295 1339.07159,459.994591 1339.07154,478.045286 C1339.23814,496.353901 1324.26552,511.197427 1305.80167,511.197427 Z"></path>
                            </g>
                            <path d="M413.754243,143.951933 C411.464317,143.951933 409.607966,142.095589 409.607966,139.805673 C409.607966,137.515757 411.464317,135.659414 413.754243,135.659414 L780.436895,135.659414 C870.865604,135.659414 946.853019,209.3634 946.853019,297.693459 L946.853019,344.918775 C946.853019,373.994084 960.482815,400.732943 983.898357,420.77021 C1005.88231,439.582433 1034.59944,450.636953 1061.37567,450.636953 L1281.72033,450.636953 C1284.01026,450.636953 1285.86661,452.493297 1285.86661,454.783213 C1285.86661,457.073129 1284.01026,458.929472 1281.72033,458.929472 L1061.37567,458.929472 C1032.58095,458.929472 1001.96384,447.143563 978.506773,427.070761 C953.333264,405.529158 938.560465,376.547961 938.560465,344.918775 L938.560465,297.693459 C938.560465,214.000799 866.34141,143.951933 780.436895,143.951933 L413.754243,143.951933 Z" id="Path" fill="#FFFFFF" fill-rule="nonzero" opacity="0.5"></path>
                            <path d="M1309.50919,496.184618 C1311.79911,496.184618 1313.65546,498.040961 1313.65546,500.330877 C1313.65546,502.620793 1311.79911,504.477137 1309.50919,504.477137 L1068.14948,504.477137 C970.614668,504.477137 891.449583,426.800979 891.449583,331.02262 C891.449583,328.732704 893.305934,326.87636 895.59586,326.87636 C897.885785,326.87636 899.742137,328.732704 899.742137,331.02262 C899.742137,422.185544 975.159655,496.184618 1068.14948,496.184618 L1309.50919,496.184618 Z" id="Path" fill="#336ADF" fill-rule="nonzero" opacity="0.300000012"></path>
                            <path d="M901.242055,308.212527 C901.242055,310.502443 899.385703,312.358787 897.095778,312.358787 C894.805852,312.358787 892.9495,310.502443 892.9495,308.212527 C892.9495,299.409038 892.24271,283.962605 891.404698,279.12691 C882.560522,228.092109 837.219311,190.113769 783.94158,190.113769 L397.786358,190.113769 C395.496433,190.113769 393.640081,188.257425 393.640081,185.967509 C393.640081,183.677593 395.496433,181.82125 397.786358,181.82125 L783.94158,181.82125 C841.244671,181.82125 890.041158,222.693771 899.57547,277.710952 C900.519547,283.158693 901.242055,298.94862 901.242055,308.212527 Z" id="Path" fill="#336ADF" fill-rule="nonzero" opacity="0.300000012"></path>
                            <g id="Group" transform="translate(674.461080, 131.298220)">
                                <g id="Group-197">
                                    <ellipse id="Oval" stroke="#000D6D" stroke-width="2.41499984" opacity="0.2" cx="33.170217" cy="32.5993923" rx="31.7881247" ry="31.2173058"></ellipse>
                                    <path d="M32.8848737,6.82121026e-13 L32.8848737,2.76417305 C16.4129277,2.76417305 3.04952806,16.3718116 3.04952806,33.1700765 C3.04952806,49.9683414 16.4129277,63.57598 32.8848737,63.57598 L32.8848737,66.3401531 C14.8749898,66.3401531 0.285343311,51.4838559 0.285343311,33.1700765 C0.285343311,14.8562972 14.8749898,6.82121026e-13 32.8848737,6.82121026e-13 Z" id="Oval" fill="#231F20" fill-rule="nonzero"></path>
                                </g>
                                <g id="Group-199" transform="translate(210.078041, 157.557864)">
                                    <ellipse id="Oval" stroke="#000D6D" stroke-width="2.41499984" opacity="0.2" cx="33.8612632" cy="33.8611198" rx="32.4791708" ry="32.4790333"></ellipse>
                                    <path d="M69.1046188,35.2432063 L66.3404341,35.2432063 C66.3404341,17.6871842 52.1084059,3.45521631 34.5523094,3.45521631 C16.9962129,3.45521631 2.76418475,17.6871842 2.76418475,35.2432063 L0,35.2432063 C0,16.1605736 15.4695959,0.691043261 34.5523094,0.691043261 C53.635023,0.691043261 69.1046188,16.1605736 69.1046188,35.2432063 Z" id="Oval" fill="#231F20" fill-rule="nonzero"></path>
                                </g>
                                <g id="Group-200" transform="translate(373.164942, 310.969468)">
                                    <ellipse id="Oval" stroke="#000D6D" stroke-width="2.41499984" opacity="0.2" cx="33.8612632" cy="35.9166961" rx="32.4791708" ry="32.4790333"></ellipse>
                                    <path d="M34.4563698,0.691043261 L34.4563698,3.45521631 C17.2348187,3.45521631 3.26374419,17.6816361 3.26374419,35.2432063 C3.26374419,52.8047765 17.2348187,67.0311964 34.4563698,67.0311964 L34.4563698,69.7953694 C15.6968809,69.7953694 0.499559434,54.320291 0.499559434,35.2432063 C0.499559434,16.1661217 15.6968809,0.691043261 34.4563698,0.691043261 Z" id="Oval" fill="#231F20" fill-rule="nonzero"></path>
                                </g>
                            </g>
                        </g>
                    </g>
                    <g id="green_boxes" transform="translate(1032.234940, 1183.050768)">
                        <g id="left" transform="translate(0.000000, 1.207500)">                            
                            <rect id="Rectangle-9-Copy-3" stroke="#231F20" stroke-width="2.41499984" fill="#0DA6A3" x="187.162488" y="0" width="156.97499" height="352.589977"></rect>
                            <rect id="Rectangle-9-Copy-3" stroke="#231F20" stroke-width="2.41499984" fill="#001135" x="223.387485" y="45.884997" width="83.3174945" height="262.027483"></rect>
                            <rect id="Rectangle-9-Copy-3" stroke="#231F20" stroke-width="2.41499984" fill="#4FE2DF" x="299.45998" y="45.884997" width="7.24499952" height="262.027483"></rect>
                            <g id="Group-72" transform="translate(268.064982, 330.854978) rotate(-180.000000) translate(-268.064982, -330.854978) translate(227.009985, 324.817479)" fill-rule="nonzero">
                                <g id="Rectangle-path">
                                    <use fill="#4FE2DF" fill-rule="evenodd" xlink:href="#long-positions_path-6"></use>
                                    <path stroke="#231F20" stroke-width="2.41499984" d="M76.0150807,-1.20749992 C79.7351975,-1.20749992 82.7509501,1.80823992 82.7509501,5.52834609 C82.7509501,9.24845227 79.7351975,12.2641921 76.0150807,12.2641921 C72.2949639,12.2641921 69.2792113,9.24845227 69.2792113,5.52834609 C69.2792113,1.80823992 72.2949639,-1.20749992 76.0150807,-1.20749992 Z"></path>
                                </g>
                                <g id="Rectangle-path" transform="translate(40.080679, 5.528346) rotate(90.000000) translate(-40.080679, -5.528346) ">
                                    <use fill="#407BF7" fill-rule="evenodd" xlink:href="#long-positions_path-7"></use>
                                    <rect stroke="#231F20" stroke-width="2.41499984" x="33.3448095" y="-1.20749992" width="13.4717388" height="13.471692" rx="6.73584601"></rect>
                                </g>
                                <g id="Rectangle-path" transform="translate(5.528370, 5.528346) rotate(90.000000) translate(-5.528370, -5.528346) ">
                                    <use fill="#407BF7" fill-rule="evenodd" xlink:href="#long-positions_path-8"></use>
                                    <rect stroke="#231F20" stroke-width="2.41499984" x="-1.20749992" y="-1.20749992" width="13.4717388" height="13.471692" rx="6.73584601"></rect>
                                </g>
                            </g>
                            <g id="Group-72" transform="translate(265.649982, 24.149998) rotate(-360.000000) translate(-265.649982, -24.149998) translate(224.594985, 18.112499)" fill-rule="nonzero">
                                <g id="Rectangle-path">
                                    <use fill="#4FE2DF" fill-rule="evenodd" xlink:href="#long-positions_path-9"></use>
                                    <path stroke="#231F20" stroke-width="2.41499984" d="M76.0150807,-1.20749992 C79.7351975,-1.20749992 82.7509501,1.80823992 82.7509501,5.52834609 C82.7509501,9.24845227 79.7351975,12.2641921 76.0150807,12.2641921 C72.2949639,12.2641921 69.2792113,9.24845227 69.2792113,5.52834609 C69.2792113,1.80823992 72.2949639,-1.20749992 76.0150807,-1.20749992 Z"></path>
                                </g>
                                <g id="Rectangle-path" transform="translate(41.462771, 5.528346) rotate(90.000000) translate(-41.462771, -5.528346) ">
                                    <use fill="#4FE2DF" fill-rule="evenodd" xlink:href="#long-positions_path-10"></use>
                                    <rect stroke="#231F20" stroke-width="2.41499984" x="34.7269019" y="-1.20749992" width="13.4717388" height="13.471692" rx="6.73584601"></rect>
                                </g>
                                <g id="Rectangle-path" transform="translate(5.528370, 5.528346) rotate(90.000000) translate(-5.528370, -5.528346) ">
                                    <use fill="#407BF7" fill-rule="evenodd" xlink:href="#long-positions_path-11"></use>
                                    <rect stroke="#231F20" stroke-width="2.41499984" x="-1.20749992" y="-1.20749992" width="13.4717388" height="13.471692" rx="6.73584601"></rect>
                                </g>
                            </g>
                        </g>
                        <g id="right" transform="translate(1662.727390, 177.502488) scale(-1, 1) translate(-1662.727390, -177.502488) translate(1490.054901, 0.000000)">
                            <rect id="Rectangle-9-Copy-3" stroke="#231F20" stroke-width="2.41499984" fill="#0DA6A3" x="186.582471" y="1.38208652" width="157.558531" height="352.432063"></rect>
                            <rect id="Rectangle-9-Copy-3" stroke="#231F20" stroke-width="2.41499984" fill="#001135" x="223.898965" y="46.9909418" width="82.9255426" height="262.596439"></rect>
                            <rect id="Rectangle-9-Copy-3" stroke="#231F20" stroke-width="2.41499984" fill="#4FE2DF" x="299.914046" y="46.9909418" width="6.91046188" height="262.596439"></rect>
                            <g id="Group-72" transform="translate(265.769510, 332.573698) rotate(-180.000000) translate(-265.769510, -332.573698) translate(224.714513, 326.536199)" fill-rule="nonzero">
                                <g id="Rectangle-path" transform="translate(76.015081, 5.528346) rotate(90.000000) translate(-76.015081, -5.528346) ">
                                    <use fill="#4FE2DF" fill-rule="evenodd" xlink:href="#long-positions_path-14"></use>
                                    <rect stroke="#231F20" stroke-width="2.41499984" x="69.2792113" y="-1.20749992" width="13.4717388" height="13.471692" rx="6.73584601"></rect>
                                </g>
                                <g id="Rectangle-path" transform="translate(40.080679, 5.528346) rotate(90.000000) translate(-40.080679, -5.528346) ">
                                    <use fill="#407BF7" fill-rule="evenodd" xlink:href="#long-positions_path-15"></use>
                                    <rect stroke="#231F20" stroke-width="2.41499984" x="33.3448095" y="-1.20749992" width="13.4717388" height="13.471692" rx="6.73584601"></rect>
                                </g>
                                <g id="Rectangle-path" transform="translate(5.528370, 5.528346) rotate(90.000000) translate(-5.528370, -5.528346) ">
                                    <use fill="#4FE2DF" fill-rule="evenodd" xlink:href="#long-positions_path-16"></use>
                                    <rect stroke="#231F20" stroke-width="2.41499984" x="-1.20749992" y="-1.20749992" width="13.4717388" height="13.471692" rx="6.73584601"></rect>
                                </g>
                            </g>
                            <g id="Group-72" transform="translate(270.351132, 25.386711) rotate(-360.000000) translate(-270.351132, -25.386711) translate(229.296135, 19.349211)" fill-rule="nonzero">
                                <g id="Rectangle-path" transform="translate(76.015081, 5.528346) rotate(90.000000) translate(-76.015081, -5.528346) ">
                                    <use fill="#4FE2DF" fill-rule="evenodd" xlink:href="#long-positions_path-17"></use>
                                    <rect stroke="#231F20" stroke-width="2.41499984" x="69.2792113" y="-1.20749992" width="13.4717388" height="13.471692" rx="6.73584601"></rect>
                                </g>
                                <g id="Rectangle-path" transform="translate(40.211879, 5.528346) rotate(90.000000) translate(-40.211879, -5.528346) ">
                                    <use fill="#4FE2DF" fill-rule="evenodd" xlink:href="#long-positions_path-18"></use>
                                    <rect stroke="#231F20" stroke-width="2.41499984" x="33.4760094" y="-1.20749992" width="13.4717388" height="13.471692" rx="6.73584601"></rect>
                                </g>
                                <g id="Rectangle-path" transform="translate(5.659569, 5.528346) rotate(90.000000) translate(-5.659569, -5.528346) ">
                                    <use fill="#407BF7" fill-rule="evenodd" xlink:href="#long-positions_path-19"></use>
                                    <rect stroke="#231F20" stroke-width="2.41499984" x="-1.07630002" y="-1.20749992" width="13.4717388" height="13.471692" rx="6.73584601"></rect>
                                </g>
                            </g>
                        </g>
                    </g>
                    <g id="coins" transform="translate(1679.676956, 1344.565698)">
                        <g id="long-black-coin">
                            <g id="Group" transform="translate(-487, 0)">
                                <g>
                                    <ellipse id="Oval" stroke="#231F20" stroke-width="2.04067487" fill="#6D86B4" fill-rule="nonzero" cx="27.2438049" cy="26.2270233" rx="27.1829929" ry="25.9551843"></ellipse>
                                    <ellipse id="Oval" stroke="#231F20" stroke-width="2.04067487" fill="#6D86B4" fill-rule="nonzero" cx="33.2641993" cy="26.2270233" rx="27.1829929" ry="25.9551843"></ellipse>
                                    <ellipse id="Oval" stroke="#231F20" stroke-width="2.04067487" fill="#6D86B4" fill-rule="nonzero" cx="33.2641993" cy="26.2270233" rx="16.7841298" ry="16.011315"></ellipse>
                                    <g transform="translate(26.062313, 14.380281)" fill="#231F20">
                                        <polygon id="Fill-15" points="0 11.4934104 7.13636162 0 14.2722192 11.4934104 7.13636162 15.6307404"></polygon>
                                        <polygon id="Fill-17" points="7.13610962 18.0264479 0 13.7550516 7.13610962 23.7587255 14.2722192 13.7550516"></polygon>
                                    </g>
                                </g>
                                <path d="M14.2722192,8.12798503 L8.06690652,8.12798503" id="Shape" stroke="#231F20" stroke-width="2.41499984" fill="#29CC86" fill-rule="nonzero"></path>
                                <path d="M6.20531271,26.2596439 L0,26.2596439" id="Shape" stroke="#231F20" stroke-width="2.41499984" fill="#29CC86" fill-rule="nonzero"></path>
                                <path d="M11.7900941,42.515614 L6.20531271,42.515614" id="Shape" stroke="#231F20" stroke-width="2.41499984" fill="#29CC86" fill-rule="nonzero"></path>
                            </g>
                        </g>
                        <g id="long-gold-coin">
                            <g id="Group" transform="translate(965.077904, 0.000000)">
                                <g fill="#FFCB76" fill-rule="nonzero" id="Oval" stroke="#231F20" stroke-width="2.41499984">
                                    <ellipse cx="27.2438049" cy="26.2270233" rx="27.1829929" ry="25.9551843"></ellipse>
                                    <ellipse cx="33.2641993" cy="26.2270233" rx="27.1829929" ry="25.9551843"></ellipse>
                                    <ellipse cx="33.2641993" cy="26.2270233" rx="16.7841298" ry="16.011315"></ellipse>
                                </g>
                                <g id="Group-2" transform="translate(21.098063, 13.755052)" fill="#231F20">
                                    <polygon id="Fill-5" points="14.0818678 24.3462746 0.383295271 13.8607571 12.9809074 16.2249587 24.4885909 10.5439834"></polygon>
                                    <path d="M12.9797491,17.6305304 L0.382136946,13.8469187 L10.78886,0.0446275007 L24.4874326,10.530145 L12.9797491,17.6305304 Z M11.2754669,3.60843632 L4.31007231,12.8462734 L8.24837745,12.3044077 L11.802229,7.67604127 L16.6258254,11.1517622 L20.8884615,10.5654357 L11.2754669,3.60843632 Z" id="Combined-Shape"></path>
                                </g>
                                <path d="M14.2722192,8.12798503 L8.06690652,8.12798503" id="Shape" stroke="#231F20" stroke-width="2.41499984" fill="#29CC86" fill-rule="nonzero"></path>
                                <path d="M6.20531271,26.2596439 L0,26.2596439" id="Shape" stroke="#231F20" stroke-width="2.41499984" fill="#29CC86" fill-rule="nonzero"></path>
                                <path d="M11.7900941,42.515614 L6.20531271,42.515614" id="Shape" stroke="#231F20" stroke-width="2.41499984" fill="#29CC86" fill-rule="nonzero"></path>
                            </g>
                        </g>
                    </g>
                    <g id="left_box_top" transform="translate(1032.234940, 1181.945133)">
                        <rect id="Rectangle-9-Copy-4" stroke="#231F20" stroke-width="2.41499984" fill="#4FE2DF" fill-rule="nonzero" x="0" y="2" width="187.162488" height="352.589977"></rect>
                        <path d="M181.124988,353.382477 L1.20749992,353.382477 L1.20749992,2 C7.20385321,34.6732392 17.3411859,38.9487357 28.6078766,55.5228829 C47.111261,79.0237395 49.114527,103.382891 49.114527,125.894461 C49.114527,150.949974 57.5188247,197.398107 69.2378758,207.329403 C87.3882725,222.372817 130.892439,233.720327 138.436627,259.664843 C148.5086,290.365451 138.436627,300.305625 161.361223,317.146324 C169.966587,323.467934 181.124988,341.618529 181.124988,353.382477 Z" id="Shape" fill="#19C5C2" fill-rule="nonzero"></path>
                        <g id="Group-5" transform="translate(11.282499, 15.697499)" stroke="#231F20" stroke-width="2.41499984">
                            <rect id="Rectangle-path" transform="translate(5.799968, 5.716484) rotate(90.000000) translate(-5.799968, -5.716484) " x="0.96996836" y="0.88649945" width="9.65999936" height="9.65996868" rx="4.82998434"></rect>
                            <rect id="Rectangle-path" transform="translate(153.114958, 5.716485) rotate(90.000000) translate(-153.114958, -5.716485) " x="148.284959" y="0.88650034" width="9.65999936" height="9.65996868" rx="4.82998434"></rect>
                            <rect id="Rectangle-path" transform="translate(153.114960, 316.043965) rotate(90.000000) translate(-153.114960, -316.043965) " x="148.28496" y="311.21398" width="9.65999936" height="9.65996868" rx="4.82998434"></rect>
                            <rect id="Rectangle-path" transform="translate(7.007469, 316.043964) rotate(90.000000) translate(-7.007469, -316.043964) " x="2.17746898" y="311.213979" width="9.65999936" height="9.65996868" rx="4.82998434"></rect>
                        </g>
                        <g id="eye" transform="translate(30.602498, 115.919992)">
                            <g id="Group-47">
                                <g id="Fill-4451">
                                    <g id="long-positions_path-12-link" transform="translate(2.000000, 2.000000)" fill="#231F20" fill-rule="nonzero">
                                        <path d="M60.812712,121.623614 C94.3968372,121.623614 121.624129,94.3977323 121.624129,60.8111595 C121.624129,27.2258817 94.3968372,0 60.812712,0 C27.225997,0 0,27.2258817 0,60.8111595 C0,94.3977323 27.225997,121.623614 60.812712,121.623614 Z" id="long-positions_path-12"></path>
                                    </g>
                                    <path d="M62.812712,124.831114 C28.5591143,124.831114 0.79250008,97.0646173 0.79250008,62.8111595 C0.79250008,28.5587925 28.5593185,0.79250008 62.812712,0.79250008 C97.0641631,0.79250008 124.831629,28.55944 124.831629,62.8111595 C124.831629,97.0639698 97.0643673,124.831114 62.812712,124.831114 Z" id="Shape" stroke="#231F20" stroke-width="2.41499984"></path>
                                </g>
                                <g id="Combined-Shape">
                                    <g id="long-positions_path-13-link" transform="translate(2.000000, 2.000000)" fill="#0DA6A3" fill-rule="nonzero">
                                        <path d="M64.1290888,0.136618743 C32.8451572,2.24951445 8.11743096,28.6067282 8.11743096,60.8111595 C8.11743096,93.0168326 32.8451572,119.374097 64.1290888,121.486995 C62.7878003,121.577591 61.4344669,121.623614 60.070519,121.623614 C26.8937154,121.623614 0,94.3977323 0,60.8111595 C0,27.2258817 26.8937154,0 60.070519,0 C61.4344669,0 62.7878003,0.0460230515 64.1290863,0.136618916 L64.1290888,0.136618743 Z" id="long-positions_path-13"></path>
                                    </g>
                                    <path d="M66.2104572,3.34137401 C35.4150818,5.42127296 11.3249309,31.3888738 11.3249309,62.8111595 C11.3249309,94.2345104 35.4149096,120.202327 66.2104573,122.28224 L66.2104626,124.69175 C64.8369081,124.784525 63.4564275,124.831114 62.070519,124.831114 C28.2234911,124.831114 0.79250008,97.0613207 0.79250008,62.8111595 C0.79250008,28.5620892 28.2236929,0.79250008 62.070519,0.79250008 C63.4564282,0.79250008 64.8369089,0.83908884 66.2104628,0.93186386 L66.2104572,3.34137401 Z" id="Shape" stroke="#231F20" stroke-width="2.41499984"></path>
                                </g>
                            </g>
                            <g id="Group-9" transform="translate(28.536174, 46.121100)">
                                <path d="M0.756853615,16.9933425 C0.756853615,16.9933425 10.8186435,0.07145851 33.4040949,0.07145851 C54.1618723,0.07145851 67.0705825,16.9933425 67.0705825,16.9933425 C67.0705825,16.9933425 57.8982374,33.2549368 33.9137181,33.2549368 C12.8301303,33.2549368 0.756853615,16.9933425 0.756853615,16.9933425" id="Fill-4499" fill="#FFFFFF" fill-rule="nonzero"></path>
                                <path d="M58.1804902,13.1148697 C58.1804902,17.6942141 54.4676462,21.4076904 49.8871362,21.4076904 C45.3083684,21.4076904 41.5955244,17.6942141 41.5955244,13.1148697 C41.5955244,8.53552528 45.3083684,4.82292003 49.8871362,4.82292003 C54.4676462,4.82292003 58.1804902,8.53552528 58.1804902,13.1148697" id="Fill-4500" fill="#FFFFFF" fill-rule="nonzero"></path>
                                    <g transform="translate(15.000000, 4.000000)">
                                        <g id="long-left-eye">
                                            <path d="M19.3853784,9.7713187 C19.3853784,15.0178455 15.1316196,19.2716394 9.8845244,19.2716394 C4.6388628,19.2716394 0.3854127,15.0175369 0.3854127,9.7713187 C0.3854127,4.5252275 4.6387359,0.2718691 9.8845244,0.2718691 C15.1317466,0.2718691 19.3853784,4.5249188 19.3853784,9.7713187 Z" id="Stroke-4501" stroke="#231F20" stroke-width="2.41499984"></path>
                                            <path d="M15.5316903,9.5531743 C15.5316903,12.791904 12.9060423,15.4165121 9.6679754,15.4165121 C6.4299085,15.4165121 3.8042604,12.791904 3.8042604,9.5531743 C3.8042604,6.3153156 6.4299085,3.6907075 9.6679754,3.6907075 C12.9060423,3.6907075 15.5316903,6.3153156 15.5316903,9.5531743" id="Fill-4502" fill="#231F20" fill-rule="nonzero"></path>
                                        </g>
                                        <path stroke="none" id="long-left-eye-path" d="M10.2104051,12.2354185 C13.3672548,12.01348 18.2889305,11.8880652 24.9754323,8.85917402 C31.6619341,5.83028282 31.6619341,5.83028282 31.6619341,5.83028282"></path>
                                    </g>
                            </g>
                        </g>
                        <polygon id="Rectangle-9-Copy-3" fill="#0DA6A3" fill-rule="nonzero" points="187.162488 2 222 2 222 354.589977 187.162488 354.589977"></polygon>
                        <polygon id="Rectangle-9-Copy-3" fill="#231F20" fill-rule="nonzero" points="223 353.382477 223 355.797477 185.954988 355.797477 185.954988 0.79250008 223 0.79250008 223 3.20749992 188.369988 3.20749992 188.369988 353.382477"></polygon>
                    </g>
                    <g id="right_box_top" transform="translate(1125.234940, 1182.737633)">
                        <g id="Group-3" transform="translate(1555.000000, 0.000000)">
                            <rect id="Rectangle-9-Copy-4" stroke="#000000" stroke-width="2.41499984" fill="#4FE2DF" fill-rule="nonzero" transform="translate(93.843424, 177.423531) scale(-1, 1) translate(-93.843424, -177.423531) " x="0.286969" y="1.20749992" width="187.112911" height="352.432063"></rect>
                            <path d="M184.208395,351.491528 L4.433245,351.491528 L4.433245,0.522009751 C10.4248544,33.15685 20.5541671,37.4273219 31.8119444,53.9819905 C55.3692106,84.556899 60.7000202,101.5118 56.1368807,136.19228 C52.9475762,160.431426 52.5628741,201.71164 72.4098,205.610101 C119.202199,214.801366 119.202199,239.948993 121.256194,247.893045 C130.498856,280.817855 130.663007,300.900126 149.392242,308.823999 C169.429937,317.30145 178.4586,336.861208 184.208395,351.491528 Z" id="Shape" fill="#19C5C2" fill-rule="nonzero" transform="translate(94.320820, 176.006769) scale(-1, 1) translate(-94.320820, -176.006769) "></path>
                            <rect id="Rectangle-path" stroke="#231F20" stroke-width="2.41499984" transform="translate(170.317397, 19.413999) scale(-1, 1) rotate(90.000000) translate(-170.317397, -19.413999) " x="165.487382" y="14.5839993" width="9.66003005" height="9.65999936" rx="4.82999968"></rect>
                            <rect id="Rectangle-path" stroke="#231F20" stroke-width="2.41499984" transform="translate(23.002406, 19.413999) scale(-1, 1) rotate(90.000000) translate(-23.002406, -19.413999) " x="18.172391" y="14.5839988" width="9.66003005" height="9.65999936" rx="4.82999968"></rect>
                            <rect id="Rectangle-path" stroke="#231F20" stroke-width="2.41499984" transform="translate(23.002406, 329.741478) scale(-1, 1) rotate(90.000000) translate(-23.002406, -329.741478) " x="18.1723907" y="324.911478" width="9.66003005" height="9.65999936" rx="4.82999968"></rect>
                            <rect id="Rectangle-path" stroke="#231F20" stroke-width="2.41499984" transform="translate(169.109898, 329.741478) scale(-1, 1) rotate(90.000000) translate(-169.109898, -329.741478) " x="164.279883" y="324.911478" width="9.66003005" height="9.65999936" rx="4.82999968"></rect>
                        </g>
                        <g id="eye" transform="translate(0.000000, 116.000000)">
                            <g id="Group-5" transform="translate(1586.000000, 0.000000)">
                                <path d="M62.418246,123.100968 C96.0023712,123.100968 123.229663,95.8750863 123.229663,62.2885135 C123.229663,28.7032357 96.0023712,1.477354 62.418246,1.477354 C28.831531,1.477354 1.605534,28.7032357 1.605534,62.2885135 C1.605534,95.8750863 28.831531,123.100968 62.418246,123.100968 Z" id="long-positions_path-20" fill="#231F20" fill-rule="nonzero" transform="translate(62.417598, 62.289161) scale(-1, 1) translate(-62.417598, -62.289161) "></path>
                                <path d="M62.4182439,124.308468 C28.1646462,124.308468 0.398032,96.5419713 0.398032,62.2885135 C0.398032,28.0361465 28.1648504,0.26985408 62.4182439,0.26985408 C96.669695,0.26985408 124.437161,28.036794 124.437161,62.2885135 C124.437161,96.5413238 96.6698992,124.308468 62.4182439,124.308468 Z" id="Shape" stroke="#231F20" stroke-width="2.41499984" transform="translate(62.417597, 62.289161) scale(-1, 1) translate(-62.417597, -62.289161) "></path>
                                <path d="M123.229663,1.61397274 C91.9457312,3.72686845 67.218005,30.0840822 67.218005,62.2885135 C67.218005,94.4941866 91.9457312,120.851451 123.229663,122.964349 C121.888375,123.054945 120.535041,123.100968 119.171093,123.100968 C85.9942894,123.100968 59.100574,95.8750863 59.100574,62.2885135 C59.100574,28.7032357 85.9942894,1.477354 119.171093,1.477354 C120.535041,1.477354 121.888375,1.52337705 123.229661,1.61397292 L123.229663,1.61397274 Z" id="long-positions_path-21" fill="#0DA6A3" fill-rule="nonzero" transform="translate(91.165118, 62.289161) scale(-1, 1) translate(-91.165118, -62.289161) "></path>
                                <path d="M124.437157,2.81872801 C93.6417817,4.89862696 69.5516308,30.8662278 69.5516308,62.2885135 C69.5516308,93.7118644 93.6416095,119.679681 124.437157,121.759594 L124.437163,124.169104 C123.063608,124.261879 121.683128,124.308468 120.297219,124.308468 C86.450191,124.308468 59.0192,96.5386747 59.0192,62.2885135 C59.0192,28.0394432 86.4503928,0.26985408 120.297219,0.26985408 C121.683128,0.26985408 123.063609,0.31644284 124.437163,0.40921786 L124.437157,2.81872801 Z" id="Shape" stroke="#231F20" stroke-width="2.41499984" transform="translate(91.728181, 62.289161) scale(-1, 1) translate(-91.728181, -62.289161) "></path>
                            </g>
                            <path d="M1615.62291,62.5917965 C1615.62291,62.5917965 1625.6847,45.6699125 1648.27015,45.6699125 C1669.02792,45.6699125 1681.93663,62.5917965 1681.93663,62.5917965 C1681.93663,62.5917965 1672.76429,78.8533908 1648.77977,78.8533908 C1627.69618,78.8533908 1615.62291,62.5917965 1615.62291,62.5917965" id="Fill-4499" fill="#FFFFFF" fill-rule="nonzero" transform="translate(1648.779770, 62.261652) scale(-1, 1) translate(-1648.779770, -62.261652) "></path>
                            <g transform="translate(1629.000000, 52)">
                                <g id="long-right-eye">
                                    <path d="M19.5844939,10.0933554 C19.5844939,15.3398822 15.3307352,19.5936761 10.0836399,19.5936761 C4.8379783,19.5936761 0.5845282,15.3395735 0.5845282,10.0933554 C0.5845282,4.8472642 4.8378514,0.5939058 10.0836399,0.5939058 C15.3308621,0.5939058 19.5844939,4.8469555 19.5844939,10.0933554 Z" id="Stroke-4501" stroke="#231F20" stroke-width="2.41499984" transform="translate(10.084511, 10.093791) scale(-1, 1) translate(-10.084511, -10.093791) "></path>
                                    <path d="M15.6128096,10.0651703 C15.6128096,13.1034289 13.1496841,15.5655788 10.1120473,15.5655788 C7.07441038,15.5655788 4.6112849,13.1034289 4.6112849,10.0651703 C4.6112849,7.02772874 7.07441038,4.5655788 10.1120473,4.5655788 C13.1496841,4.5655788 15.6128096,7.02772874 15.6128096,10.0651703" id="Fill-4502" fill="#231F20" fill-rule="nonzero" transform="translate(10.112047, 10.065579) scale(-1, 1) translate(-10.112047, -10.065579) "></path>
                                </g>
                                <path id="long-right-eye-path" stroke="none" d="M12.1452011,11.473145 C-1.3499585,10.3949447 -5.1957309,6.8592757 -8.6825185,5.8661382 C-12.1693061,2.8730007 -12.1693061,2.8730007 -12.1693061,2.8730007"></path>
                            </g>
                        </g>
                        
                        <polygon id="Rectangle-9-Copy-3" fill="#0DA6A3" fill-rule="nonzero" points="1519.50529 1.38208652 1555.81741 1.38208652 1555.81741 353.81415 1519.50529 353.81415"></polygon>
                        <polygon id="Rectangle-9-Copy-3" fill="#231F20" fill-rule="nonzero" points="1554.60991 2.58958644 1518.50529 2.58958644 1518.50529 0.1745866 1557.02491 0.1745866 1557.02491 355.021649 1518.50529 355.021649 1518.50529 352.60665 1554.60991 352.60665"></polygon>
                    </g>
                    <g id="straight_tubes" transform="translate(1254.677875, 1338.862766)">
                        <g id="right" transform="translate(1109.128071, 32.602498) scale(-1, 1) translate(-1109.128071, -32.602498) translate(827.176839, 0.000000)">
                            <polygon id="Shape" stroke="#231F20" stroke-width="2.41499984" fill-opacity="0.5" fill="#BBD0EF" fill-rule="nonzero" points="2.28596049 1.54769745 556.097833 1.06671981 556.158215 63.0973202 2.38659631 63.5782978"></polygon>
                            <polygon id="Path" fill="#000D6D" fill-rule="nonzero" opacity="0.300000012" points="563.064984 48.5434403 563.072366 56.8359562 0.944467859 57.2049144 0.9370859 48.9123986"></polygon>
                            <polygon id="Path" fill="#FFFFFF" fill-rule="nonzero" opacity="0.5" points="5.01692882 15.5645264 5.0095474 7.27201059 558.87442 6.91043426 558.881802 15.2029501"></polygon>
                            <g id="Group-195" transform="translate(361.734509, 0.000000)">
                                <ellipse id="Oval" stroke="#000D6D" stroke-width="2.41499984" opacity="0.2" cx="31.1402345" cy="31.7555338" rx="30.9288359" ry="30.3734473"></ellipse>
                                <path d="M31.8312806,-4.26325641e-14 L31.8312806,2.76417305 C15.8074617,2.76417305 2.80734074,16.0018934 2.80734074,32.343841 C2.80734074,48.6857886 15.8074617,61.9235089 31.8312806,61.9235089 L31.8312806,64.6876819 C14.2695238,64.6876819 0.0431559915,50.201303 0.0431559915,32.343841 C0.0431559915,14.4863789 14.2695238,-4.26325641e-14 31.8312806,-4.26325641e-14 Z" id="Oval" fill="#231F20" fill-rule="nonzero"></path>
                            </g>
                            <g id="Group-195" transform="translate(154.559990, 0.000000)">
                                <ellipse id="Oval" stroke="#000D6D" stroke-width="2.41499984" opacity="0.2" cx="31.1402345" cy="31.7555338" rx="30.9288359" ry="30.3734473"></ellipse>
                                <path d="M31.8312806,-4.26325641e-14 L31.8312806,2.76417305 C15.8074617,2.76417305 2.80734074,16.0018934 2.80734074,32.343841 C2.80734074,48.6857886 15.8074617,61.9235089 31.8312806,61.9235089 L31.8312806,64.6876819 C14.2695238,64.6876819 0.0431559915,50.201303 0.0431559915,32.343841 C0.0431559915,14.4863789 14.2695238,-4.26325641e-14 31.8312806,-4.26325641e-14 Z" id="Oval" fill="#231F20" fill-rule="nonzero"></path>
                            </g>
                        </g>
                        <g id="left" transform="translate(0.000000, 1.382087)">
                            <polygon id="Shape" stroke="#231F20" stroke-width="2.41499984" fill-opacity="0.5" fill="#BBD0EF" fill-rule="nonzero" points="1.20749992 1.54528255 720.603436 1.06430491 720.658903 63.0949053 1.29994605 63.5758829"></polygon>
                            <polygon id="Path" fill="#000D6D" fill-rule="nonzero" opacity="0.300000012" points="560.650108 49.3921669 560.657489 57.6846828 0.077630021 58.053641 0.0702480617 49.7611252"></polygon>
                            <path d="M2.91562712,16.946613 L2.90824569,8.65409711 L555.22508,8.29252078 C557.515005,8.29048246 559.373008,10.145173 559.375046,12.435088 C559.377084,14.725003 557.522386,16.5829983 555.232461,16.5850366 L2.91562712,16.946613 Z" id="Path" fill="#FFFFFF" fill-rule="nonzero" opacity="0.5"></path>
                            <g id="Group-196" transform="translate(168.281433, 0.000000)">
                                <ellipse id="Oval" stroke="#000D6D" stroke-width="2.41499984" opacity="0.2" cx="32.4791708" cy="32.4790333" rx="31.0970785" ry="31.0969468"></ellipse>
                                <path d="M32.9512566,6.67910172e-13 L32.9512566,2.76417305 C16.8541131,2.76417305 3.79455092,16.062421 3.79455092,32.4790333 C3.79455092,48.8956455 16.8541131,62.1938935 32.9512566,62.1938935 L32.9512566,64.9580666 C15.3161752,64.9580666 1.03036617,50.41116 1.03036617,32.4790333 C1.03036617,14.5469066 15.3161752,6.67910172e-13 32.9512566,6.67910172e-13 Z" id="Oval" fill="#231F20" fill-rule="nonzero"></path>
                            </g>
                            <g id="Group-196" transform="translate(359.066421, 0.000000)">
                                <ellipse id="Oval" stroke="#000D6D" stroke-width="2.41499984" opacity="0.2" cx="32.4791708" cy="32.4790333" rx="31.0970785" ry="31.0969468"></ellipse>
                                <path d="M32.9512566,6.67910172e-13 L32.9512566,2.76417305 C16.8541131,2.76417305 3.79455092,16.062421 3.79455092,32.4790333 C3.79455092,48.8956455 16.8541131,62.1938935 32.9512566,62.1938935 L32.9512566,64.9580666 C15.3161752,64.9580666 1.03036617,50.41116 1.03036617,32.4790333 C1.03036617,14.5469066 15.3161752,6.67910172e-13 32.9512566,6.67910172e-13 Z" id="Oval" fill="#231F20" fill-rule="nonzero"></path>
                            </g>
                        </g>
                    </g>
                    <g id="middle_gray_box" transform="translate(1800.382381, 1033.619932)">
                        <g id="pipe" transform="translate(149.661368, 559.304296) rotate(-270.000000) translate(-149.661368, -559.304296) translate(26.496376, 527.305548)">
                            <g id="Shape" fill-rule="nonzero">
                                <use fill-opacity="0.5" fill="#BBD0EF" fill-rule="evenodd" xlink:href="#long-positions_path-22"></use>
                                <path stroke="#231F20" stroke-width="2.41499984" d="M-0.144331769,0.34015476 L247.156467,-0.145567291 L247.20248,64.3000339 L-0.0676437486,64.7857543 L-0.144331769,0.34015476 Z"></path>
                            </g>
                            <polygon id="Path" fill="#000D6D" fill-rule="nonzero" opacity="0.300000012" points="245.615716 49.3895422 245.628354 57.6820517 0.0802611397 58.0562658 0.0676232873 49.7637563"></polygon>
                            <polygon id="Path" fill="#FFFFFF" fill-rule="nonzero" opacity="0.5" points="2.91833677 16.9530051 2.90554591 8.6604958 245.615639 8.28612867 245.62843 16.5786379"></polygon>
                            <ellipse id="Oval" stroke="#000D6D" stroke-width="2.41499984" opacity="0.2" cx="159.537364" cy="31.7555338" rx="30.9288359" ry="30.3734473"></ellipse>
                        </g>
                        <g id="box" transform="translate(150.098507, 305.551550) scale(-1, 1) rotate(-90.000000) translate(-150.098507, -305.551550) translate(-155.398973, 155.821560)">
                            <rect id="Rectangle-9-Copy-3" stroke="#231F20" stroke-width="2.41499984" fill="#BED1F4" x="0" y="0" width="596.821198" height="298.995197"></rect>
                            <g id="Rectangle-9-Copy-3">
                                <use fill="#BED1F4" fill-rule="evenodd" xlink:href="#long-positions_path-23"></use>
                                <path stroke="#231F20" stroke-width="2.41499984" d="M18.1417933,16.7596249 L497.378663,16.7596249 L497.378663,281.771064 L18.1417933,281.771064 L18.1417933,16.7596249 Z"></path>
                            </g>
                            <g id="Rectangle-9-Copy-3">
                                <use fill="#E1E9F3" fill-rule="evenodd" xlink:href="#long-positions_path-24"></use>
                                <rect stroke="#231F20" stroke-width="2.41499984" x="18.1417933" y="16.7596249" width="9.32546172" height="265.011439"></rect>
                            </g>
                            <polygon id="Rectangle-9-Copy-4" stroke="#231F20" stroke-width="2.41499984" fill="#E1E9F3" points="512.756272 -2.00088834e-11 609.848078 8.35218741e-12 609.848078 298.995197 512.756272 298.995197"></polygon>
                            <g id="Rectangle-9-Copy-4">
                                <use fill="#E1E9F3" fill-rule="evenodd" xlink:href="#long-positions_path-25"></use>
                                <path stroke="#231F20" stroke-width="2.41499984" d="M528.13388,13.9954518 L594.069325,13.9954518 L594.069325,284.535237 L528.13388,284.535237 L528.13388,13.9954518 Z"></path>
                            </g>
                            <g id="Rectangle-path" fill-rule="nonzero" transform="translate(561.129505, 34.552163) rotate(90.000000) translate(-561.129505, -34.552163) ">
                                <use fill="#4FE2DF" fill-rule="evenodd" xlink:href="#long-positions_path-26"></use>
                                <rect stroke="#231F20" stroke-width="2.41499984" x="554.393635" y="27.8163171" width="13.4717388" height="13.471692" rx="6.73584601"></rect>
                            </g>
                            <g id="Rectangle-path" fill-rule="nonzero" transform="translate(561.129505, 64.958067) rotate(90.000000) translate(-561.129505, -64.958067) ">
                                <use fill="#407BF7" fill-rule="evenodd" xlink:href="#long-positions_path-27"></use>
                                <rect stroke="#231F20" stroke-width="2.41499984" x="554.393635" y="58.2222206" width="13.4717388" height="13.471692" rx="6.73584601"></rect>
                            </g>
                            <g id="Group-6" transform="translate(153.412254, 46.990942)" stroke="#231F20" stroke-width="2.41499984">
                                <g id="long-wheel">
                                    <ellipse id="Oval-5-Copy" fill="#BED1F4" cx="102.274836" cy="102.274403" rx="102.274836" ry="102.274403"></ellipse>
                                    <path d="M40.2573848,50.102367 L49.7715554,41.3920694 C72.9994103,20.1267866 106.786408,14.7452052 135.541905,27.7305974 L145.39738,32.1811278 L94.2979138,68.0573039 L80.1093817,54.5544302 L58.608099,73.8097025 L40.2573848,50.102367 Z M166.425379,155.828525 L156.911209,164.538822 C133.683354,185.804105 99.8963559,191.185687 71.1408592,178.200295 L61.2853839,173.749764 L112.38485,137.873588 L126.573382,151.376462 L148.074665,132.121189 L166.425379,155.828525 Z M155.69507,40.1684601 L164.445178,49.6393444 C185.807653,72.7615203 191.21383,106.394798 178.169089,135.019467 L173.698217,144.830103 L137.658071,93.9631225 L151.222659,79.8391436 L131.879381,58.4356847 L155.69507,40.1684601 Z M50.2366942,165.014849 L41.4865865,155.543964 C20.1241115,132.421788 14.7179337,98.7885104 27.7626752,70.1638417 L32.2335466,60.3532056 L68.2736935,111.220186 L54.7091054,125.344165 L74.0523833,146.747624 L50.2366942,165.014849 Z" id="Combined-Shape" fill="#001135"></path>
                                </g>
                            </g>
                            <g id="Rectangle-9-Copy-4">
                                <use fill="#BED1F4" fill-rule="evenodd" xlink:href="#long-positions_path-28"></use>
                                <path stroke="#231F20" stroke-width="2.41499984" d="M586.332195,13.8476539 L595.657657,13.8476539 L595.657657,284.387439 L586.332195,284.387439 L586.332195,13.8476539 Z"></path>
                            </g>
                        </g>
                    </g>
                </g>
            </g>
        </g>
    </g>
</svg>