<svg class="show-tablet show-mobile long-positions__visual hor-centered" width="1080px" height="1198px" viewBox="0 0 1080 1198" version="1.1" xmlns="http://www.w3.org/2000/svg" xmlns:xlink="http://www.w3.org/1999/xlink">
    <defs>
        <path d="M344.289958,262.431472 C534.436512,262.431472 688.579915,203.683576 688.579915,131.215736 C688.579915,58.7478956 534.436512,0 344.289958,0 C154.143403,0 0,58.7478956 0,131.215736 C0,203.683576 154.143403,262.431472 344.289958,262.431472 Z" id="M_long_path-1"></path>
        <path d="M55.0833954,0 C57.2958841,-4.06030883e-16 59.0894606,1.79182583 59.0894606,4.00215501 C59.0894606,6.21248419 57.2958841,8.00431002 55.0833954,8.00431002 C52.8709068,8.00431002 51.0773303,6.21248419 51.0773303,4.00215501 C51.0773303,1.79182583 52.8709068,8.50359347e-16 55.0833954,0 Z" id="M_long_path-3"></path>
        <rect id="M_long_path-4" x="25.037907" y="0" width="8.01213025" height="8.00431002" rx="4.00215501"></rect>
        <rect id="M_long_path-5" x="-8.52651283e-13" y="0" width="8.01213025" height="8.00431002" rx="4.00215501"></rect>
        <path d="M55.0833954,0 C57.2958841,-4.06030883e-16 59.0894606,1.79182583 59.0894606,4.00215501 C59.0894606,6.21248419 57.2958841,8.00431002 55.0833954,8.00431002 C52.8709068,8.00431002 51.0773303,6.21248419 51.0773303,4.00215501 C51.0773303,1.79182583 52.8709068,1.29468781e-15 55.0833954,0 Z" id="M_long_path-6"></path>
        <rect id="M_long_path-7" x="26.0394233" y="0" width="8.01213025" height="8.00431002" rx="4.00215501"></rect>
        <rect id="M_long_path-8" x="2.27373675e-13" y="0" width="8.01213025" height="8.00431002" rx="4.00215501"></rect>
        <path d="M44.0671855,88.0474102 C68.4035097,88.0474102 88.1334327,68.337682 88.1334327,44.0232364 C88.1334327,19.7097282 68.4035097,0 44.0671855,0 C19.7289846,0 0,19.7097282 0,44.0232364 C0,68.337682 19.7289846,88.0474102 44.0671855,88.0474102 Z" id="M_long_path-9"></path>
        <path d="M46.4703554,0.0989030118 C23.8008391,1.62849994 5.88219674,20.7093699 5.88219674,44.0232364 C5.88219674,67.3380018 23.8008391,86.4189087 46.4703554,87.9485071 C45.498409,88.0140926 44.5177326,88.0474102 43.5293645,88.0474102 C19.4882008,88.0474102 0,68.337682 0,44.0232364 C0,19.7097282 19.4882008,0 43.5293645,0 C44.5177326,0 45.498409,0.0333176294 46.4703554,0.0989030118 Z" id="M_long_path-10"></path>
        <rect id="M_long_path-11" x="51.0773303" y="0" width="8.01213025" height="8.00431002" rx="4.00215501"></rect>
        <rect id="M_long_path-12" x="25.037907" y="0" width="8.01213025" height="8.00431002" rx="4.00215501"></rect>
        <rect id="M_long_path-13" x="-6.82121026e-13" y="0" width="8.01213025" height="8.00431002" rx="4.00215501"></rect>
        <rect id="M_long_path-14" x="51.0773303" y="4.54747351e-13" width="8.01213025" height="8.00431002" rx="4.00215501"></rect>
        <rect id="M_long_path-15" x="25.1329794" y="4.54747351e-13" width="8.01213025" height="8.00431002" rx="4.00215501"></rect>
        <rect id="M_long_path-16" x="0.0950723942" y="4.54747351e-13" width="8.01213025" height="8.00431002" rx="4.00215501"></rect>
        <path d="M44.0671855,88.0474102 C68.4035097,88.0474102 88.1334327,68.337682 88.1334327,44.0232364 C88.1334327,19.7097282 68.4035097,0 44.0671855,0 C19.7289846,0 0,19.7097282 0,44.0232364 C0,68.337682 19.7289846,88.0474102 44.0671855,88.0474102 Z" id="M_long_path-17"></path>
        <path d="M46.4703554,0.0989030118 C23.8008391,1.62849994 5.88219674,20.7093699 5.88219674,44.0232364 C5.88219674,67.3380018 23.8008391,86.4189087 46.4703554,87.9485071 C45.498409,88.0140926 44.5177326,88.0474102 43.5293645,88.0474102 C19.4882008,88.0474102 0,68.337682 0,44.0232364 C0,19.7097282 19.4882008,0 43.5293645,0 C44.5177326,0 45.498409,0.0333176294 46.4703554,0.0989030118 Z" id="M_long_path-18"></path>
        <polygon id="M_long_path-19" points="0.771894148 1.11920478 332.556669 0.770846174 332.588781 45.6978691 0.82541343 46.0462277"></polygon>
        <polygon id="M_long_path-20" points="14.0292722 13.0130842 359.750624 13.0130842 359.750624 203.204316 14.0292722 203.204316"></polygon>
        <rect id="M_long_path-21" x="14.0292722" y="13.0130842" width="5.01045437" height="190.191231"></rect>
        <polygon id="M_long_path-22" points="383.800805 11.0110713 429.856524 11.0110713 429.856524 205.206328 383.800805 205.206328"></polygon>
        <rect id="M_long_path-23" x="402.840531" y="21.0211361" width="8.01672699" height="8.00805184" rx="4.00402592"></rect>
        <rect id="M_long_path-24" x="402.840531" y="43.0432787" width="8.01672699" height="8.00805184" rx="4.00402592"></rect>
        <polygon id="M_long_path-25" points="425.997695 10.9040254 431.00815 10.9040254 431.00815 205.099283 425.997695 205.099283"></polygon>
    </defs>
    <g id="Page-1" stroke="none" stroke-width="1" fill="none" fill-rule="evenodd">
        <g id="bZx-website_1080" transform="translate(0.000000, -11318.000000)">
            <g id="long_pos" transform="translate(-93.000000, 11318.000000)">
                <g id="black_hole" transform="translate(290.000000, 894.000000)">
                    <path d="M0,131.154384 L0,171.804124 L688.37534,171.804124 L688.37534,131.154384 C688.37534,58.7204269 534.277733,0 344.18767,0 C154.097607,0 0,58.7204269 0,131.154384" id="Fill-1814" stroke="#231F20" stroke-width="1.05625" fill="#BED1F4"></path>
                    <g id="Group-183" transform="translate(0.000000, 39.983505)">
                        <mask id="m_lp_mask-2" fill="white">
                            <use xlink:href="#M_long_path-1"></use>
                        </mask>
                        <use id="Fill-1818" stroke="#231F20" stroke-width="1.25" fill="#001135" xlink:href="#M_long_path-1"></use>
                        <path d="M-305.733111,391.296332 C-305.733111,323.301395 -234.716028,255.773658 -112.928963,204.778166 C11.3210052,152.751391 177.100798,122.476507 351.547717,122.476507 C525.994636,122.476507 691.774429,152.751391 816.024397,204.778166 C937.811462,255.773658 1008.82855,323.301395 1007.01411,391.296332 C1007.01411,324.238331 936.508087,257.196547 815.324155,206.453604 C691.306832,154.524243 525.764047,124.292642 351.547717,124.292642 C177.331387,124.292642 11.7886016,154.524243 -112.228722,206.453604 C-233.412653,257.196547 -303.918671,324.238331 -305.733111,391.296332 Z" id="Fill-1818" fill="#BED1F4" fill-rule="nonzero" opacity="0.100000001" mask="url(#m_lp_mask-2)"></path>
                    </g>
                    <path d="M289.529918,6.24742268 L289.529918,28.1134021" id="Path-10" stroke="#000000" stroke-width="1.25"></path>
                    <path d="M297.546389,5.62268041 L297.546389,37.8445553" id="Path-10-Copy" stroke="#000000" stroke-width="1.25"></path>
                    <path d="M152.729374,24.3649485 L152.729374,34.3608247" id="Path-10-Copy-5" stroke="#000000" stroke-width="1.25"></path>
                    <path d="M158.247205,20.8188475 L158.247205,28.1134021" id="Path-10-Copy-7" stroke="#000000" stroke-width="1.25"></path>
                    <path d="M255.277727,32.4865979 L255.277727,42.4824742" id="Path-10-Copy-6" stroke="#000000" stroke-width="1.25"></path>
                    <path d="M413.212602,0.624742268 L413.212602,38.1092784" id="Path-10-Copy-2" stroke="#000000" stroke-width="1.25"></path>
                    <path d="M612.479148,47.4804124 L612.479148,83.0907216" id="Path-10-Copy-3" stroke="#000000" stroke-width="1.25"></path>
                    <path d="M606.232548,52.7614369 L606.232548,70.3127899" id="Path-10-Copy-4" stroke="#000000" stroke-width="1.25"></path>
                    <path d="M0,164.931959 C0,136.550789 14.7836204,111.769346 44.3508613,90.5876289" id="Path-11" stroke="#000000" stroke-width="1.25"></path>
                    <path d="M48.7234814,88.0886598 L59.3427017,81.8412371" id="Path-12" stroke="#000000" stroke-width="1.25"></path>
                    <path d="M27.4850408,111.828866 C34.8722225,104.657345 42.1599227,98.6181701 49.3481414,93.7113402" id="Path-12-Copy" stroke="#000000" stroke-width="1.25"></path>
                </g>
                <g id="bg_lines" transform="translate(194.000000, 0.000000)">
                    <g id="right" transform="translate(0.875000, 0.000000)">
                        <g id="Group-13" transform="translate(0.000000, 261.000000)">
                            <polygon id="Stroke-4486" fill="#000000" fill-rule="nonzero" points="0 706 60.8231755 706 60.8231755 707.430731 0 707.430731"></polygon>
                            <polygon id="Stroke-4486" fill="#000000" fill-rule="nonzero" points="0 700 31.25 700 31.25 701.430731 0 701.430731"></polygon>
                            <path d="M1.68447956,507.818376 C1.65862139,506.667226 1.00124948,506.760248 1.00010023,507.910341 C0.992630094,520.454595 1.40521142,685.12607 1.40521142,685.12607 C1.40521142,685.12607 19.5995881,673.461299 19.5995881,643.888699 C19.5995881,630.085474 17.1930552,621.801214 13.1310255,610.136443 C5.66146471,589.988682 10.3848888,571.424413 11.0198503,561.557718 C12.2104749,543.061101 2.47229152,543.061101 1.68447956,507.818376" id="Fill-4507" stroke="#231F20" stroke-width="1.25" fill="#231F20"></path>
                            <path d="M860.000067,0.910340943 C859.997605,5.04429518 860.06303,35.6629996 860.196341,92.7664543 C874.450827,91.8948077 880.447537,84.0817057 878.186469,69.3271484 C876.630341,59.1726661 861.472258,36.0611011 860.684446,0.818375823 C860.658588,-0.332773781 860.001216,-0.23975159 860.000067,0.910340943 Z" id="Fill-4507" stroke="#231F20" stroke-width="1.25" fill="#231F20" transform="translate(869.325399, 46.383227) scale(-1, 1) translate(-869.325399, -46.383227) "></path>
                        </g>
                        <g id="Group-14" transform="translate(782.000000, 176.000000)" fill="#000000" fill-rule="nonzero">
                            <polygon id="Stroke-4484" points="96.6611373 95.4307315 48.5309693 95.4307315 48.5309693 111.884144 0 111.884144 0 110.453412 47.1002318 110.453412 47.1002318 94 96.6611373 94"></polygon>
                            <polygon id="Stroke-4486" points="96.8766379 83.4307315 84 83.4307315 84 82 96.8766379 82"></polygon>
                            <polygon id="Stroke-4486" points="97.1840133 33.4307315 70 33.4307315 70 32 97.1840133 32"></polygon>
                            <polygon id="Stroke-4486" points="97.1461063 0 97.1461063 109.093276 95 109.093276 95 0"></polygon>
                        </g>
                        <g id="Group-7" transform="translate(850.000000, 0.000000)" fill="#000000" fill-rule="nonzero">
                            <polygon id="Stroke-4486" points="28.1461063 0 28.1461063 59.4880463 26 59.4880463 26 0"></polygon>
                            <polygon id="Stroke-4486" points="27.1840133 1.43073148 0 1.43073148 0 0 27.1840133 0"></polygon>
                        </g>
                        <polygon id="Stroke-4486" fill="#231F20" fill-rule="nonzero" points="792 967 852.823176 967 852.823176 968.430731 792 968.430731"></polygon>
                        <polygon id="Stroke-4486" fill="#231F20" fill-rule="nonzero" points="865 967 880.803013 967 880.803013 968.430731 865 968.430731"></polygon>
                        <polygon id="Stroke-4486" fill="#231F20" fill-rule="nonzero" points="865 663 880.803013 663 880.803013 664.430731 865 664.430731"></polygon>
                        <polygon id="Stroke-4486" fill="#231F20" fill-rule="nonzero" points="865 673 880.803013 673 880.803013 674.430731 865 674.430731"></polygon>
                    </g>
                    <g id="left" transform="translate(1.000000, 280.000000)" fill="#000000" fill-rule="nonzero">
                        <g id="1" transform="translate(0.444262, 0.585416)">
                            <polygon id="Stroke-3048" transform="translate(1.073053, 38.471283) scale(-1, 1) translate(-1.073053, -38.471283) " points="4.76531329e-15 0 2.14610632 0 2.14610632 76.9425657 0 76.9425657"></polygon>
                            <polygon id="Stroke-4489" points="1 46.4307315 1 45 11.0151628 45 11.0151628 46.4307315"></polygon>
                            <polygon id="Stroke-4489" points="1 53.4307315 1 52 11.0151628 52 11.0151628 53.4307315"></polygon>
                        </g>
                    </g>
                </g>
                <g id="pipe-right" transform="translate(0.000000, 335.000000)">
                    <path d="M269.191218,274.682164 L232.010977,274.682164 C162.079661,274.682164 105.340731,218.98919 105.340731,150.347028 L105.340731,124.907028 C105.340731,81.590271 69.4994725,46.4097303 25.48594,46.4097303 L0.994140625,46.4097303 L0.994140625,0.342703085 L25.2524465,0.342703085 C95.0670152,0.342703085 151.922692,56.1502709 151.922692,124.677839 L151.922692,150.117839 C151.922692,193.54919 187.763951,228.615136 231.89423,228.615136 L269.074471,228.615136 C281.916616,228.615136 292.423825,238.92865 292.423825,251.534055 C292.540572,264.36865 282.033363,274.682164 269.191218,274.682164 Z" id="Shape" stroke="#231F20" stroke-width="1.75" fill-opacity="0.5" fill="#BBD0EF" fill-rule="nonzero"></path>
                    <path d="M2.06640625,11.3517623 L2.06640625,5.34067016 L26.5060083,5.34067016 C92.0311586,5.34067016 147.092066,58.7673118 147.092066,122.79612 L147.092066,157.028869 C147.092066,178.105017 156.968292,197.487516 173.935326,212.012156 C189.865024,225.648785 210.673617,233.662 230.075824,233.662 L249.738798,233.662 C251.398091,233.662 252.743214,235.007629 252.743214,236.667546 C252.743214,238.327463 251.398091,239.673092 249.738798,239.673092 L230.075824,239.673092 C209.211008,239.673092 187.025677,231.129707 170.028553,216.579308 C151.787688,200.964203 141.083234,179.956275 141.083234,157.028869 L141.083234,122.79612 C141.083234,62.1288755 88.7529019,11.3517623 26.5060083,11.3517623 L2.06640625,11.3517623 Z" id="Path" fill="#FFFFFF" fill-rule="nonzero" opacity="0.5"></path>
                    <path d="M271.877704,264.674953 C273.536997,264.674953 274.88212,266.020582 274.88212,267.680499 C274.88212,269.340416 273.536997,270.686045 271.877704,270.686045 L236.987109,270.686045 C166.312833,270.686045 108.949369,214.380051 108.949369,144.952109 C108.949369,143.292191 110.294491,141.946563 111.953784,141.946563 C113.613077,141.946563 114.9582,143.292191 114.9582,144.952109 C114.9582,211.034408 169.606156,264.674953 236.987109,264.674953 L271.877704,264.674953 Z" id="Path" fill="#336ADF" fill-rule="nonzero" opacity="0.300000012"></path>
                    <path d="M116.045049,128.417499 C116.045049,130.077416 114.699926,131.423045 113.040633,131.423045 C111.38134,131.423045 110.036218,130.077416 110.036218,128.417499 C110.036218,122.036014 109.524073,110.839184 108.916845,107.333878 C102.508305,70.3397052 69.6538094,42.8099168 31.0484669,42.8099168 L2.06640625,42.8099168 L2.06640625,36.7988247 L31.0484669,36.7988247 C72.5706077,36.7988247 107.928817,66.426551 114.837432,106.307477 C115.521515,110.256443 116.045049,121.702266 116.045049,128.417499 Z" id="Path" fill="#336ADF" fill-rule="nonzero" opacity="0.300000012"></path>
                    <g id="Group" transform="translate(103.942009, 111.380828)">
                        <g id="Group-198">
                            <ellipse id="Oval" stroke="#000D6D" stroke-width="1.75" opacity="0.2" cx="24.8146574" cy="24.4373173" rx="23.0338535" ry="22.6288414"></ellipse>
                            <path d="M48.8499828,24.4373173 L46.847039,24.4373173 C46.847039,12.4971622 36.986826,2.81032464 24.8146574,2.81032464 C12.6424889,2.81032464 2.78227585,12.4971622 2.78227585,24.4373173 L0.779332076,24.4373173 C0.779332076,11.3823445 11.544334,0.806627275 24.8146574,0.806627275 C38.0849809,0.806627275 48.8499828,11.3823445 48.8499828,24.4373173 Z" id="Oval" fill="#231F20" fill-rule="nonzero"></path>
                        </g>
                        <g id="Group-197" transform="translate(119.175155, 116.214447)">
                            <ellipse id="Oval" stroke="#000D6D" stroke-width="1.75" opacity="0.2" cx="24.0353253" cy="23.6306901" rx="23.0338535" ry="22.6288414"></ellipse>
                            <path d="M23.828564,6.82121026e-13 L23.828564,2.00369736 C11.8928995,2.00369736 2.20970514,11.8676202 2.20970514,24.0443684 C2.20970514,36.2211165 11.8928995,46.0850394 23.828564,46.0850394 L23.828564,48.0887367 C10.7785011,48.0887367 0.206761364,37.3196846 0.206761364,24.0443684 C0.206761364,10.7690521 10.7785011,6.82121026e-13 23.828564,6.82121026e-13 Z" id="Oval" fill="#231F20" fill-rule="nonzero"></path>
                        </g>
                    </g>
                </g>
                <g id="pipe-left" transform="translate(1119.500000, 472.500000) scale(-1, 1) translate(-1119.500000, -472.500000) translate(973.000000, 334.000000)">
                    <path d="M269.191218,274.682164 L232.010977,274.682164 C162.079661,274.682164 105.340731,218.98919 105.340731,150.347028 L105.340731,124.907028 C105.340731,81.590271 69.4994725,46.4097303 25.48594,46.4097303 L0.994140625,46.4097303 L0.994140625,0.342703085 L25.2524465,0.342703085 C95.0670152,0.342703085 151.922692,56.1502709 151.922692,124.677839 L151.922692,150.117839 C151.922692,193.54919 187.763951,228.615136 231.89423,228.615136 L269.074471,228.615136 C281.916616,228.615136 292.423825,238.92865 292.423825,251.534055 C292.540572,264.36865 282.033363,274.682164 269.191218,274.682164 Z" id="Shape" stroke="#231F20" stroke-width="1.75" fill-opacity="0.5" fill="#BBD0EF" fill-rule="nonzero"></path>
                    <path d="M2.06640625,11.3517623 L2.06640625,5.34067016 L26.5060083,5.34067016 C92.0311586,5.34067016 147.092066,58.7673118 147.092066,122.79612 L147.092066,157.028869 C147.092066,178.105017 156.968292,197.487516 173.935326,212.012156 C189.865024,225.648785 210.673617,233.662 230.075824,233.662 L249.738798,233.662 C251.398091,233.662 252.743214,235.007629 252.743214,236.667546 C252.743214,238.327463 251.398091,239.673092 249.738798,239.673092 L230.075824,239.673092 C209.211008,239.673092 187.025677,231.129707 170.028553,216.579308 C151.787688,200.964203 141.083234,179.956275 141.083234,157.028869 L141.083234,122.79612 C141.083234,62.1288755 88.7529019,11.3517623 26.5060083,11.3517623 L2.06640625,11.3517623 Z" id="Path" fill="#FFFFFF" fill-rule="nonzero" opacity="0.5"></path>
                    <path d="M271.877704,264.674953 C273.536997,264.674953 274.88212,266.020582 274.88212,267.680499 C274.88212,269.340416 273.536997,270.686045 271.877704,270.686045 L236.987109,270.686045 C166.312833,270.686045 108.949369,214.380051 108.949369,144.952109 C108.949369,143.292191 110.294491,141.946563 111.953784,141.946563 C113.613077,141.946563 114.9582,143.292191 114.9582,144.952109 C114.9582,211.034408 169.606156,264.674953 236.987109,264.674953 L271.877704,264.674953 Z" id="Path" fill="#336ADF" fill-rule="nonzero" opacity="0.300000012"></path>
                    <path d="M116.045049,128.417499 C116.045049,130.077416 114.699926,131.423045 113.040633,131.423045 C111.38134,131.423045 110.036218,130.077416 110.036218,128.417499 C110.036218,122.036014 109.524073,110.839184 108.916845,107.333878 C102.508305,70.3397052 69.6538094,42.8099168 31.0484669,42.8099168 L2.06640625,42.8099168 L2.06640625,36.7988247 L31.0484669,36.7988247 C72.5706077,36.7988247 107.928817,66.426551 114.837432,106.307477 C115.521515,110.256443 116.045049,121.702266 116.045049,128.417499 Z" id="Path" fill="#336ADF" fill-rule="nonzero" opacity="0.300000012"></path>
                    <g id="Group" transform="translate(103.942009, 111.380828)">
                        <g id="Group-198">
                            <ellipse id="Oval" stroke="#000D6D" stroke-width="1.75" opacity="0.2" cx="24.8146574" cy="24.4373173" rx="23.0338535" ry="22.6288414"></ellipse>
                            <path d="M48.8499828,24.4373173 L46.847039,24.4373173 C46.847039,12.4971622 36.986826,2.81032464 24.8146574,2.81032464 C12.6424889,2.81032464 2.78227585,12.4971622 2.78227585,24.4373173 L0.779332076,24.4373173 C0.779332076,11.3823445 11.544334,0.806627275 24.8146574,0.806627275 C38.0849809,0.806627275 48.8499828,11.3823445 48.8499828,24.4373173 Z" id="Oval" fill="#231F20" fill-rule="nonzero"></path>
                        </g>
                        <g id="Group-197" transform="translate(119.175155, 116.214447)">
                            <ellipse id="Oval" stroke="#000D6D" stroke-width="1.75" opacity="0.2" cx="24.0353253" cy="23.6306901" rx="23.0338535" ry="22.6288414"></ellipse>
                            <path d="M23.828564,6.82121026e-13 L23.828564,2.00369736 C11.8928995,2.00369736 2.20970514,11.8676202 2.20970514,24.0443684 C2.20970514,36.2211165 11.8928995,46.0850394 23.828564,46.0850394 L23.828564,48.0887367 C10.7785011,48.0887367 0.206761364,37.3196846 0.206761364,24.0443684 C0.206761364,10.7690521 10.7785011,6.82121026e-13 23.828564,6.82121026e-13 Z" id="Oval" fill="#231F20" fill-rule="nonzero"></path>
                        </g>
                    </g>
                </g>
                <g id="green_boxes" transform="translate(194.000000, 464.000000)">
                    <g id="left" transform="translate(0.000000, 1.000000)">
                        <rect id="Rectangle-9-Copy-3" stroke="#231F20" stroke-width="1.75" fill="#0DA6A3" x="135.625" y="0" width="113.75" height="255.251701"></rect>
                        <rect id="Rectangle-9-Copy-3" stroke="#231F20" stroke-width="1.75" fill="#001135" x="161.875" y="33.2176871" width="60.375" height="189.690476"></rect>
                        <rect id="Rectangle-9-Copy-3" stroke="#231F20" stroke-width="1.75" fill="#4FE2DF" x="217" y="33.2176871" width="5.25" height="189.690476"></rect>
                        <g id="Group-72" transform="translate(194.250000, 239.517007) rotate(-180.000000) translate(-194.250000, -239.517007) translate(164.500000, 235.146259)" fill-rule="nonzero">
                            <g id="Rectangle-path">
                                <use fill="#4FE2DF" fill-rule="evenodd" xlink:href="#M_long_path-3"></use>
                                <path stroke="#231F20" stroke-width="1.75" d="M55.0833954,-0.875 C57.7789421,-0.875 59.9644606,1.3083853 59.9644606,4.00215501 C59.9644606,6.69592473 57.7789421,8.87931002 55.0833954,8.87931002 C52.3878488,8.87931002 50.2023303,6.69592473 50.2023303,4.00215501 C50.2023303,1.3083853 52.3878488,-0.875 55.0833954,-0.875 Z"></path>
                            </g>
                            <g id="Rectangle-path" transform="translate(29.043972, 4.002155) rotate(90.000000) translate(-29.043972, -4.002155) ">
                                <use fill="#407BF7" fill-rule="evenodd" xlink:href="#M_long_path-4"></use>
                                <rect stroke="#231F20" stroke-width="1.75" x="24.162907" y="-0.875" width="9.76213025" height="9.75431002" rx="4.87715501"></rect>
                            </g>
                            <g id="Rectangle-path" transform="translate(4.006065, 4.002155) rotate(90.000000) translate(-4.006065, -4.002155) ">
                                <use fill="#407BF7" fill-rule="evenodd" xlink:href="#M_long_path-5"></use>
                                <rect stroke="#231F20" stroke-width="1.75" x="-0.875" y="-0.875" width="9.76213025" height="9.75431002" rx="4.87715501"></rect>
                            </g>
                        </g>
                        <g id="Group-72" transform="translate(192.500000, 17.482993) rotate(-360.000000) translate(-192.500000, -17.482993) translate(162.750000, 13.112245)" fill-rule="nonzero">
                            <g id="Rectangle-path">
                                <use fill="#4FE2DF" fill-rule="evenodd" xlink:href="#M_long_path-6"></use>
                                <path stroke="#231F20" stroke-width="1.75" d="M55.0833954,-0.875 C57.7789421,-0.875 59.9644606,1.3083853 59.9644606,4.00215501 C59.9644606,6.69592473 57.7789421,8.87931002 55.0833954,8.87931002 C52.3878488,8.87931002 50.2023303,6.69592473 50.2023303,4.00215501 C50.2023303,1.3083853 52.3878488,-0.875 55.0833954,-0.875 Z"></path>
                            </g>
                            <g id="Rectangle-path" transform="translate(30.045488, 4.002155) rotate(90.000000) translate(-30.045488, -4.002155) ">
                                <use fill="#4FE2DF" fill-rule="evenodd" xlink:href="#M_long_path-7"></use>
                                <rect stroke="#231F20" stroke-width="1.75" x="25.1644233" y="-0.875" width="9.76213025" height="9.75431002" rx="4.87715501"></rect>
                            </g>
                            <g id="Rectangle-path" transform="translate(4.006065, 4.002155) rotate(90.000000) translate(-4.006065, -4.002155) ">
                                <use fill="#407BF7" fill-rule="evenodd" xlink:href="#M_long_path-8"></use>
                                <rect stroke="#231F20" stroke-width="1.75" x="-0.875" y="-0.875" width="9.76213025" height="9.75431002" rx="4.87715501"></rect>
                            </g>
                        </g>
                        <rect id="Rectangle-9-Copy-4" stroke="#231F20" stroke-width="1.75" fill="#4FE2DF" x="0" y="0" width="135.625" height="255.251701"></rect>
                        <path d="M131.25,254.377551 L0.875,254.377551 L0.875,0 C5.22018383,23.6532528 12.5660776,26.7484281 20.7303467,38.7470087 C34.1385972,55.7600663 35.5902393,73.3944726 35.5902393,89.6913522 C35.5902393,107.829878 41.6803105,141.455238 50.1723771,148.644836 C63.3248393,159.535267 94.8495999,167.75011 100.316403,186.532215 C107.614935,208.757414 100.316403,215.953439 116.92843,228.144985 C123.164202,232.721411 131.25,245.861235 131.25,254.377551 Z" id="Shape" fill="#19C5C2" fill-rule="nonzero"></path>
                        <g id="Group-5" transform="translate(9.625000, 11.363946)" fill-rule="nonzero" stroke="#231F20" stroke-width="1.75">
                            <rect id="Rectangle-path" transform="translate(2.753600, 2.690487) rotate(90.000000) translate(-2.753600, -2.690487) " x="-0.74639985" y="-0.806950405" width="7" height="6.99487575" rx="3.49743787"></rect>
                            <rect id="Rectangle-path" transform="translate(109.503600, 2.690487) rotate(90.000000) translate(-109.503600, -2.690487) " x="106.0036" y="-0.806950405" width="7" height="6.99487575" rx="3.49743787"></rect>
                            <rect id="Rectangle-path" transform="translate(109.503600, 227.346950) rotate(90.000000) translate(-109.503600, -227.346950) " x="106.0036" y="223.849512" width="7" height="6.99487575" rx="3.49743787"></rect>
                            <rect id="Rectangle-path" transform="translate(3.628600, 227.346950) rotate(90.000000) translate(-3.628600, -227.346950) " x="0.12860015" y="223.849512" width="7" height="6.99487575" rx="3.49743787"></rect>
                        </g>
                        <g id="eye" transform="translate(23.625000, 83.918367)">
                            <g id="Group-47">
                                <g id="Fill-4451">
                                    <use fill="#231F20" fill-rule="evenodd" xlink:href="#M_long_path-9"></use>
                                    <path stroke="#231F20" stroke-width="1.75" d="M44.0671855,88.9224102 C19.2459266,88.9224102 -0.875,68.8211226 -0.875,44.0232364 C-0.875,19.2261398 19.2460746,-0.875 44.0671855,-0.875 C68.8868889,-0.875 89.0084327,19.2266085 89.0084327,44.0232364 C89.0084327,68.8206539 68.8870369,88.9224102 44.0671855,88.9224102 Z"></path>
                                </g>
                                <g id="Combined-Shape">
                                    <use fill="#0DA6A3" fill-rule="evenodd" xlink:href="#M_long_path-10"></use>
                                    <path stroke="#231F20" stroke-width="1.75" d="M46.529261,0.971917979 C24.213621,2.47763756 6.75719674,21.2762308 6.75719674,44.0232364 C6.75719674,66.771013 24.2134962,85.5697627 46.5292611,87.0754922 L46.5292651,88.8215218 C45.5339571,88.8886837 44.5336277,88.9224102 43.5293645,88.9224102 C19.0027239,88.9224102 -0.875,68.8187311 -0.875,44.0232364 C-0.875,19.2285313 19.0028702,-0.875 43.5293645,-0.875 C44.5336274,-0.875 45.5339568,-0.84127348 46.5292651,-0.774111682 L46.529261,0.971917979 Z"></path>
                                </g>
                            </g>
                            <g id="Group-9" transform="translate(19.229113, 31.216809)">
                                <path d="M0.548444685,13.0259837 C0.548444685,13.0259837 7.83959725,0.775664725 24.2058675,0.775664725 C39.2477362,0.775664725 48.6018746,13.0259837 48.6018746,13.0259837 C48.6018746,13.0259837 41.9552473,24.7982968 24.5751596,24.7982968 C9.29719649,24.7982968 0.548444685,13.0259837 0.548444685,13.0259837" id="Fill-4499" fill="#FFFFFF"></path>
                                <path d="M42.1597783,10.2182272 C42.1597783,13.5333681 39.4693115,16.2216781 36.1501011,16.2216781 C32.8321532,16.2216781 30.1416863,13.5333681 30.1416863,10.2182272 C30.1416863,6.90308632 32.8321532,4.21540695 36.1501011,4.21540695 C39.4693115,4.21540695 42.1597783,6.90308632 42.1597783,10.2182272" id="Fill-4500" fill="#FFFFFF"></path>
                                <path d="M40.1343348,17.2088543 C40.1343348,21.007651 37.0517104,24.0873051 33.2496576,24.0873051 C29.4486436,24.0873051 26.3662428,21.0074275 26.3662428,17.2088543 C26.3662428,13.4103728 29.4485517,10.331034 33.2496576,10.331034 C37.0518024,10.331034 40.1343348,13.4101493 40.1343348,17.2088543 Z" id="Stroke-4501" stroke="#231F20" stroke-width="1.75"></path>
                                <path d="M37.3418071,17.0509322 C37.3418071,19.3955572 35.4391634,21.295599 33.092738,21.295599 C30.7463125,21.295599 28.8436689,19.3955572 28.8436689,17.0509322 C28.8436689,14.7069378 30.7463125,12.806896 33.092738,12.806896 C35.4391634,12.806896 37.3418071,14.7069378 37.3418071,17.0509322" id="Fill-4502" fill="#231F20"></path>
                            </g>
                        </g>
                    </g>
                    <g id="right" transform="translate(753.250000, 128.500000) scale(-1, 1) translate(-753.250000, -128.500000) translate(628.250000, 0.000000)">
                        <rect id="Rectangle-9-Copy-3" stroke="#231F20" stroke-width="1.75" fill="#0DA6A3" x="135.204698" y="1.00053875" width="114.172856" height="255.137382"></rect>
                        <rect id="Rectangle-9-Copy-3" stroke="#231F20" stroke-width="1.75" fill="#001135" x="162" y="34" width="60.0909769" height="190.102363"></rect>
                        <rect id="Rectangle-9-Copy-3" stroke="#231F20" stroke-width="1.75" fill="#4FE2DF" x="217.329033" y="34.0183176" width="5.0075814" height="190.102363"></rect>
                        <g id="Group-72" transform="translate(192.586614, 240.761246) rotate(-180.000000) translate(-192.586614, -240.761246) translate(162.836614, 236.390498)" fill-rule="nonzero">
                            <g id="Rectangle-path" transform="translate(55.083395, 4.002155) rotate(90.000000) translate(-55.083395, -4.002155) ">
                                <use fill="#4FE2DF" fill-rule="evenodd" xlink:href="#M_long_path-11"></use>
                                <rect stroke="#231F20" stroke-width="1.75" x="50.2023303" y="-0.875" width="9.76213025" height="9.75431002" rx="4.87715501"></rect>
                            </g>
                            <g id="Rectangle-path" transform="translate(29.043972, 4.002155) rotate(90.000000) translate(-29.043972, -4.002155) ">
                                <use fill="#407BF7" fill-rule="evenodd" xlink:href="#M_long_path-12"></use>
                                <rect stroke="#231F20" stroke-width="1.75" x="24.162907" y="-0.875" width="9.76213025" height="9.75431002" rx="4.87715501"></rect>
                            </g>
                            <g id="Rectangle-path" transform="translate(4.006065, 4.002155) rotate(90.000000) translate(-4.006065, -4.002155) ">
                                <use fill="#4FE2DF" fill-rule="evenodd" xlink:href="#M_long_path-13"></use>
                                <rect stroke="#231F20" stroke-width="1.75" x="-0.875" y="-0.875" width="9.76213025" height="9.75431002" rx="4.87715501"></rect>
                            </g>
                        </g>
                        <g id="Group-72" transform="translate(195.906630, 18.378291) rotate(-360.000000) translate(-195.906630, -18.378291) translate(166.156630, 14.007543)" fill-rule="nonzero">
                            <g id="Rectangle-path" transform="translate(55.083395, 4.002155) rotate(90.000000) translate(-55.083395, -4.002155) ">
                                <use fill="#4FE2DF" fill-rule="evenodd" xlink:href="#M_long_path-14"></use>
                                <rect stroke="#231F20" stroke-width="1.75" x="50.2023303" y="-0.875" width="9.76213025" height="9.75431002" rx="4.87715501"></rect>
                            </g>
                            <g id="Rectangle-path" transform="translate(29.139045, 4.002155) rotate(90.000000) translate(-29.139045, -4.002155) ">
                                <use fill="#4FE2DF" fill-rule="evenodd" xlink:href="#M_long_path-15"></use>
                                <rect stroke="#231F20" stroke-width="1.75" x="24.2579794" y="-0.875" width="9.76213025" height="9.75431002" rx="4.87715501"></rect>
                            </g>
                            <g id="Rectangle-path" transform="translate(4.101138, 4.002155) rotate(90.000000) translate(-4.101138, -4.002155) ">
                                <use fill="#407BF7" fill-rule="evenodd" xlink:href="#M_long_path-16"></use>
                                <rect stroke="#231F20" stroke-width="1.75" x="-0.779927606" y="-0.875" width="9.76213025" height="9.75431002" rx="4.87715501"></rect>
                            </g>
                        </g>
                        <rect id="Rectangle-9-Copy-4" stroke="#000000" stroke-width="1.75" fill="#4FE2DF" x="0" y="0.87414966" width="135.589075" height="255.137382"></rect>
                        <path d="M132.584526,254.456497 L2.31266979,254.456497 L2.31266979,0.377900353 C6.65441602,24.003355 13.9944982,27.0948926 22.1523084,39.079372 C39.2227922,61.213573 43.085698,73.4877941 39.7790749,98.5941554 C37.4679846,116.141686 37.1892149,146.025816 51.5710463,148.848043 C85.478584,155.501908 85.478584,173.707118 86.9669864,179.458083 C93.664568,203.293457 93.783518,217.831685 107.355428,223.568043 C121.875498,229.705154 128.418008,243.865118 132.584526,254.456497 Z" id="Shape" fill="#19C5C2" fill-rule="nonzero"></path>
                        <g id="Group-5" transform="translate(9.625000, 11.363946)" fill-rule="nonzero" stroke="#231F20" stroke-width="1.75">
                            <rect id="Rectangle-path" transform="translate(2.753611, 2.690499) rotate(90.000000) translate(-2.753611, -2.690499) " x="-0.74639985" y="-0.806950405" width="7.00002223" height="6.99489796" rx="3.49744898"></rect>
                            <rect id="Rectangle-path" transform="translate(109.503611, 2.690499) rotate(90.000000) translate(-109.503611, -2.690499) " x="106.0036" y="-0.806950405" width="7.00002223" height="6.99489796" rx="3.49744898"></rect>
                            <rect id="Rectangle-path" transform="translate(109.503611, 227.346961) rotate(90.000000) translate(-109.503611, -227.346961) " x="106.0036" y="223.849512" width="7.00002223" height="6.99489796" rx="3.49744898"></rect>
                            <rect id="Rectangle-path" transform="translate(3.628611, 227.346961) rotate(90.000000) translate(-3.628611, -227.346961) " x="0.12860015" y="223.849512" width="7.00002223" height="6.99489796" rx="3.49744898"></rect>
                        </g>
                        <g id="eye" transform="translate(24.036391, 85.045794)">
                            <g id="Group-47">
                                <g id="Fill-4451">
                                    <use fill="#231F20" fill-rule="evenodd" xlink:href="#M_long_path-17"></use>
                                    <path stroke="#231F20" stroke-width="1.75" d="M44.0671855,88.9224102 C19.2459266,88.9224102 -0.875,68.8211226 -0.875,44.0232364 C-0.875,19.2261398 19.2460746,-0.875 44.0671855,-0.875 C68.8868889,-0.875 89.0084327,19.2266085 89.0084327,44.0232364 C89.0084327,68.8206539 68.8870369,88.9224102 44.0671855,88.9224102 Z"></path>
                                </g>
                                <g id="Combined-Shape">
                                    <use fill="#0DA6A3" fill-rule="evenodd" xlink:href="#M_long_path-18"></use>
                                    <path stroke="#231F20" stroke-width="1.75" d="M46.529261,0.971917979 C24.213621,2.47763756 6.75719674,21.2762308 6.75719674,44.0232364 C6.75719674,66.771013 24.2134962,85.5697627 46.5292611,87.0754922 L46.5292651,88.8215218 C45.5339571,88.8886837 44.5336277,88.9224102 43.5293645,88.9224102 C19.0027239,88.9224102 -0.875,68.8187311 -0.875,44.0232364 C-0.875,19.2285313 19.0028702,-0.875 43.5293645,-0.875 C44.5336274,-0.875 45.5339568,-0.84127348 46.5292651,-0.774111682 L46.529261,0.971917979 Z"></path>
                                </g>
                            </g>
                            <g id="Group-9" transform="translate(19.229113, 31.216809)">
                                <path d="M0.548444685,13.0259837 C0.548444685,13.0259837 7.83959725,0.775664725 24.2058675,0.775664725 C39.2477362,0.775664725 48.6018746,13.0259837 48.6018746,13.0259837 C48.6018746,13.0259837 41.9552473,24.7982968 24.5751596,24.7982968 C9.29719649,24.7982968 0.548444685,13.0259837 0.548444685,13.0259837" id="Fill-4499" fill="#FFFFFF"></path>
                                <path d="M42.1597783,10.2182272 C42.1597783,13.5333681 39.4693115,16.2216781 36.1501011,16.2216781 C32.8321532,16.2216781 30.1416863,13.5333681 30.1416863,10.2182272 C30.1416863,6.90308632 32.8321532,4.21540695 36.1501011,4.21540695 C39.4693115,4.21540695 42.1597783,6.90308632 42.1597783,10.2182272" id="Fill-4500" fill="#FFFFFF"></path>
                                <path d="M39.9340316,17.0087465 C39.9340316,20.8075433 36.8514071,23.8871974 33.0493543,23.8871974 C29.2483404,23.8871974 26.1659396,20.8073198 26.1659396,17.0087465 C26.1659396,13.2102651 29.2482484,10.1309263 33.0493543,10.1309263 C36.8514991,10.1309263 39.9340316,13.2100416 39.9340316,17.0087465 Z" id="Stroke-4501" stroke="#231F20" stroke-width="1.75"></path>
                                <path d="M37.5421103,17.2510399 C37.5421103,19.595665 35.6394667,21.4957067 33.2930412,21.4957067 C30.9466158,21.4957067 29.0439721,19.595665 29.0439721,17.2510399 C29.0439721,14.9070455 30.9466158,13.0070038 33.2930412,13.0070038 C35.6394667,13.0070038 37.5421103,14.9070455 37.5421103,17.2510399" id="Fill-4502" fill="#231F20"></path>
                            </g>
                        </g>
                    </g>
                </g>
                <g id="left" transform="translate(353.000000, 565.000000)">
                    <path d="M269.191218,274.682164 L232.010977,274.682164 C162.079661,274.682164 105.340731,218.98919 105.340731,150.347028 L105.340731,124.907028 C105.340731,81.590271 69.4994725,46.4097303 25.48594,46.4097303 L0.994140625,46.4097303 L0.994140625,0.342703085 L25.2524465,0.342703085 C95.0670152,0.342703085 151.922692,56.1502709 151.922692,124.677839 L151.922692,150.117839 C151.922692,193.54919 187.763951,228.615136 231.89423,228.615136 L269.074471,228.615136 C281.916616,228.615136 292.423825,238.92865 292.423825,251.534055 C292.540572,264.36865 282.033363,274.682164 269.191218,274.682164 Z" id="Shape" stroke="#231F20" stroke-width="1.75" fill-opacity="0.5" fill="#BBD0EF" fill-rule="nonzero"></path>
                    <path d="M2.06640625,11.3517623 L2.06640625,5.34067016 L26.5060083,5.34067016 C92.0311586,5.34067016 147.092066,58.7673118 147.092066,122.79612 L147.092066,157.028869 C147.092066,178.105017 156.968292,197.487516 173.935326,212.012156 C189.865024,225.648785 210.673617,233.662 230.075824,233.662 L249.738798,233.662 C251.398091,233.662 252.743214,235.007629 252.743214,236.667546 C252.743214,238.327463 251.398091,239.673092 249.738798,239.673092 L230.075824,239.673092 C209.211008,239.673092 187.025677,231.129707 170.028553,216.579308 C151.787688,200.964203 141.083234,179.956275 141.083234,157.028869 L141.083234,122.79612 C141.083234,62.1288755 88.7529019,11.3517623 26.5060083,11.3517623 L2.06640625,11.3517623 Z" id="Path" fill="#FFFFFF" fill-rule="nonzero" opacity="0.5"></path>
                    <path d="M271.877704,264.674953 C273.536997,264.674953 274.88212,266.020582 274.88212,267.680499 C274.88212,269.340416 273.536997,270.686045 271.877704,270.686045 L236.987109,270.686045 C166.312833,270.686045 108.949369,214.380051 108.949369,144.952109 C108.949369,143.292191 110.294491,141.946563 111.953784,141.946563 C113.613077,141.946563 114.9582,143.292191 114.9582,144.952109 C114.9582,211.034408 169.606156,264.674953 236.987109,264.674953 L271.877704,264.674953 Z" id="Path" fill="#336ADF" fill-rule="nonzero" opacity="0.300000012"></path>
                    <path d="M116.045049,128.417499 C116.045049,130.077416 114.699926,131.423045 113.040633,131.423045 C111.38134,131.423045 110.036218,130.077416 110.036218,128.417499 C110.036218,122.036014 109.524073,110.839184 108.916845,107.333878 C102.508305,70.3397052 69.6538094,42.8099168 31.0484669,42.8099168 L2.06640625,42.8099168 L2.06640625,36.7988247 L31.0484669,36.7988247 C72.5706077,36.7988247 107.928817,66.426551 114.837432,106.307477 C115.521515,110.256443 116.045049,121.702266 116.045049,128.417499 Z" id="Path" fill="#336ADF" fill-rule="nonzero" opacity="0.300000012"></path>
                    <g id="Group" transform="translate(103.942009, 111.380828)">
                        <g id="Group-198">
                            <ellipse id="Oval" stroke="#000D6D" stroke-width="1.75" opacity="0.2" cx="24.8146574" cy="24.4373173" rx="23.0338535" ry="22.6288414"></ellipse>
                            <path d="M48.8499828,24.4373173 L46.847039,24.4373173 C46.847039,12.4971622 36.986826,2.81032464 24.8146574,2.81032464 C12.6424889,2.81032464 2.78227585,12.4971622 2.78227585,24.4373173 L0.779332076,24.4373173 C0.779332076,11.3823445 11.544334,0.806627275 24.8146574,0.806627275 C38.0849809,0.806627275 48.8499828,11.3823445 48.8499828,24.4373173 Z" id="Oval" fill="#231F20" fill-rule="nonzero"></path>
                        </g>
                        <g id="Group-197" transform="translate(119.175155, 116.214447)">
                            <ellipse id="Oval" stroke="#000D6D" stroke-width="1.75" opacity="0.2" cx="24.0353253" cy="23.6306901" rx="23.0338535" ry="22.6288414"></ellipse>
                            <path d="M23.828564,6.82121026e-13 L23.828564,2.00369736 C11.8928995,2.00369736 2.20970514,11.8676202 2.20970514,24.0443684 C2.20970514,36.2211165 11.8928995,46.0850394 23.828564,46.0850394 L23.828564,48.0887367 C10.7785011,48.0887367 0.206761364,37.3196846 0.206761364,24.0443684 C0.206761364,10.7690521 10.7785011,6.82121026e-13 23.828564,6.82121026e-13 Z" id="Oval" fill="#231F20" fill-rule="nonzero"></path>
                        </g>
                    </g>
                </g>
                <g id="left" transform="translate(763.500000, 703.500000) scale(-1, 1) translate(-763.500000, -703.500000) translate(617.000000, 565.000000)">
                    <path d="M269.191218,274.682164 L232.010977,274.682164 C162.079661,274.682164 105.340731,218.98919 105.340731,150.347028 L105.340731,124.907028 C105.340731,81.590271 69.4994725,46.4097303 25.48594,46.4097303 L0.994140625,46.4097303 L0.994140625,0.342703085 L25.2524465,0.342703085 C95.0670152,0.342703085 151.922692,56.1502709 151.922692,124.677839 L151.922692,150.117839 C151.922692,193.54919 187.763951,228.615136 231.89423,228.615136 L269.074471,228.615136 C281.916616,228.615136 292.423825,238.92865 292.423825,251.534055 C292.540572,264.36865 282.033363,274.682164 269.191218,274.682164 Z" id="Shape" stroke="#231F20" stroke-width="1.75" fill-opacity="0.5" fill="#BBD0EF" fill-rule="nonzero"></path>
                    <path d="M2.06640625,11.3517623 L2.06640625,5.34067016 L26.5060083,5.34067016 C92.0311586,5.34067016 147.092066,58.7673118 147.092066,122.79612 L147.092066,157.028869 C147.092066,178.105017 156.968292,197.487516 173.935326,212.012156 C189.865024,225.648785 210.673617,233.662 230.075824,233.662 L249.738798,233.662 C251.398091,233.662 252.743214,235.007629 252.743214,236.667546 C252.743214,238.327463 251.398091,239.673092 249.738798,239.673092 L230.075824,239.673092 C209.211008,239.673092 187.025677,231.129707 170.028553,216.579308 C151.787688,200.964203 141.083234,179.956275 141.083234,157.028869 L141.083234,122.79612 C141.083234,62.1288755 88.7529019,11.3517623 26.5060083,11.3517623 L2.06640625,11.3517623 Z" id="Path" fill="#FFFFFF" fill-rule="nonzero" opacity="0.5"></path>
                    <path d="M271.877704,264.674953 C273.536997,264.674953 274.88212,266.020582 274.88212,267.680499 C274.88212,269.340416 273.536997,270.686045 271.877704,270.686045 L236.987109,270.686045 C166.312833,270.686045 108.949369,214.380051 108.949369,144.952109 C108.949369,143.292191 110.294491,141.946563 111.953784,141.946563 C113.613077,141.946563 114.9582,143.292191 114.9582,144.952109 C114.9582,211.034408 169.606156,264.674953 236.987109,264.674953 L271.877704,264.674953 Z" id="Path" fill="#336ADF" fill-rule="nonzero" opacity="0.300000012"></path>
                    <path d="M116.045049,128.417499 C116.045049,130.077416 114.699926,131.423045 113.040633,131.423045 C111.38134,131.423045 110.036218,130.077416 110.036218,128.417499 C110.036218,122.036014 109.524073,110.839184 108.916845,107.333878 C102.508305,70.3397052 69.6538094,42.8099168 31.0484669,42.8099168 L2.06640625,42.8099168 L2.06640625,36.7988247 L31.0484669,36.7988247 C72.5706077,36.7988247 107.928817,66.426551 114.837432,106.307477 C115.521515,110.256443 116.045049,121.702266 116.045049,128.417499 Z" id="Path" fill="#336ADF" fill-rule="nonzero" opacity="0.300000012"></path>
                    <g id="Group" transform="translate(103.942009, 111.380828)">
                        <g id="Group-198">
                            <ellipse id="Oval" stroke="#000D6D" stroke-width="1.75" opacity="0.2" cx="24.8146574" cy="24.4373173" rx="23.0338535" ry="22.6288414"></ellipse>
                            <path d="M48.8499828,24.4373173 L46.847039,24.4373173 C46.847039,12.4971622 36.986826,2.81032464 24.8146574,2.81032464 C12.6424889,2.81032464 2.78227585,12.4971622 2.78227585,24.4373173 L0.779332076,24.4373173 C0.779332076,11.3823445 11.544334,0.806627275 24.8146574,0.806627275 C38.0849809,0.806627275 48.8499828,11.3823445 48.8499828,24.4373173 Z" id="Oval" fill="#231F20" fill-rule="nonzero"></path>
                        </g>
                        <g id="Group-197" transform="translate(119.175155, 116.214447)">
                            <ellipse id="Oval" stroke="#000D6D" stroke-width="1.75" opacity="0.2" cx="24.0353253" cy="23.6306901" rx="23.0338535" ry="22.6288414"></ellipse>
                            <path d="M23.828564,6.82121026e-13 L23.828564,2.00369736 C11.8928995,2.00369736 2.20970514,11.8676202 2.20970514,24.0443684 C2.20970514,36.2211165 11.8928995,46.0850394 23.828564,46.0850394 L23.828564,48.0887367 C10.7785011,48.0887367 0.206761364,37.3196846 0.206761364,24.0443684 C0.206761364,10.7690521 10.7785011,6.82121026e-13 23.828564,6.82121026e-13 Z" id="Oval" fill="#231F20" fill-rule="nonzero"></path>
                        </g>
                    </g>
                </g>
                <g id="coins" transform="translate(402.000000, 579.000000)">
                    <g id="Group">
                        <g>
                            <ellipse id="Oval" stroke="#231F20" stroke-width="1.47875" fill="#6D86B4" fill-rule="nonzero" cx="19.7668471" cy="19.2519099" rx="19.7227246" ry="19.0523669"></ellipse>
                            <ellipse id="Oval" stroke="#231F20" stroke-width="1.47875" fill="#6D86B4" fill-rule="nonzero" cx="24.1349673" cy="19.2519099" rx="19.7227246" ry="19.0523669"></ellipse>
                            <ellipse id="Oval" stroke="#231F20" stroke-width="1.47875" fill="#6D86B4" fill-rule="nonzero" cx="24.1349673" cy="19.2519099" rx="12.1777897" ry="11.7530835"></ellipse>
                            <g transform="translate(18.909611, 10.555825)" fill="#231F20">
                                <polygon id="Fill-15" points="0 8.43672194 5.17781453 0 10.3552634 8.43672194 5.17781453 11.4737233"></polygon>
                                <polygon id="Fill-17" points="5.17763168 13.232289 0 10.0968765 5.17763168 17.4400594 10.3552634 10.0968765"></polygon>
                            </g>
                        </g>
                        <path d="M10.3552634,5.9663361 L5.85297494,5.9663361" id="Shape" stroke="#231F20" stroke-width="1.75" fill="#29CC86" fill-rule="nonzero"></path>
                        <path d="M4.50228842,19.2758551 L0,19.2758551" id="Shape" stroke="#231F20" stroke-width="1.75" fill="#29CC86" fill-rule="nonzero"></path>
                        <path d="M8.55434799,31.2085273 L4.50228842,31.2085273" id="Shape" stroke="#231F20" stroke-width="1.75" fill="#29CC86" fill-rule="nonzero"></path>
                    </g>
                    <g id="Group" transform="translate(416.000000, 0.000000)">
                        <g fill="#FFCB76" fill-rule="nonzero" id="Oval" stroke="#231F20" stroke-width="1.75">
                            <ellipse cx="19.7668471" cy="19.2519099" rx="19.7227246" ry="19.0523669"></ellipse>
                            <ellipse cx="24.1349673" cy="19.2519099" rx="19.7227246" ry="19.0523669"></ellipse>
                            <ellipse cx="24.1349673" cy="19.2519099" rx="12.1777897" ry="11.7530835"></ellipse>
                        </g>
                        <g id="Group-2" transform="translate(15.307781, 10.096876)" fill="#231F20">
                            <polygon id="Fill-5" points="10.2171532 17.871349 0.278101353 10.1744694 9.41834715 11.9099083 17.767791 7.73979636"></polygon>
                            <path d="M9.41750672,12.9416663 L0.277260926,10.1643114 L7.82789875,0.0327587548 L17.7669506,7.72963829 L9.41750672,12.9416663 Z M8.18095821,2.64876766 L3.12718948,9.42978911 L5.98464187,9.03203337 L8.56315247,5.63458742 L12.0629313,8.18593552 L15.1557033,7.75554341 L8.18095821,2.64876766 Z" id="Combined-Shape"></path>
                        </g>
                        <path d="M10.3552634,5.9663361 L5.85297494,5.9663361" id="Shape" stroke="#231F20" stroke-width="1.75" fill="#29CC86" fill-rule="nonzero"></path>
                        <path d="M4.50228842,19.2758551 L0,19.2758551" id="Shape" stroke="#231F20" stroke-width="1.75" fill="#29CC86" fill-rule="nonzero"></path>
                        <path d="M8.55434799,31.2085273 L4.50228842,31.2085273" id="Shape" stroke="#231F20" stroke-width="1.75" fill="#29CC86" fill-rule="nonzero"></path>
                    </g>
                </g>
                <g id="middle_gray_box" transform="translate(524.000000, 546.000000)">
                    <g id="pipe" transform="translate(108.188289, 482.787200) rotate(-270.000000) translate(-108.188289, -482.787200) translate(-58.811711, 459.287200)">
                        <g id="Shape" fill-rule="nonzero">
                            <use fill-opacity="0.5" fill="#BBD0EF" fill-rule="evenodd" xlink:href="#M_long_path-19"></use>
                            <path stroke="#231F20" stroke-width="1.75" d="M-0.104147721,0.245124102 L333.431043,-0.105072361 L333.464406,46.5719502 L-0.0485437538,46.9221459 L-0.104147721,0.245124102 Z"></path>
                        </g>
                        <polygon id="Path" fill="#000D6D" fill-rule="nonzero" opacity="0.300000012" points="333.314418 35.7714593 333.323581 41.7774912 4.05819362 42.048524 4.0490305 36.0424921"></polygon>
                        <polygon id="Path" fill="#FFFFFF" fill-rule="nonzero" opacity="0.5" points="5.1159502 12.2785858 5.10667615 6.27255405 332.314362 6.00141045 332.323636 12.0074422"></polygon>
                        <ellipse id="Oval" stroke="#000D6D" stroke-width="1.75" opacity="0.2" cx="116.67312" cy="22.9996419" rx="22.4250598" ry="21.9986354"></ellipse>
                    </g>
                    <g id="box" transform="translate(108.774673, 222.304420) scale(-1, 1) rotate(-90.000000) translate(-108.774673, -222.304420) translate(-112.725327, 113.804420)">
                        <rect id="Rectangle-9-Copy-3" stroke="#231F20" stroke-width="1.75" fill="#BED1F4" x="0" y="0" width="432.727281" height="216.55383"></rect>
                        <g id="Rectangle-9-Copy-3">
                            <use fill="#BED1F4" fill-rule="evenodd" xlink:href="#M_long_path-20"></use>
                            <path stroke="#231F20" stroke-width="1.75" d="M13.1542722,12.1380842 L360.625624,12.1380842 L360.625624,204.079316 L13.1542722,204.079316 L13.1542722,12.1380842 Z"></path>
                        </g>
                        <g id="Rectangle-9-Copy-3">
                            <use fill="#E1E9F3" fill-rule="evenodd" xlink:href="#M_long_path-21"></use>
                            <rect stroke="#231F20" stroke-width="1.75" x="13.1542722" y="12.1380842" width="6.76045437" height="191.941231"></rect>
                        </g>
                        <polygon id="Rectangle-9-Copy-4" stroke="#231F20" stroke-width="1.75" fill="#E1E9F3" points="371.775714 -2.00088834e-11 442.172465 5.32244225e-13 442.172465 216.55383 371.775714 216.55383"></polygon>
                        <g id="Rectangle-9-Copy-4">
                            <use fill="#E1E9F3" fill-rule="evenodd" xlink:href="#M_long_path-22"></use>
                            <path stroke="#231F20" stroke-width="1.75" d="M382.925805,10.1360713 L430.731524,10.1360713 L430.731524,206.081328 L382.925805,206.081328 L382.925805,10.1360713 Z"></path>
                        </g>
                        <g id="Rectangle-path" fill-rule="nonzero" transform="translate(406.848895, 25.025162) rotate(90.000000) translate(-406.848895, -25.025162) ">
                            <use fill="#4FE2DF" fill-rule="evenodd" xlink:href="#M_long_path-23"></use>
                            <rect stroke="#231F20" stroke-width="1.75" x="401.965531" y="20.1461361" width="9.76672699" height="9.75805184" rx="4.87902592"></rect>
                        </g>
                        <g id="Rectangle-path" fill-rule="nonzero" transform="translate(406.848895, 47.047305) rotate(90.000000) translate(-406.848895, -47.047305) ">
                            <use fill="#407BF7" fill-rule="evenodd" xlink:href="#M_long_path-24"></use>
                            <rect stroke="#231F20" stroke-width="1.75" x="401.965531" y="42.1682787" width="9.76672699" height="9.75805184" rx="4.87902592"></rect>
                        </g>
                        <g id="Group-6" transform="translate(111.232087, 34.034220)" stroke="#231F20" stroke-width="1.75">
                            <g id="Group-149">
                                <ellipse id="Oval-5-Copy" fill="#BED1F4" cx="74.1547247" cy="74.0744796" rx="74.1547247" ry="74.0744796"></ellipse>
                                <path d="M29.1887566,36.2877383 L36.087039,29.9791142 C52.9284758,14.5772667 77.4258558,10.6795383 98.2751285,20.0844934 L105.420875,23.3078877 L68.3710297,49.2919952 L58.0835853,39.5122427 L42.4940056,53.4582961 L29.1887566,36.2877383 Z M120.667299,112.862227 L113.769016,119.170851 C96.9275796,134.572699 72.4301996,138.470427 51.5809269,129.065472 L44.4351803,125.842078 L81.4850257,99.8579704 L91.7724701,109.637723 L107.36205,95.6916695 L120.667299,112.862227 Z M112.887251,29.0928883 L119.231547,35.952384 C134.720483,52.6991271 138.640251,77.0587665 129.182116,97.7908107 L125.940495,104.896379 L99.8094618,68.0548526 L109.644514,57.8252511 L95.6196027,42.3233264 L112.887251,29.0928883 Z M36.4242895,119.515624 L30.0799936,112.656128 C14.5910569,95.909385 10.6712889,71.5497456 20.129424,50.8177014 L23.3710449,43.712133 L49.5020784,80.5536595 L39.6670267,90.783261 L53.6919375,106.285186 L36.4242895,119.515624 Z" id="Combined-Shape" fill="#001135"></path>
                            </g>
                        </g>
                        <g id="Rectangle-9-Copy-4">
                            <use fill="#BED1F4" fill-rule="evenodd" xlink:href="#M_long_path-25"></use>
                            <path stroke="#231F20" stroke-width="1.75" d="M425.122695,10.0290254 L431.88315,10.0290254 L431.88315,205.974283 L425.122695,205.974283 L425.122695,10.0290254 Z"></path>
                        </g>
                    </g>
                </g>
            </g>
        </g>
    </g>
</svg>