<svg id="M_team_pipes" class="team__pipes show-tablet" viewBox="0 0 1098 2508" version="1.1" xmlns="http://www.w3.org/2000/svg" xmlns:xlink="http://www.w3.org/1999/xlink">
    <g transform="translate(0.000000, 1.000000)" stroke="none" stroke-width="1" fill="none" fill-rule="evenodd">
        <g id="pipes">
            <g id="Group">
                <polygon id="Shape" stroke="#231F20" stroke-width="2.41499984" fill-opacity="0.5" fill="#BBD0EF" fill-rule="nonzero" points="5 1.48097764 1095.95571 1 1096 63.0306004 5.07381426 63.511578"></polygon>
                <polygon id="Path" fill="#000D6D" fill-rule="nonzero" opacity="0.300000012" points="1091.99262 49 1092 57.2925159 0.00738195926 57.6614741 0 49.3689583"></polygon>
                <path d="M7.14996788,16.6540939 C4.86004316,16.6561322 3.00204,14.8014417 3.00000168,12.5115266 C2.99796335,10.2216116 4.85266173,8.36361633 7.14258645,8.36157801 L1090.87218,8.00000168 C1093.1621,7.99796336 1095.02011,9.85265389 1095.02215,12.1425689 C1095.02418,14.4324839 1093.16949,16.2904792 1090.87956,16.2925175 L7.14996788,16.6540939 Z" id="Path" fill="#FFFFFF" fill-rule="nonzero" opacity="0.5"></path>
                <g id="Group-109" transform="translate(195.000000, 0.000000)">
                    <g id="Group-36" transform="translate(0.000000, 1.000000)" opacity="0.2" stroke="#000D6D" stroke-width="2.41499984">
                        <ellipse id="Oval" cx="357.097078" cy="31.0969468" rx="31.0970785" ry="31.0969468"></ellipse>
                        <ellipse id="Oval" cx="683.097078" cy="31.0969468" rx="31.0970785" ry="31.0969468"></ellipse>
                        <ellipse id="Oval" cx="31.0970785" cy="31.0969468" rx="31.0970785" ry="31.0969468"></ellipse>
                    </g>
                    <path d="M354.92089,0 L354.92089,2.76417305 C338.823747,2.76417305 325.764185,16.062421 325.764185,32.4790333 C325.764185,48.8956455 338.823747,62.1938935 354.92089,62.1938935 L354.92089,64.9580666 C337.285809,64.9580666 323,50.41116 323,32.4790333 C323,14.5469066 337.285809,0 354.92089,0 Z" id="Oval" fill="#231F20" fill-rule="nonzero"></path>
                    <path d="M682.92089,0 L682.92089,2.76417305 C666.823747,2.76417305 653.764185,16.062421 653.764185,32.4790333 C653.764185,48.8956455 666.823747,62.1938935 682.92089,62.1938935 L682.92089,64.9580666 C665.285809,64.9580666 651,50.41116 651,32.4790333 C651,14.5469066 665.285809,0 682.92089,0 Z" id="Oval" fill="#231F20" fill-rule="nonzero"></path>
                </g>
                <g id="Group-109" transform="translate(194.000000, 0.000000)" fill="#231F20" fill-rule="nonzero">
                    <path d="M31.9208904,0 L31.9208904,2.76417305 C15.8237469,2.76417305 2.76418475,16.062421 2.76418475,32.4790333 C2.76418475,48.8956455 15.8237469,62.1938935 31.9208904,62.1938935 L31.9208904,64.9580666 C14.2858091,64.9580666 0,50.41116 0,32.4790333 C0,14.5469066 14.2858091,0 31.9208904,0 Z" id="Oval"></path>
                </g>
            </g>
        </g>
        <g id="pipes" transform="translate(0.000000, 814.000000)">
            <g id="Group">
                <polygon id="Shape" stroke="#231F20" stroke-width="2.41499984" fill-opacity="0.5" fill="#BBD0EF" fill-rule="nonzero" points="5 1.48097764 1095.95571 1 1096 63.0306004 5.07381426 63.511578"></polygon>
                <polygon id="Path" fill="#000D6D" fill-rule="nonzero" opacity="0.300000012" points="1091.99262 49 1092 57.2925159 0.00738195926 57.6614741 0 49.3689583"></polygon>
                <path d="M7.14996788,16.6540939 C4.86004316,16.6561322 3.00204,14.8014417 3.00000168,12.5115266 C2.99796335,10.2216116 4.85266173,8.36361633 7.14258645,8.36157801 L1090.87218,8.00000168 C1093.1621,7.99796336 1095.02011,9.85265389 1095.02215,12.1425689 C1095.02418,14.4324839 1093.16949,16.2904792 1090.87956,16.2925175 L7.14996788,16.6540939 Z" id="Path" fill="#FFFFFF" fill-rule="nonzero" opacity="0.5"></path>
                <g id="Group-109" transform="translate(195.000000, 0.000000)">
                    <g id="Group-36" transform="translate(0.000000, 1.000000)" opacity="0.2" stroke="#000D6D" stroke-width="2.41499984">
                        <ellipse id="Oval" cx="357.097078" cy="31.0969468" rx="31.0970785" ry="31.0969468"></ellipse>
                        <ellipse id="Oval" cx="683.097078" cy="31.0969468" rx="31.0970785" ry="31.0969468"></ellipse>
                        <ellipse id="Oval" cx="31.0970785" cy="31.0969468" rx="31.0970785" ry="31.0969468"></ellipse>
                    </g>
                    <path d="M354.92089,0 L354.92089,2.76417305 C338.823747,2.76417305 325.764185,16.062421 325.764185,32.4790333 C325.764185,48.8956455 338.823747,62.1938935 354.92089,62.1938935 L354.92089,64.9580666 C337.285809,64.9580666 323,50.41116 323,32.4790333 C323,14.5469066 337.285809,0 354.92089,0 Z" id="Oval" fill="#231F20" fill-rule="nonzero"></path>
                    <path d="M682.92089,0 L682.92089,2.76417305 C666.823747,2.76417305 653.764185,16.062421 653.764185,32.4790333 C653.764185,48.8956455 666.823747,62.1938935 682.92089,62.1938935 L682.92089,64.9580666 C665.285809,64.9580666 651,50.41116 651,32.4790333 C651,14.5469066 665.285809,0 682.92089,0 Z" id="Oval" fill="#231F20" fill-rule="nonzero"></path>
                </g>
                <g id="Group-109" transform="translate(194.000000, 0.000000)" fill="#231F20" fill-rule="nonzero">
                    <path d="M31.9208904,0 L31.9208904,2.76417305 C15.8237469,2.76417305 2.76418475,16.062421 2.76418475,32.4790333 C2.76418475,48.8956455 15.8237469,62.1938935 31.9208904,62.1938935 L31.9208904,64.9580666 C14.2858091,64.9580666 0,50.41116 0,32.4790333 C0,14.5469066 14.2858091,0 31.9208904,0 Z" id="Oval"></path>
                </g>
            </g>
        </g>
        <g id="pipes" transform="translate(0.000000, 1628.000000)">
            <g id="Group">
                <polygon id="Shape" stroke="#231F20" stroke-width="2.41499984" fill-opacity="0.5" fill="#BBD0EF" fill-rule="nonzero" points="5 1.48097764 1095.95571 1 1096 63.0306004 5.07381426 63.511578"></polygon>
                <polygon id="Path" fill="#000D6D" fill-rule="nonzero" opacity="0.300000012" points="1091.99262 49 1092 57.2925159 0.00738195926 57.6614741 0 49.3689583"></polygon>
                <path d="M7.14996788,16.6540939 C4.86004316,16.6561322 3.00204,14.8014417 3.00000168,12.5115266 C2.99796335,10.2216116 4.85266173,8.36361633 7.14258645,8.36157801 L1090.87218,8.00000168 C1093.1621,7.99796336 1095.02011,9.85265389 1095.02215,12.1425689 C1095.02418,14.4324839 1093.16949,16.2904792 1090.87956,16.2925175 L7.14996788,16.6540939 Z" id="Path" fill="#FFFFFF" fill-rule="nonzero" opacity="0.5"></path>
                <g id="Group-109" transform="translate(195.000000, 0.000000)">
                    <g id="Group-36" transform="translate(0.000000, 1.000000)" opacity="0.2" stroke="#000D6D" stroke-width="2.41499984">
                        <ellipse id="Oval" cx="357.097078" cy="31.0969468" rx="31.0970785" ry="31.0969468"></ellipse>
                        <ellipse id="Oval" cx="683.097078" cy="31.0969468" rx="31.0970785" ry="31.0969468"></ellipse>
                        <ellipse id="Oval" cx="31.0970785" cy="31.0969468" rx="31.0970785" ry="31.0969468"></ellipse>
                    </g>
                    <path d="M354.92089,0 L354.92089,2.76417305 C338.823747,2.76417305 325.764185,16.062421 325.764185,32.4790333 C325.764185,48.8956455 338.823747,62.1938935 354.92089,62.1938935 L354.92089,64.9580666 C337.285809,64.9580666 323,50.41116 323,32.4790333 C323,14.5469066 337.285809,0 354.92089,0 Z" id="Oval" fill="#231F20" fill-rule="nonzero"></path>
                    <path d="M682.92089,0 L682.92089,2.76417305 C666.823747,2.76417305 653.764185,16.062421 653.764185,32.4790333 C653.764185,48.8956455 666.823747,62.1938935 682.92089,62.1938935 L682.92089,64.9580666 C665.285809,64.9580666 651,50.41116 651,32.4790333 C651,14.5469066 665.285809,0 682.92089,0 Z" id="Oval" fill="#231F20" fill-rule="nonzero"></path>
                </g>
                <g id="Group-109" transform="translate(194.000000, 0.000000)" fill="#231F20" fill-rule="nonzero">
                    <path d="M31.9208904,0 L31.9208904,2.76417305 C15.8237469,2.76417305 2.76418475,16.062421 2.76418475,32.4790333 C2.76418475,48.8956455 15.8237469,62.1938935 31.9208904,62.1938935 L31.9208904,64.9580666 C14.2858091,64.9580666 0,50.41116 0,32.4790333 C0,14.5469066 14.2858091,0 31.9208904,0 Z" id="Oval"></path>
                </g>
            </g>
        </g>
        <g id="pipes-copy-4" transform="translate(0.000000, 2442.000000)">
            <g id="Group">
                <polygon id="Shape" stroke="#231F20" stroke-width="2.41499984" fill-opacity="0.5" fill="#BBD0EF" fill-rule="nonzero" points="5 1.48097764 1095.95571 1 1096 63.0306004 5.07381426 63.511578"></polygon>
                <polygon id="Path" fill="#000D6D" fill-rule="nonzero" opacity="0.300000012" points="1091.99262 49 1092 57.2925159 0.00738195926 57.6614741 0 49.3689583"></polygon>
                <path d="M7.14996788,16.6540939 C4.86004316,16.6561322 3.00204,14.8014417 3.00000168,12.5115266 C2.99796335,10.2216116 4.85266173,8.36361633 7.14258645,8.36157801 L1090.87218,8.00000168 C1093.1621,7.99796336 1095.02011,9.85265389 1095.02215,12.1425689 C1095.02418,14.4324839 1093.16949,16.2904792 1090.87956,16.2925175 L7.14996788,16.6540939 Z" id="Path" fill="#FFFFFF" fill-rule="nonzero" opacity="0.5"></path>
                <g id="Group-109" transform="translate(195.000000, 0.000000)">
                    <g id="Group-36" transform="translate(0.000000, 1.000000)" opacity="0.2" stroke="#000D6D" stroke-width="2.41499984">
                        <ellipse id="Oval" cx="357.097078" cy="31.0969468" rx="31.0970785" ry="31.0969468"></ellipse>
                        <ellipse id="Oval" cx="683.097078" cy="31.0969468" rx="31.0970785" ry="31.0969468"></ellipse>
                        <ellipse id="Oval" cx="31.0970785" cy="31.0969468" rx="31.0970785" ry="31.0969468"></ellipse>
                    </g>
                    <path d="M354.92089,0 L354.92089,2.76417305 C338.823747,2.76417305 325.764185,16.062421 325.764185,32.4790333 C325.764185,48.8956455 338.823747,62.1938935 354.92089,62.1938935 L354.92089,64.9580666 C337.285809,64.9580666 323,50.41116 323,32.4790333 C323,14.5469066 337.285809,0 354.92089,0 Z" id="Oval" fill="#231F20" fill-rule="nonzero"></path>
                    <path d="M682.92089,0 L682.92089,2.76417305 C666.823747,2.76417305 653.764185,16.062421 653.764185,32.4790333 C653.764185,48.8956455 666.823747,62.1938935 682.92089,62.1938935 L682.92089,64.9580666 C665.285809,64.9580666 651,50.41116 651,32.4790333 C651,14.5469066 665.285809,0 682.92089,0 Z" id="Oval" fill="#231F20" fill-rule="nonzero"></path>
                </g>
                <g id="Group-109" transform="translate(194.000000, 0.000000)" fill="#231F20" fill-rule="nonzero">
                    <path d="M31.9208904,0 L31.9208904,2.76417305 C15.8237469,2.76417305 2.76418475,16.062421 2.76418475,32.4790333 C2.76418475,48.8956455 15.8237469,62.1938935 31.9208904,62.1938935 L31.9208904,64.9580666 C14.2858091,64.9580666 0,50.41116 0,32.4790333 C0,14.5469066 14.2858091,0 31.9208904,0 Z" id="Oval"></path>
                </g>
            </g>
        </g>
    </g>
</svg>