<svg id="margin-tablet-visuals" viewBox="0 0 1515 1470" version="1.1" xmlns="http://www.w3.org/2000/svg" xmlns:xlink="http://www.w3.org/1999/xlink">
    <g stroke="none" transform="translate(1.000000, 1.000000)" stroke-width="1" fill="none" fill-rule="evenodd">
        <g id="3_tubes" transform="translate(107.000000, 566.000000)">
            <path d="M0,0 L0,774.336888 C0,814.839192 166.183705,901.163043 637.519389,901.163043 C1108.85507,901.163043 1302.92175,816.778144 1302.92175,774.336888 L1302.92175,0.337067935 C1170.09208,67.3137756 948.948178,100.802129 639.490035,100.802129 C330.031893,100.802129 116.868548,67.2014197 0,0 Z" id="Path-3" stroke="#231F20" stroke-width="2" fill="#407BF7"></path>
            <path d="M0,27 L0,88.2451159 C32.9124996,100.217391 182.291141,172.290761 636.84466,172.290761 C1091.39818,172.290761 1262.37096,100.217391 1300.63191,85.0769787 L1300.63191,27.3243523 C1169.10819,75.9197116 948.503139,100.217391 638.81676,100.217391 C329.13038,100.217391 116.191461,75.8115942 0,27 Z" id="Path-3" fill="#336ADF"></path>
        </g>
        <g id="blue_disk" stroke="#231F20" stroke-width="2">
            <path d="M756.180089,673.850194 C338.553303,673.850194 0,599.562292 0,507.927561 C0,446.837741 0,337.017684 0,178.467391 L1512.36281,178.467391 C1512.36281,362.54093 1512.36281,472.360987 1512.36281,507.927561 C1512.36281,599.562292 1173.80687,673.850194 756.180089,673.850194 Z" id="Fill-4380" fill="#407BF7"></path>
            <g id="front" transform="translate(46.941821, 223.084239)" fill="#407BF7">
                <path d="M3.43476736,314.033967 C34.7293145,335.77038 83.96098,354.646739 151.129764,370.663043" id="Path-34"></path>
                <path d="M0,52.625 C13.6509212,61.1803276 24.7025514,67.4671213 33.1548907,71.485381 M49.2017768,80.1969139 C70.6464087,87.6900576 91.6466166,98.1384595 119.071935,104.677989" id="Path-34"></path>
                <path d="M160.863841,373.523098 L176.320294,376.955163" id="Path-35"></path>
                <path d="M1465.04249,0.21384896 C1444.38774,38.8606292 1389.57476,69.6939535 1300.60355,92.7138217" id="Path-32"></path>
                <path d="M1451.20087,39.2903859 C1438.03426,52.4466359 1425.79659,59.154653 1406.53724,69.2133152" id="Path-32"></path>
                <path d="M1397.95255,73.2173913 L1389.3634,77.2214674" id="Path-33"></path>
            </g>
            <g id="top">
                <path d="M756.219967,364.942935 C338.571157,364.942935 0,283.2466 0,182.473507 C0,81.7004149 338.571157,0 756.219967,0 C1173.86878,0 1512.44256,81.7004149 1512.44256,182.473507 C1512.44256,283.2466 1173.86878,364.942935 756.219967,364.942935 Z" id="Fill-4380" fill="#6092FD"></path>
                <g id="lines" transform="translate(67.550425, 102.961957)">
                    <path d="M36.6375185,0.57201087 C21.3718858,7.05480072 9.15937964,13.5375906 -4.26325641e-14,20.0203804" id="Path-37" fill="#407BF7"></path>
                    <path d="M36.6375185,12.0122283 C33.2636105,13.4695825 30.7765748,14.5625982 29.1764116,15.2912753" id="Path-37" fill="#407BF7"></path>
                    <path d="M1349.68308,37.0904586 C1368.13923,55.9410595 1361.16831,74.7916604 1328.77034,93.6422613" id="Path-38"></path>
                </g>
            </g>
        </g>
    </g>
</svg>