<svg width="251px" height="293px" viewBox="0 0 251 294" version="1.1" xmlns="http://www.w3.org/2000/svg" xmlns:xlink="http://www.w3.org/1999/xlink">
    <g id="icon_KYC" transform="translate(0.000000, 3.000000)" stroke="none" stroke-width="1" fill="none" fill-rule="evenodd">
        <g id="tube" transform="translate(0.000000, 4.000000)">
            <rect id="Rectangle-path" fill="#231F20" fill-rule="nonzero" x="0.673604" y="253.111787" width="250.15872" height="33.1700765"></rect>
            <g id="Group-16" transform="translate(5.201974, 0.572040)">
                <g id="Combined-Shape">
                    <g id="path-1-link" transform="translate(1.000000, 1.000000)" fill="#407BF7" fill-rule="nonzero">
                        <path d="M74.1825453,3.28737486 C86.4896785,-1.90567057 100.676394,3.86139485 105.869462,16.168476 C111.062529,28.4755572 105.295439,42.6622128 92.988306,47.8552582 C61.3038999,61.2246235 43.5165349,95.1212215 50.5258693,128.759885 C57.5360414,162.402568 87.3911554,186.391968 121.788017,186.010949 C156.18465,185.629932 185.499946,160.985417 191.762128,127.196044 C198.023638,93.4102931 179.488595,59.9156612 147.515071,47.251295 C135.095902,42.332197 129.01591,28.2767975 133.935029,15.8576815 C138.854148,3.43856545 152.909607,-2.64140043 165.328776,2.27769756 C218.795722,23.455375 249.801283,79.48545 239.325431,136.010873 C228.85025,192.532673 179.82827,233.744024 122.323823,234.381009 C64.819605,235.017992 14.8959848,194.902999 3.1697726,138.627456 C-8.5572772,82.3478934 21.1981017,25.6443784 74.1825453,3.28737486 Z" id="path-1"></path>
                    </g>
                    <path d="M74.7131147,3.17485923 C87.6346714,-2.27744466 102.529648,3.77753689 107.981976,16.6990421 C113.434305,29.6205499 107.379296,44.5154688 94.4577365,49.9677738 C63.3064121,63.1122031 45.8161031,96.4386014 52.7079791,129.513567 C59.6007921,162.593029 88.9563741,186.178133 122.774642,185.803523 C156.592655,185.428916 185.417501,161.199695 191.574845,127.976005 C197.731438,94.7563672 179.505965,61.825223 148.070404,49.3739381 C135.031216,44.2092572 128.647683,29.4521474 133.812387,16.4130114 C138.977091,3.37387798 153.734257,-3.00962539 166.773443,2.15505446 C220.778391,23.5458287 252.093475,80.1394177 241.512713,137.230912 C230.932703,194.318347 181.420314,235.94504 123.337198,236.588435 C65.254338,237.231827 14.8312242,196.71249 2.9876628,139.873774 C-8.85683704,83.030554 21.1955519,25.7568147 74.7131147,3.17485923 Z" id="Shape" stroke="#231F20" stroke-width="2.41499984"></path>
                </g>
                <g id="Group-46" transform="translate(131.680868, 0.382087)">
                    <g id="Oval">
                        <g id="path-2-link" transform="translate(2.000000, 2.000000)" fill="#407BF7" fill-rule="nonzero">
                            <ellipse id="path-2" cx="23.4955704" cy="23.4954709" rx="23.4955704" ry="23.4954709"></ellipse>
                        </g>
                        <ellipse stroke="#231F20" stroke-width="2.41499984" cx="25.4955704" cy="25.4954709" rx="24.7030703" ry="24.7029708"></ellipse>
                    </g>
                    <g id="Oval" transform="translate(3.000000, 3.000000)">
                        <g id="path-3-link" fill="#407BF7" fill-rule="nonzero">
                            <ellipse id="path-3" cx="22.4955704" cy="22.4954709" rx="22.113478" ry="22.1133844"></ellipse>
                        </g>
                        <ellipse stroke="#231F20" stroke-width="2.41499984" cx="22.4955704" cy="22.4954709" rx="20.9059781" ry="20.9058844"></ellipse>
                    </g>
                </g>
                <g id="Group-43" transform="translate(62.576249, 0.382087)">
                    <g id="Oval">
                        <g id="path-4-link" transform="translate(2.000000, 2.000000)" fill="#407BF7" fill-rule="nonzero">
                            <ellipse id="path-4" cx="23.4955704" cy="23.4954709" rx="23.4955704" ry="23.4954709"></ellipse>
                        </g>
                        <ellipse stroke="#231F20" stroke-width="2.41499984" cx="25.4955704" cy="25.4954709" rx="24.7030703" ry="24.7029708"></ellipse>
                    </g>
                    <g id="Oval" transform="translate(3.000000, 3.000000)">
                        <g id="path-5-link" fill="#407BF7" fill-rule="nonzero">
                            <ellipse id="path-5" cx="22.4955704" cy="22.4954709" rx="22.113478" ry="22.1133844"></ellipse>
                        </g>
                        <ellipse stroke="#231F20" stroke-width="2.41499984" cx="22.4955704" cy="22.4954709" rx="20.9059781" ry="20.9058844"></ellipse>
                    </g>
                </g>
            </g>
        </g>
        <path storke="none" id="l-passive-path" d="M222.853977,120.180789 L222.853977,121.073011 C222.853977,174.604309 179.458286,218 125.926989,218 C72.395691,218 29,174.604309 29,121.073011 L29,118.926989 C29,65.395691 72.395691,22 125.926989,22 C179.458286,22.2538001 222.853977,66.6494911 222.853977,120.180789 Z"></path>
        <ellipse id="l-ball-passive" stroke="#231F20" stroke-width="2.41499984" fill="#38EDFA" fill-rule="nonzero" cx="126.44401" cy="20.7749918" rx="20.7313856" ry="20.7312978"></ellipse>
        <g id="top" transform="translate(68.000000, 9.000000)">
            <path d="M85.3396992,41.1766169 C96.7711693,46.3310449 109.449235,41.177326 114.500136,29.590763 C118.623722,20.1314211 115.414449,9.59756629 106.493285,3.5287067 L107.851642,1.53193628 C117.721003,8.24583275 121.30759,20.0181505 116.713932,30.5558175 C111.133002,43.358245 97.0233687,49.093906 84.3470246,43.3781667 L85.3396992,41.1766169 Z" id="Oval" fill="#407BF7" fill-rule="nonzero"></path>
            <path d="M34.5400514,41.1766169 L35.532726,43.3781667 C22.8563818,49.093906 8.7467481,43.358245 3.16581868,30.5558175 C-1.4278395,20.0181505 2.1587478,8.24583275 12.0281089,1.53193628 L13.3864653,3.5287067 C4.46530202,9.59756629 1.2560283,20.1314211 5.37961496,29.590763 C10.4305157,41.177326 23.1085813,46.3310449 34.5400514,41.1766169 Z" id="Oval" fill="#407BF7" fill-rule="nonzero"></path>
            <path d="M37.6236077,42.8458197 C25.8083114,49.6673842 10.7001729,45.6192033 3.87863587,33.8039546 C-2.94290115,21.9887059 1.1053406,6.88058372 12.9206369,0.0590192226" id="Oval" stroke="#231F20" stroke-width="2.41499984"></path>
            <path d="M35.7250645,39.5574465 C25.7258894,45.3304729 12.9400147,41.9045388 7.16701418,31.9054085 C1.39401361,21.9062782 4.82000499,9.12041895 14.8191801,3.34739251" id="Oval" stroke="#231F20" stroke-width="2.41499984"></path>
            <path d="M106.732756,0.0545896226 C118.548052,6.87615412 122.596294,21.9842763 115.774757,33.799525 C108.95322,45.6147737 93.8450813,49.6629546 82.029785,42.8413901" id="Oval" stroke="#231F20" stroke-width="2.41499984"></path>
            <path d="M104.834213,3.34296291 C114.833388,9.11598935 118.259379,21.9018486 112.486379,31.9009789 C106.713378,41.9001092 93.9275033,45.3260433 83.9283282,39.5530169" id="Oval" stroke="#231F20" stroke-width="2.41499984"></path>
        </g>
    </g>
</svg>
