<?xml version="1.0" encoding="utf-8" ?>	<!-- Generator: Assembly 1.8 - http://assemblyapp.co -->	<svg version="1.1" xmlns="http://www.w3.org/2000/svg" xmlns:xlink="http://www.w3.org/1999/xlink" width="2048.00" height="2048.00" viewBox="0 0 2048.0 2048.0">	<g id="document" transform="matrix(1,0,0,1,1024.0,1024.0)">			<g>				<path d="M-670.133,-20.3452 C-670.133,-119.217 -653.654,-210.155 -620.697,-293.159 C-587.74,-376.163 -541.966,-447.876 -483.375,-508.297 C-424.784,-568.719 -354.292,-616.019 -271.898,-650.197 C-189.505,-684.375 -98.8721,-701.464 0,-701.464 C98.8721,-701.464 189.505,-684.375 271.898,-650.197 C354.292,-616.019 424.784,-568.719 483.375,-508.297 C541.966,-447.876 587.74,-376.163 620.697,-293.159 C653.654,-210.155 670.133,-119.217 670.133,-20.3452 C670.133,78.5269 653.654,169.77 620.697,253.384 C587.74,336.998 541.966,409.016 483.375,469.438 C424.784,529.86 354.292,576.855 271.898,610.422 C189.505,643.99 98.8721,660.774 0,660.774 C-98.8721,660.774 -189.505,643.99 -271.898,610.422 C-354.292,576.855 -424.784,529.86 -483.375,469.438 C-541.966,409.016 -587.74,336.998 -620.697,253.384 C-653.654,169.77 -670.133,78.5269 -670.133,-20.3452 Z M-549.289,-20.3452 C-549.289,60.2173 -536.473,135.287 -510.839,204.863 C-485.206,274.44 -448.586,334.862 -400.981,386.129 C-353.376,437.396 -295.701,477.677 -227.955,506.973 C-160.209,536.268 -84.2244,550.916 0,550.916 C84.2244,550.916 160.209,536.268 227.955,506.973 C295.701,477.677 353.376,437.396 400.981,386.129 C448.586,334.862 485.206,274.44 510.839,204.863 C536.473,135.287 549.289,60.2173 549.289,-20.3452 C549.289,-100.908 536.473,-175.977 510.839,-245.554 C485.206,-315.131 448.586,-375.552 400.981,-426.819 C353.376,-478.086 295.701,-518.368 227.955,-547.663 C160.209,-576.959 84.2244,-591.606 0,-591.606 C-84.2244,-591.606 -160.209,-576.959 -227.955,-547.663 C-295.701,-518.368 -353.376,-478.086 -400.981,-426.819 C-448.586,-375.552 -485.206,-315.131 -510.839,-245.554 C-536.473,-175.977 -549.289,-100.908 -549.289,-20.3452 Z " fill="#ffffff" fill-opacity="1.00" />				<path d="M0,-527.568 L58.6186,-586.186 C220.406,-424.399 220.406,-161.787 58.6186,-9.09495e-13 L0,-58.6186 C129.547,-188.166 129.547,-398.021 0,-527.568 Z " fill="#ffffff" fill-opacity="1.00" />				<path d="M0.243308,-518.038 C-66.1798,-518.038 -119.951,-571.809 -119.951,-638.232 C-119.951,-704.655 -66.1798,-758.426 0.243308,-758.426 C66.6664,-758.426 120.438,-704.655 120.438,-638.232 C120.438,-571.809 66.6664,-518.038 0.243308,-518.038 Z " fill="#ffffff" fill-opacity="1.00" />				<path d="M-3.05473,-53.9853 C9.29575,-73.3804 34.9946,-79.0832 54.3897,-66.7327 C73.7848,-54.3823 79.4876,-28.6834 67.1371,-9.28832 C54.7867,10.1068 29.0878,15.8096 9.69272,3.45913 C-9.7024,-8.89135 -15.4052,-34.5902 -3.05473,-53.9853 Z " fill="#ffffff" fill-opacity="1.00" />				<path d="M-104.089,663.852 C-70.6511,721.768 2.18429,741.284 60.0997,707.847 C118.015,674.409 137.531,601.574 104.094,543.658 C78.338,499.048 28.0219,476.965 -20.4781,485.14 L-288.43,21.0337 C-299.726,1.46771 -325.651,-5.47872 -345.217,5.81773 C-364.783,17.1142 -371.729,43.0386 -360.433,62.6046 L-92.4811,526.711 C-124.262,563.843 -129.844,619.242 -104.089,663.852 Z " fill="#ffffff" fill-opacity="1.00" />			</g>		</g>	</svg>