<?xml version="1.0" encoding="UTF-8"?>
<svg width="2560px" height="3062px" viewBox="0 0 2560 3062" version="1.1" xmlns="http://www.w3.org/2000/svg" xmlns:xlink="http://www.w3.org/1999/xlink">
    <!-- Generator: Sketch 49 (51002) - http://www.bohemiancoding.com/sketch -->
    <title>texture</title>
    <desc>Created with Sketch.</desc>
    <defs></defs>
    <g id="Page-1" stroke="none" stroke-width="1" fill="none" fill-rule="evenodd" opacity="0.100000001">
        <g id="bZx-website_2560" transform="translate(0.000000, -13935.000000)" fill="#BED1F4" fill-rule="nonzero">
            <g id="bg" transform="translate(-52.806509, 285.802485)">
                <g id="texture" transform="translate(1.764185, 13649.486499)">
                    <path d="M0,541.019682 C0,404.174868 143.061225,268.270326 388.396656,165.638146 C638.693513,60.9304316 972.650627,0 1324.06734,0 C1675.48405,0 2009.44117,60.9304316 2259.73803,165.638146 C2505.07346,268.270326 2648.13468,404.174868 2644.47956,541.019682 C2644.47956,406.060519 2502.44786,271.133996 2258.32742,169.010087 C2008.49921,64.4984272 1675.01954,3.65510485 1324.06734,3.65510485 C973.11514,3.65510485 639.635468,64.4984272 389.807266,169.010087 C145.686825,271.133996 3.65512033,406.060519 0,541.019682 Z" id="Fill-1818"></path>
                    <path d="M3.65512033,1071.00989 C3.65512033,934.165071 146.716346,798.26053 392.051776,695.62835 C642.348633,590.920635 976.305747,529.990204 1327.72246,529.990204 C1679.13918,529.990204 2013.09629,590.920635 2263.39315,695.62835 C2508.72858,798.26053 2651.7898,934.165071 2648.13468,1071.00989 C2648.13468,936.050722 2506.10298,801.1242 2261.98254,699.000291 C2012.15433,594.488631 1678.67466,533.645309 1327.72246,533.645309 C976.77026,533.645309 643.290588,594.488631 393.462386,699.000291 C149.341945,801.1242 7.31024067,936.050722 3.65512033,1071.00989 Z" id="Fill-1818"></path>
                    <path d="M3.65512033,1599.17254 C3.65512033,1462.32772 146.716346,1326.42318 392.051776,1223.791 C642.348633,1119.08329 976.305747,1058.15286 1327.72246,1058.15286 C1679.13918,1058.15286 2013.09629,1119.08329 2263.39315,1223.791 C2508.72858,1326.42318 2651.7898,1462.32772 2648.13468,1599.17254 C2648.13468,1464.21337 2506.10298,1329.28685 2261.98254,1227.16294 C2012.15433,1122.65128 1678.67466,1061.80796 1327.72246,1061.80796 C976.77026,1061.80796 643.290588,1122.65128 393.462386,1227.16294 C149.341945,1329.28685 7.31024067,1464.21337 3.65512033,1599.17254 Z" id="Fill-1818"></path>
                    <path d="M3.65512033,2129.16274 C3.65512033,1992.31793 146.716346,1856.41339 392.051776,1753.7812 C642.348633,1649.07349 976.305747,1588.14306 1327.72246,1588.14306 C1679.13918,1588.14306 2013.09629,1649.07349 2263.39315,1753.7812 C2508.72858,1856.41339 2651.7898,1992.31793 2648.13468,2129.16274 C2648.13468,1994.20358 2506.10298,1859.27705 2261.98254,1757.15315 C2012.15433,1652.64149 1678.67466,1591.79816 1327.72246,1591.79816 C976.77026,1591.79816 643.290588,1652.64149 393.462386,1757.15315 C149.341945,1859.27705 7.31024067,1994.20358 3.65512033,2129.16274 Z" id="Fill-1818"></path>
                    <path d="M7.31024067,2657.32539 C7.31024067,2520.48058 150.371466,2384.57604 395.706897,2281.94386 C646.003753,2177.23614 979.960868,2116.30571 1331.37758,2116.30571 C1682.7943,2116.30571 2016.75141,2177.23614 2267.04827,2281.94386 C2512.3837,2384.57604 2655.44492,2520.48058 2651.7898,2657.32539 C2651.7898,2522.36623 2509.7581,2387.43971 2265.63766,2285.3158 C2015.80945,2180.80414 1682.32978,2119.96082 1331.37758,2119.96082 C980.425381,2119.96082 646.945708,2180.80414 397.117507,2285.3158 C152.997066,2387.43971 10.965361,2522.36623 7.31024067,2657.32539 Z" id="Fill-1818"></path>
                    <path d="M7.31024067,3187.3156 C7.31024067,3050.47078 150.371466,2914.56624 395.706897,2811.93406 C646.003753,2707.22635 979.960868,2646.29591 1331.37758,2646.29591 C1682.7943,2646.29591 2016.75141,2707.22635 2267.04827,2811.93406 C2512.3837,2914.56624 2655.44492,3050.47078 2651.7898,3187.3156 C2651.7898,3052.35643 2509.7581,2917.42991 2265.63766,2815.306 C2015.80945,2710.79434 1682.32978,2649.95102 1331.37758,2649.95102 C980.425381,2649.95102 646.945708,2710.79434 397.117507,2815.306 C152.997066,2917.42991 10.965361,3052.35643 7.31024067,3187.3156 Z" id="Fill-1818"></path>
                </g>
            </g>
        </g>
    </g>
</svg>