<svg width="1839px" height="1386px" viewBox="0 0 1839 1386" version="1.1" xmlns="http://www.w3.org/2000/svg" xmlns:xlink="http://www.w3.org/1999/xlink">
    <defs>
        <rect id="positions_nosmoke_path-1" x="205.32885" y="0" width="161.013271" height="375.145339"></rect>
        <rect id="positions_nosmoke_path-2" x="240.781314" y="44.3186621" width="90.9744982" height="285.487962"></rect>
        <rect id="positions_nosmoke_path-3" x="324.980914" y="44.3186621" width="7.38592987" height="285.487962"></rect>
        <path d="M80.7331543,0 L80.7448664,0 C84.0049414,-5.99501867e-16 86.6477542,2.64561879 86.6477542,5.90915495 C86.6477542,9.17269111 84.0049414,11.8183099 80.7448664,11.8183099 L80.7331543,11.8183099 C77.4730794,11.8183099 74.8302665,9.17269111 74.8302665,5.90915495 C74.8302665,2.64561879 77.4730794,5.99501867e-16 80.7331543,0 Z" id="positions_nosmoke_path-4"></path>
        <path d="M43.2781769,8.1255408e-16 L43.289889,0 C46.5499639,-5.99501867e-16 49.1927768,2.64561879 49.1927768,5.90915495 C49.1927768,9.17269111 46.5499639,11.8183099 43.289889,11.8183099 L43.2781769,11.8183099 C40.0181019,11.8183099 37.375289,9.17269111 37.375289,5.90915495 C37.375289,2.64561879 40.0181019,1.41205595e-15 43.2781769,8.1255408e-16 Z" id="positions_nosmoke_path-5"></path>
        <path d="M7.01704774,1.62510816e-15 L7.02875991,8.1255408e-16 C10.2888348,2.13052213e-16 12.9316477,2.64561879 12.9316477,5.90915495 C12.9316477,9.17269111 10.2888348,11.8183099 7.02875991,11.8183099 L7.01704774,11.8183099 C3.75697282,11.8183099 1.11415993,9.17269111 1.11415993,5.90915495 C1.11415993,2.64561879 3.75697282,5.99501867e-16 7.01704774,1.62510816e-15 Z" id="positions_nosmoke_path-6"></path>
        <rect id="positions_nosmoke_path-7" x="76.3074524" y="0" width="11.8174878" height="11.8183099" rx="5.90874389"></rect>
        <rect id="positions_nosmoke_path-8" x="37.375289" y="0" width="11.8174878" height="11.8183099" rx="5.90874389"></rect>
        <path d="M7.01704774,1.62510816e-15 L7.02875991,8.1255408e-16 C10.2888348,2.13052213e-16 12.9316477,2.64561879 12.9316477,5.90915495 C12.9316477,9.17269111 10.2888348,11.8183099 7.02875991,11.8183099 L7.01704774,11.8183099 C3.75697282,11.8183099 1.11415993,9.17269111 1.11415993,5.90915495 C1.11415993,2.64561879 3.75697282,5.99501867e-16 7.01704774,1.62510816e-15 Z" id="positions_nosmoke_path-9"></path>
        <rect id="positions_nosmoke_path-10" x="0" y="0" width="202.374478" height="375.145339"></rect>
        <path d="M64.9968749,130.001409 C100.891725,130.001409 129.992366,100.900128 129.992366,65.0000124 C129.992366,29.1012811 100.891725,0 64.9968749,0 C29.0992567,0 0,29.1012811 0,65.0000124 C0,100.900128 29.0992567,130.001409 64.9968749,130.001409 Z" id="positions_nosmoke_path-11"></path>
        <path d="M68.5414319,0.146029447 C35.1050381,2.40446767 8.67594335,30.5772443 8.67594335,65.0000124 C8.67594335,99.4241076 35.1050381,127.596939 68.5414319,129.855379 C67.1078572,129.952216 65.661409,130.001409 64.2036159,130.001409 C28.7441128,130.001409 0,100.900128 0,65.0000124 C0,29.1012811 28.7441128,0 64.2036159,0 C65.661409,0 67.1078572,0.0491932556 68.5414292,0.146029631 Z" id="positions_nosmoke_path-12"></path>
        <rect id="positions_nosmoke_path-13" x="197.945048" y="0.0860006354" width="169.878213" height="375.145339"></rect>
        <rect id="positions_nosmoke_path-14" x="245.215508" y="50.2278171" width="90.9754762" height="285.487962"></rect>
        <rect id="positions_nosmoke_path-15" x="327.938811" y="50.2278171" width="7.38600927" height="285.487962"></rect>
        <rect id="positions_nosmoke_path-16" x="74.8310709" y="0" width="11.8176148" height="11.8183099" rx="5.90880741"></rect>
        <rect id="positions_nosmoke_path-17" x="37.3756908" y="0" width="11.8176148" height="11.8183099" rx="5.90880741"></rect>
        <rect id="positions_nosmoke_path-18" x="1.11417191" y="0" width="11.8176148" height="11.8183099" rx="5.90880741"></rect>
        <rect id="positions_nosmoke_path-19" x="74.8310709" y="-9.09494702e-13" width="11.8176148" height="11.8183099" rx="5.90880741"></rect>
        <rect id="positions_nosmoke_path-20" x="37.3756908" y="-9.09494702e-13" width="11.8176148" height="11.8183099" rx="5.90880741"></rect>
        <rect id="positions_nosmoke_path-21" x="1.11417191" y="-9.09494702e-13" width="11.8176148" height="11.8183099" rx="5.90880741"></rect>
        <rect id="positions_nosmoke_path-22" x="0" y="0" width="199.989193" height="375.145339"></rect>
        <path d="M64.9975736,130.001409 C100.89281,130.001409 129.993763,100.900128 129.993763,65.0000124 C129.993763,29.1012811 100.89281,0 64.9975736,0 C29.0995695,0 0,29.1012811 0,65.0000124 C0,100.900128 29.0995695,130.001409 64.9975736,130.001409 Z" id="positions_nosmoke_path-23"></path>
        <path d="M68.5421687,0.146029447 C35.1054155,2.40446767 8.67603661,30.5772443 8.67603661,65.0000124 C8.67603661,99.4241076 35.1054155,127.596939 68.5421687,129.855379 C67.1085786,129.952216 65.6621149,130.001409 64.2043061,130.001409 C28.7444218,130.001409 0,100.900128 0,65.0000124 C0,29.1012811 28.7444218,0 64.2043061,0 C65.6621149,0 67.1085786,0.0491932556 68.542166,0.146029631 Z" id="positions_nosmoke_path-24"></path>
        <polygon id="positions_nosmoke_path-25" points="0.60374996 333.982392 0.60374996 0.107103057 320.016912 0.107103057 320.016912 333.982392"></polygon>
        <polygon id="positions_nosmoke_path-26" points="66.3652834 122.86687 66.3652834 32.1653861 255.82113 32.1653861 255.82113 122.86687"></polygon>
        <polygon id="positions_nosmoke_path-27" points="66.3652834 39.8980011 66.3652834 32.5112999 255.82113 32.5112999 255.82113 39.8980011"></polygon>
        <polygon id="positions_nosmoke_path-28" points="0.60374996 378.551225 0.60374996 167.435702 320.016912 167.435702 320.016912 378.551225"></polygon>
        <polygon id="positions_nosmoke_path-29" points="10.2637493 366.476226 10.2637493 176.472255 310.105027 176.472255 310.105027 366.476226"></polygon>
        <polygon id="positions_nosmoke_path-30" points="10.7811301 366.822585 10.7811301 359.435884 310.622407 359.435884 310.622407 366.822585"></polygon>
        <rect id="positions_nosmoke_path-31" x="83.8645179" y="5.30196646" width="153.166488" height="319.023378"></rect>
        <rect id="positions_nosmoke_path-32" x="115.108887" y="73.7908818" width="90.6495542" height="189.224651"></rect>
        <rect id="positions_nosmoke_path-33" x="156.457977" y="114.962824" width="7.38247204" height="189.224651"></rect>
        <rect id="positions_nosmoke_path-34" x="115.122985" y="-113.505721" width="90.6495542" height="319.023378"></rect>
        <ellipse id="positions_nosmoke_path-35" cx="3.69123602" cy="3.68666383" rx="3.69123602" ry="3.68666383"></ellipse>
        <ellipse id="positions_nosmoke_path-36" cx="70.89694" cy="3.68666383" rx="3.69123602" ry="3.68666383"></ellipse>
        <ellipse id="positions_nosmoke_path-37" cx="71.6099788" cy="297.145105" rx="3.69123602" ry="3.68666383"></ellipse>
        <ellipse id="positions_nosmoke_path-38" cx="3.69123602" cy="297.6886" rx="3.69123602" ry="3.68666383"></ellipse>
        <rect id="positions_nosmoke_path-39" x="0" y="36.9104495" width="363.375875" height="212.604189"></rect>
        <rect id="positions_nosmoke_path-40" x="0" y="0" width="363.375875" height="36.9104495"></rect>
        <ellipse id="positions_nosmoke_path-41" cx="21.4184967" cy="15.5023888" rx="3.69284426" ry="3.69104495"></ellipse>
        <ellipse id="positions_nosmoke_path-42" cx="339.003103" cy="15.5023888" rx="3.69284426" ry="3.69104495"></ellipse>
        <ellipse id="positions_nosmoke_path-43" cx="59.0855082" cy="59.0567192" rx="59.0855082" ry="59.0567192"></ellipse>
        <polygon id="positions_nosmoke_path-44" points="20.6720687 19.1940747 530.090905 19.1940747 530.090905 299.722859 20.6720687 299.722859"></polygon>
        <rect id="positions_nosmoke_path-45" x="20.6720687" y="19.1940747" width="7.38288168" height="280.528784"></rect>
        <polygon id="positions_nosmoke_path-46" points="565.528737 16.2411402 633.39163 16.2411402 633.39163 302.675794 565.528737 302.675794"></polygon>
        <rect id="positions_nosmoke_path-47" x="593.583687" y="31.005813" width="11.8126107" height="11.8117383" rx="5.90586915"></rect>
        <rect id="positions_nosmoke_path-48" x="593.583687" y="63.4880933" width="11.8126107" height="11.8117383" rx="5.90586915"></rect>
        <polygon id="positions_nosmoke_path-49" points="627.705663 16.0832493 635.088544 16.0832493 635.088544 302.517903 627.705663 302.517903"></polygon>
    </defs>
    <g id="Page-1" stroke="none" stroke-width="1" fill="none" fill-rule="evenodd">
        <g id="bZx-website_2560" transform="translate(-360.000000, -14339.000000)">
            <g id="how_box_works" transform="translate(-670.000000, 12091.529204)">
                <g id="short_position" transform="translate(502.319967, 2139.689858)">
                    <g id="illustration-short" transform="translate(530.092465, 109.882493)">
                        <g id="trader" transform="translate(1649.444891, 1193.613671) scale(-1, 1) translate(-1649.444891, -1193.613671) translate(1465.904903, 1005.847433)">
                            <g id="Rectangle-9-Copy-3">
                                <use fill="#336ADF" fill-rule="evenodd" xlink:href="#positions_nosmoke_path-1"></use>
                                <rect stroke="#231F20" stroke-width="2.41499984" x="204.12135" y="-1.20749992" width="163.428271" height="377.560338"></rect>
                            </g>
                            <g id="Rectangle-9-Copy-3">
                                <use fill="#231F20" fill-rule="evenodd" xlink:href="#positions_nosmoke_path-2"></use>
                                <rect stroke="#231F20" stroke-width="2.41499984" x="239.573814" y="43.1111622" width="93.3894981" height="287.902962"></rect>
                            </g>
                            <g id="Rectangle-9-Copy-3">
                                <use fill="#407BF7" fill-rule="evenodd" xlink:href="#positions_nosmoke_path-3"></use>
                                <rect stroke="#231F20" stroke-width="2.41499984" x="323.773414" y="43.1111622" width="9.80092971" height="287.902962"></rect>
                            </g>
                            <g id="Group-72" transform="translate(285.942475, 22.030986) rotate(-180.000000) translate(-285.942475, -22.030986) translate(242.472478, 15.993487)" fill-rule="nonzero">
                                <g id="Rectangle-path">
                                    <use fill="#4FE2DF" fill-rule="evenodd" xlink:href="#positions_nosmoke_path-4"></use>
                                    <path stroke="#231F20" stroke-width="2.41499984" d="M80.7331543,-1.20749992 L80.7448664,-1.20749992 C84.6721121,-1.20749992 87.8552542,1.97902166 87.8552542,5.90915495 C87.8552542,9.83928823 84.6721121,13.0258098 80.7448664,13.0258098 L80.7331543,13.0258098 C76.8059086,13.0258098 73.6227665,9.83928823 73.6227665,5.90915495 C73.6227665,1.97902166 76.8059086,-1.20749992 80.7331543,-1.20749992 Z"></path>
                                </g>
                                <g id="Rectangle-path">
                                    <use fill="#4FE2DF" fill-rule="evenodd" xlink:href="#positions_nosmoke_path-5"></use>
                                    <path stroke="#231F20" stroke-width="2.41499984" d="M43.2781769,-1.20749992 L43.289889,-1.20749992 C47.2171347,-1.20749992 50.4002768,1.97902166 50.4002768,5.90915495 C50.4002768,9.83928823 47.2171347,13.0258098 43.289889,13.0258098 L43.2781769,13.0258098 C39.3509311,13.0258098 36.1677891,9.83928823 36.1677891,5.90915495 C36.1677891,1.97902166 39.3509311,-1.20749992 43.2781769,-1.20749992 Z"></path>
                                </g>
                                <g id="Rectangle-path">
                                    <use fill="#4FE2DF" fill-rule="evenodd" xlink:href="#positions_nosmoke_path-6"></use>
                                    <path stroke="#231F20" stroke-width="2.41499984" d="M7.01704774,-1.20749992 L7.02875991,-1.20749992 C10.9560056,-1.20749992 14.1391476,1.97902166 14.1391476,5.90915495 C14.1391476,9.83928823 10.9560056,13.0258098 7.02875991,13.0258098 L7.01704774,13.0258098 C3.08980203,13.0258098 -0.09333999,9.83928823 -0.09333999,5.90915495 C-0.09333999,1.97902166 3.08980203,-1.20749992 7.01704774,-1.20749992 Z"></path>
                                </g>
                            </g>
                            <g id="Group-72-Copy-2" transform="translate(286.815911, 352.943663) rotate(-180.000000) translate(-286.815911, -352.943663) translate(242.742164, 346.906164)" fill-rule="nonzero">
                                <g id="Rectangle-path" transform="translate(82.216196, 5.909155) rotate(90.000000) translate(-82.216196, -5.909155) ">
                                    <use fill="#4FE2DF" fill-rule="evenodd" xlink:href="#positions_nosmoke_path-7"></use>
                                    <rect stroke="#231F20" stroke-width="2.41499984" x="75.0999525" y="-1.20749992" width="14.2324876" height="14.2333097" rx="7.11624381"></rect>
                                </g>
                                <g id="Rectangle-path" transform="translate(43.284033, 5.909155) rotate(90.000000) translate(-43.284033, -5.909155) ">
                                    <use fill="#4FE2DF" fill-rule="evenodd" xlink:href="#positions_nosmoke_path-8"></use>
                                    <rect stroke="#231F20" stroke-width="2.41499984" x="36.1677891" y="-1.20749992" width="14.2324876" height="14.2333097" rx="7.11624381"></rect>
                                </g>
                                <g id="Rectangle-path">
                                    <use fill="#4FE2DF" fill-rule="evenodd" xlink:href="#positions_nosmoke_path-9"></use>
                                    <path stroke="#231F20" stroke-width="2.41499984" d="M7.01704774,-1.20749992 L7.02875991,-1.20749992 C10.9560056,-1.20749992 14.1391476,1.97902166 14.1391476,5.90915495 C14.1391476,9.83928823 10.9560056,13.0258098 7.02875991,13.0258098 L7.01704774,13.0258098 C3.08980203,13.0258098 -0.09333999,9.83928823 -0.09333999,5.90915495 C-0.09333999,1.97902166 3.08980203,-1.20749992 7.01704774,-1.20749992 Z"></path>
                                </g>
                            </g>
                            <g id="Rectangle-9-Copy-4">
                                <use fill="#407BF7" fill-rule="evenodd" xlink:href="#positions_nosmoke_path-10"></use>
                                <rect stroke="#231F20" stroke-width="2.41499984" x="-1.20749992" y="-1.20749992" width="204.789478" height="377.560338"></rect>
                            </g>
                            <path d="M193.112921,375.145339 L0.968506455,375.145339 L0.968506455,-9.09494702e-13 C7.37236304,34.8828248 18.1986139,39.4474594 30.2309722,57.1424626 C42.7371585,80.5855241 49.1122982,115.72194 51.2517032,158.832377 C52.5312933,185.465396 61.1066655,208.61225 73.622126,219.215167 C93.0059968,235.275918 101.017997,203.351653 116.783545,242.432815 C120.551849,248.430888 123.634033,255.919424 125.829351,264.410685 C135.707946,299.603454 152.449867,324.56806 172.006039,336.458652 C181.382089,342.150356 186.967516,359.507239 193.112921,375.145339 Z" id="Shape" fill="#336ADF" fill-rule="nonzero"></path>
                            <g id="Group-129" transform="translate(13.294674, 14.772887)" fill-rule="nonzero" stroke="#231F20" stroke-width="2.41499984">
                                <ellipse id="Oval" cx="166.183422" cy="3.69322184" rx="4.90046485" ry="4.90072176"></ellipse>
                                <ellipse id="Oval" cx="3.69296493" cy="3.69322184" rx="4.90046485" ry="4.90072176"></ellipse>
                                <ellipse id="Oval" cx="3.69296493" cy="341.992343" rx="4.90046485" ry="4.90072176"></ellipse>
                                <ellipse id="Oval" cx="166.183422" cy="341.992343" rx="4.90046485" ry="4.90072176"></ellipse>
                            </g>
                            <g id="eye" transform="translate(35.452463, 122.614965)">
                                <g id="Group-47">
                                    <g id="Fill-4451">
                                        <use fill="#231F20" fill-rule="evenodd" xlink:href="#positions_nosmoke_path-11"></use>
                                        <path stroke="#231F20" stroke-width="1.93199987" d="M64.9968749,130.967409 C28.5657346,130.967409 -0.965999936,101.43362 -0.965999936,65.0000124 C-0.965999936,28.5675719 28.5659518,-0.965999936 64.9968749,-0.965999936 C101.425722,-0.965999936 130.958366,28.5682639 130.958366,65.0000124 C130.958366,101.432928 101.425939,130.967409 64.9968749,130.967409 Z"></path>
                                    </g>
                                    <g id="Combined-Shape">
                                        <use fill="#336ADF" fill-rule="evenodd" xlink:href="#positions_nosmoke_path-12"></use>
                                        <path stroke="#231F20" stroke-width="1.93199987" d="M68.6065314,1.10983334 C35.5214017,3.34454567 9.64194328,31.2429614 9.64194328,65.0000124 C9.64194328,98.7582008 35.5212166,126.656848 68.6065314,128.891575 L68.6065357,130.819183 C67.1457528,130.917857 65.6775832,130.967409 64.2036159,130.967409 C28.2079172,130.967409 -0.965999936,101.430983 -0.965999936,65.0000124 C-0.965999936,28.570209 28.2081318,-0.965999936 64.2036159,-0.965999936 C65.6775839,-0.965999936 67.1457536,-0.916448178 68.6065359,-0.817774137 L68.6065314,1.10983334 Z"></path>
                                    </g>
                                </g>
                                <g id="Group-9" transform="translate(28.361971, 46.091409)">
                                    <path d="M0.808928233,19.2327773 C0.808928233,19.2327773 11.5630103,1.14526375 35.702433,1.14526375 C57.8884303,1.14526375 71.6853124,19.2327773 71.6853124,19.2327773 C71.6853124,19.2327773 61.8818725,36.6145183 36.2471203,36.6145183 C13.7128957,36.6145183 0.808928233,19.2327773 0.808928233,19.2327773" id="Fill-4499" fill="#FFFFFF"></path>
                                    <path d="M62.1835455,15.0871437 C62.1835455,19.9819269 58.2152426,23.9511985 53.3195748,23.9511985 C48.4257691,23.9511985 44.4574663,19.9819269 44.4574663,15.0871437 C44.4574663,10.1923605 48.4257691,6.22402001 53.3195748,6.22402001 C58.2152426,6.22402001 62.1835455,10.1923605 62.1835455,15.0871437" id="Fill-4500" fill="#FFFFFF"></path>
                                    <path d="M57.9055377,25.4087576 C57.9055377,30.3035408 53.9372348,34.2728124 49.041567,34.2728124 C44.1477613,34.2728124 40.1794585,30.3035408 40.1794585,25.4087576 C40.1794585,20.5139744 44.1477613,16.5456339 49.041567,16.5456339 C53.9372348,16.5456339 57.9055377,20.5139744 57.9055377,25.4087576 Z" id="Stroke-4501" stroke="#231F20" stroke-width="2.55417165"></path>
                                    <path d="M55.077281,25.1755867 C55.077281,28.6374098 52.2709777,31.4428086 48.8101185,31.4428086 C45.3492594,31.4428086 42.542956,28.6374098 42.542956,25.1755867 C42.542956,21.7146947 45.3492594,18.9092958 48.8101185,18.9092958 C52.2709777,18.9092958 55.077281,21.7146947 55.077281,25.1755867" id="Fill-4502" fill="#231F20"></path>
                                </g>
                            </g>
                        </g>
                        <g id="trader" transform="translate(0.000000, 1005.847433)">
                            <g id="Rectangle-9-Copy-3">
                                <use fill="#336ADF" fill-rule="evenodd" xlink:href="#positions_nosmoke_path-13"></use>
                                <rect stroke="#231F20" stroke-width="2.41499984" x="196.737548" y="-1.12149928" width="172.293213" height="377.560338"></rect>
                            </g>
                            <g id="Rectangle-9-Copy-3">
                                <use fill="#231F20" fill-rule="evenodd" xlink:href="#positions_nosmoke_path-14"></use>
                                <rect stroke="#231F20" stroke-width="2.41499984" x="244.008008" y="49.0203171" width="93.390476" height="287.902962"></rect>
                            </g>
                            <g id="Rectangle-9-Copy-3">
                                <use fill="#407BF7" fill-rule="evenodd" xlink:href="#positions_nosmoke_path-15"></use>
                                <rect stroke="#231F20" stroke-width="2.41499984" x="326.731312" y="49.0203171" width="9.80100911" height="287.902962"></rect>
                            </g>
                            <g id="Group-72" transform="translate(288.423218, 352.943663) rotate(-180.000000) translate(-287.423218, -352.943663) translate(243.953221, 346.906164)" fill-rule="nonzero">
                                <g id="Rectangle-path" transform="translate(80.739878, 5.909155) rotate(90.000000) translate(-80.739878, -5.909155) ">
                                    <use fill="#4FE2DF" fill-rule="evenodd" xlink:href="#positions_nosmoke_path-16"></use>
                                    <rect stroke="#231F20" stroke-width="2.41499984" x="73.623571" y="-1.20749992" width="14.2326147" height="14.2333097" rx="7.11630733"></rect>
                                </g>
                                <g id="Rectangle-path" transform="translate(43.284498, 5.909155) rotate(90.000000) translate(-43.284498, -5.909155) ">
                                    <use fill="#4FE2DF" fill-rule="evenodd" xlink:href="#positions_nosmoke_path-17"></use>
                                    <rect stroke="#231F20" stroke-width="2.41499984" x="36.1681909" y="-1.20749992" width="14.2326147" height="14.2333097" rx="7.11630733"></rect>
                                </g>
                                <g id="Rectangle-path" transform="translate(7.022979, 5.909155) rotate(90.000000) translate(-7.022979, -5.909155) ">
                                    <use fill="#4FE2DF" fill-rule="evenodd" xlink:href="#positions_nosmoke_path-18"></use>
                                    <rect stroke="#231F20" stroke-width="2.41499984" x="-0.0933280129" y="-1.20749992" width="14.2326147" height="14.2333097" rx="7.11630733"></rect>
                                </g>
                            </g>
                            <g id="Group-72" transform="translate(291.499680, 25.242253) rotate(-360.000000) translate(-291.499680, -25.242253) translate(248.029683, 19.204754)" fill-rule="nonzero">
                                <g id="Rectangle-path" transform="translate(80.739878, 5.909155) rotate(90.000000) translate(-80.739878, -5.909155) ">
                                    <use fill="#4FE2DF" fill-rule="evenodd" xlink:href="#positions_nosmoke_path-19"></use>
                                    <rect stroke="#231F20" stroke-width="2.41499984" x="73.623571" y="-1.20749992" width="14.2326147" height="14.2333097" rx="7.11630733"></rect>
                                </g>
                                <g id="Rectangle-path" transform="translate(43.284498, 5.909155) rotate(90.000000) translate(-43.284498, -5.909155) ">
                                    <use fill="#4FE2DF" fill-rule="evenodd" xlink:href="#positions_nosmoke_path-20"></use>
                                    <rect stroke="#231F20" stroke-width="2.41499984" x="36.1681909" y="-1.20749992" width="14.2326147" height="14.2333097" rx="7.11630733"></rect>
                                </g>
                                <g id="Rectangle-path" transform="translate(7.022979, 5.909155) rotate(90.000000) translate(-7.022979, -5.909155) ">
                                    <use fill="#4FE2DF" fill-rule="evenodd" xlink:href="#positions_nosmoke_path-21"></use>
                                    <rect stroke="#231F20" stroke-width="2.41499984" x="-0.0933280129" y="-1.20749992" width="14.2326147" height="14.2333097" rx="7.11630733"></rect>
                                </g>
                            </g>
                            <g id="Rectangle-9-Copy-4">
                                <use fill="#407BF7" fill-rule="evenodd" xlink:href="#positions_nosmoke_path-22"></use>
                                <rect stroke="#231F20" stroke-width="2.41499984" x="-1.20749992" y="-1.20749992" width="202.404193" height="377.560338"></rect>
                            </g>
                            <path d="M198.055287,375.145339 L1.42108547e-14,375.145339 L1.42108547e-14,-9.09494702e-13 C6.40392542,34.8828248 17.2302926,39.4474594 29.2627803,57.1424626 C41.769101,80.5855241 53.4003383,112.215085 45.3857876,159.960873 C41.1077575,185.446757 59.261566,213.658272 72.6544006,219.215167 C108.158298,233.946285 122.666845,255.919424 124.862187,264.410685 C134.740888,299.603454 150.9409,328.748585 171.039371,336.458652 C192.14648,344.555646 191.909816,359.507239 198.055287,375.145339 Z" id="Shape" fill="#336ADF" fill-rule="nonzero"></path>
                            <g id="Group-129" transform="translate(14.772019, 14.772887)" fill-rule="nonzero" stroke="#231F20" stroke-width="2.41499984">
                                <ellipse id="Oval" cx="166.185208" cy="3.69322184" rx="4.90050455" ry="4.90072176"></ellipse>
                                <ellipse id="Oval" cx="3.69300463" cy="3.69322184" rx="4.90050455" ry="4.90072176"></ellipse>
                                <ellipse id="Oval" cx="3.69300463" cy="341.992343" rx="4.90050455" ry="4.90072176"></ellipse>
                                <ellipse id="Oval" cx="166.185208" cy="341.992343" rx="4.90050455" ry="4.90072176"></ellipse>
                            </g>
                            <g id="eye" transform="translate(33.975643, 131.478698)">
                                <g id="Group-47">
                                    <g id="Fill-4451">
                                        <use fill="#231F20" fill-rule="evenodd" xlink:href="#positions_nosmoke_path-23"></use>
                                        <path stroke="#231F20" stroke-width="1.93199987" d="M64.9975736,130.967409 C28.5660498,130.967409 -0.965999936,101.433622 -0.965999936,65.0000124 C-0.965999936,28.5675695 28.566267,-0.965999936 64.9975736,-0.965999936 C101.426804,-0.965999936 130.959763,28.5682616 130.959763,65.0000124 C130.959763,101.43293 101.427021,130.967409 64.9975736,130.967409 Z"></path>
                                    </g>
                                    <g id="Combined-Shape">
                                        <use fill="#336ADF" fill-rule="evenodd" xlink:href="#positions_nosmoke_path-24"></use>
                                        <path stroke="#231F20" stroke-width="1.93199987" d="M68.6072675,1.10983338 C35.5217749,3.34454621 9.64203655,31.2429637 9.64203655,65.0000124 C9.64203655,98.7581984 35.5215897,126.656848 68.6072676,128.891575 L68.6072718,130.819183 C67.1464736,130.917857 65.6782887,130.967409 64.2043061,130.967409 C28.2082285,130.967409 -0.965999936,101.430985 -0.965999936,65.0000124 C-0.965999936,28.5702067 28.2084432,-0.965999936 64.2043061,-0.965999936 C65.6782894,-0.965999936 67.1464744,-0.916448194 68.607272,-0.817774184 L68.6072675,1.10983338 Z"></path>
                                    </g>
                                </g>
                                <g id="Group-9" transform="translate(28.362276, 46.091409)">
                                    <path d="M0.808936929,19.2327773 C0.808936929,19.2327773 11.5631346,1.14526375 35.7028168,1.14526375 C57.8890526,1.14526375 71.686083,19.2327773 71.686083,19.2327773 C71.686083,19.2327773 61.8825377,36.6145183 36.24751,36.6145183 C13.7130431,36.6145183 0.808936929,19.2327773 0.808936929,19.2327773" id="Fill-4499" fill="#FFFFFF"></path>
                                    <path d="M62.1842139,15.0871437 C62.1842139,19.9819269 58.2158684,23.9511985 53.320148,23.9511985 C48.4262897,23.9511985 44.4579442,19.9819269 44.4579442,15.0871437 C44.4579442,10.1923605 48.4262897,6.22402001 53.320148,6.22402001 C58.2158684,6.22402001 62.1842139,10.1923605 62.1842139,15.0871437" id="Fill-4500" fill="#FFFFFF"></path>
                                    <path d="M57.9061602,25.4087576 C57.9061602,30.3035408 53.9378147,34.2728124 49.0420942,34.2728124 C44.1482359,34.2728124 40.1798904,30.3035408 40.1798904,25.4087576 C40.1798904,20.5139744 44.1482359,16.5456339 49.0420942,16.5456339 C53.9378147,16.5456339 57.9061602,20.5139744 57.9061602,25.4087576 Z" id="Stroke-4501" stroke="#231F20" stroke-width="2.55417165"></path>
                                    <path d="M55.0778731,25.1755867 C55.0778731,28.6374098 52.2715396,31.4428086 48.8106432,31.4428086 C45.3497469,31.4428086 42.5434134,28.6374098 42.5434134,25.1755867 C42.5434134,21.7146947 45.3497469,18.9092958 48.8106432,18.9092958 C52.2715396,18.9092958 55.0778731,21.7146947 55.0778731,25.1755867" id="Fill-4502" fill="#231F20"></path>
                                </g>
                            </g>
                        </g>
                        <g id="pipes" transform="translate(243.914984, 1258.214917)">
                            <g id="Group">
                                <polygon id="Shape" stroke="#231F20" stroke-width="2.41499984" fill-opacity="0.5" fill="#BBD0EF" fill-rule="nonzero" points="1.05852329 1.6570372 569.477289 1.14127531 569.524611 67.6579216 1.1373936 68.1736834"></polygon>
                                <path d="M438.432201,57.4142755 L4.43028466,57.802001" id="Path" stroke="#000D6D" stroke-width="7.24499952" opacity="0.300000012" stroke-linecap="square"></path>
                                <path d="M7.46267808,13.7260752 L441.496142,13.3383498" id="Path" stroke="#FFFFFF" stroke-width="7.24499952" opacity="0.200000003" stroke-linecap="round"></path>
                                <ellipse id="Oval" stroke="#000D6D" stroke-width="2.41499984" opacity="0.2" cx="170.56596" cy="34.8279132" rx="33.227135" ry="33.3458744"></ellipse>
                                <path d="M187.179527,51.5008504 C187.179527,33.0844325 172.303232,18.1549761 153.952392,18.1549761 C135.601552,18.1549761 120.725257,33.0844325 120.725257,51.5008504" id="Oval" stroke="#231F20" stroke-width="2.41499984" transform="translate(153.952392, 34.827913) rotate(-90.000000) translate(-153.952392, -34.827913) "></path>
                                <g transform="translate(199.249066, 34.304404) scale(-1, 1) translate(-199.249066, -34.304404) translate(166.646568, 5.928155)">
                                    <g fill="#FFCB76" fill-rule="nonzero" id="Oval" stroke="#000000" stroke-width="2.41499984">
                                        <ellipse cx="29.1099238" cy="28.1237586" rx="29.0449463" ry="27.8322602"></ellipse>
                                        <ellipse cx="35.5426971" cy="28.1237586" rx="29.0449463" ry="27.8322602"></ellipse>
                                        <ellipse cx="35.5426971" cy="28.1237586" rx="17.9337923" ry="17.1692514"></ellipse>
                                    </g>
                                    <g id="Group-2" transform="translate(22.543217, 14.749815)" fill="#000000">
                                        <polygon id="Fill-5" points="15.0464335 26.1069944 0.409549847 14.8631654 13.8700606 17.3983458 26.1659859 11.3065231"></polygon>
                                        <path d="M13.868823,18.9055684 L0.40831218,14.8483262 L11.5278646,0.0478549564 L26.1647482,11.2916839 L13.868823,18.9055684 Z M12.0478025,3.86939802 L4.60529933,13.7753144 L8.81336654,13.1942611 L12.6106462,8.23117169 L17.7646445,11.9582563 L22.3192584,11.3295268 L12.0478025,3.86939802 Z" id="Combined-Shape"></path>
                                    </g>
                                    <path d="M15.2498234,8.71579997 L8.6194654,8.71579997" id="Shape" stroke="#231F20" stroke-width="2.41499984" fill="#29CC86" fill-rule="nonzero"></path>
                                    <path d="M6.630358,28.1587384 L0,28.1587384" id="Shape" stroke="#231F20" stroke-width="2.41499984" fill="#29CC86" fill-rule="nonzero"></path>
                                    <path d="M12.5976802,45.5903383 L6.630358,45.5903383" id="Shape" stroke="#231F20" stroke-width="2.41499984" fill="#29CC86" fill-rule="nonzero"></path>
                                </g>
                            </g>
                            <g id="Group-Copy-2" transform="translate(732.952452, 34.413748) scale(-1, 1) translate(-732.952452, -34.413748) translate(514.394966, 0.000000)">
                                <polygon id="Shape" stroke="#231F20" stroke-width="2.41499984" fill-opacity="0.5" fill="#BBD0EF" fill-rule="nonzero" points="0 1.65962676 434.033464 1.14386487 434.080787 67.6605111 0.0788703102 68.176273"></polygon>
                                <path d="M437.03431,56.5041691 L3.03239342,56.8918945" id="Path" stroke="#000D6D" stroke-width="7.24499952" opacity="0.300000012" stroke-linecap="square"></path>
                                <path d="M0,12.8159688 L434.033464,12.4282433" id="Path" stroke="#FFFFFF" stroke-width="7.24499952" opacity="0.200000003" stroke-linecap="round"></path>
                                <ellipse id="Oval" stroke="#000D6D" stroke-width="2.41499984" opacity="0.2" cx="270.985745" cy="34.8279132" rx="33.227135" ry="33.3458744"></ellipse>
                                <path d="M320.826448,51.5008504 C320.826448,33.0844325 305.950153,18.1549761 287.599313,18.1549761 C269.248473,18.1549761 254.372178,33.0844325 254.372178,51.5008504" id="Oval" stroke="#231F20" stroke-width="2.41499984" transform="translate(287.599313, 34.827913) scale(-1, 1) rotate(-90.000000) translate(-287.599313, -34.827913) "></path>
                            </g>
                            <g id="Group-Copy-2" transform="translate(1131.427425, 34.413748) scale(-1, 1) translate(-1131.427425, -34.413748) translate(912.869940, 0.000000)">
                                <polygon id="Shape" stroke="#231F20" stroke-width="2.41499984" fill-opacity="0.5" fill="#BBD0EF" fill-rule="nonzero" points="0 1.65962676 434.033464 1.14386487 434.080787 67.6605111 0.0788703102 68.176273"></polygon>
                                <path d="M437.03431,56.5041691 L3.03239342,56.8918945" id="Path" stroke="#000D6D" stroke-width="7.24499952" opacity="0.300000012" stroke-linecap="square"></path>
                                <path d="M1.47581092,12.4282433 L434.033464,12.4282433" id="Path" stroke="#FFFFFF" stroke-width="7.24499952" opacity="0.200000003"></path>
                                <ellipse id="Oval" stroke="#000D6D" stroke-width="2.41499984" opacity="0.2" cx="182.200285" cy="34.0520903" rx="33.0473683" ry="32.5700515"></ellipse>
                                <path d="M199.36281,51.1303407 C199.36281,32.7139228 184.486515,17.7844663 166.135675,17.7844663 C147.784835,17.7844663 132.90854,32.7139228 132.90854,51.1303407" id="Oval" stroke="#231F20" stroke-width="2.41499984" transform="translate(166.135675, 34.457404) rotate(-90.000000) translate(-166.135675, -34.457404) "></path>
                                <g id="Group" transform="translate(214.016682, 35.786442) scale(-1, 1) translate(-214.016682, -35.786442) translate(181.414184, 7.410194)">
                                    <g>
                                        <ellipse id="Oval" stroke="#231F20" stroke-width="2.04067487" fill="#6D86B4" fill-rule="nonzero" cx="29.1099238" cy="28.1237586" rx="29.0449463" ry="27.8322602"></ellipse>
                                        <ellipse id="Oval" stroke="#231F20" stroke-width="2.04067487" fill="#6D86B4" fill-rule="nonzero" cx="35.5426971" cy="28.1237586" rx="29.0449463" ry="27.8322602"></ellipse>
                                        <ellipse id="Oval" stroke="#231F20" stroke-width="2.04067487" fill="#6D86B4" fill-rule="nonzero" cx="35.5426971" cy="28.1237586" rx="17.9337923" ry="17.1692514"></ellipse>
                                        <g transform="translate(27.847504, 15.420261)" fill="#231F20">
                                            <polygon id="Fill-15" points="0 12.3246126 7.62518097 0 15.2498234 12.3246126 7.62518097 16.7611538"></polygon>
                                            <polygon id="Fill-17" points="7.6249117 19.3301185 0 14.7498153 7.6249117 25.4769538 15.2498234 14.7498153"></polygon>
                                        </g>
                                    </g>
                                    <path d="M15.2498234,8.71579997 L8.6194654,8.71579997" id="Shape" stroke="#231F20" stroke-width="2.41499984" fill="#29CC86" fill-rule="nonzero"></path>
                                    <path d="M6.630358,28.1587384 L0,28.1587384" id="Shape" stroke="#231F20" stroke-width="2.41499984" fill="#29CC86" fill-rule="nonzero"></path>
                                    <path d="M12.5976802,45.5903383 L6.630358,45.5903383" id="Shape" stroke="#231F20" stroke-width="2.41499984" fill="#29CC86" fill-rule="nonzero"></path>
                                </g>
                            </g>
                        </g>
                        <g id="b" transform="translate(979.282435, 1002.224934)">
                            <g id="Rectangle-9-Copy-3">
                                <use fill="#E1E9F3" fill-rule="evenodd" xlink:href="#positions_nosmoke_path-25"></use>
                                <path stroke="#231F20" stroke-width="2.41499984" d="M-0.60374996,335.189892 L-0.60374996,-1.10039686 L321.224412,-1.10039686 L321.224412,335.189892 L-0.60374996,335.189892 Z"></path>
                            </g>
                            <g id="Rectangle-9-Copy-3">
                                <use fill="#231F20" fill-rule="evenodd" xlink:href="#positions_nosmoke_path-26"></use>
                                <path stroke="#231F20" stroke-width="2.41499984" d="M65.1577834,124.07437 L65.1577834,30.9578862 L257.02863,30.9578862 L257.02863,124.07437 L65.1577834,124.07437 Z"></path>
                            </g>
                            <g id="Rectangle-9-Copy-3">
                                <use fill="#E1E9F3" fill-rule="evenodd" xlink:href="#positions_nosmoke_path-27"></use>
                                <path stroke="#231F20" stroke-width="2.41499984" d="M65.1577834,41.105501 L65.1577834,31.3038 L257.02863,31.3038 L257.02863,41.105501 L65.1577834,41.105501 Z"></path>
                            </g>
                            <g id="Rectangle-9-Copy-4">
                                <use fill="#BED1F4" fill-rule="evenodd" xlink:href="#positions_nosmoke_path-28"></use>
                                <path stroke="#231F20" stroke-width="2.41499984" d="M-0.60374996,379.758725 L-0.60374996,166.228202 L321.224412,166.228202 L321.224412,379.758725 L-0.60374996,379.758725 Z"></path>
                            </g>
                            <g id="Rectangle-9-Copy-4">
                                <use fill="#BED1F4" fill-rule="evenodd" xlink:href="#positions_nosmoke_path-29"></use>
                                <path stroke="#231F20" stroke-width="2.41499984" d="M9.0562494,367.683726 L9.0562494,175.264756 L311.312527,175.264756 L311.312527,367.683726 L9.0562494,367.683726 Z"></path>
                            </g>
                            <g id="Rectangle-9-Copy-4">
                                <use fill="#E1E9F3" fill-rule="evenodd" xlink:href="#positions_nosmoke_path-30"></use>
                                <path stroke="#231F20" stroke-width="2.41499984" d="M9.57363021,368.030085 L9.57363021,358.228384 L311.829907,358.228384 L311.829907,368.030085 L9.57363021,368.030085 Z"></path>
                            </g>
                        </g>
                        <g id="Group-36" transform="translate(978.074935, 731.744952)">
                            <g id="Group-113" transform="translate(12.074999, 446.774970)" fill="#FFFFFF" fill-rule="nonzero">
                                <polygon id="Shape" points="48.3732332 69.1043261 70.4867112 69.1043261 70.4867112 0.197303865 48.3732332 0"></polygon>
                                <polygon id="Shape" points="105.283708 96.1146651 105.283708 130.136386 70.8891319 130.136386 70.8891319 101.954481 49.3283527 101.954481 49.3283527 151.926733 127.152499 152.029518 127.152499 74.6326722 0 74.6326722 0 96.1146651"></polygon>
                            </g>
                            <g id="Group-67" transform="translate(229.424985, 536.733714) rotate(-360.000000) translate(-229.424985, -536.733714) translate(188.369988, 461.264969)">
                                <rect id="Rectangle-path" stroke="#231F20" stroke-width="2.41499984" fill="#407BF7" fill-rule="nonzero" x="7.31497672" y="0" width="74.6127626" height="150.23043"></rect>
                                <rect id="Rectangle-path" stroke="#231F20" stroke-width="2.41499984" fill="#BED1F4" fill-rule="nonzero" x="0" y="0" width="7.31497672" height="150.23043"></rect>
                                <g id="Group-2" transform="translate(12.435460, 8.793976)" stroke="#FFFFFF" stroke-width="2.41499984">
                                    <path d="M0,0 L30.0784354,0" id="Shape"></path>
                                    <path d="M33.8382398,0 L39.4779465,0" id="Shape"></path>
                                    <path d="M45.1176531,0 L62.036773,0" id="Shape"></path>
                                    <path d="M62.036773,6.99008378 L37.5980442,6.99008378" id="Shape"></path>
                                    <path d="M31.9583376,6.99008378 L13.1593155,6.99008378" id="Shape"></path>
                                    <path d="M7.51960885,6.99008378 L0,6.99008378" id="Shape"></path>
                                    <path d="M6.98986665,15.7276885 L3.49493332,15.7276885" id="Shape"></path>
                                    <path d="M6.98986665,22.7177723 L3.49493332,22.7177723" id="Shape"></path>
                                    <path d="M6.98986665,29.7078561 L3.49493332,29.7078561" id="Shape"></path>
                                    <path d="M6.98986665,36.6979399 L3.49493332,36.6979399" id="Shape"></path>
                                    <path d="M6.98986665,43.6880236 L3.49493332,43.6880236" id="Shape"></path>
                                    <path d="M6.98986665,71.6483588 L3.49493332,71.6483588" id="Shape"></path>
                                    <path d="M6.98986665,78.6384426 L3.49493332,78.6384426" id="Shape"></path>
                                    <path d="M6.98986665,85.6285263 L3.49493332,85.6285263" id="Shape"></path>
                                    <path d="M6.98986665,92.6186101 L3.49493332,92.6186101" id="Shape"></path>
                                    <path d="M6.98986665,50.6781074 L3.49493332,50.6781074" id="Shape"></path>
                                    <path d="M7.09742813,57.6681912 L3.49493332,57.6681912" id="Shape"></path>
                                    <path d="M6.98986665,64.658275 L3.49493332,64.658275" id="Shape"></path>
                                    <path d="M6.98986665,99.6086939 L3.49493332,99.6086939" id="Shape"></path>
                                    <path d="M6.98986665,106.598778 L3.49493332,106.598778" id="Shape"></path>
                                    <path d="M6.98986665,113.588861 L3.49493332,113.588861" id="Shape"></path>
                                    <path d="M6.98986665,120.578945 L3.49493332,120.578945" id="Shape"></path>
                                    <path d="M6.98986665,127.569029 L3.49493332,127.569029" id="Shape"></path>
                                    <path d="M6.98986665,134.559113 L3.49493332,134.559113" id="Shape"></path>
                                    <g id="Group-78" transform="translate(13.979733, 15.727689)">
                                        <path d="M12.2322666,0 L0,0" id="Shape"></path>
                                        <path d="M22.7170666,6.99008378 L0,6.99008378" id="Shape"></path>
                                        <path d="M6.98986665,13.9801676 L0,13.9801676" id="Shape"></path>
                                        <path d="M29.7069332,13.9801676 L10.4848,13.9801676" id="Shape-Copy"></path>
                                        <path d="M12.2322666,20.9702514 L0,20.9702514" id="Shape"></path>
                                        <path d="M6.98986665,27.9603351 L0,27.9603351" id="Shape"></path>
                                        <path d="M17.4746666,27.9603351 L10.4848,27.9603351" id="Shape-Copy-6"></path>
                                        <path d="M36.6967999,27.9603351 L20.9695999,27.9603351" id="Shape-Copy-7"></path>
                                        <path d="M12.2322666,55.9206703 L0,55.9206703" id="Shape"></path>
                                        <path d="M8.73733331,62.9107541 L0,62.9107541" id="Shape"></path>
                                        <path d="M36.6967999,62.9107541 L12.2322666,62.9107541" id="Shape-Copy-2"></path>
                                        <path d="M48.9290665,62.9107541 L40.1917332,62.9107541" id="Shape-Copy-4"></path>
                                        <path d="M12.2322666,69.9008378 L0,69.9008378" id="Shape"></path>
                                        <path d="M8.73733331,76.8909216 L0,76.8909216" id="Shape"></path>
                                        <path d="M48.9290665,76.8909216 L12.2322666,76.8909216" id="Shape-Copy-8"></path>
                                        <path d="M12.2322666,34.9504189 L0,34.9504189" id="Shape"></path>
                                        <path d="M48.9290665,34.9504189 L15.7272,34.9504189" id="Shape-Copy-9"></path>
                                        <path d="M22.8158005,41.9405027 L0,41.9405027" id="Shape"></path>
                                        <path d="M17.4746666,48.9305865 L0,48.9305865" id="Shape"></path>
                                        <path d="M48.9290665,48.9305865 L20.9695999,48.9305865" id="Shape-Copy-5"></path>
                                        <path d="M27.9594666,83.8810054 L0,83.8810054" id="Shape"></path>
                                        <path d="M8.73733331,90.8710892 L0,90.8710892" id="Shape"></path>
                                        <path d="M20.9695999,90.8710892 L12.2322666,90.8710892" id="Shape-Copy-3"></path>
                                    </g>
                                </g>
                                <polygon id="Shape" fill="#FFFFFF" fill-rule="nonzero" opacity="0.2" points="36.5748836 147.299104 78.2702509 147.299104 78.2702509 103.329222"></polygon>
                                <polygon id="Shape" fill="#FFFFFF" fill-rule="nonzero" opacity="0.2" points="78.2702509 82.0771128 13.8984558 146.566273 25.8175862 146.566273 78.2702509 94.466497"></polygon>
                            </g>
                            <g id="Rectangle-9-Copy-3" transform="translate(160.447762, 164.813655) scale(-1, 1) rotate(-270.000000) translate(-160.447762, -164.813655) ">
                                <use fill="#0DA6A3" fill-rule="evenodd" xlink:href="#positions_nosmoke_path-31"></use>
                                <rect stroke="#231F20" stroke-width="2.41499984" x="82.6570179" y="4.09446654" width="155.581488" height="321.438378"></rect>
                            </g>
                            <g id="Rectangle-9-Copy-3" transform="translate(160.433664, 168.403207) scale(-1, 1) rotate(-270.000000) translate(-160.433664, -168.403207) ">
                                <use fill="#231F20" fill-rule="evenodd" xlink:href="#positions_nosmoke_path-32"></use>
                                <rect stroke="#231F20" stroke-width="2.41499984" x="113.901387" y="72.5833819" width="93.064554" height="191.639651"></rect>
                            </g>
                            <g id="Rectangle-9-Copy-3" transform="translate(160.149213, 209.575150) scale(-1, 1) rotate(-270.000000) translate(-160.149213, -209.575150) ">
                                <use fill="#4FE2DF" fill-rule="evenodd" xlink:href="#positions_nosmoke_path-33"></use>
                                <rect stroke="#231F20" stroke-width="2.41499984" x="155.250477" y="113.755324" width="9.79747188" height="191.639651"></rect>
                            </g>
                            <g id="Rectangle-9-Copy-4" transform="translate(160.447762, 46.005968) scale(-1, 1) rotate(-270.000000) translate(-160.447762, -46.005968) ">
                                <use fill="#4FE2DF" fill-rule="evenodd" xlink:href="#positions_nosmoke_path-34"></use>
                                <rect stroke="#231F20" stroke-width="2.41499984" x="113.915485" y="-114.713221" width="93.064554" height="321.438378"></rect>
                            </g>
                            <rect id="Rectangle-9-Copy-4" stroke="#231F20" stroke-width="2.41499984" fill="#4FE2DF" transform="translate(160.700830, 46.186793) scale(-1, 1) rotate(-270.000000) translate(-160.700830, -46.186793) " x="131.617491" y="-48.2999968" width="58.1666772" height="188.97358"></rect>
                            <g id="Group-123" transform="translate(159.691639, 44.362736) scale(-1, 1) rotate(-270.000000) translate(-159.691639, -44.362736) translate(121.655391, -106.574754)" fill-rule="nonzero">
                                <g id="Oval">
                                    <use fill="#4FE2DF" fill-rule="evenodd" xlink:href="#positions_nosmoke_path-35"></use>
                                    <ellipse stroke="#231F20" stroke-width="2.41499984" cx="3.69123602" cy="3.68666383" rx="4.89873594" ry="4.89416375"></ellipse>
                                </g>
                                <g id="Oval">
                                    <use fill="#4FE2DF" fill-rule="evenodd" xlink:href="#positions_nosmoke_path-36"></use>
                                    <ellipse stroke="#231F20" stroke-width="2.41499984" cx="70.89694" cy="3.68666383" rx="4.89873594" ry="4.89416375"></ellipse>
                                </g>
                                <g id="Oval">
                                    <use fill="#4FE2DF" fill-rule="evenodd" xlink:href="#positions_nosmoke_path-37"></use>
                                    <ellipse stroke="#231F20" stroke-width="2.41499984" cx="71.6099788" cy="297.145105" rx="4.89873594" ry="4.89416375"></ellipse>
                                </g>
                                <g id="Oval">
                                    <use fill="#4FE2DF" fill-rule="evenodd" xlink:href="#positions_nosmoke_path-38"></use>
                                    <ellipse stroke="#231F20" stroke-width="2.41499984" cx="3.69123602" cy="297.6886" rx="4.89873594" ry="4.89416375"></ellipse>
                                </g>
                            </g>
                            <text id="lender" font-family="open sans, sans-serif" font-size="19.3199987" font-weight="600" line-spacing="21.7349986" letter-spacing="1.48615356" fill="#000000">
                                <tspan x="119.542492" y="52.8099978">LENDER</tspan>
                            </text>
                        </g>
                        <g id="pipes" transform="translate(1031.204932, 563.902463) rotate(-270.000000) translate(-1031.204932, -563.902463) translate(467.906219, 422.021222)">
                            <g id="Group" transform="translate(-0.000000, 1.475759)">
                                <path d="M143.999562,1.92445996 L728.602607,1.47575904 L728.654179,67.7105551 L162.170504,68.1725169 C142.174592,68.1878652 125.972942,84.402256 125.973311,104.398174 L125.947845,195.264072 C125.9487,241.473003 88.8413526,279.118039 42.6371908,279.781906 L0.0140407305,280.394321 L2.72848411e-12,214.49613 L23.3769611,214.417414 C43.3361747,214.350205 59.48059,198.150841 59.4799798,178.191514 L59.5394909,86.514328 C59.5380644,39.856787 97.3420825,2.02258522 143.99961,1.98677412 Z" id="Combined-Shape" stroke="#231F20" stroke-width="2.41499984" fill-opacity="0.5" fill="#BBD0EF" fill-rule="nonzero"></path>
                                <path d="M725.518518,57.1709947 L159.348577,57.1709947 C136.007644,57.1709947 117.08608,76.0925592 117.08608,99.4334919 L117.08608,193.505845 C117.08608,235.787693 82.8098696,270.063904 40.5280214,270.063904 L4.16193518,270.063904" id="Path" stroke="#000D6D" stroke-width="7.24499952" opacity="0.300000012" stroke-linecap="square"></path>
                                <path d="M5.31222698,225.791132 L22.2172259,225.791132 C47.8430524,225.791132 68.7652033,205.300742 69.2994861,179.680485 L71.2935267,84.0610484 C72.1141727,44.7089343 104.203407,13.2107645 143.563976,13.1217767 L725.518518,11.8060723" id="Path" stroke="#FFFFFF" stroke-width="7.24499952" opacity="0.200000003"></path>
                                <ellipse id="Oval" stroke="#000D6D" stroke-width="2.41499984" opacity="0.2" cx="224.184358" cy="34.6803373" rx="33.2373967" ry="33.2045783"></ellipse>
                                <path d="M240.803056,51.2826265 C240.803056,32.9442443 225.922167,18.0780482 207.56566,18.0780482 C189.209152,18.0780482 174.328263,32.9442443 174.328263,51.2826265" id="Oval" stroke="#231F20" stroke-width="2.41499984" transform="translate(207.565660, 34.680337) rotate(-90.000000) translate(-207.565660, -34.680337) "></path>
                                <ellipse id="Oval-Copy-7" stroke="#000D6D" stroke-width="2.41499984" opacity="0.2" cx="94.1892067" cy="152.74106" rx="33.2373967" ry="33.2045783"></ellipse>
                                <path d="M125.949386,187.052458 C125.949386,168.714076 111.068496,153.847879 92.7119891,153.847879 C74.3554818,153.847879 59.4745924,168.714076 59.4745924,187.052458" id="Oval" stroke="#231F20" stroke-width="2.41499984" transform="translate(92.711989, 170.450169) rotate(-180.000000) translate(-92.711989, -170.450169) "></path>
                                <ellipse id="Oval" stroke="#000D6D" stroke-width="2.41499984" opacity="0.2" cx="453.153091" cy="34.6803373" rx="33.2373967" ry="33.2045783"></ellipse>
                                <path d="M470.141093,50.9136867 C470.141093,32.5753045 455.260204,17.7091084 436.903697,17.7091084 C418.547189,17.7091084 403.6663,32.5753045 403.6663,50.9136867" id="Oval" stroke="#231F20" stroke-width="2.41499984" transform="translate(436.903697, 34.311398) rotate(-90.000000) translate(-436.903697, -34.311398) "></path>
                                <ellipse id="Oval" stroke="#000D6D" stroke-width="2.41499984" opacity="0.2" cx="682.121823" cy="34.6803373" rx="33.2373967" ry="33.2045783"></ellipse>
                                <path d="M699.109826,50.9136867 C699.109826,32.5753045 684.228937,17.7091084 665.872429,17.7091084 C647.515922,17.7091084 632.635033,32.5753045 632.635033,50.9136867" id="Oval" stroke="#231F20" stroke-width="2.41499984" transform="translate(665.872429, 34.311398) rotate(-90.000000) translate(-665.872429, -34.311398) "></path>
                            </g>
                            <g id="Group-Copy-2" transform="translate(988.974480, 34.413748) scale(-1, 1) translate(-988.974480, -34.413748) translate(851.923239, -0.000000)">
                                <polygon id="Shape" stroke="#231F20" stroke-width="2.41499984" fill-opacity="0.5" fill="#BBD0EF" fill-rule="nonzero" points="0 1.65259444 273.150787 1.13901798 273.198124 67.373814 0.0788946681 67.8873905"></polygon>
                                <path d="M270.243689,56.2647446 L2.95443526,56.2647446" id="Path" stroke="#000D6D" stroke-width="7.24499952" opacity="0.300000012" stroke-linecap="square"></path>
                                <path d="M1.47721763,12.3755813 L265.764699,12.3755813" id="Path" stroke="#FFFFFF" stroke-width="7.24499952" opacity="0.200000003" stroke-linecap="round"></path>
                                <ellipse id="Oval" stroke="#000D6D" stroke-width="1.49041715" opacity="0.2" cx="139.417244" cy="35.3835608" rx="33.0575744" ry="32.4320428"></ellipse>
                                <path d="M189.453161,51.2826265 C189.453161,32.9442443 174.572272,18.0780482 156.215764,18.0780482 C137.859257,18.0780482 122.978368,32.9442443 122.978368,51.2826265" id="Oval" stroke="#231F20" stroke-width="2.41499984" transform="translate(156.215764, 34.680337) rotate(-90.000000) translate(-156.215764, -34.680337) "></path>
                            </g>
                        </g>
                        <g id="coin" transform="translate(1138.672425, 938.831188) rotate(-90.000000) translate(-1138.672425, -938.831188) translate(1106.069927, 910.454940)">
                            <g id="Group" transform="translate(32.602498, 28.376248) scale(-1, 1) translate(-32.602498, -28.376248) " fill="#FFCB76" fill-rule="nonzero" stroke-width="2.41499984">
                                <ellipse id="Oval" stroke="#231F20" cx="29.2140738" cy="28.3814965" rx="29.1488638" ry="28.0873268"></ellipse>
                                <ellipse id="Oval" stroke="#231F20" cx="35.6698624" cy="28.3814965" rx="29.1488638" ry="28.0873268"></ellipse>
                                <ellipse id="Oval" stroke="#000000" cx="35.6698624" cy="28.3814965" rx="17.9979562" ry="17.3265977"></ellipse>
                            </g>
                            <g id="Group-2" transform="translate(29.298624, 28.167488) scale(-1, 1) translate(-29.298624, -28.167488) translate(16.016125, 14.884989)" fill="#231F20">
                                <polygon id="Fill-5" points="15.1002669 26.3462498 0.411015141 14.9993777 13.9196852 17.5577916 26.259603 11.4101408"></polygon>
                                <path d="M13.9184431,19.0788269 L0.409773046,14.9844025 L11.5691092,0.0482935194 L26.2583609,11.3951656 L13.9184431,19.0788269 Z M12.0909074,3.90485881 L4.62177625,13.9015572 L8.84489915,13.3151788 L12.6557648,8.30660561 L17.8282032,12.0678468 L22.3991127,11.4333554 L12.0909074,3.90485881 Z" id="Combined-Shape"></path>
                            </g>
                            <path d="M56.5546914,8.79567523 L49.9006112,8.79567523" id="Shape" stroke="#231F20" stroke-width="2.41499984" fill="#29CC86" fill-rule="nonzero" transform="translate(53.227651, 9.810561) scale(-1, 1) translate(-53.227651, -9.810561) "></path>
                            <path d="M65.2049957,28.4167969 L58.5509155,28.4167969" id="Shape" stroke="#231F20" stroke-width="2.41499984" fill="#29CC86" fill-rule="nonzero" transform="translate(61.877956, 29.431682) scale(-1, 1) translate(-61.877956, -29.431682) "></path>
                            <path d="M58.5509155,46.0081473 L52.5622433,46.0081473" id="Shape" stroke="#231F20" stroke-width="2.41499984" fill="#29CC86" fill-rule="nonzero" transform="translate(55.556579, 47.023033) scale(-1, 1) translate(-55.556579, -47.023033) "></path>
                        </g>
                        <g id="lights" transform="translate(1470.734903, 0.000000)">
                            <g id="Group-136" transform="translate(0.000000, 725.448539)" fill-rule="nonzero">
                                <g id="Rectangle-path">
                                    <use fill="#BED1F4" fill-rule="evenodd" xlink:href="#positions_nosmoke_path-39"></use>
                                    <rect stroke="#231F20" stroke-width="2.41499984" x="-1.20749992" y="35.7029496" width="365.790875" height="215.019189"></rect>
                                </g>
                                <g id="Rectangle-path-Copy-9">
                                    <use fill="#E1E9F3" fill-rule="evenodd" xlink:href="#positions_nosmoke_path-40"></use>
                                    <rect stroke="#231F20" stroke-width="2.41499984" x="-1.20749992" y="-1.20749992" width="365.790875" height="39.3254494"></rect>
                                </g>
                                <g id="Oval">
                                    <use fill="#BED1F4" fill-rule="evenodd" xlink:href="#positions_nosmoke_path-41"></use>
                                    <ellipse stroke="#231F20" stroke-width="2.41499984" cx="21.4184967" cy="15.5023888" rx="4.90034418" ry="4.89854487"></ellipse>
                                </g>
                                <g id="Oval">
                                    <use fill="#BED1F4" fill-rule="evenodd" xlink:href="#positions_nosmoke_path-42"></use>
                                    <ellipse stroke="#231F20" stroke-width="2.41499984" cx="339.003103" cy="15.5023888" rx="4.90034418" ry="4.89854487"></ellipse>
                                </g>
                            </g>
                            <g id="Group-137" transform="translate(39.882718, 803.698692)" stroke="#000000" stroke-width="2.41499984">
                                <ellipse id="Oval-8-Copy" fill="#19C5C2" cx="59.0855082" cy="59.0567192" rx="59.0855082" ry="59.0567192"></ellipse>
                                <polyline id="Path-19" points="39.882718 55.686976 58.6683977 36.9104495 76.9557983 55.1889397"></polyline>
                                <path d="M59.0855082,36.9104495 L59.0855082,87.2113292" id="Path-20"></path>
                            </g>
                            <g id="Group-138" transform="translate(208.276416, 803.698692)">
                                <g id="Oval-8">
                                    <use fill="#407BF7" fill-rule="evenodd" xlink:href="#positions_nosmoke_path-43"></use>
                                    <ellipse stroke="#231F20" stroke-width="2.41499984" cx="59.0855082" cy="59.0567192" rx="57.8780082" ry="57.8492193"></ellipse>
                                </g>
                                <polyline id="Path-19-Copy" stroke="#000000" stroke-width="2.41499984" transform="translate(58.419258, 72.874236) scale(1, -1) translate(-58.419258, -72.874236) " points="39.882718 82.2624997 58.6683977 63.4859732 76.9557983 81.7644634"></polyline>
                                <path d="M59.0855082,32.4811956 L59.0855082,82.7820752" id="Path-20-Copy" stroke="#000000" stroke-width="2.41499984"></path>
                            </g>
                            <g id="Group-144" transform="translate(88.628262, 0.000000)">
                                <path d="M1.4771377,739.778473 L1.4771377,0.0613183553 L16.2485147,0.0613183553 L16.2485147,740.184414 C16.2485147,744.154358 13.0302392,747.372633 9.06029507,747.372633 C8.9944628,747.372633 8.92863364,747.371729 8.86282622,747.369921 L8.86282622,747.369921 C4.75140846,747.256932 1.4771377,743.891443 1.4771377,739.778473 Z" id="Path-18-Copy-2" stroke="#000000" stroke-width="2.41499984" fill="#E1E9F3"></path>
                                <polygon id="Path-18-Copy-2" fill="#A4C2F8" opacity="0.5" points="2.95427541 154.056458 2.95427541 87.4428837 14.771377 87.4428837 14.771377 154.056458"></polygon>
                                <polyline id="Path-18" stroke="#000000" stroke-width="1.20749992" points="0.647727349 720.63081 16.4507396 686.23813 16.4507396 644.986613 0.647727349 682.808712 0.647727349 644.986613 16.4507396 606.018391 16.4507396 569.333462 0.647727349 606.018391 0.647727349 569.333462 16.4507396 532.666442 16.4507396 495.990468 0.647727349 532.666442 0.647727349 495.990468 16.4507396 457.022246 16.4507396 420.337317 0.647727349 457.022246 0.647727349 420.337317 16.4507396 381.378049 16.4507396 349.286571 0.647727349 381.378049 0.647727349 349.286571 16.4507396 314.902846 16.4507396 285.094663 0.647727349 314.902846 0.647727349 285.094663 16.4507396 250.719891 16.4507396 216.327211 0.647727349 250.719891 0.647727349 216.327211 16.4507396 179.660191 16.4507396 145.276465 0.647727349 179.660191 0.647727349 145.276465 16.4507396 110.883785 16.4507396 78.8012619 0.647727349 110.883785 0.647727349 78.8012619 16.4507396 44.4175361 16.4507396 12.3171046 0.647727349 44.4175361"></polyline>
                            </g>
                            <g id="Group-144-Copy" transform="translate(273.270475, 0.000000)">
                                <path d="M1.4771377,739.778473 L1.4771377,0.0613183553 L16.2485147,0.0613183553 L16.2485147,740.184414 C16.2485147,744.154358 13.0302392,747.372633 9.06029507,747.372633 C8.9944628,747.372633 8.92863364,747.371729 8.86282622,747.369921 L8.86282622,747.369921 C4.75140846,747.256932 1.4771377,743.891443 1.4771377,739.778473 Z" id="Path-18-Copy-2" stroke="#000000" stroke-width="2.41499984" fill="#E1E9F3"></path>
                                <polygon id="Path-18-Copy-2" fill="#A4C2F8" opacity="0.5" points="2.95427541 154.056458 2.95427541 87.4428837 14.771377 87.4428837 14.771377 154.056458"></polygon>
                                <polyline id="Path-18" stroke="#000000" stroke-width="1.20749992" points="0.647727349 720.63081 16.4507396 686.23813 16.4507396 644.986613 0.647727349 682.808712 0.647727349 644.986613 16.4507396 606.018391 16.4507396 569.333462 0.647727349 606.018391 0.647727349 569.333462 16.4507396 532.666442 16.4507396 495.990468 0.647727349 532.666442 0.647727349 495.990468 16.4507396 457.022246 16.4507396 420.337317 0.647727349 457.022246 0.647727349 420.337317 16.4507396 381.378049 16.4507396 349.286571 0.647727349 381.378049 0.647727349 349.286571 16.4507396 314.902846 16.4507396 285.094663 0.647727349 314.902846 0.647727349 285.094663 16.4507396 250.719891 16.4507396 216.327211 0.647727349 250.719891 0.647727349 216.327211 16.4507396 179.660191 16.4507396 145.276465 0.647727349 179.660191 0.647727349 145.276465 16.4507396 110.883785 16.4507396 78.8012619 0.647727349 110.883785 0.647727349 78.8012619 16.4507396 44.4175361 16.4507396 12.3171046 0.647727349 44.4175361"></polyline>
                            </g>
                        </g>
                        <g id="0x" transform="translate(691.897454, 1055.958680) scale(-1, 1) rotate(-90.000000) translate(-691.897454, -1055.958680) translate(365.872476, 895.964941)">
                            <rect id="Rectangle-9-Copy-3" stroke="#231F20" stroke-width="2.41499984" fill="#BED1F4" x="0" y="0" width="637.621676" height="319.413162"></rect>
                            <g id="Rectangle-9-Copy-3">
                                <use fill="#BED1F4" fill-rule="evenodd" xlink:href="#positions_nosmoke_path-44"></use>
                                <path stroke="#231F20" stroke-width="2.41499984" d="M19.4645688,17.9865748 L531.298405,17.9865748 L531.298405,300.930359 L19.4645688,300.930359 L19.4645688,17.9865748 Z"></path>
                            </g>
                            <g id="Rectangle-9-Copy-3">
                                <use fill="#E1E9F3" fill-rule="evenodd" xlink:href="#positions_nosmoke_path-45"></use>
                                <rect stroke="#231F20" stroke-width="2.41499984" x="19.4645688" y="17.9865748" width="9.79788152" height="282.943784"></rect>
                            </g>
                            <polygon id="Rectangle-9-Copy-4" stroke="#231F20" stroke-width="2.41499984" fill="#E1E9F3" points="547.809821 -2.00088834e-11 651.539113 1.02889254e-11 651.539113 319.413162 547.809821 319.413162"></polygon>
                            <g id="Rectangle-9-Copy-4">
                                <use fill="#E1E9F3" fill-rule="evenodd" xlink:href="#positions_nosmoke_path-46"></use>
                                <path stroke="#231F20" stroke-width="2.41499984" d="M564.321237,15.0336402 L634.599129,15.0336402 L634.599129,303.883294 L564.321237,303.883294 L564.321237,15.0336402 Z"></path>
                            </g>
                            <g id="Rectangle-path" fill-rule="nonzero" transform="translate(599.489993, 36.911682) rotate(90.000000) translate(-599.489993, -36.911682) ">
                                <use fill="#407BF7" fill-rule="evenodd" xlink:href="#positions_nosmoke_path-47"></use>
                                <rect stroke="#231F20" stroke-width="2.41499984" x="592.376187" y="29.7983131" width="14.2276105" height="14.2267381" rx="7.11336907"></rect>
                            </g>
                            <g id="Rectangle-path" fill-rule="nonzero" transform="translate(599.489993, 69.393962) rotate(90.000000) translate(-599.489993, -69.393962) ">
                                <use fill="#4FE2DF" fill-rule="evenodd" xlink:href="#positions_nosmoke_path-48"></use>
                                <rect stroke="#231F20" stroke-width="2.41499984" x="592.376187" y="62.2805934" width="14.2276105" height="14.2267381" rx="7.11336907"></rect>
                            </g>
                            <g id="Group-6" transform="translate(163.899973, 50.199888)" stroke="#231F20" stroke-width="2.41499984">
                                <g id="Group-149">
                                    <ellipse id="Oval-5-Copy" fill="#BED1F4" cx="109.266649" cy="109.258579" rx="109.266649" ry="109.258579"></ellipse>
                                    <path d="M43.0094998,53.5237878 L53.1740875,44.2186762 C77.989868,21.5012169 114.086646,15.7521347 144.807954,29.6242813 L155.337179,34.3787322 L100.744401,72.7048424 L85.5858982,58.2798762 L62.6147237,78.8500643 L43.0094998,53.5237878 Z M177.802715,166.469838 L167.638127,175.77495 C142.822347,198.492409 106.725569,204.241491 76.0042607,190.369344 L65.4750356,185.614894 L120.067814,147.288783 L135.226317,161.713749 L158.197491,141.143561 L177.802715,166.469838 Z M166.33885,42.9115083 L175.687141,53.0291461 C198.510018,77.7303031 204.285779,113.660351 190.34926,144.239758 L185.572746,154.720349 L147.068787,100.379733 L161.560691,85.2912476 L140.895049,62.4261762 L166.33885,42.9115083 Z M53.6710246,176.283483 L44.3227334,166.165845 C21.4998559,141.464688 15.7240956,105.53464 29.6606146,74.9552327 L34.4371281,64.4746419 L72.941087,118.815258 L58.4491831,133.903744 L79.1148253,156.768815 L53.6710246,176.283483 Z" id="Combined-Shape" fill="#000D6D"></path>
                                </g>
                            </g>
                            <g id="Rectangle-9-Copy-4">
                                <use fill="#BED1F4" fill-rule="evenodd" xlink:href="#positions_nosmoke_path-49"></use>
                                <path stroke="#231F20" stroke-width="2.41499984" d="M626.498163,14.8757494 L636.296044,14.8757494 L636.296044,303.725403 L626.498163,303.725403 L626.498163,14.8757494 Z"></path>
                            </g>
                        </g>
                    </g>
                </g>
            </g>
        </g>
    </g>
</svg>