<?xml version="1.0" encoding="utf-8"?>
<!-- Generator: Adobe Illustrator 19.2.1, SVG Export Plug-In . SVG Version: 6.00 Build 0)  -->
<svg version="1.1" id="Layer_1" xmlns="http://www.w3.org/2000/svg" xmlns:xlink="http://www.w3.org/1999/xlink" x="0px" y="0px"
	 viewBox="0 0 456 142" style="enable-background:new 0 0 456 142;" xml:space="preserve">
<style type="text/css">
	.st0{fill:#FAFDFE;}
</style>
<title>logo1</title>
<g>
	<polygon class="st0" points="73,34.6 73,55.7 56.1,65.6 56.1,45.5 	"/>
	<polygon class="st0" points="35.2,34.6 35.2,55.7 52.1,65.6 52.1,45.5 	"/>
	<polygon class="st0" points="54.1,42.5 37.2,31.6 54.1,21.5 71,31.6 	"/>
</g>
<g>
	<polygon class="st0" points="93,70.7 93,91.8 76.1,101.7 76.1,81.6 	"/>
	<polygon class="st0" points="56.2,71.7 56.2,92.8 73.1,102.7 73.1,82.6 	"/>
	<polygon class="st0" points="76.1,34.6 76.1,55.7 93,65.6 93,45.5 	"/>
	<polygon class="st0" points="74.1,79.6 57.2,68.7 74.1,58.6 91,68.7 	"/>
</g>
<g>
	<polygon class="st0" points="52.1,71.7 52.1,92.8 35.2,102.7 35.2,82.6 	"/>
	<polygon class="st0" points="15.3,45.5 32.2,34.6 32.2,55.7 15.3,65.6 	"/>
	<polygon class="st0" points="15.3,70.7 15.3,91.8 32.2,101.7 32.2,81.6 	"/>
	<polygon class="st0" points="34.2,79.6 17.3,68.7 34.2,58.6 51.1,68.7 	"/>
	<polygon class="st0" points="54.1,116.2 37.2,105.3 54.1,95.2 71,105.3 	"/>
</g>
<g>
	<path class="st0" d="M112.5,77.6l2.8-3.9c1.7,1.8,4.3,3.2,7.6,3.2c2.8,0,4.2-1.3,4.2-2.7c0-4.2-13.8-1.3-13.8-10.4
		c0-4,3.5-7.3,9.1-7.3c3.8,0,7,1.2,9.4,3.3l-2.8,3.7c-1.9-1.8-4.5-2.6-7-2.6c-2.2,0-3.4,1-3.4,2.4c0,3.8,13.8,1.3,13.8,10.2
		c0,4.4-3.1,7.7-9.6,7.7C118.1,81.4,114.7,79.9,112.5,77.6z"/>
	<path class="st0" d="M135.7,81V57h5.1v24H135.7z"/>
	<path class="st0" d="M144.4,69c0-7.6,5.8-12.4,12.8-12.4c5,0,8.1,2.5,9.9,5.4l-4.2,2.3c-1.1-1.7-3.1-3.1-5.7-3.1
		c-4.4,0-7.5,3.3-7.5,7.9c0,4.5,3.2,7.9,7.5,7.9c2.1,0,4.1-0.9,5.1-1.8v-2.9H156v-4.5h11.4v9.2c-2.4,2.7-5.9,4.5-10.2,4.5
		C150.2,81.5,144.4,76.6,144.4,69z"/>
	<path class="st0" d="M188.1,81l-11.4-15.7V81h-5.1V57h5.3l11.1,15.1V57h5.1v24H188.1z"/>
	<path class="st0" d="M214.3,81l-1.5-4.1h-10.3L201,81h-5.8l9.3-24h6.4l9.3,24H214.3z M207.7,62.1L204,72.4h7.5L207.7,62.1z"/>
	<path class="st0" d="M222.4,81V57h5.1v19.5h10.2V81H222.4z"/>
	<path class="st0" d="M257.2,81l-9.3-24h5.8l6.7,18.5L267,57h5.8l-9.3,24H257.2z"/>
	<path class="st0" d="M275.1,81V57h17v4.5h-11.9v5.1h11.6v4.5h-11.6v5.4H292V81H275.1z"/>
	<path class="st0" d="M312.6,81l-11.4-15.7V81H296V57h5.3l11.1,15.1V57h5.1v24H312.6z"/>
	<path class="st0" d="M327.8,81V61.5h-7V57H340v4.5h-7V81H327.8z"/>
	<path class="st0" d="M343.2,71.4V57h5.2v14.3c0,3.3,1.9,5.7,5.7,5.7c3.7,0,5.6-2.3,5.6-5.7V57h5.2v14.4c0,6-3.5,10-10.8,10
		C346.8,81.4,343.2,77.3,343.2,71.4z"/>
	<path class="st0" d="M383.2,81l-4.7-8.5h-3.7V81h-5.1V57h11.2c5,0,8.1,3.3,8.1,7.7c0,4.2-2.7,6.5-5.3,7.1l5.4,9.1H383.2z
		 M383.7,64.7c0-2-1.5-3.2-3.6-3.2h-5.4V68h5.4C382.1,68,383.7,66.8,383.7,64.7z"/>
	<path class="st0" d="M392.8,81V57h17v4.5h-11.9v5.1h11.6v4.5h-11.6v5.4h11.9V81H392.8z"/>
	<path class="st0" d="M412.1,77.6l2.8-3.9c1.7,1.8,4.3,3.2,7.6,3.2c2.8,0,4.2-1.3,4.2-2.7c0-4.2-13.8-1.3-13.8-10.4
		c0-4,3.5-7.3,9.1-7.3c3.8,0,7,1.2,9.4,3.3l-2.8,3.7c-1.9-1.8-4.5-2.6-7-2.6c-2.2,0-3.4,1-3.4,2.4c0,3.8,13.8,1.3,13.8,10.2
		c0,4.4-3.1,7.7-9.6,7.7C417.7,81.4,414.4,79.9,412.1,77.6z"/>
</g>
</svg>
