<svg id="texture-bg-mobile" width="320px" height="11126px" viewBox="0 0 320 11126" version="1.1" xmlns="http://www.w3.org/2000/svg" xmlns:xlink="http://www.w3.org/1999/xlink">
    <defs>
        <rect id="texture-bg-mobile-path-1" x="0.549999237" y="0" width="384.390015" height="11126"></rect>
    </defs>
    <g stroke="none" stroke-width="1" fill="none" fill-rule="evenodd">
        <g id="bZx-website_320" transform="translate(0.000000, -5990.000000)">
            <g id="Group-14" transform="translate(-260.000000, 5990.000000)">
                <g id="texture-bg-mobile" transform="translate(174.000000, 0.000000)">
                    <g id="Group-8" transform="translate(52.000000, 0.000000)">
                        <g id="Rectangle-3">
                            <use fill="#231F20" xlink:href="#texture-bg-mobile-path-1"></use>
                            <use fill="#001136" xlink:href="#texture-bg-mobile-path-1"></use>
                        </g>
                    </g>
                    <g id="texture" transform="translate(0.000000, 32.000000)" fill="#BED1F4" fill-rule="nonzero" opacity="0.100000001">
                        <path d="M0,99.5665457 C0,74.3823132 26.3552176,49.3711238 71.5517316,30.4832127 C117.662256,11.2133307 179.184953,0 243.924116,0 C308.663279,0 370.185976,11.2133307 416.296501,30.4832127 C461.493015,49.3711238 487.848232,74.3823132 487.174874,99.5665457 C487.174874,74.729339 461.009318,49.8981392 416.036633,31.1037678 C370.012446,11.8699667 308.577705,0.672667144 243.924116,0.672667144 C179.270527,0.672667144 117.835786,11.8699667 71.8115989,31.1037678 C26.8389144,49.8981392 0.673358499,74.729339 0,99.5665457 Z" id="Fill-1818"></path>
                        <path d="M0.673358499,197.103282 C0.673358499,171.919049 27.0285761,146.90786 72.2250901,128.019949 C118.335615,108.750067 179.858312,97.5367359 244.597475,97.5367359 C309.336638,97.5367359 370.859335,108.750067 416.969859,128.019949 C462.166373,146.90786 488.521591,171.919049 487.848232,197.103282 C487.848232,172.266075 461.682676,147.434875 416.709992,128.640504 C370.685805,109.406703 309.251064,98.2094031 244.597475,98.2094031 C179.943886,98.2094031 118.509145,109.406703 72.4849574,128.640504 C27.5122729,147.434875 1.346717,172.266075 0.673358499,197.103282 Z" id="Fill-1818"></path>
                        <path d="M0.673358499,294.303684 C0.673358499,269.119451 27.0285761,244.108262 72.2250901,225.220351 C118.335615,205.950469 179.858312,194.737138 244.597475,194.737138 C309.336638,194.737138 370.859335,205.950469 416.969859,225.220351 C462.166373,244.108262 488.521591,269.119451 487.848232,294.303684 C487.848232,269.466477 461.682676,244.635277 416.709992,225.840906 C370.685805,206.607105 309.251064,195.409805 244.597475,195.409805 C179.943886,195.409805 118.509145,206.607105 72.4849574,225.840906 C27.5122729,244.635277 1.346717,269.466477 0.673358499,294.303684 Z" id="Fill-1818"></path>
                        <path d="M0.673358499,391.84042 C0.673358499,366.656187 27.0285761,341.644998 72.2250901,322.757087 C118.335615,303.487205 179.858312,292.273874 244.597475,292.273874 C309.336638,292.273874 370.859335,303.487205 416.969859,322.757087 C462.166373,341.644998 488.521591,366.656187 487.848232,391.84042 C487.848232,367.003213 461.682676,342.172013 416.709992,323.377642 C370.685805,304.143841 309.251064,292.946541 244.597475,292.946541 C179.943886,292.946541 118.509145,304.143841 72.4849574,323.377642 C27.5122729,342.172013 1.346717,367.003213 0.673358499,391.84042 Z" id="Fill-1818"></path>
                        <path d="M1.346717,489.040822 C1.346717,463.85659 27.7019346,438.8454 72.8984486,419.957489 C119.008973,400.687607 180.53167,389.474277 245.270833,389.474277 C310.009996,389.474277 371.532693,400.687607 417.643218,419.957489 C462.839732,438.8454 489.194949,463.85659 488.521591,489.040822 C488.521591,464.203616 462.356035,439.372416 417.38335,420.578044 C371.359163,401.344243 309.924422,390.146944 245.270833,390.146944 C180.617244,390.146944 119.182503,401.344243 73.1583159,420.578044 C28.1856314,439.372416 2.0200755,464.203616 1.346717,489.040822 Z" id="Fill-1818"></path>
                        <path d="M1.42367793,586.677657 C1.42367793,561.493424 27.7788956,536.482235 72.9754096,517.594324 C119.085934,498.324442 180.608631,487.111111 245.347794,487.111111 C310.086957,487.111111 371.609654,498.324442 417.720179,517.594324 C462.916693,536.482235 489.27191,561.493424 488.598552,586.677657 C488.598552,561.84045 462.432996,537.00925 417.460311,518.214879 C371.436124,498.981078 310.001383,487.783778 245.347794,487.783778 C180.694205,487.783778 119.259464,498.981078 73.2352769,518.214879 C28.2625923,537.00925 2.09703642,561.84045 1.42367793,586.677657 Z" id="Fill-1818"></path>
                        <path d="M1.42367793,696.899879 C1.42367793,671.715647 27.7788956,646.704457 72.9754096,627.816546 C119.085934,608.546664 180.608631,597.333333 245.347794,597.333333 C310.086957,597.333333 371.609654,608.546664 417.720179,627.816546 C462.916693,646.704457 489.27191,671.715647 488.598552,696.899879 C488.598552,672.062672 462.432996,647.231473 417.460311,628.437101 C371.436124,609.2033 310.001383,598.006 245.347794,598.006 C180.694205,598.006 119.259464,609.2033 73.2352769,628.437101 C28.2625923,647.231473 2.09703642,672.062672 1.42367793,696.899879 Z" id="Fill-1818"></path>
                        <path d="M1.42367793,796.455435 C1.42367793,771.271202 27.7788956,746.260013 72.9754096,727.372102 C119.085934,708.10222 180.608631,696.888889 245.347794,696.888889 C310.086957,696.888889 371.609654,708.10222 417.720179,727.372102 C462.916693,746.260013 489.27191,771.271202 488.598552,796.455435 C488.598552,771.618228 462.432996,746.787028 417.460311,727.992657 C371.436124,708.758856 310.001383,697.561556 245.347794,697.561556 C180.694205,697.561556 119.259464,708.758856 73.2352769,727.992657 C28.2625923,746.787028 2.09703642,771.618228 1.42367793,796.455435 Z" id="Fill-1818"></path>
                    </g>
                    <g id="texture" transform="translate(1.000000, 816.000000)" fill="#BED1F4" fill-rule="nonzero" opacity="0.100000001">
                        <path d="M0,99.5665457 C0,74.3823132 26.3552176,49.3711238 71.5517316,30.4832127 C117.662256,11.2133307 179.184953,0 243.924116,0 C308.663279,0 370.185976,11.2133307 416.296501,30.4832127 C461.493015,49.3711238 487.848232,74.3823132 487.174874,99.5665457 C487.174874,74.729339 461.009318,49.8981392 416.036633,31.1037678 C370.012446,11.8699667 308.577705,0.672667144 243.924116,0.672667144 C179.270527,0.672667144 117.835786,11.8699667 71.8115989,31.1037678 C26.8389144,49.8981392 0.673358499,74.729339 0,99.5665457 Z" id="Fill-1818"></path>
                        <path d="M0.673358499,197.103282 C0.673358499,171.919049 27.0285761,146.90786 72.2250901,128.019949 C118.335615,108.750067 179.858312,97.5367359 244.597475,97.5367359 C309.336638,97.5367359 370.859335,108.750067 416.969859,128.019949 C462.166373,146.90786 488.521591,171.919049 487.848232,197.103282 C487.848232,172.266075 461.682676,147.434875 416.709992,128.640504 C370.685805,109.406703 309.251064,98.2094031 244.597475,98.2094031 C179.943886,98.2094031 118.509145,109.406703 72.4849574,128.640504 C27.5122729,147.434875 1.346717,172.266075 0.673358499,197.103282 Z" id="Fill-1818"></path>
                        <path d="M0.673358499,294.303684 C0.673358499,269.119451 27.0285761,244.108262 72.2250901,225.220351 C118.335615,205.950469 179.858312,194.737138 244.597475,194.737138 C309.336638,194.737138 370.859335,205.950469 416.969859,225.220351 C462.166373,244.108262 488.521591,269.119451 487.848232,294.303684 C487.848232,269.466477 461.682676,244.635277 416.709992,225.840906 C370.685805,206.607105 309.251064,195.409805 244.597475,195.409805 C179.943886,195.409805 118.509145,206.607105 72.4849574,225.840906 C27.5122729,244.635277 1.346717,269.466477 0.673358499,294.303684 Z" id="Fill-1818"></path>
                        <path d="M0.673358499,391.84042 C0.673358499,366.656187 27.0285761,341.644998 72.2250901,322.757087 C118.335615,303.487205 179.858312,292.273874 244.597475,292.273874 C309.336638,292.273874 370.859335,303.487205 416.969859,322.757087 C462.166373,341.644998 488.521591,366.656187 487.848232,391.84042 C487.848232,367.003213 461.682676,342.172013 416.709992,323.377642 C370.685805,304.143841 309.251064,292.946541 244.597475,292.946541 C179.943886,292.946541 118.509145,304.143841 72.4849574,323.377642 C27.5122729,342.172013 1.346717,367.003213 0.673358499,391.84042 Z" id="Fill-1818"></path>
                        <path d="M1.346717,489.040822 C1.346717,463.85659 27.7019346,438.8454 72.8984486,419.957489 C119.008973,400.687607 180.53167,389.474277 245.270833,389.474277 C310.009996,389.474277 371.532693,400.687607 417.643218,419.957489 C462.839732,438.8454 489.194949,463.85659 488.521591,489.040822 C488.521591,464.203616 462.356035,439.372416 417.38335,420.578044 C371.359163,401.344243 309.924422,390.146944 245.270833,390.146944 C180.617244,390.146944 119.182503,401.344243 73.1583159,420.578044 C28.1856314,439.372416 2.0200755,464.203616 1.346717,489.040822 Z" id="Fill-1818"></path>
                        <path d="M1.42367793,586.677657 C1.42367793,561.493424 27.7788956,536.482235 72.9754096,517.594324 C119.085934,498.324442 180.608631,487.111111 245.347794,487.111111 C310.086957,487.111111 371.609654,498.324442 417.720179,517.594324 C462.916693,536.482235 489.27191,561.493424 488.598552,586.677657 C488.598552,561.84045 462.432996,537.00925 417.460311,518.214879 C371.436124,498.981078 310.001383,487.783778 245.347794,487.783778 C180.694205,487.783778 119.259464,498.981078 73.2352769,518.214879 C28.2625923,537.00925 2.09703642,561.84045 1.42367793,586.677657 Z" id="Fill-1818"></path>
                        <path d="M1.42367793,696.899879 C1.42367793,671.715647 27.7788956,646.704457 72.9754096,627.816546 C119.085934,608.546664 180.608631,597.333333 245.347794,597.333333 C310.086957,597.333333 371.609654,608.546664 417.720179,627.816546 C462.916693,646.704457 489.27191,671.715647 488.598552,696.899879 C488.598552,672.062672 462.432996,647.231473 417.460311,628.437101 C371.436124,609.2033 310.001383,598.006 245.347794,598.006 C180.694205,598.006 119.259464,609.2033 73.2352769,628.437101 C28.2625923,647.231473 2.09703642,672.062672 1.42367793,696.899879 Z" id="Fill-1818"></path>
                        <path d="M1.42367793,796.455435 C1.42367793,771.271202 27.7788956,746.260013 72.9754096,727.372102 C119.085934,708.10222 180.608631,696.888889 245.347794,696.888889 C310.086957,696.888889 371.609654,708.10222 417.720179,727.372102 C462.916693,746.260013 489.27191,771.271202 488.598552,796.455435 C488.598552,771.618228 462.432996,746.787028 417.460311,727.992657 C371.436124,708.758856 310.001383,697.561556 245.347794,697.561556 C180.694205,697.561556 119.259464,708.758856 73.2352769,727.992657 C28.2625923,746.787028 2.09703642,771.618228 1.42367793,796.455435 Z" id="Fill-1818"></path>
                    </g>
                </g>
            </g>
        </g>
    </g>
</svg>