<svg viewBox="0 0 2710 3840" version="1.1" xmlns="http://www.w3.org/2000/svg" xmlns:xlink="http://www.w3.org/1999/xlink">
    <defs>
        <rect id="texture-path-1" x="0.41499984" y="30.6294693" width="2653.61736" height="3808.45475"></rect>
    </defs>
    <g id="texture-bg" stroke="none" stroke-width="1" fill="none" fill-rule="evenodd">
        <g id="Rectangle-3">
            <use fill="#231F20" xlink:href="#texture-path-1"></use>
            <use fill="#001136" xlink:href="#texture-path-1"></use>
        </g>
        <g id="texture" transform="translate(51.806509, 0.430259)" fill="#BED1F4" fill-rule="nonzero" opacity="0.100000001">
            <path d="M0,541.777917 C0,404.741316 143.402317,268.646305 389.322687,165.870286 C640.216311,61.0158252 974.969659,0 1327.22423,0 C1679.47881,0 2014.23216,61.0158252 2265.12578,165.870286 C2511.04615,268.646305 2654.44847,404.741316 2650.78463,541.777917 C2650.78463,406.62961 2508.41429,271.513988 2263.71181,169.246953 C2013.28796,64.5888213 1679.01319,3.66022746 1327.22423,3.66022746 C975.435279,3.66022746 641.160512,64.5888213 390.73666,169.246953 C146.034177,271.513988 3.66383502,406.62961 0,541.777917 Z" id="Fill-1818"></path>
            <path d="M4.14627713,1072.49914 C4.14627713,935.46254 147.548595,799.36753 393.468964,696.591511 C644.362588,591.73705 979.115936,530.721225 1331.37051,530.721225 C1683.62509,530.721225 2018.37844,591.73705 2269.27206,696.591511 C2515.19243,799.36753 2658.59475,935.46254 2654.93091,1072.49914 C2654.93091,937.350834 2512.56057,802.235213 2267.85809,699.968178 C2017.43423,595.310046 1683.15947,534.381452 1331.37051,534.381452 C979.581556,534.381452 645.306789,595.310046 394.882937,699.968178 C150.180454,802.235213 7.81011214,937.350834 4.14627713,1072.49914 Z" id="Fill-1818"></path>
            <path d="M4.14627713,1603.00596 C4.14627713,1465.96936 147.548595,1329.87435 393.468964,1227.09833 C644.362588,1122.24387 979.115936,1061.22804 1331.37051,1061.22804 C1683.62509,1061.22804 2018.37844,1122.24387 2269.27206,1227.09833 C2515.19243,1329.87435 2658.59475,1465.96936 2654.93091,1603.00596 C2654.93091,1467.85765 2512.56057,1332.74203 2267.85809,1230.47499 C2017.43423,1125.81686 1683.15947,1064.88827 1331.37051,1064.88827 C979.581556,1064.88827 645.306789,1125.81686 394.882937,1230.47499 C150.180454,1332.74203 7.81011214,1467.85765 4.14627713,1603.00596 Z" id="Fill-1818"></path>
            <path d="M4.14627713,2133.09842 C4.14627713,1996.06182 147.548595,1859.96681 393.468964,1757.19079 C644.362588,1652.33633 979.115936,1591.3205 1331.37051,1591.3205 C1683.62509,1591.3205 2018.37844,1652.33633 2269.27206,1757.19079 C2515.19243,1859.96681 2658.59475,1996.06182 2654.93091,2133.09842 C2654.93091,1997.95011 2512.56057,1862.83449 2267.85809,1760.56746 C2017.43423,1655.90933 1683.15947,1594.98073 1331.37051,1594.98073 C979.581556,1594.98073 645.306789,1655.90933 394.882937,1760.56746 C150.180454,1862.83449 7.81011214,1997.95011 4.14627713,2133.09842 Z" id="Fill-1818"></path>
            <path d="M6.91046188,2663.19089 C6.91046188,2526.15429 150.312779,2390.05928 396.233148,2287.28326 C647.126773,2182.4288 981.880121,2121.41297 1334.1347,2121.41297 C1686.38927,2121.41297 2021.14262,2182.4288 2272.03624,2287.28326 C2517.95661,2390.05928 2661.35893,2526.15429 2657.6951,2663.19089 C2657.6951,2528.04258 2515.32475,2392.92696 2270.62227,2290.65992 C2020.19842,2186.00179 1685.92365,2125.0732 1334.1347,2125.0732 C982.345741,2125.0732 648.070974,2186.00179 397.647122,2290.65992 C152.944639,2392.92696 10.5742969,2528.04258 6.91046188,2663.19089 Z" id="Fill-1818"></path>
            <path d="M6.91046188,3194.49085 C6.91046188,3057.45425 150.312779,2921.35924 396.233148,2818.58322 C647.126773,2713.72876 981.880121,2652.71293 1334.1347,2652.71293 C1686.38927,2652.71293 2021.14262,2713.72876 2272.03624,2818.58322 C2517.95661,2921.35924 2661.35893,3057.45425 2657.6951,3194.49085 C2657.6951,3059.34254 2515.32475,2924.22692 2270.62227,2821.95989 C2020.19842,2717.30176 1685.92365,2656.37316 1334.1347,2656.37316 C982.345741,2656.37316 648.070974,2717.30176 397.647122,2821.95989 C152.944639,2924.22692 10.5742969,3059.34254 6.91046188,3194.49085 Z" id="Fill-1818"></path>
        </g>
    </g>
</svg>