<svg id="safer-bg" viewBox="0 0 1080 3560" version="1.1" xmlns="http://www.w3.org/2000/svg" xmlns:xlink="http://www.w3.org/1999/xlink">
    <defs>
        <rect id="safer-bg-tablet-path-1" x="147" y="0" width="1080" height="3560"></rect>
    </defs>
    <g stroke="none" stroke-width="1" fill="none" fill-rule="evenodd">
        <g id="bZx-website_1080" transform="translate(0.000000, -7301.000000)">
            <g id="Group-60" transform="translate(-147.000000, 7301.000000)">
                <g id="Rectangle-3">
                    <use fill="#231F20" xlink:href="#safer-bg-tablet-path-1"></use>
                    <use fill="#001136" xlink:href="#safer-bg-tablet-path-1"></use>
                </g>
                <g id="texture" transform="translate(0.000000, 90.000000)" fill="#BED1F4" fill-rule="nonzero" opacity="0.100000001">
                    <path d="M0,280.03091 C0,209.200256 74.0482581,138.856286 201.033479,85.7340356 C330.586726,31.5374926 503.442387,0 685.335108,0 C867.227829,0 1040.08349,31.5374926 1169.63674,85.7340356 C1296.62196,138.856286 1370.67022,209.200256 1368.77833,280.03091 C1368.77833,210.176266 1295.26295,140.338516 1168.90661,87.4793469 C1039.59594,33.3842813 866.987398,1.89187634 685.335108,1.89187634 C503.682818,1.89187634 331.074281,33.3842813 201.763609,87.4793469 C75.4072643,140.338516 1.89188436,210.176266 0,280.03091 Z" id="Fill-1818"></path>
                    <path d="M1.89188436,554.35298 C1.89188436,483.522326 75.9401425,413.178355 202.925363,360.056105 C332.47861,305.859562 505.334271,274.32207 687.226992,274.32207 C869.119713,274.32207 1041.97537,305.859562 1171.52862,360.056105 C1298.51384,413.178355 1372.5621,483.522326 1370.67022,554.35298 C1370.67022,484.498336 1297.15484,414.660586 1170.79849,361.801417 C1041.48782,307.706351 868.879282,276.213946 687.226992,276.213946 C505.574702,276.213946 332.966165,307.706351 203.655493,361.801417 C77.2991487,414.660586 3.78376871,484.498336 1.89188436,554.35298 Z" id="Fill-1818"></path>
                    <path d="M1.89188436,827.729111 C1.89188436,756.898457 75.9401425,686.554487 202.925363,633.432237 C332.47861,579.235694 505.334271,547.698201 687.226992,547.698201 C869.119713,547.698201 1041.97537,579.235694 1171.52862,633.432237 C1298.51384,686.554487 1372.5621,756.898457 1370.67022,827.729111 C1370.67022,757.874467 1297.15484,688.036718 1170.79849,635.177548 C1041.48782,581.082483 868.879282,549.590078 687.226992,549.590078 C505.574702,549.590078 332.966165,581.082483 203.655493,635.177548 C77.2991487,688.036718 3.78376871,757.874467 1.89188436,827.729111 Z" id="Fill-1818"></path>
                    <path d="M1.89188436,1102.05118 C1.89188436,1031.22053 75.9401425,960.876557 202.925363,907.754307 C332.47861,853.557764 505.334271,822.020271 687.226992,822.020271 C869.119713,822.020271 1041.97537,853.557764 1171.52862,907.754307 C1298.51384,960.876557 1372.5621,1031.22053 1370.67022,1102.05118 C1370.67022,1032.19654 1297.15484,962.358788 1170.79849,909.499618 C1041.48782,855.404552 868.879282,823.912148 687.226992,823.912148 C505.574702,823.912148 332.966165,855.404552 203.655493,909.499618 C77.2991487,962.358788 3.78376871,1032.19654 1.89188436,1102.05118 Z" id="Fill-1818"></path>
                    <path d="M3.78376871,1375.42731 C3.78376871,1304.59666 77.8320269,1234.25269 204.817248,1181.13044 C334.370495,1126.9339 507.226156,1095.3964 689.118877,1095.3964 C871.011598,1095.3964 1043.86726,1126.9339 1173.42051,1181.13044 C1300.40573,1234.25269 1374.45398,1304.59666 1372.5621,1375.42731 C1372.5621,1305.57267 1299.04672,1235.73492 1172.69038,1182.87575 C1043.3797,1128.78068 870.771167,1097.28828 689.118877,1097.28828 C507.466587,1097.28828 334.858049,1128.78068 205.547377,1182.87575 C79.191033,1235.73492 5.67565307,1305.57267 3.78376871,1375.42731 Z" id="Fill-1818"></path>
                    <path d="M4,1650.03091 C4,1579.20026 78.0482581,1508.85629 205.033479,1455.73404 C334.586726,1401.53749 507.442387,1370 689.335108,1370 C871.227829,1370 1044.08349,1401.53749 1173.63674,1455.73404 C1300.62196,1508.85629 1374.67022,1579.20026 1372.77833,1650.03091 C1372.77833,1580.17627 1299.26295,1510.33852 1172.90661,1457.47935 C1043.59594,1403.38428 870.987398,1371.89188 689.335108,1371.89188 C507.682818,1371.89188 335.074281,1403.38428 205.763609,1457.47935 C79.4072643,1510.33852 5.89188436,1580.17627 4,1650.03091 Z" id="Fill-1818"></path>
                    <path d="M4,1960.03091 C4,1889.20026 78.0482581,1818.85629 205.033479,1765.73404 C334.586726,1711.53749 507.442387,1680 689.335108,1680 C871.227829,1680 1044.08349,1711.53749 1173.63674,1765.73404 C1300.62196,1818.85629 1374.67022,1889.20026 1372.77833,1960.03091 C1372.77833,1890.17627 1299.26295,1820.33852 1172.90661,1767.47935 C1043.59594,1713.38428 870.987398,1681.89188 689.335108,1681.89188 C507.682818,1681.89188 335.074281,1713.38428 205.763609,1767.47935 C79.4072643,1820.33852 5.89188436,1890.17627 4,1960.03091 Z" id="Fill-1818"></path>
                    <path d="M4,2240.03091 C4,2169.20026 78.0482581,2098.85629 205.033479,2045.73404 C334.586726,1991.53749 507.442387,1960 689.335108,1960 C871.227829,1960 1044.08349,1991.53749 1173.63674,2045.73404 C1300.62196,2098.85629 1374.67022,2169.20026 1372.77833,2240.03091 C1372.77833,2170.17627 1299.26295,2100.33852 1172.90661,2047.47935 C1043.59594,1993.38428 870.987398,1961.89188 689.335108,1961.89188 C507.682818,1961.89188 335.074281,1993.38428 205.763609,2047.47935 C79.4072643,2100.33852 5.89188436,2170.17627 4,2240.03091 Z" id="Fill-1818"></path>
                </g>
            </g>
        </g>
    </g>
</svg>