<svg id="the-tap" viewBox="0 0 1189 824" version="1.1" xmlns="http://www.w3.org/2000/svg" xmlns:xlink="http://www.w3.org/1999/xlink">
    <defs>
        <path d="M109.576995,123.154852 L1398.12143,-2.27373675e-13 L1398.12143,379.044649 L121.065529,379.044649 C54.3771501,379.044649 0.31553719,324.983036 0.31553719,258.294657 L0.31553719,243.357074 C0.31553719,181.118973 47.6212305,129.076381 109.576995,123.154852 Z" id="tap-path-1"></path>
        <path d="M121.489187,158.445904 L1391.89542,158.445904 L1391.89542,379.044649 L121.489187,379.044649 C60.5725261,379.044649 11.189815,329.661938 11.189815,268.745276 L11.189815,268.745276 C11.189815,207.828615 60.5725261,158.445904 121.489187,158.445904 Z" id="tap-path-3"></path>
        <path d="M158.403578,182.528153 L1391.89542,182.528153 L1391.89542,354.962399 L158.403578,354.962399 C92.3686183,354.962399 38.8367063,344.809468 38.8367063,268.745276 C38.8367063,192.681085 92.3686183,182.528153 158.403578,182.528153 Z" id="tap-path-5"></path>
        <mask id="mask-6" maskContentUnits="userSpaceOnUse" maskUnits="objectBoundingBox" x="-2.41499984" y="-2.41499984" width="1357.88871" height="177.264246">
            <rect x="36.4217065" y="180.113153" width="1357.88871" height="177.264246" fill="white"></rect>
            <use xlink:href="#tap-path-5" fill="black"></use>
        </mask>
    </defs>
    <g stroke="none" stroke-width="1" fill="none" fill-rule="evenodd">
        <g id="Group-104" transform="translate(109.653584, 148.502447)">
            <mask id="mask-2222" fill="white">
                <use xlink:href="#tap-path-1"></use>
            </mask>
            <g id="Rectangle-path" fill-rule="nonzero">
                <use fill="#E1E9F3" fill-rule="evenodd" xlink:href="#tap-path-1"></use>
                <path stroke="#231F20" stroke-width="2.41499984" d="M109.46211,121.95283 L1399.32893,-1.32841147 L1399.32893,380.252149 L121.065529,380.252149 C53.7102663,380.252149 -0.89196273,325.64992 -0.89196273,258.294657 L-0.89196273,243.357074 C-0.89196273,180.496592 46.8867875,127.933574 109.46211,121.95283 Z"></path>
            </g>
            <mask id="mask-4" fill="white">
                <use xlink:href="#tap-path-3"></use>
            </mask>
            <g id="Rectangle-path" fill-rule="nonzero">
                <use fill="#BED1F4" fill-rule="evenodd" xlink:href="#tap-path-3"></use>
                <path stroke="#231F20" stroke-width="2.41499984" d="M121.489187,157.238404 L1393.10292,157.238404 L1393.10292,380.252149 L121.489187,380.252149 C59.9056423,380.252149 9.98231505,330.328821 9.98231505,268.745276 C9.98231505,207.161731 59.9056423,157.238404 121.489187,157.238404 Z"></path>
            </g>
            <path d="M534.633847,-33.8020366 C370.059775,-188.332619 111.722434,-180.019265 -43.0846307,-15.219245 C-197.891695,149.580775 -189.101389,408.272793 -24.527317,563.292396 C140.046755,717.822978 398.384096,709.509624 553.191161,544.709605 C707.509876,379.909585 699.207919,121.217566 534.633847,-33.8020366 Z M25.28442,509.989126 C-109.98863,382.84371 -116.825535,170.119649 10.1455587,34.6608796 C137.116653,-100.79789 349.54906,-107.644182 484.82211,19.5012339 C620.095161,146.64665 626.932066,359.37071 499.960972,494.82948 C372.989878,630.28825 160.55747,637.134542 25.28442,509.989126 Z" id="Shape" fill="#73A0FF" fill-rule="nonzero" opacity="0.5" mask="url(#mask-4)"></path>
            <use id="Rectangle-path" stroke="#231F20" mask="url(#mask-6)" stroke-width="4.82999968" stroke-dasharray="241.4999890327454,120.7499945163727" fill-rule="nonzero" xlink:href="#tap-path-5"></use>
        </g>
        <g id="tap" fill-rule="nonzero">
            <g id="Group" transform="translate(127.829885, 142.288600)">
                <path d="M289.889779,270.755911 L535.093128,515.958221 L512.972307,538.078949 L267.768958,292.876639 L22.5656091,538.078949 L0.44478749,515.958221 L245.648136,270.755911 L0.44478749,25.5536005 L22.5656091,3.43287256 L267.768958,248.635183 L512.972307,3.43287256 C516.380643,7.56170241 519.779912,11.3212116 523.170115,14.7114 C526.560318,18.1015884 530.534656,21.7156553 535.093128,25.5536005 L289.889779,270.755911 Z" id="Combined-Shape" fill="#73A0FF" opacity="0.5"></path>
                <rect id="Rectangle-path" stroke="#231F20" stroke-width="2.41499984" fill="#BED1F4" transform="translate(284.925288, 267.785278) rotate(45.000000) translate(-284.925288, -267.785278) " x="269.283505" y="-94.6248712" width="31.2835659" height="724.820299"></rect>
                <rect id="Rectangle-path" stroke="#231F20" stroke-width="2.41499984" fill="#BED1F4" transform="translate(284.792723, 268.182566) rotate(135.000000) translate(-284.792723, -268.182566) " x="269.15094" y="-94.2275835" width="31.2835659" height="724.820299"></rect>
            </g>
            <g id="Group-101" transform="translate(0.237044, 0.915406)">
                <path d="M691.326757,111.61648 L691.328144,111.617785 C856.387688,267.094675 864.711533,526.548988 709.937619,691.835122 C554.673081,857.122145 295.571647,865.45751 130.511108,710.470147 C-34.7225223,554.829276 -43.1980568,295.364343 111.901632,130.252809 C267.166171,-35.034214 526.267605,-43.3695784 691.326757,111.61648 Z M181.977771,655.408057 C316.742282,782.075489 528.41097,775.296407 654.946347,640.302481 C781.441067,505.351929 774.671189,293.389786 639.861481,166.679874 C505.096969,40.012442 293.428282,46.7915239 166.892905,181.78545 C40.3981844,316.736002 47.1680629,528.698145 181.977771,655.408057 Z" id="Shape" stroke="#231F20" stroke-width="2.41499984" fill="#407BF7"></path>
                <path d="M688.47696,114.641592 C525.089259,-38.7750194 264.948607,-34.7714583 111.257506,128.840561 C-42.4335953,292.452581 -30.0410592,553.529621 133.346642,707.431729 C296.734342,860.84834 553.209398,852.594915 706.900499,688.982895 C860.10677,525.370876 851.864661,268.5437 688.47696,114.641592 Z M128.943296,684.003117 C-29.0877965,535.502845 -37.0749275,287.050466 111.257506,128.840561 C259.58994,-29.3693438 507.761511,-37.3655123 665.792604,111.13476 C823.823696,259.635032 831.810827,508.08741 683.478394,666.297315 C535.14596,824.50722 286.974389,832.503388 128.943296,684.003117 Z" id="Shape" fill="#265ED4"></path>
                <polygon id="Rectangle-path" fill="#231F20" points="705.835375 125.384107 708.032311 127.581043 664.112212 171.501142 661.915276 169.304206"></polygon>
                <polygon id="Rectangle-path" fill="#231F20" points="618.458948 123.493988 621.111636 125.111484 610.253697 140.268883 607.601009 138.651386"></polygon>
                <polygon id="Rectangle-path" fill="#231F20" points="125.234809 683.936756 127.431745 686.133692 117.619754 695.945683 115.422818 693.748747"></polygon>
                <polygon id="Rectangle-path" fill="#231F20" points="126.260543 141.392051 124.063607 143.588987 112.384292 131.909672 114.581228 129.712736"></polygon>
                <polygon id="Rectangle-path" fill="#231F20" points="158.199352 151.243723 156.002416 153.440659 123.285733 120.723976 125.482668 118.52704"></polygon>
                <polygon id="Rectangle-path" fill="#231F20" points="703.978977 697.021023 701.782041 699.217959 672.519701 669.955618 674.716637 667.758682"></polygon>
                <polygon id="Rectangle-path" fill="#231F20" points="714.963657 686.036343 712.766721 688.233279 694.48906 669.955618 696.685996 667.758682"></polygon>
                <polygon id="Rectangle-path" fill="#231F20" points="635.232132 753.59049 626.274088 739.128012 628.915389 737.491986 637.193567 751.629055"></polygon>
                <polygon id="Rectangle-path" fill="#231F20" points="116.21635 250.982539 114.674866 253.680108 89.2694014 239.454245 90.8108852 236.756676"></polygon>
                <polygon id="Rectangle-path" fill="#231F20" points="153.941815 195.329431 151.95824 197.720767 143.971753 190.96873 145.955327 188.577394"></polygon>
            </g>
        </g>
        <g id="tap-logo" transform="translate(308.000000, 309.000000)" fill-rule="nonzero" stroke="#231F20" stroke-width="2.41499984">
            <path d="M104.975161,174.877139 C124.166707,174.877139 115.005898,192.501537 154.546411,155.184244 C168.501684,142.013626 177.211435,123.34453 177.211435,102.641171 C177.211435,62.7463483 144.870153,30.4052033 104.975161,30.4052033 C86.9603281,30.4052033 70.4857201,36.9996613 57.8336191,47.9063033 C22.7070081,78.1869173 32.7388871,80.7611053 32.7388871,102.641171 C32.7388871,142.535995 65.0801691,174.877139 104.975161,174.877139 Z" id="Oval" fill="#E1E9F3" transform="translate(104.312258, 104.720415) rotate(-46.819396) translate(-104.312258, -104.720415) "></path>
            <ellipse id="Oval" fill="#BED1F4" transform="translate(103.249691, 118.348817) rotate(-46.819396) translate(-103.249691, -118.348817) " cx="103.249691" cy="118.348817" rx="72.2362738" ry="72.2359679"></ellipse>
            <g id="Group-130" transform="translate(81.513417, 96.666311) rotate(0.000000) translate(-81.513417, -96.666311) translate(31.013417, 47.666311)" fill="#407BF7">
                <path d="M43.4971111,35.7296185 L59.0317937,35.7296185 L59.0317937,-2.27373675e-13 C55.3011991,0.646905849 52.7120854,1.16472641 51.2644524,1.55346167 C46.1778857,2.91936579 43.4971111,4.4585276 43.4971111,4.85456773 C43.4971111,5.89020885 43.4971111,16.1818924 43.4971111,35.7296185 Z" id="Shape"></path>
                <path d="M85.2118782,57.4657038 L85.2118782,82.0487706 L60.4194274,82.0487706 L60.4194274,63.2388398 L44.8778911,63.2388398 L44.8778911,97.7938164 L100.975437,97.8680855 L100.975437,41.9434652 L6.21387302,41.9434652 C5.04213552,44.0981229 4.13594571,45.9752224 3.49530357,47.5747638 C2.85466144,49.1743051 1.94847162,52.4712851 0.776734127,57.4657038 L85.2118782,57.4657038 Z" id="Shape"></path>
            </g>
        </g>
    </g>
</svg>