<svg id="tubes-with-coins-train" viewBox="0 0 3019 1087" version="1.1" xmlns="http://www.w3.org/2000/svg" xmlns:xlink="http://www.w3.org/1999/xlink">
    <g id="Artboard" stroke="none" stroke-width="1" fill="none" fill-rule="evenodd">
        <g id="tubes-with-coins-train" transform="translate(1.000000, 0.000000)">
            <g id="hole" transform="translate(583.819951, 280.347481)" fill-rule="nonzero">
                <ellipse id="Oval-6" stroke="#231F20" stroke-width="3" fill="#407BF7" cx="915.492439" cy="402.097473" rx="915.284939" ry="402.097473"></ellipse>
                <path d="M9.54546343,458.849957 C3.39186969,440.058721 0.20749992,420.847054 0.20749992,401.309288 C0.20749992,179.672288 409.994526,0 915.492439,0 C1420.99035,0 1830.77738,179.672288 1830.77738,401.309288 C1830.77738,420.847054 1827.59301,440.058721 1821.43942,458.849957 C1757.78647,264.472852 1376.42966,115.08134 915.492439,115.08134 C454.555217,115.08134 73.1984041,264.472852 9.54545945,458.84997 L9.54546343,458.849957 Z" id="Combined-Shape" stroke="#231F20" stroke-width="3" fill="#BED1F4"></path>
                <g id="Group-107" transform="translate(0.000000, 6.037500)" fill="#231F20">
                    <polygon id="Path-10" points="768.475571 8.9863872 771.429411 8.9863872 771.429411 65.0584504 768.475571 65.0584504"></polygon>
                    <polygon id="Path-10-Copy" points="792.106298 0 795.060139 0 795.060139 86.3498376 792.106298 86.3498376"></polygon>
                    <polygon id="Path-10-Copy-5" points="408.106973 66.4011275 411.060814 66.4011275 411.060814 92.9615785 408.106973 92.9615785"></polygon>
                    <polygon id="Path-10-Copy-7" points="421.399258 56.5898288 424.353098 56.5898288 424.353098 75.2546112 421.399258 75.2546112"></polygon>
                    <polygon id="Path-10-Copy-6" points="477.522236 103.423546 480.476077 103.423546 480.476077 129.983997 477.522236 129.983997"></polygon>
                    <polygon id="Path-10-Copy-2" points="1096.35192 1.47558061 1099.30576 1.47558061 1099.30576 39.8406765 1096.35192 39.8406765"></polygon>
                    <polygon id="Path-10-Copy-3" points="1630.99713 147.427431 1633.95097 147.427431 1633.95097 243.340171 1630.99713 243.340171"></polygon>
                    <polygon id="Path-10-Copy-4" points="1611.79717 133.672949 1614.75101 133.672949 1614.75101 179.415948 1611.79717 179.415948"></polygon>
                    <path d="M2.1800492,414.615019 L0.1800492,413.615019 C0.1800492,337.617036 38.6387431,288.669798 117.770876,232.074797 L119.490242,234.474484 C41.0841902,290.550194 2.1800492,339.646645 2.1800492,414.615019 Z" id="Path-11"></path>
                    <polygon id="Path-12" points="131.185914 228.649324 129.705932 226.095311 157.767421 209.863925 159.247403 212.417937"></polygon>
                    <path d="M75.374108,291.858815 L73.2717811,289.785752 C91.7932488,271.036895 110.072661,255.242015 128.11204,242.40192 L129.825964,244.805489 C111.931939,257.542124 93.7806466,273.226298 75.374108,291.858815 Z" id="Path-12-Copy"></path>
                </g>
            </g>
            <g id="tubes" transform="translate(10.000000, 111.000000)"></g>
            <g id="right_tube" transform="translate(1142.000000, 0.248996)">
                <path stroke="none" id="tap-right-path" d="M36,634.611194 L36,287.991022 C35.97281,205.670711 52.9981,146.863879 87.07587,111.570524 C138.19252,58.6304928 194.11074,38.4214818 276.97377,38.4214818 C359.8368,38.4214818 495.24633,38.4214818 595.04375,38.4214818 C694.84117,38.4214818 732.93538,57.4346519 781.83717,96.6903243 C830.73895,135.945997 852,216.501201 852,252.928655 C852,277.213624 852,388.009397 852,585.315974 C862.60108,668.060664 880.10574,721.356869 904.51397,745.204591 C928.92221,769.052313 978.43488,781.234451 1053.05201,781.751004 L1323.45232,781.751004"></path>
                <g id="down" transform="translate(1.000000, 1.000000)">
                    <ellipse id="Oval" fill="#BBD0EF" opacity="0.5" cx="35.9385592" cy="578.518873" rx="35.0687631" ry="35.0652674"></ellipse>
                    <ellipse id="Oval" stroke="#231F20" stroke-width="2.41499984" cx="35.9385592" cy="578.518873" rx="35.0687631" ry="35.0652674"></ellipse>
                    <ellipse id="Oval" stroke="#231F20" stroke-width="2.41499984" cx="35.9385592" cy="578.522225" rx="31.2716709" ry="31.2715334"></ellipse>
                    <ellipse id="Oval" stroke="#000D6D" stroke-width="2.41499984" opacity="0.2" cx="856.210384" cy="586.106461" rx="34.5523094" ry="34.5349228"></ellipse>
                    <ellipse id="Oval-Copy-6" stroke="#000D6D" stroke-width="2.41499984" opacity="0.2" cx="1052.4675" cy="780.997901" rx="34.5523094" ry="34.5521631"></ellipse>
                    <ellipse id="Oval-Copy-8" stroke="#000D6D" stroke-width="2.41499984" opacity="0.2" cx="849.990969" cy="226.073266" rx="33.8612632" ry="33.8442244"></ellipse>
                    <ellipse id="Oval-Copy-8" stroke="#000D6D" stroke-width="2.41499984" opacity="0.2" cx="594.303879" cy="36.7267233" rx="35.2433556" ry="35.2256213"></ellipse>
                    <ellipse id="Oval-Copy-8" stroke="#000D6D" stroke-width="2.41499984" opacity="0.2" cx="275.731586" cy="37.4174218" rx="35.9344018" ry="35.9163197"></ellipse>
                    <ellipse id="Oval-Copy-8" stroke="#000D6D" stroke-width="2.23562573" opacity="0.2" cx="35.938559" cy="286.19334" rx="35.2433556" ry="35.2256213"></ellipse>
                </g>
                <g visibility="hidden" id="tap-rg-coin">
                    <g transform="translate(8.000000, 527.751004)" fill-rule="nonzero" stroke="#231F20" stroke-width="2.41499984">
                        <ellipse id="Oval" fill="#0DA6A3" cx="25.9655032" cy="25.3170227" rx="25.9075445" ry="24.5208899"></ellipse>
                        <ellipse id="Oval" fill="#4FE2DF" cx="31.7034157" cy="25.3170227" rx="25.9075445" ry="24.5208899"></ellipse>
                        <ellipse id="Oval" fill="#4FE2DF" cx="31.7034157" cy="25.3170227" rx="15.9966047" ry="15.126523"></ellipse>
                        <path d="M13.2725452,8.12055444 L7.53463263,8.12055444" id="Shape" fill="#29CC86"></path>
                        <path d="M5.79587126,25.3170227 L0.0579587126,25.3170227" id="Shape" fill="#29CC86"></path>
                        <path d="M11.1860315,40.4435457 L5.79587126,40.4435457" id="Shape" fill="#29CC86"></path>
                    </g>
                </g>
                <g id="top">
                    <path d="M71.7804506,575.508306 C69.7902581,558.030994 54.9501512,544.453605 36.9385592,544.453605 C17.6327189,544.453605 1.97052219,560.052343 1.87027998,579.332696 C1.86995751,579.270741 1.86979608,579.208747 1.86979608,579.146715 L1.86979608,292.997435 C1.86979608,103.661536 96.5763318,1.98464508 288.635835,1.98464508 L602.591401,1.98464508 C796.437235,1.98464508 892.022929,104.6054 892.022927,295.704856 L891.381994,633.484311 C891.381994,696.203012 942.200102,746.944346 1004.89976,746.944346 L1262.50321,746.944346 L1262.07848,748.474754 C1260.1938,755.265775 1254.65424,765.863524 1245.44562,780.343561 C1236.27095,794.770195 1227.71197,806.728593 1219.76508,816.220915 L1219.4031,816.653286 L1005.06724,816.653286 C904.078692,816.653286 822.141621,734.757446 822.141624,633.821465 L821.48225,296.178966 C821.48225,224.733682 807.996525,173.180145 778.113351,137.478659 C746.088576,99.2185992 694.601665,78.7520202 619.265518,75.6216445 L439.661454,75.6216445 C437.26179,75.6216445 434.888759,75.3999387 432.563513,74.9629843 L272.166034,74.9619447 C197.479833,78.0642814 146.472025,98.340412 114.745671,136.243948 C85.140822,171.612919 71.7804506,222.68725 71.7804506,293.46943 L71.7804506,575.508306 Z" id="Combined-Shape" fill-opacity="0.5" fill="#BBD0EF"></path>
                    <path d="M71.7804506,575.508306 C69.7902581,558.030994 54.9501512,544.453605 36.9385592,544.453605 C17.6327189,544.453605 1.97052219,560.052343 1.87027998,579.332696 C1.86995751,579.270741 1.86979608,579.208747 1.86979608,579.146715 L1.86979608,292.997435 C1.86979608,103.661536 96.5763318,1.98464508 288.635835,1.98464508 L602.591401,1.98464508 C796.437235,1.98464508 892.022929,104.6054 892.022927,295.704856 L891.381994,633.484311 C891.381994,696.203012 942.200102,746.944346 1004.89976,746.944346 L1262.50321,746.944346 L1262.07848,748.474754 C1260.1938,755.265775 1254.65424,765.863524 1245.44562,780.343561 C1236.27095,794.770195 1227.71197,806.728593 1219.76508,816.220915 L1219.4031,816.653286 L1005.06724,816.653286 C904.078692,816.653286 822.141621,734.757446 822.141624,633.821465 L821.48225,296.178966 C821.48225,224.733682 807.996525,173.180145 778.113351,137.478659 C746.088576,99.2185992 694.601665,78.7520202 619.265518,75.6216445 L439.661454,75.6216445 C437.26179,75.6216445 434.888759,75.3999387 432.563513,74.9629843 L272.166034,74.9619447 C197.479833,78.0642814 146.472025,98.340412 114.745671,136.243948 C85.140822,171.612919 71.7804506,222.68725 71.7804506,293.46943 L71.7804506,575.508306 Z" id="Combined-Shape" stroke="#231F20" stroke-width="2.41499984"></path>
                    <path d="M515.483258,17.4351211 C512.431756,17.3323066 510.041372,14.7752379 510.144187,11.7237482 C510.247002,8.67225855 512.804082,6.28188502 515.855584,6.3846995 C592.624873,8.97129217 636.309544,10.8125793 647.388646,11.9382253 C698.420792,17.1231338 740.683454,30.2902812 774.704117,51.4510546 C781.331142,55.573049 787.645677,59.998636 793.650854,64.7278492 C855.669625,113.569038 884.500446,194.28273 884.500446,309.001104 C884.500446,312.054325 882.025311,314.52945 878.972077,314.52945 C875.918843,314.52945 873.443707,312.054325 873.443707,309.001104 C873.443707,197.356041 845.752518,119.832819 786.810036,73.4142782 C781.126671,68.9384997 775.146407,64.7471885 768.864323,60.8397465 C736.36948,40.6280294 695.714607,27.9617969 646.271021,22.9382874 C635.57255,21.8513139 591.816946,20.007037 515.483258,17.4351211 Z" id="Path" fill="#000D6D" fill-rule="nonzero" opacity="0.300000012"></path>
                    <path d="M871.973403,334.522041 C871.973403,331.468819 874.448538,328.993694 877.501772,328.993694 C880.555006,328.993694 883.030142,331.468819 883.030142,334.522041 L883.030142,627.070923 C883.030142,630.124144 880.555006,632.599269 877.501772,632.599269 C874.448538,632.599269 871.973403,630.124144 871.973403,627.070923 L871.973403,334.522041 Z" id="Path-22" fill="#000D6D" fill-rule="nonzero" opacity="0.300000012"></path>
                    <path d="M884.790919,653.587052 C892.509627,708.908544 946.150034,755.188846 1004.649,755.188846 L1260.85687,755.188846 L1254.07324,766.245538 L1004.649,766.245538 C940.103891,766.245538 881.246364,715.020082 873.618201,653.441366 C873.06792,648.9992 884.164922,649.100407 884.790919,653.587052 Z" id="Path" fill="#000D6D" fill-rule="nonzero" opacity="0.300000012"></path>
                    <path d="M271.399835,66.8130572 L271.629278,66.8082939 C271.591157,66.8098774 271.553043,66.8114651 271.514934,66.8130572 L271.399835,66.8130572 Z M64.0269796,287.354162 L64.0269796,557.56741 C60.5703125,554.225613 57.6132812,550.315457 52.9702406,547.776395 L52.9702406,287.354162 C52.9702406,136.951061 118.309811,62.1106948 271.170393,55.7611283 L431.600247,55.756365 C434.125881,56.2388882 436.181338,56.4340771 438.263469,56.4340771 L620.298624,56.4340771 C774.222414,62.82304 840.6639,140.31318 840.663888,292.894668 L841.342344,616.817589 C841.342344,674.600618 859.860334,720.750687 893.782043,752.347533 C925.90903,782.27266 971.015216,798.169705 1022.78853,798.169705 L1231.67395,798.169705 L1221.9993,809.226397 L1022.78853,809.226397 C968.346714,809.226397 920.532682,792.37501 886.245899,760.438111 C849.988962,726.666085 830.285605,677.561873 830.285617,616.829168 L829.607161,292.906248 C829.607161,146.024819 767.583849,73.649596 620.183517,67.4907693 L438.263469,67.4907693 C435.666681,67.4907693 433.095496,67.262814 430.571441,66.8130572 L271.514889,66.8130572 C124.900385,72.9381067 64.0269796,142.700488 64.0269796,287.354162 Z" id="Path" fill="#FFFFFF" fill-rule="nonzero" opacity="0.5"></path>
                    <path d="M19.6624046,309.258119 L19.6624046,354.162172 C19.6624046,357.215393 17.1872692,359.690518 14.1340351,359.690518 C11.0808009,359.690518 8.60566555,357.215393 8.60566555,354.162172 L8.60566555,309.258119 C8.60566555,226.614498 22.9788658,161.843771 51.8984167,114.973746 C87.094412,65.1796726 133.394352,33.5471223 190.786295,19.9514875 C220.290154,12.9622887 255.850195,8.80923468 294.727718,8.80923468 C329.802433,8.80923468 396.740276,8.66120364 495.536395,8.36514046 C498.589616,8.35599085 501.072157,10.8236874 501.081307,13.8768949 C501.090457,16.9301024 498.62275,19.4126334 495.569529,19.421783 C396.762606,19.7178785 329.816953,19.8659269 294.727718,19.8659269 C256.708301,19.8659269 222.003594,23.9190865 193.33501,30.7104163 C138.639173,43.667368 94.6674005,73.6849277 61.2174197,120.926805 C33.5716042,165.820236 19.6624046,228.588101 19.6624046,309.258119 Z" id="Path" fill="#000D6D" fill-rule="nonzero" opacity="0.300000012"></path>
                    <path d="M7.22357317,377.651498 C7.22357317,374.598277 9.69870851,372.123152 12.7519427,372.123152 C15.8051768,372.123152 18.2803122,374.598277 18.2803122,377.651498 L18.2803122,550.009793 C14.7402344,551.274441 10.2070312,557.112332 7.22357317,560.501004 L7.22357317,377.651498 Z" id="Path" fill="#000D6D" fill-rule="nonzero" opacity="0.300000012"></path>
                    <path d="M892.608398,615.13836 L890.380601,614.378951 C890.380601,596.069299 875.529943,581.226115 857.210384,581.226115 C840.427153,581.226115 826.555397,593.68411 824.346786,609.852307 C824.144611,611.332335 823.3479,614.378951 822.913086,621.658623 L821.275982,614.378951 C821.275982,594.54238 837.364516,578.461942 857.210384,578.461942 C874.005207,578.461942 888.109175,589.978126 892.048831,605.541217 C892.764532,608.368498 892.608398,612.088745 892.608398,615.13836 Z" id="Oval" fill="#231F20" fill-rule="nonzero" transform="translate(856.949394, 600.060282) scale(-1, 1) rotate(-180.000000) translate(-856.949394, -600.060282) "></path>
                    <path d="M1104.17665,796.755334 L1102.28033,803.140223 C1102.28033,798.572717 1101.26737,793.169561 1100.98817,791.438465 C1098.44274,775.656352 1084.75101,763.602497 1068.24225,763.602497 C1050.44157,763.602497 1035.91607,777.616763 1035.10752,795.208145 C1035.08395,795.720921 1034.31988,802.621626 1034.31988,803.140223 L1032.30785,796.755334 C1032.30785,776.918763 1048.39638,760.838324 1068.24225,760.838324 C1088.08812,760.838324 1104.17665,776.918763 1104.17665,796.755334 Z" id="Oval" fill="#231F20" fill-rule="nonzero" transform="translate(1068.242252, 781.989280) scale(-1, 1) rotate(-90.000000) translate(-1068.242252, -781.989280) "></path>
                    <path d="M835.974935,277.611583 L836.516648,275.589883 C837.266613,275.589883 840.521856,275.352097 841.259683,275.304084 C858.920232,274.154854 872.888883,259.466376 872.888883,241.515358 C872.888883,224.470018 860.294189,210.366315 843.90324,208.002649 C842.311162,207.773063 840.083107,207.129894 838.427459,207.129894 L839.02762,204.890065 C859.255296,204.890065 875.653068,221.287767 875.653068,241.515358 C875.653068,260.381447 861.388445,275.915869 843.056255,277.921613 C841.733283,278.066361 837.336442,277.611583 835.974935,277.611583 Z" id="Oval-Copy-8" fill="#231F20" fill-rule="nonzero" transform="translate(855.814001, 241.420062) rotate(75.000000) translate(-855.814001, -241.420062) "></path>
                    <path d="M596.313111,76.9096954 L596.313111,74.5083282 C615.002022,74.5083282 630.174374,57.9620852 630.174374,38.230362 C630.174374,18.4986388 615.002022,2.52427264 596.313111,2.52427264 L596.313111,0.736929 C598.38281,0.736929 601.381602,0.789177993 605.309487,0.893675978 C621.194135,5.11041082 632.938559,20.2357995 632.938559,38.230362 C632.938559,59.4851572 616.552935,76.9096954 596.313111,76.9096954 Z" id="Oval-Copy-8" fill="#231F20" fill-rule="nonzero"></path>
                    <path d="M277.422632,75.442731 L277.422632,73.678558 C296.111543,73.678558 311.283895,57.9112787 311.283895,38.4353516 C311.283895,18.9594246 296.111543,3.19214531 277.422632,3.19214531 L277.422632,1.42797226 C281.09528,1.42797226 284.641022,0.988648197 287.984988,2.03186867 C303.069492,6.73779711 314.04808,21.2629195 314.04808,38.4353516 C314.04808,56.2363053 302.251139,71.1926164 286.312518,75.315741 C283.466731,76.0519111 280.488911,75.442731 277.422632,75.442731 Z" id="Oval-Copy-8" fill="#231F20" fill-rule="nonzero"></path>
                    <path d="M72.2548983,287.902046 L70.4907252,287.902046 C70.4907252,269.200986 55.3305855,254.040783 36.6296054,254.040783 C17.9286253,254.040783 2.7684856,269.200986 2.7684856,287.902046 L1.0043126,287.902046 C1.0043126,283.610809 0.742311924,279.491942 2.0983139,275.665442 C7.13412165,261.454902 20.6932334,251.276598 36.6296054,251.276598 C53.3339815,251.276598 67.4264468,262.459565 71.8288794,277.747346 C72.7574214,280.971779 72.2548983,284.378816 72.2548983,287.902046 Z" id="Oval-Copy-8" fill="#231F20" fill-rule="nonzero"></path>
                    <path d="M72.0073223,579.518873 C72.0073223,560.15286 56.3065023,544.453605 36.9385592,544.453605 C17.5706161,544.453605 1.8697961,560.15286 1.8697961,579.518873" id="Oval" stroke="#231F20" stroke-width="2.41499984"></path>
                    <path d="M68.2102301,579.522225 C68.2102301,562.251434 54.2094261,548.250691 36.9385592,548.250691 C19.6676923,548.250691 5.6668883,562.251434 5.6668883,579.522225" id="Oval" stroke="#231F20" stroke-width="2.41499984"></path>
                </g>
            </g>
            <g id="left_tube" transform="translate(10.452593, 111.601252)">
                <g transform="translate(-55, -75)">
                    <g id="tap-lg-coin" visibility="hidden" stroke-width="2.41499984">
                        <g id="coin" transform="translate(18.438831, 0.000000)" stroke="#231F20" fill-rule="nonzero">
                            <g id="Group">
                                <ellipse id="Oval" fill="#407BF7" cx="25.9655032" cy="25.3170227" rx="25.9075445" ry="24.5208899"></ellipse>
                                <ellipse id="Oval" fill="#407BF7" cx="31.7034157" cy="25.3170227" rx="25.9075445" ry="24.5208899"></ellipse>
                                <ellipse id="Oval" fill="#407BF7" cx="31.7034157" cy="25.3170227" rx="15.9966047" ry="15.126523"></ellipse>
                            </g>
                            <path d="M13.2725452,8.12055444 L7.53463263,8.12055444" id="Shape" fill="#29CC86"></path>
                            <path d="M5.79587126,25.3170227 L0.0579587126,25.3170227" id="Shape" fill="#29CC86"></path>
                            <path d="M11.1860315,40.4435457 L5.79587126,40.4435457" id="Shape" fill="#29CC86"></path>
                        </g>
                    </g>
                </g>
                <g transform="translate(-55, -75)" stroke-width="2.41499984">
                    <g id="tap-lb-coin" visibility="hidden">
                        <g id="coin" transform="translate(18.438831, 0.000000)" stroke="#231F20" fill-rule="nonzero">
                            <g id="Group">
                                <ellipse id="Oval" fill="#0DA6A3" cx="25.9655032" cy="25.3170227" rx="25.9075445" ry="24.5208899"></ellipse>
                                <ellipse id="Oval" fill="#4FE2DF" cx="31.7034157" cy="25.3170227" rx="25.9075445" ry="24.5208899"></ellipse>
                                <ellipse id="Oval" fill="#4FE2DF" cx="31.7034157" cy="25.3170227" rx="15.9966047" ry="15.126523"></ellipse>
                            </g>
                            <path d="M13.2725452,8.12055444 L7.53463263,8.12055444" id="Shape" fill="#29CC86"></path>
                            <path d="M5.79587126,25.3170227 L0.0579587126,25.3170227" id="Shape" fill="#29CC86"></path>
                            <path d="M11.1860315,40.4435457 L5.79587126,40.4435457" id="Shape" fill="#29CC86"></path>
                        </g>
                    </g>
                </g>
                <g id="under" transform="translate(639.000000, 3.000000)">
                    <ellipse id="Oval" stroke="#000D6D" stroke-width="2.23562573" opacity="0.2" cx="35.387941" cy="35.2256213" rx="35.2433556" ry="35.2256213"></ellipse>
                    <ellipse id="Oval" stroke="#000D6D" stroke-width="2.41499984" opacity="0.2" cx="296.6034" cy="285.001196" rx="35.2433556" ry="35.2256213"></ellipse>
                    <ellipse id="4" fill="#FFFFFF" opacity="0.300000012" cx="296.6034" cy="465.072115" rx="35.0687631" ry="35.0686197"></ellipse>
                    <ellipse id="4" stroke="#231F20" stroke-width="2.41499984" cx="296.6034" cy="465.072115" rx="35.0687631" ry="35.0686197"></ellipse>
                    <ellipse id="3" stroke="#231F20" stroke-width="2.41499984" cx="296.6034" cy="465.072115" rx="31.2716709" ry="31.2715334"></ellipse>
                    <path d="M264.124229,465.072115 L266.539229,465.072115 C266.539229,481.676021 279.999416,495.136148 296.6034,495.136148 C313.207385,495.136148 326.667571,481.676021 326.667571,465.072115 L329.082571,465.072115 C329.082571,483.009791 314.54115,497.551148 296.6034,497.551148 C278.665651,497.551148 264.124229,483.009791 264.124229,465.072115 Z" id="Oval" fill="#231F20" fill-rule="nonzero"></path>
                </g>
                <g visibility="hidden">
                    <g id="coin" transform="translate(905.000000, 473.000000)" fill-rule="nonzero" stroke="#231F20" stroke-width="2.41499984">
                        <g id="Group">
                            <g id="Oval">
                                <ellipse fill="#336ADF" cx="26.1081708" cy="25.3170227" rx="26.0498937" ry="24.5208899"></ellipse>
                                <ellipse fill="#407BF7" cx="31.8776103" cy="25.3170227" rx="26.0498937" ry="24.5208899"></ellipse>
                                <ellipse fill="#407BF7" cx="31.8776103" cy="25.3170227" rx="16.0844981" ry="15.126523"></ellipse>
                            </g>
                            <path d="M13.3454712,8.12055444 L7.57603171,8.12055444" id="Shape" fill="#29CC86"></path>
                            <path d="M5.8277167,25.3170227 L0.058277167,25.3170227" id="Shape" fill="#29CC86"></path>
                            <path d="M11.2474932,40.4435457 L5.8277167,40.4435457" id="Shape" fill="#29CC86"></path>
                        </g>
                    </g>
                </g>
                <g id="top">
                    <path d="M970.737356,461.433337 C967.260283,445.185989 952.820153,433.003495 935.534637,433.003495 C918.974137,433.003495 905.025337,444.185467 900.826702,459.410976 L900.826702,293.277285 C900.826702,222.495105 887.46633,171.420774 857.861481,136.051803 C826.135127,98.148267 775.127319,77.8721364 700.491233,74.77084 L38.8158116,74.77084 C17.8530328,74.77084 0.79250008,57.7103795 0.79250008,36.7476844 C0.79250008,17.4369738 16.4370401,1.79250008 35.7478273,1.79250008 L683.971317,1.79250008 C876.030821,1.79250008 970.737356,103.469391 970.737356,292.80529 L970.737356,461.433337 Z" id="Combined-Shape" fill-opacity="0.5" fill="#BBD0EF"></path>
                    <path d="M970.737356,461.433337 C967.260283,445.185989 952.820153,433.003495 935.534637,433.003495 C918.974137,433.003495 905.025337,444.185467 900.826702,459.410976 L900.826702,293.277285 C900.826702,222.495105 887.46633,171.420774 857.861481,136.051803 C826.135127,98.148267 775.127319,77.8721364 700.491233,74.77084 L38.8158116,74.77084 C17.8530328,74.77084 0.79250008,57.7103795 0.79250008,36.7476844 C0.79250008,17.4369738 16.4370401,1.79250008 35.7478273,1.79250008 L683.971317,1.79250008 C876.030821,1.79250008 970.737356,103.469391 970.737356,292.80529 L970.737356,461.433337 Z" id="Combined-Shape" stroke="#231F20" stroke-width="2.41499984"></path>
                    <path d="M842.779944,110.981151 C799.789327,75.9161865 714.505742,60.9308246 614.517932,66.4531805 L25.292244,66.4615931 C22.2390098,66.4615931 19.7638745,63.9864683 19.7638745,60.9332471 C19.7638745,57.8800258 22.2390098,55.404901 25.292244,55.404901 L614.060774,55.404901 C716.460639,49.7687871 804.261494,65.2956953 849.768464,102.413104 C895.445154,139.668942 919.080441,201.44918 920.955582,287.338835 L919.574531,436.78742 L908.518343,445.803045 L909.899555,287.492447 C908.075195,204.612729 885.608339,145.9138 842.779944,110.981151 Z" id="Path-9" fill="#FFFFFF" fill-rule="nonzero" opacity="0.5"></path>
                    <path d="M885.790608,76.6525311 C937.282721,124.473091 963.236904,194.854047 963.801522,287.511009 C963.246603,358.165003 962.830414,411.155498 962.552954,446.482495 L951.567652,437.355009 C951.829313,404.052391 952.221804,354.098464 952.745126,287.493227 C952.197739,197.768449 927.322021,130.312009 878.266475,84.7542808 C829.184149,39.1716829 758.395089,18.2637869 665.58651,22.2297836 L62.6087381,22.2348244 C59.555504,22.2348244 57.0803686,19.7596996 57.0803686,16.7064783 C57.0803686,13.6532571 59.555504,11.1781322 62.6087381,11.1781322 L665.232709,11.1781322 C760.723077,7.11807736 834.346509,28.8765622 885.790608,76.6525311 Z" id="Path-9" fill="#000D6D" fill-rule="nonzero" opacity="0.300000012"></path>
                    <path d="M674.387941,75.629705 C670.941012,75.629705 667.605868,75.9104063 664.444408,74.997592 C649.042274,70.5505046 637.762493,56.0286246 637.762493,38.8172875 C637.762493,18.0731312 654.148117,0.861150344 674.387941,0.861150344 L686.172895,2.67733297 C685.69413,2.67733297 676.473677,2.73187331 672.958765,3.36798628 C654.931628,4.13868591 640.526678,20.0529474 640.526678,38.8172875 C640.526678,58.0749631 655.69903,73.6655508 674.387941,73.6655508 L674.387941,75.629705 Z" id="Shape" fill="#231F20" fill-rule="nonzero"></path>
                    <path d="M917.316606,305.305497 L917.316606,303.541324 C936.017666,303.541324 951.177869,288.381184 951.177869,269.680204 C951.177869,250.979224 936.017666,235.819084 917.316606,235.819084 L917.316606,234.054911 C920.84996,234.054911 924.266452,233.555251 927.499097,234.488945 C942.772638,238.900445 953.942054,252.985952 953.942054,269.680204 C953.942054,286.593043 942.478229,300.828374 926.897048,305.039758 C923.843289,305.865148 920.631372,305.305497 917.316606,305.305497 Z" id="Shape" fill="#231F20" fill-rule="nonzero" transform="translate(935.629330, 269.706134) rotate(-90.000000) translate(-935.629330, -269.706134) "></path>
                    <path d="M968.082571,468.072115 L965.667571,468.072115 C965.667571,451.468209 952.207385,438.008081 935.6034,438.008081 C918.999416,438.008081 905.539229,451.468209 905.539229,468.072115 L903.124229,468.072115 C903.124229,450.134439 917.665651,435.593081 935.6034,435.593081 C953.54115,435.593081 968.082571,450.134439 968.082571,468.072115 Z" id="2" fill="#231F20" fill-rule="nonzero"></path>
                    <path d="M971.879663,468.072115 L969.464663,468.072115 C969.464663,449.371136 954.304461,434.210995 935.6034,434.210995 C916.90234,434.210995 901.742137,449.371136 901.742137,468.072115 L899.327137,468.072115 C899.327137,448.037366 915.568574,431.795995 935.6034,431.795995 C955.638226,431.795995 971.879663,448.037366 971.879663,468.072115 Z" id="1" fill="#231F20" fill-rule="nonzero"></path>
                </g>
            </g>
            <g id="balk" transform="translate(1507.742585, 729.388798) scale(-1, 1) rotate(6.000000) translate(-1507.742585, -729.388798) translate(-2.257415, 674.888798)" fill-rule="nonzero">
                <rect id="Rectangle-5" stroke="#231F20" stroke-width="3" fill="#BED1F4" x="0" y="54.2336711" width="3019.38539" height="53.936933"></rect>
                <rect id="Rectangle-5" stroke="#000000" stroke-width="3" fill="#E1E9F3" x="4.5474735e-13" y="0" width="3019.38539" height="53.936933"></rect>
                <rect stroke="#231F20" stroke-width="2.04067487" fill="#BED1F4" x="0" y="22.1133844" width="3019.38539" height="7"></rect>
                <!-- <path transform="translate(0, 500)" id="tap-carts-path" stroke="red" d="M36.4582111,312.68654 L2981.85808,4.3062582"></path> -->
                <g id="Group-186" transform="translate(471.408265, 61.925551)" fill="#231F20">
                    <polygon id="Path-17" points="106.59413 3.64141275 106.591566 0.87724089 239.990275 0.75352546 239.992838 3.51769732"></polygon>
                    <polygon id="Path-17" points="1838.36694 40.3349348 1838.36438 37.5707629 1971.76309 37.4470475 1971.76565 40.2112193"></polygon>
                    <polygon id="Path-17" points="0.988043222 3.0655398 1.01763852 0.301525188 97.0153404 1.32939841 96.9857451 4.09341302"></polygon>
                </g>
            </g>
            <g id="tap-carts" visibility="visible">
                <g id="carts" transform="translate(-50, -20)" stroke="#231F20" stroke-width="2.41499984">
                    <g visibility="hidden" id="cart-three">
                        <g transform="translate(340.789202, 0.124429)">
                            <g id="cart" transform="translate(0.000000, 19.074999)">
                                <path d="M48.3732332,77.7606248 C75.0890321,77.7606248 96.7464663,56.758494 96.7464663,30.8510527 C96.7464663,4.94361136 0,4.94361136 0,30.8510527 C0,56.758494 21.6574342,77.7606248 48.3732332,77.7606248 Z" id="Oval-3" fill="#407BF7"></path>
                                <ellipse id="Oval-3-Copy" fill="#407BF7" cx="49.0642794" cy="28.00551" rx="47.682187" ry="27.6417305"></ellipse>
                                <ellipse id="Oval-3-Copy" fill="#001135" cx="49.0642794" cy="28.00551" rx="40.7717251" ry="22.1133844"></ellipse>
                            </g>
                            
                            <g id="cart-3-coin" visibility="hidden">
                                <g transform="translate(18.438831, 20.000000)" stroke="#231F20" fill-rule="nonzero">
                                    <g id="Group">
                                        <ellipse id="Oval" fill="#0DA6A3" cx="25.9655032" cy="25.3170227" rx="25.9075445" ry="24.5208899"></ellipse>
                                        <ellipse id="Oval" fill="#4FE2DF" cx="31.7034157" cy="25.3170227" rx="25.9075445" ry="24.5208899"></ellipse>
                                        <ellipse id="Oval" fill="#4FE2DF" cx="31.7034157" cy="25.3170227" rx="15.9966047" ry="15.126523"></ellipse>
                                    </g>
                                    <path d="M13.2725452,8.12055444 L7.53463263,8.12055444" id="Shape" fill="#29CC86"></path>
                                    <path d="M5.79587126,25.3170227 L0.0579587126,25.3170227" id="Shape" fill="#29CC86"></path>
                                    <path d="M11.1860315,40.4435457 L5.79587126,40.4435457" id="Shape" fill="#29CC86"></path>
                                </g>
                            </g>
                        </g>
                    </g>
                    <g visibility="hidden" id="cart-two">
                        <g transform="translate(115.639970, 44.426159)">
                            <!-- <g id="tap-cart-inner">
                                <path d="M48.3732332,77.3968453 C75.0890321,77.3968453 96.7464663,56.3947145 96.7464663,30.4872732 C96.7464663,4.57983186 0,4.57983186 0,30.4872732 C0,56.3947145 21.6574342,77.3968453 48.3732332,77.3968453 Z" id="Oval-3" fill="#407BF7"></path>
                                <ellipse id="Oval-3-Copy" fill="#407BF7" cx="47.682187" cy="27.6417305" rx="47.682187" ry="27.6417305"></ellipse>
                                <ellipse id="Oval-3-Copy" fill="#001135" cx="47.682187" cy="27.6417305" rx="40.7717251" ry="22.1133844"></ellipse>
                            </g> -->
                            <g id="cart">
                            <g  transform="translate(0.073697, 4.573841)">
                                <path d="M48.3732332,77.3401531 C75.0890321,77.3401531 96.7464663,56.3380223 96.7464663,30.430581 C96.7464663,4.52313967 0,4.52313967 0,30.430581 C0,31.1613435 0.0172309983,31.8882032 0.0513204842,32.610799 C1.19509133,56.8553407 21.3170943,76.2997573 46.3473126,77.2997581 C47.0191739,77.3266002 47.6945714,77.3401531 48.3732332,77.3401531 Z" id="3" fill="#407BF7"></path>
                                <path d="M48.5,56 C75.2858104,56 97,43.463973 97,28 C97,12.536027 75.2858104,0 48.5,0 C21.7141896,0 0,12.536027 0,28 C0,43.2635359 21.1549384,55.6745353 47.4610352,55.9937027 C47.8064806,55.9978939 48.1528143,56 48.5,56 Z" id="2" fill="#407BF7"></path>
                                <path d="M48.7717251,49.1078744 C71.2893271,49.1078744 89.5434502,39.457848 89.5434502,27.5539372 C89.5434502,15.6500264 71.2893271,6 48.7717251,6 C26.2541231,6 8,15.6500264 8,27.5539372 C8,39.2904091 25.7442142,48.8359563 47.8241052,49.1021672 C48.139109,49.1059652 48.4549953,49.1078744 48.7717251,49.1078744 Z" id="1" fill="#001135"></path>
                            </g>
                            </g>
                            <!-- <rect id="Rectangle" x="0.5" y="0.574999" width="97" height="223"></rect> -->
                            <g id="cart-2-coin">
                                <g transform="translate(18.056739, 0.000000)">
                                    <g id="Group">
                                        <ellipse id="Oval" fill="#407BF7" cx="25.9655032" cy="25.3170227" rx="25.9075445" ry="24.5208899"></ellipse>
                                        <ellipse id="Oval" fill="#407BF7" cx="31.7034157" cy="25.3170227" rx="25.9075445" ry="24.5208899"></ellipse>
                                        <ellipse id="Oval" fill="#407BF7" cx="31.7034157" cy="25.3170227" rx="15.9966047" ry="15.126523"></ellipse>
                                    </g>
                                    <path d="M13.2725452,8.12055444 L7.53463263,8.12055444" id="Shape" fill="#29CC86"></path>
                                    <path d="M5.79587126,25.3170227 L0.0579587126,25.3170227" id="Shape" fill="#29CC86"></path>
                                    <path d="M11.1860315,40.4435457 L5.79587126,40.4435457" id="Shape" fill="#29CC86"></path>
                                </g>
                            </g>
                        </g>
                    </g>
                    <g visibility="hidden" id="cart-one">
                        <g transform="translate(0.926303, 52.426159)">
                            <!-- <g id="cart" transform="translate(0.000000, 4.074999)">
                                <path d="M48.3732332,77.7606248 C75.0890321,77.7606248 96.7464663,56.758494 96.7464663,30.8510527 C96.7464663,4.94361136 0,4.94361136 0,30.8510527 C0,56.758494 21.6574342,77.7606248 48.3732332,77.7606248 Z" id="Oval-3" fill="#407BF7"></path>
                                <ellipse id="Oval-3-Copy" fill="#407BF7" cx="47.682187" cy="28.00551" rx="47.682187" ry="27.6417305"></ellipse>
                                <ellipse id="Oval-3-Copy" fill="#001135" cx="47.682187" cy="28.00551" rx="40.7717251" ry="22.1133844"></ellipse>
                            </g> -->
                            <g id="cart" transform="translate(0.073697, 4.573841)">
                                <path d="M48.3732332,77.3401531 C75.0890321,77.3401531 96.7464663,56.3380223 96.7464663,30.430581 C96.7464663,4.52313967 0,4.52313967 0,30.430581 C0,31.1613435 0.0172309983,31.8882032 0.0513204842,32.610799 C1.19509133,56.8553407 21.3170943,76.2997573 46.3473126,77.2997581 C47.0191739,77.3266002 47.6945714,77.3401531 48.3732332,77.3401531 Z" id="3" fill="#407BF7"></path>
                                <path d="M48.5,56 C75.2858104,56 97,43.463973 97,28 C97,12.536027 75.2858104,0 48.5,0 C21.7141896,0 0,12.536027 0,28 C0,43.2635359 21.1549384,55.6745353 47.4610352,55.9937027 C47.8064806,55.9978939 48.1528143,56 48.5,56 Z" id="2" fill="#407BF7"></path>
                                <path d="M48.7717251,49.1078744 C71.2893271,49.1078744 89.5434502,39.457848 89.5434502,27.5539372 C89.5434502,15.6500264 71.2893271,6 48.7717251,6 C26.2541231,6 8,15.6500264 8,27.5539372 C8,39.2904091 25.7442142,48.8359563 47.8241052,49.1021672 C48.139109,49.1059652 48.4549953,49.1078744 48.7717251,49.1078744 Z" id="1" fill="#001135"></path>
                            </g>
                            
                            <g id="cart-1-coin">
                                <g transform="translate(18.056739, 0.000000)">
                                    <g id="Group">
                                        <ellipse id="Oval" fill="#0DA6A3" cx="25.9655032" cy="25.3170227" rx="25.9075445" ry="24.5208899"></ellipse>
                                        <ellipse id="Oval" fill="#4FE2DF" cx="31.7034157" cy="25.3170227" rx="25.9075445" ry="24.5208899"></ellipse>
                                        <ellipse id="Oval" fill="#4FE2DF" cx="31.7034157" cy="25.3170227" rx="15.9966047" ry="15.126523"></ellipse>
                                    </g>
                                    <path d="M13.2725452,8.12055444 L7.53463263,8.12055444" id="Shape" fill="#29CC86"></path>
                                    <path d="M5.79587126,25.3170227 L0.0579587126,25.3170227" id="Shape" fill="#29CC86"></path>
                                    <path d="M11.1860315,40.4435457 L5.79587126,40.4435457" id="Shape" fill="#29CC86"></path>
                                </g>
                            </g>
                        </g>
                    </g>
                </g>
            </g>
        </g>
        <g id="passes" transform="translate(-44.000000, 38.000000)" stroke="#FF0000">
            <g id="tap-rfake-coin" visibility="hidden">
                <g id="coin" transform="translate(18.438831, 0.000000)" stroke="#231F20" fill-rule="nonzero">
                    <g id="Group">
                        <ellipse id="Oval" fill="#0DA6A3" cx="25.9655032" cy="25.3170227" rx="25.9075445" ry="24.5208899"></ellipse>
                        <ellipse id="Oval" fill="#4FE2DF" cx="31.7034157" cy="25.3170227" rx="25.9075445" ry="24.5208899"></ellipse>
                        <ellipse id="Oval" fill="#4FE2DF" cx="31.7034157" cy="25.3170227" rx="15.9966047" ry="15.126523"></ellipse>
                    </g>
                    <path d="M13.2725452,8.12055444 L7.53463263,8.12055444" id="Shape" fill="#29CC86"></path>
                    <path d="M5.79587126,25.3170227 L0.0579587126,25.3170227" id="Shape" fill="#29CC86"></path>
                    <path d="M11.1860315,40.4435457 L5.79587126,40.4435457" id="Shape" fill="#29CC86"></path>
                </g>
            </g>
            <path d="M3050.66436,500.904031 L1223.1525,693.426346" id="cart-3-path" stroke="none"></path>
            <path d="M1223.19082,693.404896 L47.9980493,817.034522" id="cart-3-leave-path" stroke="none"></path>
            <path d="M3050.89414,501.154027 L997.584396,717.121318" id="cart-2-path" stroke="none"></path>
            <path id="cart-2-leave-path" stroke="none" d="M997.690997 717.155717 1037.4885 713.329006 48.0726046 817.061192"></path>
            <path d="M3050.60798,501.845716 L884.24316,728.888436" id="cart-1-path" stroke="none"></path>
            <path id="cart-1-leave-path" stroke="none" d="M884.503385 728.998764 918.009991 725.249935 47.8403524 816.93565"></path>


            <path stroke="none" id="tap-right-fake-path" d="M1222.95027,597.431611 L1222.95027,646.493501"></path>
            <!-- <path stroke="green" id="tap-right-fake-path" d="M1223.06815,487.06375 L1223.06815,536.690176"></path> -->
            <path stroke="none" id="tap-carts-path" d="M3050.97797,497.496689 L47.6298773,813.287181"></path>
            <path stroke="none" id="tap-left-path" d="M0.995705093,111.999204 L735.729155,112 C823.594614,112.263021 887.939453,133.766276 928.763672,176.509766 C990,240.625 991,336.586056 991,362.267637 C991,379.388692 991,462.490654 991,658.036545"></path>
            <!-- <path stroke="none" id="tap-left-path" d="M0.995705093,111.999204 L735.729155,112 C823.594614,112.263021 887.939453,133.766276 928.763672,176.509766 C990,240.625 991,336.586056 991,362.267637 C991,379.388692 991,485.722164 991,681.268055" id="Path_left"></path> -->
        </g>
    </g>
</svg>
