<svg id="tubes-coins-train-tablet" viewBox="0 0 2518 870" version="1.1" xmlns="http://www.w3.org/2000/svg" xmlns:xlink="http://www.w3.org/1999/xlink">
    <defs>
        <path d="M745.369989,240.395283 L745.369989,385.414227 C745.369989,400.854249 757.878414,413.362621 773.318502,413.362621 C788.758589,413.362621 801.267015,400.854249 801.267015,385.414227 L801.267015,240.004397 C801.267015,90.6857004 729.734457,0 564.779596,0 L27.9485131,0 C12.5084254,0 0,12.5083725 0,27.9483947 C0,44.7565202 13.6810903,58.4375526 30.489287,58.4375526 L578.460687,58.4375526 C705.499383,63.7145223 745.369989,128.797148 745.369989,240.395283 Z" id="tubes-coins-train-tablet-path1"></path>
        <ellipse id="tubes-coins-train-tablet-path3" cx="28.0424559" cy="28.0423371" rx="28.0424559" ry="28.0423371"></ellipse>
        <ellipse id="tubes-coins-train-tablet-path4" cx="28.0424559" cy="28.0423371" rx="26.8978658" ry="26.8977519"></ellipse>
    </defs>
    <g stroke="none" stroke-width="1" fill="none" fill-rule="evenodd" transform="translate(1.000000, 2.000000)">
        <g id="hole" transform="translate(580.000000, 201.000000)">
            <ellipse id="Oval-6" stroke="#231F20" stroke-width="2" fill="#407BF7" cx="758" cy="333" rx="758" ry="333"></ellipse>
            <path d="M7.73330363,379.99999 C2.63715941,364.437888 0,348.527604 0,332.347258 C0,148.796936 339.36816,0 758,0 C1176.63184,0 1516,148.796936 1516,332.347258 C1516,348.527604 1513.36284,364.437888 1508.2667,379.99999 C1455.55204,219.025151 1139.72857,95.3054637 758,95.3054637 C376.271426,95.3054637 60.4479578,219.025151 7.73330033,380 L7.73330363,379.99999 Z" id="Combined-Shape" stroke="#231F20" stroke-width="1.69" fill="#BED1F4"></path>
            <g id="Group-107" transform="translate(0.000000, 5.000000)" fill="#231F20" fill-rule="nonzero">
                <polygon id="Path-10" points="636.246891 7.4421431 638.693137 7.4421431 638.693137 53.8786375 636.246891 53.8786375"></polygon>
                <polygon id="Path-10-Copy" points="655.816854 0 658.263099 0 658.263099 71.5112574 655.816854 71.5112574"></polygon>
                <polygon id="Path-10-Copy-5" points="337.804969 54.9905854 340.251214 54.9905854 340.251214 76.9868196 337.804969 76.9868196"></polygon>
                <polygon id="Path-10-Copy-7" points="348.813073 46.8652857 351.259318 46.8652857 351.259318 62.3226635 348.813073 62.3226635"></polygon>
                <polygon id="Path-10-Copy-6" points="395.291733 85.6509757 397.737978 85.6509757 397.737978 107.64721 395.291733 107.64721"></polygon>
                <polygon id="Path-10-Copy-2" points="907.780116 1.22201301 910.226361 1.22201301 910.226361 32.9943512 907.780116 32.9943512"></polygon>
                <polygon id="Path-10-Copy-3" points="1350.55051 122.093119 1352.99675 122.093119 1352.99675 201.523964 1350.55051 201.523964"></polygon>
                <polygon id="Path-10-Copy-4" points="1334.64991 110.702242 1337.09616 110.702242 1337.09616 148.584646 1334.64991 148.584646"></polygon>
                <path d="M2,347 L0,347 C0,284.061708 31.8271186,239.064031 97.3609807,192.194461 L98.7848857,194.18178 C33.8523338,240.621295 2,284.914386 2,347 Z" id="Path-11"></path>
                <polygon id="Path-12" points="108.470743 189.357631 107.245085 187.242506 130.484415 173.800363 131.710073 175.915488"></polygon>
                <path d="M62.249783,241.705039 L60.5087255,239.988217 C75.8474161,224.461211 90.985647,211.380565 105.925092,200.746945 L107.344491,202.737478 C92.5254216,213.285417 77.4932943,226.274382 62.249783,241.705039 Z" id="Path-12-Copy"></path>
            </g>
        </g>
        <g id="tubes" transform="translate(380.000000, 0.000000)">
            <g id="right_tube" transform="translate(0.000000, 191.206208)">
                <g id="Group-106" transform="translate(416.058478, 320.812735) scale(-1, 1) translate(-416.058478, -320.812735) translate(0.572295, 0.328883)"></g>
            </g>
            <g id="left_tube" transform="translate(143.646049, 0.564190)">
                <mask id="mask-2" fill="white">
                    <use xlink:href="#tubes-coins-train-tablet-path1"></use>
                </mask>
                <g id="Shape" fill-rule="nonzero">
                    <use fill-opacity="0.5" fill="#BBD0EF" fill-rule="evenodd" xlink:href="#tubes-coins-train-tablet-path1"></use>
                    <path stroke="#231F20" stroke-width="2" d="M744.369989,240.395283 C744.369989,181.776496 733.305498,139.478911 708.788023,110.187836 C682.513608,78.7977419 640.271114,62.0059142 578.460687,59.4375526 L30.489287,59.4375526 C13.1288065,59.4375526 -1,45.3088059 -1,27.9483947 C-1,11.9560868 11.9561416,-1 27.9485131,-1 L564.779596,-1 C723.835096,-1 802.267015,83.2044699 802.267015,240.004397 L802.267015,385.414227 C802.267015,401.406535 789.310873,414.362621 773.318502,414.362621 C757.32613,414.362621 744.369989,401.406535 744.369989,385.414227 L744.369989,240.395283 Z"></path>
                </g>
                <g id="Group-210" mask="url(#mask-2)">
                    <g transform="translate(526.511416, -2.289170)" id="Oval-Copy-8">
                        <ellipse stroke="#000D6D" stroke-width="1.85145" fill="none" opacity="0.2" cx="30.3316359" cy="31.4615295" rx="29.1870459" ry="29.1723591"></ellipse>
                        <path d="M0,62.9521853 L0,60.6630149 C15.4773603,60.6630149 28.0424559,47.6052259 28.0424559,31.4760927 C28.0424559,15.3469595 15.4773603,2.28917038 0,2.28917038 L0,0 C16.7617604,0 30.3316359,14.1019678 30.3316359,31.4760927 C30.3316359,48.8502175 16.7617604,62.9521853 0,62.9521853 Z" stroke="none" fill="#231F20" fill-rule="nonzero" transform="translate(15.165818, 31.476093) scale(-1, 1) translate(-15.165818, -31.476093) "></path>
                    </g>
                </g>
                <g id="Group-209" mask="url(#mask-2)">
                    <g transform="translate(742.777559, 204.880749)" id="Oval-Copy-8">
                        <ellipse stroke="#000D6D" stroke-width="2" fill="none" opacity="0.2" cx="30.39301" cy="30.3169443" rx="29.1870459" ry="29.1723591"></ellipse>
                        <path d="M15.227192,45.4972612 L15.227192,43.2080908 C30.7146127,43.2080908 43.2696478,30.6531089 43.2696478,15.1657537 C43.2696478,-0.321601391 30.7146127,-12.8765834 15.227192,-12.8765834 L15.227192,-15.1657537 C31.9788919,-15.1657537 45.5588279,-1.58587528 45.5588279,15.1657537 C45.5588279,31.9173828 31.9788919,45.4972612 15.227192,45.4972612 Z" stroke="none" fill="#231F20" fill-rule="nonzero" transform="translate(30.393010, 15.165754) rotate(-90.000000) translate(-30.393010, -15.165754) "></path>
                    </g>
                </g>
                <path d="M731.917736,60.1677316 C774.561311,99.7706822 796.055459,158.057192 796.523053,234.791742 L795.378463,380.524399 C795.354903,383.052838 793.286092,385.083443 790.757644,385.059884 C788.229195,385.036325 786.198581,382.967523 786.22214,380.439085 L787.366616,234.777015 C786.913293,160.470776 766.312283,104.606225 725.68657,66.8772556 C685.038678,29.1276896 626.414194,11.8126607 549.554082,15.0971303 L50.1935753,15.1013049 C47.6650168,15.1013049 45.6152151,13.0515119 45.6152151,10.5229641 C45.6152151,7.99441633 47.6650168,5.94462336 50.1935753,5.94462336 L549.261079,5.94462336 C628.342134,2.58225885 689.313925,20.6017092 731.917736,60.1677316 Z" id="Path-9" fill="#000D6D" fill-rule="nonzero" opacity="0.300000012" mask="url(#mask-2)"></path>
                <path d="M696.298136,88.5972323 C660.695138,59.5579224 590.066906,47.1476839 507.261261,51.7210639 L19.2896443,51.7280309 C16.7610858,51.7280309 14.7112842,49.6782379 14.7112842,47.1496901 C14.7112842,44.6211423 16.7610858,42.5713494 19.2896443,42.5713494 L506.882662,42.5713494 C591.685869,37.90376 664.398797,50.7624839 702.085731,81.5015405 C739.91322,112.355239 759.486958,163.519 761.03987,234.649154 L759.896142,372.266512 C759.870884,374.794934 757.80071,376.82415 755.272277,376.798892 C752.743845,376.773635 750.714621,374.703469 750.739878,372.175047 L751.883739,234.776369 C750.372882,166.138917 731.766789,117.526965 696.298136,88.5972323 Z" id="Path-9" fill="#FFFFFF" fill-rule="nonzero" opacity="0.5" mask="url(#mask-2)"></path>
                <g id="Group-108" mask="url(#mask-2)">
                    <g transform="translate(745.128113, 357.110579)" id="Oval-Copy-8">
                        <g>
                            <use fill-opacity="0.5" fill="#BBD0EF" fill-rule="evenodd" xlink:href="#tubes-coins-train-tablet-path3"></use>
                            <ellipse stroke="#231F20" stroke-width="2" cx="28.0424559" cy="28.0423371" rx="29.0424559" ry="29.0423371"></ellipse>
                        </g>
                        <g>
                            <use fill="#73A0FF" fill-rule="evenodd" xlink:href="#tubes-coins-train-tablet-path4"></use>
                            <ellipse stroke="#231F20" stroke-width="2" cx="28.0424559" cy="28.0423371" rx="25.8978658" ry="25.8977519"></ellipse>
                        </g>
                    </g>
                </g>
            </g>
        </g>
        <g id="balk" transform="translate(1258.034348, 549.681958) scale(-1, 1) rotate(6.000000) translate(-1258.034348, -549.681958) translate(-1.465652, 504.681958)">
            <rect id="Rectangle-5" stroke="#231F20" stroke-width="1.69" fill="#BED1F4" x="0" y="44.9140163" width="2518.83981" height="44.6682705"></rect>
            <rect id="Rectangle-5" stroke="#000000" stroke-width="2" fill="#E1E9F3" x="2.27373675e-13" y="0" width="2518.83981" height="44.6682705"></rect>
            <rect id="Rectangle-5" stroke="#231F20" stroke-width="1.69" fill="#BED1F4" x="0" y="18.313363" width="2518.83981" height="5.72292594"></rect>
            <g id="Group-186" transform="translate(390.400245, 51.284103)" fill="#231F20" fill-rule="nonzero">
                <polygon id="Path-17" points="88.2767179 3.01566293 88.2745948 0.726493539 198.749723 0.624037689 198.751846 2.91320708"></polygon>
                <polygon id="Path-17" points="1522.45719 33.4036749 1522.45507 31.1145055 1632.9302 31.0120496 1632.93232 33.301219"></polygon>
                <polygon id="Path-17" points="0.81825531 2.53874948 0.842764876 0.249710317 80.3439725 1.10095114 80.319463 3.3899903"></polygon>
            </g>
        </g>
        <g id="carts" transform="translate(974.000000, 391.000000)" stroke="#231F20" stroke-width="2">
            <g id="3" transform="translate(282.227101, 0.103047)">
                <g id="cart" transform="translate(0.000000, 64.000000)">
                    <path d="M40.0606512,64.3980372 C62.185538,64.3980372 80.1213025,47.0049671 80.1213025,25.5495277 C80.1213025,4.09408835 0,4.09408835 0,25.5495277 C0,47.0049671 17.9357645,64.3980372 40.0606512,64.3980372 Z" id="Oval-3" fill="#407BF7"></path>
                    <ellipse id="Oval-3-Copy" fill="#407BF7" cx="40.6329463" cy="23.1929704" rx="39.4883562" ry="22.8917038"></ellipse>
                    <ellipse id="Oval-3-Copy" fill="#001135" cx="40.6329463" cy="23.1929704" rx="33.765406" ry="18.313363"></ellipse>
                </g>
                <g id="coin" transform="translate(10.000000, 0.000000)" fill-rule="nonzero">
                    <g id="Group">
                        <ellipse id="Oval" fill="#0DA6A3" cx="26.6643695" cy="25.998435" rx="26.6048508" ry="25.1808741"></ellipse>
                        <ellipse id="Oval" fill="#4FE2DF" cx="32.556719" cy="25.998435" rx="26.6048508" ry="25.1808741"></ellipse>
                        <ellipse id="Oval" fill="#4FE2DF" cx="32.556719" cy="25.998435" rx="16.4271562" ry="15.5336561"></ellipse>
                    </g>
                    <path d="M13.6297781,8.33912065 L7.73742864,8.33912065" id="Shape" fill="#29CC86"></path>
                    <path d="M5.95186818,25.998435 L0.0595186818,25.998435" id="Shape" fill="#29CC86"></path>
                    <path d="M11.4871056,41.5320911 L5.95186818,41.5320911" id="Shape" fill="#29CC86"></path>
                </g>
            </g>
            <g id="2" transform="translate(95.768097, 84.994751)">
                <path d="M40.0606512,64.0967705 C62.185538,64.0967705 80.1213025,46.7037004 80.1213025,25.248261 C80.1213025,3.79282166 0,3.79282166 0,25.248261 C0,46.7037004 17.9357645,64.0967705 40.0606512,64.0967705 Z" id="Oval-3" fill="#407BF7"></path>
                <ellipse id="Oval-3-Copy" fill="#407BF7" cx="39.4883562" cy="22.8917038" rx="39.4883562" ry="22.8917038"></ellipse>
                <ellipse id="Oval-3-Copy" fill="#001135" cx="39.4883562" cy="22.8917038" rx="33.765406" ry="18.313363"></ellipse>
            </g>
            <g id="1" transform="translate(0.767124, 84.994751)">
                <g id="cart" transform="translate(0.000000, 10.000000)">
                    <path d="M40.0606512,64.3980372 C62.185538,64.3980372 80.1213025,47.0049671 80.1213025,25.5495277 C80.1213025,4.09408835 0,4.09408835 0,25.5495277 C0,47.0049671 17.9357645,64.3980372 40.0606512,64.3980372 Z" id="Oval-3" fill="#407BF7"></path>
                    <ellipse id="Oval-3-Copy" fill="#407BF7" cx="39.4883562" cy="23.1929704" rx="39.4883562" ry="22.8917038"></ellipse>
                    <ellipse id="Oval-3-Copy" fill="#001135" cx="39.4883562" cy="23.1929704" rx="33.765406" ry="18.313363"></ellipse>
                </g>
                <g id="coin" transform="translate(9.156720, 0.000000)" fill-rule="nonzero">
                    <g id="Group">
                        <ellipse id="Oval" fill="#0DA6A3" cx="26.6643695" cy="25.998435" rx="26.6048508" ry="25.1808741"></ellipse>
                        <ellipse id="Oval" fill="#4FE2DF" cx="32.556719" cy="25.998435" rx="26.6048508" ry="25.1808741"></ellipse>
                        <ellipse id="Oval" fill="#4FE2DF" cx="32.556719" cy="25.998435" rx="16.4271562" ry="15.5336561"></ellipse>
                    </g>
                    <path d="M13.6297781,8.33912065 L7.73742864,8.33912065" id="Shape" fill="#29CC86"></path>
                    <path d="M5.95186818,25.998435 L0.0595186818,25.998435" id="Shape" fill="#29CC86"></path>
                    <path d="M11.4871056,41.5320911 L5.95186818,41.5320911" id="Shape" fill="#29CC86"></path>
                </g>
            </g>
        </g>
        <g id="coin" transform="translate(1080.000000, 465.000000)" fill-rule="nonzero" stroke="#231F20" stroke-width="2">
            <g id="Group">
                <g id="Oval">
                    <ellipse fill="#336ADF" cx="26.6643695" cy="25.998435" rx="26.6048508" ry="25.1808741"></ellipse>
                    <ellipse fill="#407BF7" cx="32.556719" cy="25.998435" rx="26.6048508" ry="25.1808741"></ellipse>
                    <ellipse fill="#407BF7" cx="32.556719" cy="25.998435" rx="16.4271562" ry="15.5336561"></ellipse>
                </g>
                <path d="M13.6297781,8.33912065 L7.73742864,8.33912065" id="Shape" fill="#29CC86"></path>
                <path d="M5.95186818,25.998435 L0.0595186818,25.998435" id="Shape" fill="#29CC86"></path>
                <path d="M11.4871056,41.5320911 L5.95186818,41.5320911" id="Shape" fill="#29CC86"></path>
            </g>
        </g>
    </g>
</svg>