<svg xmlns:dc="http://purl.org/dc/elements/1.1/" xmlns:cc="http://creativecommons.org/ns#" xmlns:rdf="http://www.w3.org/1999/02/22-rdf-syntax-ns#" xmlns:svg="http://www.w3.org/2000/svg" xmlns="http://www.w3.org/2000/svg" xml:space="preserve" version="1.1" width="275.61334" height="76.919998" style=""><rect id="backgroundrect" width="100%" height="100%" x="0" y="0" fill="none" stroke="none"/><metadata id="metadata8"><rdf:RDF><cc:Work rdf:about=""><dc:format>image/svg+xml</dc:format><dc:type rdf:resource="http://purl.org/dc/dcmitype/StillImage"/></cc:Work></rdf:RDF></metadata><defs id="defs6"/><g class="currentLayer" style=""><title>Layer 1</title><g id="g10" class=""><g id="g12" stroke-width="0"><path id="path14" style="fill:#ffffff;fill-opacity:1;fill-rule:nonzero;stroke:none" d="m81.44749319240483,38.69741122573984 h-0.10319999895779983 L76.94069323791827,22.3692780573017 H70.77042663356414 L66.40322667766779,38.69741122573984 h-0.10413333228170757 L62.41629338459785,22.3692780573017 H56.03709344902036 L63.004826711987675,46.913544476099766 h5.894266607141416 l4.853066617656328,-16.60519983230676 h0.10413333228170757 L78.70895988672751,46.913544476099766 h5.8593332741608695 l7.002666595947863,-24.544266418798067 H85.40055981915012 L81.44749319240483,38.69741122573984 " stroke-width="0"/><path id="path16" style="fill:#ffffff;fill-opacity:1;fill-rule:nonzero;stroke:none" d="m110.28855956781021,31.660477963471372 h-9.567599903378348 v-9.291199906169666 H94.79389305762167 V46.913544476099766 h5.9270666068101745 v-10.260933229709819 H110.28855956781021 V46.913544476099766 h5.928133273466068 V22.3692780573017 H110.28855956781021 v9.291199906169666 " stroke-width="0"/><path id="path18" style="fill:#ffffff;fill-opacity:1;fill-rule:nonzero;stroke:none" d="m128.90589271313007,37.345811239389434 l3.1213333018114904,-8.42439991492334 l3.049333302538607,8.42439991492334 zm0.34799999648560415,-14.976533182087733 l-10.297599896006195,24.544266418798067 h6.44826660154666 l1.8026666484618261,-4.81813328467578 h9.49866657074116 l1.906666647411547,4.81813328467578 h6.587999933468848 l-10.1933332303925,-24.544266418798067 h-5.753333275231346 " stroke-width="0"/><path id="path20" style="fill:#ffffff;fill-opacity:1;fill-rule:nonzero;stroke:none" d="m153.90055912737964,22.3692780573017 h-5.9626666064506555 V46.913544476099766 h15.461333177191815 v-5.1650666145054895 h-9.49866657074116 v-19.379199804292575 " stroke-width="0"/><path id="path22" style="fill:#ffffff;fill-opacity:1;fill-rule:nonzero;stroke:none" d="m172.58722560533266,36.7563445786757 h10.190666563752766 v-4.7494666187025665 h-10.190666563752766 v-4.64533328642086 h10.779999891134514 v-4.992266616250569 H166.86589232977815 V46.913544476099766 h17.12533316038735 v-5.0609332822237825 h-11.403999884832839 v-5.09626661520029 " stroke-width="0"/><path id="path24" style="fill:#ffffff;fill-opacity:1;fill-rule:nonzero;stroke:none" d="M193.9072253900254,22.3692780573017 H191.41122541523214 V46.913544476099766 h13.935999859262578 v-2.218666644260709 h-11.43999988446928 v-22.32559977453736 " stroke-width="0"/><path id="path26" style="fill:#ffffff;fill-opacity:1;fill-rule:nonzero;stroke:none" d="m211.36322521374007,35.23074459408249 h11.890666546584738 v-2.2182666442647485 h-11.890666546584738 v-8.42439991492334 h12.722666538182503 v-2.2187999775926963 H208.86722523894676 V46.913544476099766 h15.633333175454815 v-2.218666644260709 h-13.137333200661518 v-9.464133237756574 " stroke-width="0"/><path id="path28" style="fill:#ffffff;fill-opacity:1;fill-rule:nonzero;stroke:none" d="m246.86055818859154,43.27394451285551 h-0.06933333263314716 l-14.282666522428315,-20.9046664555538 h-3.119999968491622 V46.913544476099766 h2.4959999747932975 v-21.11199978679331 h0.06933333263314716 l14.282666522428315,21.11199978679331 h3.119999968491622 v-24.544266418798067 h-2.4959999747932975 V43.27394451285551 " stroke-width="0"/><path id="path30" style="fill:#ffffff;fill-opacity:1;fill-rule:nonzero;stroke:none" d="m272.0218912678246,38.35114456257006 c-0.45066666211545664,1.2019999878611958 -1.1266666552886413,2.270266643739609 -2.0279999795195547,3.206666634283056 c-0.901333324230913,0.9359999905474867 -2.0399999793983685,1.6933333162326325 -3.4146666321824974,2.2709333103995433 c-1.3746666527841294,0.5781333274948579 -2.9866666365048005,0.8661333245863924 -4.835999951162015,0.8661333245863924 h-4.957333283270022 v-20.10679979694466 h4.957333283270022 c1.8493333146572137,0 3.4613332983778853,0.2901333304033234 4.835999951162015,0.8666666579143396 c1.3746666527841294,0.5781333274948579 2.5133333079515845,1.335466653180004 3.4146666321824974,2.270799977067556 c0.901333324230913,0.9365333238754338 1.577333317404098,2.0051999797498077 2.0279999795195547,3.2073333009429903 c0.45066666211545664,1.201599987865235 0.6759999931731852,2.4379999753790305 0.6759999931731852,3.7087999625454255 c0,1.2713333204943427 -0.22533333105772838,2.507866641340125 -0.6759999931731852,3.7094666292053597 zm2.1666666447858485,-9.06573324177995 c-0.7626666589646187,-1.5363999844841436 -1.7626666488657798,-2.818666638201406 -2.9986666363836143,-3.8478666278076807 c-1.237333320837703,-1.027599989622433 -2.6239999735006467,-1.7963999818584455 -4.1599999579888305,-2.3051999767201563 c-1.5373333178080513,-0.5083999948657503 -3.067999969016762,-0.7630666589605793 -4.593333286946,-0.7630666589605793 h-8.146666584394792 V46.913544476099766 h8.146666584394792 c1.5253333179292374,0 3.055999969137948,-0.25359999743893435 4.593333286946,-0.7619999923046848 c1.5359999844881833,-0.5087999948617107 2.9226666371511265,-1.2770666537697761 4.1599999579888305,-2.3057333100481032 c1.2359999875178351,-1.0285333229463407 2.2359999774189956,-2.3051999767201563 2.9986666363836143,-3.8306666279813806 c0.7626666589646187,-1.524933317933277 1.143999988446928,-3.3161332998442363 1.143999988446928,-5.373466612400891 c0,-2.0333333127990274 -0.3813333294823094,-3.818133294774619 -1.143999988446928,-5.356266612574591 " stroke-width="0"/><path id="path32" style="fill:#ffffff;fill-opacity:1;fill-rule:nonzero;stroke:none" d="m43.88856023837312,33.30781128016854 c0,2.689066639510215 -0.5795999941467129,5.3589332792143285 -1.6853333163134234,7.802666587868792 c0.14426666520974082,-5.262533280187856 -1.441199985445553,-10.83853322387673 -4.453599955023811,-15.591199842546981 c2.105199978739924,0.14173333190199125 4.063466625630371,0.9859999900425447 5.3275999461974255,2.319333309910759 c0.0030666666356968957,0.002533333307749609 0.006133333271393791,0.0057333332754333265 0.009333333239077505,0.008266666583182933 c0.5322666612913911,1.7693333154651207 0.801999991900731,3.60626663024756 0.801999991900731,5.460933278184246 zm-11.516133217033756,-6.2462666035866246 c0.5073333282098555,-0.42613332902988144 1.1125333220980382,-0.7745333255114456 1.802133315133879,-1.0370666561934974 c4.6765332861057765,6.633333266344367 6.023466605836647,14.548533186410037 3.602666630283916,21.214133119095216 c-1.0239999896587888,0.9462666571104721 -2.1505333116154435,1.7786666487041982 -3.355333299448362,2.4791999749629583 c1.8067999817534175,-8.170399917488446 -1.4609333185796027,-16.47506650028762 -3.6301332966732014,-20.79013312337712 c0.49893332829468595,-0.7765333254912479 1.0301333229301826,-1.4041333191532168 1.5806666507037683,-1.8661333144875534 zM26.17189375062422,42.61981118612816 c-0.009866666567024793,-0.051066666150952636 -0.02279999976974647,-0.10159999897395798 -0.037999999616244125,-0.15106666514106873 c0.9870666566984394,-1.3759999861039975 1.2693333205145403,-3.0333333027001883 1.5427999844195113,-4.639999953141388 c0.11919999879621843,-0.6963999929671687 0.2410666642321732,-1.4157333190360704 0.4207999957504086,-2.1015999787762802 c0.2854666637837849,-1.0989333222353825 0.5817333274585021,-2.0813333123142828 0.899999990911045,-2.9791999699135387 c3.713066629169004,8.615066579664495 2.919733303847416,14.876533183097617 1.5390666511238802,18.680799811345608 c-1.7166666493303262,0.5337333279432462 -3.4931999647227356,0.8197333250549783 -5.290666613237075,0.8509333247398946 c1.8166666483204423,-3.1077333019488345 1.3745333194521423,-7.339999925874521 0.9259999906484753,-9.659866569113227 zm-8.749999911635157,-0.5567999943769666 c-0.4405333288844582,0.36466666298395684 -0.6666666599341075,1.0187999897113027 -0.562399994320413,1.6275999835631296 c0.10199999896991843,0.5985333272888416 0.4910666617074636,1.0635999892588748 1.0677333225504662,1.2771999871017627 c1.6973333161922373,0.6285333269858765 3.56346663067979,0.5426666611863633 5.3030666131118505,-0.23706666427256856 c0.27133333059318165,2.2078666443697768 0.2989333303144538,5.690133275869592 -1.8750666477306703,7.11773326145249 c-0.03479999964856043,0.023466666429680583 -0.06973333262910762,0.04733333285532163 -0.103066665625813,0.07346666592473863 c-8.88119991031019,-1.742266649071796 -15.312533178694522,-9.547999903576285 -15.312533178694522,-18.614133145352195 c0,-10.461999894345945 8.511466580710735,-18.973866475052642 18.974533141712573,-18.973866475052642 c6.294799936429827,0 12.258799876200351,3.2129333008864367 15.76773317409753,8.438533248113943 c-3.4526666317987416,-1.020933323023092 -7.331333259295378,-0.4865333284199115 -9.893333233422153,1.4145333190481888 c-2.2003999777785146,1.6349333168224047 -3.346266632873258,4.128133291643979 -4.332266622915802,6.5417332672694215 c-0.35573332974083965,0.8733333245136806 -0.653599993399399,2.0749333123789153 -0.9749333234876384,3.3707999659588332 c-0.7322666592716235,2.9598666367754496 -1.6427999834096274,6.643199932911392 -3.7073332958935707,7.736933255199289 c-0.8239999916785568,0.43439999561306436 -1.7791999820321456,0.44173332887233946 -2.9187999705235086,0.02039999979398369 c-0.5186666614287355,-0.19226666472499662 -1.0426666561369438,-0.11773333214436336 -1.4333333188583306,0.206133331251626 zm29.715733033238923,-8.755199911582645 c0,-12.253599876252865 -9.969866565982588,-22.222933108907505 -22.223466442235452,-22.222933108907505 c-12.253599876252865,0 -22.223466442235452,9.96933323265464 -22.223466442235452,22.222933108907505 c0,12.254266542912799 9.969866565982588,22.223466442235452 22.223466442235452,22.223466442235452 c12.253599876252865,0 22.223466442235452,-9.969199899322653 22.223466442235452,-22.223466442235452 " stroke-width="0"/></g></g></g></svg>