<svg width="149" height="135" viewBox="0 0 149 135" fill="none" xmlns="http://www.w3.org/2000/svg">
<circle cx="110.068" cy="32.5" r="32.5" fill="#0096BB"/>
<circle cx="116.068" cy="32.5" r="32.5" fill="#000085"/>
<path opacity="0.2" d="M76.5684 79C76.5684 73.4772 72.3151 69 67.0684 69C61.8217 69 57.5684 73.4772 57.5684 79" stroke="#407BF7" stroke-width="2" stroke-linecap="round"/>
<path d="M60.2134 120.034C71.3721 110.317 76.5683 97.6757 76.5683 79C76.5683 66.0122 80.3942 54.7588 87.0242 49.0301C97.9521 39.5877 115.249 42.1537 115.249 42.1537C118.741 42.7948 122.301 41.4711 124.563 38.6906C126.826 35.9102 127.438 32.105 126.166 28.7359C124.894 25.3668 121.934 22.9573 118.424 22.4322C117.366 22.2588 92.255 18.2849 74.2909 33.8029C63.062 43.4953 57.5683 59.8754 57.5683 79C57.5683 91.5695 54.0248 99.104 47.4199 104.853C39.6711 111.6 28.537 113.039 21.9999 113C18.6959 112.98 11.0639 113.01 10.9999 113C6.9999 113 7.20786 119.219 4.9999 122C2.79194 124.781 8.73167 124.666 10 128C11.2683 131.334 7.52649 132.455 10.9999 133C15.9999 133 19.0531 133.024 21.9999 133C31.6941 133 47.9264 130.727 60.2134 120.034Z" fill="#BBD0EF" fill-opacity="0.5" stroke="#000085" stroke-width="2"/>
<path opacity="0.2" d="M116.566 43.0002C122.089 43.0002 126.566 38.5231 126.566 33.0002C126.566 27.4774 122.089 23.0002 116.566 23.0002C111.043 23.0002 106.566 27.4774 106.566 33.0002C106.566 38.5231 111.043 43.0002 116.566 43.0002Z" stroke="#000085" stroke-width="2" stroke-linecap="round"/>
<path opacity="0.3" d="M110.568 37.0026C110.375 36.9759 94.8412 37.0026 84.527 45.2186C76.9982 51.2159 72.3006 61.1543 72.3006 74.751C72.3006 94.3021 67.6714 107.827 55 118C41.0472 129.193 24.0085 128.002 13 128.002H16.5" stroke="#407BF7" stroke-width="4" stroke-linecap="round"/>
<path opacity="0.5" d="M12 118C20.9331 118 35.6189 118.852 46.9412 112.003C57.2237 105.778 61.6343 94.7497 61.6343 85.1279" stroke="white" stroke-width="4" stroke-linecap="round"/>
<path d="M76.5684 77C76.5684 82.5229 72.3151 87 67.0684 87C61.8217 87 57.5684 82.5229 57.5684 77" stroke="#000085" stroke-width="2" stroke-linecap="round"/>
<path opacity="0.5" d="M62.4917 68.1689C61.6641 72.2533 61.6641 76.9498 61.6641 79.9148" stroke="white" stroke-width="4" stroke-linecap="round"/>
<path opacity="0.5" d="M68.9479 48.4369C66.6333 52.0457 65.0946 56.8675 64.0802 61.4797" stroke="white" stroke-width="4" stroke-linecap="round"/>
<circle cx="11" cy="123" r="10" fill="#00C0AB" stroke="#000085" stroke-width="2"/>
<circle cx="11" cy="123" r="7" stroke="#000085"/>
</svg>
