<svg width="560" height="45" viewBox="0 0 560 45" fill="none" xmlns="http://www.w3.org/2000/svg">
<mask id="mask0" mask-type="alpha" maskUnits="userSpaceOnUse" x="0" y="0" width="560" height="43">
<rect width="560" height="43" fill="#C4C4C4"/>
</mask>
<g mask="url(#mask0)">
<path d="M0.482191 0.389041C3.66312 0.363892 6.86886 0.350899 10.0977 0.350899H723.535C942.824 0.350899 1050.96 59.3065 1050.96 169.091V199.268L1050.96 199.376C1050.84 188.196 1032.96 179.151 1010.92 179.151C990.352 179.151 973.408 187.024 971.136 197.158V169.365C971.136 128.322 955.88 98.708 922.079 78.1992C885.854 56.2216 827.614 44.4645 742.34 42.6655L559.201 42.6664C556.547 42.9195 553.837 43.0486 551.097 43.0486H0.482191V0.389041Z" fill="#BBD0EF" fill-opacity="0.5"/>
</g>
<rect width="560" height="1" fill="#000085"/>
<rect y="43.5" width="560" height="1.5" fill="#000085"/>
</svg>
