<svg width="560" height="41" viewBox="0 0 560 41" fill="none" xmlns="http://www.w3.org/2000/svg">
<mask id="mask0" mask-type="alpha" maskUnits="userSpaceOnUse" x="0" y="0" width="560" height="41">
<rect width="560" height="41" transform="matrix(-1 0 0 1 560 0)" fill="#C4C4C4"/>
</mask>
<g mask="url(#mask0)">
<mask id="mask1" mask-type="alpha" maskUnits="userSpaceOnUse" x="510" y="0" width="50" height="41">
<rect width="50" height="41" transform="matrix(-1 0 0 1 560 0)" fill="#C4C4C4"/>
</mask>
<g mask="url(#mask1)">
<mask id="mask2" mask-type="alpha" maskUnits="userSpaceOnUse" x="320" y="0" width="240" height="41">
<rect x="320" width="240" height="41" fill="#C4C4C4"/>
</mask>
<g mask="url(#mask2)">
<mask id="mask3" mask-type="alpha" maskUnits="userSpaceOnUse" x="124" y="0" width="440" height="41">
<rect x="124" width="440" height="41" fill="#C4C4C4"/>
</mask>
<g mask="url(#mask3)">
<path d="M203 0.775635H554.339C612.316 0.775635 659.301 48.2963 659.301 106.267V127.46C659.301 164.043 688.983 193.632 725.473 193.632H889V232.757H725.473C667.592 232.757 620.511 185.334 620.511 127.46V106.164C620.511 69.4847 590.926 40.3265 554.339 40.3265H203V0.775635Z" fill="#BBD0EF" fill-opacity="0.5" stroke="#000085" stroke-width="2"/>
<path opacity="0.5" fill-rule="evenodd" clip-rule="evenodd" d="M235.289 9.89515C233.895 9.89515 232.766 8.76561 232.766 7.37226C232.766 5.9789 233.895 4.84937 235.289 4.84937H534.883C536.277 4.84937 537.406 5.9789 537.406 7.37226C537.406 8.76561 536.277 9.89515 534.883 9.89515H235.289Z" fill="white"/>
<path opacity="0.5" fill-rule="evenodd" clip-rule="evenodd" d="M547.716 9.89515C546.322 9.89515 545.193 8.76561 545.193 7.37226C545.193 5.9789 546.322 4.84937 547.716 4.84937C557.658 4.84937 567.282 5.96463 576.447 8.15433C577.802 8.4781 578.639 9.83918 578.315 11.1944C577.991 12.5496 576.63 13.3858 575.275 13.062C566.496 10.9648 557.266 9.89515 547.716 9.89515Z" fill="white"/>
<path opacity="0.3" d="M812.121 223.5C813.515 223.5 814.644 224.63 814.644 226.023C814.644 227.417 813.515 228.546 812.121 228.546H726.045C666.486 228.546 623.231 181.434 623.231 119.437V102.67C623.231 79.8438 611.481 59.0769 592.514 47.1899C582.19 40.7195 570.249 37.2372 557.79 37.2372H252.209C250.816 37.2372 249.686 36.1077 249.686 34.7143C249.686 33.3209 250.816 32.1914 252.209 32.1914H557.79C571.203 32.1914 584.072 35.9442 595.194 42.9144C615.618 55.7148 628.277 78.088 628.277 102.67V119.437C628.277 178.739 669.373 223.5 726.045 223.5H812.121Z" fill="#000D6D"/>
<path opacity="0.2" fill-rule="evenodd" clip-rule="evenodd" d="M530.775 0.790039C541.688 0.790039 550.535 9.63712 550.535 20.5505C550.535 31.464 541.688 40.3111 530.775 40.3111C519.861 40.3111 511.014 31.464 511.014 20.5505C511.014 9.63712 519.861 0.790039 530.775 0.790039Z" stroke="#000D6D" stroke-width="1.2075"/>
<path d="M532.573 0C532.89 0 533.146 0.248675 533.146 0.55543C533.146 0.862186 532.89 1.11086 532.573 1.11086C520.856 1.11086 511.37 9.82139 511.37 20.5509C511.37 31.2805 520.856 39.991 532.573 39.991C532.89 39.991 533.146 40.2397 533.146 40.5464C533.146 40.8532 532.89 41.1019 532.573 41.1019C520.237 41.1019 510.224 31.9078 510.224 20.5509C510.224 9.19405 520.237 0 532.573 0Z" fill="#000085"/>
</g>
</g>
</g>
<mask id="mask4" mask-type="alpha" maskUnits="userSpaceOnUse" x="342" y="0" width="168" height="41">
<rect width="168" height="41" transform="matrix(-1 0 0 1 510 0)" fill="#C4C4C4"/>
</mask>
<g mask="url(#mask4)">
<mask id="mask5" mask-type="alpha" maskUnits="userSpaceOnUse" x="320" y="0" width="240" height="41">
<rect x="320" width="240" height="41" fill="#C4C4C4"/>
</mask>
<g mask="url(#mask5)">
<mask id="mask6" mask-type="alpha" maskUnits="userSpaceOnUse" x="124" y="0" width="440" height="41">
<rect x="124" width="440" height="41" fill="#C4C4C4"/>
</mask>
<g mask="url(#mask6)">
<path d="M203 0.775635H554.339C612.316 0.775635 659.301 48.2963 659.301 106.267V127.46C659.301 164.043 688.983 193.632 725.473 193.632H889V232.757H725.473C667.592 232.757 620.511 185.334 620.511 127.46V106.164C620.511 69.4847 590.926 40.3265 554.339 40.3265H203V0.775635Z" fill="#BBD0EF" fill-opacity="0.5" stroke="#000085" stroke-width="2"/>
<path opacity="0.5" fill-rule="evenodd" clip-rule="evenodd" d="M235.289 9.89515C233.895 9.89515 232.766 8.76561 232.766 7.37226C232.766 5.9789 233.895 4.84937 235.289 4.84937H534.883C536.277 4.84937 537.406 5.9789 537.406 7.37226C537.406 8.76561 536.277 9.89515 534.883 9.89515H235.289Z" fill="white"/>
<path opacity="0.3" d="M812.121 223.5C813.515 223.5 814.644 224.63 814.644 226.023C814.644 227.417 813.515 228.546 812.121 228.546H726.045C666.486 228.546 623.231 181.434 623.231 119.437V102.67C623.231 79.8438 611.481 59.0769 592.514 47.1899C582.19 40.7195 570.249 37.2372 557.79 37.2372H252.209C250.816 37.2372 249.686 36.1077 249.686 34.7143C249.686 33.3209 250.816 32.1914 252.209 32.1914H557.79C571.203 32.1914 584.072 35.9442 595.194 42.9144C615.618 55.7148 628.277 78.088 628.277 102.67V119.437C628.277 178.739 669.373 223.5 726.045 223.5H812.121Z" fill="#000D6D"/>
<path opacity="0.2" fill-rule="evenodd" clip-rule="evenodd" d="M363.049 0.771973C373.761 0.771973 382.445 9.45547 382.445 20.1671C382.445 30.8787 373.761 39.5622 363.049 39.5622C352.338 39.5622 343.654 30.8787 343.654 20.1671C343.654 9.45547 352.338 0.771973 363.049 0.771973Z" stroke="#000D6D" stroke-width="1.2075"/>
<path d="M363.658 0.0117188C363.952 0.0117188 364.191 0.255611 364.191 0.556468C364.191 0.857324 363.952 1.10122 363.658 1.10122C352.772 1.10122 343.959 9.64424 343.959 20.1674C343.959 30.6906 352.772 39.2337 363.658 39.2337C363.952 39.2337 364.191 39.4775 364.191 39.7784C364.191 40.0793 363.952 40.3232 363.658 40.3232C352.197 40.3232 342.894 31.3059 342.894 20.1674C342.894 9.02896 352.197 0.0117188 363.658 0.0117188Z" fill="#000085"/>
</g>
</g>
</g>
<mask id="mask7" mask-type="alpha" maskUnits="userSpaceOnUse" x="174" y="0" width="168" height="41">
<rect width="168" height="41" transform="matrix(-1 0 0 1 342 0)" fill="#C4C4C4"/>
</mask>
<g mask="url(#mask7)">
<mask id="mask8" mask-type="alpha" maskUnits="userSpaceOnUse" x="152" y="0" width="240" height="41">
<rect x="152" width="240" height="41" fill="#C4C4C4"/>
</mask>
<g mask="url(#mask8)">
<mask id="mask9" mask-type="alpha" maskUnits="userSpaceOnUse" x="-44" y="0" width="440" height="41">
<rect x="-44" width="440" height="41" fill="#C4C4C4"/>
</mask>
<g mask="url(#mask9)">
<path d="M35 0.775635H386.339C444.316 0.775635 491.301 48.2963 491.301 106.267V127.46C491.301 164.043 520.983 193.632 557.473 193.632H721V232.757H557.473C499.592 232.757 452.511 185.334 452.511 127.46V106.164C452.511 69.4847 422.926 40.3265 386.339 40.3265H35V0.775635Z" fill="#BBD0EF" fill-opacity="0.5" stroke="#000085" stroke-width="2"/>
<path opacity="0.5" fill-rule="evenodd" clip-rule="evenodd" d="M67.2885 9.89515C65.8952 9.89515 64.7656 8.76561 64.7656 7.37226C64.7656 5.9789 65.8952 4.84937 67.2885 4.84937H366.883C368.277 4.84937 369.406 5.9789 369.406 7.37226C369.406 8.76561 368.277 9.89515 366.883 9.89515H67.2885Z" fill="white"/>
<path opacity="0.3" d="M644.121 223.5C645.515 223.5 646.644 224.63 646.644 226.023C646.644 227.417 645.515 228.546 644.121 228.546H558.045C498.486 228.546 455.231 181.434 455.231 119.437V102.67C455.231 79.8438 443.481 59.0769 424.514 47.1899C414.19 40.7195 402.249 37.2372 389.79 37.2372H84.2089C82.8156 37.2372 81.686 36.1077 81.686 34.7143C81.686 33.3209 82.8156 32.1914 84.2089 32.1914H389.79C403.203 32.1914 416.072 35.9442 427.194 42.9144C447.618 55.7148 460.277 78.088 460.277 102.67V119.437C460.277 178.739 501.373 223.5 558.045 223.5H644.121Z" fill="#000D6D"/>
<path opacity="0.2" fill-rule="evenodd" clip-rule="evenodd" d="M195.049 0.771973C205.761 0.771973 214.445 9.45547 214.445 20.1671C214.445 30.8787 205.761 39.5622 195.049 39.5622C184.338 39.5622 175.654 30.8787 175.654 20.1671C175.654 9.45547 184.338 0.771973 195.049 0.771973Z" stroke="#000D6D" stroke-width="1.2075"/>
<path d="M195.658 0.0117188C195.952 0.0117188 196.191 0.255611 196.191 0.556468C196.191 0.857324 195.952 1.10122 195.658 1.10122C184.772 1.10122 175.959 9.64424 175.959 20.1674C175.959 30.6906 184.772 39.2337 195.658 39.2337C195.952 39.2337 196.191 39.4775 196.191 39.7784C196.191 40.0793 195.952 40.3232 195.658 40.3232C184.197 40.3232 174.894 31.3059 174.894 20.1674C174.894 9.02896 184.197 0.0117188 195.658 0.0117188Z" fill="#000085"/>
</g>
</g>
</g>
<mask id="mask10" mask-type="alpha" maskUnits="userSpaceOnUse" x="6" y="0" width="168" height="41">
<rect width="168" height="41" transform="matrix(-1 0 0 1 174 0)" fill="#C4C4C4"/>
</mask>
<g mask="url(#mask10)">
<mask id="mask11" mask-type="alpha" maskUnits="userSpaceOnUse" x="-16" y="0" width="240" height="41">
<rect x="-16" width="240" height="41" fill="#C4C4C4"/>
</mask>
<g mask="url(#mask11)">
<mask id="mask12" mask-type="alpha" maskUnits="userSpaceOnUse" x="-212" y="0" width="440" height="41">
<rect x="-212" width="440" height="41" fill="#C4C4C4"/>
</mask>
<g mask="url(#mask12)">
<path d="M-133 0.775635H218.339C276.316 0.775635 323.301 48.2963 323.301 106.267V127.46C323.301 164.043 352.983 193.632 389.473 193.632H553V232.757H389.473C331.592 232.757 284.511 185.334 284.511 127.46V106.164C284.511 69.4847 254.926 40.3265 218.339 40.3265H-133V0.775635Z" fill="#BBD0EF" fill-opacity="0.5" stroke="#000085" stroke-width="2"/>
<path opacity="0.5" fill-rule="evenodd" clip-rule="evenodd" d="M-100.711 9.89515C-102.105 9.89515 -103.234 8.76561 -103.234 7.37226C-103.234 5.9789 -102.105 4.84937 -100.711 4.84937H198.883C200.277 4.84937 201.406 5.9789 201.406 7.37226C201.406 8.76561 200.277 9.89515 198.883 9.89515H-100.711Z" fill="white"/>
<path opacity="0.3" d="M476.121 223.5C477.515 223.5 478.644 224.63 478.644 226.023C478.644 227.417 477.515 228.546 476.121 228.546H390.045C330.486 228.546 287.231 181.434 287.231 119.437V102.67C287.231 79.8438 275.481 59.0769 256.514 47.1899C246.19 40.7195 234.249 37.2372 221.79 37.2372H-83.7911C-85.1844 37.2372 -86.314 36.1077 -86.314 34.7143C-86.314 33.3209 -85.1844 32.1914 -83.7911 32.1914H221.79C235.203 32.1914 248.072 35.9442 259.194 42.9144C279.618 55.7148 292.277 78.088 292.277 102.67V119.437C292.277 178.739 333.373 223.5 390.045 223.5H476.121Z" fill="#000D6D"/>
<path opacity="0.2" fill-rule="evenodd" clip-rule="evenodd" d="M27.0494 0.771973C37.7611 0.771973 46.4445 9.45547 46.4445 20.1671C46.4445 30.8787 37.7611 39.5622 27.0494 39.5622C16.3378 39.5622 7.6543 30.8787 7.6543 20.1671C7.6543 9.45547 16.3378 0.771973 27.0494 0.771973Z" stroke="#000D6D" stroke-width="1.2075"/>
<path d="M27.6582 0.0117188C27.9523 0.0117188 28.1906 0.255611 28.1906 0.556468C28.1906 0.857324 27.9523 1.10122 27.6582 1.10122C16.7723 1.10122 7.95887 9.64424 7.95887 20.1674C7.95887 30.6906 16.7723 39.2337 27.6582 39.2337C27.9523 39.2337 28.1906 39.4775 28.1906 39.7784C28.1906 40.0793 27.9523 40.3232 27.6582 40.3232C16.1967 40.3232 6.89404 31.3059 6.89404 20.1674C6.89404 9.02896 16.1967 0.0117188 27.6582 0.0117188Z" fill="#000085"/>
</g>
</g>
</g>
<mask id="mask13" mask-type="alpha" maskUnits="userSpaceOnUse" x="-162" y="0" width="168" height="41">
<rect width="168" height="41" transform="matrix(-1 0 0 1 6 0)" fill="#C4C4C4"/>
</mask>
<g mask="url(#mask13)">
<mask id="mask14" mask-type="alpha" maskUnits="userSpaceOnUse" x="-184" y="0" width="240" height="41">
<rect x="-184" width="240" height="41" fill="#C4C4C4"/>
</mask>
<g mask="url(#mask14)">
<mask id="mask15" mask-type="alpha" maskUnits="userSpaceOnUse" x="-380" y="0" width="440" height="41">
<rect x="-380" width="440" height="41" fill="#C4C4C4"/>
</mask>
<g mask="url(#mask15)">
<path d="M-301 0.775635H50.3391C108.316 0.775635 155.301 48.2963 155.301 106.267V127.46C155.301 164.043 184.983 193.632 221.473 193.632H385V232.757H221.473C163.592 232.757 116.511 185.334 116.511 127.46V106.164C116.511 69.4847 86.9257 40.3265 50.3391 40.3265H-301V0.775635Z" fill="#BBD0EF" fill-opacity="0.5" stroke="#000085" stroke-width="2"/>
<path opacity="0.5" fill-rule="evenodd" clip-rule="evenodd" d="M-268.711 9.89515C-270.105 9.89515 -271.234 8.76561 -271.234 7.37226C-271.234 5.9789 -270.105 4.84937 -268.711 4.84937H30.8833C32.2767 4.84937 33.4062 5.9789 33.4062 7.37226C33.4062 8.76561 32.2767 9.89515 30.8833 9.89515H-268.711Z" fill="white"/>
<path opacity="0.3" d="M308.121 223.5C309.514 223.5 310.644 224.63 310.644 226.023C310.644 227.417 309.514 228.546 308.121 228.546H222.045C162.486 228.546 119.231 181.434 119.231 119.437V102.67C119.231 79.8438 107.481 59.0769 88.514 47.1899C78.1897 40.7195 66.2487 37.2372 53.7901 37.2372H-251.791C-253.185 37.2372 -254.314 36.1077 -254.314 34.7143C-254.314 33.3209 -253.185 32.1914 -251.791 32.1914H53.7901C67.2033 32.1914 80.0718 35.9442 91.1935 42.9144C111.618 55.7148 124.276 78.088 124.276 102.67V119.437C124.276 178.739 165.373 223.5 222.045 223.5H308.121Z" fill="#000D6D"/>
</g>
</g>
</g>
</g>
</svg>
