<svg width="560" height="34" viewBox="0 0 560 34" fill="none" xmlns="http://www.w3.org/2000/svg">
<mask id="mask0" mask-type="alpha" maskUnits="userSpaceOnUse" x="0" y="0" width="560" height="34">
<rect width="560" height="34" transform="matrix(-1 0 0 1 560 0)" fill="#C4C4C4"/>
</mask>
<g mask="url(#mask0)">
<mask id="mask1" mask-type="alpha" maskUnits="userSpaceOnUse" x="244" y="0" width="132" height="34">
<rect x="244" width="132" height="34" fill="#C4C4C4"/>
</mask>
<g mask="url(#mask1)">
<path d="M135 1.60999H411.052C456.606 1.60999 493.522 38.9477 493.522 84.4959V101.148C493.522 129.891 516.844 153.14 545.514 153.14H674V183.881H545.514C500.037 183.881 463.044 146.62 463.044 101.148V84.415C463.044 55.5957 439.799 32.6857 411.052 32.6857H135V1.60999Z" fill="#BBD0EF" fill-opacity="0.5" stroke="#000085" stroke-width="2"/>
<path opacity="0.5" fill-rule="evenodd" clip-rule="evenodd" d="M160.369 8.77412C159.275 8.77412 158.387 7.88662 158.387 6.79184C158.387 5.69706 159.275 4.80957 160.369 4.80957H395.766C396.86 4.80957 397.748 5.69706 397.748 6.79184C397.748 7.88662 396.86 8.77412 395.766 8.77412H160.369Z" fill="white"/>
<path opacity="0.3" d="M613.596 176.607C614.691 176.607 615.578 177.495 615.578 178.589C615.578 179.684 614.691 180.572 613.596 180.572H545.965C499.168 180.572 465.182 143.555 465.182 94.8431V81.6686C465.182 63.734 455.95 47.4172 441.047 38.0774C432.935 32.9935 423.553 30.2574 413.764 30.2574H173.664C172.57 30.2574 171.682 29.3699 171.682 28.2751C171.682 27.1803 172.57 26.2928 173.664 26.2928H413.764C424.303 26.2928 434.414 29.2415 443.153 34.7181C459.2 44.7755 469.146 62.3545 469.146 81.6686V94.8431C469.146 141.437 501.437 176.607 545.965 176.607H613.596Z" fill="#000D6D"/>
<path opacity="0.2" fill-rule="evenodd" clip-rule="evenodd" d="M260.753 1.60596C269.169 1.60596 275.992 8.42871 275.992 16.845C275.992 25.2613 269.169 32.084 260.753 32.084C252.337 32.084 245.514 25.2613 245.514 16.845C245.514 8.42871 252.337 1.60596 260.753 1.60596Z" stroke="#000D6D" stroke-width="1.2075"/>
<path d="M261.231 1.01038C261.463 1.01038 261.65 1.20201 261.65 1.43839C261.65 1.67478 261.463 1.86641 261.231 1.86641C252.678 1.86641 245.753 8.57879 245.753 16.847C245.753 25.1152 252.678 31.8276 261.231 31.8276C261.463 31.8276 261.65 32.0193 261.65 32.2556C261.65 32.492 261.463 32.6837 261.231 32.6837C252.226 32.6837 244.917 25.5987 244.917 16.847C244.917 8.09535 252.226 1.01038 261.231 1.01038Z" fill="#000085"/>
</g>
<mask id="mask2" mask-type="alpha" maskUnits="userSpaceOnUse" x="112" y="0" width="132" height="34">
<rect x="112" width="132" height="34" fill="#C4C4C4"/>
</mask>
<g mask="url(#mask2)">
<path d="M3 1.60999H279.052C324.606 1.60999 361.522 38.9477 361.522 84.4959V101.148C361.522 129.891 384.844 153.14 413.514 153.14H542V183.881H413.514C368.037 183.881 331.044 146.62 331.044 101.148V84.415C331.044 55.5957 307.799 32.6857 279.052 32.6857H3V1.60999Z" fill="#BBD0EF" fill-opacity="0.5" stroke="#000085" stroke-width="2"/>
<path opacity="0.5" fill-rule="evenodd" clip-rule="evenodd" d="M28.3695 8.77412C27.2747 8.77412 26.3872 7.88662 26.3872 6.79184C26.3872 5.69706 27.2747 4.80957 28.3695 4.80957H263.766C264.86 4.80957 265.748 5.69706 265.748 6.79184C265.748 7.88662 264.86 8.77412 263.766 8.77412H28.3695Z" fill="white"/>
<path opacity="0.3" d="M481.596 176.607C482.691 176.607 483.578 177.495 483.578 178.589C483.578 179.684 482.691 180.572 481.596 180.572H413.965C367.168 180.572 333.182 143.555 333.182 94.8431V81.6686C333.182 63.734 323.95 47.4172 309.047 38.0774C300.935 32.9935 291.553 30.2574 281.764 30.2574H41.6644C40.5696 30.2574 39.6821 29.3699 39.6821 28.2751C39.6821 27.1803 40.5696 26.2928 41.6644 26.2928H281.764C292.303 26.2928 302.414 29.2415 311.153 34.7181C327.2 44.7755 337.146 62.3545 337.146 81.6686V94.8431C337.146 141.437 369.437 176.607 413.965 176.607H481.596Z" fill="#000D6D"/>
<path opacity="0.2" fill-rule="evenodd" clip-rule="evenodd" d="M128.753 1.60596C137.169 1.60596 143.992 8.42871 143.992 16.845C143.992 25.2613 137.169 32.084 128.753 32.084C120.337 32.084 113.514 25.2613 113.514 16.845C113.514 8.42871 120.337 1.60596 128.753 1.60596Z" stroke="#000D6D" stroke-width="1.2075"/>
<path d="M129.231 1.01038C129.463 1.01038 129.65 1.20201 129.65 1.43839C129.65 1.67478 129.463 1.86641 129.231 1.86641C120.678 1.86641 113.753 8.57879 113.753 16.847C113.753 25.1152 120.678 31.8276 129.231 31.8276C129.463 31.8276 129.65 32.0193 129.65 32.2556C129.65 32.492 129.463 32.6837 129.231 32.6837C120.226 32.6837 112.917 25.5987 112.917 16.847C112.917 8.09535 120.226 1.01038 129.231 1.01038Z" fill="#000085"/>
</g>
<mask id="mask3" mask-type="alpha" maskUnits="userSpaceOnUse" x="-20" y="0" width="132" height="34">
<rect x="-20" width="132" height="34" fill="#C4C4C4"/>
</mask>
<g mask="url(#mask3)">
<path d="M-129 1.60999H147.052C192.606 1.60999 229.522 38.9477 229.522 84.4959V101.148C229.522 129.891 252.844 153.14 281.514 153.14H410V183.881H281.514C236.037 183.881 199.044 146.62 199.044 101.148V84.415C199.044 55.5957 175.799 32.6857 147.052 32.6857H-129V1.60999Z" fill="#BBD0EF" fill-opacity="0.5" stroke="#000085" stroke-width="2"/>
<path opacity="0.5" fill-rule="evenodd" clip-rule="evenodd" d="M-103.631 8.77412C-104.725 8.77412 -105.613 7.88662 -105.613 6.79184C-105.613 5.69706 -104.725 4.80957 -103.631 4.80957H131.766C132.86 4.80957 133.748 5.69706 133.748 6.79184C133.748 7.88662 132.86 8.77412 131.766 8.77412H-103.631Z" fill="white"/>
<path opacity="0.3" d="M349.596 176.607C350.691 176.607 351.578 177.495 351.578 178.589C351.578 179.684 350.691 180.572 349.596 180.572H281.965C235.168 180.572 201.182 143.555 201.182 94.8431V81.6686C201.182 63.734 191.95 47.4172 177.047 38.0774C168.935 32.9935 159.553 30.2574 149.764 30.2574H-90.3356C-91.4304 30.2574 -92.3179 29.3699 -92.3179 28.2751C-92.3179 27.1803 -91.4304 26.2928 -90.3356 26.2928H149.764C160.303 26.2928 170.414 29.2415 179.153 34.7181C195.2 44.7755 205.146 62.3545 205.146 81.6686V94.8431C205.146 141.437 237.437 176.607 281.965 176.607H349.596Z" fill="#000D6D"/>
<path opacity="0.2" fill-rule="evenodd" clip-rule="evenodd" d="M-3.24705 1.60596C5.16924 1.60596 11.992 8.42871 11.992 16.845C11.992 25.2613 5.16924 32.084 -3.24705 32.084C-11.6633 32.084 -18.4861 25.2613 -18.4861 16.845C-18.4861 8.42871 -11.6633 1.60596 -3.24705 1.60596Z" stroke="#000D6D" stroke-width="1.2075"/>
</g>
<mask id="mask4" mask-type="alpha" maskUnits="userSpaceOnUse" x="376" y="0" width="132" height="34">
<rect x="376" width="132" height="34" fill="#C4C4C4"/>
</mask>
<g mask="url(#mask4)">
<path d="M267 1.60999H543.052C588.606 1.60999 625.522 38.9477 625.522 84.4959V101.148C625.522 129.891 648.844 153.14 677.514 153.14H806V183.881H677.514C632.037 183.881 595.044 146.62 595.044 101.148V84.415C595.044 55.5957 571.799 32.6857 543.052 32.6857H267V1.60999Z" fill="#BBD0EF" fill-opacity="0.5" stroke="#000085" stroke-width="2"/>
<path opacity="0.5" fill-rule="evenodd" clip-rule="evenodd" d="M292.369 8.77412C291.275 8.77412 290.387 7.88662 290.387 6.79184C290.387 5.69706 291.275 4.80957 292.369 4.80957H527.766C528.86 4.80957 529.748 5.69706 529.748 6.79184C529.748 7.88662 528.86 8.77412 527.766 8.77412H292.369Z" fill="white"/>
<path opacity="0.3" d="M745.596 176.607C746.691 176.607 747.578 177.495 747.578 178.589C747.578 179.684 746.691 180.572 745.596 180.572H677.965C631.168 180.572 597.182 143.555 597.182 94.8431V81.6686C597.182 63.734 587.95 47.4172 573.047 38.0774C564.935 32.9935 555.553 30.2574 545.764 30.2574H305.664C304.57 30.2574 303.682 29.3699 303.682 28.2751C303.682 27.1803 304.57 26.2928 305.664 26.2928H545.764C556.303 26.2928 566.414 29.2415 575.153 34.7181C591.2 44.7755 601.146 62.3545 601.146 81.6686V94.8431C601.146 141.437 633.437 176.607 677.965 176.607H745.596Z" fill="#000D6D"/>
<path opacity="0.2" fill-rule="evenodd" clip-rule="evenodd" d="M392.753 1.60596C401.169 1.60596 407.992 8.42871 407.992 16.845C407.992 25.2613 401.169 32.084 392.753 32.084C384.337 32.084 377.514 25.2613 377.514 16.845C377.514 8.42871 384.337 1.60596 392.753 1.60596Z" stroke="#000D6D" stroke-width="1.2075"/>
<path d="M393.231 1.01038C393.463 1.01038 393.65 1.20201 393.65 1.43839C393.65 1.67478 393.463 1.86641 393.231 1.86641C384.678 1.86641 377.753 8.57879 377.753 16.847C377.753 25.1152 384.678 31.8276 393.231 31.8276C393.463 31.8276 393.65 32.0193 393.65 32.2556C393.65 32.492 393.463 32.6837 393.231 32.6837C384.226 32.6837 376.917 25.5987 376.917 16.847C376.917 8.09535 384.226 1.01038 393.231 1.01038Z" fill="#000085"/>
</g>
<mask id="mask5" mask-type="alpha" maskUnits="userSpaceOnUse" x="508" y="0" width="52" height="34">
<rect x="508" width="52" height="34" fill="#C4C4C4"/>
</mask>
<g mask="url(#mask5)">
<mask id="mask6" mask-type="alpha" maskUnits="userSpaceOnUse" x="422" y="0" width="138" height="34">
<rect x="422" width="138" height="34" fill="#C4C4C4"/>
</mask>
<g mask="url(#mask6)">
<mask id="mask7" mask-type="alpha" maskUnits="userSpaceOnUse" x="441" y="-428" width="697" height="1010">
<rect x="441" y="-428" width="697" height="1010" fill="#C4C4C4"/>
</mask>
<g mask="url(#mask7)">
<path d="M399 1.60999H675.052C720.606 1.60999 757.522 38.9477 757.522 84.4959V101.148C757.522 129.891 780.844 153.14 809.514 153.14H938V183.881H809.514C764.037 183.881 727.044 146.62 727.044 101.148V84.415C727.044 55.5957 703.799 32.6857 675.052 32.6857H399V1.60999Z" fill="#BBD0EF" fill-opacity="0.5" stroke="#000085" stroke-width="2"/>
<path opacity="0.5" fill-rule="evenodd" clip-rule="evenodd" d="M424.369 8.77412C423.275 8.77412 422.387 7.88662 422.387 6.79184C422.387 5.69706 423.275 4.80957 424.369 4.80957H659.766C660.86 4.80957 661.748 5.69706 661.748 6.79184C661.748 7.88662 660.86 8.77412 659.766 8.77412H424.369Z" fill="white"/>
<path opacity="0.3" d="M877.596 176.607C878.691 176.607 879.578 177.495 879.578 178.589C879.578 179.684 878.691 180.572 877.596 180.572H809.965C763.168 180.572 729.182 143.555 729.182 94.8431V81.6686C729.182 63.734 719.95 47.4172 705.047 38.0774C696.935 32.9935 687.553 30.2574 677.764 30.2574H437.664C436.57 30.2574 435.682 29.3699 435.682 28.2751C435.682 27.1803 436.57 26.2928 437.664 26.2928H677.764C688.303 26.2928 698.414 29.2415 707.153 34.7181C723.2 44.7755 733.146 62.3545 733.146 81.6686V94.8431C733.146 141.437 765.437 176.607 809.965 176.607H877.596Z" fill="#000D6D"/>
<path opacity="0.2" fill-rule="evenodd" clip-rule="evenodd" d="M524.753 1.60596C533.169 1.60596 539.992 8.42871 539.992 16.845C539.992 25.2613 533.169 32.084 524.753 32.084C516.337 32.084 509.514 25.2613 509.514 16.845C509.514 8.42871 516.337 1.60596 524.753 1.60596Z" stroke="#000D6D" stroke-width="1.2075"/>
<path d="M525.231 1.01038C525.463 1.01038 525.65 1.20201 525.65 1.43839C525.65 1.67478 525.463 1.86641 525.231 1.86641C516.678 1.86641 509.753 8.57879 509.753 16.847C509.753 25.1152 516.678 31.8276 525.231 31.8276C525.463 31.8276 525.65 32.0193 525.65 32.2556C525.65 32.492 525.463 32.6837 525.231 32.6837C516.226 32.6837 508.917 25.5987 508.917 16.847C508.917 8.09535 516.226 1.01038 525.231 1.01038Z" fill="#000085"/>
</g>
</g>
</g>
</g>
</svg>
