<svg width="580" height="47" viewBox="0 0 580 47" fill="none" xmlns="http://www.w3.org/2000/svg">
    <mask id="mask0" mask-type="alpha" maskUnits="userSpaceOnUse" x="0" y="0" width="580" height="47">
        <rect width="580" height="47" fill="#C4C4C4" />
    </mask>
    <g mask="url(#mask0)">
        <mask id="mask1" mask-type="alpha" maskUnits="userSpaceOnUse" x="131" y="0" width="449" height="47">
            <rect x="131" width="449" height="47" fill="#C4C4C4" />
        </mask>
        <g mask="url(#mask1)">
            <mask id="mask2" mask-type="alpha" maskUnits="userSpaceOnUse" x="81" y="0" width="499" height="47">
                <rect x="81" width="499" height="47" fill="#C4C4C4" />
            </mask>
            <g mask="url(#mask2)">
                <rect x="1" y="-1" width="501" height="45" transform="matrix(-1 0 0 1 582 2)" stroke="#000085"
                    stroke-width="2" />
                <rect opacity="0.2" width="499" height="43" transform="matrix(-1 0 0 1 580 2)" fill="#5B88FF" />
                <rect opacity="0.5" width="499" height="6" transform="matrix(-1 0 0 1 580 6)" fill="white" />
                <rect opacity="0.3" width="499" height="6" transform="matrix(-1 0 0 1 580 35)" fill="#000085" />
                <path opacity="0.2"
                    d="M503 0.999998C490.574 0.999999 480.5 11.0736 480.5 23.5C480.5 35.9264 490.574 46 503 46"
                    stroke="#000085" stroke-width="2" />
                <path d="M503.5 46C515.926 46 526 35.9264 526 23.5C526 11.0736 515.926 1 503.5 1" stroke="#000085"
                    stroke-width="2" />
                <path opacity="0.2"
                    d="M387 0.999998C374.574 0.999999 364.5 11.0736 364.5 23.5C364.5 35.9264 374.574 46 387 46"
                    stroke="#000085" stroke-width="2" />
                <path d="M387.5 46C399.926 46 410 35.9264 410 23.5C410 11.0736 399.926 1 387.5 1" stroke="#000085"
                    stroke-width="2" />
                <path opacity="0.2"
                    d="M271 0.999998C258.574 0.999999 248.5 11.0736 248.5 23.5C248.5 35.9264 258.574 46 271 46"
                    stroke="#000085" stroke-width="2" />
                <path d="M271.5 46C283.926 46 294 35.9264 294 23.5C294 11.0736 283.926 1 271.5 1" stroke="#000085"
                    stroke-width="2" />
                <path opacity="0.2"
                    d="M155 0.999998C142.574 0.999999 132.5 11.0736 132.5 23.5C132.5 35.9264 142.574 46 155 46"
                    stroke="#000085" stroke-width="2" />
                <path d="M155.5 46C167.926 46 178 35.9264 178 23.5C178 11.0736 167.926 1 155.5 1" stroke="#000085"
                    stroke-width="2" />
            </g>
        </g>
        <mask id="mask3" mask-type="alpha" maskUnits="userSpaceOnUse" x="15" y="0" width="116" height="47">
            <rect x="15" width="116" height="47" fill="#C4C4C4" />
        </mask>
        <g mask="url(#mask3)">
            <mask id="mask4" mask-type="alpha" maskUnits="userSpaceOnUse" x="-151" y="0" width="499" height="47">
                <rect x="-151" width="499" height="47" fill="#C4C4C4" />
            </mask>
            <g mask="url(#mask4)">
                <rect x="1" y="-1" width="501" height="45" transform="matrix(-1 0 0 1 350 2)" stroke="#000085"
                    stroke-width="2" />
                <rect opacity="0.2" width="499" height="43" transform="matrix(-1 0 0 1 348 2)" fill="#5B88FF" />
                <rect opacity="0.5" width="499" height="6" transform="matrix(-1 0 0 1 348 6)" fill="white" />
                <rect opacity="0.3" width="499" height="6" transform="matrix(-1 0 0 1 348 35)" fill="#000085" />
                <path opacity="0.2"
                    d="M39 0.999998C26.5736 0.999999 16.5 11.0736 16.5 23.5C16.5 35.9264 26.5736 46 39 46"
                    stroke="#000085" stroke-width="2" />
                <path d="M39.5 46C51.9264 46 62 35.9264 62 23.5C62 11.0736 51.9264 1 39.5 1" stroke="#000085"
                    stroke-width="2" />
            </g>
        </g>
        <mask id="mask5" mask-type="alpha" maskUnits="userSpaceOnUse" x="-101" y="0" width="116" height="47">
            <rect x="-101" width="116" height="47" fill="#C4C4C4" />
        </mask>
        <g mask="url(#mask5)">
            <mask id="mask6" mask-type="alpha" maskUnits="userSpaceOnUse" x="-267" y="0" width="499" height="47">
                <rect x="-267" width="499" height="47" fill="#C4C4C4" />
            </mask>
            <g mask="url(#mask6)">
                <rect x="1" y="-1" width="501" height="45" transform="matrix(-1 0 0 1 234 2)" stroke="#000085"
                    stroke-width="2" />
                <rect opacity="0.2" width="499" height="43" transform="matrix(-1 0 0 1 232 2)" fill="#5B88FF" />
                <rect opacity="0.5" width="499" height="6" transform="matrix(-1 0 0 1 232 6)" fill="white" />
                <rect opacity="0.3" width="499" height="6" transform="matrix(-1 0 0 1 232 35)" fill="#000085" />
            </g>
        </g>
    </g>
</svg>