<svg width="56" height="61" viewBox="0 0 56 61" fill="none" xmlns="http://www.w3.org/2000/svg">
<path fill-rule="evenodd" clip-rule="evenodd" d="M29 60.0001C14.6406 60.0001 3 48.4505 3 34.2034C3 19.9563 55 19.9563 55 34.2034C55 48.4505 43.3594 60.0001 29 60.0001Z" fill="#276BFB" stroke="#000085" stroke-width="2"/>
<path d="M29 48.0005C14.6406 48.0005 3 41.2848 3 33.0005C3 24.7162 14.6406 18.0005 29 18.0005C43.3594 18.0005 55 24.7162 55 33.0005C55 41.2848 43.3594 48.0005 29 48.0005Z" fill="#5B88FF" stroke="#000085" stroke-width="2"/>
<path d="M29 43.0005C17.402 43.0005 8 38.5233 8 33.0005C8 27.4776 17.402 23.0005 29 23.0005C40.598 23.0005 50 27.4776 50 33.0005C50 38.5233 40.598 43.0005 29 43.0005Z" fill="#000085"/>
<path d="M41.4415 36.0005C34.5377 36.0005 28.9411 30.404 28.9411 23.5005C28.9411 16.5969 34.5377 11.0005 41.4415 11.0005C48.3453 11.0005 53.9419 16.5969 53.9419 23.5005C53.9419 30.404 48.3453 36.0005 41.4415 36.0005Z" fill="#5B88FF" stroke="#000085" stroke-width="2"/>
<path d="M38.5003 36.0005C31.5965 36.0005 25.9999 30.404 25.9999 23.5005C25.9999 16.5969 31.5965 11.0005 38.5003 11.0005C45.4041 11.0005 51.0007 16.5969 51.0007 23.5005C51.0007 30.404 45.4041 36.0005 38.5003 36.0005Z" fill="#5B88FF" stroke="#000085" stroke-width="2"/>
<path d="M38.5006 31.5891C34.0335 31.5891 30.4121 27.9678 30.4121 23.5008C30.4121 19.0338 34.0335 15.4126 38.5006 15.4126C42.9678 15.4126 46.5891 19.0338 46.5891 23.5008C46.5891 27.9678 42.9678 31.5891 38.5006 31.5891Z" fill="#5B88FF" stroke="#000085" stroke-width="2"/>
<path d="M47.177 14.0513H49.8796H47.177Z" fill="#5B88FF"/>
<path d="M47.177 14.0513H49.8796" stroke="#000085" stroke-width="2"/>
<path d="M50.7432 23.2192H53.4458H50.7432Z" fill="#5B88FF"/>
<path d="M50.7432 23.2192H53.4458" stroke="#000085" stroke-width="2"/>
<path d="M48.129 31.2534H50.7437H48.129Z" fill="#5B88FF"/>
<path d="M48.129 31.2534H50.7437" stroke="#000085" stroke-width="2"/>
<path d="M29.4623 32.614C24.4914 37.4404 16.5776 37.3517 11.7863 32.4158C6.995 27.4799 7.14059 19.5659 12.1115 14.7395C17.0824 9.91308 24.9962 10.0018 29.7875 14.9377C34.5788 19.8736 34.4332 27.7876 29.4623 32.614Z" fill="#33DFCC" stroke="#000085" stroke-width="2"/>
<path d="M27.3514 34.6621C22.3806 39.4884 14.4668 39.3996 9.67547 34.4639C4.88418 29.5281 5.02977 21.6144 10.0006 16.7881C14.9715 11.9618 22.8853 12.0505 27.6766 16.9863C32.4679 21.9221 32.3223 29.8358 27.3514 34.6621Z" fill="#33DFCC" stroke="#000085" stroke-width="2"/>
<path d="M24.2898 31.5079C21.0732 34.6309 15.9523 34.5735 12.852 31.3798C9.75167 28.186 9.84593 23.0653 13.0625 19.9423C16.2791 16.8193 21.4 16.8767 24.5004 20.0704C27.6007 23.2642 27.5064 28.3849 24.2898 31.5079Z" fill="#33DFCC" stroke="#000085" stroke-width="2"/>
<path d="M18.3217 12.9009L20.2612 11.019L18.3217 12.9009Z" fill="#33DFCC"/>
<path d="M18.3217 12.9009L20.2612 11.019" stroke="#000085" stroke-width="2"/>
<path d="M27.2661 16.9966L29.2056 15.1147L27.2661 16.9966Z" fill="#33DFCC"/>
<path d="M27.2661 16.9966L29.2056 15.1147" stroke="#000085" stroke-width="2"/>
<path d="M30.9852 24.5825L32.8616 22.7622L30.9852 24.5825Z" fill="#33DFCC"/>
<path d="M30.9852 24.5825L32.8616 22.7622" stroke="#000085" stroke-width="2"/>
<path d="M31.4415 45.0005C24.5377 45.0005 18.9411 39.404 18.9411 32.5005C18.9411 25.5969 24.5377 20.0005 31.4415 20.0005C38.3453 20.0005 43.9419 25.5969 43.9419 32.5005C43.9419 39.404 38.3453 45.0005 31.4415 45.0005Z" fill="#33DFCC" stroke="#000085" stroke-width="2"/>
<path d="M28.5003 45.0005C21.5965 45.0005 15.9999 39.404 15.9999 32.5005C15.9999 25.5969 21.5965 20.0005 28.5003 20.0005C35.4041 20.0005 41.0007 25.5969 41.0007 32.5005C41.0007 39.404 35.4041 45.0005 28.5003 45.0005Z" fill="#33DFCC" stroke="#000085" stroke-width="2"/>
<path d="M28.5006 40.5891C24.0335 40.5891 20.4121 36.9678 20.4121 32.5008C20.4121 28.0338 24.0335 24.4126 28.5006 24.4126C32.9678 24.4126 36.5891 28.0338 36.5891 32.5008C36.5891 36.9678 32.9678 40.5891 28.5006 40.5891Z" fill="#33DFCC" stroke="#000085" stroke-width="2"/>
<path d="M37.177 23.0513H39.8796H37.177Z" fill="#33DFCC"/>
<path d="M37.177 23.0513H39.8796" stroke="#000085" stroke-width="2"/>
<path d="M40.7432 32.2192H43.4458H40.7432Z" fill="#33DFCC"/>
<path d="M40.7432 32.2192H43.4458" stroke="#000085" stroke-width="2"/>
<path d="M38.129 40.2534H40.7437H38.129Z" fill="#33DFCC"/>
<path d="M38.129 40.2534H40.7437" stroke="#000085" stroke-width="2"/>
</svg>
