<svg width="51" height="50" viewBox="0 0 51 50" fill="none" xmlns="http://www.w3.org/2000/svg">
<circle cx="25.4033" cy="25" r="25" fill="#003CDA"/>
<path d="M32.5437 36C32.5437 36 31.6191 34.8738 30.8485 33.8786C34.2133 32.9096 35.4975 30.762 35.4975 30.762C34.5733 31.3891 33.5824 31.9075 32.5437 32.3072C31.2595 32.8572 30.0266 33.2238 28.8194 33.4334C26.3537 33.9048 24.0934 33.7738 22.167 33.4072C20.8774 33.1499 19.6136 32.7729 18.3913 32.281C17.747 32.0284 17.1206 31.7308 16.5163 31.3905C16.4393 31.3381 16.3622 31.312 16.2852 31.2596C16.2465 31.24 16.2117 31.2134 16.1824 31.181C15.936 31.0441 15.696 30.8955 15.4633 30.7358C15.4633 30.7358 16.6961 32.831 19.9581 33.8262C19.1876 34.8214 18.2372 36 18.2372 36C12.5609 35.8167 10.4033 32.0191 10.4033 32.0191C10.4033 23.5858 14.102 16.7502 14.102 16.7502C17.8006 13.9216 21.3194 14.0002 21.3194 14.0002L21.5763 14.3145C16.953 15.6764 14.8211 17.7454 14.8211 17.7454C14.8211 17.7454 15.3862 17.4311 16.3365 16.9859C19.0848 15.755 21.268 15.4145 22.167 15.3359C22.3211 15.3097 22.4496 15.2835 22.6037 15.2835C24.1704 15.074 25.9427 15.0216 27.792 15.2312C30.2321 15.5193 32.8519 16.2526 35.5232 17.7454C35.5232 17.7454 33.4941 15.7812 29.1276 14.4193L29.4872 14.0002C29.4872 14.0002 33.0061 13.9216 36.7047 16.7502C36.7047 16.7502 40.4033 23.5858 40.4033 32.0191C40.4033 32.0191 38.2201 35.8167 32.5437 36Z" fill="white"/>
<path d="M21.0922 22C19.5896 22 18.4033 23.5766 18.4033 25.5C18.4033 27.4234 19.616 29 21.0922 29C22.5949 29 23.7812 27.4234 23.7812 25.5C23.8075 23.5766 22.5949 22 21.0922 22ZM30.7144 22C29.2118 22 28.0255 23.5766 28.0255 25.5C28.0255 27.4234 29.2381 29 30.7144 29C32.217 29 33.4033 27.4234 33.4033 25.5C33.4033 23.5766 32.217 22 30.7144 22Z" fill="#003CDA"/>
</svg>
