<svg width="2157" height="510" viewBox="0 0 2157 510" fill="none" xmlns="http://www.w3.org/2000/svg">
<path d="M1 1.77563H352.339C410.316 1.77563 457.301 49.2963 457.301 107.267V128.46C457.301 165.043 486.983 194.632 523.473 194.632H687V233.757H523.473C465.592 233.757 418.511 186.334 418.511 128.46V107.164C418.511 70.4847 388.926 41.3265 352.339 41.3265H1V1.77563Z" fill="#BBD0EF" fill-opacity="0.5" stroke="#000085" stroke-width="2"/>
<path opacity="0.5" fill-rule="evenodd" clip-rule="evenodd" d="M33.2885 10.8952C31.8952 10.8952 30.7656 9.76561 30.7656 8.37226C30.7656 6.9789 31.8952 5.84937 33.2885 5.84937H332.883C334.277 5.84937 335.406 6.9789 335.406 8.37226C335.406 9.76561 334.277 10.8952 332.883 10.8952H33.2885Z" fill="white"/>
<path opacity="0.5" fill-rule="evenodd" clip-rule="evenodd" d="M345.716 10.8952C344.322 10.8952 343.193 9.76561 343.193 8.37226C343.193 6.9789 344.322 5.84937 345.716 5.84937C355.658 5.84937 365.282 6.96463 374.447 9.15433C375.802 9.4781 376.639 10.8392 376.315 12.1944C375.991 13.5496 374.63 14.3858 373.275 14.062C364.496 11.9648 355.266 10.8952 345.716 10.8952Z" fill="white"/>
<path opacity="0.5" fill-rule="evenodd" clip-rule="evenodd" d="M422.468 41.8382C421.507 40.8285 421.547 39.2316 422.557 38.2714C423.567 37.3111 425.164 37.3512 426.124 38.3608C443.786 56.9311 453.525 81.7151 453.525 109.172C453.525 110.566 452.396 111.695 451.002 111.695C449.609 111.695 448.479 110.566 448.479 109.172C448.479 82.9994 439.23 59.4628 422.468 41.8382Z" fill="white"/>
<path opacity="0.5" fill-rule="evenodd" clip-rule="evenodd" d="M448.48 120.851C448.48 119.458 449.609 118.328 451.003 118.328C452.396 118.328 453.526 119.458 453.526 120.851V134.862C453.526 136.255 452.396 137.385 451.003 137.385C449.609 137.385 448.48 136.255 448.48 134.862V120.851Z" fill="white"/>
<path opacity="0.5" fill-rule="evenodd" clip-rule="evenodd" d="M450.118 149.103C449.802 147.746 450.647 146.39 452.004 146.075C453.361 145.759 454.717 146.604 455.032 147.961C461.866 177.377 490.774 199.684 522.76 199.684L603.288 198.633C604.681 198.614 605.825 199.729 605.843 201.122C605.861 202.516 604.747 203.66 603.353 203.678L522.793 204.729C488.456 204.729 457.488 180.834 450.118 149.103Z" fill="white"/>
<path opacity="0.3" d="M610.121 224.5C611.514 224.5 612.644 225.63 612.644 227.023C612.644 228.417 611.514 229.546 610.121 229.546H524.045C464.486 229.546 421.231 182.434 421.231 120.437V103.67C421.231 80.8437 409.481 60.0769 390.514 48.1899C380.19 41.7195 368.249 38.2371 355.79 38.2371H50.2088C48.8155 38.2371 47.6859 37.1076 47.6859 35.7142C47.6859 34.3209 48.8155 33.1913 50.2088 33.1913H355.79C369.203 33.1913 382.072 36.9441 393.194 43.9144C413.618 56.7147 426.276 79.088 426.276 103.67V120.437C426.276 179.739 467.373 224.5 524.045 224.5H610.121Z" fill="#000D6D"/>
<path opacity="0.2" fill-rule="evenodd" clip-rule="evenodd" d="M438.106 105.449C448.537 105.449 456.992 113.91 456.992 124.347C456.992 134.785 448.537 143.246 438.106 143.246C427.676 143.246 419.22 134.785 419.22 124.347C419.22 113.91 427.676 105.449 438.106 105.449Z" stroke="#000D6D" stroke-width="1.2075"/>
<path d="M417.75 125.961C417.75 114.09 426.767 104.456 437.905 104.456C449.044 104.456 458.061 114.09 458.061 125.961C458.061 126.266 457.817 126.513 457.516 126.513C457.216 126.513 456.972 126.266 456.972 125.961C456.972 114.687 448.429 105.558 437.905 105.558C427.382 105.558 418.839 114.687 418.839 125.961C418.839 126.266 418.595 126.513 418.295 126.513C417.994 126.513 417.75 126.266 417.75 125.961Z" fill="#000085"/>
<path opacity="0.2" fill-rule="evenodd" clip-rule="evenodd" d="M554.276 194.966C564.988 194.966 573.671 203.65 573.671 214.361C573.671 225.073 564.988 233.757 554.276 233.757C543.565 233.757 534.881 225.073 534.881 214.361C534.881 203.65 543.565 194.966 554.276 194.966Z" stroke="#000D6D" stroke-width="1.2075"/>
<path d="M555.523 234.415C543.825 234.415 534.331 225.421 534.331 214.31C534.331 203.2 543.825 194.206 555.523 194.206C555.823 194.206 556.066 194.449 556.066 194.749C556.066 195.049 555.823 195.292 555.523 195.292C544.413 195.292 535.418 203.814 535.418 214.31C535.418 224.807 544.413 233.328 555.523 233.328C555.823 233.328 556.066 233.572 556.066 233.872C556.066 234.172 555.823 234.415 555.523 234.415Z" fill="#000085"/>
<path opacity="0.2" fill-rule="evenodd" clip-rule="evenodd" d="M328.775 1.79004C339.688 1.79004 348.536 10.6371 348.536 21.5505C348.536 32.464 339.688 41.3111 328.775 41.3111C317.862 41.3111 309.015 32.464 309.015 21.5505C309.015 10.6371 317.862 1.79004 328.775 1.79004Z" stroke="#000D6D" stroke-width="1.2075"/>
<path d="M330.573 1C330.89 1 331.146 1.24867 331.146 1.55543C331.146 1.86219 330.89 2.11086 330.573 2.11086C318.857 2.11086 309.37 10.8214 309.37 21.5509C309.37 32.2805 318.857 40.991 330.573 40.991C330.89 40.991 331.146 41.2397 331.146 41.5464C331.146 41.8532 330.89 42.1019 330.573 42.1019C318.237 42.1019 308.224 32.9078 308.224 21.5509C308.224 10.194 318.237 1 330.573 1Z" fill="#000085"/>
<path opacity="0.2" fill-rule="evenodd" clip-rule="evenodd" d="M161.05 1.77197C171.761 1.77197 180.445 10.4555 180.445 21.1671C180.445 31.8787 171.761 40.5622 161.05 40.5622C150.338 40.5622 141.654 31.8787 141.654 21.1671C141.654 10.4555 150.338 1.77197 161.05 1.77197Z" stroke="#000D6D" stroke-width="1.2075"/>
<path d="M161.658 1.01172C161.952 1.01172 162.191 1.25561 162.191 1.55647C162.191 1.85732 161.952 2.10122 161.658 2.10122C150.772 2.10122 141.959 10.6442 141.959 21.1674C141.959 31.6906 150.772 40.2337 161.658 40.2337C161.952 40.2337 162.191 40.4775 162.191 40.7784C162.191 41.0793 161.952 41.3232 161.658 41.3232C150.197 41.3232 140.894 32.3059 140.894 21.1674C140.894 10.029 150.197 1.01172 161.658 1.01172Z" fill="#000085"/>
<path d="M2156 1.77563H1804.66C1746.68 1.77563 1699.7 49.2963 1699.7 107.267V128.46C1699.7 165.043 1670.02 194.632 1633.53 194.632H1470V233.757H1633.53C1691.41 233.757 1738.49 186.334 1738.49 128.46V107.164C1738.49 70.4847 1768.07 41.3265 1804.66 41.3265H2156V1.77563Z" fill="#BBD0EF" fill-opacity="0.5" stroke="#000085" stroke-width="2"/>
<path opacity="0.5" fill-rule="evenodd" clip-rule="evenodd" d="M2123.71 10.8952C2125.1 10.8952 2126.23 9.76561 2126.23 8.37226C2126.23 6.9789 2125.1 5.84937 2123.71 5.84937H1824.12C1822.72 5.84937 1821.59 6.9789 1821.59 8.37226C1821.59 9.76561 1822.72 10.8952 1824.12 10.8952H2123.71Z" fill="white"/>
<path opacity="0.5" fill-rule="evenodd" clip-rule="evenodd" d="M1811.28 10.8952C1812.68 10.8952 1813.81 9.76561 1813.81 8.37226C1813.81 6.9789 1812.68 5.84937 1811.28 5.84937C1801.34 5.84937 1791.72 6.96463 1782.55 9.15433C1781.2 9.4781 1780.36 10.8392 1780.69 12.1944C1781.01 13.5496 1782.37 14.3858 1783.73 14.062C1792.5 11.9648 1801.73 10.8952 1811.28 10.8952Z" fill="white"/>
<path opacity="0.5" fill-rule="evenodd" clip-rule="evenodd" d="M1734.53 41.8382C1735.49 40.8285 1735.45 39.2316 1734.44 38.2714C1733.43 37.3111 1731.84 37.3512 1730.88 38.3608C1713.21 56.9311 1703.47 81.7151 1703.47 109.172C1703.47 110.566 1704.6 111.695 1706 111.695C1707.39 111.695 1708.52 110.566 1708.52 109.172C1708.52 82.9994 1717.77 59.4628 1734.53 41.8382Z" fill="white"/>
<path opacity="0.5" fill-rule="evenodd" clip-rule="evenodd" d="M1708.52 120.851C1708.52 119.458 1707.39 118.328 1706 118.328C1704.6 118.328 1703.47 119.458 1703.47 120.851V134.862C1703.47 136.255 1704.6 137.385 1706 137.385C1707.39 137.385 1708.52 136.255 1708.52 134.862V120.851Z" fill="white"/>
<path opacity="0.5" fill-rule="evenodd" clip-rule="evenodd" d="M1706.88 149.103C1707.2 147.746 1706.35 146.39 1705 146.075C1703.64 145.759 1702.28 146.604 1701.97 147.961C1695.13 177.377 1666.23 199.684 1634.24 199.684L1553.71 198.633C1552.32 198.614 1551.18 199.729 1551.16 201.122C1551.14 202.516 1552.25 203.66 1553.65 203.678L1634.21 204.729C1668.54 204.729 1699.51 180.834 1706.88 149.103Z" fill="white"/>
<path opacity="0.3" d="M1546.88 224.5C1545.49 224.5 1544.36 225.63 1544.36 227.023C1544.36 228.417 1545.49 229.546 1546.88 229.546H1632.96C1692.51 229.546 1735.77 182.434 1735.77 120.437V103.67C1735.77 80.8437 1747.52 60.0769 1766.49 48.1899C1776.81 41.7195 1788.75 38.2371 1801.21 38.2371H2106.79C2108.18 38.2371 2109.31 37.1076 2109.31 35.7142C2109.31 34.3209 2108.18 33.1913 2106.79 33.1913H1801.21C1787.8 33.1913 1774.93 36.9441 1763.81 43.9144C1743.38 56.7147 1730.72 79.088 1730.72 103.67V120.437C1730.72 179.739 1689.63 224.5 1632.96 224.5H1546.88Z" fill="#000D6D"/>
<path opacity="0.2" fill-rule="evenodd" clip-rule="evenodd" d="M1718.89 105.449C1708.46 105.449 1700.01 113.91 1700.01 124.347C1700.01 134.785 1708.46 143.246 1718.89 143.246C1729.32 143.246 1737.78 134.785 1737.78 124.347C1737.78 113.91 1729.32 105.449 1718.89 105.449Z" stroke="#000D6D" stroke-width="1.2075"/>
<path d="M1739.25 125.961C1739.25 114.09 1730.23 104.456 1719.09 104.456C1707.96 104.456 1698.94 114.09 1698.94 125.961C1698.94 126.266 1699.18 126.513 1699.48 126.513C1699.78 126.513 1700.03 126.266 1700.03 125.961C1700.03 114.687 1708.57 105.558 1719.09 105.558C1729.62 105.558 1738.16 114.687 1738.16 125.961C1738.16 126.266 1738.4 126.513 1738.71 126.513C1739.01 126.513 1739.25 126.266 1739.25 125.961Z" fill="#000085"/>
<path opacity="0.2" fill-rule="evenodd" clip-rule="evenodd" d="M1602.72 194.966C1592.01 194.966 1583.33 203.65 1583.33 214.361C1583.33 225.073 1592.01 233.757 1602.72 233.757C1613.44 233.757 1622.12 225.073 1622.12 214.361C1622.12 203.65 1613.44 194.966 1602.72 194.966Z" stroke="#000D6D" stroke-width="1.2075"/>
<path d="M1601.48 234.415C1613.17 234.415 1622.67 225.421 1622.67 214.31C1622.67 203.2 1613.17 194.206 1601.48 194.206C1601.18 194.206 1600.93 194.449 1600.93 194.749C1600.93 195.049 1601.18 195.292 1601.48 195.292C1612.59 195.292 1621.58 203.814 1621.58 214.31C1621.58 224.807 1612.59 233.328 1601.48 233.328C1601.18 233.328 1600.93 233.572 1600.93 233.872C1600.93 234.172 1601.18 234.415 1601.48 234.415Z" fill="#000085"/>
<path opacity="0.2" fill-rule="evenodd" clip-rule="evenodd" d="M1828.22 1.79004C1817.31 1.79004 1808.46 10.6371 1808.46 21.5505C1808.46 32.464 1817.31 41.3111 1828.22 41.3111C1839.14 41.3111 1847.99 32.464 1847.99 21.5505C1847.99 10.6371 1839.14 1.79004 1828.22 1.79004Z" stroke="#000D6D" stroke-width="1.2075"/>
<path d="M1826.43 1C1826.11 1 1825.85 1.24867 1825.85 1.55543C1825.85 1.86219 1826.11 2.11086 1826.43 2.11086C1838.14 2.11086 1847.63 10.8214 1847.63 21.5509C1847.63 32.2805 1838.14 40.991 1826.43 40.991C1826.11 40.991 1825.85 41.2397 1825.85 41.5464C1825.85 41.8532 1826.11 42.1019 1826.43 42.1019C1838.76 42.1019 1848.78 32.9078 1848.78 21.5509C1848.78 10.194 1838.76 1 1826.43 1Z" fill="#000085"/>
<path opacity="0.2" fill-rule="evenodd" clip-rule="evenodd" d="M1995.95 1.77197C1985.24 1.77197 1976.56 10.4555 1976.56 21.1671C1976.56 31.8787 1985.24 40.5622 1995.95 40.5622C2006.66 40.5622 2015.35 31.8787 2015.35 21.1671C2015.35 10.4555 2006.66 1.77197 1995.95 1.77197Z" stroke="#000D6D" stroke-width="1.2075"/>
<path d="M1995.34 1.01172C1995.05 1.01172 1994.81 1.25561 1994.81 1.55647C1994.81 1.85732 1995.05 2.10122 1995.34 2.10122C2006.23 2.10122 2015.04 10.6442 2015.04 21.1674C2015.04 31.6906 2006.23 40.2337 1995.34 40.2337C1995.05 40.2337 1994.81 40.4775 1994.81 40.7784C1994.81 41.0793 1995.05 41.3232 1995.34 41.3232C2006.8 41.3232 2016.11 32.3059 2016.11 21.1674C2016.11 10.029 2006.8 1.01172 1995.34 1.01172Z" fill="#000085"/>
<path opacity="0.4" d="M1260.99 371.477C1271.12 371.477 1279.42 379.811 1279.42 389.996V427.961C1279.42 471.944 1243.76 508.5 1200 508.5C1185 508.5 1180 499.186 1180 489C1180 476.5 1189.86 470.741 1200 470.741C1223.49 470.741 1242.56 451.573 1242.56 427.961V389.996C1242.56 379.811 1250.76 371.477 1260.99 371.477Z" fill="white"/>
<path fill-rule="evenodd" clip-rule="evenodd" d="M1260.99 370.644C1271.58 370.644 1280.25 379.352 1280.25 389.996V427.961C1280.25 472.403 1243.22 509 1199 509C1187.5 509 1180 500.145 1180 489.5C1180 478.855 1187 469.908 1200 469.908C1223.03 469.908 1241.73 451.114 1241.73 427.961V389.996C1241.73 379.32 1250.33 370.644 1260.99 370.644Z" stroke="#000085" stroke-width="2"/>
<path opacity="0.5" d="M1264.48 456.333C1265.05 455.163 1266.47 454.67 1267.65 455.233C1268.84 455.795 1269.33 457.2 1268.76 458.37C1266.59 462.855 1264.52 466.601 1262.37 469.918C1261.67 471.011 1260.2 471.329 1259.09 470.627C1257.99 469.926 1257.67 468.471 1258.38 467.379C1260.41 464.238 1262.38 460.656 1264.48 456.333Z" fill="white"/>
<path opacity="0.5" d="M1269.82 387.291C1269.82 386.026 1270.98 385 1272.41 385C1273.84 385 1275 386.026 1275 387.291L1275 428.623C1274.68 435.918 1273.72 443.495 1272.07 448.364C1271.67 449.576 1270.22 450.266 1268.85 449.904C1267.48 449.542 1266.7 448.265 1267.11 447.053C1268.59 442.654 1269.51 435.378 1269.82 428.534V387.291Z" fill="white"/>
<path opacity="0.3" d="M1212.5 476.5C1211.67 476.654 1210 474.5 1205.5 472.5C1209.07 472.147 1209.78 471.64 1210.6 471.487C1229.89 467.915 1245.03 449.678 1245.03 429.712L1245.42 398.248C1245.44 396.984 1246.49 395.978 1247.75 396C1249.02 396.023 1250.02 397.066 1250 398.329C1249.85 406.857 1249.85 416.393 1249.61 429.753C1249.61 451.883 1233.96 472.526 1212.5 476.5Z" fill="#000085"/>
<path fill-rule="evenodd" clip-rule="evenodd" d="M1199 471C1209.49 471 1218 479.507 1218 490C1218 500.493 1209.49 509 1199 509C1188.51 509 1180 500.493 1180 490C1180 479.507 1188.51 471 1199 471Z" stroke="#000085" stroke-width="2"/>
<path fill-rule="evenodd" clip-rule="evenodd" d="M1198.5 477C1205.96 477 1212 483.044 1212 490.5C1212 497.956 1205.96 504 1198.5 504C1191.04 504 1185 497.956 1185 490.5C1185 483.044 1191.04 477 1198.5 477Z" stroke="#000085"/>
<path opacity="0.4" d="M1092.99 371.477C1103.12 371.477 1111.42 379.811 1111.42 389.996V427.961C1111.42 471.944 1075.76 508.5 1032 508.5C1017 508.5 1012 499.186 1012 489C1012 476.5 1021.86 470.741 1032 470.741C1055.49 470.741 1074.56 451.573 1074.56 427.961V389.996C1074.56 379.811 1082.76 371.477 1092.99 371.477Z" fill="white"/>
<path fill-rule="evenodd" clip-rule="evenodd" d="M1092.99 370.644C1103.58 370.644 1112.25 379.352 1112.25 389.996V427.961C1112.25 472.403 1075.22 509 1031 509C1019.5 509 1012 500.145 1012 489.5C1012 478.855 1019 469.908 1032 469.908C1055.03 469.908 1073.73 451.114 1073.73 427.961V389.996C1073.73 379.32 1082.33 370.644 1092.99 370.644Z" stroke="#000085" stroke-width="2"/>
<path opacity="0.5" d="M1096.48 456.333C1097.05 455.163 1098.47 454.67 1099.65 455.233C1100.84 455.795 1101.33 457.2 1100.76 458.37C1098.59 462.855 1096.52 466.601 1094.37 469.918C1093.67 471.011 1092.2 471.329 1091.09 470.627C1089.99 469.926 1089.67 468.471 1090.38 467.379C1092.41 464.238 1094.38 460.656 1096.48 456.333Z" fill="white"/>
<path opacity="0.5" d="M1101.82 387.291C1101.82 386.026 1102.98 385 1104.41 385C1105.84 385 1107 386.026 1107 387.291L1107 428.623C1106.68 435.918 1105.72 443.495 1104.07 448.364C1103.67 449.576 1102.22 450.266 1100.85 449.904C1099.48 449.542 1098.7 448.265 1099.11 447.053C1100.59 442.654 1101.51 435.378 1101.82 428.534V387.291Z" fill="white"/>
<path opacity="0.3" d="M1044.5 476.5C1043.67 476.654 1042 474.5 1037.5 472.5C1041.07 472.147 1041.78 471.64 1042.6 471.487C1061.89 467.915 1077.03 449.678 1077.03 429.712L1077.42 398.248C1077.44 396.984 1078.49 395.978 1079.75 396C1081.02 396.023 1082.02 397.066 1082 398.329C1081.85 406.857 1081.85 416.393 1081.61 429.753C1081.61 451.883 1065.96 472.526 1044.5 476.5Z" fill="#000085"/>
<path fill-rule="evenodd" clip-rule="evenodd" d="M1031 471C1041.49 471 1050 479.507 1050 490C1050 500.493 1041.49 509 1031 509C1020.51 509 1012 500.493 1012 490C1012 479.507 1020.51 471 1031 471Z" stroke="#000085" stroke-width="2"/>
<path fill-rule="evenodd" clip-rule="evenodd" d="M1030.5 477C1037.96 477 1044 483.044 1044 490.5C1044 497.956 1037.96 504 1030.5 504C1023.04 504 1017 497.956 1017 490.5C1017 483.044 1023.04 477 1030.5 477Z" stroke="#000085"/>
<path opacity="0.4" d="M924.989 371.477C935.124 371.477 943.416 379.811 943.416 389.996V427.961C943.416 471.944 907.76 508.5 863.997 508.5C849 508.5 844 499.186 844 489C844 476.5 853.862 470.741 863.997 470.741C887.491 470.741 906.562 451.573 906.562 427.961V389.996C906.562 379.811 914.762 371.477 924.989 371.477Z" fill="white"/>
<path fill-rule="evenodd" clip-rule="evenodd" d="M924.989 370.644C935.585 370.644 944.248 379.352 944.248 389.996V427.961C944.248 472.403 907.224 509 863 509C851.5 509 844 500.145 844 489.5C844 478.855 851 469.908 863.996 469.908C887.03 469.908 905.729 451.114 905.729 427.961V389.996C905.729 379.32 914.332 370.644 924.989 370.644Z" stroke="#000085" stroke-width="2"/>
<path opacity="0.5" d="M928.484 456.333C929.052 455.163 930.471 454.67 931.653 455.233C932.836 455.795 933.333 457.2 932.765 458.37C930.587 462.855 928.525 466.601 926.374 469.918C925.666 471.011 924.197 471.329 923.093 470.627C921.989 469.926 921.668 468.471 922.376 467.379C924.412 464.238 926.385 460.656 928.484 456.333Z" fill="white"/>
<path opacity="0.5" d="M933.818 387.291C933.818 386.026 934.978 385 936.409 385C937.84 385 939 386.026 939 387.291L938.998 428.623C938.676 435.918 937.718 443.495 936.074 448.364C935.665 449.576 934.222 450.266 932.851 449.904C931.479 449.542 930.7 448.265 931.109 447.053C932.594 442.654 933.514 435.378 933.818 428.534V387.291Z" fill="white"/>
<path opacity="0.3" d="M876.5 476.5C875.671 476.654 874 474.5 869.5 472.5C873.074 472.147 873.775 471.64 874.604 471.487C893.891 467.915 909.031 449.678 909.031 429.712L909.421 398.248C909.443 396.984 910.487 395.978 911.751 396C913.015 396.023 914.022 397.066 914 398.329C913.848 406.857 913.848 416.393 913.61 429.753C913.61 451.883 897.96 472.526 876.5 476.5Z" fill="#000085"/>
<path fill-rule="evenodd" clip-rule="evenodd" d="M863 471C873.493 471 882 479.507 882 490C882 500.493 873.493 509 863 509C852.507 509 844 500.493 844 490C844 479.507 852.507 471 863 471Z" stroke="#000085" stroke-width="2"/>
<path fill-rule="evenodd" clip-rule="evenodd" d="M862.5 477C869.956 477 876 483.044 876 490.5C876 497.956 869.956 504 862.5 504C855.044 504 849 497.956 849 490.5C849 483.044 855.044 477 862.5 477Z" stroke="#000085"/>
<path opacity="0.4" d="M756.989 371.477C767.124 371.477 775.416 379.811 775.416 389.996V427.961C775.416 471.944 739.76 508.5 695.997 508.5C681 508.5 676 499.186 676 489C676 476.5 685.862 470.741 695.997 470.741C719.491 470.741 738.562 451.573 738.562 427.961V389.996C738.562 379.811 746.762 371.477 756.989 371.477Z" fill="white"/>
<path fill-rule="evenodd" clip-rule="evenodd" d="M756.989 370.644C767.585 370.644 776.248 379.352 776.248 389.996V427.961C776.248 472.403 739.224 509 695 509C683.5 509 676 500.145 676 489.5C676 478.855 683 469.908 695.996 469.908C719.03 469.908 737.729 451.114 737.729 427.961V389.996C737.729 379.32 746.332 370.644 756.989 370.644Z" stroke="#000085" stroke-width="2"/>
<path opacity="0.5" d="M760.484 456.333C761.052 455.163 762.471 454.67 763.653 455.233C764.836 455.795 765.333 457.2 764.765 458.37C762.587 462.855 760.525 466.601 758.374 469.918C757.666 471.011 756.197 471.329 755.093 470.627C753.989 469.926 753.668 468.471 754.376 467.379C756.412 464.238 758.385 460.656 760.484 456.333Z" fill="white"/>
<path opacity="0.5" d="M765.818 387.291C765.818 386.026 766.978 385 768.409 385C769.84 385 771 386.026 771 387.291L770.998 428.623C770.676 435.918 769.718 443.495 768.074 448.364C767.665 449.576 766.222 450.266 764.851 449.904C763.479 449.542 762.7 448.265 763.109 447.053C764.594 442.654 765.514 435.378 765.818 428.534V387.291Z" fill="white"/>
<path opacity="0.3" d="M708.5 476.5C707.671 476.654 706 474.5 701.5 472.5C705.074 472.147 705.775 471.64 706.604 471.487C725.891 467.915 741.031 449.678 741.031 429.712L741.421 398.248C741.443 396.984 742.487 395.978 743.751 396C745.015 396.023 746.022 397.066 746 398.329C745.848 406.857 745.848 416.393 745.61 429.753C745.61 451.883 729.96 472.526 708.5 476.5Z" fill="#000085"/>
<path fill-rule="evenodd" clip-rule="evenodd" d="M695 471C705.493 471 714 479.507 714 490C714 500.493 705.493 509 695 509C684.507 509 676 500.493 676 490C676 479.507 684.507 471 695 471Z" stroke="#000085" stroke-width="2"/>
<path fill-rule="evenodd" clip-rule="evenodd" d="M694.5 477C701.956 477 708 483.044 708 490.5C708 497.956 701.956 504 694.5 504C687.044 504 681 497.956 681 490.5C681 483.044 687.044 477 694.5 477Z" stroke="#000085"/>
<path d="M618 154H1363.21V431H618V154Z" fill="white" stroke="#000085" stroke-width="2"/>
<path d="M1361 154H1360V155V430V431H1361H1538H1539V430V429.641V429.282V428.924V428.566V428.209V427.852V427.495V427.138V426.782V426.426V426.071V425.716V425.361V425.007V424.653V424.299V423.946V423.593V423.24V422.888V422.536V422.184V421.833V421.482V421.132V420.782V420.432V420.083V419.734V419.385V419.037V418.689V418.341V417.994V417.647V417.3V416.954V416.608V416.262V415.917V415.572V415.228V414.884V414.54V414.197V413.854V413.511V413.169V412.827V412.485V412.144V411.803V411.462V411.122V410.782V410.443V410.104V409.765V409.426V409.088V408.751V408.413V408.076V407.739V407.403V407.067V406.732V406.396V406.061V405.727V405.393V405.059V404.725V404.392V404.059V403.727V403.395V403.063V402.732V402.401V402.07V401.74V401.41V401.08V400.751V400.422V400.094V399.765V399.438V399.11V398.783V398.456V398.13V397.804V397.478V397.153V396.828V396.503V396.179V395.855V395.531V395.208V394.885V394.563V394.24V393.919V393.597V393.276V392.955V392.635V392.315V391.995V391.676V391.357V391.038V390.72V390.402V390.085V389.767V389.45V389.134V388.818V388.502V388.187V387.871V387.557V387.242V386.928V386.615V386.301V385.988V385.676V385.363V385.052V384.74V384.429V384.118V383.807V383.497V383.188V382.878V382.569V382.26V381.952V381.644V381.336V381.029V380.722V380.415V380.109V379.803V379.498V379.193V378.888V378.583V378.279V377.975V377.672V377.369V377.066V376.764V376.462V376.16V375.859V375.558V375.257V374.957V374.657V374.358V374.059V373.76V373.461V373.163V372.866V372.568V372.271V371.974V371.678V371.382V371.087V370.791V370.496V370.202V369.908V369.614V369.32V369.027V368.734V368.442V368.15V367.858V367.567V367.276V366.985V366.695V366.405V366.115V365.826V365.537V365.248V364.96V364.672V364.385V364.098V363.811V363.524V363.238V362.953V362.667V362.382V362.098V361.813V361.529V361.246V360.963V360.68V360.397V360.115V359.833V359.552V359.271V358.99V358.709V358.429V358.15V357.87V357.591V357.313V357.034V356.756V356.479V356.202V355.925V355.648V355.372V355.096V354.821V354.546V354.271V353.997V353.723V353.449V353.176V352.903V352.63V352.358V352.086V351.814V351.543V351.272V351.002V350.731V350.462V350.192V349.923V349.654V349.386V349.118V348.85V348.583V348.316V348.049V347.783V347.517V347.252V346.987V346.722V346.457V346.193V345.929V345.666V345.403V345.14V344.878V344.616V344.354V344.093V343.832V343.571V343.311V343.051V342.792V342.532V342.274V342.015V341.757V341.499V341.242V340.985V340.728V340.472V340.216V339.96V339.705V339.45V339.195V338.941V338.687V338.434V338.181V337.928V337.675V337.423V337.171V336.92V336.669V336.418V336.168V335.918V335.668V335.419V335.17V334.922V334.673V334.426V334.178V333.931V333.684V333.438V333.192V332.946V332.701V332.456V332.211V331.967V331.723V331.479V331.236V330.993V330.75V330.508V330.266V330.025V329.784V329.543V329.302V329.062V328.823V328.583V328.344V328.106V327.867V327.629V327.392V327.155V326.918V326.681V326.445V326.209V325.974V325.739V325.504V325.269V325.035V324.802V324.568V324.335V324.103V323.87V323.638V323.407V323.176V322.945V322.714V322.484V322.254V322.025V321.796V321.567V321.339V321.111V320.883V320.656V320.429V320.202V319.976V319.75V319.524V319.299V319.074V318.85V318.626V318.402V318.178V317.955V317.732V317.51V317.288V317.066V316.845V316.624V316.404V316.183V315.963V315.744V315.525V315.306V315.087V314.869V314.651V314.434V314.217V314V313.784V313.568V313.352V313.137V312.922V312.707V312.493V312.279V312.066V311.853V311.64V311.427V311.215V311.003V310.792V310.581V310.37V310.16V309.95V309.74V309.531V309.322V309.114V308.905V308.697V308.49V308.283V308.076V307.87V307.663V307.458V307.252V307.047V306.843V306.638V306.434V306.231V306.027V305.824V305.622V305.42V305.218V305.016V304.815V304.614V304.414V304.214V304.014V303.815V303.616V303.417V303.219V303.021V302.823V302.626V302.429V302.233V302.036V301.841V301.645V301.45V301.255V301.061V300.867V300.673V300.48V300.287V300.094V299.902V299.71V299.518V299.327V299.136V298.945V298.755V298.565V298.376V298.187V297.998V297.81V297.622V297.434V297.247V297.06V296.873V296.687V296.501V296.315V296.13V295.945V295.761V295.577V295.393V295.209V295.026V294.843V294.661V294.479V294.297V294.116V293.935V293.754V293.574V293.394V293.215V293.035V292.857V292.678V292.5V292.322V292.143V291.965V291.785V291.606V291.426V291.246V291.065V290.884V290.703V290.521V290.339V290.157V289.974V289.791V289.607V289.423V289.239V289.055V288.87V288.685V288.499V288.313V288.127V287.94V287.753V287.566V287.378V287.19V287.002V286.813V286.624V286.434V286.245V286.055V285.864V285.673V285.482V285.29V285.098V284.906V284.713V284.52V284.327V284.133V283.939V283.745V283.55V283.355V283.159V282.964V282.767V282.571V282.374V282.177V281.979V281.781V281.583V281.384V281.185V280.986V280.786V280.586V280.386V280.185V279.984V279.782V279.58V279.378V279.176V278.973V278.769V278.566V278.362V278.157V277.953V277.748V277.542V277.337V277.13V276.924V276.717V276.51V276.303V276.095V275.886V275.678V275.469V275.26V275.05V274.84V274.63V274.419V274.208V273.997V273.785V273.573V273.36V273.147V272.934V272.721V272.507V272.293V272.078V271.863V271.648V271.432V271.216V271V270.783V270.566V270.349V270.131V269.913V269.694V269.475V269.256V269.037V268.817V268.596V268.376V268.155V267.934V267.712V267.49V267.268V267.045V266.822V266.598V266.374V266.15V265.926V265.701V265.476V265.25V265.024V264.798V264.571V264.344V264.117V263.889V263.661V263.433V263.204V262.975V262.746V262.516V262.286V262.055V261.824V261.593V261.362V261.13V260.897V260.665V260.432V260.198V259.965V259.731V259.496V259.261V259.026V258.791V258.555V258.319V258.082V257.845V257.608V257.371V257.133V256.894V256.656V256.417V256.177V255.938V255.698V255.457V255.216V254.975V254.734V254.492V254.25V254.007V253.764V253.521V253.277V253.033V252.789V252.544V252.299V252.054V251.808V251.562V251.316V251.069V250.822V250.574V250.327V250.078V249.83V249.581V249.332V249.082V248.832V248.582V248.331V248.08V247.829V247.577V247.325V247.072V246.819V246.566V246.313V246.059V245.805V245.55V245.295V245.04V244.784V244.528V244.272V244.015V243.758V243.501V243.243V242.985V242.726V242.468V242.208V241.949V241.689V241.429V241.168V240.907V240.646V240.384V240.122V239.86V239.597V239.334V239.071V238.807V238.543V238.278V238.013V237.748V237.483V237.217V236.951V236.684V236.417V236.15V235.882V235.614V235.346V235.077V234.808V234.538V234.269V233.998V233.728V233.457V233.186V232.914V232.642V232.37V232.097V231.824V231.551V231.277V231.003V230.729V230.454V230.179V229.904V229.628V229.352V229.075V228.798V228.521V228.244V227.966V227.687V227.409V227.13V226.85V226.571V226.291V226.01V225.729V225.448V225.167V224.885V224.603V224.32V224.037V223.754V223.471V223.187V222.902V222.618V222.333V222.047V221.762V221.476V221.189V220.902V220.615V220.328V220.04V219.752V219.463V219.174V218.885V218.595V218.305V218.015V217.724V217.433V217.142V216.85V216.558V216.266V215.973V215.68V215.386V215.092V214.798V214.504V214.209V213.913V213.618V213.322V213.026V212.729V212.432V212.134V211.837V211.539V211.24V210.941V210.642V210.343V210.043V209.743V209.442V209.141V208.84V208.538V208.236V207.934V207.631V207.328V207.025V206.721V206.417V206.112V205.807V205.502V205.197V204.891V204.585V204.278V203.971V203.664V203.356V203.048V202.74V202.431V202.122V201.812V201.503V201.193V200.882V200.571V200.26V199.948V199.637V199.324V199.012V198.699V198.385V198.072V197.758V197.443V197.129V196.813V196.498V196.182V195.866V195.55V195.233V194.916V194.598V194.28V193.962V193.643V193.324V193.005V192.685V192.365V192.045V191.724V191.403V191.081V190.76V190.437V190.115V189.792V189.469V189.145V188.821V188.497V188.172V187.847V187.522V187.196V186.87V186.544V186.217V185.89V185.562V185.235V184.906V184.578V184.249V183.92V183.59V183.26V182.93V182.599V182.268V181.937V181.605V181.273V180.941V180.608V180.275V179.941V179.607V179.273V178.939V178.604V178.268V177.933V177.597V177.261V176.924V176.587V176.249V175.912V175.574V175.235V174.896V174.557V174.218V173.878V173.538V173.197V172.856V172.515V172.173V171.831V171.489V171.146V170.803V170.46V170.116V169.772V169.428V169.083V168.738V168.392V168.046V167.7V167.353V167.006V166.659V166.311V165.963V165.615V165.266V164.917V164.568V164.218V163.868V163.518V163.167V162.816V162.464V162.112V161.76V161.407V161.054V160.701V160.347V159.993V159.639V159.284V158.929V158.574V158.218V157.862V157.505V157.149V156.791V156.434V156.076V155.718V155.359V155V154H1538H1361Z" fill="#CBE2FF" stroke="#000085" stroke-width="2"/>
<path d="M1385 182H1514V403H1385V182Z" fill="#BED1F4" stroke="#000085" stroke-width="2"/>
<path d="M1506 182H1514V403H1506V182Z" fill="white" stroke="#000085" stroke-width="2"/>
<path d="M1483 199H1490V209H1483V199Z" fill="white" stroke="#000085" stroke-width="2"/>
<path d="M1402 199H1483V209H1402V199Z" fill="#000085" stroke="#000085" stroke-width="2"/>
<path d="M1483 221H1490V231H1483V221Z" fill="white" stroke="#000085" stroke-width="2"/>
<path d="M1402 221H1483V231H1402V221Z" fill="#000085" stroke="#000085" stroke-width="2"/>
<path d="M1483 243H1490V253H1483V243Z" fill="white" stroke="#000085" stroke-width="2"/>
<path d="M1402 243H1483V253H1402V243Z" fill="#000085" stroke="#000085" stroke-width="2"/>
<path d="M1483 265H1490V275H1483V265Z" fill="white" stroke="#000085" stroke-width="2"/>
<path d="M1402 265H1483V275H1402V265Z" fill="#000085" stroke="#000085" stroke-width="2"/>
<path d="M1483 287H1490V297H1483V287Z" fill="white" stroke="#000085" stroke-width="2"/>
<path d="M1402 287H1483V297H1402V287Z" fill="#000085" stroke="#000085" stroke-width="2"/>
<path d="M1483 309H1490V319H1483V309Z" fill="white" stroke="#000085" stroke-width="2"/>
<path d="M1402 309H1483V319H1402V309Z" fill="#000085" stroke="#000085" stroke-width="2"/>
<path d="M1483 331H1490V341H1483V331Z" fill="white" stroke="#000085" stroke-width="2"/>
<path d="M1402 331H1483V341H1402V331Z" fill="#000085" stroke="#000085" stroke-width="2"/>
<path d="M1483 353H1490V363H1483V353Z" fill="white" stroke="#000085" stroke-width="2"/>
<path d="M1402 353H1483V363H1402V353Z" fill="#000085" stroke="#000085" stroke-width="2"/>
<path d="M1483 375H1490V385H1483V375Z" fill="white" stroke="#000085" stroke-width="2"/>
<path d="M1402 375H1483V385H1402V375Z" fill="#000085" stroke="#000085" stroke-width="2"/>
<circle cx="1374" cy="168" r="2.5" fill="white" stroke="#000085"/>
<circle cx="1525" cy="168" r="2.5" fill="white" stroke="#000085"/>
<circle cx="1374" cy="417" r="2.5" fill="white" stroke="#000085"/>
<circle cx="1525" cy="417" r="2.5" fill="white" stroke="#000085"/>
<path opacity="0.5" d="M1350 430H619V259C619 259 639.199 349.129 679.862 312.92C749.715 250.848 851.372 252.362 899.077 325.537C899.077 325.537 928.04 366.288 974.836 360.61L1005.5 353.545C1024.47 349.129 1044.24 354.933 1058.77 369.315C1076.38 386.726 1098.3 397.576 1121.59 400.604L1350 430Z" fill="#DCEBFF"/>
<path d="M1215.04 194.844H1224.96V385.156H1215.04V194.844Z" fill="#CBE2FF" stroke="#000085" stroke-width="2"/>
<path d="M1214 194H1226V386H1214V194Z" fill="#CBE2FF" stroke="#000085" stroke-width="2"/>
<path d="M1226 194H1279V386H1226V194Z" fill="#407BF7" stroke="#000085" stroke-width="2"/>
<path opacity="0.2" d="M1227 317V360L1278 245.048V198L1227 317Z" fill="white"/>
<path opacity="0.2" d="M1227 275.125V300L1273 195H1261L1227 275.125Z" fill="white"/>
<path d="M1047.04 194.844H1056.96V385.156H1047.04V194.844Z" fill="#CBE2FF" stroke="#000085" stroke-width="2"/>
<path d="M1046 194H1058V386H1046V194Z" fill="#CBE2FF" stroke="#000085" stroke-width="2"/>
<path d="M1058 194H1111V386H1058V194Z" fill="#407BF7" stroke="#000085" stroke-width="2"/>
<path opacity="0.2" d="M1059 385V360L1110 245.047V316L1081 385H1059Z" fill="white"/>
<path d="M879.041 194.844H888.958V385.156H879.041V194.844Z" fill="#CBE2FF" stroke="#000085" stroke-width="2"/>
<path d="M878 194H890V386H878V194Z" fill="#CBE2FF" stroke="#000085" stroke-width="2"/>
<path d="M890 194H943V386H890V194Z" fill="#407BF7" stroke="#000085" stroke-width="2"/>
<path opacity="0.2" d="M891 342V385L942 270.048V223L891 342Z" fill="white"/>
<path opacity="0.2" d="M891 316V329L942 212.048V197L891 316Z" fill="white"/>
<path d="M711.041 194.844H720.958V385.156H711.041V194.844Z" fill="#CBE2FF" stroke="#000085" stroke-width="2"/>
<path d="M710 194H722V386H710V194Z" fill="#CBE2FF" stroke="#000085" stroke-width="2"/>
<path d="M722 194H775V386H722V194Z" fill="#407BF7" stroke="#000085" stroke-width="2"/>
<path opacity="0.2" d="M723 228.125V300L769 195H737L723 228.125Z" fill="white"/>
</svg>
