<svg width="214" height="507" viewBox="0 0 214 507" fill="none" xmlns="http://www.w3.org/2000/svg">
<path d="M1 69H213" stroke="#000085" stroke-width="2" stroke-linecap="round"/>
<path d="M1 0V507" stroke="#000085" stroke-width="2"/>
<path d="M52 83H1.00002" stroke="#000085" stroke-width="2" stroke-linecap="round"/>
<path d="M24.6758 203C25.2281 203 25.6758 203.448 25.6758 204C25.6758 204.552 25.2281 205 24.6758 205V203ZM24.6758 205H-4.76837e-05V203H24.6758V205Z" fill="#000085"/>
<path d="M24.6758 191H0.999952" stroke="#000085" stroke-width="2" stroke-linecap="round"/>
<path d="M16 149H0.999952" stroke="#000085" stroke-width="2" stroke-linecap="round"/>
<path d="M2.13728 192.38C2.09432 190.439 1.00208 190.596 1.00017 192.535C0.987755 213.691 1.67327 491.407 1.67327 491.407C1.67327 491.407 31.9037 471.735 31.9037 421.861C31.9037 398.582 27.9052 384.611 21.156 364.938C8.74516 330.959 16.5933 299.651 17.6483 283.011C19.6265 251.817 3.44625 251.817 2.13728 192.38Z" fill="#000085"/>
</svg>
