<svg width="62" height="478" viewBox="0 0 62 478" fill="none" xmlns="http://www.w3.org/2000/svg">
    <path d="M59.9995 1V365" stroke="#000085" stroke-width="2" stroke-linecap="round"/>
    <path d="M12 343.09H60.0172" stroke="#000085" stroke-width="2" stroke-linecap="round"/>
    <path d="M61 470H37" stroke="#000085" stroke-width="2" stroke-linecap="round"/>
    <path d="M61 477.5H20" stroke="#000085" stroke-linecap="round"/>
    <path d="M25 359H1" stroke="#000085" stroke-width="2" stroke-linecap="round"/>
    <path d="M59.4321 262H47.9997" stroke="#000085" stroke-width="2" stroke-linecap="round"/>
    <path d="M30.118 320C31.6928 320 32.936 320.58 33.8477 321.741C34.7594 322.901 35.2153 324.572 35.2153 326.755C35.2153 328.924 34.7594 330.588 33.8477 331.749C32.936 332.909 31.6928 333.489 30.118 333.489C28.5432 333.489 27.2931 332.916 26.3676 331.769C25.4559 330.623 25 328.951 25 326.755C25 324.545 25.4559 322.866 26.3676 321.72C27.2931 320.573 28.5432 320 30.118 320ZM33.5162 326.755C33.5162 325.056 33.2261 323.757 32.6459 322.859C32.0658 321.948 31.2162 321.492 30.0973 321.492C28.9922 321.492 28.1495 321.948 27.5694 322.859C26.9892 323.757 26.6991 325.056 26.6991 326.755C26.6991 328.44 26.9892 329.739 27.5694 330.65C28.1495 331.548 28.9922 331.997 30.0973 331.997C31.2162 331.997 32.0658 331.548 32.6459 330.65C33.2261 329.739 33.5162 328.44 33.5162 326.755Z" fill="#000085"/>
    <path d="M46.2957 333.261H44.3065L41.4678 329.511L38.7741 333.261H36.7849L40.5353 328.309L36.7849 323.336H38.7741L41.6128 327.066L44.3272 323.336H46.3164L42.5245 328.309L46.2957 333.261Z" fill="#000085"/>
    <path d="M60 32C60.0309 30.6044 60.9986 30.6058 61 32.0001C61.0089 47.2077 59.6367 247.422 59.6367 247.422C59.6367 247.422 37.9058 233.281 37.9058 197.429C37.9058 180.696 40.7801 170.652 45.6317 156.511C54.5532 132.086 48.9116 109.58 48.1532 97.6183C46.7312 75.1945 59.0591 74.7253 60 32Z" fill="#000085"/>
</svg>
