<svg width="170" height="478" viewBox="0 0 170 478" fill="none" xmlns="http://www.w3.org/2000/svg">
<path d="M168 1V365" stroke="#000085" stroke-width="2" stroke-linecap="round"/>
<path d="M168 297H1" stroke="#000085" stroke-width="2" stroke-linecap="round"/>
<path d="M77.3335 343.09H168.017" stroke="#000085" stroke-width="2" stroke-linecap="round"/>
<path d="M169 470H145" stroke="#000085" stroke-width="2" stroke-linecap="round"/>
<path d="M169 477.5H128" stroke="#000085" stroke-linecap="round"/>
<path d="M133 359H109" stroke="#000085" stroke-width="2" stroke-linecap="round"/>
<path d="M167.432 262H156" stroke="#000085" stroke-width="2" stroke-linecap="round"/>
<path d="M11.4637 305.887C13.0385 305.887 14.2817 306.467 15.1934 307.628C16.1052 308.788 16.561 310.459 16.561 312.642C16.561 314.811 16.1052 316.475 15.1934 317.636C14.2817 318.796 13.0385 319.376 11.4637 319.376C9.88894 319.376 8.63879 318.803 7.71327 317.656C6.80156 316.51 6.3457 314.838 6.3457 312.642C6.3457 310.432 6.80156 308.753 7.71327 307.607C8.63879 306.46 9.88894 305.887 11.4637 305.887ZM14.8619 312.642C14.8619 310.943 14.5718 309.644 13.9916 308.746C13.4115 307.835 12.5619 307.379 11.443 307.379C10.3379 307.379 9.49525 307.835 8.91507 308.746C8.33489 309.644 8.0448 310.943 8.0448 312.642C8.0448 314.327 8.33489 315.626 8.91507 316.537C9.49525 317.435 10.3379 317.884 11.443 317.884C12.5619 317.884 13.4115 317.435 13.9916 316.537C14.5718 315.626 14.8619 314.327 14.8619 312.642Z" fill="#000085"/>
<path d="M27.6414 319.148H25.6522L22.8135 315.398L20.1198 319.148H18.1306L21.881 314.196L18.1306 309.223H20.1198L22.9585 312.953L25.6729 309.223H27.6621L23.8702 314.196L27.6414 319.148Z" fill="#000085"/>
<path d="M168 32C168.031 30.6044 168.999 30.6058 169 32.0001C169.009 47.2077 167.637 247.422 167.637 247.422C167.637 247.422 145.906 233.281 145.906 197.429C145.906 180.696 148.78 170.652 153.632 156.511C162.553 132.086 156.912 109.58 156.153 97.6183C154.731 75.1945 167.059 74.7253 168 32Z" fill="#000085"/>
</svg>
