<svg width="24" height="24" viewBox="0 0 24 24" fill="none" xmlns="http://www.w3.org/2000/svg">
<circle cx="12" cy="12" r="12" fill="#003CDA"/>
<path d="M8.66675 6.33325C8.66675 7.06675 8.2 7.66675 7.33325 7.66675C6.53325 7.66675 6 7.06675 6 6.4C6 5.66675 6.53325 5 7.33325 5C8.13325 5 8.66675 5.6 8.66675 6.33325ZM6 17H8.66675V8.33325H6V17ZM15.0667 8.46675C13.6667 8.46675 12.8667 9.26675 12.5332 9.8H12.4668L12.3333 8.66675H9.93325C9.93325 9.4 10 10.2667 10 11.2667V17H12.6667V12.2667C12.6667 12 12.6668 11.8 12.7333 11.6C12.9333 11.1332 13.2667 10.5332 14 10.5332C14.9333 10.5332 15.3333 11.3333 15.3333 12.4V17H18V12.0668C18 9.6 16.7332 8.46675 15.0667 8.46675V8.46675Z" fill="white"/>
</svg>
