<svg width="150" height="175" viewBox="0 0 150 175" fill="none" xmlns="http://www.w3.org/2000/svg">
<path d="M150 155.155H0V175H150V155.155Z" fill="#33DFCC"/>
<path d="M24.3997 45.5017H125.6V145.134H24.3997V45.5017Z" fill="#003CDA" stroke="#000085" stroke-width="2"/>
<path d="M126 45.1031H24V99.2268H126V45.1031Z" fill="#276BFB" stroke="#000085" stroke-width="2"/>
<path d="M85.9998 99.2268C85.9998 105.319 81.0727 110.254 74.9998 110.254C68.9268 110.254 63.9998 105.319 63.9998 99.2268C63.9998 93.1344 68.9268 88.1993 74.9998 88.1993C81.0727 88.1993 85.9998 93.1344 85.9998 99.2268Z" fill="#33DFCC" stroke="#000085" stroke-width="2"/>
<path d="M74.9997 114.863C83.6153 114.863 90.5996 107.862 90.5996 99.2268C90.5996 90.5914 83.6153 83.5911 74.9997 83.5911C66.384 83.5911 59.3997 90.5914 59.3997 99.2268C59.3997 107.862 66.384 114.863 74.9997 114.863Z" stroke="#000085" stroke-width="2"/>
<path d="M74.9997 51.7182C78.6448 51.7182 81.5997 48.7565 81.5997 45.1031C81.5997 41.4497 78.6448 38.488 74.9997 38.488C71.3546 38.488 68.3997 41.4497 68.3997 45.1031C68.3997 48.7565 71.3546 51.7182 74.9997 51.7182Z" fill="#33DFCC" stroke="#000085" stroke-width="2"/>
<path d="M86.4018 13.6748C86.4018 20.0128 81.2762 25.1468 74.9582 25.1468C68.6403 25.1468 63.5146 20.0128 63.5146 13.6748C63.5146 7.3368 68.6403 2.20276 74.9582 2.20276C81.2762 2.20276 86.4018 7.3368 86.4018 13.6748Z" fill="#33DFCC" stroke="#000085" stroke-width="2"/>
</svg>
