<svg width="1039" height="190" viewBox="0 0 1039 190" fill="none" xmlns="http://www.w3.org/2000/svg">
    <rect x="1" y="100" width="319" height="24" fill="#CBE2FF" stroke="#000085" stroke-width="2"/>
    <circle cx="321" cy="112" r="12" fill="#DCEBFF" stroke="#000085" stroke-width="2"/>
    <circle cx="321" cy="112" r="8" fill="#000085"/>
    <path opacity="0.2" d="M811.391 24.9078C799.203 9.72188 780.487 0 759.5 0C724.229 0 695.372 27.4587 693.139 62.1653C688.951 50.9702 678.156 43 665.5 43C662.271 43 659.162 43.5189 656.254 44.478C652.151 33.1189 641.274 25 628.5 25C612.208 25 599 38.2076 599 54.5C599 54.8528 599.006 55.2041 599.018 55.5539C597.236 55.1907 595.39 55 593.5 55C590.113 55 586.869 55.6123 583.873 56.7323C578.922 33.4586 558.25 16 533.5 16C505.057 16 482 39.0573 482 67.5C482 76.7992 484.465 85.5228 488.776 93.0531C482.265 93.4558 476.366 96.1248 471.86 100.281C470.23 81.6303 454.574 67 435.5 67C430.971 67 426.635 67.8249 422.633 69.3326C418.731 67.2075 414.256 66 409.5 66C398.009 66 388.163 73.0484 384.052 83.0579C383.54 83.0195 383.022 83 382.5 83C374.25 83 367.138 87.8737 363.886 94.8991C362.198 94.3164 360.386 94 358.5 94C349.387 94 342 101.387 342 110.5C342 119.613 349.387 127 358.5 127C363.737 127 368.404 124.56 371.427 120.755C374.62 122.809 378.421 124 382.5 124C388.16 124 393.284 121.706 396.993 117.998C398.897 118.972 400.929 119.73 403.057 120.241C409.126 131.978 421.376 140 435.5 140C446.857 140 457.003 134.813 463.697 126.679C466.501 138.891 477.437 148 490.5 148C505.688 148 518 135.688 518 120.5C518 119.154 517.903 117.831 517.716 116.536C522.69 118.136 527.994 119 533.5 119C537.903 119 542.177 118.447 546.257 117.408C548.168 131.853 560.532 143 575.5 143C582.655 143 589.216 140.453 594.323 136.215C600.518 155.246 618.403 169 639.5 169C657.237 169 672.703 159.278 680.861 144.873C687.272 149.364 695.078 152 703.5 152C705.113 152 706.703 151.903 708.265 151.715C718.879 174.336 741.86 190 768.5 190C799.123 190 824.912 169.301 832.638 141.131C845.481 137.939 855 126.331 855 112.5C855 110.187 854.734 107.936 854.23 105.777C859.406 105.286 864.35 103.998 868.938 102.038C873.203 123.427 891.535 139.742 913.882 140.931C925.099 161.807 947.142 176 972.5 176C1009.23 176 1039 146.227 1039 109.5C1039 84.6411 1025.36 62.968 1005.16 51.5568C1005.71 48.9585 1006 46.2633 1006 43.5C1006 22.237 988.763 5 967.5 5C951.787 5 938.272 14.4133 932.288 27.9083C928.419 26.0445 924.082 25 919.5 25C909.473 25 900.614 30.0027 895.284 37.6484C887.869 19.661 870.163 7 849.5 7C834.172 7 820.47 13.9673 811.391 24.9078Z" fill="#CBE2FF"/>
</svg>
