<svg width="346" height="365" viewBox="0 0 346 365" fill="none" xmlns="http://www.w3.org/2000/svg">
<path d="M0.902344 270.245H58.9193V349.246H0.902344V270.245Z" fill="#DCEBFF" stroke="#000085"/>
<path d="M58.6088 270.245H99.5763V349.246H58.6088V270.245Z" fill="white" stroke="#000085"/>
<circle cx="63.3542" cy="274.991" r="1.46723" stroke="#000085"/>
<circle cx="94.8299" cy="274.991" r="1.46723" stroke="#000085"/>
<circle cx="63.3542" cy="344.5" r="1.46723" stroke="#000085"/>
<circle cx="94.8299" cy="344.5" r="1.46723" stroke="#000085"/>
<path d="M58.1088 348.434H1.71484V318.926C3.59464 321.671 6.75626 322.03 10.3028 323.418C12.9173 324.734 14.619 326.51 15.6082 328.649C17.9365 333.65 23.0256 336.84 28.5664 336.49C35.688 335.543 37.6632 339.137 40.4654 342.279C42.3738 344.412 44.9566 345.749 47.8001 345.396C53.325 344.692 55.5547 346.69 58.1088 348.434Z" fill="#CBE2FF"/>
<path d="M67.7889 279.446L86.4612 279.426V340.065H67.7889V279.446Z" stroke="#000085"/>
<path d="M90.3954 279.425V340.065H86.1494V279.425H90.3954Z" fill="#DCEBFF" stroke="#000085"/>
<path d="M12.1172 278.114H34.9025V302.032H12.1172V278.114Z" fill="#5B88FF" stroke="#000085"/>
<path d="M8.90234 278.114H12.4022V302.032H8.90234V278.114Z" fill="white" stroke="#000085"/>
<path opacity="0.2" d="M34.5013 286.794L22.6979 301.221H34.5013V286.794Z" fill="white"/>
<path opacity="0.2" d="M34.5011 280.237L15.4846 301.221H19.0057L34.5011 283.797V280.237Z" fill="white"/>
<rect x="14.8289" y="281.548" width="2.62297" height="1.31149" fill="white"/>
<rect x="14.8289" y="284.171" width="1.31149" height="1.31149" fill="white"/>
<rect x="14.8289" y="289.417" width="1.31149" height="1.31149" fill="white"/>
<rect x="17.4515" y="289.417" width="1.31149" height="1.31149" fill="white"/>
<rect x="14.8289" y="292.04" width="1.31149" height="1.31149" fill="white"/>
<rect x="17.4515" y="292.04" width="1.31149" height="1.31149" fill="white"/>
<rect x="20.0753" y="292.04" width="1.31149" height="1.31149" fill="white"/>
<rect x="22.6979" y="292.04" width="2.62297" height="1.31149" fill="white"/>
<rect x="26.633" y="292.04" width="2.62297" height="1.31149" fill="white"/>
<rect x="14.8289" y="294.663" width="1.31149" height="1.31149" fill="white"/>
<rect x="17.4515" y="294.663" width="1.31149" height="1.31149" fill="white"/>
<rect x="20.0753" y="294.663" width="2.62297" height="1.31149" fill="white"/>
<rect x="14.8289" y="297.286" width="1.31149" height="1.31149" fill="white"/>
<rect x="17.4515" y="297.286" width="1.31149" height="1.31149" fill="white"/>
<rect x="20.0753" y="289.417" width="3.27872" height="1.31149" fill="white"/>
<rect x="16.1402" y="286.794" width="1.31149" height="1.31149" fill="white"/>
<rect x="18.764" y="286.794" width="1.31149" height="1.31149" fill="white"/>
<rect x="21.3866" y="286.794" width="3.93446" height="1.31149" fill="white"/>
<rect x="26.633" y="286.794" width="3.93446" height="1.31149" fill="white"/>
<rect x="17.4515" y="284.171" width="1.31149" height="1.31149" fill="white"/>
<rect x="20.0753" y="284.171" width="1.31149" height="1.31149" fill="white"/>
<rect x="22.6979" y="284.171" width="1.31149" height="1.31149" fill="white"/>
<rect x="27.9443" y="284.171" width="1.31149" height="1.31149" fill="white"/>
<rect x="30.5668" y="284.171" width="1.96723" height="1.31149" fill="white"/>
<rect x="21.3866" y="281.548" width="2.62297" height="1.31149" fill="white"/>
<rect x="25.3204" y="281.548" width="1.31149" height="1.31149" fill="white"/>
<rect x="27.9443" y="281.548" width="1.31149" height="1.31149" fill="white"/>
<rect x="30.5668" y="281.548" width="1.96723" height="1.31149" fill="white"/>
<path opacity="0.2" d="M41.0582 164.17C45.0419 164.17 48.2714 160.941 48.2714 156.957C48.2714 152.973 45.0419 149.744 41.0582 149.744C37.0745 149.744 33.845 152.973 33.845 156.957C33.845 160.941 37.0745 164.17 41.0582 164.17Z" stroke="#407BF7" stroke-width="2" stroke-linecap="round"/>
<path opacity="0.2" d="M55.1505 233.971C52.4377 231.258 52.4337 226.864 55.1416 224.156C57.8495 221.448 62.2438 221.452 64.9566 224.165" stroke="#407BF7" stroke-width="2" stroke-linecap="round"/>
<path opacity="0.2" d="M170.896 224.171C170.896 220.368 167.813 217.285 164.011 217.285C160.208 217.285 157.125 220.368 157.125 224.171" stroke="#407BF7" stroke-width="2" stroke-linecap="round"/>
<path opacity="0.2" d="M170.896 194.335C170.896 190.351 167.813 187.121 164.011 187.121C160.208 187.121 157.125 190.351 157.125 194.335" stroke="#407BF7" stroke-width="2" stroke-linecap="round"/>
<path opacity="0.2" d="M125.65 244.827C121.666 244.827 118.437 248.056 118.437 252.04C118.437 256.024 121.666 259.253 125.65 259.253C129.634 259.253 132.863 256.024 132.863 252.04C132.863 248.056 129.634 244.827 125.65 244.827Z" stroke="#407BF7" stroke-width="2" stroke-linecap="round"/>
<path opacity="0.2" d="M153.846 224.171C153.846 220.368 150.763 217.285 146.96 217.285C143.158 217.285 140.075 220.368 140.075 224.171" stroke="#407BF7" stroke-width="2" stroke-linecap="round"/>
<path opacity="0.2" d="M153.846 194.007C153.846 190.204 150.763 187.121 146.96 187.121C143.158 187.121 140.075 190.204 140.075 194.007" stroke="#407BF7" stroke-width="2" stroke-linecap="round"/>
<path d="M33.4024 180.943L33.4023 180.94L33.4037 150.689C33.4037 107.106 68.2218 71.9999 111.187 71.9999H137.326V86.2643H111.187C75.9942 86.2643 47.8273 114.978 47.8273 150.689V180.198C47.8273 215.908 75.9942 245.109 111.187 245.109H192.747C204.239 245.11 215.529 249.743 223.654 257.987C231.776 266.231 236.338 277.41 236.335 289.064C236.335 306.309 250.544 320.527 267.501 320.527H310.125L314.715 329.707L310.78 334.297H267.501C255.62 334.297 243.795 329.718 235.395 321.195C226.995 312.674 222.277 301.117 222.277 289.068C222.277 281.191 219.193 273.637 213.704 268.068C208.217 262.501 200.506 259.543 192.747 259.543H111.187C68.3969 259.543 33.6551 224.326 33.4024 180.943Z" fill="#CBE2FF" fill-opacity="0.4" stroke="#000085"/>
<path opacity="0.2" d="M67.4839 103.381C70.179 100.686 70.1829 96.3208 67.4928 93.6307C64.8026 90.9406 60.4371 90.9445 57.7421 93.6395C55.0471 96.3345 55.0431 100.7 57.7333 103.39C60.4234 106.08 64.7889 106.076 67.4839 103.381Z" stroke="#407BF7" stroke-width="1.2075" stroke-linecap="round"/>
<path d="M67.8295 103.306C65.0964 106.039 60.6692 106.043 57.9411 103.315C55.213 100.587 55.217 96.16 57.9501 93.4269" stroke="#000085" stroke-linecap="round"/>
<path d="M48.2714 156.957C48.2714 160.941 45.0419 164.17 41.0582 164.17C37.0745 164.17 33.845 160.941 33.845 156.957" stroke="#000085" stroke-linecap="round"/>
<path opacity="0.3" d="M108.336 255.789C100.356 255.213 94.683 254.418 91.3164 253.404C86.2665 251.882 77.2705 248.801 66.8502 240.793C63.8817 238.511 61.6591 236.692 59.8501 235.03C55.3091 230.86 53.375 227.689 48.7929 220.723C45.1268 215.15 42.309 209.208 40.3395 202.896" stroke="#407BF7" stroke-width="4" stroke-linecap="round"/>
<path opacity="0.3" d="M128.272 81.5466H111.878C96.633 81.5466 82.8043 86.013 71.55 94.6615" stroke="#407BF7" stroke-width="4" stroke-linecap="round"/>
<path opacity="0.3" d="M58.7629 107.776C49.9104 119.252 44.3365 132.039 44.3365 150.4M44.3365 155.857C44.3365 159.307 44.3365 164.483 44.3365 171.383" stroke="#407BF7" stroke-width="4" stroke-linecap="round"/>
<path opacity="0.5" d="M123.905 74.9114H106.894C91.6486 74.9114 72.393 84.476 59.0919 97.9402M52.8624 103.842C43.0388 116.377 37.1245 132.85 37.1245 149.744V156.301" stroke="white" stroke-width="4" stroke-linecap="round"/>
<path opacity="0.3" d="M303.356 330.599C297.782 330.599 278.136 330.729 269.203 330.729C257.448 330.729 246.908 325.982 238.595 317.67C230.283 309.358 226.192 299.223 226.192 287.467C226.192 279.568 222.476 270.853 216.89 265.268C211.304 259.682 201.414 255.974 193.514 255.974H113.19" stroke="#407BF7" stroke-width="4" stroke-linecap="round"/>
<path opacity="0.5" d="M192.217 247.891H151.729" stroke="white" stroke-width="4" stroke-linecap="round"/>
<path opacity="0.5" d="M144.807 247.89C128.138 247.89 110.414 248.524 95.929 245.681C86.2726 243.785 77.7414 239.65 70.3354 233.274" stroke="white" stroke-width="4" stroke-linecap="round"/>
<path opacity="0.5" d="M44.6141 181.216C44.6141 198.721 50.7279 214.13 62.9554 227.443" stroke="white" stroke-width="4.83" stroke-linecap="round"/>
<path opacity="0.5" d="M252.864 318.926C256.628 321.567 262.29 322.888 269.849 322.888" stroke="white" stroke-width="4" stroke-linecap="round"/>
<path opacity="0.5" d="M214.175 254.007C219.617 257.385 223.067 261.01 225.058 263.849M229.491 270.615C232.539 277.289 233.988 283.775 233.837 290.073" stroke="white" stroke-width="4" stroke-linecap="round"/>
<path d="M157.125 153.678V265.811C157.147 284.445 172.197 299.215 190.568 299.253H302.045L302.407 299.829L302.045 285.483L190.65 285.56C180.048 285.538 170.853 276.867 170.841 266.101V153.313" stroke="#000085"/>
<path opacity="0.3" d="M250.24 295.319H191.223C173.687 295.282 161.112 282.275 161.091 264.482V163.515" stroke="#407BF7" stroke-width="4" stroke-linecap="round"/>
<path opacity="0.5" d="M258.597 288.106H198.437" stroke="white" stroke-width="4" stroke-linecap="round"/>
<path opacity="0.5" d="M167.617 253.351V162.203" stroke="white" stroke-width="4" stroke-linecap="round"/>
<path opacity="0.5" d="M176.634 283.898C178.408 285.63 181.412 286.955 183.574 287.362" stroke="white" stroke-width="4" stroke-linecap="round"/>
<path opacity="0.5" d="M168.425 270.364C168.246 272.407 169.836 277.718 173.856 281.269" stroke="white" stroke-width="4" stroke-linecap="round"/>
<path d="M121.059 286.794H78.4361H77.7803C73.8517 286.799 70.5623 290.161 70.5671 294.093C70.572 298.031 73.7626 301.221 77.6968 301.221H120.76C141.864 301.221 153.847 287.408 153.847 267.122V153.678H140.076V267.122C140.076 279.118 133.593 286.794 121.059 286.794Z" fill="#CBE2FF" fill-opacity="0.4" stroke="#000085"/>
<path opacity="0.3" d="M149.912 161.617V265.224C149.912 282.881 141.437 297.286 119.911 297.286" stroke="#407BF7" stroke-width="4" stroke-linecap="round"/>
<path opacity="0.5" d="M142.699 198.925V165.482" stroke="white" stroke-width="4" stroke-linecap="round"/>
<path opacity="0.2" d="M107.288 301.221C111.272 301.221 114.501 297.991 114.501 294.008C114.501 290.024 111.272 286.794 107.288 286.794C103.304 286.794 100.075 290.024 100.075 294.008C100.075 297.991 103.304 301.221 107.288 301.221Z" stroke="#407BF7" stroke-width="2" stroke-linecap="round"/>
<path d="M107.288 301.221C103.304 301.221 100.075 297.991 100.075 294.008C100.075 290.024 103.304 286.794 107.288 286.794" stroke="#000085" stroke-linecap="round"/>
<path d="M125.65 244.827C129.634 244.827 132.863 248.056 132.863 252.04C132.863 256.024 129.634 259.253 125.65 259.253" stroke="#000085" stroke-linecap="round"/>
<path d="M153.846 193.679C153.846 197.662 150.763 200.892 146.96 200.892C143.158 200.892 140.075 197.662 140.075 193.679" stroke="#000085" stroke-linecap="round"/>
<path d="M170.896 193.679C170.896 197.662 167.813 200.892 164.011 200.892C160.404 200.892 157.125 197.285 157.125 193.679" stroke="#000085" stroke-linecap="round"/>
<path d="M153.846 223.843C153.846 227.827 150.763 231.056 146.96 231.056C143.158 231.056 140.075 227.827 140.075 223.843" stroke="#000085" stroke-linecap="round"/>
<path d="M170.896 223.843C170.896 227.827 167.813 231.056 164.011 231.056C160.208 231.056 157.125 227.827 157.125 223.843" stroke="#000085" stroke-linecap="round"/>
<path opacity="0.2" d="M204.667 299.253C208.469 299.253 211.552 296.171 211.552 292.368C211.552 288.566 208.469 285.483 204.667 285.483C200.864 285.483 197.781 288.566 197.781 292.368C197.781 296.171 200.864 299.253 204.667 299.253Z" stroke="#407BF7" stroke-width="2" stroke-linecap="round"/>
<path d="M204.339 299.253C208.323 299.253 211.552 296.171 211.552 292.368C211.552 288.566 208.323 285.483 204.339 285.483" stroke="#000085" stroke-linecap="round"/>
<path opacity="0.5" d="M135.129 282.374C137.08 280.693 138.736 278.884 139.905 276.304C141.075 273.725 142.068 270.729 142.068 267.366" stroke="white" stroke-width="4.83" stroke-linecap="round"/>
<path opacity="0.5" d="M108.64 290.271H120.098" stroke="white" stroke-width="4" stroke-linecap="round"/>
<path d="M146.984 135.211C152.821 135.211 157.552 133.344 157.552 131.041C157.552 128.737 152.821 126.87 146.984 126.87C141.147 126.87 136.415 128.737 136.415 131.041C136.415 133.344 141.147 135.211 146.984 135.211Z" stroke="#000085" stroke-width="2"/>
<path d="M146.984 141.961C152.821 141.961 157.552 140.094 157.552 137.79C157.552 135.487 152.821 133.62 146.984 133.62C141.147 133.62 136.415 135.487 136.415 137.79C136.415 140.094 141.147 141.961 146.984 141.961Z" stroke="#000085" stroke-width="2"/>
<path d="M307.903 130.572H344.902V349.246H307.903V130.572Z" fill="white" stroke="#000085"/>
<circle cx="340.077" cy="344.5" r="1.46723" stroke="#000085"/>
<path d="M331.708 139.752V340.065H315.659V139.752H331.708Z" stroke="#000085"/>
<path d="M334.903 139.5V340.5H330.903V139.5H334.903Z" fill="#DCEBFF" stroke="#000085"/>
<path d="M259.265 130.572H307.903V349.246H259.265V130.572Z" fill="#DCEBFF" stroke="#000085"/>
<path d="M270.412 280.737H296.953V294.163H270.412V280.737Z" fill="#E1E9F3" stroke="#000085"/>
<circle cx="288.929" cy="287.45" r="2.77872" fill="#33DFCC" stroke="#000085"/>
<circle cx="278.437" cy="287.45" r="2.77872" fill="#33DFCC" stroke="#000085"/>
<path d="M270.412 301.721H296.953V315.147H270.412V301.721Z" fill="#E1E9F3" stroke="#000085"/>
<circle cx="288.929" cy="308.434" r="2.77872" fill="#33DFCC" stroke="#000085"/>
<circle cx="278.437" cy="308.434" r="2.77872" fill="#33DFCC" stroke="#000085"/>
<path d="M272.902 137.164H296.953V187.277H272.902V137.164Z" fill="#5B88FF" stroke="#000085"/>
<path d="M268.445 137.164H272.902V187.277H268.445V137.164Z" stroke="#000085"/>
<path d="M274.502 139.908H283.682" stroke="white" stroke-width="2"/>
<path d="M284.993 139.908H286.96" stroke="white" stroke-width="2"/>
<path d="M289.583 139.908H294.829" stroke="white" stroke-width="2"/>
<path d="M294.83 142.531H286.961" stroke="white" stroke-width="2"/>
<path d="M284.993 142.531H279.092" stroke="white" stroke-width="2"/>
<path d="M277.124 142.531H274.501" stroke="white" stroke-width="2"/>
<path d="M277.124 145.154H274.501M284.993 145.154H283.026H281.714" stroke="white" stroke-width="2"/>
<path d="M279.091 147.777H274.501M284.993 147.777H283.026H281.714" stroke="white" stroke-width="2"/>
<path d="M289.584 146.465H286.961" stroke="white" stroke-width="2"/>
<path d="M277.124 150.397H274.501" stroke="white" stroke-width="2"/>
<path d="M280.402 150.397H278.435" stroke="white" stroke-width="2"/>
<path d="M283.682 150.397H281.714" stroke="white" stroke-width="2"/>
<path d="M277.124 153.023H274.501" stroke="white" stroke-width="2"/>
<path d="M277.124 155.646H274.501" stroke="white" stroke-width="2"/>
<path d="M280.403 158.269H274.501" stroke="white" stroke-width="2"/>
<path d="M277.124 160.892H274.501" stroke="white" stroke-width="2"/>
<path d="M275.813 166.138H274.501" stroke="white" stroke-width="2"/>
<path d="M277.124 168.76H274.501" stroke="white" stroke-width="2"/>
<path d="M275.813 171.383H274.501" stroke="white" stroke-width="2"/>
<path d="M277.124 174.006H274.501" stroke="white" stroke-width="2"/>
<path d="M275.813 176.629H274.501" stroke="white" stroke-width="2"/>
<path d="M277.124 179.252H274.501" stroke="white" stroke-width="2"/>
<path d="M279.746 179.252H278.435" stroke="white" stroke-width="2"/>
<path d="M275.813 184.498H274.501" stroke="white" stroke-width="2"/>
<path d="M277.124 181.875H274.501" stroke="white" stroke-width="2"/>
<path d="M279.746 176.629H278.435" stroke="white" stroke-width="2"/>
<path d="M282.37 176.629H281.059" stroke="white" stroke-width="2"/>
<path d="M287.616 176.629H284.993" stroke="white" stroke-width="2"/>
<path d="M287.615 174.006H286.304" stroke="white" stroke-width="2"/>
<path d="M284.992 174.006H278.435" stroke="white" stroke-width="2"/>
<path d="M279.746 171.383H278.435" stroke="white" stroke-width="2"/>
<path d="M282.37 171.383H281.059" stroke="white" stroke-width="2"/>
<path d="M286.304 171.383H284.993" stroke="white" stroke-width="2"/>
<path d="M288.928 171.383H287.616" stroke="white" stroke-width="2"/>
<path d="M280.402 168.76H278.435" stroke="white" stroke-width="2"/>
<path d="M283.682 168.76H281.714" stroke="white" stroke-width="2"/>
<path d="M278.435 166.138H277.124" stroke="white" stroke-width="2"/>
<path d="M281.059 166.138H279.747" stroke="white" stroke-width="2"/>
<path d="M283.681 166.138H282.37" stroke="white" stroke-width="2"/>
<path d="M286.304 166.138H284.993" stroke="white" stroke-width="2"/>
<path d="M288.928 166.138H287.616" stroke="white" stroke-width="2"/>
<path d="M291.551 166.138H290.239" stroke="white" stroke-width="2"/>
<path d="M278.435 163.515H275.812" stroke="white" stroke-width="2"/>
<path d="M283.026 163.515H280.403" stroke="white" stroke-width="2"/>
<path d="M286.96 163.515H284.993" stroke="white" stroke-width="2"/>
<path d="M280.402 160.892H278.435" stroke="white" stroke-width="2"/>
<path d="M286.96 160.892H284.993" stroke="white" stroke-width="2"/>
<path d="M290.239 160.892H288.272" stroke="white" stroke-width="2"/>
<path d="M293.518 160.892H291.55" stroke="white" stroke-width="2"/>
<path d="M283.682 158.269H281.714" stroke="white" stroke-width="2"/>
<path d="M286.96 158.269H284.993" stroke="white" stroke-width="2"/>
<path d="M280.402 155.646H278.435" stroke="white" stroke-width="2"/>
<path d="M283.682 155.646H281.714" stroke="white" stroke-width="2"/>
<path d="M286.96 155.646H284.993" stroke="white" stroke-width="2"/>
<path d="M290.239 155.646H288.272" stroke="white" stroke-width="2"/>
<path d="M280.402 153.023H278.435" stroke="white" stroke-width="2"/>
<path d="M283.682 153.023H281.714" stroke="white" stroke-width="2"/>
<path opacity="0.2" d="M283.027 186.466H296.142V172.039L283.027 186.466Z" fill="white"/>
<path opacity="0.2" d="M296.142 164.17L274.503 186.466H278.404L296.142 168.234V164.17Z" fill="white"/>
<circle cx="313.191" cy="135.318" r="1.46723" stroke="#000085"/>
<circle cx="340.077" cy="135.318" r="1.46723" stroke="#000085"/>
<circle cx="313.191" cy="344.5" r="1.46723" stroke="#000085"/>
<rect x="158.281" y="45.9808" width="36.3774" height="64.5743" fill="white" stroke="#000085"/>
<circle cx="163.682" cy="51.3825" r="1.46723" stroke="#000085"/>
<circle cx="189.257" cy="51.3825" r="1.46723" stroke="#000085"/>
<circle cx="163.682" cy="105.153" r="1.46723" stroke="#000085"/>
<circle cx="189.257" cy="105.153" r="1.46723" stroke="#000085"/>
<rect x="181.887" y="55.817" width="4.24595" height="44.902" fill="#DCEBFF" stroke="#000085"/>
<rect x="167.461" y="55.817" width="18.6723" height="44.902" stroke="#000085"/>
<rect x="-0.5" y="0.5" width="46.8693" height="64.5743" transform="matrix(-1 0 0 1 158.092 45.4808)" fill="#DCEBFF" stroke="#000085"/>
<path d="M124.642 77.467C124.642 67.8798 118.269 61.808 112.534 59.2514V109.744H157.78C152.363 95.0434 145.047 105.715 140.574 91.8477C137.069 80.9822 124.642 87.0541 124.642 77.467Z" fill="#CBE2FF"/>
<circle cx="145.321" cy="78.9237" r="2.77872" fill="#003CDA" stroke="#000085"/>
<circle cx="134.83" cy="78.9237" r="2.77872" fill="#33DFCC" stroke="#000085"/>
<circle cx="124.337" cy="78.9237" r="2.77872" fill="#33DFCC" stroke="#000085"/>
<circle cx="77.7803" cy="294.007" r="7.21318" fill="#000085"/>
<path d="M146.96 160.236C150.763 160.236 153.846 157.153 153.846 153.351C153.846 149.548 150.763 146.465 146.96 146.465C143.158 146.465 140.075 149.548 140.075 153.351C140.075 157.153 143.158 160.236 146.96 160.236Z" fill="#CBE2FF" stroke="#000085"/>
<path d="M146.961 157.613C149.315 157.613 151.224 155.705 151.224 153.351C151.224 150.997 149.315 149.088 146.961 149.088C144.607 149.088 142.699 150.997 142.699 153.351C142.699 155.705 144.607 157.613 146.961 157.613Z" fill="#CBE2FF" stroke="#000085"/>
<path d="M164.011 160.236C167.813 160.236 170.896 157.153 170.896 153.351C170.896 149.548 167.813 146.465 164.011 146.465C160.208 146.465 157.125 149.548 157.125 153.351C157.125 157.153 160.208 160.236 164.011 160.236Z" fill="#CBE2FF" stroke="#000085"/>
<path d="M164.01 157.613C166.364 157.613 168.273 155.705 168.273 153.351C168.273 150.997 166.364 149.088 164.01 149.088C161.656 149.088 159.748 150.997 159.748 153.351C159.748 155.705 161.656 157.613 164.01 157.613Z" fill="#CBE2FF" stroke="#000085"/>
<path opacity="0.5" d="M142.699 256.63V204.826" stroke="white" stroke-width="4" stroke-linecap="round"/>
<path d="M64.9177 224.107C67.6584 226.848 67.6247 231.326 64.8423 234.108C62.0599 236.891 57.5825 236.924 54.8417 234.183" stroke="#000085" stroke-linecap="round"/>
<ellipse cx="92.8715" cy="165.491" rx="20.9931" ry="20.9931" fill="#0096BB"/>
<ellipse cx="96.7467" cy="165.491" rx="20.9931" ry="20.9931" fill="#000085"/>
<path d="M109.343 165.814C109.343 165.814 106.114 172.273 97.0704 172.273C88.0272 172.273 84.7975 165.814 84.7975 165.814C84.7975 165.814 88.0272 159.354 97.0704 159.354C106.114 159.354 109.343 165.814 109.343 165.814Z" fill="white"/>
<circle cx="102.157" cy="164.501" r="3.46536" stroke="black"/>
<circle cx="102.157" cy="164.501" r="2.09931" fill="black"/>
<circle cx="174.831" cy="80.8908" r="6.55744" fill="#000085"/>
<circle cx="260.121" cy="22.2018" r="21.3117" fill="#CFDDF3"/>
<circle cx="264.055" cy="22.2018" r="21.3117" fill="#000085"/>
<path opacity="0.2" d="M238.154 52.6938C238.154 49.0723 235.365 46.1364 231.924 46.1364C228.484 46.1364 225.695 49.0723 225.695 52.6938" stroke="#407BF7" stroke-width="2" stroke-linecap="round"/>
<path d="M227.43 79.6019C234.748 73.2295 238.155 64.9403 238.155 52.6939C238.155 44.1772 240.664 36.7979 245.011 33.0413C252.177 26.8495 263.52 28.5321 263.52 28.5321C265.81 28.9526 268.144 28.0845 269.628 26.2613C271.111 24.438 271.513 21.9428 270.678 19.7335C269.844 17.5243 267.904 15.9442 265.602 15.5999C264.908 15.4862 248.442 12.8804 236.662 23.0562C229.298 29.4119 225.696 40.1531 225.696 52.6939C225.696 60.9362 223.372 65.8769 219.041 69.6469C213.96 74.0709 206.778 74.7843 202.491 74.7588C200.324 74.7458 175.765 74.5442 175.723 74.5374C173.447 74.1709 171.152 75.0692 169.704 76.893C168.256 78.7169 167.876 81.1885 168.708 83.3748C169.539 85.561 171.456 87.1289 173.734 87.4863C175.648 87.7518 200.712 87.877 202.644 87.861C209.001 87.861 219.373 86.6133 227.43 79.6019Z" fill="#BBD0EF" fill-opacity="0.5" stroke="#000085"/>
<path opacity="0.2" d="M264.384 29.0873C268.006 29.0873 270.941 26.1514 270.941 22.5298C270.941 18.9083 268.006 15.9724 264.384 15.9724C260.762 15.9724 257.827 18.9083 257.827 22.5298C257.827 26.1514 260.762 29.0873 264.384 29.0873Z" stroke="#000085" stroke-linecap="round"/>
<path opacity="0.3" d="M195.263 85.0434C202.481 85.0434 214.838 86.0463 223.988 78.7062C232.297 72.0351 235.356 62.7264 235.356 49.9059C235.356 40.99 238.437 34.4729 243.374 30.5403C250.137 25.1526 260.323 25.1351 260.45 25.1526" stroke="#407BF7" stroke-width="4" stroke-linecap="round"/>
<path opacity="0.5" d="M195.418 78.2128C201.275 78.2128 211.303 78.8265 218.727 74.3351C225.47 70.253 228.362 63.0216 228.362 56.7122" stroke="white" stroke-width="4" stroke-linecap="round"/>
<path d="M238.154 51.3824C238.154 55.004 235.365 57.9399 231.924 57.9399C228.484 57.9399 225.695 55.004 225.695 51.3824" stroke="#000085" stroke-linecap="round"/>
<path opacity="0.5" d="M228.923 45.5916C228.381 48.2698 228.381 51.3495 228.381 53.2938" stroke="white" stroke-width="4" stroke-linecap="round"/>
<path opacity="0.5" d="M233.158 32.6523C231.64 35.0188 230.631 38.1807 229.966 41.205" stroke="white" stroke-width="4" stroke-linecap="round"/>
<path d="M208.44 85.7912C211.155 85.7912 213.356 83.5944 213.356 80.8844C213.356 78.1745 211.155 75.9777 208.44 75.9777C205.725 75.9777 203.525 78.1745 203.525 80.8844C203.525 83.5944 205.725 85.7912 208.44 85.7912Z" fill="#4FE2DF" stroke="#231F20"/>
<path d="M209.597 85.7912C212.312 85.7912 214.512 83.5944 214.512 80.8844C214.512 78.1745 212.312 75.9777 209.597 75.9777C206.882 75.9777 204.681 78.1745 204.681 80.8844C204.681 83.5944 206.882 85.7912 209.597 85.7912Z" fill="#4FE2DF" stroke="#231F20"/>
<path d="M209.597 84.0594C211.354 84.0594 212.778 82.6379 212.778 80.8845C212.778 79.131 211.354 77.7095 209.597 77.7095C207.84 77.7095 206.416 79.131 206.416 80.8845C206.416 82.6379 207.84 84.0594 209.597 84.0594Z" fill="#4FE2DF" stroke="#231F20"/>
<path d="M206.184 77.175H205.121Z" fill="#29CC86"/>
<path d="M206.184 77.175H205.121" stroke="#231F20"/>
<path d="M204.782 80.7742H203.719Z" fill="#29CC86"/>
<path d="M204.782 80.7742H203.719" stroke="#231F20"/>
<path d="M205.81 83.9279H204.781Z" fill="#29CC86"/>
<path d="M205.81 83.9279H204.781" stroke="#231F20"/>
<path d="M146.303 130.049C149.018 130.049 151.218 127.852 151.218 125.142C151.218 122.432 149.018 120.235 146.303 120.235C143.588 120.235 141.387 122.432 141.387 125.142C141.387 127.852 143.588 130.049 146.303 130.049Z" fill="#4FE2DF" stroke="#231F20"/>
<path d="M147.459 130.049C150.174 130.049 152.374 127.852 152.374 125.142C152.374 122.432 150.174 120.235 147.459 120.235C144.744 120.235 142.543 122.432 142.543 125.142C142.543 127.852 144.744 130.049 147.459 130.049Z" fill="#4FE2DF" stroke="#231F20"/>
<path d="M147.459 128.317C149.216 128.317 150.64 126.896 150.64 125.142C150.64 123.389 149.216 121.967 147.459 121.967C145.702 121.967 144.278 123.389 144.278 125.142C144.278 126.896 145.702 128.317 147.459 128.317Z" fill="#4FE2DF" stroke="#231F20"/>
<path d="M144.047 121.433H142.984Z" fill="#29CC86"/>
<path d="M144.047 121.433H142.984" stroke="#231F20"/>
<path d="M142.644 125.032H141.581Z" fill="#29CC86"/>
<path d="M142.644 125.032H141.581" stroke="#231F20"/>
<path d="M143.673 128.186H142.645Z" fill="#29CC86"/>
<path d="M143.673 128.186H142.645" stroke="#231F20"/>
<path d="M124.007 299.231C126.722 299.231 128.923 297.034 128.923 294.324C128.923 291.614 126.722 289.417 124.007 289.417C121.292 289.417 119.092 291.614 119.092 294.324C119.092 297.034 121.292 299.231 124.007 299.231Z" fill="#4FE2DF" stroke="#231F20"/>
<path d="M125.164 299.231C127.879 299.231 130.079 297.034 130.079 294.324C130.079 291.614 127.879 289.417 125.164 289.417C122.449 289.417 120.248 291.614 120.248 294.324C120.248 297.034 122.449 299.231 125.164 299.231Z" fill="#4FE2DF" stroke="#231F20"/>
<path d="M125.165 297.499C126.922 297.499 128.346 296.077 128.346 294.324C128.346 292.571 126.922 291.149 125.165 291.149C123.409 291.149 121.984 292.571 121.984 294.324C121.984 296.077 123.409 297.499 125.165 297.499Z" fill="#4FE2DF" stroke="#231F20"/>
<path d="M121.752 290.615H120.689Z" fill="#29CC86"/>
<path d="M121.752 290.615H120.689" stroke="#231F20"/>
<path d="M120.349 294.214H119.286Z" fill="#29CC86"/>
<path d="M120.349 294.214H119.286" stroke="#231F20"/>
<path d="M121.378 297.367H120.35Z" fill="#29CC86"/>
<path d="M121.378 297.367H120.35" stroke="#231F20"/>
<path d="M236.795 297.263C239.51 297.263 241.711 295.067 241.711 292.357C241.711 289.647 239.51 287.45 236.795 287.45C234.08 287.45 231.88 289.647 231.88 292.357C231.88 295.067 234.08 297.263 236.795 297.263Z" fill="#4FE2DF" stroke="#231F20"/>
<path d="M237.953 297.263C240.667 297.263 242.868 295.067 242.868 292.357C242.868 289.647 240.667 287.45 237.953 287.45C235.238 287.45 233.037 289.647 233.037 292.357C233.037 295.067 235.238 297.263 237.953 297.263Z" fill="#4FE2DF" stroke="#231F20"/>
<path d="M237.954 295.532C239.711 295.532 241.135 294.11 241.135 292.357C241.135 290.603 239.711 289.182 237.954 289.182C236.197 289.182 234.773 290.603 234.773 292.357C234.773 294.11 236.197 295.532 237.954 295.532Z" fill="#4FE2DF" stroke="#231F20"/>
<path d="M234.541 288.647H233.478Z" fill="#29CC86"/>
<path d="M234.541 288.647H233.478" stroke="#231F20"/>
<path d="M233.138 292.246H232.075Z" fill="#29CC86"/>
<path d="M233.138 292.246H232.075" stroke="#231F20"/>
<path d="M234.167 295.4H233.139Z" fill="#29CC86"/>
<path d="M234.167 295.4H233.139" stroke="#231F20"/>
<path d="M40.7284 186.443C43.4433 186.443 45.6441 184.246 45.6441 181.536C45.6441 178.826 43.4433 176.629 40.7284 176.629C38.0136 176.629 35.8128 178.826 35.8128 181.536C35.8128 184.246 38.0136 186.443 40.7284 186.443Z" fill="#4FE2DF" stroke="#231F20" stroke-width="1.2075"/>
<path d="M41.8852 186.443C44.6001 186.443 46.8009 184.246 46.8009 181.536C46.8009 178.826 44.6001 176.629 41.8852 176.629C39.1704 176.629 36.9696 178.826 36.9696 181.536C36.9696 184.246 39.1704 186.443 41.8852 186.443Z" fill="#4FE2DF" stroke="#231F20" stroke-width="1.2075"/>
<path d="M41.8855 184.711C43.6421 184.711 45.0662 183.29 45.0662 181.536C45.0662 179.783 43.6421 178.361 41.8855 178.361C40.1288 178.361 38.7048 179.783 38.7048 181.536C38.7048 183.29 40.1288 184.711 41.8855 184.711Z" fill="#4FE2DF" stroke="#231F20" stroke-width="1.2075"/>
<path d="M38.4724 177.827H37.4096Z" fill="#29CC86"/>
<path d="M38.4724 177.827H37.4096" stroke="#231F20" stroke-width="1.2075"/>
<path d="M37.0706 181.426H36.0078Z" fill="#29CC86"/>
<path d="M37.0706 181.426H36.0078" stroke="#231F20" stroke-width="1.2075"/>
<path d="M38.0994 184.58H37.0712Z" fill="#29CC86"/>
<path d="M38.0994 184.58H37.0712" stroke="#231F20" stroke-width="1.2075"/>
<path d="M266.634 364.5H318.438" stroke="#000085"/>
<path d="M29.2543 364.5H81.058" stroke="#000085"/>
</svg>
