<svg width="184" height="47" viewBox="0 0 184 47" fill="none" xmlns="http://www.w3.org/2000/svg">
<mask id="mask0" mask-type="alpha" maskUnits="userSpaceOnUse" x="0" y="0" width="184" height="47">
<rect width="184" height="47" fill="black"/>
</mask>
<g mask="url(#mask0)">
<mask id="mask1" mask-type="alpha" maskUnits="userSpaceOnUse" x="-58" y="0" width="242" height="47">
<rect x="-58" width="242" height="47" fill="#C4C4C4"/>
</mask>
<g mask="url(#mask1)">
<mask id="mask2" mask-type="alpha" maskUnits="userSpaceOnUse" x="19" y="0" width="165" height="47">
<rect x="19" width="165" height="47" fill="#C4C4C4"/>
</mask>
<g mask="url(#mask2)">
<rect x="18" y="1" width="167" height="45" stroke="#000085" stroke-width="2"/>
<path opacity="0.2" d="M102 1C114.426 1 124.5 11.0736 124.5 23.5C124.5 35.9264 114.426 46 102 46" stroke="#000085" stroke-width="2"/>
<rect opacity="0.2" x="19" y="2" width="165" height="43" fill="#5B88FF"/>
<rect opacity="0.5" x="19" y="6" width="165" height="6" fill="white"/>
<rect opacity="0.3" x="19" y="35" width="165" height="6" fill="#000085"/>
<path d="M101.5 46C89.0736 46 79 35.9264 79 23.5C79 11.0736 89.0736 1 101.5 1" stroke="#000085" stroke-width="2"/>
</g>
<mask id="mask3" mask-type="alpha" maskUnits="userSpaceOnUse" x="-39" y="0" width="58" height="47">
<rect x="-39" width="58" height="47" fill="#C4C4C4"/>
</mask>
<g mask="url(#mask3)">
<mask id="mask4" mask-type="alpha" maskUnits="userSpaceOnUse" x="-39" y="0" width="165" height="47">
<rect x="-39" width="165" height="47" fill="#C4C4C4"/>
</mask>
<g mask="url(#mask4)">
<rect x="-40" y="1" width="167" height="45" stroke="#000085" stroke-width="2"/>
<rect opacity="0.2" x="-39" y="2" width="165" height="43" fill="#5B88FF"/>
<rect opacity="0.5" x="-39" y="6" width="165" height="6" fill="white"/>
<rect opacity="0.3" x="-39" y="35" width="165" height="6" fill="#000085"/>
</g>
</g>
</g>
</g>
</svg>
