<svg width="210" height="88" viewBox="0 0 210 88" fill="none" xmlns="http://www.w3.org/2000/svg">
<g opacity="0.848">
<path fill-rule="evenodd" clip-rule="evenodd" d="M108.2 29.8636L100.218 51.0356H101.984L103.874 45.8916H113.988L115.876 51.0356H117.644L109.66 29.8636H108.2ZM108.93 32.0036L113.47 44.4636H104.39L108.93 32.0036V32.0036ZM131.496 51.2136C127.138 51.2136 124.062 48.2996 124.062 44.1676V29.8636H125.708V43.9596C125.708 47.4676 128.022 49.7876 131.496 49.7876C134.968 49.7876 137.284 47.4676 137.284 43.9596V29.8636H138.928V44.1676C138.928 48.2996 135.852 51.2136 131.496 51.2136V51.2136ZM160.57 48.7756C159.839 49.5518 158.956 50.1691 157.976 50.5889C156.996 51.0087 155.94 51.222 154.874 51.2156C152.852 51.2272 150.905 50.4477 149.45 49.0436C147.47 47.1096 147.44 45.2376 147.44 40.4496C147.44 35.6636 147.472 33.7896 149.45 31.8576C150.905 30.4543 152.852 29.6755 154.874 29.6876C158.682 29.6876 161.606 32.1256 162.276 35.8696H160.632C159.992 32.9576 157.798 31.1136 154.872 31.1136C153.32 31.1136 151.858 31.6776 150.76 32.7496C149.208 34.2656 149.086 35.8996 149.086 40.4496C149.086 44.9996 149.208 46.6356 150.76 48.1496C151.858 49.2216 153.32 49.7876 154.874 49.7876C156.58 49.7876 158.254 49.0736 159.382 47.7356C160.326 46.6056 160.692 45.3556 160.692 43.5416V41.6396H154.872V40.2116H162.336V43.6616C162.336 45.8616 161.85 47.4376 160.57 48.7756V48.7756ZM178.106 51.2136C173.748 51.2136 170.672 48.2996 170.672 44.1676V29.8636H172.318V43.9596C172.318 47.4676 174.632 49.7876 178.106 49.7876C181.578 49.7876 183.894 47.4676 183.894 43.9596V29.8636H185.538V44.1676C185.538 48.2996 182.462 51.2136 178.106 51.2136V51.2136ZM202.776 31.2916H196.378V39.8556H202.776C205.546 39.8556 207.558 38.4876 207.558 35.5736C207.558 32.6596 205.546 31.2936 202.776 31.2936V31.2916ZM207.528 51.0356L202.348 41.2816H196.38V51.0356H194.734V29.8656H202.99C206.524 29.8656 209.204 31.8576 209.204 35.5456C209.204 38.6956 207.254 40.7476 204.21 41.2516L209.45 51.0356H207.53H207.528Z" fill="white"/>
<path fill-rule="evenodd" clip-rule="evenodd" d="M54.6031 48.408L54.7431 49.236L54.7891 49.564C55.3771 54.122 57.1491 55.454 61.5491 57.396C61.5591 57.4 61.5691 57.398 61.5771 57.402L77.5311 64.43L41.5091 84.94V73.2C41.5091 68.894 41.7691 68.12 45.6011 66.008C46.3531 65.594 47.1151 65.162 47.9491 64.688L48.4691 64.392C50.8551 63.12 52.7991 61.242 54.2331 59.012C54.2851 58.932 54.6691 58.354 54.7191 58.272C54.4208 58.1091 54.1446 57.9089 53.8971 57.676C53.6357 57.4433 53.4129 57.1706 53.2371 56.868C51.9831 59.304 50.0771 61.364 47.6371 62.706L47.0451 63.042C46.2231 63.508 45.3851 63.966 44.6331 64.378C39.9331 66.968 39.5591 68.558 39.5591 73.202V84.954L3.20306 64.07L18.7611 57.284L19.7731 56.85C20.1691 56.658 21.4131 56.15 22.3731 56.122C23.3531 56.062 24.8411 56.124 25.6431 57.142C26.3841 58.0789 27.1254 59.0156 27.8671 59.952C29.5831 62.172 31.8271 63.986 34.5071 65.074C34.5147 65.0792 34.5227 65.0839 34.5311 65.088C35.2371 65.376 35.9971 65.542 36.7511 65.718C36.9071 65.42 37.1511 65.074 37.3751 64.794C37.5371 64.592 37.7791 64.342 38.0051 64.108C36.8651 63.886 35.5551 63.524 34.5351 63.036L34.5311 63.034C32.4951 62.068 30.7351 60.714 29.3831 58.974C29.3168 58.899 29.2566 58.8187 29.2031 58.734C29.0651 58.554 28.9271 58.378 28.8011 58.188C28.4411 57.704 27.8931 56.982 27.1271 56.018C26.6131 55.366 25.8931 54.936 25.1271 54.658L25.1291 54.662C24.3031 54.366 23.3491 54.234 22.3071 54.242C20.7271 54.294 18.9751 55.134 18.9391 55.15L18.3931 55.386L18.3511 55.402L16.9351 56.012C16.9251 56.014 16.9251 56.024 16.9171 56.028L3.32106 61.96L39.5271 4.32003V28.72C39.5271 32.936 39.2171 33.858 35.3511 35.988C35.0447 36.1532 34.7332 36.3086 34.4171 36.454L33.9171 36.7C33.7911 36.756 33.6711 36.822 33.5491 36.882L33.5431 36.884H33.5411C28.4691 39.314 24.9271 44.242 24.6191 49.992C24.9511 50.082 25.4551 50.224 25.7371 50.31C25.9431 50.37 26.2551 50.526 26.5171 50.666C26.5671 45.352 29.7831 40.768 34.4291 38.556L34.4311 38.554C34.4451 38.548 34.4551 38.55 34.4671 38.544C34.7369 38.4063 35.0089 38.273 35.2831 38.144C36.2687 37.6859 37.2146 37.1467 38.1111 36.532C38.2531 36.44 38.3711 36.342 38.5011 36.25C38.7851 36.044 39.0511 35.834 39.2831 35.63C39.4191 35.512 39.5431 35.402 39.6291 35.294C41.1771 33.728 41.4811 31.964 41.4811 28.72V4.31003L77.7991 62.482L61.7691 55.422H61.7611C58.2051 53.854 57.1251 52.542 56.6491 48.77C56.6411 48.72 56.6271 48.59 56.6151 48.542C55.6991 42.512 51.1831 37.674 45.2511 35.982L44.4511 35.752C44.3512 36.06 44.2184 36.3564 44.0551 36.636C43.8748 36.9357 43.6622 37.2148 43.4211 37.468L44.1671 37.634C49.5011 38.934 53.6271 43.118 54.6031 48.408V48.408ZM80.8031 63.648L41.3491 0.454026C41.2599 0.313875 41.1366 0.198683 40.9907 0.119268C40.8448 0.0398532 40.6811 -0.00117888 40.5151 2.57805e-05C40.349 -0.00117888 40.1853 0.0398532 40.0394 0.119268C39.8935 0.198683 39.7702 0.313875 39.6811 0.454026L0.141055 63.394C0.0760739 63.5005 0.0331739 63.6189 0.0149083 63.7423C-0.00335727 63.8657 0.00338483 63.9915 0.0347334 64.1123C0.066082 64.233 0.121396 64.3462 0.197385 64.4451C0.273374 64.544 0.368484 64.6266 0.477055 64.688L40.0171 87.404C40.1682 87.4899 40.3392 87.5351 40.5131 87.5351C40.6869 87.5351 40.8579 87.4899 41.0091 87.404L80.4651 64.944C80.5746 64.8818 80.6707 64.7985 80.7479 64.6989C80.8252 64.5994 80.882 64.4856 80.9151 64.364C80.947 64.2434 80.9536 64.1175 80.9343 63.9943C80.915 63.871 80.8703 63.7531 80.8031 63.648" fill="white"/>
</g>
</svg>
