<svg width="235" height="50" viewBox="0 0 235 50" fill="none" xmlns="http://www.w3.org/2000/svg">
<path fill-rule="evenodd" clip-rule="evenodd" d="M73.7705 7.49121H85.5739V10.0026H76.2819V21.6804H84.3182V24.1918H76.2819V35.8696H85.5739V38.381H73.7705V7.49121Z" fill="white"/>
<path fill-rule="evenodd" clip-rule="evenodd" d="M139.568 7.49121H151.372V10.0026H142.08V21.6804H150.116V24.1918H142.08V35.8696H151.372V38.381H139.568V7.49121Z" fill="white"/>
<path fill-rule="evenodd" clip-rule="evenodd" d="M98.8844 10.0026H93.3594V7.49121H106.921V10.0026H101.396V38.381H98.8844V10.0026Z" fill="white"/>
<path fill-rule="evenodd" clip-rule="evenodd" d="M115.459 7.49121H117.97V21.6804H126.132V7.49121H128.644V38.381H126.132V24.1918H117.97V38.381H115.459V7.49121Z" fill="white"/>
<path fill-rule="evenodd" clip-rule="evenodd" d="M4.88772 0L31.7 4.42264L38.6404 13.9037L52.6909 12.2251L60.4112 18.5417H50.0446L45.8795 25.1181L27.0452 34.6609L23.5248 40.2449L19.7489 45.7829L17.1391 49.6826L18.1636 45.1015L22.5795 24.7393L0 3.22239H7.20435L4.88772 0ZM8.46818 4.98034H4.39302L17.3336 17.312L8.46818 4.98034ZM24.7275 25.3224L26.9689 32.7288L41.5868 25.3224H24.7275ZM43.5337 23.5644H24.8398L31.4313 7.03173L43.5337 23.5644ZM45.2139 22.8836L50.6917 14.2344L39.8322 15.5318L45.2139 22.8836ZM52.6353 14.4511L51.158 16.7838H55.4864L52.6353 14.4511ZM29.9816 5.92091L8.79734 2.4266L23.3206 22.6281L29.9816 5.92091ZM25.4737 33.8572L23.6837 27.9425L20.8378 41.0652L22.0546 39.2806L25.4737 33.8572Z" fill="white"/>
<path fill-rule="evenodd" clip-rule="evenodd" d="M222.192 13.8952C222.192 10.3584 225.06 7.49121 228.596 7.49121C232.133 7.49121 235 10.3584 235 13.8952V15.0881H232.489V13.8952C232.489 11.7454 230.746 10.0026 228.596 10.0026C226.447 10.0026 224.704 11.7454 224.704 13.8952V31.977C224.704 34.1268 226.447 35.8696 228.596 35.8696C230.746 35.8696 232.489 34.1268 232.489 31.977V30.7841H235V31.977C235 35.5138 232.133 38.381 228.596 38.381C225.06 38.381 222.192 35.5138 222.192 31.977V13.8952Z" fill="white"/>
<path fill-rule="evenodd" clip-rule="evenodd" d="M199.087 13.8952C199.087 10.3584 201.954 7.49121 205.491 7.49121C209.028 7.49121 211.895 10.3584 211.895 13.8952V15.0881H209.384V13.8952C209.384 11.7454 207.641 10.0026 205.491 10.0026C203.341 10.0026 201.598 11.7454 201.598 13.8952V17.4799C201.598 18.449 202.156 19.3316 203.031 19.7478L208.313 22.26C210.501 23.3006 211.895 25.5071 211.895 27.9299V31.977C211.895 35.5138 209.028 38.381 205.491 38.381C201.954 38.381 199.087 35.5138 199.087 31.977V30.0307H201.598V31.977C201.598 34.1268 203.341 35.8696 205.491 35.8696C207.641 35.8696 209.384 34.1268 209.384 31.977V27.9299C209.384 26.4762 208.547 25.1523 207.234 24.528L201.952 22.0158C200.202 21.1833 199.087 19.4181 199.087 17.4799V13.8952Z" fill="white"/>
<path fill-rule="evenodd" clip-rule="evenodd" d="M168.7 7.49121H161.166V38.381H163.677V24.8196H168.042L172.493 38.381H175.136L170.606 24.5791C172.99 23.8676 174.727 21.6585 174.727 19.0435V13.5185C174.727 10.1897 172.029 7.49121 168.7 7.49121ZM168.951 22.3083H163.677V10.0026H168.7C170.642 10.0026 172.216 11.5767 172.216 13.5185V19.0435C172.216 20.8466 170.754 22.3083 168.951 22.3083Z" fill="white"/>
<path d="M185.526 7.61678V38.381H188.038V7.61678H185.526Z" fill="white"/>
</svg>
