<svg width="252" height="66" viewBox="0 0 252 66" fill="none" xmlns="http://www.w3.org/2000/svg">
<path d="M127.243 13.4668C126.005 13.4668 124.99 13.8604 124.247 14.6229C123.479 15.3855 123.108 16.3449 123.108 17.4518C123.108 18.5587 123.479 19.5181 124.247 20.2807C125.014 21.0432 126.005 21.4368 127.243 21.4368C128.481 21.4368 129.497 21.0432 130.24 20.2807C130.982 19.5181 131.379 18.5587 131.379 17.4518C131.379 16.3449 131.007 15.3855 130.24 14.6229C129.497 13.8604 128.506 13.4668 127.243 13.4668ZM129.918 23.9951C129.571 23.7245 129.125 23.5523 128.605 23.4539C128.085 23.3555 127.491 23.3309 126.847 23.3309C126.203 23.3309 125.559 23.3801 124.915 23.4785C124.272 23.5769 123.801 23.6753 123.479 23.7245V41.7308C123.479 42.4688 123.578 43.0592 123.776 43.5265C123.974 43.9939 124.247 44.3383 124.593 44.6089C124.94 44.8795 125.386 45.0517 125.906 45.1501C126.426 45.2484 127.02 45.273 127.664 45.273C128.308 45.273 128.952 45.2238 129.596 45.1255C130.24 45.0271 130.71 44.9533 131.032 44.8795V26.8731C131.032 26.1352 130.933 25.5448 130.735 25.0774C130.561 24.6347 130.289 24.2657 129.918 23.9951ZM113.797 17.7224H112.137L107.16 19.3951C105.006 20.1085 103.916 21.3384 103.916 23.1095C103.916 24.0443 104.139 24.7822 104.585 25.3234C105.03 25.8646 105.476 26.2582 105.922 26.5534L110.379 25.1758V41.7308C110.379 42.4688 110.478 43.0592 110.676 43.5265C110.875 43.9939 111.147 44.3383 111.494 44.6089C111.84 44.8795 112.286 45.0517 112.806 45.1501C113.326 45.2484 113.92 45.273 114.564 45.273C115.208 45.273 115.852 45.2238 116.496 45.1255C117.14 45.0271 117.61 44.9533 117.932 44.8795V21.8304C117.932 20.5513 117.561 19.5673 116.818 18.8293C116.1 18.0914 115.084 17.7224 113.797 17.7224ZM202.499 24.9544C200.84 23.5031 198.562 22.7651 195.615 22.7651C194.674 22.7651 193.807 22.8635 193.015 23.0603C192.222 23.2571 191.653 23.4293 191.257 23.5769V19.2229C191.257 18.485 191.158 17.8946 190.96 17.4272C190.761 16.9598 190.489 16.6154 190.142 16.3449C189.796 16.0743 189.35 15.9021 188.83 15.8037C188.31 15.7053 187.716 15.6807 187.072 15.6807C186.428 15.6807 185.784 15.7299 185.14 15.8283C184.496 15.9267 184.026 16.0251 183.704 16.0743V41.7308C183.704 42.4688 183.803 43.0592 184.001 43.5265C184.199 43.9939 184.472 44.3383 184.818 44.6089C185.165 44.8795 185.611 45.0517 186.131 45.1501C186.651 45.2484 187.245 45.273 187.889 45.273C188.582 45.273 189.226 45.2239 189.87 45.1501C190.514 45.0517 190.984 44.9779 191.281 44.8795V29.3822C191.603 29.1854 192.049 28.9886 192.569 28.841C193.114 28.6935 193.659 28.6197 194.253 28.6197C195.145 28.6197 195.887 28.8656 196.507 29.3576C197.126 29.8496 197.423 30.686 197.423 31.8913V41.7062C197.423 42.4442 197.522 43.0346 197.72 43.5019C197.918 43.9693 198.19 44.3137 198.537 44.5843C198.884 44.8549 199.33 45.0271 199.85 45.1255C200.37 45.2238 200.964 45.2484 201.608 45.2484C202.301 45.2484 202.945 45.1992 203.589 45.1255C204.233 45.0271 204.703 44.9533 205 44.8549V31.4731C204.976 28.5951 204.158 26.4058 202.499 24.9544ZM154.433 24.9544C152.626 23.5031 150.05 22.7651 146.682 22.7651C144.8 22.7651 143.117 22.9865 141.581 23.4293C140.046 23.8721 138.783 24.4379 137.768 25.1512C137.173 25.5694 136.703 26.0122 136.356 26.5288C136.009 27.0207 135.836 27.6849 135.836 28.4721V41.7554C135.836 42.4934 135.935 43.0838 136.133 43.5511C136.331 44.0185 136.604 44.3629 136.95 44.6335C137.297 44.9041 137.743 45.0763 138.263 45.1747C138.783 45.273 139.377 45.2976 140.021 45.2976C140.715 45.2976 141.358 45.2484 142.002 45.1747C142.646 45.0763 143.117 45.0025 143.414 44.9041V29.5298C143.835 29.2346 144.33 29.0132 144.9 28.8656C145.469 28.7181 146.063 28.6443 146.658 28.6443C147.549 28.6443 148.243 28.8656 148.763 29.2838C149.283 29.702 149.53 30.3908 149.53 31.3009V41.7308C149.53 42.4688 149.629 43.0592 149.827 43.5265C150.026 43.9939 150.298 44.3383 150.645 44.6089C150.991 44.8795 151.437 45.0517 151.957 45.1501C152.477 45.2484 153.071 45.273 153.715 45.273C154.409 45.273 155.053 45.2239 155.696 45.1501C156.34 45.0517 156.811 44.9779 157.108 44.8795V31.0303C157.133 28.4475 156.241 26.4058 154.433 24.9544ZM178.033 38.6806C177.538 38.9266 176.943 39.1479 176.3 39.3447C175.656 39.5415 174.863 39.6645 173.972 39.6645C172.461 39.6645 171.174 39.1971 170.109 38.287C169.044 37.3768 168.524 35.9993 168.524 34.179C168.524 33.2688 168.672 32.4571 168.97 31.7929C169.267 31.1041 169.663 30.5384 170.158 30.0956C170.654 29.6282 171.223 29.2838 171.892 29.0624C172.56 28.8164 173.254 28.7181 173.997 28.7181C174.839 28.7181 175.606 28.841 176.324 29.0378C177.042 29.2592 177.637 29.4806 178.157 29.7266C178.504 29.3822 178.825 28.964 179.098 28.4721C179.37 27.9801 179.494 27.4635 179.494 26.8977C179.494 25.6924 178.925 24.7084 177.761 23.9459C176.597 23.1833 174.962 22.7897 172.808 22.7897C171.198 22.7897 169.688 23.0357 168.251 23.5031C166.815 23.9705 165.552 24.6839 164.438 25.6186C163.348 26.5534 162.482 27.7587 161.838 29.2346C161.194 30.686 160.872 32.4079 160.872 34.3512C160.872 36.0239 161.169 37.5736 161.763 38.9512C162.358 40.3287 163.2 41.534 164.289 42.518C165.379 43.5019 166.667 44.2645 168.177 44.8303C169.688 45.3714 171.396 45.642 173.254 45.642C175.309 45.642 176.894 45.3222 178.058 44.6581C179.222 43.9939 179.791 43.0592 179.791 41.8538C179.791 41.165 179.643 40.5993 179.345 40.1073C179.073 39.5415 178.627 39.0987 178.033 38.6806Z" fill="black"/>
<path d="M59.3477 61.2143C56.5794 61.2143 54.1422 60.5364 52.1037 59.1808C49.34 57.3563 47.5639 54.436 46.9681 50.7452C46.4078 47.278 46.9062 43.1839 48.4061 38.9057C49.906 34.6274 52.3822 30.2633 55.5687 26.2528C60.2827 20.3229 66.1402 15.6538 72.0608 13.1051C75.2359 11.7416 78.2563 11.0547 81.043 11.0547C83.8113 11.0547 86.2485 11.7325 88.2869 13.0882C90.3002 14.4179 91.8035 16.3531 92.695 18.7447C92.8648 18.4324 93.006 18.1058 93.1166 17.7686L94.0333 14.8562L94.5638 17.8601C95.6581 24.0657 93.9393 29.7075 92.0258 33.7056C92.5262 33.4108 92.9953 33.0671 93.426 32.6798L95.6787 30.5932L94.6372 33.4627C92.9482 38.1138 90.1065 42.3333 86.1797 46.0297C87.0575 45.9506 87.9581 45.7959 88.6685 45.5055L91.5251 44.3396L89.5199 46.6601C84.673 52.2725 77.971 55.1635 73.1642 56.6016C71.6221 57.5759 70.0059 58.431 68.3299 59.1593C65.1548 60.5172 62.1332 61.2143 59.3477 61.2143ZM81.0338 15.9023C78.9438 15.9023 76.5891 16.4593 74.035 17.5585C68.8478 19.7908 63.6687 23.9437 59.4497 29.25C53.8282 36.3209 50.9098 44.2685 51.8333 49.9815C52.2137 52.3392 53.2278 54.0767 54.8457 55.1454C56.0637 55.9487 57.5808 56.3565 59.3569 56.3565C61.4469 56.3565 63.8016 55.7995 66.3556 54.7003C71.5428 52.468 76.722 48.3151 80.941 43.0088C86.5625 35.9368 89.4809 27.9937 88.5574 22.2773C88.1769 19.9196 87.1629 18.1821 85.5449 17.1134C84.3269 16.3101 82.8098 15.9023 81.0338 15.9023Z" fill="#56A4CB"/>
<path d="M89.8108 27.718C91.3806 25.6427 91.9684 22.8998 92.2927 21.0854C91.0517 22.5936 90.0972 23.2556 90.0972 23.2556C90.2405 24.6249 90.3264 25.967 89.8108 27.718Z" fill="#277DAD"/>
<path d="M69.1167 16.3194C82.1907 8.15488 90.4831 16.9102 90.6126 19.0759C90.0821 15.6585 87.6334 13.2578 84.7299 11.9078C82.2079 10.6211 74.6282 12.4105 74.6282 12.4105L69.1167 16.3194Z" fill="#DDEDF5"/>
<path d="M64.6766 58.6771C62.3368 60.2123 56.4667 59.6 55.2808 59.1809C55.2808 57.7123 55.7632 56.1465 55.7632 56.1465H58.6438C58.6438 56.1465 58.6071 57.3022 61.6436 56.5679C63.2844 57.3971 64.6766 58.6771 64.6766 58.6771Z" fill="#277DAD"/>
<path d="M47.1855 46.2454C49.829 37.2777 58.8731 20.0359 76.103 12.4668C73.3679 11.3246 61.6895 17.5754 55.5708 26.2493C48.0449 36.9252 48.0449 39.5801 47.1855 46.2454Z" fill="#DDEDF5"/>
<path d="M84.7288 37.6786C84.7288 37.6786 87.6369 36.7127 89.4267 35.3807C90.8017 33.1134 93.1323 27.6738 93.1323 22.9165C89.7704 30.6528 87.4031 31.551 87.4031 31.551C86.1553 35.2678 85.6844 35.8213 84.7288 37.6786Z" fill="#277DAD"/>
<path d="M86.5622 47.695C81.1768 51.8264 77.5021 53.4814 72.7492 55.0382L69.7012 56.6955L68.9885 53.7955C68.9885 53.7955 80.4755 47.7944 84.2946 38.394C86.144 39.2605 91.1112 36.9446 92.2925 35.2681C90.0009 39.3351 82.2092 47.6204 82.2092 47.6204L86.5622 47.695Z" fill="#277DAD"/>
<path d="M81.0428 11.7836C83.6324 11.7836 85.9493 12.4185 87.872 13.6883C90.1717 15.2066 91.7403 17.5474 92.4553 20.4971C93.0283 19.7063 93.5622 18.8138 93.8303 17.9756C94.9876 24.5381 92.9503 30.4782 90.6633 34.7384C90.5796 34.9429 90.4937 35.1485 90.4054 35.3529C91.6659 34.7881 93.0076 34.0639 93.9358 33.2065C91.8194 39.0358 88.092 43.4982 84.1687 46.8275H84.4311C85.766 46.8275 87.6302 46.7145 88.9537 46.1745C84.3176 51.5407 77.9536 54.4046 72.8501 55.9218C71.3146 56.8976 69.7035 57.7528 68.0319 58.4795C64.9381 59.8103 62.0025 60.4757 59.3499 60.4757C56.7603 60.4757 54.4434 59.8408 52.5207 58.571C49.9334 56.8628 48.2685 54.1165 47.7082 50.6301C47.1673 47.2817 47.6543 43.3107 49.1164 39.1465C50.5831 34.9541 53.0203 30.6533 56.1576 26.7072C60.7959 20.8711 66.5514 16.281 72.3608 13.7798C75.4546 12.449 78.3902 11.7836 81.0428 11.7836ZM59.3567 57.091C61.5224 57.091 63.9951 56.5171 66.6534 55.3727C71.9518 53.0929 77.2329 48.8633 81.5275 43.4621C87.2716 36.2319 90.2473 28.0742 89.2928 22.1623C88.878 19.5945 87.7563 17.6909 85.9596 16.5036C84.6087 15.6122 82.9403 15.1682 81.0325 15.1682C78.8657 15.1682 76.3942 15.7421 73.7358 16.8854C68.4375 19.1663 63.1552 23.396 58.8617 28.7972C53.1177 36.0274 50.1419 44.1851 51.0964 50.0969C51.5112 52.6648 52.633 54.5684 54.4296 55.7557C55.7794 56.647 57.4489 57.091 59.3567 57.091ZM81.0428 10.3206C78.153 10.3206 75.0318 11.0334 71.7616 12.4399C65.7299 15.0383 59.7704 19.7831 54.9819 25.8068C51.7472 29.8738 49.2298 34.3272 47.7047 38.6664C46.1624 43.0576 45.656 47.2749 46.2289 50.8606C46.8591 54.7615 48.7497 57.8502 51.6854 59.7854C53.8487 61.2145 56.4257 61.9387 59.3441 61.9387C62.2328 61.9387 65.3552 61.2258 68.6254 59.8193C70.3059 59.0902 71.9274 58.2356 73.4757 57.2627C76.3757 56.3998 79.1707 55.2254 81.8105 53.7606C87.6245 50.498 89.7672 48.1911 93.8498 43.0475L88.4449 44.7838C93.8842 38.9534 95.2569 35.4185 96.9997 28.7418L93.8762 31.243C97.3332 23.2932 95.0415 14.6226 94.3082 12.8625C93.8292 14.2554 93.0477 16.2121 92.6364 16.8041C91.7112 15.0584 90.3587 13.5681 88.7016 12.4682C86.5382 11.0391 83.9613 10.3149 81.0428 10.3149V10.3206ZM59.3567 55.6224C57.7308 55.6224 56.3524 55.2564 55.2604 54.5356C53.8212 53.5844 52.916 52.0141 52.5688 49.8665C51.6773 44.3444 54.5385 36.6194 60.0351 29.7032C64.1796 24.4907 69.2568 20.4169 74.3328 18.232C76.7918 17.1735 79.0468 16.6369 81.0337 16.6369C82.6596 16.6369 84.0369 17.0029 85.13 17.7236C86.5692 18.6749 87.4744 20.2452 87.8216 22.3928C88.713 27.9149 85.8519 35.6399 80.3553 42.556C76.2108 47.7708 71.1336 51.8378 66.0576 54.0272C63.5975 55.0858 61.3436 55.6224 59.3567 55.6224Z" fill="#083751"/>
<path d="M59.3566 55.6222C57.7307 55.6222 56.3523 55.2562 55.2603 54.5355C53.8211 53.5842 52.9159 52.0139 52.5687 49.8663C51.6773 44.3442 54.5384 36.6192 60.035 29.7031C64.1795 24.4905 69.2567 20.4168 74.3327 18.2319C76.7917 17.1733 79.0467 16.6367 81.0336 16.6367C82.6595 16.6367 84.0368 17.0027 85.1299 17.7235C86.5691 18.6747 87.4743 20.245 87.8215 22.3926C88.713 27.9147 85.8518 35.6397 80.3552 42.5559C76.2107 47.7707 71.1335 51.8377 66.0575 54.0271C63.5974 55.0856 61.3435 55.6222 59.3566 55.6222Z" fill="#083751"/>
<path d="M51.8169 3.46946C51.7493 4.3111 51.8077 8.34081 53.35 9.02655C52.281 6.54117 53.4165 1.90931 58.7767 1.88672C57.7959 2.60748 57.0442 3.7903 56.7142 4.57997C56.3595 4.96127 56.0458 5.37772 55.7781 5.82267C56.1642 5.59672 57.4177 3.4977 62.1214 3.48301C63.3704 3.48301 64.727 3.61745 65.8339 4.2388C63.9318 3.77448 61.906 4.80366 60.327 5.85091C61.4396 5.49844 63.0587 4.44215 65.3366 4.88161C66.8675 5.17647 67.4965 6.56715 68.7604 7.28452C69.7916 7.87085 71.256 7.82679 71.9309 6.73322C72.0992 6.46166 72.1832 6.1475 72.1727 5.82944C72.462 6.13106 72.715 6.46466 72.9266 6.8236C73.396 7.62484 73.592 8.55348 73.4858 9.47279C72.3709 9.36773 71.2732 9.74732 70.1549 9.61966C69.0719 9.47765 68.0485 9.04811 67.194 8.37696C67.8022 9.27507 68.7203 9.92499 69.7779 10.206C71.1231 10.5618 72.4328 10.0648 73.7768 10.2997C75.3111 10.5664 77.2441 11.5526 78.995 10.4048C79.3049 10.1966 79.5653 9.92444 79.7581 9.60723C80.0375 10.3657 80.0592 11.1932 79.82 11.965C79.6963 12.3989 79.4656 12.7959 79.1485 13.1207C78.8609 13.402 78.5091 13.498 78.1791 13.6923C77.07 13.2404 75.829 13.0879 74.627 13.0145C75.7076 13.3534 76.8144 13.6923 77.8354 14.1747C78.8563 14.6571 79.5461 15.4174 80.2611 16.2647C80.8558 16.9696 81.549 17.6113 82.4806 17.8293C83.1205 17.9796 83.7904 17.9474 84.4125 17.7367C84.5786 18.6574 83.7135 20.1588 82.507 20.3577C83.0908 20.7248 83.7195 21.0175 84.3781 21.2287C83.9198 21.6354 82.8255 21.9393 82.122 21.9754C83.8132 22.8498 84.6646 25.1793 84.6256 27.0705C84.354 26.4932 84.0424 25.8278 83.3343 25.3239C83.5336 26.1317 83.497 27.1179 83.3457 28.0352C83.0111 27.7212 81.7415 26.2706 81.2007 25.5691C81.4631 24.7613 81.4173 24.2043 81.2362 23.3819C81.0071 24.7376 80.0228 26.2932 79.5175 26.9168C79.7466 26.0729 79.6573 25.1646 79.5175 24.3185C79.3464 23.3648 79.0642 22.4337 78.6764 21.5439C77.8411 19.5341 77.8411 19.5341 77.1192 17.7841C76.701 19.455 76.3424 20.2345 75.7866 20.9112C75.8153 20.3759 75.7784 19.8392 75.6766 19.3127C75.6377 19.0935 75.2905 17.3797 73.6645 15.0785C73.8055 16.1449 74.2375 17.4113 73.7253 18.6043C73.692 17.7096 73.0928 15.1191 71.2766 14.0854C71.7854 14.9485 72.2323 17.652 71.6204 18.3456C71.6788 16.8544 70.6258 15.4795 69.4777 14.5769C68.6275 13.9081 63.9135 11.3142 63.9204 11.3255C63.9272 11.3368 64.7946 15.0649 62.8983 15.3598C63.4781 14.0708 62.0206 11.3583 60.3774 10.859C60.5699 9.94953 60.5184 8.85597 60.1998 8.03466C59.384 8.90793 57.3169 8.94521 56.1974 9.90322C55.7162 10.3122 55.204 10.9358 54.9966 11.6599L54.3756 12.505C54.3626 12.4323 54.3354 12.3628 54.2953 12.3005L51.2027 9.40162C50.498 8.07985 50.3055 4.88952 51.8169 3.46946Z" fill="#E61C3F"/>
<path d="M48.3054 7.68604L50.0608 9.43258C49.9657 9.60091 49.8385 9.78844 49.6506 9.83137C49.7604 9.8565 49.8751 9.84995 49.9812 9.81248C50.0873 9.77502 50.1802 9.70824 50.2488 9.62012L51.0783 10.4459C50.9099 10.8199 50.6326 11.2785 50.2018 11.3497C50.7529 11.5056 51.1746 11.1599 51.3705 10.7374L52.427 11.788C52.2872 12.284 51.9813 12.9178 51.1001 13.0307C52.0569 13.2567 52.5989 12.711 52.7765 12.1337L53.5213 12.8748C53.7653 13.6656 52.3903 14.5852 51.5733 14.374L48.3054 7.68604Z" fill="white"/>
<path d="M55.0933 56.7667C54.9604 58.511 54.462 61.7793 52.6 62.6017C52.0271 62.3758 51.5252 61.6234 51.1265 60.7365C51.3327 59.4362 51.9285 59.042 53.0744 58.1913C53.7378 57.6998 54.1939 56.8356 54.4746 56.1465C54.7381 56.4199 54.9639 56.6413 55.0933 56.7667Z" fill="#9EA7AC"/>
<path d="M67.4651 52.9672C67.6679 53.4439 67.9406 54.0969 68.2144 54.7826C68.3863 55.2142 68.5582 55.6593 68.7129 56.0863C69.1219 57.2081 69.4187 58.1944 69.2858 58.4215C69.1529 58.6485 68.3943 58.7287 67.386 58.6474C66.781 57.7967 66.7993 57.1641 66.9277 56.1236C66.9449 55.979 66.9655 55.8253 66.9861 55.6627C67.0262 55.2636 66.996 54.8608 66.8967 54.4719C66.7414 53.8691 66.5104 53.2877 66.2092 52.7412C66.6352 52.7689 67.0566 52.8447 67.4651 52.9672Z" fill="#9EA7AC"/>
<path d="M85.6844 33.9395C84.2608 36.9697 82.4809 39.8245 80.3815 42.4452C79.5977 43.4348 78.783 44.3815 77.9374 45.2853C78.2147 43.2179 77.6097 41.0466 76.2679 40.0231C77.5123 42.6463 77.1846 44.856 76.1385 46.5269C74.5767 49.0021 71.6571 50.0674 69.8994 50.0301C68.5672 49.9903 67.2667 49.62 66.1181 48.9535C66.1181 48.9535 61.2392 47.7707 60.9195 48.8609C60.5998 49.951 62.2876 52.7414 62.2876 52.7414C62.2876 52.7414 63.4529 52.6872 63.5572 53.5142C64.0234 53.1332 64.585 52.8831 65.1831 52.79C65.6462 53.0939 65.9924 53.5422 66.1663 54.0632C66.4825 55.0382 66.1445 56.1193 65.9646 56.8977C65.928 57.0417 65.8997 57.1877 65.8798 57.3349C65.8559 57.5114 65.8633 57.6907 65.9016 57.8647C65.9531 58.0874 66.0511 58.2971 66.1892 58.4804C65.7943 58.4053 65.404 58.308 65.0204 58.189C64.6041 58.0611 64.1984 57.9017 63.807 57.7122C63.1956 57.4316 62.653 57.0238 62.2166 56.517C60.4233 56.6379 59.8103 57.0163 59.2614 56.0301C59.0969 55.7121 58.9619 55.3801 58.8581 55.0382C58.1454 52.8623 56.5412 50.6503 55.8858 49.7511C55.2304 48.8518 56.06 46.9607 57.6286 46.2806C59.1973 45.6005 65.575 43.9895 66.518 42.7479C67.461 41.5064 67.0314 38.8617 71.6136 37.1773C70.3039 36.7582 66.5157 38.6165 65.575 41.904C63.7978 43.0518 59.2546 44.3533 58.0182 44.7148C55.9752 45.3113 54.8282 46.7686 54.4971 47.6905C53.4876 48.0429 51.841 48.6044 51.8261 49.385C51.8089 50.2583 52.4391 51.5213 52.399 53.3312C52.399 53.6158 52.6901 54.0926 53.0946 54.6055C53.3489 54.9297 53.6468 55.2686 53.9367 55.5827C53.8688 56.1915 53.5793 56.7554 53.1221 57.17C52.7948 57.4727 52.4339 57.738 52.0461 57.9608C51.6623 58.1935 51.3013 58.3844 51.0538 58.5674C50.8396 58.7272 50.6703 58.9384 50.5623 59.1809C50.3779 58.5704 50.2535 57.9439 50.191 57.31C49.2044 55.9804 48.8447 55.6155 48.6625 55.0506C48.6481 55 48.6385 54.9482 48.6338 54.8958C48.5605 54.2315 48.7347 52.2444 48.8447 51.0954C48.981 51.0796 49.2686 51.2717 49.8209 51.579L49.9355 51.6467L49.7877 51.4208C48.9856 50.2075 48.0769 48.8699 48.4768 47.6554C48.6923 47.0025 49.1128 46.6387 49.7785 46.2467C49.7823 46.2434 49.7865 46.2407 49.7911 46.2388C50.0466 46.0863 50.34 45.9292 50.6723 45.7485C51.8708 45.0944 56.6994 43.5557 57.3273 42.2949C57.6845 41.5946 58.0832 40.9156 58.5212 40.2614C58.6241 41.1815 58.8261 42.0881 59.1239 42.966C59.0529 36.6395 61.3835 32.6765 62.3013 31.3604C62.4073 32.6234 62.4092 33.8929 62.3071 35.1562C63.5881 33.9711 63.6695 28.7484 62.0367 24.5131C61.9007 24.1599 61.7521 23.8146 61.5909 23.4772C61.4191 23.1168 61.2334 22.7677 61.0341 22.4333C61.358 21.7403 61.4995 20.978 61.4454 20.2168C61.4207 19.8571 61.3569 19.5011 61.2552 19.1549C61.0824 18.5294 60.7744 17.9482 60.3523 17.4512C60.5333 18.2522 60.696 18.9436 60.7155 19.6293C60.7317 20.1095 60.6651 20.5889 60.5184 21.0471C60.4772 21.1748 60.429 21.3036 60.3741 21.4358C60.3832 21.3442 60.3901 21.2539 60.3924 21.1635C60.4059 20.7806 60.3674 20.3976 60.2778 20.0247C60.2256 19.8064 60.1566 19.5922 60.0715 19.3842C60.0589 19.3548 60.0131 19.3763 60.02 19.4056C60.0789 19.6553 60.1138 19.9099 60.1243 20.1659C60.1427 20.6339 60.0917 21.102 59.973 21.5555C59.9222 21.7574 59.8606 21.9565 59.7885 22.152C59.6822 22.4404 59.561 22.7232 59.4253 22.9993C58.5235 24.0906 57.0866 24.4329 56.3476 25.7287C56.2788 25.7005 56.2009 25.6688 56.1184 25.6361C55.8401 25.5284 55.554 25.4416 55.2625 25.3762C54.7434 25.2633 54.1636 25.2226 53.6858 25.4124C53.4388 25.4884 53.2041 25.5991 52.9891 25.7411C52.793 25.8661 52.6291 26.0344 52.5102 26.2326C52.7909 25.9219 53.656 25.6677 54.3435 25.6779C54.5338 25.6969 54.7156 25.7651 54.8706 25.8756C55.0965 26.038 55.2706 26.2606 55.3725 26.5172C55.3725 26.5353 55.3633 26.5466 55.3622 26.5534C55.3673 26.545 55.3719 26.5364 55.3759 26.5274V26.5364C55.5329 26.9126 55.6223 27.4549 55.5547 28.2367C55.361 29.0173 55.1765 29.7155 54.9084 30.0341C54.3974 30.6486 52.721 31.6337 51.8204 31.8066C51.7525 31.8226 51.6836 31.8343 51.6141 31.8416C51.3749 31.855 51.1352 31.8247 50.9072 31.7524C50.8281 31.7309 50.7479 31.7038 50.6677 31.6733C50.8227 31.5525 50.9837 31.4394 51.1501 31.3344C51.3262 31.2222 51.5091 31.1207 51.6978 31.0305C51.9185 30.9258 52.1267 30.8249 52.3223 30.7277C53.7442 30.0318 54.4994 29.5686 54.7354 29.1393C54.952 28.745 54.7892 28.1971 54.4512 27.7215C54.2981 27.5016 54.1145 27.3039 53.9058 27.1341C53.8057 27.0523 53.6987 26.979 53.5861 26.9149C53.7486 26.8715 53.919 26.8646 54.0846 26.8946C54.2332 26.9192 54.3805 26.9517 54.5257 26.9917C54.4398 26.8968 54.0032 26.7929 53.8772 26.7206C53.4647 26.4811 53.098 26.5839 52.8173 26.8957C52.4506 27.3024 51.9476 28.7439 51.0905 29.7313C50.5061 30.4091 49.4004 30.6565 48.7564 30.748C47.8398 30.1086 47.2668 29.232 47.1924 28.5361C47.1087 27.708 47.3069 26.5907 48.1583 26.0755C48.8023 24.5527 49.9435 20.3829 50.0157 19.7344C50.0879 19.0859 49.2858 17.3484 49.358 16.5362C49.4107 15.96 50.2598 14.584 50.4866 14.2247L50.7674 14.863C50.7742 14.8698 50.8029 14.9026 50.8522 14.9466C50.4339 15.9634 50.3938 17.2547 50.6516 18.2804C50.7124 17.6309 50.7662 16.9892 50.9507 16.3599C51.0653 15.9611 51.2131 15.5759 51.3563 15.1895C51.7631 15.2765 52.4025 15.2166 53.3443 14.6337C53.7524 14.4018 54.0781 14.0515 54.2771 13.6305L54.9646 12.8544C55.0125 13.0439 55.084 13.2268 55.1777 13.3989C55.1777 12.8996 55.5214 12.067 55.9213 11.4434C56.6661 10.2639 58.095 9.91035 59.0025 9.47314C58.6404 9.80528 58.2623 10.1193 57.9105 10.4617C57.1669 11.1824 56.7165 12.0433 56.8357 13.0803C57.2471 11.9732 57.8945 11.1598 58.8157 10.4187C59.0449 10.2312 59.3886 9.98152 59.6808 9.69344C59.5548 10.5136 59.4517 11.3338 58.9074 12.041C58.2634 12.8849 57.1554 13.7073 58.1511 14.7998C57.8761 14.0711 58.8753 13.3752 59.297 12.9199C59.6675 12.518 59.9614 12.0534 60.1644 11.5484C61.9977 12.6296 63.2066 15.359 61.3847 15.8595C62.1638 16.2978 65.4364 16.5486 64.9528 12.8962C65.8695 13.4611 66.8469 13.931 67.8174 14.4676L67.8942 14.5094C68.1836 14.6693 68.4647 14.8435 68.7364 15.0314C69.6267 15.6482 70.179 16.2741 70.5067 16.8672C70.6894 17.1892 70.8168 17.5389 70.8837 17.902C71.0555 18.8476 70.7164 19.557 70.5479 19.7095C71.444 19.6869 72.4958 19.0441 72.544 17.0547C72.544 16.9779 72.544 16.8988 72.544 16.8186L72.5508 16.8355C72.5726 16.8988 72.5932 16.9598 72.615 17.0208C73.2865 19.043 73.2933 20.1908 73.2933 20.1908C73.8663 19.6858 74.5102 19.0306 74.595 17.7924C74.6351 17.9991 75.2298 20.0439 75.09 22.1102C75.4991 21.9735 76.5578 21.7408 77.1663 20.1332C77.3576 20.698 77.9569 21.9001 78.3396 23.2298C78.594 24.1121 78.7842 25.0554 78.7441 25.9772C78.6788 27.4922 77.942 28.2367 77.8836 28.4084C77.9363 28.4163 79.6493 28.553 80.7 26.8008C81.7175 28.6095 83.2931 31.3615 85.6844 33.9395Z" fill="#E5ECEF"/>
<path d="M53.624 20.1951C54.0182 19.497 54.6713 18.5164 55.5238 17.7979C55.753 17.9956 55.8882 18.4384 55.934 18.7186C56.1151 19.7896 55.1468 19.4077 53.624 20.1951Z" fill="#FFCE55"/>
<path d="M46.9945 29.6192C46.9945 29.6192 47.1962 27.8218 48.8519 27.4151C48.6353 26.5656 49.2758 24.9919 50.4217 25.3172C50.6715 23.1143 51.2822 20.3465 51.2822 20.3465C51.2822 20.3465 52.506 20.7136 52.6572 20.064C52.8085 19.4144 53.3447 17.3527 55.2674 16.7878C53.6277 16.7878 52.6973 18.3389 52.0683 19.4122C51.1321 19.3839 50.3793 18.4802 50.6749 17.068C50.9705 15.6559 51.1332 14.7238 51.1332 14.7238L50.4263 13.9048C50.4263 13.9048 48.672 15.6321 48.9665 16.7878C49.261 17.9435 50.0493 19.3738 49.654 20.1928C49.2587 21.0119 47.7874 25.6426 47.7874 25.6426C46.5499 27.1259 46.4399 28.1754 46.9945 29.6192Z" fill="white"/>
<path d="M72.8901 37.6787C71.5059 37.6787 67.649 40.3708 67.649 43.1759C65.5235 44.0797 60.248 45.9822 60.248 45.9822L68.3434 44.6638C68.3434 44.6638 70.682 45.624 72.2495 44.6638C73.817 43.7035 73.4274 41.8304 73.4274 41.8304C71.5002 43.4776 68.3938 40.1641 72.8901 37.6787Z" fill="white"/>
<path d="M65.6003 19.271C68.2289 21.7632 73.6934 27.7744 71.506 33.0841C70.8253 29.2905 68.3939 23.8204 65.6003 19.271Z" fill="white"/>
<path d="M47.6438 30.1096C47.6438 30.1096 48.2912 30.5988 48.8641 30.1096C49.7178 29.381 49.0096 27.5022 49.5516 27.021C50.0936 26.5397 51.2062 26.6448 51.3196 26.8334C51.0252 26.0426 50.7742 25.1761 50.9656 24.8372C51.1569 24.4983 51.8398 22.4648 53.2572 21.561C52.6522 22.5936 51.6004 25.1106 52.0633 26.2302C52.493 25.6427 54.4787 25.0925 55.3576 25.9444C56.2364 26.7962 56.2949 29.1765 55.3576 30.3209C54.4203 31.4653 51.9693 32.6696 51.3196 32.5001C49.3935 31.7432 48.5444 31.1207 47.6438 30.1096Z" fill="#9EA7AC"/>
<path d="M52.0647 26.2301C53.3732 24.2441 54.7906 25.0914 55.9605 22.4648C56.1116 22.8461 56.1116 23.2696 55.9605 23.651C57.9291 22.8048 60.5714 19.1231 59.6799 15.6582C60.482 16.7495 61.1982 20.1771 60.7398 21.7869C60.2815 23.3968 58.219 24.5265 57.8179 25.1761C57.4169 25.8257 56.0442 26.8424 56.0442 26.8424C55.3613 25.6449 53.4294 25.9251 52.0647 26.2301Z" fill="#9EA7AC"/>
<path d="M52.8003 20.8831C52.8003 20.8831 54.9407 21.1215 56.0396 20.5724C57.1384 20.0234 57.7274 18.2283 57.7274 17.6069C57.4077 18.4542 56.3237 19.0338 56.3237 19.0338C55.9314 19.43 55.4508 19.7305 54.9201 19.9116C54.0584 20.1951 53.144 20.4595 53.144 20.4595L52.8003 20.8831Z" fill="#9EA7AC"/>
<path d="M52.0649 12.834C52.0649 12.834 52.5943 12.311 52.4728 11.5981C52.2803 12.1844 51.8701 12.2974 51.6868 12.2974C51.5035 12.2974 50.7839 11.1677 50.7839 11.1677C50.7839 11.1677 51.5619 10.4424 51.3213 9.95888C51.0795 10.4526 50.4218 10.8909 50.4218 10.8909L49.6506 9.838C49.6506 9.838 50.5673 9.42226 50.4218 9.02686C50.1365 9.02686 53.401 11.902 53.401 11.902L54.0575 12.9526C54.0575 12.9526 54.0575 13.574 53.0744 14.1795C52.3113 13.3266 52.0649 12.834 52.0649 12.834Z" fill="#9EA7AC"/>
<path d="M60.993 20.2618C62.0059 19.7286 59.6753 16.475 59.6753 15.6582C63.3993 18.9965 66.6076 24.3571 65.1753 29.0013C64.8316 28.0411 63.8576 26.0799 63.8576 26.0799C63.8576 26.0799 65.5213 30.5423 62.7988 33.5925C63.0555 29.6385 61.3883 23.6826 60.592 22.9167C61.3081 21.6909 60.993 20.2618 60.993 20.2618Z" fill="#9EA7AC"/>
<path d="M70.4815 37.2134C68.6481 37.0575 65.4043 38.3375 64.5449 40.8794C64.5976 39.9394 64.4406 38.8651 65.6357 37.6789C64.0316 37.6789 61.9691 39.9383 61.9691 41.8306C59.2752 43.0733 51.0836 46.9234 50.4236 47.4882C49.7636 48.0531 49.8702 48.6507 50.969 51.2344C50.2804 53.1368 49.2617 54.2632 51.8433 56.4695C52.9066 57.3733 53.4039 57.4863 53.4039 57.4863L54.5039 55.2584C54.5039 55.2584 51.904 50.4967 52.6534 49.2958C54.4214 48.1096 55.0929 47.9401 55.0929 47.9401C55.0929 47.9401 55.722 46.0761 58.9303 45.1723C62.1386 44.2685 66.2132 42.4045 66.2132 42.4045C67.0657 38.2245 69.7012 37.6969 70.4815 37.2134Z" fill="#9EA7AC"/>
<path d="M77.3212 45.7934C77.3212 45.7934 77.7796 40.7096 75.3183 38.6196C75.9462 39.9188 76.235 42.5172 75.3183 43.8163C75.3308 42.661 74.9245 41.5393 74.1725 40.6531C74.1725 40.6531 75.4146 45.2285 71.9392 46.33C69.1995 46.9231 68.0995 45.6804 68.0995 45.6804C65.1776 46.6971 60.9953 47.0925 59.7922 47.375C58.9901 49.1825 58.9901 52.8315 61.7699 55.4287C61.5655 54.7885 61.4025 54.1361 61.2818 53.4755C61.2818 53.4755 62.1675 54.8876 63.1266 54.6617C64.0857 54.4357 65.4504 53.149 67.003 55.1768C66.3865 53.0801 65.6623 52.2893 65.6623 52.2893L63.6858 52.4022L62.3108 51.6679L61.3368 49.126L65.6623 49.5214C65.6623 49.5214 69.9271 51.9018 72.6233 50.3122C75.3194 48.7227 77.3212 45.7934 77.3212 45.7934Z" fill="#9EA7AC"/>
<path d="M53.2335 27.3508C53.314 27.3492 53.3943 27.359 53.4718 27.3801C53.4466 28.0726 52.5941 28.9527 52.5941 28.9527C53.2644 28.5788 53.7193 28.2613 53.9852 27.6998C54.1256 27.8472 54.2286 28.0253 54.2856 28.2195C54.3426 28.4138 54.3519 28.6186 54.3129 28.8171C54.1891 29.347 51.9903 30.2406 50.967 30.6529C52.4372 29.7141 52.5116 27.37 53.2335 27.3508Z" fill="white"/>
<path d="M81.7904 27.0393L80.8737 25.6429C80.8737 25.6429 79.6591 27.4358 78.8685 27.7747C79.5835 24.7245 78.2383 21.1602 77.0924 19.2713C76.9926 19.7606 76.7811 20.2211 76.474 20.6178C76.1669 21.0146 75.7722 21.3372 75.3198 21.5613C75.3198 21.5613 75.3519 19.5797 74.8959 17.9981C74.7803 17.5555 74.5934 17.134 74.3424 16.7498C74.2979 17.3013 74.1879 17.8458 74.0147 18.3721C73.9183 18.6907 73.778 18.9948 73.5976 19.2758C73.5976 19.2758 73.5312 19.0217 73.4246 18.6477C73.31 18.2557 73.1565 17.7304 72.9858 17.2265C72.7497 16.5238 72.4862 15.8641 72.2799 15.663C72.2513 16.0663 72.3716 16.8108 72.2467 17.5835C72.1738 18.1207 71.9441 18.6255 71.5855 19.0363L71.5076 18.9301C71.4646 18.6372 71.4053 18.3468 71.33 18.0603C71.1169 17.2344 70.6792 16.0268 69.8519 15.3715C69.7648 15.3026 69.6663 15.2292 69.5586 15.1546C69.1713 14.8824 68.666 14.5762 68.1286 14.2689C66.5817 13.3889 64.7632 12.5122 64.6819 12.4727C65.6868 13.0997 66.619 13.8335 67.4617 14.6609C67.8154 15.0138 68.1428 15.3913 68.4414 15.7906C69.3317 16.9904 69.6777 18.0851 69.7476 18.9742C69.778 19.346 69.7583 19.7202 69.6892 20.087C68.6385 19.2001 67.354 18.2478 66.3869 17.9495C66.906 18.4308 68.1056 19.8339 69.216 21.1772L69.1988 21.1941C69.248 21.237 69.295 21.2845 69.3431 21.3297C69.8897 21.9894 70.4099 22.6266 70.8121 23.1214C72.9182 26.3648 73.9723 31.3141 72.7394 34.161C74.0285 33.9633 75.4401 31.7163 75.2889 29.8116C75.1743 28.343 74.5785 26.5185 74.2198 25.5187C81.7033 32.7726 82.3346 37.897 82.5363 38.3975C81.5211 37.0079 77.9381 33.7012 77.8258 33.5984C77.8899 33.7114 80.7133 38.602 81.6586 40.84C83.5595 38.1964 85.0755 35.4749 86.1457 32.8336L81.7904 27.0393Z" fill="#9EA7AC"/>
<path d="M58.0139 14.02C58.8802 13.8031 60.0478 13.3987 60.3343 12.7773C61.0218 13.0597 62.5686 14.5261 62.139 15.6581C63.019 14.6109 62.2123 12.0204 60.1131 11.1675C60.1131 10.7156 59.9046 9.021 59.9046 9.021C59.9046 9.021 55.665 11.9425 57.0973 14.4052C57.3264 13.3196 58.1285 12.2125 58.1285 12.2125L58.0139 14.02Z" fill="#9EA7AC"/>
<path d="M50.8298 9.53274C50.8298 9.53274 50.6659 6.64857 51.4348 5.70751C51.4348 6.57288 51.9103 8.20193 53.3506 9.0255C52.4087 7.06318 52.2048 2.64258 52.2048 2.64258C49.8615 4.72126 49.6782 6.74685 50.8298 9.53274Z" fill="#F0ABAB"/>
<path d="M52.7601 8.1548C52.7601 8.1548 52.1184 3.48566 55.7633 2.24297C59.4082 1.00028 59.6752 1.48944 59.6752 1.48944C59.6752 1.48944 56.1976 4.89781 55.2637 6.68616C55.2637 5.7451 55.6212 3.95224 56.8014 3.07105C54.7905 3.297 52.9549 6.12921 52.7601 8.1548Z" fill="#F0ABAB"/>
<path d="M57.0491 4.53066C58.6441 4.14655 61.6519 3.79634 63.876 4.5781C61.3551 5.02999 59.8082 5.99026 59.3029 6.81834C61.8524 5.68862 64.9347 5.31016 66.43 6.49863C67.9253 7.6871 69.6579 10.0008 72.2474 7.6871C72.2474 8.53213 72.4835 9.17155 72.2474 9.88779C73.6419 10.2843 74.1507 9.88779 74.1507 9.88779C74.1507 9.88779 74.3019 6.23428 72.0504 5.3305C72.0274 6.55851 70.6364 7.364 69.4906 7.06236C68.3447 6.76073 66.3865 4.61539 66.3865 4.61539C66.3865 4.61539 66.2398 2.55477 61.354 2.95809C58.6441 2.90612 57.0491 4.53066 57.0491 4.53066Z" fill="#F0ABAB"/>
<path d="M67.1975 8.38281C67.6558 9.4696 68.5725 11.0388 70.1985 11.3201C71.8244 11.6014 73.3174 10.8558 74.1562 11.3201C74.9949 11.7844 77.5536 12.6328 78.7395 11.6003C79.16 12.0736 78.0898 13.8055 77.2121 13.6179C74.8059 13.0056 75.3902 13.0407 72.9725 13.0147C75.5942 13.8789 77.6246 15.0843 78.3121 16.1384C78.9996 17.1924 80.0412 19.2711 82.4371 19.0338C82.1701 19.6778 81.7118 20.0031 80.566 19.9116C80.9097 20.4686 81.8642 21.2503 82.7809 21.2503C82.2481 21.561 80.833 21.561 80.833 21.561C80.833 21.561 83.1349 23.8205 83.4294 25.4958C84.1272 27.3328 84.8548 27.6739 84.8548 27.6739C84.8548 27.6739 85.7222 24.3571 83.583 22.2761C85.2639 21.561 85.4931 21.2786 85.4931 21.2786L83.3927 20.1952C83.3927 20.1952 85.9812 18.7864 84.8823 17.1551C82.9344 17.607 82.342 17.6138 81.0323 16.6366C79.7226 15.6593 78.6948 14.1738 78.6948 14.1738C78.6948 14.1738 81.635 12.7492 79.7272 9.02111C78.2754 10.3146 77.3622 10.5948 75.2974 10.0638C73.2326 9.53287 70.6751 10.3158 70.0632 10.0638C69.4514 9.81191 67.1975 8.38281 67.1975 8.38281Z" fill="#F0ABAB"/>
<path d="M60.0571 41.5947C59.6755 39.1093 60.4856 35.2953 61.6441 33.5929C61.6441 34.892 62.4908 36.8498 62.4908 36.8498C62.4908 36.8498 65.5697 33.2641 65.1755 30.6533C66.2137 33.0845 64.2932 37.0012 62.5859 38.6201C60.8787 40.239 60.0571 41.5947 60.0571 41.5947Z" fill="white"/>
<path d="M58.5294 46.5846C57.4076 46.6976 55.9604 48.3356 56.4669 49.4654C56.9734 50.5951 58.5294 52.9675 58.5294 52.9675L57.4672 49.776C57.4672 49.776 58.5294 49.0982 58.5294 48.2227C58.5294 47.3471 59.65 46.4716 58.5294 46.5846Z" fill="white"/>
<path d="M69.1975 21.1904C71.8329 24.6282 72.7576 27.3226 72.9845 29.1053C73.0991 30.0271 73.1266 31.3489 73.2079 31.89C73.6785 31.1309 73.8856 30.2415 73.798 29.356C73.3592 24.5073 69.3751 21.3124 69.1975 21.1904Z" fill="#083751"/>
<path d="M49.638 26.5724C49.1166 26.8107 49.2553 27.8151 49.3298 28.5403L49.4295 28.4274C49.5498 27.3982 49.7285 26.8311 50.2808 26.7689C50.2808 26.7644 50.1605 26.334 49.638 26.5724Z" fill="#083751"/>
<path d="M56.1979 20.404C55.586 20.7068 54.6362 20.8073 54.0632 20.9384C54.7794 21.2151 55.829 21.0649 56.3927 20.7757C57.1318 20.404 57.4389 19.5511 57.4721 18.7422C57.0688 19.4144 56.8694 20.0696 56.1979 20.404Z" fill="#082E44"/>
<path d="M83.8931 29.137C83.9847 28.8195 84.2139 28.3461 84.1027 27.4819C84.3672 27.9758 84.5318 28.5156 84.5874 29.0714C86.7221 26.516 84.6218 22.858 84.3227 22.6015C85.1397 22.3756 85.6977 21.7215 86.2707 20.794C85.4686 20.8188 84.9965 20.7725 84.2815 20.5217C85.7298 19.7783 85.4113 17.7471 85.1397 16.614C84.2838 17.1992 82.8687 17.0467 81.9623 16.501C80.8703 15.8413 80.695 15.0132 79.3636 14.1896C79.7602 14.0395 80.1016 13.7749 80.3433 13.4304C80.6077 13.0454 80.7801 12.6062 80.8474 12.146C81.0628 10.8626 80.679 9.30019 79.846 8.27666C78.2246 10.4412 74.9532 9.61312 74.7229 9.55777C74.9223 8.15126 73.8876 4.69997 71.455 4.65704C71.6956 6.56965 70.2198 7.15485 68.8494 6.15392C68.3211 5.0129 67.5775 3.94305 66.4912 3.30476C65.2423 2.56931 63.6037 2.42358 62.1795 2.46877C61.0153 2.50153 59.8947 2.81446 58.9883 3.12626C59.2679 2.34563 60.3232 1.56499 60.5123 1.48817C57.7623 0.111041 53.1526 1.7819 52.5533 4.85022C52.4387 3.35221 52.4662 2.07901 52.5086 1.91859C49.7254 3.06865 49.6555 6.68827 49.6887 7.98067L46.352 4.84796L49.7529 12.5922C49.6647 12.8396 49.5455 13.1345 49.4091 13.4463C49.18 13.9682 48.9222 14.5398 48.701 15.038C48.5153 15.4208 48.3564 15.8156 48.2255 16.2197C48.0949 16.8083 49.0115 18.9616 48.913 19.7151C48.8108 20.4582 48.6635 21.1946 48.4718 21.9203C48.2106 22.9517 47.8863 23.9832 47.6022 24.7751C47.4784 25.1208 47.3604 25.4213 47.2584 25.6552C46.1149 26.5781 46.0896 28.092 46.0759 28.8003C46.053 29.9797 47.8794 31.323 48.5899 31.75C48.7044 31.8178 48.8374 31.8946 48.9829 31.9759C49.482 32.2558 50.0018 32.4982 50.5378 32.7012C50.8816 32.8381 51.245 32.9212 51.6149 32.9475C52.7321 32.969 55.4775 31.3467 55.8453 30.8824C56.2131 30.4181 56.55 27.8773 56.9361 26.9758C57.5984 25.4247 58.082 26.072 60.1949 23.6894C60.6154 24.4893 61.5516 26.5036 62.0534 29.4013C59.4455 31.872 58.5174 35.1041 58.4246 37.9748C58.1581 38.2326 57.9086 38.507 57.6775 38.7961C57.1214 39.4752 56.6484 40.2165 56.2681 41.0047C55.7674 42.053 54.5092 42.7377 53.1297 43.3082C52.7023 43.4844 52.2623 43.6471 51.8303 43.8132C51.1932 44.0538 50.5699 44.2865 50.0256 44.535C48.2049 45.3676 47.4543 46.4081 47.1484 47.5943C46.9089 48.5263 47.4257 49.8888 47.6583 50.4311C47.5265 51.4817 47.1793 54.5139 47.4727 55.2708C47.8302 56.1926 47.9161 56.3926 49.1639 57.8872C49.6119 60.1975 50.7555 63.2828 53.0242 64.0001C55.0134 63.6906 56.2544 58.5379 56.2887 56.5248L56.126 56.1768C56.126 56.1768 53.8091 53.6813 53.7049 52.843C53.6006 52.0048 53.7301 51.4026 53.0815 49.5341C53.5446 49.326 54.0259 49.16 54.5196 49.0381C54.5849 49.5849 54.8301 50.4943 55.6448 51.6365C57.0118 53.5491 57.8608 57.1472 58.7672 57.7121C59.6735 58.277 61.4026 57.7607 61.4026 57.7607C61.4026 57.7607 66.1532 61.8627 70.6277 59.5852C70.8007 58.5266 70.4203 56.8603 69.9322 55.3792C69.7798 54.9149 69.6148 54.4698 69.4544 54.0654C69.0637 53.0848 68.6913 52.3561 68.5377 52.2239C68.5377 52.2239 67.2154 51.415 64.2706 52.0093C64.0758 51.8093 63.221 51.6161 62.8956 51.5709C62.6252 51.0547 62.1119 49.6244 62.3628 49.4753C62.6309 49.316 64.1228 49.5883 65.1128 49.8029C66.2128 50.0402 67.4744 51.4196 69.8268 51.4625C72.3476 51.5099 76.0704 49.7306 77.2495 47.5085C78.5752 45.0152 78.1249 41.4272 76.2767 40.015C77.5199 42.6382 77.1934 44.848 76.1472 46.5188C74.5843 48.9986 71.6647 50.0628 69.907 50.03C68.5749 49.9909 67.2743 49.621 66.1257 48.9545C66.1257 48.9545 61.2399 47.7706 60.9191 48.8607C60.7758 49.3556 61.0428 50.1949 61.3774 50.9677C61.6469 51.5763 61.953 52.1686 62.2941 52.7413C62.2941 52.7413 63.4594 52.6848 63.5636 53.5129C63.8505 53.2764 64.1764 53.0903 64.5273 52.9628C64.7417 52.8846 64.963 52.8263 65.1884 52.7888C65.6254 53.0783 65.9583 53.4966 66.1395 53.984C66.3389 54.5342 66.3194 55.125 66.2311 55.6786C66.1292 56.3214 65.9321 56.9123 65.8794 57.3336C65.825 57.7408 65.9362 58.1526 66.1887 58.4792C64.7049 58.1922 63.0709 57.5754 62.2161 56.518C59.984 56.6671 59.575 57.215 58.8588 55.0381C58.1427 52.8611 56.542 50.6502 55.8865 49.751C55.6956 49.4606 55.6201 49.1111 55.6746 48.7692C55.7423 48.2782 55.9347 47.8119 56.2337 47.4136C56.5865 46.9176 57.0687 46.5249 57.6294 46.2771C59.1992 45.5992 65.5757 43.9849 66.5176 42.7444C67.4595 41.504 67.0309 38.8582 71.6131 37.1727C70.3034 36.7535 66.5165 38.6119 65.5757 41.9005C63.7974 43.0472 59.2553 44.3498 58.0189 44.7102C56.9539 45.0129 55.9994 45.6109 55.2689 46.433C54.9459 46.7944 54.6895 47.2089 54.5115 47.6576C54.5115 47.67 54.5012 47.6824 54.4978 47.6949C53.4872 48.0462 51.8406 48.6099 51.8257 49.3895C51.8085 50.2627 52.4387 51.5258 52.3986 53.3356C52.3895 53.801 53.1892 54.7771 53.9363 55.5882C53.7713 57.3235 51.844 57.9934 51.0603 58.573C50.8444 58.7305 50.6729 58.9397 50.5618 59.1807C50.3772 58.5705 50.2532 57.9439 50.1917 57.3099C49.2052 55.9802 48.8442 55.6153 48.662 55.0505C48.5268 54.6302 48.7239 52.355 48.8442 51.0965C48.9909 51.0795 49.3106 51.3009 49.9419 51.6466C49.1124 50.3791 48.0628 48.9477 48.4822 47.6576C48.7824 46.7538 49.4767 46.4047 50.6776 45.7506C51.0293 45.5586 51.6951 45.2897 52.4754 44.9756C52.8867 44.8096 53.329 44.6299 53.7748 44.4413C55.3617 43.7725 56.9831 42.9918 57.3337 42.2948C57.8654 41.2284 58.2504 40.7132 58.5265 40.2613C58.6301 41.181 58.8326 42.0872 59.1304 42.9647C59.0582 36.6383 61.3888 32.6741 62.309 31.3591C62.4129 32.622 62.4129 33.891 62.309 35.1538C63.8134 33.7654 63.6668 26.8222 61.0359 22.4321C62.0099 20.3421 61.0898 18.2521 60.3484 17.45C60.683 18.9344 60.9569 20.0484 60.3691 21.4345C60.4393 20.737 60.3359 20.0332 60.0677 19.3841C60.0562 19.3524 60.0093 19.3739 60.0161 19.4044C60.235 20.3274 60.1101 21.2639 59.787 22.1508C59.6804 22.4377 59.5578 22.7224 59.4226 22.9981C58.5208 24.0894 57.0851 24.4328 56.346 25.7275C55.7903 25.4925 54.5631 25.0609 53.6808 25.4111C53.4357 25.488 53.203 25.5991 52.9899 25.741C52.7932 25.8657 52.6288 26.034 52.5098 26.2324C52.7916 25.9218 53.6556 25.6676 54.3431 25.6777C54.4577 25.6857 55.0501 25.7659 55.3744 26.5183C55.3744 26.5341 55.3663 26.5476 55.3652 26.5533L55.3789 26.5262C55.5371 26.9035 55.6276 27.4492 55.56 28.2354C55.3709 29.0116 55.1876 29.7131 54.9183 30.0351C54.4073 30.6496 52.7321 31.6359 51.8314 31.8065C51.441 31.8695 51.0405 31.8205 50.6776 31.6653C50.996 31.4125 51.3418 31.1954 51.7088 31.0179C53.5422 30.1469 54.4817 29.6148 54.7476 29.1268C55.1097 28.4648 54.4038 27.3689 53.6017 26.9114C53.9226 26.8142 54.2801 26.9238 54.5413 26.9882C54.1758 26.5827 53.1274 26.3567 52.7309 26.7352C51.7638 27.6581 51.7741 29.712 50.1115 30.3943C49.6811 30.5655 49.2308 30.6831 48.7709 30.7445L48.7617 30.7378C47.8336 30.104 47.2607 29.2307 47.1942 28.5371C47.1198 27.8028 47.2699 26.8425 47.8955 26.2776C47.9768 26.2032 48.0655 26.1369 48.1602 26.0799C48.3653 25.5942 48.6185 24.8372 48.8786 24.0114C49.4229 22.2513 49.9683 20.1805 50.0176 19.7399C50.0898 19.0926 49.2865 17.354 49.361 16.5406C49.3988 16.109 49.8847 15.2301 50.2227 14.6641C50.3373 14.4754 50.4312 14.3252 50.4885 14.2303L50.634 14.5568L50.7692 14.8629C50.7957 14.8922 50.824 14.9197 50.854 14.9454C50.4347 15.9622 50.3957 17.2546 50.6535 18.2803C50.7142 17.6308 50.7681 16.9902 50.9514 16.3598C51.066 15.961 51.2127 15.5769 51.3582 15.1894C51.765 15.2764 52.4043 15.2165 53.3462 14.6347C53.7435 14.4056 54.0626 14.065 54.2629 13.6564C54.2662 13.6475 54.2701 13.6389 54.2744 13.6304L54.9619 12.8543C55.0086 13.044 55.0799 13.227 55.1738 13.3988C55.1738 13.0125 55.3812 12.4273 55.6597 11.894C55.741 11.737 55.8292 11.5845 55.9186 11.4421C56.6669 10.2638 58.0946 9.90911 59.0021 9.47304C58.6423 9.80404 58.2619 10.1181 57.9112 10.4593C57.5811 10.7694 57.3074 11.1332 57.1023 11.5348C56.8744 11.995 56.7801 12.5083 56.8296 13.0181V13.0791C56.8387 13.0565 56.8479 13.0328 56.8559 13.0102C57.0851 12.4055 57.418 11.8441 57.8402 11.3506C58.133 11.0104 58.4576 10.698 58.8096 10.4175C59.0387 10.2299 59.3825 9.98028 59.6747 9.69333C59.6213 10.1184 59.5398 10.5395 59.4306 10.9541C59.3247 11.3453 59.1456 11.7135 58.9024 12.0398C58.7534 12.2341 58.5815 12.4261 58.4154 12.6216C57.8597 13.2757 57.3784 13.9569 58.145 14.7997C57.8711 14.071 58.8703 13.374 59.2908 12.9176C59.4744 12.7214 59.6386 12.5084 59.7812 12.2815C59.9284 12.0481 60.0545 11.8024 60.1582 11.5472C60.3914 11.6859 60.6109 11.8459 60.8136 12.0251C62.2448 13.2791 62.9712 15.421 61.3785 15.8582C62.1588 16.2954 65.4314 16.5462 64.9467 12.895C65.8908 13.47 66.8946 13.9546 67.8903 14.5082C71.95 16.7676 70.8867 19.3897 70.5441 19.7151C71.4745 19.6925 72.5722 18.9988 72.5401 16.8219C72.5401 16.8275 72.5458 16.8343 72.5481 16.8411C73.2826 18.9762 73.2895 20.1941 73.2895 20.1941C73.8693 19.6902 74.5075 19.0339 74.5912 17.7968C74.6324 18.0036 75.226 20.0472 75.0873 22.1146C75.4952 21.979 76.554 21.7452 77.1624 20.1376C77.3538 20.7025 77.9542 21.9045 78.3369 23.2342C78.5913 24.1165 78.7803 25.0598 78.7414 25.9816C78.6749 27.4966 77.9393 28.2411 77.8809 28.4128C77.9336 28.4207 79.6477 28.5574 80.6962 26.8063C81.7274 28.6433 83.3408 31.4608 85.802 34.0772C85.8822 34.1631 86.0048 34.2873 86.1458 34.4252C86.3188 33.8716 86.4987 33.3203 86.69 32.7724C85.802 31.9714 84.7994 30.7988 83.8931 29.137ZM66.214 52.7413C66.6384 52.7694 67.0582 52.8452 67.4652 52.9673C67.668 53.444 67.9407 54.097 68.2146 54.7827C68.3865 55.2143 68.5583 55.6594 68.713 56.0864C69.1221 57.2082 69.4189 58.1945 69.2859 58.4216C69.153 58.6486 68.3945 58.7289 67.3861 58.6475C66.7811 57.7968 66.7995 57.1642 66.9278 56.1237C66.945 55.9791 66.9656 55.8255 66.9862 55.6628C67.0264 55.2638 66.9961 54.8609 66.8969 54.4721C66.743 53.8695 66.5136 53.2881 66.214 52.7413ZM53.0712 58.1911C53.7347 57.6997 54.1907 56.8354 54.4714 56.1463C54.7384 56.4197 54.9641 56.6411 55.0936 56.7665C54.9607 58.5108 54.4623 61.7791 52.6003 62.6015C52.0274 62.3756 51.5255 61.6232 51.1267 60.7364C51.333 59.4361 51.9265 59.0418 53.0712 58.1911ZM53.2339 27.3497C53.3144 27.3481 53.3947 27.358 53.4723 27.3791C53.4471 28.0716 52.5946 28.9517 52.5946 28.9517C53.2649 28.5777 53.7198 28.2603 53.9856 27.6988C54.1261 27.8462 54.229 28.0243 54.286 28.2185C54.343 28.4128 54.3523 28.6176 54.3133 28.8161C54.1896 29.346 51.9907 30.2396 50.9675 30.6519C52.4376 29.7142 52.5121 27.3701 53.2339 27.3509V27.3497ZM52.9773 13.9738C52.559 14.2913 51.9941 14.4822 51.5759 14.3738L51.5541 14.3274L50.9365 13.0655L48.3011 7.68582L50.0611 9.43237C49.966 9.60069 49.84 9.78823 49.6509 9.83229C49.7609 9.8571 49.8759 9.85028 49.9821 9.81263C50.0883 9.77499 50.1813 9.7081 50.2502 9.6199L51.0798 10.4469C50.9102 10.8197 50.6317 11.2783 50.2021 11.3506C50.7532 11.5065 51.1749 11.1608 51.3708 10.7383L52.4273 11.7901C52.3127 12.1968 52.0835 12.6939 51.5221 12.9198C51.387 12.9753 51.2453 13.0133 51.1004 13.0328C51.7283 13.1796 52.1786 12.9955 52.4639 12.6939C52.6082 12.5349 52.7147 12.3462 52.7756 12.1414L53.1572 12.5199L53.5204 12.8825C53.6407 13.2587 53.3749 13.6745 52.9773 13.975V13.9738ZM83.3419 28.04C83.0073 27.7271 81.7377 26.2742 81.1969 25.5738C81.4593 24.7661 81.4123 24.208 81.2324 23.3855C81.0033 24.7412 80.0201 26.298 79.5137 26.9227C79.7428 26.0777 79.6535 25.1694 79.5137 24.3187C79.3431 23.365 79.0613 22.434 78.6738 21.5441C77.8385 19.5332 77.8385 19.5332 77.1166 17.7844C76.6984 19.4552 76.3409 20.2348 75.784 20.9103C75.8138 20.3756 75.778 19.8392 75.6774 19.3129C75.6373 19.0926 75.2924 17.3799 73.6642 15.0776C73.8074 16.1452 74.2371 17.4105 73.7261 18.6046C73.6917 17.7098 73.0936 15.1194 71.2786 14.0857C71.7862 14.9488 72.233 17.6533 71.6223 18.3459C71.6819 16.8546 70.6289 15.4809 69.4807 14.576C68.6328 13.9083 63.9395 11.3269 63.9234 11.3269C63.9315 11.3382 64.7977 15.0652 62.9013 15.36C63.3081 14.4562 62.71 12.8453 61.7486 11.7957C61.343 11.3518 60.8721 11.0049 60.3839 10.8592C60.3943 10.8106 60.4034 10.762 60.4114 10.7123C60.5696 9.83342 60.5077 8.81215 60.2063 8.03829C59.3848 8.90817 57.3188 8.94546 56.1982 9.90346C55.7101 10.3135 55.199 10.9417 54.9916 11.6602L54.6341 12.1471L54.3706 12.5052C54.3577 12.4325 54.3304 12.3631 54.2904 12.3007L54.2331 12.2465L51.2035 9.40186C50.4988 8.08009 50.3063 4.88976 51.8177 3.4697C51.7501 4.31134 51.8085 8.34331 53.3508 9.02115C52.2817 6.53576 53.4173 1.90956 58.7786 1.88131C57.7966 2.6032 57.045 3.78489 56.7161 4.5757C56.3618 4.95753 56.0477 5.3739 55.7788 5.81839C56.1661 5.59245 57.4197 3.49229 62.1233 3.47874C63.3723 3.47874 64.729 3.61317 65.8358 4.23452C63.9337 3.77021 61.9068 4.79938 60.3278 5.84663C61.4416 5.49416 63.0595 4.43787 65.3385 4.87733C66.8694 5.17219 67.4984 6.56287 68.7623 7.28138C69.7935 7.86657 71.2579 7.82364 71.9328 6.73007C72.1002 6.45815 72.1842 6.14425 72.1746 5.8263C72.4638 6.12903 72.7164 6.46378 72.9274 6.82384C73.3965 7.62518 73.5929 8.55363 73.4877 9.47304C72.9496 9.43963 72.4093 9.46463 71.8767 9.5476C71.3038 9.61651 70.7308 9.68429 70.1579 9.6199C69.3546 9.52103 68.5808 9.25866 67.8857 8.84943C67.6466 8.70916 67.4169 8.55368 67.1982 8.38399C67.3291 8.57034 67.4727 8.74774 67.6279 8.91495C68.2029 9.54502 68.952 9.99579 69.7832 10.2119C71.1273 10.5689 72.4381 10.0718 73.7811 10.3056C74.6485 10.4559 75.6419 10.8366 76.6582 10.9326C77.442 11.0061 78.2384 10.91 79.0003 10.4107C79.3092 10.2015 79.569 9.92955 79.7623 9.61312C80.028 10.3334 80.0612 11.1171 79.8574 11.8567L79.823 11.9697C79.7021 12.3869 79.483 12.7701 79.1837 13.0881L79.1504 13.122C78.8605 13.4033 78.5099 13.4994 78.1799 13.6937C77.0707 13.2418 75.8298 13.0881 74.6278 13.0158C75.7072 13.3548 76.8141 13.6937 77.8362 14.1749C78.8583 14.6562 79.5458 15.4176 80.2608 16.2649C80.8554 16.9721 81.5487 17.6127 82.4802 17.8307C83.1201 17.9804 83.79 17.9483 84.4121 17.7381C84.5794 18.6588 83.7132 20.1602 82.5066 20.359C83.0906 20.726 83.7193 21.0186 84.3777 21.23C83.9194 21.6379 82.8251 21.9406 82.1204 21.9768C83.8128 22.8512 84.6631 25.1807 84.6252 27.073C84.3548 26.4945 84.042 25.8303 83.3327 25.3253C83.5344 26.1421 83.4977 27.1294 83.3465 28.0411L83.3419 28.04Z" fill="#083751"/>
<path d="M56.4933 18.6236C56.4177 18.2146 56.2642 17.7627 55.9731 17.4577C56.4 17.159 56.8908 16.9611 57.4077 16.8793C56.1289 16.5765 55.2696 17.0533 54.2956 17.9864C53.6872 18.5694 52.963 20.0346 52.8152 20.4639C52.6399 20.9723 51.4402 20.5565 51.4402 20.5565C51.69 20.8683 52.209 21.266 52.7613 21.2762C53.175 21.2841 53.1853 21.0649 53.3755 20.6763C54.5019 20.1668 55.7199 20.16 56.1805 19.7883C56.5323 19.5048 56.5701 19.0755 56.4933 18.6236ZM53.6287 20.1939C54.0229 19.4957 54.676 18.5151 55.5285 17.7966C55.7577 17.9943 55.8929 18.4372 55.9387 18.7173C56.1152 19.7895 55.147 19.4076 53.6241 20.195L53.6287 20.1939Z" fill="#083751"/>
<path d="M49.5655 25.1956C48.4632 25.992 48.4747 27.9962 48.9296 28.6977C48.8093 27.751 49.0648 25.7751 49.9826 25.7604C50.583 25.748 50.8867 25.9288 51.0265 26.0553L51.1273 26.1739C51.1401 26.0824 51.1354 25.9893 51.1135 25.8994C51.1021 24.7403 51.7839 23.6976 52.2044 22.604C51.5215 23.3469 50.9469 24.18 50.4971 25.0792C50.2393 24.9425 49.9161 24.9425 49.5655 25.1956Z" fill="#083751"/>
</svg>
