<svg width="252" height="66" viewBox="0 0 252 66" fill="none" xmlns="http://www.w3.org/2000/svg">
    <path d="M47.2986 42.7761C47.2617 42.8174 47.2267 42.8607 47.1918 42.9038L47.1908 42.905C47.1411 42.9664 47.0915 43.0278 47.0363 43.0836C44.0432 46.2013 40.6954 48.8928 36.9042 50.9787C34.3103 52.4141 31.5389 53.2889 28.6124 53.6926C27.1935 53.8945 25.7745 54.0515 24.3556 53.9842C20.9856 53.8272 17.7709 53.0422 14.9109 51.1581C11.6739 49.0273 9.72292 45.9546 9.19082 42.0743C8.63655 38.0595 9.30167 34.1792 11.031 30.5009C12.8046 26.7103 15.1769 23.3235 18.17 20.4077C20.9635 17.7611 24.0674 15.4733 27.659 13.9481C30.1422 12.894 32.714 12.3108 35.3966 12.0641C37.7911 11.8398 40.0968 12.1987 42.2917 13.2304C45.0409 14.5313 47.0141 16.6396 48.4109 19.3311C48.8124 20.1259 49.1589 20.9624 49.5046 21.7968L49.5051 21.798L49.5055 21.7988L49.5057 21.7995L49.5059 21.8C49.5988 22.0241 49.6916 22.2482 49.7854 22.4712C49.8076 22.5385 49.8076 22.6506 49.7633 22.7404C49.5637 23.2114 49.2977 23.4132 48.6991 23.3459C46.3711 23.1441 44.3093 23.8842 42.5578 25.4319C42.5134 25.4767 42.4691 25.4991 42.4691 25.4991C42.3566 25.1779 42.2462 24.8567 42.1359 24.5361L42.1352 24.5342C41.8761 23.7809 41.6181 23.0308 41.3384 22.2918C40.8728 21.103 40.3407 19.9143 39.5426 18.8825C38.2345 17.2004 36.5273 16.348 34.3989 16.4602C33.3347 16.5051 32.3814 16.8639 31.4281 17.3125C29.6101 18.1648 28.1025 19.376 26.7944 20.9236C25.0651 22.9871 23.4909 25.1627 22.1829 27.5178C20.4757 30.6354 19.1898 33.8877 18.436 37.3418C17.9704 39.4725 17.9926 41.6033 18.3252 43.7565C18.5025 44.9228 18.8573 45.977 19.6111 46.8966C20.9191 48.5339 22.6485 49.2516 24.7103 49.1619C26.0627 49.1171 27.3043 48.7133 28.5237 48.1078C30.9181 46.919 33.0244 45.3265 34.931 43.4425C37.1925 41.1996 39.2765 38.8221 41.0945 36.1979C41.1167 36.153 41.1388 36.1306 41.1832 36.0857C42.5151 38.0581 44.2504 39.3334 46.4623 39.7634L47.2986 42.7761Z" fill="#4CC9F5"/>
    <path d="M51.6 31.8C51.6 34.1196 49.8539 36 47.7 36C45.5461 36 43.8 34.1196 43.8 31.8C43.8 29.4804 45.5461 27.6 47.7 27.6C49.8539 27.6 51.6 29.4804 51.6 31.8Z" fill="#FED402"/>
    <path d="M66 13.8165C63.9649 16.9512 61.9541 20.062 59.9433 23.1729C58.6031 25.2462 57.2629 27.3196 55.9155 29.4C55.4663 27.813 54.6578 26.4905 53.4449 25.4105C52.2546 24.3304 50.8396 23.6692 49.2 23.3826C49.3573 23.1318 49.5145 22.8895 49.6699 22.65C49.8696 22.3423 50.0662 22.0394 50.2556 21.7295C51.8727 19.2388 53.4899 16.726 55.0845 14.2353C55.2866 13.9267 55.5112 13.8165 55.8706 13.8165H65.5733C65.6856 13.7945 65.7979 13.7945 66 13.8165Z" fill="#7CC242"/>
    <path fill-rule="evenodd" clip-rule="evenodd" d="M91.2578 22.2698H88.1687L79.8 41.2465H83.2261L85.1919 36.6698H94.1784L96.0881 41.2465H99.6265L91.2578 22.2698ZM89.629 26.2326L92.9428 33.7674H86.3714L89.629 26.2326Z" fill="#585759"/>
    <path d="M102.659 21.6H105.917V41.2465H102.659V21.6Z" fill="#585759"/>
    <path fill-rule="evenodd" clip-rule="evenodd" d="M113.499 27.0698H110.242V45.6H113.499V39.014C114.454 40.3535 115.971 41.5256 118.33 41.5256C121.756 41.5256 125.013 38.8465 125.013 34.1581C125.013 29.414 121.7 26.7349 118.33 26.7349C116.027 26.7349 114.567 27.907 113.499 29.414V27.0698ZM117.6 29.5256C119.846 29.5256 121.7 31.3674 121.7 34.1023C121.7 37.0047 119.846 38.7349 117.6 38.7349C115.409 38.7349 113.443 36.893 113.443 34.1581C113.443 31.3674 115.353 29.5256 117.6 29.5256Z" fill="#585759"/>
    <path d="M128.44 21.6H131.641V29.2465C132.54 27.907 133.888 26.7349 136.134 26.7349C139.336 26.7349 141.245 28.9116 141.245 32.2047V41.2465H137.988V33.2093C137.988 30.9768 136.864 29.7488 134.899 29.7488C132.989 29.7488 131.697 31.0884 131.697 33.2651V41.3023H128.44V21.6Z" fill="#585759"/>
    <path fill-rule="evenodd" clip-rule="evenodd" d="M153.939 39.5163V41.2465H157.084V32.8186C157.084 29.0233 155.006 26.7907 150.794 26.7907C148.491 26.7907 146.918 27.2372 145.345 27.9628L146.244 30.5861C147.536 30.0279 148.772 29.693 150.344 29.693C152.647 29.693 153.883 30.8093 153.883 32.7628V33.0419C152.816 32.6512 151.692 32.4279 149.951 32.4279C146.637 32.4279 144.166 33.9907 144.166 37.1163C144.166 40.0186 146.581 41.5814 149.277 41.5814C151.468 41.5814 152.984 40.6884 153.939 39.5163ZM150.794 34.7721C152.029 34.7721 153.209 34.9954 154.051 35.3302H154.107V36.1674C154.107 37.9535 152.479 39.1814 150.288 39.1814C148.772 39.1814 147.536 38.4 147.536 37.0605C147.536 35.6093 148.715 34.7721 150.794 34.7721Z" fill="#585759"/>
    <path d="M160.061 22.3814H163.656L168.205 36.3907L172.867 22.3256H175.675L180.337 36.3907L184.83 22.3814H188.312L181.685 41.3581H178.82L174.159 27.7954L169.497 41.3581H166.632L160.061 22.3814Z" fill="#585759"/>
    <path fill-rule="evenodd" clip-rule="evenodd" d="M197.692 39.5163V41.2465H200.837V32.8186C200.837 29.0233 198.759 26.7907 194.547 26.7907C192.244 26.7907 190.671 27.2372 189.099 27.9628L189.997 30.5861C191.289 30.0279 192.525 29.693 194.097 29.693C196.4 29.693 197.636 30.8093 197.636 32.7628V33.0419C196.569 32.6512 195.445 32.4279 193.704 32.4279C190.39 32.4279 187.919 33.9907 187.919 37.1163C187.919 40.0186 190.334 41.5814 193.03 41.5814C195.221 41.5814 196.737 40.6884 197.692 39.5163ZM194.547 34.7721C195.782 34.7721 196.962 34.9954 197.804 35.3302H197.861V36.1674C197.861 37.9535 196.232 39.1814 194.041 39.1814C192.525 39.1814 191.289 38.4 191.289 37.0605C191.289 35.6093 192.469 34.7721 194.547 34.7721Z" fill="#585759"/>
    <path d="M204.488 21.6H207.746V41.2465H204.488V21.6Z" fill="#585759"/>
    <path d="M214.991 21.6H211.733V41.2465H214.991V21.6Z" fill="#585759"/>
    <path fill-rule="evenodd" clip-rule="evenodd" d="M217.968 34.1581C217.968 30.0837 220.888 26.7349 224.989 26.7349C229.538 26.7349 231.841 30.307 231.841 34.3814C231.841 34.6047 231.841 35.1628 231.785 35.2744H221.282C221.619 37.6186 223.304 38.9023 225.382 38.9023C226.954 38.9023 228.134 38.2884 229.257 37.2279L231.167 38.9023C229.819 40.5209 227.965 41.5814 225.326 41.5814C221.169 41.5814 217.968 38.6233 217.968 34.1581ZM228.583 33.1535C228.359 31.0326 227.123 29.414 224.932 29.414C222.91 29.414 221.506 30.9768 221.225 33.1535H228.583Z" fill="#585759"/>
    <path d="M235.267 29.8605V37.3395C235.267 40.4651 236.952 41.5256 239.311 41.5256C240.547 41.5256 241.501 41.2465 242.288 40.8V38.1209C241.67 38.4558 240.996 38.6233 240.266 38.6233C239.199 38.6233 238.525 38.1209 238.525 36.8372V29.8605H242.4V27.0698H238.525V23.1628H235.267V27.0698H233.47V29.8605H235.267Z" fill="#585759"/>
    <path d="M46.2 39.8683L46.7951 42.7299L46.7807 42.8395C46.797 42.8211 46.8136 42.803 46.8307 42.7856C47.0958 43.5113 47.3521 44.228 47.6051 44.9356L47.6061 44.9383L47.6073 44.9419L47.6088 44.946C47.7534 45.3505 47.897 45.752 48.0405 46.1505C48.8104 48.3489 50.0643 50.2108 51.846 51.6689C54.1557 53.5308 56.7954 54.2711 59.721 53.9122C62.6906 53.5533 65.1323 52.1849 67.046 49.8295C67.0782 49.7966 67.1104 49.7518 67.1512 49.6949C67.1662 49.6741 67.1823 49.6516 67.2 49.6276C66.7456 49.6513 66.3096 49.6814 65.8791 49.7111L65.8786 49.7111C65.4966 49.7374 65.1189 49.7635 64.7363 49.7846C63.3725 49.8743 62.0307 49.807 60.7329 49.3359C59.787 48.977 58.8631 48.5508 58.1592 47.8105C57.1253 46.7113 56.3554 45.4102 55.8935 43.9521C55.3876 42.4042 54.9036 40.8564 54.4197 39.3085C54.1997 38.6132 53.9798 37.9402 53.7378 37.2C51.8681 39.1965 49.6243 40.1834 46.9627 39.9591C46.7025 39.9395 46.4483 39.9092 46.2 39.8683Z" fill="#EF3B39"/>
</svg>
