<svg width="252" height="66" viewBox="0 0 252 66" fill="none" xmlns="http://www.w3.org/2000/svg">
<path d="M47.2986 42.7761C47.2617 42.8174 47.2267 42.8607 47.1918 42.9038L47.1908 42.905C47.1411 42.9664 47.0915 43.0278 47.0363 43.0836C44.0432 46.2013 40.6954 48.8928 36.9042 50.9787C34.3103 52.4141 31.5389 53.2889 28.6124 53.6926C27.1935 53.8945 25.7745 54.0515 24.3556 53.9842C20.9856 53.8272 17.7709 53.0422 14.9109 51.1581C11.6739 49.0273 9.72292 45.9546 9.19082 42.0743C8.63655 38.0595 9.30167 34.1792 11.031 30.5009C12.8046 26.7103 15.1769 23.3235 18.17 20.4077C20.9635 17.7611 24.0674 15.4733 27.659 13.9481C30.1422 12.894 32.714 12.3108 35.3966 12.0641C37.7911 11.8398 40.0968 12.1987 42.2917 13.2304C45.0409 14.5313 47.0141 16.6396 48.4109 19.3311C48.8124 20.1259 49.1589 20.9624 49.5046 21.7968L49.5051 21.798L49.5055 21.7988L49.5057 21.7995L49.5059 21.8C49.5988 22.0241 49.6916 22.2482 49.7854 22.4712C49.8076 22.5385 49.8076 22.6506 49.7633 22.7404C49.5637 23.2114 49.2977 23.4132 48.6991 23.3459C46.3711 23.1441 44.3093 23.8842 42.5578 25.4319C42.5134 25.4767 42.4691 25.4991 42.4691 25.4991C42.3566 25.1779 42.2462 24.8567 42.1359 24.5361L42.1352 24.5342C41.8761 23.7809 41.6181 23.0308 41.3384 22.2918C40.8728 21.103 40.3407 19.9143 39.5426 18.8825C38.2345 17.2004 36.5273 16.348 34.3989 16.4602C33.3347 16.5051 32.3814 16.8639 31.4281 17.3125C29.6101 18.1648 28.1025 19.376 26.7944 20.9236C25.0651 22.9871 23.4909 25.1627 22.1829 27.5178C20.4757 30.6354 19.1898 33.8877 18.436 37.3418C17.9704 39.4725 17.9926 41.6033 18.3252 43.7565C18.5025 44.9228 18.8573 45.977 19.6111 46.8966C20.9191 48.5339 22.6485 49.2516 24.7103 49.1619C26.0627 49.1171 27.3043 48.7133 28.5237 48.1077C30.9181 46.919 33.0244 45.3265 34.931 43.4425C37.1925 41.1996 39.2765 38.8221 41.0945 36.1979C41.1167 36.153 41.1388 36.1306 41.1832 36.0857C42.5151 38.0581 44.2504 39.3334 46.4623 39.7634L47.2986 42.7761Z" fill="#4CC9F5"/>
<path d="M51.6 31.8001C51.6 34.1197 49.854 36.0001 47.7 36.0001C45.5461 36.0001 43.8 34.1197 43.8 31.8001C43.8 29.4805 45.5461 27.6001 47.7 27.6001C49.854 27.6001 51.6 29.4805 51.6 31.8001Z" fill="#FED402"/>
<path d="M66 13.8163C63.9649 16.951 61.954 20.0618 59.9432 23.1727C58.603 25.246 57.2628 27.3194 55.9155 29.3998C55.4663 27.8128 54.6577 26.4903 53.4449 25.4103C52.2545 24.3302 50.8395 23.669 49.2 23.3824C49.3572 23.1316 49.5145 22.8893 49.6699 22.6498C49.8695 22.3421 50.0661 22.0392 50.2556 21.7293C51.8727 19.2386 53.4898 16.7258 55.0844 14.2351C55.2866 13.9265 55.5112 13.8163 55.8705 13.8163H65.5732C65.6855 13.7943 65.7978 13.7943 66 13.8163Z" fill="#7CC242"/>
<path fill-rule="evenodd" clip-rule="evenodd" d="M91.2579 22.2699H88.1687L79.8 41.2466H83.2262L85.192 36.6699H94.1785L96.0881 41.2466H99.6266L91.2579 22.2699ZM89.6291 26.2327L92.9428 33.7675H86.3714L89.6291 26.2327Z" fill="#585759"/>
<path d="M102.66 21.6001H105.917V41.2466H102.66V21.6001Z" fill="#585759"/>
<path fill-rule="evenodd" clip-rule="evenodd" d="M113.5 27.0699H110.242V45.6001H113.5V39.0141C114.454 40.3536 115.971 41.5257 118.33 41.5257C121.756 41.5257 125.014 38.8466 125.014 34.1582C125.014 29.4141 121.7 26.735 118.33 26.735C116.027 26.735 114.567 27.9071 113.5 29.4141V27.0699ZM117.6 29.5257C119.846 29.5257 121.7 31.3675 121.7 34.1024C121.7 37.0047 119.846 38.735 117.6 38.735C115.409 38.735 113.443 36.8931 113.443 34.1582C113.443 31.3675 115.353 29.5257 117.6 29.5257Z" fill="#585759"/>
<path d="M128.44 21.6001H131.641V29.2466C132.54 27.9071 133.888 26.735 136.134 26.735C139.336 26.735 141.245 28.9117 141.245 32.2047V41.2466H137.988V33.2094C137.988 30.9768 136.865 29.7489 134.899 29.7489C132.989 29.7489 131.697 31.0885 131.697 33.2652V41.3024H128.44V21.6001Z" fill="#585759"/>
<path fill-rule="evenodd" clip-rule="evenodd" d="M153.939 39.5164V41.2466H157.084V32.8187C157.084 29.0234 155.006 26.7908 150.794 26.7908C148.491 26.7908 146.918 27.2373 145.346 27.9629L146.244 30.5861C147.536 30.028 148.772 29.6931 150.344 29.6931C152.647 29.6931 153.883 30.8094 153.883 32.7629V33.042C152.816 32.6513 151.692 32.428 149.951 32.428C146.637 32.428 144.166 33.9908 144.166 37.1164C144.166 40.0187 146.581 41.5815 149.277 41.5815C151.468 41.5815 152.984 40.6885 153.939 39.5164ZM150.794 34.7722C152.029 34.7722 153.209 34.9954 154.051 35.3303H154.107V36.1675C154.107 37.9536 152.479 39.1815 150.288 39.1815C148.772 39.1815 147.536 38.4001 147.536 37.0606C147.536 35.6094 148.715 34.7722 150.794 34.7722Z" fill="#585759"/>
<path d="M160.061 22.3815H163.656L168.205 36.3908L172.867 22.3257H175.675L180.337 36.3908L184.83 22.3815H188.312L181.685 41.3582H178.82L174.159 27.7954L169.497 41.3582H166.632L160.061 22.3815Z" fill="#585759"/>
<path fill-rule="evenodd" clip-rule="evenodd" d="M197.692 39.5164V41.2466H200.837V32.8187C200.837 29.0234 198.759 26.7908 194.547 26.7908C192.244 26.7908 190.671 27.2373 189.099 27.9629L189.997 30.5861C191.289 30.028 192.525 29.6931 194.097 29.6931C196.4 29.6931 197.636 30.8094 197.636 32.7629V33.042C196.569 32.6513 195.445 32.428 193.704 32.428C190.391 32.428 187.919 33.9908 187.919 37.1164C187.919 40.0187 190.334 41.5815 193.03 41.5815C195.221 41.5815 196.737 40.6885 197.692 39.5164ZM194.547 34.7722C195.782 34.7722 196.962 34.9954 197.804 35.3303H197.861V36.1675C197.861 37.9536 196.232 39.1815 194.041 39.1815C192.525 39.1815 191.289 38.4001 191.289 37.0606C191.289 35.6094 192.469 34.7722 194.547 34.7722Z" fill="#585759"/>
<path d="M204.488 21.6001H207.746V41.2466H204.488V21.6001Z" fill="#585759"/>
<path d="M214.991 21.6001H211.734V41.2466H214.991V21.6001Z" fill="#585759"/>
<path fill-rule="evenodd" clip-rule="evenodd" d="M217.968 34.1582C217.968 30.0838 220.889 26.735 224.989 26.735C229.538 26.735 231.841 30.3071 231.841 34.3815C231.841 34.6047 231.841 35.1629 231.785 35.2745H221.282C221.619 37.6187 223.304 38.9024 225.382 38.9024C226.954 38.9024 228.134 38.2885 229.257 37.228L231.167 38.9024C229.819 40.521 227.965 41.5815 225.326 41.5815C221.169 41.5815 217.968 38.6234 217.968 34.1582ZM228.583 33.1536C228.359 31.0327 227.123 29.4141 224.932 29.4141C222.911 29.4141 221.506 30.9768 221.226 33.1536H228.583Z" fill="#585759"/>
<path d="M235.267 29.8606V37.3396C235.267 40.4652 236.952 41.5257 239.311 41.5257C240.547 41.5257 241.501 41.2466 242.288 40.8001V38.121C241.67 38.4559 240.996 38.6234 240.266 38.6234C239.199 38.6234 238.525 38.121 238.525 36.8373V29.8606H242.4V27.0699H238.525V23.1629H235.267V27.0699H233.47V29.8606H235.267Z" fill="#585759"/>
<path d="M46.2 39.8685L46.7951 42.7301L46.7807 42.8397C46.7969 42.8213 46.8135 42.8032 46.8306 42.7858C47.0957 43.5115 47.352 44.2282 47.605 44.9358L47.606 44.9385L47.6073 44.9421L47.6087 44.9462C47.7534 45.3507 47.8969 45.7522 48.0405 46.1507C48.8104 48.3491 50.0642 50.211 51.846 51.6691C54.1557 53.531 56.7953 54.2713 59.7209 53.9124C62.6905 53.5535 65.1322 52.1851 67.046 49.8296C67.0782 49.7968 67.1104 49.752 67.1512 49.6951C67.1661 49.6743 67.1823 49.6518 67.2 49.6278C66.7455 49.6515 66.3095 49.6816 65.879 49.7113L65.8785 49.7113C65.4966 49.7376 65.1188 49.7637 64.7363 49.7848C63.3725 49.8745 62.0306 49.8072 60.7328 49.3361C59.7869 48.9772 58.863 48.551 58.1591 47.8107C57.1253 46.7115 56.3554 45.4104 55.8934 43.9523C55.3875 42.4044 54.9036 40.8566 54.4196 39.3087C54.1997 38.6134 53.9797 37.9404 53.7378 37.2002C51.868 39.1967 49.6243 40.1836 46.9626 39.9593C46.7024 39.9397 46.4482 39.9094 46.2 39.8685Z" fill="#EF3B39"/>
</svg>
