<svg width="54" height="57" viewBox="0 0 54 57" fill="none" xmlns="http://www.w3.org/2000/svg" id="basket-6" class="basket basket-right">
    <path fill-rule="evenodd" clip-rule="evenodd" d="M27 55.9996C12.6406 55.9996 1 44.45 1 30.2029C1 15.9558 53 15.9558 53 30.2029C53 44.45 41.3594 55.9996 27 55.9996Z" fill="#276BFB" stroke="#000085" stroke-width="2"/>
    <path d="M27 44C12.6406 44 1 37.2843 1 29C1 20.7157 12.6406 14 27 14C41.3594 14 53 20.7157 53 29C53 37.2843 41.3594 44 27 44Z" fill="#5B88FF" stroke="#000085" stroke-width="2"/>
    <path d="M27 39C15.402 39 6 34.5228 6 29C6 23.4772 15.402 19 27 19C38.598 19 48 23.4772 48 29C48 34.5228 38.598 39 27 39Z" fill="#000085"/>
    <path d="M20.4415 35C13.5377 35 7.94109 29.4036 7.94109 22.5C7.94109 15.5964 13.5377 10 20.4415 10C27.3453 10 32.9419 15.5964 32.9419 22.5C32.9419 29.4036 27.3453 35 20.4415 35Z" fill="#33DFCC" stroke="#000085" stroke-width="2"/>
    <path d="M17.5003 35C10.5965 35 4.99993 29.4036 4.99993 22.5C4.99993 15.5964 10.5965 10 17.5003 10C24.4041 10 30.0007 15.5964 30.0007 22.5C30.0007 29.4036 24.4041 35 17.5003 35Z" fill="#33DFCC" stroke="#000085" stroke-width="2"/>
    <path d="M17.5006 30.5886C13.0335 30.5886 9.41212 26.9674 9.41212 22.5003C9.41212 18.0333 13.0335 14.4121 17.5006 14.4121C21.9678 14.4121 25.5891 18.0333 25.5891 22.5003C25.5891 26.9674 21.9678 30.5886 17.5006 30.5886Z" fill="#33DFCC" stroke="#000085" stroke-width="2"/>
    <path d="M26.1768 13.0508H28.8794H26.1768Z" fill="#33DFCC"/>
    <path d="M26.1768 13.0508H28.8794" stroke="#000085" stroke-width="2"/>
    <path d="M29.7432 22.2188H32.4458H29.7432Z" fill="#33DFCC"/>
    <path d="M29.7432 22.2188H32.4458" stroke="#000085" stroke-width="2"/>
    <path d="M27.129 30.2529H29.7437H27.129Z" fill="#33DFCC"/>
    <path d="M27.129 30.2529H29.7437" stroke="#000085" stroke-width="2"/>
    <path d="M35.4415 26C28.5377 26 22.9411 20.4036 22.9411 13.5C22.9411 6.59644 28.5377 1 35.4415 1C42.3453 1 47.9419 6.59644 47.9419 13.5C47.9419 20.4036 42.3453 26 35.4415 26Z" fill="#33DFCC" stroke="#000085" stroke-width="2"/>
    <path d="M32.5003 26C25.5965 26 19.9999 20.4036 19.9999 13.5C19.9999 6.59644 25.5965 1 32.5003 1C39.4041 1 45.0007 6.59644 45.0007 13.5C45.0007 20.4036 39.4041 26 32.5003 26Z" fill="#33DFCC" stroke="#000085" stroke-width="2"/>
    <path d="M32.5006 21.5886C28.0335 21.5886 24.4121 17.9674 24.4121 13.5003C24.4121 9.03334 28.0335 5.41211 32.5006 5.41211C36.9678 5.41211 40.5891 9.03334 40.5891 13.5003C40.5891 17.9674 36.9678 21.5886 32.5006 21.5886Z" fill="#33DFCC" stroke="#000085" stroke-width="2"/>
    <path d="M41.1768 4.05078H43.8794H41.1768Z" fill="#33DFCC"/>
    <path d="M41.1768 4.05078H43.8794" stroke="#000085" stroke-width="2"/>
    <path d="M44.7432 13.2188H47.4458H44.7432Z" fill="#33DFCC"/>
    <path d="M44.7432 13.2188H47.4458" stroke="#000085" stroke-width="2"/>
    <path d="M42.129 21.2529H44.7437H42.129Z" fill="#33DFCC"/>
    <path d="M42.129 21.2529H44.7437" stroke="#000085" stroke-width="2"/>
    <path d="M29.4415 38C22.5377 38 16.9411 32.4036 16.9411 25.5C16.9411 18.5964 22.5377 13 29.4415 13C36.3453 13 41.9419 18.5964 41.9419 25.5C41.9419 32.4036 36.3453 38 29.4415 38Z" fill="#5B88FF" stroke="#000085" stroke-width="2"/>
    <path d="M26.5003 38C19.5965 38 13.9999 32.4036 13.9999 25.5C13.9999 18.5964 19.5965 13 26.5003 13C33.4041 13 39.0007 18.5964 39.0007 25.5C39.0007 32.4036 33.4041 38 26.5003 38Z" fill="#5B88FF" stroke="#000085" stroke-width="2"/>
    <path d="M26.5006 33.5886C22.0335 33.5886 18.4121 29.9674 18.4121 25.5003C18.4121 21.0333 22.0335 17.4121 26.5006 17.4121C30.9678 17.4121 34.5891 21.0333 34.5891 25.5003C34.5891 29.9674 30.9678 33.5886 26.5006 33.5886Z" fill="#5B88FF" stroke="#000085" stroke-width="2"/>
    <path d="M35.1768 16.0508H37.8794H35.1768Z" fill="#5B88FF"/>
    <path d="M35.1768 16.0508H37.8794" stroke="#000085" stroke-width="2"/>
    <path d="M38.7432 25.2188H41.4458H38.7432Z" fill="#5B88FF"/>
    <path d="M38.7432 25.2188H41.4458" stroke="#000085" stroke-width="2"/>
    <path d="M36.129 33.2529H38.7437H36.129Z" fill="#5B88FF"/>
    <path d="M36.129 33.2529H38.7437" stroke="#000085" stroke-width="2"/>
</svg>
