<svg width="54" height="57" viewBox="0 0 54 57" fill="none" xmlns="http://www.w3.org/2000/svg" id="basket-7" class="basket basket-right">
    <path fill-rule="evenodd" clip-rule="evenodd" d="M27 55.9993C12.6406 55.9993 1 44.4498 1 30.2027C1 15.9556 53 15.9556 53 30.2027C53 44.4498 41.3594 55.9993 27 55.9993Z" fill="#276BFB" stroke="#000085" stroke-width="2"/>
    <path d="M27 43.9998C12.6406 43.9998 1 37.284 1 28.9998C1 20.7155 12.6406 13.9998 27 13.9998C41.3594 13.9998 53 20.7155 53 28.9998C53 37.284 41.3594 43.9998 27 43.9998Z" fill="#5B88FF" stroke="#000085" stroke-width="2"/>
    <path d="M27 38.9998C15.402 38.9998 6 34.5226 6 28.9998C6 23.4769 15.402 18.9998 27 18.9998C38.598 18.9998 48 23.4769 48 28.9998C48 34.5226 38.598 38.9998 27 38.9998Z" fill="#000085"/>
    <path d="M35.4415 25.9998C28.5377 25.9998 22.9411 20.4033 22.9411 13.4998C22.9411 6.5962 28.5377 0.999756 35.4415 0.999756C42.3453 0.999756 47.9419 6.5962 47.9419 13.4998C47.9419 20.4033 42.3453 25.9998 35.4415 25.9998Z" fill="#33DFCC" stroke="#000085" stroke-width="2"/>
    <path d="M32.5003 25.9998C25.5965 25.9998 19.9999 20.4033 19.9999 13.4998C19.9999 6.5962 25.5965 0.999756 32.5003 0.999756C39.4041 0.999756 45.0007 6.5962 45.0007 13.4998C45.0007 20.4033 39.4041 25.9998 32.5003 25.9998Z" fill="#33DFCC" stroke="#000085" stroke-width="2"/>
    <path d="M32.5006 21.5883C28.0335 21.5883 24.4121 17.9671 24.4121 13.5001C24.4121 9.03309 28.0335 5.41187 32.5006 5.41187C36.9678 5.41187 40.5891 9.03309 40.5891 13.5001C40.5891 17.9671 36.9678 21.5883 32.5006 21.5883Z" fill="#33DFCC" stroke="#000085" stroke-width="2"/>
    <path d="M41.177 4.05054H43.8796H41.177Z" fill="#33DFCC"/>
    <path d="M41.177 4.05054H43.8796" stroke="#000085" stroke-width="2"/>
    <path d="M44.7432 13.2185H47.4458H44.7432Z" fill="#33DFCC"/>
    <path d="M44.7432 13.2185H47.4458" stroke="#000085" stroke-width="2"/>
    <path d="M42.129 21.2527H44.7437H42.129Z" fill="#33DFCC"/>
    <path d="M42.129 21.2527H44.7437" stroke="#000085" stroke-width="2"/>
    <path d="M20.4415 35.9998C13.5377 35.9998 7.94109 30.4033 7.94109 23.4998C7.94109 16.5962 13.5377 10.9998 20.4415 10.9998C27.3453 10.9998 32.9419 16.5962 32.9419 23.4998C32.9419 30.4033 27.3453 35.9998 20.4415 35.9998Z" fill="#5B88FF" stroke="#000085" stroke-width="2"/>
    <path d="M17.5003 35.9998C10.5965 35.9998 4.99993 30.4033 4.99993 23.4998C4.99993 16.5962 10.5965 10.9998 17.5003 10.9998C24.4041 10.9998 30.0007 16.5962 30.0007 23.4998C30.0007 30.4033 24.4041 35.9998 17.5003 35.9998Z" fill="#5B88FF" stroke="#000085" stroke-width="2"/>
    <path d="M17.5006 31.5883C13.0335 31.5883 9.41212 27.9671 9.41212 23.5001C9.41212 19.0331 13.0335 15.4119 17.5006 15.4119C21.9678 15.4119 25.5891 19.0331 25.5891 23.5001C25.5891 27.9671 21.9678 31.5883 17.5006 31.5883Z" fill="#5B88FF" stroke="#000085" stroke-width="2"/>
    <path d="M26.177 14.0505H28.8796H26.177Z" fill="#5B88FF"/>
    <path d="M26.177 14.0505H28.8796" stroke="#000085" stroke-width="2"/>
    <path d="M29.7432 23.2185H32.4458H29.7432Z" fill="#5B88FF"/>
    <path d="M29.7432 23.2185H32.4458" stroke="#000085" stroke-width="2"/>
    <path d="M27.129 31.2527H29.7437H27.129Z" fill="#5B88FF"/>
    <path d="M27.129 31.2527H29.7437" stroke="#000085" stroke-width="2"/>
    <path d="M42.4623 32.6125C37.4914 37.4388 29.5776 37.3501 24.7863 32.4143C19.995 27.4785 20.1406 19.5648 25.1115 14.7385C30.0824 9.91224 37.9962 10.001 42.7875 14.9368C47.5788 19.8725 47.4332 27.7862 42.4623 32.6125Z" fill="#33DFCC" stroke="#000085" stroke-width="2"/>
    <path d="M40.3514 34.6614C35.3806 39.4877 27.4668 39.3989 22.6755 34.4631C17.8842 29.5274 18.0298 21.6137 23.0007 16.7874C27.9715 11.9611 35.8853 12.0498 40.6766 16.9856C45.4679 21.9214 45.3223 29.8351 40.3514 34.6614Z" fill="#33DFCC" stroke="#000085" stroke-width="2"/>
    <path d="M37.2899 31.5067C34.0732 34.6298 28.9523 34.5725 25.852 31.3785C22.7516 28.1846 22.8459 23.0637 26.0625 19.9406C29.2791 16.8174 34.4 16.8748 37.5004 20.0687C40.6007 23.2626 40.5065 28.3836 37.2899 31.5067Z" fill="#33DFCC" stroke="#000085" stroke-width="2"/>
    <path d="M31.3217 12.9001L33.2612 11.0183L31.3217 12.9001Z" fill="#33DFCC"/>
    <path d="M31.3217 12.9001L33.2612 11.0183" stroke="#000085" stroke-width="2"/>
    <path d="M40.2661 16.9958L42.2056 15.114L40.2661 16.9958Z" fill="#33DFCC"/>
    <path d="M40.2661 16.9958L42.2056 15.114" stroke="#000085" stroke-width="2"/>
    <path d="M43.9852 24.5815L45.8616 22.7603L43.9852 24.5815Z" fill="#33DFCC"/>
    <path d="M43.9852 24.5815L45.8616 22.7603" stroke="#000085" stroke-width="2"/>
</svg>
