<svg width="252" height="66" viewBox="0 0 252 66" fill="none" xmlns="http://www.w3.org/2000/svg">
<path d="M114.625 24.6167C115.466 24.6167 116.244 24.6167 117.022 24.6167C118.465 24.6167 119.909 24.6047 121.352 24.6407C122.256 24.6527 123.134 24.8208 123.975 25.157C125.895 25.9015 126.824 27.3183 126.937 29.2515C127 30.3682 126.761 31.4249 125.946 32.2774C125.632 32.6016 125.243 32.8537 124.866 33.1539C125.042 33.214 125.23 33.286 125.431 33.358C127.113 33.9824 128.042 35.1471 128.255 36.8522C128.393 37.9449 128.28 39.0135 127.791 40.0101C127.063 41.5111 125.732 42.2435 124.101 42.5197C123.498 42.6278 122.871 42.6518 122.268 42.6518C119.846 42.6638 117.424 42.6638 114.989 42.6638C114.876 42.6638 114.763 42.6638 114.638 42.6638C114.625 36.6481 114.625 30.6444 114.625 24.6167ZM118.403 39.5058C119.771 39.4698 121.114 39.4818 122.431 39.3978C123.247 39.3377 123.925 38.9535 124.276 38.197C124.979 36.7081 124.076 35.1231 122.369 34.955C121.264 34.847 120.135 34.895 119.03 34.871C118.829 34.871 118.616 34.871 118.39 34.871C118.403 36.4079 118.403 37.9209 118.403 39.5058ZM118.415 27.7146C118.415 29.1675 118.415 30.5603 118.415 31.9292C119.482 31.9292 120.536 31.9892 121.565 31.9172C122.519 31.8451 123.21 31.0887 123.297 30.2121C123.423 29.0354 122.996 28.2669 121.992 27.9307C120.825 27.5345 119.62 27.8106 118.415 27.7146Z" fill="#0E2839"/>
<path d="M173.626 23.5C174.894 23.5 176.124 23.5 177.404 23.5C177.404 27.2583 177.404 30.9926 177.404 34.7389C177.806 34.799 178.094 34.799 178.383 34.4507C179.613 32.9618 180.893 31.5089 182.148 30.044C182.274 29.8879 182.412 29.8279 182.625 29.8279C183.83 29.8399 185.035 29.8279 186.227 29.8279C186.315 29.8279 186.415 29.8279 186.591 29.8279C184.796 31.8451 183.052 33.8143 181.295 35.7836C183.215 38.065 185.123 40.3344 187.068 42.6398C186.93 42.6518 186.842 42.6638 186.754 42.6638C185.437 42.6638 184.119 42.6638 182.801 42.6638C182.588 42.6638 182.462 42.5917 182.337 42.4357C181.069 40.8507 179.776 39.2777 178.534 37.6687C178.233 37.2725 177.906 37.1764 177.417 37.2845C177.417 39.0616 177.417 40.8387 177.417 42.6278C176.137 42.6278 174.894 42.6278 173.639 42.6278C173.626 36.2759 173.626 29.8999 173.626 23.5Z" fill="#0E2839"/>
<path d="M163.446 43C161.526 42.9279 159.769 42.4957 158.3 41.2829C157.045 40.2503 156.38 38.9175 156.167 37.3685C155.978 36.0597 156.079 34.7749 156.593 33.5502C157.346 31.725 158.752 30.5363 160.71 29.972C163.044 29.2995 165.341 29.3956 167.512 30.5123C169.445 31.5089 170.462 33.1299 170.738 35.1952C170.913 36.468 170.813 37.7287 170.324 38.9295C169.508 40.9467 167.926 42.1475 165.768 42.6638C165.002 42.8319 164.211 42.8799 163.446 43ZM159.806 36.2999C159.819 36.48 159.844 36.7201 159.869 36.9723C160.107 38.6173 161.262 39.9861 163.232 40.0582C164.525 40.1062 165.617 39.6859 166.358 38.6293C167.098 37.5726 167.211 36.3959 166.947 35.1832C166.295 32.1933 162.856 31.7851 161.162 33.1539C160.17 33.9584 159.844 35.0391 159.806 36.2999Z" fill="#0E2839"/>
<path d="M143.867 36.9244C140.567 36.9244 137.278 36.9244 134.015 36.9244C133.777 37.9571 134.768 39.422 135.998 39.8542C137.441 40.3585 139.399 40.1664 140.29 38.3653C140.855 38.4374 141.42 38.5094 141.985 38.5935C142.55 38.6775 143.114 38.7616 143.717 38.8456C143.39 39.8182 142.863 40.6467 142.073 41.3191C140.893 42.3398 139.487 42.8201 137.906 42.9041C136.287 42.9882 134.731 42.772 133.312 41.9795C131.568 41.0069 130.652 39.506 130.325 37.6329C130.099 36.276 130.175 34.9192 130.664 33.6224C131.43 31.5691 132.973 30.3204 135.157 29.792C136.889 29.3838 138.621 29.4318 140.29 30.0802C142.261 30.8487 143.315 32.3256 143.729 34.2588C143.93 35.1353 143.98 35.9999 143.867 36.9244ZM140.228 34.7991C140.127 33.7665 139.776 32.8779 138.747 32.4217C137.605 31.9053 136.437 31.9774 135.358 32.5778C134.492 33.0581 134.153 33.8746 134.003 34.7991C136.099 34.7991 138.157 34.7991 140.228 34.7991Z" fill="#0E2839"/>
<path d="M201.123 36.9244C197.797 36.9244 194.508 36.9244 191.22 36.9244C191.045 38.0531 192.049 39.47 193.291 39.8783C194.772 40.3585 196.68 40.1064 197.521 38.3533C198.65 38.5094 199.78 38.6775 200.947 38.8336C200.608 39.8062 200.081 40.6347 199.303 41.3071C198.161 42.3037 196.793 42.784 195.261 42.8921C193.881 42.9762 192.525 42.8441 191.245 42.3037C188.974 41.3552 187.819 39.6141 187.518 37.3207C187.342 36.0239 187.442 34.7511 187.932 33.5143C188.723 31.5091 190.254 30.2844 192.4 29.768C194.119 29.3598 195.839 29.4078 197.508 30.0442C199.416 30.7767 200.483 32.1695 200.934 34.0307C201.173 34.9912 201.223 35.9398 201.123 36.9244ZM197.433 34.7991C197.47 33.6344 196.73 32.6138 195.625 32.2656C194.973 32.0614 194.308 32.0735 193.642 32.1815C192.337 32.3856 191.27 33.5744 191.283 34.7991C193.329 34.7991 195.374 34.7991 197.433 34.7991Z" fill="#0E2839"/>
<path d="M207.813 42.6516C206.545 42.6516 205.316 42.6516 204.073 42.6516C204.073 38.377 204.073 34.1264 204.073 29.8517C205.316 29.8517 206.545 29.8517 207.826 29.8517C207.826 30.296 207.826 30.7283 207.826 31.2326C208.428 30.6202 209.043 30.1879 209.783 29.9478C211.39 29.4075 213.022 29.4195 214.59 30.0438C216.084 30.6442 216.774 31.8209 216.95 33.3219C216.988 33.6581 217 33.9943 217 34.3425C217 36.9841 217 39.6377 217 42.2794C217 42.3994 217 42.5195 217 42.6516C215.732 42.6516 214.503 42.6516 213.21 42.6516C213.21 42.5315 213.21 42.4235 213.21 42.3034C213.21 39.8779 213.21 37.4524 213.21 35.0269C213.21 34.6667 213.185 34.2825 213.084 33.9342C212.858 33.1538 212.294 32.6855 211.465 32.5414C210.788 32.4213 210.11 32.4573 209.47 32.7095C208.403 33.1417 207.939 33.9943 207.876 35.0269C207.801 36.1556 207.826 37.2843 207.826 38.413C207.813 39.7098 207.826 41.0066 207.826 42.3034C207.813 42.4115 207.813 42.5195 207.813 42.6516Z" fill="#0E2839"/>
<path d="M154.272 32.6015C153.355 32.6015 152.464 32.6015 151.536 32.6015C151.536 32.7096 151.536 32.8056 151.536 32.9017C151.536 34.6908 151.536 36.4799 151.536 38.257C151.536 38.4251 151.536 38.5932 151.573 38.7613C151.724 39.5058 152.113 39.854 152.904 39.926C153.343 39.962 153.795 39.938 154.272 39.938C154.272 40.8626 154.272 41.7511 154.272 42.6757C153.82 42.6757 153.368 42.6877 152.929 42.6757C152.163 42.6517 151.372 42.6757 150.619 42.5436C149 42.2675 147.871 41.0547 147.783 39.4697C147.708 38.233 147.733 36.9962 147.72 35.7595C147.708 34.7268 147.72 33.6822 147.72 32.6135C146.842 32.6135 145.988 32.6135 145.11 32.6135C145.11 31.6769 145.11 30.7764 145.11 29.8638C145.574 29.8398 146.026 29.8278 146.49 29.7918C147.344 29.7077 147.921 29.2394 148.034 28.4229C148.134 27.6905 148.122 26.934 148.159 26.1896C148.172 26.0335 148.159 25.8774 148.159 25.6973C149.289 25.6973 150.393 25.6973 151.548 25.6973C151.548 26.3817 151.548 27.0661 151.548 27.7505C151.548 28.435 151.548 29.1194 151.548 29.8398C152.477 29.8398 153.368 29.8398 154.284 29.8398C154.272 30.7524 154.272 31.6529 154.272 32.6015Z" fill="#0E2839"/>
<path d="M60.0918 13.1707L35.0112 4C34.7955 7.84296 37.7381 9.85178 39.2363 10.3758C42.9819 11.6568 51.2821 14.5507 54.5184 15.8782C57.7547 17.2058 59.8822 20.4491 60.5413 21.9046L66.7442 34.8311C66.3546 30.6679 65.6474 21.6078 65.2159 18.6731C64.7844 15.7385 61.6201 13.7821 60.0918 13.1707Z" fill="#F2F2F2"/>
<path d="M54.0689 17.0137L38.8767 11.5112C40.1712 15.8433 42.892 17.858 44.0906 18.3238L60.0918 24.1756C59.3728 20.6121 55.7769 17.9162 54.0689 17.0137Z" fill="#F2F2F2"/>
<path d="M60.5414 25.2236L45.2593 19.8086C45.5469 22.9528 48.7352 25.1945 50.2934 25.9224L63.3281 30.5515C62.7588 29.3869 61.5482 26.8832 61.2606 26.1844C60.9728 25.4857 60.6612 25.2528 60.5414 25.2236Z" fill="#F2F2F2"/>
<path d="M78.1577 13.1707L103.238 4C103.454 7.84296 100.511 9.85178 99.0133 10.3758C95.2676 11.6568 86.9674 14.5507 83.7311 15.8782C80.4949 17.2058 78.3674 20.4491 77.7082 21.9046L71.5054 34.8311C71.8949 30.6679 72.6022 21.6078 73.0336 18.6731C73.4651 15.7385 76.6294 13.7821 78.1577 13.1707Z" fill="#F2F2F2"/>
<path d="M84.1806 17.0137L99.3728 11.5112C98.0784 15.8433 95.3575 17.858 94.1589 18.3238L78.1577 24.1756C78.8768 20.6121 82.4726 17.9162 84.1806 17.0137Z" fill="#F2F2F2"/>
<path d="M77.7087 25.2236L92.9908 19.8086C92.703 22.9528 89.5148 25.1945 87.9567 25.9224L74.9219 30.5515C75.4912 29.3869 76.7018 26.8832 76.9894 26.1844C77.2772 25.4857 77.5888 25.2528 77.7087 25.2236Z" fill="#F2F2F2"/>
<path d="M68.8029 11.9053L68.4631 13.0582V46.5124L68.8029 46.851L84.3528 37.6718L68.8029 11.9053Z" fill="#19A670"/>
<path d="M68.8026 11.9053L53.2527 37.6719L68.8026 46.8512V30.6134V11.9053Z" fill="#18DAA3"/>
<path d="M68.8037 49.7918L68.6123 50.0248V61.942L68.8037 62.5002L84.363 40.6172L68.8037 49.7918Z" fill="#1AA670"/>
<path d="M68.8041 62.4999V49.7913L53.2542 40.6167L68.8041 62.4999Z" fill="#18DAA3"/>
<path d="M68.8027 46.8512L84.3525 37.6721L68.8027 30.6138V46.8512Z" fill="#137B54"/>
<path d="M53.2542 37.6716L68.8038 46.8508V30.6133L53.2542 37.6716Z" fill="#147B55"/>
</svg>
