<svg width="215" height="79" viewBox="0 0 215 79" fill="none" xmlns="http://www.w3.org/2000/svg">
<path fill-rule="evenodd" clip-rule="evenodd" d="M33.4997 0.916992L66.9135 20.2084V58.7913L33.4997 78.0828L0.0859375 58.7913V20.2084L33.4997 0.916992ZM14.0859 28.2913V50.7084L33.4997 61.917L52.9135 50.7084V28.2913L33.4997 17.0828L14.0859 28.2913Z" fill="white"/>
<path d="M103.628 50.4348C100.825 50.4348 98.4176 49.4681 96.4069 47.5348C94.4156 45.6014 93.4199 42.9914 93.4199 39.7048C93.4199 37.5008 93.9226 35.5674 94.9279 33.9048C95.9333 32.2421 97.1996 31.0144 98.7269 30.2218C100.254 29.4098 101.888 29.0038 103.628 29.0038C105.948 29.0038 107.901 29.5934 109.486 30.7728C111.091 31.9328 112.154 33.5181 112.676 35.5288L110.037 36.4568C109.65 34.9101 108.906 33.7211 107.804 32.8898C106.702 32.0391 105.31 31.6138 103.628 31.6138C101.617 31.6138 99.8966 32.3291 98.4659 33.7598C97.0353 35.1711 96.3199 37.1528 96.3199 39.7048C96.3199 42.2568 97.0353 44.2481 98.4659 45.6788C99.8966 47.1094 101.617 47.8248 103.628 47.8248C105.31 47.8248 106.712 47.3801 107.833 46.4908C108.954 45.5821 109.737 44.3834 110.182 42.8948L112.705 43.8228C112.144 45.8141 111.062 47.4188 109.457 48.6368C107.872 49.8354 105.929 50.4348 103.628 50.4348Z" fill="white"/>
<path d="M118.628 41.7928V49.9998H115.902V29.0038H118.628V37.6748C119.556 36.3214 120.967 35.6448 122.862 35.6448C124.466 35.6448 125.694 36.1571 126.545 37.1818C127.415 38.2064 127.85 39.5308 127.85 41.1548V49.9998H125.124V41.6188C125.124 39.2794 124.041 38.1098 121.876 38.1098C120.87 38.1098 120.087 38.4578 119.527 39.1538C118.966 39.8304 118.666 40.7101 118.628 41.7928Z" fill="white"/>
<path d="M131.316 46.2588C131.316 45.0601 131.703 44.1031 132.476 43.3878C133.249 42.6531 134.274 42.1988 135.55 42.0248L139.32 41.4738C140.035 41.3771 140.393 41.0291 140.393 40.4298C140.393 39.6951 140.142 39.0958 139.639 38.6318C139.136 38.1678 138.382 37.9358 137.377 37.9358C136.449 37.9358 135.714 38.1968 135.173 38.7188C134.632 39.2214 134.313 39.8981 134.216 40.7488L131.606 40.1398C131.741 38.8058 132.35 37.7231 133.433 36.8918C134.516 36.0411 135.811 35.6158 137.319 35.6158C139.291 35.6158 140.751 36.0991 141.698 37.0658C142.645 38.0131 143.119 39.2311 143.119 40.7198V47.7088C143.119 48.5401 143.177 49.3038 143.293 49.9998H140.625C140.528 49.4198 140.48 48.7914 140.48 48.1148C140.093 48.7334 139.523 49.2748 138.769 49.7388C138.034 50.2028 137.106 50.4348 135.985 50.4348C134.612 50.4348 133.491 50.0288 132.621 49.2168C131.751 48.3854 131.316 47.3994 131.316 46.2588ZM136.362 48.1438C137.58 48.1438 138.556 47.8151 139.291 47.1578C140.026 46.5004 140.393 45.4564 140.393 44.0258V43.3878L136.13 44.0258C135.511 44.1224 135.018 44.3448 134.651 44.6928C134.284 45.0408 134.1 45.5144 134.1 46.1138C134.1 46.6551 134.303 47.1288 134.709 47.5348C135.134 47.9408 135.685 48.1438 136.362 48.1438Z" fill="white"/>
<path d="M150.063 49.9998H147.366V36.0508H150.063V49.9998ZM147.308 32.1648C146.94 31.7781 146.757 31.3141 146.757 30.7728C146.757 30.2314 146.94 29.7674 147.308 29.3808C147.694 28.9941 148.158 28.8008 148.7 28.8008C149.241 28.8008 149.705 28.9941 150.092 29.3808C150.478 29.7481 150.672 30.2121 150.672 30.7728C150.672 31.3141 150.478 31.7781 150.092 32.1648C149.705 32.5321 149.241 32.7158 148.7 32.7158C148.158 32.7158 147.694 32.5321 147.308 32.1648Z" fill="white"/>
<path d="M157.427 41.9378V49.9998H154.701V36.0508H157.369V38.0518C158.297 36.4471 159.727 35.6448 161.661 35.6448C163.265 35.6448 164.493 36.1571 165.344 37.1818C166.214 38.2064 166.649 39.5308 166.649 41.1548V49.9998H163.923V41.6188C163.923 39.2794 162.84 38.1098 160.675 38.1098C159.65 38.1098 158.848 38.4771 158.268 39.2118C157.707 39.9271 157.427 40.8358 157.427 41.9378Z" fill="white"/>
<path d="M173.711 49.9998H170.985V29.0038H173.711V49.9998Z" fill="white"/>
<path d="M181.045 49.9998H178.348V36.0508H181.045V49.9998ZM178.29 32.1648C177.923 31.7781 177.739 31.3141 177.739 30.7728C177.739 30.2314 177.923 29.7674 178.29 29.3808C178.677 28.9941 179.141 28.8008 179.682 28.8008C180.223 28.8008 180.687 28.9941 181.074 29.3808C181.461 29.7481 181.654 30.2121 181.654 30.7728C181.654 31.3141 181.461 31.7781 181.074 32.1648C180.687 32.5321 180.223 32.7158 179.682 32.7158C179.141 32.7158 178.677 32.5321 178.29 32.1648Z" fill="white"/>
<path d="M188.409 41.9378V49.9998H185.683V36.0508H188.351V38.0518C189.279 36.4471 190.71 35.6448 192.643 35.6448C194.248 35.6448 195.475 36.1571 196.326 37.1818C197.196 38.2064 197.631 39.5308 197.631 41.1548V49.9998H194.905V41.6188C194.905 39.2794 193.822 38.1098 191.657 38.1098C190.632 38.1098 189.83 38.4771 189.25 39.2118C188.689 39.9271 188.409 40.8358 188.409 41.9378Z" fill="white"/>
<path d="M214.466 36.0508L208.521 41.9378L214.582 49.9998H211.16L206.607 43.8518L204.664 45.7948V49.9998H201.967V29.0038H204.664V42.2278L210.696 36.0508H214.466Z" fill="white"/>
</svg>
