<svg width="252" height="66" viewBox="0 0 252 66" fill="none" xmlns="http://www.w3.org/2000/svg">
    <path d="M20.2492 18.6383C13.2342 26.8118 13.2342 38.9255 20.2492 47.0989L28.9199 38.4398C26.5823 35.1046 26.5823 30.6326 28.9199 27.2975L20.2492 18.6383Z" fill="#3DAF71"/>
    <path d="M31.3312 24.8894L22.6605 16.2303C30.8448 9.22453 42.9747 9.22453 51.159 16.2303L42.4883 24.8894C39.1487 22.5549 34.6708 22.5549 31.3312 24.8894Z" fill="#3DAF71"/>
    <path d="M44.8996 38.4398C47.2372 35.1046 47.2372 30.6326 44.8996 27.2975L53.5703 18.6383C60.5853 26.8118 60.5853 38.9255 53.5703 47.0989L44.8996 38.4398Z" fill="#3DAF71"/>
    <path d="M31.3312 40.8478C34.6708 43.1823 39.1487 43.1823 42.4883 40.8478L51.159 49.507C42.9747 56.5127 30.8448 56.5127 22.6605 49.507L31.3312 40.8478Z" fill="#3DAF71"/>
    <path d="M78 22.2835H87.7584C90.0187 22.2835 92.0235 22.7066 93.7727 23.5528C95.522 24.3991 96.8781 25.5996 97.8412 27.1543C98.8043 28.709 99.2858 30.5295 99.2858 32.6156C99.2858 34.7017 98.8043 36.5221 97.8412 38.0768C96.8781 39.6316 95.522 40.832 93.7727 41.6783C92.0235 42.5245 90.0187 42.9477 87.7584 42.9477H78V22.2835ZM87.5226 38.2835C89.2915 38.2835 90.7066 37.7816 91.768 36.7779C92.849 35.7742 93.3894 34.3868 93.3894 32.6156C93.3894 30.8443 92.849 29.4569 91.768 28.4532C90.7066 27.4495 89.2915 26.9477 87.5226 26.9477H83.8374V38.2835H87.5226Z" fill="black"/>
    <path d="M118.424 34.9772C118.424 35.0165 118.395 35.479 118.336 36.3646H106.72C106.956 37.1912 107.408 37.8308 108.076 38.2835C108.764 38.7164 109.619 38.9329 110.641 38.9329C111.408 38.9329 112.066 38.8247 112.617 38.6082C113.187 38.3917 113.757 38.0375 114.327 37.5455L117.275 40.6156C115.722 42.3474 113.452 43.2133 110.464 43.2133C108.597 43.2133 106.956 42.8591 105.541 42.1506C104.126 41.4421 103.025 40.4581 102.239 39.1986C101.473 37.9391 101.089 36.5122 101.089 34.9181C101.089 33.3437 101.463 31.9366 102.21 30.6967C102.976 29.4372 104.028 28.4532 105.364 27.7447C106.701 27.0362 108.204 26.682 109.875 26.682C111.467 26.682 112.911 27.0165 114.209 27.6857C115.506 28.3351 116.528 29.2896 117.275 30.5491C118.041 31.789 118.424 33.265 118.424 34.9772ZM109.904 30.6672C109.039 30.6672 108.312 30.9132 107.723 31.4052C107.153 31.8972 106.789 32.5664 106.632 33.4126H113.177C113.02 32.5664 112.646 31.8972 112.056 31.4052C111.486 30.9132 110.769 30.6672 109.904 30.6672Z" fill="black"/>
    <path d="M127.11 26.8001V31.3462H136.22V35.8628H127.11V42.9477H121.272V22.2835H137.458V26.8001H127.11Z" fill="black"/>
    <path d="M139.635 26.9477H145.236V42.9477H139.635V26.9477ZM142.435 25.1764C141.413 25.1764 140.588 24.8911 139.959 24.3204C139.33 23.7496 139.016 23.0411 139.016 22.1949C139.016 21.3486 139.33 20.6402 139.959 20.0694C140.588 19.4987 141.413 19.2133 142.435 19.2133C143.458 19.2133 144.283 19.4889 144.912 20.0399C145.541 20.5713 145.855 21.2601 145.855 22.1063C145.855 22.9919 145.541 23.73 144.912 24.3204C144.283 24.8911 143.458 25.1764 142.435 25.1764Z" fill="black"/>
    <path d="M163.294 43.1838C161.741 43.1838 160.237 42.9477 158.783 42.4753C157.348 41.9833 156.218 41.3536 155.392 40.586L156.483 38.2835C157.269 38.9919 158.272 39.5725 159.49 40.0252C160.729 40.4581 161.996 40.6746 163.294 40.6746C165.004 40.6746 166.281 40.3892 167.126 39.8185C167.971 39.2281 168.394 38.4507 168.394 37.4864C168.394 36.7779 168.158 36.2072 167.686 35.7742C167.234 35.3216 166.664 34.9772 165.976 34.741C165.308 34.5049 164.355 34.2392 163.117 33.944C161.564 33.5701 160.306 33.1961 159.343 32.8222C158.4 32.4483 157.584 31.8776 156.896 31.11C156.228 30.3228 155.894 29.2699 155.894 27.9514C155.894 26.8493 156.179 25.8554 156.749 24.9698C157.338 24.0842 158.223 23.3757 159.402 22.8443C160.581 22.313 162.046 22.0473 163.795 22.0473C165.013 22.0473 166.212 22.2047 167.392 22.5196C168.571 22.8345 169.583 23.2871 170.428 23.8776L169.455 26.2392C168.59 25.6881 167.667 25.2748 166.684 24.9993C165.701 24.7041 164.738 24.5565 163.795 24.5565C162.124 24.5565 160.866 24.8616 160.021 25.4717C159.196 26.0817 158.783 26.8689 158.783 27.8333C158.783 28.5418 159.019 29.1223 159.49 29.575C159.962 30.0079 160.542 30.3523 161.23 30.6082C161.937 30.8443 162.891 31.1002 164.09 31.3757C165.642 31.7496 166.89 32.1236 167.834 32.4975C168.777 32.8714 169.583 33.4421 170.251 34.2097C170.939 34.9772 171.283 36.0104 171.283 37.3093C171.283 38.3917 170.988 39.3855 170.399 40.2908C169.809 41.1764 168.915 41.8849 167.716 42.4163C166.517 42.928 165.043 43.1838 163.294 43.1838Z" fill="black"/>
    <path d="M180.867 27.1543C183.029 27.1543 184.68 27.6857 185.82 28.7484C186.98 29.8111 187.56 31.3954 187.56 33.5012V42.9477H184.877V40.8812C184.405 41.6094 183.727 42.1703 182.843 42.5639C181.978 42.9378 180.946 43.1248 179.747 43.1248C177.998 43.1248 176.593 42.7017 175.531 41.8554C174.49 41.0092 173.969 39.8972 173.969 38.5196C173.969 37.142 174.47 36.0399 175.472 35.2133C176.475 34.3671 178.067 33.944 180.248 33.944H184.73V33.3831C184.73 32.1629 184.376 31.2281 183.668 30.5787C182.961 29.9292 181.919 29.6045 180.543 29.6045C179.619 29.6045 178.715 29.7619 177.831 30.0768C176.946 30.372 176.199 30.7755 175.59 31.2871L174.411 29.1617C175.217 28.5122 176.18 28.0202 177.3 27.6857C178.42 27.3314 179.61 27.1543 180.867 27.1543ZM180.219 40.9403C181.3 40.9403 182.233 40.7041 183.02 40.2318C183.806 39.7398 184.376 39.051 184.73 38.1654V35.9809H180.366C177.968 35.9809 176.769 36.7878 176.769 38.4015C176.769 39.1887 177.074 39.8087 177.683 40.2613C178.293 40.714 179.138 40.9403 180.219 40.9403Z" fill="black"/>
    <path d="M206.336 27.3019L199.497 42.9477H196.607L189.768 27.3019H192.716L198.082 39.848L203.565 27.3019H206.336Z" fill="black"/>
    <path d="M222.668 35.2133C222.668 35.4298 222.648 35.7152 222.609 36.0694H209.932C210.108 37.4471 210.708 38.559 211.73 39.4052C212.772 40.2318 214.059 40.6451 215.592 40.6451C217.459 40.6451 218.963 40.0153 220.103 38.7558L221.665 40.586C220.958 41.4126 220.073 42.0424 219.012 42.4753C217.97 42.9083 216.801 43.1248 215.504 43.1248C213.853 43.1248 212.388 42.7902 211.111 42.1211C209.833 41.4323 208.841 40.4778 208.133 39.2576C207.445 38.0375 207.101 36.6598 207.101 35.1248C207.101 33.6094 207.435 32.2416 208.104 31.0215C208.792 29.8013 209.725 28.8566 210.904 28.1875C212.103 27.4987 213.45 27.1543 214.943 27.1543C216.437 27.1543 217.764 27.4987 218.923 28.1875C220.103 28.8566 221.017 29.8013 221.665 31.0215C222.334 32.2416 222.668 33.6389 222.668 35.2133ZM214.943 29.5455C213.587 29.5455 212.447 29.9587 211.524 30.7853C210.619 31.6119 210.089 32.6943 209.932 34.0325H219.955C219.798 32.714 219.258 31.6414 218.334 30.8148C217.43 29.9686 216.3 29.5455 214.943 29.5455Z" fill="black"/>
    <path d="M229.31 29.9292C229.801 29.0239 230.529 28.3351 231.492 27.8628C232.455 27.3905 233.624 27.1543 235 27.1543V29.8997C234.843 29.88 234.627 29.8702 234.351 29.8702C232.818 29.8702 231.61 30.3327 230.725 31.2576C229.86 32.1629 229.428 33.4618 229.428 35.1543V42.9477H226.598V27.3019H229.31V29.9292Z" fill="black"/>
</svg>
