<svg width="252" height="66" viewBox="0 0 252 66" fill="none" xmlns="http://www.w3.org/2000/svg">
    <path fill-rule="evenodd" clip-rule="evenodd" d="M14 21.9061C14 17.5397 17.5115 14 21.8431 14H43.8038C48.1354 14 51.6469 17.5397 51.6469 21.9061V44.0433C51.6469 48.4097 48.1354 51.9494 43.8038 51.9494H21.8431C17.5115 51.9494 14 48.4097 14 44.0433V21.9061ZM39.2245 21.6374L33.93 28.1605C33.1555 29.1146 33.1761 30.4925 33.9785 31.4227L34.6125 32.1577C35.1918 32.8292 36.2337 32.8061 36.783 32.1094L44.0361 22.9111C44.608 22.1858 44.0957 21.1155 43.1766 21.1155H40.3171C39.8936 21.1155 39.4926 21.3071 39.2245 21.6374ZM39.2245 44.1538L33.93 37.6308C33.1555 36.6767 33.1761 35.299 33.9785 34.3686L34.6125 33.6338C35.1918 32.9622 36.2337 32.9854 36.783 33.6821L44.0361 42.8802C44.608 43.6055 44.0957 44.6759 43.1766 44.6759H40.3171C39.8936 44.6759 39.4926 44.4843 39.2245 44.1538ZM26.4247 44.1538L31.7192 37.6308C32.4936 36.6767 32.4731 35.299 31.6706 34.3686L31.0366 33.6338C30.4573 32.9622 29.4155 32.9854 28.8662 33.6821L21.613 42.8802C21.0411 43.6055 21.5535 44.6759 22.4726 44.6759H25.3321C25.7555 44.6759 26.1566 44.4843 26.4247 44.1538ZM26.4247 21.6374L31.7192 28.1605C32.4936 29.1146 32.4731 30.4925 31.6706 31.4227L31.0366 32.1577C30.4573 32.8292 29.4155 32.8061 28.8662 32.1094L21.613 22.9111C21.0411 22.1858 21.5535 21.1155 22.4726 21.1155H25.3321C25.7555 21.1155 26.1566 21.3071 26.4247 21.6374Z" fill="black"/>
    <path d="M183.74 45.458C183.482 45.458 183.26 45.3753 183.072 45.2098C182.908 45.0444 182.826 44.8316 182.826 44.5717V21.1729C182.826 20.9129 182.908 20.7002 183.072 20.5347C183.26 20.3693 183.482 20.2865 183.74 20.2865H188.136C188.394 20.2865 188.605 20.3693 188.77 20.5347C188.934 20.7002 189.016 20.9129 189.016 21.1729V44.5717C189.016 44.808 188.934 45.0207 188.77 45.2098C188.605 45.3753 188.394 45.458 188.136 45.458H183.74Z" fill="black"/>
    <path fill-rule="evenodd" clip-rule="evenodd" d="M67.797 45.458C67.5625 45.458 67.3515 45.3753 67.1639 45.2098C66.9998 45.0207 66.9177 44.808 66.9177 44.5717V21.5628C66.9177 21.3029 66.9998 21.0901 67.1639 20.9247C67.328 20.7356 67.5391 20.6411 67.797 20.6411H77.0467C80.5168 20.6411 83.2132 21.4801 85.1358 23.1582C87.0585 24.8127 88.0667 27.1998 88.1605 30.3197C88.1839 31.0051 88.1956 31.915 88.1956 33.0495C88.1956 34.184 88.1839 35.0821 88.1605 35.7439C87.926 42.22 84.28 45.458 77.2226 45.458H67.797ZM77.0467 40.1401C78.5239 40.1401 79.6141 39.7855 80.3175 39.0765C81.0209 38.3674 81.3961 37.2329 81.443 35.673C81.4899 34.9876 81.5133 34.1013 81.5133 33.0141C81.5133 31.9269 81.4899 31.0524 81.443 30.3906C81.3961 28.8779 80.9858 27.7671 80.212 27.058C79.4617 26.3253 78.348 25.959 76.8709 25.959H73.5297V40.1401H77.0467Z" fill="black"/>
    <path fill-rule="evenodd" clip-rule="evenodd" d="M100.391 45.8125C97.5304 45.8125 95.2795 45.0444 93.6382 43.5081C91.9969 41.9482 91.1529 39.691 91.106 36.7366V35.6376C91.1997 32.825 92.0673 30.6269 93.7086 29.0434C95.3498 27.4598 97.5655 26.668 100.356 26.668C102.372 26.668 104.072 27.0816 105.455 27.9089C106.862 28.7125 107.906 29.8351 108.586 31.2769C109.289 32.695 109.641 34.314 109.641 36.1339V37.0202C109.641 37.2802 109.547 37.5048 109.359 37.6938C109.195 37.8593 108.984 37.942 108.726 37.942H97.5773V38.1547C97.6007 39.2183 97.8469 40.081 98.3158 40.7428C98.7848 41.3809 99.453 41.7 100.321 41.7C100.883 41.7 101.329 41.5936 101.657 41.3809C102.009 41.1446 102.337 40.8491 102.642 40.4946C102.853 40.2582 103.017 40.1164 103.134 40.0692C103.275 39.9983 103.486 39.9628 103.767 39.9628H108.374C108.586 39.9628 108.761 40.0337 108.902 40.1755C109.066 40.2937 109.148 40.4473 109.148 40.6364C109.148 41.2509 108.797 41.9718 108.093 42.799C107.413 43.6263 106.405 44.3353 105.068 44.9262C103.755 45.5171 102.196 45.8125 100.391 45.8125ZM103.169 34.3258V34.2549C103.169 33.1204 102.923 32.2459 102.431 31.6314C101.938 30.9933 101.247 30.6742 100.356 30.6742C99.4647 30.6742 98.7731 30.9933 98.2807 31.6314C97.8117 32.2459 97.5773 33.1204 97.5773 34.2549V34.3258H103.169Z" fill="black"/>
    <path d="M110.91 45.2453C111.074 45.3871 111.262 45.458 111.473 45.458H116.08C116.338 45.458 116.538 45.4107 116.678 45.3162C116.819 45.2216 116.96 45.0798 117.1 44.8907L120.547 40.211L123.958 44.8907C124.216 45.2689 124.545 45.458 124.943 45.458H129.691C129.926 45.458 130.113 45.3871 130.254 45.2453C130.418 45.0798 130.5 44.8789 130.5 44.6426C130.5 44.4535 130.441 44.2762 130.324 44.1108L124.38 35.9921L129.797 28.3698C129.937 28.1807 130.008 27.9916 130.008 27.8025C130.008 27.5898 129.926 27.4125 129.761 27.2707C129.597 27.1053 129.41 27.0226 129.199 27.0226H124.873C124.685 27.0226 124.509 27.0698 124.345 27.1644C124.205 27.2353 124.087 27.3298 123.994 27.448C123.9 27.5662 123.841 27.6371 123.818 27.6607L120.688 32.0214L117.593 27.6607C117.452 27.4716 117.311 27.318 117.171 27.1998C117.03 27.0816 116.819 27.0226 116.538 27.0226H112.001C111.79 27.0226 111.602 27.1053 111.438 27.2707C111.274 27.4125 111.192 27.6016 111.192 27.838C111.192 28.0034 111.262 28.1807 111.403 28.3698L116.713 35.9921L110.875 44.1108C110.734 44.2762 110.664 44.4535 110.664 44.6426C110.664 44.8789 110.746 45.0798 110.91 45.2453Z" fill="black"/>
    <path d="M138.159 45.458C137.831 45.458 137.573 45.3871 137.385 45.2453C137.221 45.0798 137.092 44.8553 136.999 44.5717L131.934 28.157L131.864 27.838C131.864 27.6016 131.946 27.4125 132.11 27.2707C132.274 27.1053 132.462 27.0226 132.673 27.0226H136.506C136.788 27.0226 137.022 27.1053 137.21 27.2707C137.397 27.4125 137.514 27.578 137.561 27.7671L140.445 37.5875L143.505 27.838C143.552 27.6253 143.669 27.4362 143.857 27.2707C144.044 27.1053 144.291 27.0226 144.595 27.0226H147.022C147.327 27.0226 147.573 27.1053 147.761 27.2707C147.948 27.4362 148.077 27.6253 148.147 27.838L151.207 37.5875L154.056 27.7671C154.126 27.578 154.244 27.4125 154.408 27.2707C154.595 27.1053 154.83 27.0226 155.111 27.0226H158.945C159.179 27.0226 159.367 27.1053 159.507 27.2707C159.672 27.4125 159.754 27.6016 159.754 27.838C159.754 27.9561 159.742 28.0625 159.718 28.157L154.619 44.5717C154.455 45.1625 154.08 45.458 153.493 45.458H150.152C149.566 45.458 149.167 45.1625 148.956 44.5717L145.826 35.1412L142.661 44.5717C142.497 45.1625 142.11 45.458 141.5 45.458H138.159Z" fill="black"/>
    <path fill-rule="evenodd" clip-rule="evenodd" d="M164.088 45.1035C165.12 45.5762 166.257 45.8125 167.5 45.8125C168.766 45.8125 169.856 45.588 170.77 45.1389C171.685 44.6662 172.4 44.0635 172.916 43.3308V44.5717C172.916 44.808 172.998 45.0207 173.162 45.2098C173.35 45.3753 173.561 45.458 173.795 45.458H178.121C178.379 45.458 178.59 45.3753 178.754 45.2098C178.918 45.0207 179 44.808 179 44.5717V33.8295C179 31.6314 178.297 29.8942 176.89 28.6179C175.483 27.318 173.326 26.668 170.419 26.668C168.59 26.668 167.054 26.9517 165.811 27.5189C164.569 28.0861 163.643 28.7716 163.033 29.5752C162.423 30.3551 162.107 31.0642 162.083 31.7023C162.06 31.915 162.119 32.1041 162.259 32.2696C162.423 32.4114 162.623 32.4823 162.857 32.4823H166.937C167.078 32.4823 167.195 32.3996 167.289 32.2341C167.523 32.1159 167.793 31.9269 168.097 31.6669C168.496 31.336 168.848 31.0878 169.153 30.9224C169.481 30.7569 169.879 30.6742 170.348 30.6742C171.192 30.6742 171.79 30.8751 172.142 31.2769C172.494 31.6787 172.67 32.3168 172.67 33.1913V33.6168L168.308 34.2904C165.987 34.6685 164.158 35.3658 162.822 36.3821C161.509 37.3748 160.852 38.6747 160.852 40.2819C160.852 41.2982 161.134 42.2318 161.697 43.0826C162.283 43.9335 163.08 44.6071 164.088 45.1035ZM171.755 40.601C171.122 41.2864 170.29 41.6291 169.258 41.6291C168.578 41.6291 168.004 41.4636 167.535 41.1327C167.089 40.8019 166.867 40.3646 166.867 39.821C166.867 38.781 167.851 38.072 169.821 37.6938L172.74 37.1975V37.6229C172.74 38.9229 172.412 39.9155 171.755 40.601Z" fill="black"/>
    <path d="M193.273 45.2098C193.46 45.3753 193.683 45.458 193.941 45.458H198.337C198.595 45.458 198.806 45.3753 198.97 45.2098C199.134 45.0207 199.216 44.808 199.216 44.5717V21.1729C199.216 20.9129 199.134 20.7002 198.97 20.5347C198.806 20.3693 198.595 20.2865 198.337 20.2865H193.941C193.683 20.2865 193.46 20.3693 193.273 20.5347C193.109 20.7002 193.026 20.9129 193.026 21.1729V44.5717C193.026 44.8316 193.109 45.0444 193.273 45.2098Z" fill="black"/>
    <path fill-rule="evenodd" clip-rule="evenodd" d="M211.809 45.8125C208.948 45.8125 206.697 45.0444 205.056 43.5081C203.415 41.9482 202.571 39.691 202.524 36.7366V35.6376C202.618 32.825 203.485 30.6269 205.126 29.0434C206.768 27.4598 208.983 26.668 211.774 26.668C213.79 26.668 215.49 27.0816 216.873 27.9089C218.28 28.7125 219.323 29.8351 220.003 31.2769C220.707 32.695 221.058 34.314 221.058 36.1339V37.0202C221.058 37.2802 220.965 37.5048 220.777 37.6938C220.613 37.8593 220.402 37.942 220.144 37.942H208.995V38.1547C209.019 39.2183 209.265 40.081 209.734 40.7428C210.203 41.3809 210.871 41.7 211.738 41.7C212.301 41.7 212.747 41.5936 213.075 41.3809C213.427 41.1446 213.755 40.8491 214.06 40.4946C214.271 40.2582 214.435 40.1164 214.552 40.0692C214.693 39.9983 214.904 39.9628 215.185 39.9628H219.792C220.003 39.9628 220.179 40.0337 220.32 40.1755C220.484 40.2937 220.566 40.4473 220.566 40.6364C220.566 41.2509 220.214 41.9718 219.511 42.799C218.831 43.6263 217.823 44.3353 216.486 44.9262C215.173 45.5171 213.614 45.8125 211.809 45.8125ZM214.587 34.2549C214.587 33.1204 214.341 32.2459 213.849 31.6314C213.356 30.9933 212.665 30.6742 211.774 30.6742C210.883 30.6742 210.191 30.9933 209.698 31.6314C209.23 32.2459 208.995 33.1204 208.995 34.2549V34.3258H214.587V34.2549Z" fill="black"/>
    <path d="M226.324 38.4029C226.324 43.1063 228.809 45.458 233.78 45.458H237.121C237.379 45.458 237.59 45.3753 237.754 45.2098C237.918 45.0207 238 44.808 238 44.5717V41.31C238 41.05 237.918 40.8373 237.754 40.6719C237.59 40.4828 237.379 40.3882 237.121 40.3882H234.342C233.662 40.3882 233.17 40.1755 232.865 39.7501C232.56 39.3247 232.408 38.6983 232.408 37.8711V31.8441H236.804C237.062 31.8441 237.273 31.7614 237.437 31.596C237.625 31.4305 237.719 31.2178 237.719 30.9578V27.9089C237.719 27.6489 237.625 27.4362 237.437 27.2707C237.273 27.1053 237.062 27.0226 236.804 27.0226H232.408V21.1729C232.408 20.9129 232.326 20.7002 232.162 20.5347C231.998 20.3693 231.787 20.2865 231.529 20.2865H227.203C226.968 20.2865 226.757 20.3693 226.57 20.5347C226.406 20.7002 226.324 20.9129 226.324 21.1729V27.0226H223.545C223.311 27.0226 223.1 27.1053 222.912 27.2707C222.748 27.4362 222.666 27.6489 222.666 27.9089V30.9578C222.666 31.1942 222.748 31.4069 222.912 31.596C223.1 31.7614 223.311 31.8441 223.545 31.8441H226.324V38.4029Z" fill="black"/>
</svg>