<svg width="50" height="50" viewBox="0 0 50 50" fill="none" xmlns="http://www.w3.org/2000/svg">
<circle cx="25" cy="25" r="25" fill="#003CDA"/>
<path fill-rule="evenodd" clip-rule="evenodd" d="M30.4452 33.8786C31.2158 34.8738 32.1404 36 32.1404 36C37.8168 35.8167 40 32.0191 40 32.0191C40 23.5858 36.3014 16.7502 36.3014 16.7502C32.6027 13.9216 29.0839 14.0002 29.0839 14.0002L28.7243 14.4193C33.0908 15.7812 35.1199 17.7454 35.1199 17.7454C32.4486 16.2526 29.8288 15.5193 27.3887 15.2312C25.5394 15.0216 23.7671 15.074 22.2003 15.2835C22.0658 15.2835 21.9509 15.3035 21.8213 15.326C21.8024 15.3293 21.7833 15.3326 21.7637 15.3359C20.8647 15.4145 18.6815 15.755 15.9332 16.9859C14.9829 17.4311 14.4178 17.7454 14.4178 17.7454C14.4178 17.7454 16.5497 15.6764 21.1729 14.3145L20.9161 14.0002C20.9161 14.0002 17.3973 13.9216 13.6986 16.7502C13.6986 16.7502 10 23.5858 10 32.0191C10 32.0191 12.1575 35.8167 17.8339 36C17.8339 36 18.7842 34.8214 19.5548 33.8262C16.2928 32.831 15.0599 30.7358 15.0599 30.7358C15.2927 30.8955 15.5327 31.0441 15.7791 31.181C15.8084 31.2134 15.8432 31.24 15.8818 31.2596C15.9204 31.2858 15.9589 31.3054 15.9974 31.325C16.036 31.3447 16.0745 31.3643 16.113 31.3905C16.7173 31.7308 17.3437 32.0284 17.988 32.281C19.2103 32.7729 20.4741 33.1499 21.7637 33.4072C23.6901 33.7738 25.9503 33.9048 28.4161 33.4334C29.6233 33.2238 30.8562 32.8572 32.1404 32.3072C33.1791 31.9075 34.17 31.3891 35.0942 30.762C35.0942 30.762 33.8099 32.9096 30.4452 33.8786ZM18 25.5C18 23.5766 19.1863 22 20.6889 22C22.1916 22 23.4042 23.5766 23.3779 25.5C23.3779 27.4234 22.1916 29 20.6889 29C19.2127 29 18 27.4234 18 25.5ZM27.6221 25.5C27.6221 23.5766 28.8084 22 30.3111 22C31.8137 22 33 23.5766 33 25.5C33 27.4234 31.8137 29 30.3111 29C28.8348 29 27.6221 27.4234 27.6221 25.5Z" fill="white"/>
</svg>
