<svg width="252" height="66" viewBox="0 0 252 66" fill="none" xmlns="http://www.w3.org/2000/svg">
<path fill-rule="evenodd" clip-rule="evenodd" d="M151.755 10.064V25.3739L151.751 25.3507C150.169 24.7707 148.5 24.4615 146.815 24.4361C144.86 24.4251 142.936 24.9206 141.229 25.8743C139.536 26.8037 138.131 28.179 137.165 29.8509C136.175 31.5535 135.665 33.4922 135.689 35.4612C135.689 38.9341 136.747 42.0988 138.865 44.107C140.976 46.1173 143.799 47.1225 147.336 47.1225H157.543V10.064H151.755ZM151.755 42.7383H148.708C144.001 42.7383 141.644 39.9746 141.644 35.2822C141.644 33.3337 142.223 31.7596 143.381 30.56C144.539 29.3604 146.086 28.7606 148.022 28.7606C149.321 28.7628 150.601 29.0753 151.755 29.6719V42.7383Z" fill="#1C3745"/>
<path fill-rule="evenodd" clip-rule="evenodd" d="M117.877 36.906V36.1869C117.912 34.4516 117.643 32.7236 117.085 31.0803C116.619 29.7246 115.872 28.4824 114.893 27.4351C113.966 26.4632 112.833 25.7104 111.578 25.2314C110.245 24.7303 108.831 24.4808 107.408 24.4957C105.856 24.4824 104.315 24.7646 102.869 25.3275C101.503 25.8508 100.26 26.6509 99.2186 27.6774C98.1768 28.7039 97.3587 29.9347 96.8156 31.2924C96.2138 32.8 95.9153 34.4114 95.9371 36.0345C95.9092 37.6591 96.208 39.2728 96.8156 40.7799C97.3641 42.1178 98.1966 43.3208 99.2556 44.3058C100.323 45.2842 101.573 46.0411 102.935 46.5327C104.423 47.0683 105.995 47.3343 107.577 47.3181C111.641 47.3181 114.743 45.8821 116.882 43.0101L113.256 40.1436C112.664 41.0013 111.874 41.7028 110.951 42.1883C109.886 42.7122 108.708 42.967 107.52 42.9306C106.748 42.9324 105.983 42.7955 105.259 42.5263C104.557 42.2675 103.901 41.8947 103.32 41.4228C102.742 40.963 102.267 40.3878 101.924 39.7338C101.582 39.0799 101.38 38.3616 101.331 37.6251H117.834C117.861 37.3864 117.876 37.1463 117.877 36.906ZM112.148 31.7629C112.346 32.407 112.444 33.0775 112.44 33.7512L101.331 33.7413C101.372 33.0208 101.559 32.3161 101.882 31.6705C102.204 31.0249 102.655 30.452 103.207 29.9867C104.356 29.005 105.828 28.4842 107.338 28.5253C108.12 28.5081 108.896 28.6537 109.619 28.9528C110.222 29.2045 110.762 29.5873 111.2 30.0733C111.637 30.5593 111.961 31.1364 112.148 31.7629Z" fill="#1C3745"/>
<path fill-rule="evenodd" clip-rule="evenodd" d="M175.23 24.5951C177.394 24.566 179.534 25.057 181.469 26.0267C183.274 26.9117 184.784 28.2996 185.818 30.0232C186.851 31.7913 187.381 33.8082 187.35 35.8555C187.398 37.9393 186.89 39.9983 185.878 41.8204C184.859 43.5583 183.352 44.9593 181.545 45.8501C179.59 46.8447 177.423 47.3507 175.23 47.3247C173.052 47.355 170.901 46.8473 168.967 45.8467C167.17 44.9504 165.672 43.5502 164.657 41.8171C163.645 39.995 163.137 37.936 163.186 35.8522C163.147 33.7884 163.686 31.7549 164.74 29.9801C165.778 28.2716 167.279 26.8925 169.07 26.0035C170.987 25.0438 173.106 24.5585 175.249 24.5885L175.23 24.5951ZM169.262 35.8589C169.263 38.0445 169.8 39.7897 170.873 41.0947C171.398 41.7367 172.064 42.2484 172.82 42.5894C173.576 42.9304 174.401 43.0914 175.23 43.0598C177.113 43.0598 178.571 42.4335 179.655 41.1842C180.739 39.9349 181.28 38.1454 181.28 35.8158C181.28 33.6066 180.734 31.8911 179.642 30.6694C178.55 29.4477 177.072 28.8424 175.206 28.8534C174.393 28.8282 173.584 28.9881 172.842 29.3211C172.099 29.654 171.442 30.1513 170.92 30.7754C169.815 32.0583 169.263 33.7528 169.262 35.8589Z" fill="#1C3745"/>
<path fill-rule="evenodd" clip-rule="evenodd" d="M203.891 24.5883C206.05 24.5617 208.184 25.0526 210.115 26.0201C211.925 26.9043 213.44 28.295 214.474 30.0232C215.507 31.7913 216.037 33.8082 216.006 35.8555C216.055 37.9393 215.546 39.9983 214.534 41.8204C213.516 43.558 212.011 44.9591 210.204 45.85C208.235 46.8465 206.053 47.3535 203.846 47.328C201.68 47.3583 199.541 46.8504 197.62 45.85C195.822 44.9537 194.325 43.5535 193.31 41.8204C192.298 39.9983 191.79 37.9393 191.838 35.8555C191.802 33.7919 192.34 31.7588 193.393 29.9834C194.432 28.2747 195.934 26.8958 197.726 26.0068C199.638 25.0473 201.752 24.5609 203.891 24.5883ZM199.539 41.0947C198.463 39.789 197.925 38.0427 197.925 35.8555H197.908C197.908 33.7479 198.461 32.0524 199.566 30.7688C200.088 30.1451 200.744 29.6481 201.486 29.3151C202.228 28.9822 203.036 28.822 203.849 28.8468C205.719 28.8357 207.199 29.4411 208.288 30.6628C209.378 31.8845 209.923 33.5999 209.923 35.8091C209.923 38.1376 209.381 39.9271 208.298 41.1775C207.215 42.428 205.732 43.0532 203.849 43.0532C203.028 43.0826 202.212 42.9211 201.464 42.5812C200.716 42.2413 200.057 41.7325 199.539 41.0947Z" fill="#1C3745"/>
<path d="M124.424 20.7146C124.74 21.0366 125.118 21.2908 125.535 21.4618C125.952 21.6327 126.4 21.7168 126.851 21.7088C127.295 21.7132 127.734 21.6273 128.144 21.4564C128.553 21.2854 128.923 21.0331 129.231 20.7146L129.265 20.6749C129.575 20.369 129.82 20.0034 129.986 19.6002C130.151 19.1969 130.233 18.7644 130.226 18.3287C130.225 17.656 130.026 16.9985 129.653 16.4386C129.28 15.8787 128.75 15.4412 128.13 15.1811C127.509 14.921 126.825 14.8498 126.165 14.9765C125.504 15.1031 124.895 15.422 124.414 15.893C124.095 16.1963 123.841 16.5626 123.67 16.9687C123.499 17.3747 123.414 17.8119 123.42 18.2525C123.411 18.7043 123.495 19.1531 123.666 19.5714C123.837 19.9897 124.092 20.3686 124.414 20.6848L124.424 20.7146Z" fill="#1C3745"/>
<path d="M123.993 47.2286V25.1518C124.85 24.6986 125.809 24.4706 126.778 24.4891C127.734 24.4729 128.681 24.6675 129.553 25.059V47.2286H123.993Z" fill="#1C3745"/>
<path d="M58.6413 10.4517L63.7467 15.5517C63.8971 15.7026 63.9815 15.907 63.9815 16.12C63.9815 16.333 63.8971 16.5374 63.7467 16.6883L58.1805 22.2688C58.0301 22.419 57.8262 22.5033 57.6136 22.5033C57.401 22.5033 57.1971 22.419 57.0467 22.2688L51.4441 16.6353C51.2938 16.4849 51.2095 16.2811 51.2095 16.0686C51.2095 15.8561 51.2938 15.6523 51.4441 15.502L56.5163 10.4318C56.6568 10.2931 56.8234 10.1836 57.0065 10.1095C57.1895 10.0354 57.3854 9.99822 57.5829 10.0001C57.7804 10.0019 57.9756 10.0428 58.1572 10.1203C58.3388 10.1978 58.5034 10.3104 58.6413 10.4517Z" fill="#12B29F"/>
<path d="M58.2036 43.017L63.8062 48.6174C63.9564 48.7678 64.0408 48.9716 64.0408 49.1841C64.0408 49.3966 63.9564 49.6004 63.8062 49.7507L58.734 54.8209C58.5945 54.9605 58.4289 55.0712 58.2466 55.1468C58.0643 55.2223 57.8689 55.2612 57.6715 55.2612C57.4741 55.2612 57.2787 55.2223 57.0964 55.1468C56.9141 55.0712 56.7485 54.9605 56.609 54.8209L51.5036 49.7176C51.3534 49.5672 51.269 49.3634 51.269 49.1509C51.269 48.9384 51.3534 48.7346 51.5036 48.5843L57.0764 43.0137C57.227 42.866 57.4297 42.7836 57.6407 42.7842C57.8517 42.7848 58.0539 42.8685 58.2036 43.017Z" fill="#12B29F"/>
<path d="M58.2039 26.5203L63.8065 32.1174C63.957 32.2683 64.0414 32.4727 64.0414 32.6857C64.0414 32.8988 63.957 33.1031 63.8065 33.254L58.2503 38.818C58.0999 38.9681 57.896 39.0525 57.6834 39.0525C57.4708 39.0525 57.2669 38.9681 57.1165 38.818L51.5139 33.2043C51.3637 33.054 51.2793 32.8502 51.2793 32.6377C51.2793 32.4252 51.3637 32.2214 51.5139 32.071L57.0767 26.517C57.2269 26.3685 57.4298 26.2855 57.641 26.2861C57.8522 26.2868 58.0546 26.371 58.2039 26.5203Z" fill="#12B29F"/>
<path d="M55.4953 23.8033L49.8927 18.2029C49.7427 18.0524 49.539 17.9674 49.3265 17.9668C49.1139 17.9662 48.9097 18.0499 48.7589 18.1996L35.4418 31.5179C35.3018 31.6571 35.1907 31.8226 35.1149 32.0049C35.039 32.1871 35 32.3826 35 32.58C35 32.7774 35.039 32.9729 35.1149 33.1551C35.1907 33.3374 35.3018 33.5029 35.4418 33.6421L40.5439 38.7487C40.6949 38.8991 40.8993 38.9835 41.1124 38.9835C41.3256 38.9835 41.53 38.8991 41.681 38.7487L55.4953 24.9367C55.6447 24.7859 55.7285 24.5822 55.7285 24.37C55.7285 24.1578 55.6447 23.9541 55.4953 23.8033Z" fill="#234858"/>
<path d="M79.8223 31.6207L74.7169 26.5207C74.6427 26.4442 74.5539 26.3834 74.4558 26.3417C74.3577 26.3 74.2523 26.2784 74.1457 26.2781C74.0392 26.2778 73.9336 26.2988 73.8353 26.3399C73.7369 26.381 73.6478 26.4413 73.5732 26.5174L59.7555 40.3294C59.6053 40.4798 59.521 40.6836 59.521 40.8961C59.521 41.1086 59.6053 41.3124 59.7555 41.4628L65.3582 47.0631C65.5086 47.2133 65.7125 47.2976 65.9251 47.2976C66.1376 47.2976 66.3415 47.2133 66.492 47.0631L79.8223 33.7482C80.1045 33.466 80.263 33.0834 80.263 32.6844C80.263 32.2854 80.1045 31.9028 79.8223 31.6207Z" fill="#234858"/>
<path d="M66.4456 18.2494L72.0482 23.8498C72.1984 24.0002 72.2828 24.204 72.2828 24.4165C72.2828 24.629 72.1984 24.8328 72.0482 24.9831L66.492 30.5537C66.3411 30.703 66.1374 30.7868 65.9251 30.7868C65.7128 30.7868 65.509 30.703 65.3582 30.5537L59.7555 24.9533C59.6053 24.803 59.521 24.5991 59.521 24.3867C59.521 24.1742 59.6053 23.9703 59.7555 23.82L65.325 18.2527C65.4748 18.1069 65.6755 18.0251 65.8846 18.0245C66.0937 18.0238 66.2949 18.1045 66.4456 18.2494Z" fill="#234858"/>
<path d="M55.552 40.3427L49.946 34.7424C49.795 34.592 49.5906 34.5076 49.3775 34.5076C49.1643 34.5076 48.9599 34.592 48.8089 34.7424L43.2461 40.3096C43.0958 40.46 43.0115 40.6638 43.0115 40.8763C43.0115 41.0888 43.0958 41.2926 43.2461 41.4429L48.8487 47.0433C48.9991 47.1934 49.203 47.2778 49.4156 47.2778C49.6282 47.2778 49.8321 47.1934 49.9825 47.0433L55.552 41.4893C55.6288 41.4149 55.6898 41.3258 55.7315 41.2273C55.7732 41.1288 55.7947 41.023 55.7947 40.916C55.7947 40.8091 55.7732 40.7032 55.7315 40.6048C55.6898 40.5063 55.6288 40.4172 55.552 40.3427Z" fill="#234858"/>
</svg>
