<svg width="207" height="57" viewBox="0 0 207 57" fill="none" xmlns="http://www.w3.org/2000/svg">
<g clip-path="">
<path d="M89.3808 39.5174V41.0008H74.5195V16.5273H89.2745V18.0107H76.3246V27.97H87.152V29.4534H76.3246V39.7309H89.3821L89.3808 39.5174Z" fill="white"/>
<path d="M110.719 18.0107H102.12V41.1068H100.316V18.0107H91.6113V16.5273H110.719V18.0107Z" fill="white"/>
<path d="M133.86 16.5273V41.1068H132.055V29.2413H116.663V41.0008H114.858V16.5273H116.663V27.97H132.056V16.5273H133.86Z" fill="white"/>
<path d="M154.56 39.5174V41.0008H141.079V16.5273H142.884V39.6235H154.562L154.56 39.5174Z" fill="white"/>
<path d="M156.791 31.678V31.9961C156.754 33.1417 156.898 34.2858 157.216 35.3871C157.487 36.2701 157.919 37.0958 158.489 37.8235C159.04 38.4652 159.73 38.9726 160.507 39.3069C161.348 39.6554 162.25 39.8356 163.161 39.8372C163.916 39.8508 164.668 39.7434 165.389 39.519C165.934 39.344 166.466 39.1314 166.982 38.8827C167.349 38.6942 167.704 38.4817 168.043 38.2464C168.18 38.085 168.367 37.9732 168.574 37.9282C168.681 37.9282 168.893 38.0343 168.893 38.1403L169.318 38.6706C168.989 39.0142 168.634 39.3328 168.257 39.6237C167.795 39.9332 167.296 40.1823 166.771 40.3647C166.189 40.6041 165.584 40.7818 164.966 40.8949C164.335 41.0179 163.696 41.0888 163.054 41.107C161.96 41.1217 160.874 40.9048 159.869 40.4707C158.917 40.0311 158.053 39.4204 157.322 38.6692C156.569 37.857 156.023 36.8758 155.729 35.8085C155.323 34.5431 155.144 33.2163 155.198 31.8887C155.202 30.7381 155.381 29.5947 155.729 28.4978C156.053 27.497 156.556 26.5635 157.216 25.7431C157.887 24.9711 158.72 24.3561 159.657 23.9416C161.585 23.1307 163.752 23.0927 165.708 23.8356C166.531 24.1405 167.262 24.6513 167.83 25.3189C168.446 26.0123 168.948 26.7989 169.317 27.6493C169.665 28.6733 169.845 29.7468 169.848 30.8282C169.876 31.0119 169.838 31.1996 169.742 31.3584C169.7 31.3987 169.65 31.4291 169.594 31.4474C169.539 31.4658 169.481 31.4716 169.423 31.4645H156.791V31.678ZM168.362 30.6188C168.394 29.7513 168.249 28.8864 167.937 28.0763C167.713 27.3767 167.352 26.7283 166.876 26.1687C166.399 25.6633 165.82 25.2659 165.177 25.0035C164.511 24.7011 163.785 24.5559 163.054 24.5793C162.22 24.5561 161.39 24.7004 160.613 25.0035C159.938 25.2647 159.324 25.6613 158.808 26.1687C158.265 26.7172 157.832 27.3648 157.534 28.0763C157.21 28.8553 156.996 29.6752 156.897 30.5128H168.362V30.6188Z" fill="white"/>
<path d="M176.003 26.8051C176.792 25.8561 177.723 25.0342 178.763 24.3686C179.82 23.7344 181.033 23.4046 182.266 23.4155C183.135 23.3833 184.002 23.5277 184.813 23.8398C185.494 24.1385 186.108 24.5708 186.618 25.111C187.096 25.7095 187.456 26.3927 187.68 27.1246C187.903 28.0256 188.01 28.9513 187.998 29.8793V40.8977H186.3V29.9826C186.386 28.6284 186.012 27.2848 185.238 26.1688C184.821 25.6887 184.295 25.3137 183.705 25.0744C183.114 24.8351 182.476 24.7381 181.841 24.7915C180.724 24.7954 179.627 25.0872 178.656 25.6385C177.622 26.2727 176.721 27.1 176.002 28.075V41.1071H174.305V23.7323H175.26C175.578 23.7323 175.685 23.8384 175.791 24.1565L176.003 26.8051Z" fill="white"/>
<path d="M207 15.7867V41.0025H206.045C205.726 41.0025 205.62 40.8965 205.514 40.5783L205.301 37.8237C204.609 38.8223 203.702 39.6546 202.648 40.2602C201.629 40.8937 200.45 41.2243 199.25 41.2133C198.302 41.2615 197.355 41.0851 196.488 40.6985C195.621 40.3119 194.858 39.7261 194.261 38.9889C192.948 37.0589 192.313 34.749 192.456 32.4205C192.461 31.2356 192.64 30.0578 192.988 28.9249C193.31 27.8914 193.813 26.9229 194.474 26.0642C195.071 25.2346 195.876 24.5767 196.809 24.1566C197.806 23.6878 198.892 23.4353 199.994 23.4156C201.055 23.3895 202.109 23.6072 203.073 24.052C203.955 24.5044 204.719 25.1579 205.301 25.9595V15.6807H207V15.7867ZM205.301 27.4415C204.754 26.5551 203.986 25.8253 203.073 25.3232C202.218 24.8897 201.271 24.6713 200.313 24.6869C199.401 24.6775 198.497 24.8581 197.659 25.2172C196.886 25.5592 196.224 26.1096 195.748 26.8066C195.172 27.5159 194.772 28.3506 194.58 29.243C194.327 30.2489 194.185 31.2792 194.155 32.3158C193.98 34.2884 194.465 36.2632 195.535 37.9311C196.039 38.53 196.675 39.0042 197.393 39.3168C198.111 39.6293 198.892 39.7717 199.675 39.7326C200.759 39.7287 201.821 39.4363 202.754 38.8856C203.743 38.2694 204.578 37.4361 205.195 36.4491V27.4401L205.301 27.4415Z" fill="white"/>
<path d="M28.5546 0C22.907 0.000272403 17.3863 1.67196 12.6907 4.80367C7.995 7.93538 4.33526 12.3865 2.17421 17.5941C0.0131645 22.8016 -0.552122 28.5319 0.549833 34.0601C1.65179 39.5883 4.37149 44.6663 8.36503 48.6519C12.3586 52.6374 17.4466 55.3516 22.9857 56.4511C28.5247 57.5507 34.2661 56.9862 39.4838 54.8291C44.7014 52.672 49.161 49.0192 52.2986 44.3325C55.4362 39.6459 57.1109 34.1359 57.1109 28.4993C57.0905 20.9468 54.0753 13.7095 48.7243 8.36926C43.3734 3.02897 36.1218 0.0199931 28.5546 0V0ZM19.4259 49.3711L15.9234 45.8755L24.2034 37.6116L15.9234 29.4538L19.4259 25.9582L31.2083 37.7177L19.4259 49.3711ZM32.6946 36.1282L20.9121 24.3688L24.4146 20.8731L36.197 32.6326L32.6946 36.1282ZM41.1871 27.6523L37.6847 31.1479L26.0071 19.3884L37.6847 7.7336L41.1871 11.2292L32.9071 19.4931L41.1871 27.6523Z" fill="white"/>
</g>
<defs>
<clipPath id="clip0">
<rect width="207" height="57" fill="white"/>
</clipPath>
</defs>
</svg>
