<svg width="51" height="50" viewBox="0 0 51 50" fill="none" xmlns="http://www.w3.org/2000/svg">
<circle cx="25.4033" cy="25" r="25" fill="#003CDA"/>
<path d="M25.4033 10C28.3064 10 30.9835 10.6871 33.4347 12.0618C35.8859 13.4366 37.827 15.3023 39.2574 17.6579C40.6878 20.0134 41.4033 22.5863 41.4033 25.3759C41.4033 28.726 40.3857 31.7391 38.3512 34.4147C36.316 37.0909 33.6881 38.9429 30.4664 39.9701C30.0907 40.0371 29.8136 39.9908 29.6324 39.8304C29.5452 39.7557 29.4758 39.6632 29.429 39.5595C29.3823 39.4557 29.3593 39.3432 29.3617 39.2298L29.372 37.6985C29.379 36.717 29.3822 35.8195 29.3822 35.0053C29.3822 33.7108 29.0212 32.7632 28.2993 32.1625C29.091 32.0824 29.8027 31.9621 30.4344 31.8024C31.0667 31.6421 31.7195 31.3815 32.3928 31.0214C33.0667 30.6613 33.6292 30.2172 34.0804 29.6899C34.5316 29.1631 34.8996 28.4623 35.1844 27.588C35.4692 26.7137 35.612 25.7091 35.612 24.5754C35.612 22.9865 35.0628 21.6117 33.9659 20.4506C34.4798 19.2355 34.4241 17.8746 33.7995 16.367C33.4104 16.2462 32.8478 16.3201 32.1118 16.5863C31.3758 16.8537 30.7364 17.1474 30.195 17.4675L29.4033 17.9478C28.0999 17.5995 26.7545 17.4247 25.4033 17.428C24.0522 17.4247 22.7067 17.5995 21.4033 17.9478C21.1135 17.7596 20.8184 17.5793 20.5182 17.4073C20.1496 17.1944 19.5697 16.9376 18.778 16.637C17.9864 16.3364 17.3963 16.2462 17.0078 16.3664C16.3825 17.8746 16.3268 19.2362 16.8414 20.4506C15.7438 21.6117 15.1947 22.9871 15.1947 24.5748C15.1947 25.7091 15.3374 26.7105 15.6222 27.578C15.907 28.4454 16.2712 29.1462 16.716 29.6798C17.1601 30.2141 17.7195 30.6613 18.3928 31.0214C19.0667 31.3815 19.7195 31.6421 20.3512 31.8024C20.9835 31.9621 21.6952 32.0824 22.4868 32.1625C21.9448 32.6429 21.6049 33.3306 21.466 34.225C21.1667 34.3608 20.852 34.4615 20.5284 34.525C20.195 34.592 19.7988 34.6252 19.3406 34.6252C18.8824 34.6252 18.4273 34.4811 17.9761 34.1949C17.5249 33.9074 17.1396 33.4903 16.8203 32.9435C16.5666 32.5272 16.2212 32.1716 15.8091 31.9026C15.3995 31.6352 15.0558 31.4755 14.7787 31.4216L14.3614 31.3615C14.0702 31.3615 13.8686 31.3915 13.7572 31.4517C13.6465 31.5118 13.612 31.5888 13.6536 31.6822C13.6952 31.7761 13.7572 31.8688 13.8411 31.9621C13.9243 32.0561 14.0139 32.1356 14.1118 32.2026L14.2577 32.3028C14.563 32.4362 14.8657 32.6899 15.164 33.0638C15.4622 33.4371 15.6811 33.7778 15.82 34.0847L16.0286 34.545C16.2091 35.0523 16.515 35.4625 16.9451 35.7763C17.3758 36.0895 17.8411 36.2899 18.3403 36.377C18.8408 36.4634 19.3233 36.5104 19.7886 36.5172C20.2539 36.5235 20.6398 36.5003 20.9451 36.4471L21.4244 36.3669C21.4244 36.8742 21.4276 37.4649 21.4347 38.1388L21.4449 39.2298C21.4449 39.4703 21.3547 39.6701 21.1742 39.8304C20.9937 39.9908 20.716 40.0371 20.3409 39.9707C17.1185 38.9429 14.49 37.0909 12.4555 34.4154C10.4203 31.7379 9.40332 28.7254 9.40332 25.3759C9.40332 22.5863 10.1188 20.0134 11.5492 17.6579C12.9796 15.3023 14.9208 13.4366 17.372 12.0618C19.8232 10.6871 22.5003 10 25.4033 10ZM15.466 32.0824C15.5076 31.989 15.459 31.9089 15.3201 31.8425C15.1812 31.8024 15.091 31.8156 15.0494 31.8826C15.0078 31.9759 15.0558 32.0561 15.1947 32.1224C15.3201 32.2026 15.4104 32.1895 15.466 32.0824ZM16.1118 32.7632C16.2091 32.6968 16.195 32.5897 16.0702 32.4431C15.9313 32.3229 15.82 32.3028 15.7368 32.383C15.6395 32.4494 15.6536 32.5565 15.7784 32.703C15.9172 32.8364 16.028 32.8565 16.1112 32.7632H16.1118ZM16.7364 33.6644C16.8619 33.5705 16.8619 33.444 16.7364 33.2836C16.6257 33.1101 16.5073 33.0707 16.3825 33.1634C16.2577 33.2304 16.2577 33.3506 16.3825 33.5241C16.5073 33.6976 16.6257 33.744 16.7364 33.6644ZM17.612 34.5049C17.7227 34.3984 17.6952 34.2713 17.5288 34.1248C17.3617 33.9644 17.2228 33.9444 17.1115 34.0646C16.9867 34.1711 17.0142 34.2982 17.1947 34.4448C17.3611 34.6051 17.5006 34.6252 17.612 34.5049ZM18.7992 35.006C18.8408 34.8588 18.7505 34.7517 18.5284 34.6853C18.3198 34.6321 18.188 34.679 18.1323 34.8256C18.0772 34.9721 18.1675 35.0724 18.4036 35.1256C18.6116 35.2058 18.7435 35.1657 18.7992 35.0053V35.006ZM20.1112 35.1062C20.1112 34.9321 19.9934 34.8588 19.7572 34.8851C19.5352 34.8851 19.4244 34.959 19.4244 35.1055C19.4244 35.279 19.5422 35.3523 19.7784 35.326C20.0004 35.326 20.1112 35.2521 20.1112 35.1055V35.1062ZM21.3201 34.9058C21.292 34.7586 21.1672 34.6991 20.9451 34.7254C20.723 34.7655 20.6251 34.865 20.6532 35.026C20.6814 35.1857 20.8062 35.239 21.0283 35.1857C21.2504 35.1325 21.3483 35.0392 21.3201 34.9051V34.9058Z" fill="white"/>
</svg>
