<svg width="252" height="66" viewBox="0 0 252 66" fill="none" xmlns="http://www.w3.org/2000/svg">
<path d="M82.7403 18.1837L85.8333 21.3673L70 37.7405L54.093 21.4431L57.186 18.2595L69.9264 31.3732L82.7403 18.1837ZM82.7403 15L81.1938 16.5918L70 28.1137L58.8062 16.5918L57.2597 15L55.7132 16.5918L52.6202 19.7755L51 21.4431L52.5465 23.035L68.4535 39.4082L70 41L71.5465 39.4082L87.4535 23.035L89 21.4431L87.4535 19.8513L84.3605 16.6676L82.7403 15Z" fill="#8CE0BB"/>
<path d="M82.7403 34.1837L85.8333 37.3673L70 53.7405L54.093 37.3673L57.186 34.1837L69.9264 47.2974L82.7403 34.1837ZM82.7403 31L81.1938 32.5918L70 44.1137L58.8062 32.5918L57.2597 31L55.7132 32.5918L52.6202 35.7755L51 37.3673L52.5465 39.035L68.4535 55.4082L70 57L71.5465 55.4082L87.4535 39.035L89 37.4431L87.4535 35.8513L84.3605 32.6676L82.7403 31Z" fill="#8CE0BB"/>
<path d="M105.464 9H95.1506V19.3118H105.464V9ZM150.56 56.5699H161.099V9.37634H150.56V56.5699ZM95 56.5699H105.54V24.2796H95V56.5699V56.5699ZM193.321 33.8387C193.321 33.8387 190.686 37.9032 189.482 39.0323C188.051 40.4624 186.094 41.2903 184.061 41.2903C182.028 41.2903 180.071 40.4624 178.641 39.0323C177.21 37.6022 176.382 35.6452 176.382 33.6129C176.382 31.5806 177.21 29.6237 178.641 28.1935C180.824 26.0108 184.061 25.4086 186.771 26.4624L178.866 31.957L183.158 38.129L199.795 26.5376C199.795 26.5376 200.699 26.4624 195.429 20.8172C189.858 14.871 178.189 14.7204 171.714 21.1935C168.402 24.5054 166.595 28.871 166.595 33.5376C166.595 38.2043 168.402 42.5699 171.714 45.8817C175.027 49.1935 179.393 51 184.061 51C188.729 51 193.095 49.1935 196.408 45.8817C198.666 43.6237 200.247 40.8387 201 37.828L193.321 33.8387ZM136.03 23.4516C135.955 23.4516 135.955 23.4516 136.03 23.4516V29.2473V29.172V39.8602C136.03 44 132.642 47.3871 128.501 47.3871C124.361 47.3871 120.973 44 120.973 39.8602C120.973 35.7204 124.361 32.3333 128.501 32.3333C129.631 32.3333 130.76 32.5591 131.739 33.086C132.04 33.2366 132.341 33.3871 132.642 33.6129V22.3226C131.287 22.0215 129.932 21.871 128.501 21.871C118.564 21.871 110.433 30 110.433 39.9355C110.433 49.871 118.564 58 128.501 58C138.439 58 146.57 49.871 146.57 39.9355V9.22581H136.03V23.4516Z" fill="#003CDA"/>
</svg>
