<svg width="375" height="238" viewBox="0 0 375 238" fill="none" xmlns="http://www.w3.org/2000/svg" class="visible-sm">
    <g>
        <path opacity="0.4"
            d="M297.155 90.0545C301.352 90.0545 304.785 93.5054 304.785 97.7231V113.444C304.785 131.657 290.021 146.794 271.899 146.794C265.689 146.794 263.619 142.937 263.619 138.719C263.619 133.543 267.702 131.158 271.899 131.158C281.627 131.158 289.525 123.221 289.525 113.444V97.7231C289.525 93.5054 292.92 90.0545 297.155 90.0545Z"
            fill="white" />
        <path fill-rule="evenodd" clip-rule="evenodd"
            d="M297.155 89.7096C301.543 89.7096 305.131 93.3153 305.131 97.7231V113.444C305.131 131.847 289.799 147.001 271.487 147.001C266.725 147.001 263.619 143.334 263.619 138.926C263.619 134.518 266.518 130.813 271.899 130.813C281.437 130.813 289.18 123.031 289.18 113.444V97.7231C289.18 93.3023 292.743 89.7096 297.155 89.7096Z"
            stroke="#000085" />
        <path opacity="0.5"
            d="M298.602 125.192C298.838 124.707 299.425 124.503 299.915 124.736C300.404 124.969 300.61 125.551 300.375 126.036C299.473 127.893 298.619 129.444 297.729 130.818C297.435 131.27 296.827 131.401 296.37 131.111C295.913 130.821 295.78 130.218 296.073 129.766C296.916 128.465 297.733 126.982 298.602 125.192Z"
            fill="white" />
        <path opacity="0.5"
            d="M300.811 96.6027C300.811 96.0787 301.291 95.654 301.884 95.654C302.476 95.654 302.957 96.0787 302.957 96.6027L302.956 113.718C302.822 116.738 302.426 119.876 301.745 121.892C301.576 122.394 300.978 122.68 300.41 122.53C299.842 122.38 299.52 121.851 299.689 121.349C300.304 119.528 300.685 116.515 300.811 113.681V96.6027Z"
            fill="white" />
        <path opacity="0.3"
            d="M277.077 133.543C276.734 133.606 276.042 132.715 274.178 131.886C275.658 131.74 275.949 131.53 276.292 131.467C284.279 129.988 290.548 122.436 290.548 114.169L290.709 101.14C290.718 100.616 291.15 100.2 291.674 100.209C292.197 100.218 292.614 100.65 292.605 101.173C292.542 104.705 292.542 108.653 292.444 114.185C292.444 123.349 285.963 131.897 277.077 133.543Z"
            fill="#000085" />
        <path fill-rule="evenodd" clip-rule="evenodd"
            d="M271.486 131.265C275.831 131.265 279.354 134.788 279.354 139.133C279.354 143.478 275.831 147.001 271.486 147.001C267.141 147.001 263.619 143.478 263.619 139.133C263.619 134.788 267.141 131.265 271.486 131.265Z"
            stroke="#000085" />
        <path fill-rule="evenodd" clip-rule="evenodd"
            d="M271.279 133.75C274.367 133.75 276.869 136.253 276.869 139.34C276.869 142.428 274.367 144.931 271.279 144.931C268.192 144.931 265.689 142.428 265.689 139.34C265.689 136.253 268.192 133.75 271.279 133.75Z"
            stroke="#000085" />
        <path opacity="0.4"
            d="M227.588 90.0545C231.785 90.0545 235.219 93.5054 235.219 97.7231V113.444C235.219 131.657 220.454 146.794 202.332 146.794C196.122 146.794 194.052 142.937 194.052 138.719C194.052 133.543 198.136 131.158 202.332 131.158C212.061 131.158 219.958 123.221 219.958 113.444V97.7231C219.958 93.5054 223.354 90.0545 227.588 90.0545Z"
            fill="white" />
        <path fill-rule="evenodd" clip-rule="evenodd"
            d="M227.589 89.7096C231.976 89.7096 235.564 93.3153 235.564 97.7231V113.444C235.564 131.847 220.233 147.001 201.92 147.001C197.158 147.001 194.052 143.334 194.052 138.926C194.052 134.518 196.951 130.813 202.332 130.813C211.87 130.813 219.614 123.031 219.614 113.444V97.7231C219.614 93.3023 223.176 89.7096 227.589 89.7096Z"
            stroke="#000085" />
        <path opacity="0.5"
            d="M229.036 125.192C229.271 124.707 229.859 124.503 230.348 124.736C230.838 124.969 231.044 125.551 230.808 126.036C229.907 127.893 229.053 129.444 228.162 130.818C227.869 131.27 227.26 131.401 226.803 131.111C226.346 130.821 226.213 130.218 226.507 129.766C227.35 128.465 228.166 126.982 229.036 125.192Z"
            fill="white" />
        <path opacity="0.5"
            d="M231.245 96.6027C231.245 96.0787 231.725 95.654 232.318 95.654C232.91 95.654 233.391 96.0787 233.391 96.6027L233.39 113.718C233.257 116.738 232.86 119.876 232.179 121.892C232.01 122.394 231.412 122.68 230.844 122.53C230.277 122.38 229.954 121.851 230.123 121.349C230.738 119.528 231.119 116.515 231.245 113.681V96.6027Z"
            fill="white" />
        <path opacity="0.3"
            d="M207.51 133.543C207.167 133.606 206.475 132.715 204.612 131.886C206.092 131.74 206.382 131.53 206.725 131.467C214.712 129.988 220.981 122.436 220.981 114.169L221.142 101.14C221.152 100.616 221.584 100.2 222.107 100.209C222.631 100.218 223.048 100.65 223.038 101.173C222.976 104.705 222.976 108.653 222.877 114.185C222.877 123.349 216.396 131.897 207.51 133.543Z"
            fill="#000085" />
        <path fill-rule="evenodd" clip-rule="evenodd"
            d="M201.92 131.265C206.265 131.265 209.787 134.788 209.787 139.133C209.787 143.478 206.265 147.001 201.92 147.001C197.574 147.001 194.052 143.478 194.052 139.133C194.052 134.788 197.574 131.265 201.92 131.265Z"
            stroke="#000085" />
        <path fill-rule="evenodd" clip-rule="evenodd"
            d="M201.713 133.75C204.8 133.75 207.303 136.253 207.303 139.34C207.303 142.428 204.8 144.931 201.713 144.931C198.625 144.931 196.122 142.428 196.122 139.34C196.122 136.253 198.625 133.75 201.713 133.75Z"
            stroke="#000085" />
        <path opacity="0.4"
            d="M158.022 90.0545C162.218 90.0545 165.652 93.5054 165.652 97.7231V113.444C165.652 131.657 150.887 146.794 132.766 146.794C126.556 146.794 124.485 142.937 124.485 138.719C124.485 133.543 128.569 131.158 132.766 131.158C142.494 131.158 150.391 123.221 150.391 113.444V97.7231C150.391 93.5054 153.787 90.0545 158.022 90.0545Z"
            fill="white" />
        <path fill-rule="evenodd" clip-rule="evenodd"
            d="M158.022 89.7096C162.409 89.7096 165.997 93.3153 165.997 97.7231V113.444C165.997 131.847 150.666 147.001 132.353 147.001C127.591 147.001 124.485 143.334 124.485 138.926C124.485 134.518 127.384 130.813 132.766 130.813C142.303 130.813 150.047 123.031 150.047 113.444V97.7231C150.047 93.3023 153.609 89.7096 158.022 89.7096Z"
            stroke="#000085" />
        <path opacity="0.5"
            d="M159.469 125.192C159.704 124.707 160.292 124.503 160.781 124.736C161.271 124.969 161.477 125.551 161.242 126.036C160.34 127.893 159.486 129.444 158.595 130.818C158.302 131.27 157.694 131.401 157.237 131.111C156.779 130.821 156.647 130.218 156.94 129.766C157.783 128.465 158.6 126.982 159.469 125.192Z"
            fill="white" />
        <path opacity="0.5"
            d="M161.677 96.6027C161.677 96.0787 162.158 95.654 162.75 95.654C163.343 95.654 163.823 96.0787 163.823 96.6027L163.822 113.718C163.689 116.738 163.292 119.876 162.612 121.892C162.442 122.394 161.845 122.68 161.277 122.53C160.709 122.38 160.386 121.851 160.556 121.349C161.171 119.528 161.552 116.515 161.677 113.681V96.6027Z"
            fill="white" />
        <path opacity="0.3"
            d="M137.944 133.543C137.6 133.606 136.908 132.715 135.045 131.886C136.525 131.74 136.815 131.53 137.159 131.467C145.145 129.988 151.414 122.436 151.414 114.169L151.576 101.14C151.585 100.616 152.017 100.2 152.541 100.209C153.064 100.218 153.481 100.65 153.472 101.173C153.409 104.705 153.409 108.653 153.31 114.185C153.31 123.349 146.83 131.897 137.944 133.543Z"
            fill="#000085" />
        <path fill-rule="evenodd" clip-rule="evenodd"
            d="M132.353 131.265C136.698 131.265 140.221 134.788 140.221 139.133C140.221 143.478 136.698 147.001 132.353 147.001C128.008 147.001 124.485 143.478 124.485 139.133C124.485 134.788 128.008 131.265 132.353 131.265Z"
            stroke="#000085" />
        <path fill-rule="evenodd" clip-rule="evenodd"
            d="M132.146 133.75C135.233 133.75 137.736 136.253 137.736 139.34C137.736 142.428 135.233 144.931 132.146 144.931C129.058 144.931 126.556 142.428 126.556 139.34C126.556 136.253 129.058 133.75 132.146 133.75Z"
            stroke="#000085" />
        <path opacity="0.4"
            d="M88.4551 90.0545C92.6517 90.0545 96.0853 93.5054 96.0853 97.7231V113.444C96.0853 131.657 81.3208 146.794 63.1989 146.794C56.989 146.794 54.9185 142.937 54.9185 138.719C54.9185 133.543 59.0022 131.158 63.1989 131.158C72.9275 131.158 80.8248 123.221 80.8248 113.444V97.7231C80.8248 93.5054 84.2203 90.0545 88.4551 90.0545Z"
            fill="white" />
        <path fill-rule="evenodd" clip-rule="evenodd"
            d="M88.4563 89.7096C92.8438 89.7096 96.4315 93.3153 96.4315 97.7231V113.444C96.4315 131.847 81.1003 147.001 62.7876 147.001C58.0256 147.001 54.9199 143.334 54.9199 138.926C54.9199 134.518 57.8185 130.813 63.2001 130.813C72.7379 130.813 80.4812 123.031 80.4812 113.444V97.7231C80.4812 93.3023 84.0436 89.7096 88.4563 89.7096Z"
            stroke="#000085" />
        <path opacity="0.5"
            d="M89.9023 125.192C90.1377 124.707 90.7253 124.503 91.2148 124.736C91.7043 124.969 91.9104 125.551 91.6751 126.036C90.7733 127.893 89.9194 129.444 89.0288 130.818C88.7354 131.27 88.127 131.401 87.6699 131.111C87.2128 130.821 87.08 130.218 87.3734 129.766C88.2164 128.465 89.033 126.982 89.9023 125.192Z"
            fill="white" />
        <path opacity="0.5"
            d="M92.1108 96.6027C92.1108 96.0787 92.5912 95.654 93.1837 95.654C93.7762 95.654 94.2566 96.0787 94.2566 96.6027L94.2558 113.718C94.1225 116.738 93.7257 119.876 93.0451 121.892C92.8756 122.394 92.278 122.68 91.7102 122.53C91.1424 122.38 90.8195 121.851 90.989 121.349C91.6039 119.528 91.9849 116.515 92.1108 113.681V96.6027Z"
            fill="white" />
        <path opacity="0.3"
            d="M68.377 133.543C68.0337 133.607 67.3417 132.715 65.4783 131.887C66.9583 131.741 67.2488 131.531 67.592 131.467C75.5785 129.988 81.8475 122.437 81.8477 114.169L82.0091 101.14C82.0184 100.617 82.4504 100.2 82.9739 100.209C83.4975 100.219 83.9144 100.65 83.9051 101.174C83.8423 104.705 83.8423 108.654 83.7438 114.186C83.7438 123.35 77.2631 131.898 68.377 133.543Z"
            fill="#000085" />
        <path fill-rule="evenodd" clip-rule="evenodd"
            d="M62.7862 131.265C67.1314 131.265 70.6538 134.788 70.6538 139.133C70.6538 143.478 67.1314 147.001 62.7862 147.001C58.441 147.001 54.9185 143.478 54.9185 139.133C54.9185 134.788 58.441 131.265 62.7862 131.265Z"
            stroke="#000085" />
        <path fill-rule="evenodd" clip-rule="evenodd"
            d="M62.5792 133.75C65.6665 133.75 68.1693 136.253 68.1693 139.34C68.1693 142.428 65.6665 144.931 62.5792 144.931C59.4918 144.931 56.989 142.428 56.989 139.34C56.989 136.253 59.4918 133.75 62.5792 133.75Z"
            stroke="#000085" />
        <path d="M30.9014 0H339.482V114.702H30.9014V0Z" fill="white" stroke="#000085" />
        <path
            d="M338.567 -0.0855713H338.067V0.414429V114.288V114.788H338.567H411.861H412.361V114.288V114.14V113.991V113.843V113.695V113.547V113.399V113.251V113.103V112.956V112.808V112.661V112.514V112.367V112.221V112.074V111.928V111.781V111.635V111.489V111.343V111.198V111.052V110.907V110.761V110.616V110.471V110.326V110.182V110.037V109.893V109.748V109.604V109.46V109.317V109.173V109.029V108.886V108.743V108.6V108.457V108.314V108.171V108.029V107.887V107.744V107.602V107.46V107.319V107.177V107.036V106.894V106.753V106.612V106.471V106.33V106.19V106.049V105.909V105.769V105.629V105.489V105.349V105.21V105.07V104.931V104.792V104.653V104.514V104.376V104.237V104.099V103.96V103.822V103.684V103.547V103.409V103.271V103.134V102.997V102.86V102.723V102.586V102.449V102.313V102.177V102.04V101.904V101.769V101.633V101.497V101.362V101.226V101.091V100.956V100.821V100.687V100.552V100.418V100.283V100.149V100.015V99.8814V99.7477V99.6141V99.4807V99.3475V99.2143V99.0814V98.9486V98.8159V98.6834V98.551V98.4188V98.2867V98.1547V98.0229V97.8913V97.7598V97.6284V97.4972V97.3662V97.2353V97.1045V96.9739V96.8434V96.7131V96.5829V96.4529V96.323V96.1932V96.0636V95.9342V95.8049V95.6757V95.5467V95.4179V95.2891V95.1606V95.0322V94.9039V94.7757V94.6478V94.5199V94.3922V94.2647V94.1373V94.01V93.8829V93.756V93.6292V93.5025V93.376V93.2496V93.1234V92.9973V92.8714V92.7456V92.62V92.4945V92.3691V92.2439V92.1189V91.994V91.8692V91.7446V91.6201V91.4958V91.3716V91.2476V91.1237V91V90.8764V90.753V90.6297V90.5065V90.3835V90.2607V90.138V90.0154V89.893V89.7707V89.6486V89.5266V89.4048V89.2831V89.1616V89.0402V88.9189V88.7979V88.6769V88.5561V88.4354V88.3149V88.1946V88.0744V87.9543V87.8344V87.7146V87.5949V87.4755V87.3561V87.2369V87.1179V86.999V86.8802V86.7616V86.6432V86.5249V86.4067V86.2887V86.1708V86.0531V85.9355V85.8181V85.7008V85.5836V85.4667V85.3498V85.2331V85.1166V85.0002V84.8839V84.7678V84.6518V84.536V84.4203V84.3048V84.1894V84.0742V83.9591V83.8441V83.7293V83.6147V83.5002V83.3858V83.2716V83.1576V83.0437V82.9299V82.8163V82.7028V82.5895V82.4763V82.3632V82.2504V82.1376V82.025V81.9126V81.8003V81.6881V81.5761V81.4642V81.3525V81.2409V81.1295V81.0182V80.9071V80.7961V80.6853V80.5746V80.464V80.3536V80.2434V80.1333V80.0233V79.9135V79.8038V79.6943V79.5849V79.4757V79.3666V79.2577V79.1489V79.0403V78.9318V78.8234V78.7152V78.6072V78.4993V78.3915V78.2839V78.1764V78.0691V77.9619V77.8549V77.748V77.6413V77.5347V77.4283V77.322V77.2158V77.1098V77.0039V76.8982V76.7927V76.6873V76.582V76.4769V76.3719V76.2671V76.1624V76.0578V75.9534V75.8492V75.7451V75.6412V75.5373V75.4337V75.3302V75.2268V75.1236V75.0205V74.9176V74.8148V74.7122V74.6097V74.5074V74.4052V74.3031V74.2012V74.0995V73.9978V73.8964V73.7951V73.6939V73.5929V73.492V73.3913V73.2907V73.1903V73.09V72.9898V72.8898V72.79V72.6903V72.5907V72.4913V72.3921V72.293V72.194V72.0952V71.9965V71.8979V71.7996V71.7013V71.6032V71.5053V71.4075V71.3099V71.2123V71.115V71.0178V70.9207V70.8238V70.727V70.6304V70.5339V70.4376V70.3414V70.2454V70.1495V70.0537V69.9581V69.8627V69.7674V69.6722V69.5772V69.4823V69.3876V69.293V69.1986V69.1043V69.0102V68.9162V68.8224V68.7287V68.6351V68.5417V68.4485V68.3554V68.2624V68.1696V68.0769V67.9844V67.892V67.7998V67.7077V67.6158V67.524V67.4323V67.3408V67.2495V67.1583V67.0672V66.9763V66.8856V66.7949V66.7045V66.6142V66.524V66.4339V66.3441V66.2543V66.1647V66.0753V65.986V65.8968V65.8078V65.719V65.6303V65.5417V65.4533V65.365V65.2769V65.1889V65.1011V65.0134V64.9258V64.8384V64.7512V64.6641V64.5771V64.4903V64.4037V64.3172V64.2308V64.1446V64.0585V63.9726V63.8868V63.8011V63.7157V63.6303V63.5451V63.4601V63.3752V63.2904V63.2058V63.1213V63.037V62.9529V62.8688V62.785V62.7012V62.6176V62.5342V62.4509V62.3678V62.2848V62.2019V62.1192V62.0367V61.9543V61.872V61.7899V61.7079V61.6261V61.5444V61.4629V61.3815V61.3002V61.2191V61.1382V61.0574V60.9767V60.8962V60.8159V60.7357V60.6556V60.5757V60.4959V60.4163V60.3368V60.2575V60.1783V60.0992V60.0203V59.9416V59.863V59.7845V59.7062V59.6281V59.55V59.4722V59.3945V59.3169V59.2395V59.1622V59.085V59.008V58.9312V58.8545V58.778V58.7016V58.6253V58.5492V58.4732V58.3974V58.3217V58.2462V58.1708V58.0956V58.0205V57.9456V57.8708V57.7961V57.7216V57.6473V57.5731V57.499V57.4251V57.3513V57.2776V57.2037V57.1296V57.0554V56.9811V56.9066V56.8319V56.7571V56.6822V56.6071V56.5319V56.4565V56.381V56.3053V56.2295V56.1535V56.0774V56.0011V55.9247V55.8482V55.7715V55.6947V55.6177V55.5405V55.4632V55.3858V55.3082V55.2305V55.1526V55.0746V54.9965V54.9182V54.8397V54.7611V54.6824V54.6035V54.5244V54.4452V54.3659V54.2864V54.2068V54.127V54.0471V53.967V53.8868V53.8065V53.726V53.6453V53.5645V53.4836V53.4025V53.3212V53.2398V53.1583V53.0766V52.9948V52.9128V52.8307V52.7484V52.666V52.5835V52.5008V52.4179V52.3349V52.2518V52.1685V52.0851V52.0015V51.9177V51.8339V51.7498V51.6657V51.5814V51.4969V51.4123V51.3275V51.2426V51.1576V51.0724V50.987V50.9016V50.8159V50.7301V50.6442V50.5581V50.4719V50.3855V50.299V50.2124V50.1256V50.0386V49.9515V49.8643V49.7769V49.6893V49.6016V49.5138V49.4258V49.3377V49.2494V49.161V49.0724V48.9837V48.8949V48.8059V48.7167V48.6274V48.538V48.4484V48.3586V48.2688V48.1787V48.0886V47.9982V47.9078V47.8171V47.7264V47.6355V47.5444V47.4532V47.3619V47.2704V47.1787V47.0869V46.995V46.9029V46.8107V46.7183V46.6258V46.5331V46.4403V46.3473V46.2542V46.161V46.0676V45.974V45.8803V45.7865V45.6925V45.5984V45.5041V45.4097V45.3151V45.2204V45.1255V45.0305V44.9353V44.84V44.7446V44.649V44.5532V44.4573V44.3613V44.2651V44.1688V44.0723V43.9757V43.8789V43.782V43.6849V43.5877V43.4904V43.3928V43.2952V43.1974V43.0995V43.0014V42.9031V42.8047V42.7062V42.6075V42.5087V42.4097V42.3106V42.2114V42.112V42.0124V41.9127V41.8129V41.7129V41.6127V41.5124V41.412V41.3114V41.2107V41.1098V41.0088V40.9076V40.8063V40.7048V40.6032V40.5015V40.3996V40.2975V40.1953V40.093V39.9905V39.8879V39.7851V39.6822V39.5791V39.4759V39.3725V39.269V39.1654V39.0616V38.9576V38.8535V38.7493V38.6449V38.5403V38.4356V38.3308V38.2258V38.1207V38.0154V37.91V37.8045V37.6987V37.5929V37.4869V37.3807V37.2744V37.168V37.0614V36.9547V36.8478V36.7408V36.6336V36.5263V36.4188V36.3112V36.2034V36.0955V35.9875V35.8793V35.7709V35.6624V35.5538V35.445V35.3361V35.227V35.1178V35.0084V34.8989V34.7892V34.6794V34.5694V34.4593V34.3491V34.2387V34.1281V34.0174V33.9066V33.7956V33.6845V33.5732V33.4618V33.3502V33.2385V33.1266V33.0146V32.9024V32.7901V32.6777V32.5651V32.4524V32.3395V32.2264V32.1132V31.9999V31.8864V31.7728V31.659V31.5451V31.4311V31.3169V31.2025V31.088V30.9734V30.8586V30.7436V30.6285V30.5133V30.3979V30.2824V30.1667V30.0509V29.9349V29.8188V29.7025V29.5861V29.4696V29.3529V29.236V29.119V29.0019V28.8846V28.7672V28.6496V28.5319V28.414V28.296V28.1778V28.0595V27.9411V27.8225V27.7037V27.5848V27.4658V27.3466V27.2272V27.1077V26.9881V26.8683V26.7484V26.6283V26.5081V26.3878V26.2673V26.1466V26.0258V25.9048V25.7838V25.6625V25.5411V25.4196V25.2979V25.1761V25.0541V24.932V24.8097V24.6873V24.5647V24.442V24.3192V24.1962V24.073V23.9497V23.8263V23.7027V23.579V23.4551V23.3311V23.2069V23.0826V22.9581V22.8335V22.7087V22.5838V22.4588V22.3336V22.2082V22.0827V21.9571V21.8313V21.7054V21.5793V21.4531V21.3267V21.2002V21.0735V20.9467V20.8198V20.6927V20.5654V20.438V20.3105V20.1828V20.0549V19.927V19.7988V19.6706V19.5421V19.4136V19.2848V19.156V19.027V18.8978V18.7685V18.6391V18.5095V18.3797V18.2498V18.1198V17.9896V17.8593V17.7288V17.5982V17.4674V17.3365V17.2055V17.0743V16.9429V16.8114V16.6798V16.548V16.416V16.2839V16.1517V16.0193V15.8868V15.7541V15.6213V15.4884V15.3552V15.222V15.0886V14.955V14.8213V14.6875V14.5535V14.4194V14.2851V14.1506V14.0161V13.8813V13.7465V13.6115V13.4763V13.341V13.2055V13.0699V12.9342V12.7983V12.6622V12.526V12.3897V12.2532V12.1166V11.9798V11.8429V11.7058V11.5686V11.4313V11.2938V11.1561V11.0183V10.8804V10.7423V10.604V10.4656V10.3271V10.1884V10.0496V9.91062V9.7715V9.63224V9.49282V9.35326V9.21356V9.07371V8.93371V8.79356V8.65327V8.51283V8.37225V8.23152V8.09064V7.94962V7.80844V7.66713V7.52566V7.38405V7.2423V7.10039V6.95834V6.81615V6.6738V6.53131V6.38868V6.24589V6.10296V5.95989V5.81667V5.6733V5.52978V5.38612V5.24231V5.09836V4.95426V4.81001V4.66561V4.52107V4.37638V4.23155V4.08657V3.94144V3.79617V3.65075V3.50518V3.35947V3.21361V3.0676V2.92145V2.77515V2.6287V2.48211V2.33537V2.18849V2.04145V1.89427V1.74695V1.59948V1.45186V1.30409V1.15618V1.00813V0.859921V0.71157V0.563073V0.414429V-0.0855713H411.861H338.567Z"
            fill="#CBE2FF" stroke="#000085" />
        <path d="M348.591 11.6802H401.837V103.021H348.591V11.6802Z" fill="#BED1F4" stroke="#000085" />
        <path d="M355.631 22.6885V18.7195H389V22.6885H355.631Z" fill="#000085" stroke="#000085" />
        <path d="M355.631 31.7985V27.8295H389V31.7985H355.631Z" fill="#000085" stroke="#000085" />
        <path d="M355.631 40.9094V36.9404H389V40.9094H355.631Z" fill="#000085" stroke="#000085" />
        <path d="M355.631 50.0188V46.0497H389V50.0188H355.631Z" fill="#000085" stroke="#000085" />
        <path d="M355.631 59.1301V55.1611H389V59.1301H355.631Z" fill="#000085" stroke="#000085" />
        <path d="M355.631 68.2383V64.2693H389V68.2383H355.631Z" fill="#000085" stroke="#000085" />
        <path d="M355.631 77.3483V73.3793H389V77.3483H355.631Z" fill="#000085" stroke="#000085" />
        <path d="M355.631 86.4585V82.4895H389V86.4585H355.631Z" fill="#000085" stroke="#000085" />
        <path d="M355.631 95.5684V91.5994H389V95.5684H355.631Z" fill="#000085" stroke="#000085" />
        <circle cx="343.951" cy="5.79878" r="0.74226" fill="white" stroke="#000085" />
        <circle cx="343.951" cy="108.905" r="0.74226" fill="white" stroke="#000085" />
        <path opacity="0.5"
            d="M334.012 114.288H31.3149V43.4791C31.3149 43.4791 39.6792 80.8004 56.517 65.8068C85.4424 40.1035 127.537 40.7304 147.291 71.0311C147.291 71.0311 159.284 87.9054 178.662 85.5545L191.361 82.6289C199.215 80.8004 207.399 83.2036 213.419 89.1592C220.71 96.3687 229.787 100.862 239.429 102.115L334.012 114.288Z"
            fill="#DCEBFF" />
        <path d="M278.213 95.6323V16.9987H282.148V95.6323H278.213Z" fill="#CBE2FF" stroke="#000085" />
        <path d="M277.783 95.9819V16.6491H282.58V95.9819H277.783Z" fill="#CBE2FF" stroke="#000085" />
        <path d="M282.751 95.9819V16.6491H304.526V95.9819H282.751Z" fill="#407BF7" stroke="#000085" />
        <path opacity="0.2" d="M283.08 67.4959V85.3016L304.198 37.7013V18.2196L283.08 67.4959Z" fill="white" />
        <path opacity="0.2" d="M283.08 50.1558V60.4562L302.128 16.9771H297.159L283.08 50.1558Z" fill="white" />
        <path d="M208.647 95.6323V16.9987H212.581V95.6323H208.647Z" fill="#CBE2FF" stroke="#000085" />
        <path d="M208.216 95.9819V16.6491H213.013V95.9819H208.216Z" fill="#CBE2FF" stroke="#000085" />
        <path d="M213.185 95.9819V16.6491H234.96V95.9819H213.185Z" fill="#407BF7" stroke="#000085" />
        <path opacity="0.2" d="M213.513 95.6536V85.3014L234.631 37.7011V67.0816L222.623 95.6536H213.513Z"
            fill="white" />
        <path d="M139.082 95.6323V16.9987H143.017V95.6323H139.082Z" fill="#CBE2FF" stroke="#000085" />
        <path d="M138.65 95.9819V16.6491H143.447V95.9819H138.65Z" fill="#CBE2FF" stroke="#000085" />
        <path d="M143.619 95.9819V16.6491H165.394V95.9819H143.619Z" fill="#407BF7" stroke="#000085" />
        <path opacity="0.2" d="M143.947 77.848V95.6538L165.066 48.0535V28.5717L143.947 77.848Z" fill="white" />
        <path opacity="0.2" d="M143.947 67.0819V72.465L165.066 24.0365V17.8056L143.947 67.0819Z" fill="white" />
        <path d="M69.5152 95.6323V16.9987H73.4501V95.6323H69.5152Z" fill="#CBE2FF" stroke="#000085" />
        <path d="M69.0836 95.9819V16.6491H73.8808V95.9819H69.0836Z" fill="#CBE2FF" stroke="#000085" />
        <path d="M74.0526 95.9819V16.6491H95.8273V95.9819H74.0526Z" fill="#407BF7" stroke="#000085" />
        <path opacity="0.2" d="M74.3806 30.6937V60.4562L93.4285 16.9771H80.1778L74.3806 30.6937Z" fill="white" />
        <rect x="-112.525" y="176.884" width="691.855" height="17.5454" transform="rotate(5 -112.525 176.884)"
            fill="#CBE2FF" stroke="#000085" />
        <rect x="0.541675" y="-0.454519" width="691.855" height="13.0945"
            transform="matrix(0.996195 0.0871557 0.0871557 -0.996195 -113.003 176.127)" fill="white" stroke="#000085" />
        <rect x="0.541675" y="-0.454519" width="691.855" height="1.96726"
            transform="matrix(0.996195 0.0871557 0.0871557 -0.996195 -112.517 170.585)" fill="#DCEBFF"
            stroke="#000085" />
        <path d="M61.7097 196.839L93.8559 199.651" stroke="#000085" stroke-linecap="round" stroke-linejoin="round" />
        <path d="M100.507 200.233L109.929 201.057" stroke="#000085" stroke-linecap="round" stroke-linejoin="round" />
        <path d="M356.433 232.676L378.418 234.6" stroke="#000085" stroke-linecap="round" stroke-linejoin="round" />
    </g>
</svg>