<svg width="1440" height="510" viewBox="0 0 1440 510" fill="none" xmlns="http://www.w3.org/2000/svg" class="mw-100 hidden-sm">
    <g>
    <path d="M-357 0.775635H-5.66095C52.3163 0.775635 99.3009 48.2963 99.3009 106.267V127.46C99.3009 164.043 128.983 193.632 165.473 193.632H329V232.757H165.473C107.592 232.757 60.5107 185.334 60.5107 127.46V106.164C60.5107 69.4847 30.9257 40.3265 -5.66095 40.3265H-357V0.775635Z" fill="#BBD0EF" fill-opacity="0.5" stroke="#000085" stroke-width="2"/>
    <path opacity="0.5" fill-rule="evenodd" clip-rule="evenodd" d="M-12.2844 9.89515C-13.6778 9.89515 -14.8074 8.76561 -14.8074 7.37226C-14.8074 5.9789 -13.6778 4.84937 -12.2844 4.84937C-2.34202 4.84937 7.28158 5.96463 16.4471 8.15433C17.8024 8.4781 18.6385 9.83918 18.3148 11.1944C17.991 12.5496 16.6299 13.3858 15.2747 13.062C6.49633 10.9648 -2.73377 9.89515 -12.2844 9.89515Z" fill="white"/>
    <path opacity="0.5" fill-rule="evenodd" clip-rule="evenodd" d="M64.4677 40.8382C63.5074 39.8286 63.5474 38.2317 64.5571 37.2715C65.5667 36.3112 67.1636 36.3512 68.1239 37.3609C85.7859 55.9311 95.5253 80.7152 95.5253 108.172C95.5253 109.566 94.3958 110.695 93.0024 110.695C91.6091 110.695 90.4795 109.566 90.4795 108.172C90.4795 81.9994 81.2303 58.4629 64.4677 40.8382Z" fill="white"/>
    <path opacity="0.5" fill-rule="evenodd" clip-rule="evenodd" d="M90.4798 119.851C90.4798 118.458 91.6094 117.328 93.0027 117.328C94.3961 117.328 95.5256 118.458 95.5256 119.851V133.862C95.5256 135.255 94.3961 136.385 93.0027 136.385C91.6094 136.385 90.4798 135.255 90.4798 133.862V119.851Z" fill="white"/>
    <path opacity="0.5" fill-rule="evenodd" clip-rule="evenodd" d="M92.1175 148.103C91.8022 146.746 92.6469 145.39 94.0041 145.075C95.3613 144.759 96.7171 145.604 97.0324 146.961C103.866 176.377 132.774 198.684 164.76 198.684L245.288 197.633C246.681 197.614 247.825 198.729 247.843 200.122C247.861 201.516 246.747 202.66 245.353 202.678L164.793 203.729C130.456 203.729 99.4885 179.834 92.1175 148.103Z" fill="white"/>
    <path opacity="0.3" d="M252.121 223.5C253.514 223.5 254.644 224.63 254.644 226.023C254.644 227.416 253.514 228.546 252.121 228.546H166.045C106.486 228.546 63.2306 181.434 63.2306 119.437V102.67C63.2306 79.8437 51.4809 59.0768 32.5139 47.1898C22.1897 40.7194 10.2486 37.2371 -2.20992 37.2371H-307.791C-309.185 37.2371 -310.314 36.1075 -310.314 34.7142C-310.314 33.3208 -309.185 32.1913 -307.791 32.1913H-2.20992C11.2033 32.1913 24.0717 35.9441 35.1935 42.9143C55.6178 55.7147 68.2764 78.0879 68.2764 102.67V119.437C68.2764 178.739 109.373 223.5 166.045 223.5H252.121Z" fill="#000D6D"/>
    <path opacity="0.2" fill-rule="evenodd" clip-rule="evenodd" d="M80.1061 104.449C90.5365 104.449 98.9921 112.91 98.9921 123.347C98.9921 133.785 90.5365 142.246 80.1061 142.246C69.6756 142.246 61.22 133.785 61.22 123.347C61.22 112.91 69.6756 104.449 80.1061 104.449Z" stroke="#000D6D" stroke-width="1.2075"/>
    <path d="M59.7497 124.961C59.7497 113.09 68.7669 103.456 79.9054 103.456C91.0439 103.456 100.061 113.09 100.061 124.961C100.061 125.266 99.8172 125.513 99.5164 125.513C99.2155 125.513 98.9716 125.266 98.9716 124.961C98.9716 113.687 90.4286 104.558 79.9054 104.558C69.3822 104.558 60.8392 113.687 60.8392 124.961C60.8392 125.266 60.5953 125.513 60.2944 125.513C59.9936 125.513 59.7497 125.266 59.7497 124.961Z" fill="#000085"/>
    <path opacity="0.2" fill-rule="evenodd" clip-rule="evenodd" d="M196.276 193.966C206.988 193.966 215.671 202.65 215.671 213.361C215.671 224.073 206.988 232.757 196.276 232.757C185.565 232.757 176.881 224.073 176.881 213.361C176.881 202.65 185.565 193.966 196.276 193.966Z" stroke="#000D6D" stroke-width="1.2075"/>
    <path d="M197.523 233.415C185.826 233.415 176.331 224.421 176.331 213.31C176.331 202.2 185.826 193.206 197.523 193.206C197.823 193.206 198.066 193.449 198.066 193.749C198.066 194.049 197.823 194.292 197.523 194.292C186.413 194.292 177.418 202.814 177.418 213.31C177.418 223.807 186.413 232.328 197.523 232.328C197.823 232.328 198.066 232.572 198.066 232.872C198.066 233.172 197.823 233.415 197.523 233.415Z" fill="#000085"/>
    <path d="M1798 0.775635H1446.66C1388.68 0.775635 1341.7 48.2963 1341.7 106.267V127.46C1341.7 164.043 1312.02 193.632 1275.53 193.632H1112V232.757H1275.53C1333.41 232.757 1380.49 185.334 1380.49 127.46V106.164C1380.49 69.4847 1410.07 40.3265 1446.66 40.3265H1798V0.775635Z" fill="#BBD0EF" fill-opacity="0.5" stroke="#000085" stroke-width="2"/>
    <path opacity="0.5" fill-rule="evenodd" clip-rule="evenodd" d="M1453.28 9.89515C1454.68 9.89515 1455.81 8.76561 1455.81 7.37226C1455.81 5.9789 1454.68 4.84937 1453.28 4.84937C1443.34 4.84937 1433.72 5.96463 1424.55 8.15433C1423.2 8.4781 1422.36 9.83918 1422.69 11.1944C1423.01 12.5496 1424.37 13.3858 1425.73 13.062C1434.5 10.9648 1443.73 9.89515 1453.28 9.89515Z" fill="white"/>
    <path opacity="0.5" fill-rule="evenodd" clip-rule="evenodd" d="M1376.53 40.8382C1377.49 39.8286 1377.45 38.2317 1376.44 37.2715C1375.43 36.3112 1373.84 36.3512 1372.88 37.3609C1355.21 55.9311 1345.47 80.7152 1345.47 108.172C1345.47 109.566 1346.6 110.695 1348 110.695C1349.39 110.695 1350.52 109.566 1350.52 108.172C1350.52 81.9994 1359.77 58.4629 1376.53 40.8382Z" fill="white"/>
    <path opacity="0.5" fill-rule="evenodd" clip-rule="evenodd" d="M1350.52 119.851C1350.52 118.458 1349.39 117.328 1348 117.328C1346.6 117.328 1345.47 118.458 1345.47 119.851V133.862C1345.47 135.255 1346.6 136.385 1348 136.385C1349.39 136.385 1350.52 135.255 1350.52 133.862V119.851Z" fill="white"/>
    <path opacity="0.5" fill-rule="evenodd" clip-rule="evenodd" d="M1348.88 148.103C1349.2 146.746 1348.35 145.39 1347 145.075C1345.64 144.759 1344.28 145.604 1343.97 146.961C1337.13 176.377 1308.23 198.684 1276.24 198.684L1195.71 197.633C1194.32 197.614 1193.18 198.729 1193.16 200.122C1193.14 201.516 1194.25 202.66 1195.65 202.678L1276.21 203.729C1310.54 203.729 1341.51 179.834 1348.88 148.103Z" fill="white"/>
    <path opacity="0.3" d="M1188.88 223.5C1187.49 223.5 1186.36 224.63 1186.36 226.023C1186.36 227.416 1187.49 228.546 1188.88 228.546H1274.95C1334.51 228.546 1377.77 181.434 1377.77 119.437V102.67C1377.77 79.8437 1389.52 59.0768 1408.49 47.1898C1418.81 40.7194 1430.75 37.2371 1443.21 37.2371H1748.79C1750.18 37.2371 1751.31 36.1075 1751.31 34.7142C1751.31 33.3208 1750.18 32.1913 1748.79 32.1913H1443.21C1429.8 32.1913 1416.93 35.9441 1405.81 42.9143C1385.38 55.7147 1372.72 78.0879 1372.72 102.67V119.437C1372.72 178.739 1331.63 223.5 1274.95 223.5H1188.88Z" fill="#000D6D"/>
    <path opacity="0.2" fill-rule="evenodd" clip-rule="evenodd" d="M1360.89 104.449C1350.46 104.449 1342.01 112.91 1342.01 123.347C1342.01 133.785 1350.46 142.246 1360.89 142.246C1371.32 142.246 1379.78 133.785 1379.78 123.347C1379.78 112.91 1371.32 104.449 1360.89 104.449Z" stroke="#000D6D" stroke-width="1.2075"/>
    <path d="M1381.25 124.961C1381.25 113.09 1372.23 103.456 1361.09 103.456C1349.96 103.456 1340.94 113.09 1340.94 124.961C1340.94 125.266 1341.18 125.513 1341.48 125.513C1341.78 125.513 1342.03 125.266 1342.03 124.961C1342.03 113.687 1350.57 104.558 1361.09 104.558C1371.62 104.558 1380.16 113.687 1380.16 124.961C1380.16 125.266 1380.4 125.513 1380.71 125.513C1381.01 125.513 1381.25 125.266 1381.25 124.961Z" fill="#000085"/>
    <path opacity="0.2" fill-rule="evenodd" clip-rule="evenodd" d="M1244.72 193.966C1234.01 193.966 1225.33 202.65 1225.33 213.361C1225.33 224.073 1234.01 232.757 1244.72 232.757C1255.44 232.757 1264.12 224.073 1264.12 213.361C1264.12 202.65 1255.44 193.966 1244.72 193.966Z" stroke="#000D6D" stroke-width="1.2075"/>
    <path d="M1243.48 233.415C1255.17 233.415 1264.67 224.421 1264.67 213.31C1264.67 202.2 1255.17 193.206 1243.48 193.206C1243.18 193.206 1242.93 193.449 1242.93 193.749C1242.93 194.049 1243.18 194.292 1243.48 194.292C1254.59 194.292 1263.58 202.814 1263.58 213.31C1263.58 223.807 1254.59 232.328 1243.48 232.328C1243.18 232.328 1242.93 232.572 1242.93 232.872C1242.93 233.172 1243.18 233.415 1243.48 233.415Z" fill="#000085"/>
    <path opacity="0.4" d="M902.989 370.477C913.124 370.477 921.416 378.811 921.416 388.996V426.961C921.416 470.944 885.76 507.5 841.997 507.5C827 507.5 822 498.186 822 488C822 475.5 831.862 469.741 841.997 469.741C865.491 469.741 884.562 450.573 884.562 426.961V388.996C884.562 378.811 892.762 370.477 902.989 370.477Z" fill="white"/>
    <path fill-rule="evenodd" clip-rule="evenodd" d="M902.989 369.644C913.585 369.644 922.248 378.352 922.248 388.996V426.961C922.248 471.403 885.224 508 841 508C829.5 508 822 499.145 822 488.5C822 477.855 829 468.908 841.996 468.908C865.03 468.908 883.729 450.114 883.729 426.961V388.996C883.729 378.32 892.332 369.644 902.989 369.644Z" stroke="#000085" stroke-width="2"/>
    <path opacity="0.5" d="M906.484 455.333C907.052 454.163 908.471 453.67 909.653 454.233C910.836 454.795 911.333 456.2 910.765 457.37C908.587 461.855 906.525 465.601 904.374 468.918C903.666 470.011 902.197 470.329 901.093 469.627C899.989 468.926 899.668 467.471 900.376 466.379C902.412 463.238 904.385 459.656 906.484 455.333Z" fill="white"/>
    <path opacity="0.5" d="M911.818 386.291C911.818 385.026 912.978 384 914.409 384C915.84 384 917 385.026 917 386.291L916.998 427.623C916.676 434.918 915.718 442.495 914.074 447.364C913.665 448.576 912.222 449.266 910.851 448.904C909.479 448.542 908.7 447.265 909.109 446.053C910.594 441.654 911.514 434.378 911.818 427.534V386.291Z" fill="white"/>
    <path opacity="0.3" d="M854.5 475.5C853.671 475.654 852 473.5 847.5 471.5C851.074 471.147 851.775 470.64 852.604 470.487C871.891 466.915 887.031 448.678 887.031 428.712L887.421 397.248C887.443 395.984 888.487 394.978 889.751 395C891.015 395.023 892.022 396.066 892 397.329C891.848 405.857 891.848 415.393 891.61 428.753C891.61 450.883 875.96 471.526 854.5 475.5Z" fill="#000085"/>
    <path fill-rule="evenodd" clip-rule="evenodd" d="M841 470C851.493 470 860 478.507 860 489C860 499.493 851.493 508 841 508C830.507 508 822 499.493 822 489C822 478.507 830.507 470 841 470Z" stroke="#000085" stroke-width="2"/>
    <path fill-rule="evenodd" clip-rule="evenodd" d="M840.5 476C847.956 476 854 482.044 854 489.5C854 496.956 847.956 503 840.5 503C833.044 503 827 496.956 827 489.5C827 482.044 833.044 476 840.5 476Z" stroke="#000085"/>
    <path opacity="0.4" d="M734.989 370.477C745.124 370.477 753.416 378.811 753.416 388.996V426.961C753.416 470.944 717.76 507.5 673.997 507.5C659 507.5 654 498.186 654 488C654 475.5 663.862 469.741 673.997 469.741C697.491 469.741 716.562 450.573 716.562 426.961V388.996C716.562 378.811 724.762 370.477 734.989 370.477Z" fill="white"/>
    <path fill-rule="evenodd" clip-rule="evenodd" d="M734.989 369.644C745.585 369.644 754.248 378.352 754.248 388.996V426.961C754.248 471.403 717.224 508 673 508C661.5 508 654 499.145 654 488.5C654 477.855 661 468.908 673.996 468.908C697.03 468.908 715.729 450.114 715.729 426.961V388.996C715.729 378.32 724.332 369.644 734.989 369.644Z" stroke="#000085" stroke-width="2"/>
    <path opacity="0.5" d="M738.484 455.333C739.052 454.163 740.471 453.67 741.653 454.233C742.836 454.795 743.333 456.2 742.765 457.37C740.587 461.855 738.525 465.601 736.374 468.918C735.666 470.011 734.197 470.329 733.093 469.627C731.989 468.926 731.668 467.471 732.376 466.379C734.412 463.238 736.385 459.656 738.484 455.333Z" fill="white"/>
    <path opacity="0.5" d="M743.818 386.291C743.818 385.026 744.978 384 746.409 384C747.84 384 749 385.026 749 386.291L748.998 427.623C748.676 434.918 747.718 442.495 746.074 447.364C745.665 448.576 744.222 449.266 742.851 448.904C741.479 448.542 740.7 447.265 741.109 446.053C742.594 441.654 743.514 434.378 743.818 427.534V386.291Z" fill="white"/>
    <path opacity="0.3" d="M686.5 475.5C685.671 475.654 684 473.5 679.5 471.5C683.074 471.147 683.775 470.64 684.604 470.487C703.891 466.915 719.031 448.678 719.031 428.712L719.421 397.248C719.443 395.984 720.487 394.978 721.751 395C723.015 395.023 724.022 396.066 724 397.329C723.848 405.857 723.848 415.393 723.61 428.753C723.61 450.883 707.96 471.526 686.5 475.5Z" fill="#000085"/>
    <path fill-rule="evenodd" clip-rule="evenodd" d="M673 470C683.493 470 692 478.507 692 489C692 499.493 683.493 508 673 508C662.507 508 654 499.493 654 489C654 478.507 662.507 470 673 470Z" stroke="#000085" stroke-width="2"/>
    <path fill-rule="evenodd" clip-rule="evenodd" d="M672.5 476C679.956 476 686 482.044 686 489.5C686 496.956 679.956 503 672.5 503C665.044 503 659 496.956 659 489.5C659 482.044 665.044 476 672.5 476Z" stroke="#000085"/>
    <path opacity="0.4" d="M566.989 370.477C577.124 370.477 585.416 378.811 585.416 388.996V426.961C585.416 470.944 549.76 507.5 505.997 507.5C491 507.5 486 498.186 486 488C486 475.5 495.862 469.741 505.997 469.741C529.491 469.741 548.562 450.573 548.562 426.961V388.996C548.562 378.811 556.762 370.477 566.989 370.477Z" fill="white"/>
    <path fill-rule="evenodd" clip-rule="evenodd" d="M566.989 369.644C577.585 369.644 586.248 378.352 586.248 388.996V426.961C586.248 471.403 549.224 508 505 508C493.5 508 486 499.145 486 488.5C486 477.855 493 468.908 505.996 468.908C529.03 468.908 547.729 450.114 547.729 426.961V388.996C547.729 378.32 556.332 369.644 566.989 369.644Z" stroke="#000085" stroke-width="2"/>
    <path opacity="0.5" d="M570.484 455.333C571.052 454.163 572.471 453.67 573.653 454.233C574.836 454.795 575.333 456.2 574.765 457.37C572.587 461.855 570.525 465.601 568.374 468.918C567.666 470.011 566.197 470.329 565.093 469.627C563.989 468.926 563.668 467.471 564.376 466.379C566.412 463.238 568.385 459.656 570.484 455.333Z" fill="white"/>
    <path opacity="0.5" d="M575.818 386.291C575.818 385.026 576.978 384 578.409 384C579.84 384 581 385.026 581 386.291L580.998 427.623C580.676 434.918 579.718 442.495 578.074 447.364C577.665 448.576 576.222 449.266 574.851 448.904C573.479 448.542 572.7 447.265 573.109 446.053C574.594 441.654 575.514 434.378 575.818 427.534V386.291Z" fill="white"/>
    <path opacity="0.3" d="M518.5 475.5C517.671 475.654 516 473.5 511.5 471.5C515.074 471.147 515.775 470.64 516.604 470.487C535.891 466.915 551.031 448.678 551.031 428.712L551.421 397.248C551.443 395.984 552.487 394.978 553.751 395C555.015 395.023 556.022 396.066 556 397.329C555.848 405.857 555.848 415.393 555.61 428.753C555.61 450.883 539.96 471.526 518.5 475.5Z" fill="#000085"/>
    <path fill-rule="evenodd" clip-rule="evenodd" d="M505 470C515.493 470 524 478.507 524 489C524 499.493 515.493 508 505 508C494.507 508 486 499.493 486 489C486 478.507 494.507 470 505 470Z" stroke="#000085" stroke-width="2"/>
    <path fill-rule="evenodd" clip-rule="evenodd" d="M504.5 476C511.956 476 518 482.044 518 489.5C518 496.956 511.956 503 504.5 503C497.044 503 491 496.956 491 489.5C491 482.044 497.044 476 504.5 476Z" stroke="#000085"/>
    <path opacity="0.4" d="M398.989 370.477C409.124 370.477 417.416 378.811 417.416 388.996V426.961C417.416 470.944 381.76 507.5 337.997 507.5C323 507.5 318 498.186 318 488C318 475.5 327.862 469.741 337.997 469.741C361.491 469.741 380.562 450.573 380.562 426.961V388.996C380.562 378.811 388.762 370.477 398.989 370.477Z" fill="white"/>
    <path fill-rule="evenodd" clip-rule="evenodd" d="M398.989 369.644C409.585 369.644 418.248 378.352 418.248 388.996V426.961C418.248 471.403 381.224 508 337 508C325.5 508 318 499.145 318 488.5C318 477.855 325 468.908 337.996 468.908C361.03 468.908 379.729 450.114 379.729 426.961V388.996C379.729 378.32 388.332 369.644 398.989 369.644Z" stroke="#000085" stroke-width="2"/>
    <path opacity="0.5" d="M402.484 455.333C403.052 454.163 404.471 453.67 405.653 454.233C406.836 454.795 407.333 456.2 406.765 457.37C404.587 461.855 402.525 465.601 400.374 468.918C399.666 470.011 398.197 470.329 397.093 469.627C395.989 468.926 395.668 467.471 396.376 466.379C398.412 463.238 400.385 459.656 402.484 455.333Z" fill="white"/>
    <path opacity="0.5" d="M407.818 386.291C407.818 385.026 408.978 384 410.409 384C411.84 384 413 385.026 413 386.291L412.998 427.623C412.676 434.918 411.718 442.495 410.074 447.364C409.665 448.576 408.222 449.266 406.851 448.904C405.479 448.542 404.7 447.265 405.109 446.053C406.594 441.654 407.514 434.378 407.818 427.534V386.291Z" fill="white"/>
    <path opacity="0.3" d="M350.5 475.5C349.671 475.654 348 473.5 343.5 471.5C347.074 471.147 347.775 470.64 348.604 470.487C367.891 466.915 383.031 448.678 383.031 428.712L383.421 397.248C383.443 395.984 384.487 394.978 385.751 395C387.015 395.023 388.022 396.066 388 397.329C387.848 405.857 387.848 415.393 387.61 428.753C387.61 450.883 371.96 471.526 350.5 475.5Z" fill="#000085"/>
    <path fill-rule="evenodd" clip-rule="evenodd" d="M337 470C347.493 470 356 478.507 356 489C356 499.493 347.493 508 337 508C326.507 508 318 499.493 318 489C318 478.507 326.507 470 337 470Z" stroke="#000085" stroke-width="2"/>
    <path fill-rule="evenodd" clip-rule="evenodd" d="M336.5 476C343.956 476 350 482.044 350 489.5C350 496.956 343.956 503 336.5 503C329.044 503 323 496.956 323 489.5C323 482.044 329.044 476 336.5 476Z" stroke="#000085"/>
    <path d="M260 153H1005.21V430H260V153Z" fill="white" stroke="#000085" stroke-width="2"/>
    <path d="M1003 153H1002V154V429V430H1003H1180H1181V429V428.641V428.282V427.924V427.566V427.209V426.852V426.495V426.138V425.782V425.426V425.071V424.716V424.361V424.007V423.653V423.299V422.946V422.593V422.24V421.888V421.536V421.184V420.833V420.482V420.132V419.782V419.432V419.083V418.734V418.385V418.037V417.689V417.341V416.994V416.647V416.3V415.954V415.608V415.262V414.917V414.572V414.228V413.884V413.54V413.197V412.854V412.511V412.169V411.827V411.485V411.144V410.803V410.462V410.122V409.782V409.443V409.104V408.765V408.426V408.088V407.751V407.413V407.076V406.739V406.403V406.067V405.732V405.396V405.061V404.727V404.393V404.059V403.725V403.392V403.059V402.727V402.395V402.063V401.732V401.401V401.07V400.74V400.41V400.08V399.751V399.422V399.094V398.765V398.438V398.11V397.783V397.456V397.13V396.804V396.478V396.153V395.828V395.503V395.179V394.855V394.531V394.208V393.885V393.563V393.24V392.919V392.597V392.276V391.955V391.635V391.315V390.995V390.676V390.357V390.038V389.72V389.402V389.085V388.767V388.45V388.134V387.818V387.502V387.187V386.871V386.557V386.242V385.928V385.615V385.301V384.988V384.676V384.363V384.052V383.74V383.429V383.118V382.807V382.497V382.188V381.878V381.569V381.26V380.952V380.644V380.336V380.029V379.722V379.415V379.109V378.803V378.498V378.193V377.888V377.583V377.279V376.975V376.672V376.369V376.066V375.764V375.462V375.16V374.859V374.558V374.257V373.957V373.657V373.358V373.059V372.76V372.461V372.163V371.866V371.568V371.271V370.974V370.678V370.382V370.087V369.791V369.496V369.202V368.908V368.614V368.32V368.027V367.734V367.442V367.15V366.858V366.567V366.276V365.985V365.695V365.405V365.115V364.826V364.537V364.248V363.96V363.672V363.385V363.098V362.811V362.524V362.238V361.953V361.667V361.382V361.098V360.813V360.529V360.246V359.963V359.68V359.397V359.115V358.833V358.552V358.271V357.99V357.709V357.429V357.15V356.87V356.591V356.313V356.034V355.756V355.479V355.202V354.925V354.648V354.372V354.096V353.821V353.546V353.271V352.997V352.723V352.449V352.176V351.903V351.63V351.358V351.086V350.814V350.543V350.272V350.002V349.731V349.462V349.192V348.923V348.654V348.386V348.118V347.85V347.583V347.316V347.049V346.783V346.517V346.252V345.987V345.722V345.457V345.193V344.929V344.666V344.403V344.14V343.878V343.616V343.354V343.093V342.832V342.571V342.311V342.051V341.792V341.532V341.274V341.015V340.757V340.499V340.242V339.985V339.728V339.472V339.216V338.96V338.705V338.45V338.195V337.941V337.687V337.434V337.181V336.928V336.675V336.423V336.171V335.92V335.669V335.418V335.168V334.918V334.668V334.419V334.17V333.922V333.673V333.426V333.178V332.931V332.684V332.438V332.192V331.946V331.701V331.456V331.211V330.967V330.723V330.479V330.236V329.993V329.75V329.508V329.266V329.025V328.784V328.543V328.302V328.062V327.823V327.583V327.344V327.106V326.867V326.629V326.392V326.155V325.918V325.681V325.445V325.209V324.974V324.739V324.504V324.269V324.035V323.802V323.568V323.335V323.103V322.87V322.638V322.407V322.176V321.945V321.714V321.484V321.254V321.025V320.796V320.567V320.339V320.111V319.883V319.656V319.429V319.202V318.976V318.75V318.524V318.299V318.074V317.85V317.626V317.402V317.178V316.955V316.732V316.51V316.288V316.066V315.845V315.624V315.404V315.183V314.963V314.744V314.525V314.306V314.087V313.869V313.651V313.434V313.217V313V312.784V312.568V312.352V312.137V311.922V311.707V311.493V311.279V311.066V310.853V310.64V310.427V310.215V310.003V309.792V309.581V309.37V309.16V308.95V308.74V308.531V308.322V308.114V307.905V307.697V307.49V307.283V307.076V306.87V306.663V306.458V306.252V306.047V305.843V305.638V305.434V305.231V305.027V304.824V304.622V304.42V304.218V304.016V303.815V303.614V303.414V303.214V303.014V302.815V302.616V302.417V302.219V302.021V301.823V301.626V301.429V301.233V301.036V300.841V300.645V300.45V300.255V300.061V299.867V299.673V299.48V299.287V299.094V298.902V298.71V298.518V298.327V298.136V297.945V297.755V297.565V297.376V297.187V296.998V296.81V296.622V296.434V296.247V296.06V295.873V295.687V295.501V295.315V295.13V294.945V294.761V294.577V294.393V294.209V294.026V293.843V293.661V293.479V293.297V293.116V292.935V292.754V292.574V292.394V292.215V292.035V291.857V291.678V291.5V291.322V291.143V290.965V290.785V290.606V290.426V290.246V290.065V289.884V289.703V289.521V289.339V289.157V288.974V288.791V288.607V288.423V288.239V288.055V287.87V287.685V287.499V287.313V287.127V286.94V286.753V286.566V286.378V286.19V286.002V285.813V285.624V285.434V285.245V285.055V284.864V284.673V284.482V284.29V284.098V283.906V283.713V283.52V283.327V283.133V282.939V282.745V282.55V282.355V282.159V281.964V281.767V281.571V281.374V281.177V280.979V280.781V280.583V280.384V280.185V279.986V279.786V279.586V279.386V279.185V278.984V278.782V278.58V278.378V278.176V277.973V277.769V277.566V277.362V277.157V276.953V276.748V276.542V276.337V276.13V275.924V275.717V275.51V275.303V275.095V274.886V274.678V274.469V274.26V274.05V273.84V273.63V273.419V273.208V272.997V272.785V272.573V272.36V272.147V271.934V271.721V271.507V271.293V271.078V270.863V270.648V270.432V270.216V270V269.783V269.566V269.349V269.131V268.913V268.694V268.475V268.256V268.037V267.817V267.596V267.376V267.155V266.934V266.712V266.49V266.268V266.045V265.822V265.598V265.374V265.15V264.926V264.701V264.476V264.25V264.024V263.798V263.571V263.344V263.117V262.889V262.661V262.433V262.204V261.975V261.746V261.516V261.286V261.055V260.824V260.593V260.362V260.13V259.897V259.665V259.432V259.198V258.965V258.731V258.496V258.261V258.026V257.791V257.555V257.319V257.082V256.845V256.608V256.371V256.133V255.894V255.656V255.417V255.177V254.938V254.698V254.457V254.216V253.975V253.734V253.492V253.25V253.007V252.764V252.521V252.277V252.033V251.789V251.544V251.299V251.054V250.808V250.562V250.316V250.069V249.822V249.574V249.327V249.078V248.83V248.581V248.332V248.082V247.832V247.582V247.331V247.08V246.829V246.577V246.325V246.072V245.819V245.566V245.313V245.059V244.805V244.55V244.295V244.04V243.784V243.528V243.272V243.015V242.758V242.501V242.243V241.985V241.726V241.468V241.208V240.949V240.689V240.429V240.168V239.907V239.646V239.384V239.122V238.86V238.597V238.334V238.071V237.807V237.543V237.278V237.013V236.748V236.483V236.217V235.951V235.684V235.417V235.15V234.882V234.614V234.346V234.077V233.808V233.538V233.269V232.998V232.728V232.457V232.186V231.914V231.642V231.37V231.097V230.824V230.551V230.277V230.003V229.729V229.454V229.179V228.904V228.628V228.352V228.075V227.798V227.521V227.244V226.966V226.687V226.409V226.13V225.85V225.571V225.291V225.01V224.729V224.448V224.167V223.885V223.603V223.32V223.037V222.754V222.471V222.187V221.902V221.618V221.333V221.047V220.762V220.476V220.189V219.902V219.615V219.328V219.04V218.752V218.463V218.174V217.885V217.595V217.305V217.015V216.724V216.433V216.142V215.85V215.558V215.266V214.973V214.68V214.386V214.092V213.798V213.504V213.209V212.913V212.618V212.322V212.026V211.729V211.432V211.134V210.837V210.539V210.24V209.941V209.642V209.343V209.043V208.743V208.442V208.141V207.84V207.538V207.236V206.934V206.631V206.328V206.025V205.721V205.417V205.112V204.807V204.502V204.197V203.891V203.585V203.278V202.971V202.664V202.356V202.048V201.74V201.431V201.122V200.812V200.503V200.193V199.882V199.571V199.26V198.948V198.637V198.324V198.012V197.699V197.385V197.072V196.758V196.443V196.129V195.813V195.498V195.182V194.866V194.55V194.233V193.916V193.598V193.28V192.962V192.643V192.324V192.005V191.685V191.365V191.045V190.724V190.403V190.081V189.76V189.437V189.115V188.792V188.469V188.145V187.821V187.497V187.172V186.847V186.522V186.196V185.87V185.544V185.217V184.89V184.562V184.235V183.906V183.578V183.249V182.92V182.59V182.26V181.93V181.599V181.268V180.937V180.605V180.273V179.941V179.608V179.275V178.941V178.607V178.273V177.939V177.604V177.268V176.933V176.597V176.261V175.924V175.587V175.249V174.912V174.574V174.235V173.896V173.557V173.218V172.878V172.538V172.197V171.856V171.515V171.173V170.831V170.489V170.146V169.803V169.46V169.116V168.772V168.428V168.083V167.738V167.392V167.046V166.7V166.353V166.006V165.659V165.311V164.963V164.615V164.266V163.917V163.568V163.218V162.868V162.518V162.167V161.816V161.464V161.112V160.76V160.407V160.054V159.701V159.347V158.993V158.639V158.284V157.929V157.574V157.218V156.862V156.505V156.149V155.791V155.434V155.076V154.718V154.359V154V153H1180H1003Z" fill="#CBE2FF" stroke="#000085" stroke-width="2"/>
    <path d="M1027 181H1156V402H1027V181Z" fill="#BED1F4" stroke="#000085" stroke-width="2"/>
    <path d="M1148 181H1156V402H1148V181Z" fill="white" stroke="#000085" stroke-width="2"/>
    <path d="M1125 198H1132V208H1125V198Z" fill="white" stroke="#000085" stroke-width="2"/>
    <path d="M1044 198H1125V208H1044V198Z" fill="#000085" stroke="#000085" stroke-width="2"/>
    <path d="M1125 220H1132V230H1125V220Z" fill="white" stroke="#000085" stroke-width="2"/>
    <path d="M1044 220H1125V230H1044V220Z" fill="#000085" stroke="#000085" stroke-width="2"/>
    <path d="M1125 242H1132V252H1125V242Z" fill="white" stroke="#000085" stroke-width="2"/>
    <path d="M1044 242H1125V252H1044V242Z" fill="#000085" stroke="#000085" stroke-width="2"/>
    <path d="M1125 264H1132V274H1125V264Z" fill="white" stroke="#000085" stroke-width="2"/>
    <path d="M1044 264H1125V274H1044V264Z" fill="#000085" stroke="#000085" stroke-width="2"/>
    <path d="M1125 286H1132V296H1125V286Z" fill="white" stroke="#000085" stroke-width="2"/>
    <path d="M1044 286H1125V296H1044V286Z" fill="#000085" stroke="#000085" stroke-width="2"/>
    <path d="M1125 308H1132V318H1125V308Z" fill="white" stroke="#000085" stroke-width="2"/>
    <path d="M1044 308H1125V318H1044V308Z" fill="#000085" stroke="#000085" stroke-width="2"/>
    <path d="M1125 330H1132V340H1125V330Z" fill="white" stroke="#000085" stroke-width="2"/>
    <path d="M1044 330H1125V340H1044V330Z" fill="#000085" stroke="#000085" stroke-width="2"/>
    <path d="M1125 352H1132V362H1125V352Z" fill="white" stroke="#000085" stroke-width="2"/>
    <path d="M1044 352H1125V362H1044V352Z" fill="#000085" stroke="#000085" stroke-width="2"/>
    <path d="M1125 374H1132V384H1125V374Z" fill="white" stroke="#000085" stroke-width="2"/>
    <path d="M1044 374H1125V384H1044V374Z" fill="#000085" stroke="#000085" stroke-width="2"/>
    <circle cx="1016" cy="167" r="2.5" fill="white" stroke="#000085"/>
    <circle cx="1167" cy="167" r="2.5" fill="white" stroke="#000085"/>
    <circle cx="1016" cy="416" r="2.5" fill="white" stroke="#000085"/>
    <circle cx="1167" cy="416" r="2.5" fill="white" stroke="#000085"/>
    <path opacity="0.5" d="M992 429H261V258C261 258 281.199 348.129 321.862 311.92C391.715 249.848 493.372 251.362 541.077 324.537C541.077 324.537 570.04 365.288 616.836 359.61L647.504 352.545C666.472 348.129 686.235 353.933 700.774 368.315C718.379 385.726 740.301 396.576 763.585 399.604L992 429Z" fill="#DCEBFF"/>
    <path d="M857.041 193.844H866.958V384.156H857.041V193.844Z" fill="#CBE2FF" stroke="#000085" stroke-width="2"/>
    <path d="M856 193H868V385H856V193Z" fill="#CBE2FF" stroke="#000085" stroke-width="2"/>
    <path d="M868 193H921V385H868V193Z" fill="#407BF7" stroke="#000085" stroke-width="2"/>
    <path opacity="0.2" d="M869 316V359L920 244.048V197L869 316Z" fill="white"/>
    <path opacity="0.2" d="M869 274.125V299L915 194H903L869 274.125Z" fill="white"/>
    <path d="M689.041 193.844H698.958V384.156H689.041V193.844Z" fill="#CBE2FF" stroke="#000085" stroke-width="2"/>
    <path d="M688 193H700V385H688V193Z" fill="#CBE2FF" stroke="#000085" stroke-width="2"/>
    <path d="M700 193H753V385H700V193Z" fill="#407BF7" stroke="#000085" stroke-width="2"/>
    <path opacity="0.2" d="M701 384V359L752 244.047V315L723 384H701Z" fill="white"/>
    <path d="M521.041 193.844H530.958V384.156H521.041V193.844Z" fill="#CBE2FF" stroke="#000085" stroke-width="2"/>
    <path d="M520 193H532V385H520V193Z" fill="#CBE2FF" stroke="#000085" stroke-width="2"/>
    <path d="M532 193H585V385H532V193Z" fill="#407BF7" stroke="#000085" stroke-width="2"/>
    <path opacity="0.2" d="M533 341V384L584 269.048V222L533 341Z" fill="white"/>
    <path opacity="0.2" d="M533 315V328L584 211.048V196L533 315Z" fill="white"/>
    <path d="M353.041 193.844H362.958V384.156H353.041V193.844Z" fill="#CBE2FF" stroke="#000085" stroke-width="2"/>
    <path d="M352 193H364V385H352V193Z" fill="#CBE2FF" stroke="#000085" stroke-width="2"/>
    <path d="M364 193H417V385H364V193Z" fill="#407BF7" stroke="#000085" stroke-width="2"/>
    <path opacity="0.2" d="M365 227.125V299L411 194H379L365 227.125Z" fill="white"/>
    </g>
</svg>
    