<svg width="155" height="80" viewBox="0 0 155 80" fill="none" xmlns="http://www.w3.org/2000/svg">
<g clip-path="url(#clip0)">
<path d="M25.0951 40.7376L55.2001 57.9725C55.4408 58.109 55.7133 58.1804 55.9904 58.1796C56.2674 58.1787 56.5395 58.1056 56.7793 57.9675C57.0191 57.8295 57.2183 57.6313 57.3572 57.3928C57.496 57.1543 57.5695 56.8837 57.5705 56.6081V24.8496C57.5712 24.5735 57.4987 24.3021 57.3604 24.0628C57.222 23.8234 57.0227 23.6245 56.7826 23.4862C56.5424 23.3479 56.2698 23.2749 55.9922 23.2748C55.7147 23.2746 55.442 23.3472 55.2016 23.4852L25.0921 40.7376H25.0951ZM53.9908 15.4503L33.6069 0.323034C32.6593 -0.379511 31.3038 0.125216 31.0625 1.24522L23.6196 34.9092L53.8051 18.051C54.8083 17.4896 54.9004 16.1369 53.9908 15.4503ZM33.5879 79.6845L53.9894 64.5529C54.1986 64.3984 54.3655 64.1944 54.4751 63.9593C54.5846 63.7242 54.6333 63.4656 54.6165 63.207C54.5998 62.9484 54.5183 62.6981 54.3794 62.4789C54.2404 62.2597 54.0486 62.0786 53.8212 61.9521L23.6182 45.091L31.0625 78.7638C31.2848 79.8838 32.6593 80.3696 33.5879 79.6845" fill="white"/>
<path d="M16.9359 40.0084L25.0559 3.37136C25.3747 1.93136 23.6843 0.892811 22.4808 1.7859L1.69184 17.1706C1.1685 17.553 0.742754 18.0524 0.448895 18.6284C0.155037 19.2044 0.00127756 19.841 0 20.487L0 59.5124C0 60.807 0.62 62.0463 1.69184 62.8288L22.4808 78.2135C23.6843 79.1066 25.3761 78.0681 25.0544 76.6281L16.9359 40.0084V40.0084Z" fill="white"/>
<path d="M82.3458 37.1343C81.951 37.3481 81.4656 37.4543 80.9041 37.4543C80.7154 37.4543 80.2855 37.4368 79.5734 37.367V39.3015C80.1919 39.4615 80.8105 39.5154 81.4466 39.5154C82.4204 39.5154 83.2261 39.2681 83.8812 38.7881C84.5363 38.3081 85.1183 37.5619 85.6052 36.5306L91.1107 24.5932L88.5078 24.6295L85.1739 32.4448L81.9335 24.6295H79.3307L83.8447 34.8608L83.3767 35.8732C83.0755 36.4957 82.7202 36.9219 82.3458 37.1357V37.1343ZM95.2138 33.8848C95.6247 34.4346 96.1876 34.8608 96.8617 35.1634C97.5549 35.4659 98.3035 35.6245 99.1473 35.6245C100.738 35.6245 102.05 35.1095 103.081 34.0259C104.11 32.9612 104.653 31.6288 104.653 30.0288C104.653 28.4303 104.129 27.0979 103.062 26.0317C101.994 24.967 100.664 24.4332 99.0712 24.4332L99.1648 24.4157C97.5359 24.4157 96.2622 24.9306 95.3629 25.9619V18.9961H92.9473V35.3597H95.1933V33.8863H95.2123L95.2138 33.8848ZM96.2432 27.4528C96.9004 26.8496 97.7647 26.5191 98.6589 26.5292C99.6532 26.5292 100.476 26.8492 101.151 27.5066C101.825 28.1641 102.143 28.999 102.143 30.0114C102.143 31.0426 101.825 31.895 101.151 32.5525C100.476 33.2099 99.7088 33.5648 98.7159 33.5648H98.6779C97.742 33.5648 96.9378 33.2797 96.2622 32.6935C95.5881 32.1074 95.2503 31.2375 95.2503 30.0826C95.2503 28.9277 95.5691 28.0579 96.2447 27.4528H96.2432ZM73.6922 50.1379H73.6732C72.2694 50.1379 71.1449 50.583 70.2836 51.4528V50.3881H68.0361V61.1517H70.4518V54.7226C70.4518 53.9939 70.677 53.4077 71.1639 52.9452C71.6508 52.4841 72.2694 52.2528 73.0356 52.2528C73.7667 52.2528 74.3663 52.5001 74.8342 52.9452C75.3021 53.4077 75.5273 54.0114 75.5273 54.7575V61.1532H77.9444V54.4375C77.9444 53.1575 77.5701 52.1277 76.82 51.3466C76.0713 50.5655 75.0038 50.1394 73.6922 50.1394V50.1379ZM85.9796 50.1205C84.3492 50.1205 82.9644 50.6717 81.8399 51.7554C80.7154 52.839 80.1349 54.1699 80.1349 55.7525C80.1349 57.351 80.7154 58.6834 81.8589 59.7495C83.0009 60.8157 84.4617 61.3655 86.2033 61.3655C87.9273 61.3655 89.4261 60.7983 90.7173 59.6434L89.5767 58.0797C88.5634 58.9321 87.4594 59.3408 86.2793 59.3408C85.285 59.3408 84.4617 59.0921 83.7876 58.5946C83.1135 58.0972 82.7012 57.3874 82.552 56.4986H90.9805C91.1852 55.9648 91.2057 55.0586 91.2057 55.0586C91.2057 53.639 90.6998 52.4652 89.7069 51.5241C88.733 50.583 87.4784 50.1205 85.9781 50.1205H85.9796ZM82.6076 54.7226C82.7948 53.9226 83.1881 53.2826 83.7876 52.8026C84.3872 52.3226 85.0613 52.0928 85.867 52.0754C86.6712 52.0754 87.3468 52.3226 87.9083 52.8026C88.4523 53.2826 88.733 53.9226 88.752 54.7226H82.6076ZM112.932 35.6434C114.655 35.6434 116.153 35.0746 117.446 33.9197L116.304 32.3561C115.292 33.2099 114.187 33.6172 113.007 33.6172C112.014 33.6172 111.19 33.3699 110.516 32.871C109.841 32.3735 109.43 31.6637 109.279 30.7765H117.708C117.933 30.2063 117.933 29.3365 117.933 29.3365C117.933 27.9154 117.427 26.743 116.434 25.8019C115.441 24.8594 114.206 24.3983 112.707 24.3983C111.078 24.3983 109.692 24.9481 108.569 26.0317C107.443 27.1154 106.864 28.4477 106.864 30.0288C106.864 31.6288 107.444 32.9612 108.586 34.0259C109.73 35.1095 111.189 35.6434 112.932 35.6434V35.6434ZM110.497 27.0979C111.097 26.6179 111.77 26.3881 112.577 26.3706C113.381 26.3706 114.055 26.6179 114.618 27.0979C115.161 27.5779 115.441 28.2179 115.46 29.0179H109.319C109.506 28.199 109.899 27.5779 110.499 27.0979H110.497ZM99.2774 59.2695C98.5463 59.2695 97.9848 59.1459 97.6294 58.8623C97.2551 58.5772 97.0869 58.0972 97.0869 57.4223V52.3765H100.438V50.3881H97.0869V47.5808H94.6508V50.3881H92.8157V52.3765H94.6508V57.6172C94.6508 58.8608 95.0266 59.8019 95.7563 60.407C96.4874 61.0106 97.4978 61.3306 98.8095 61.3306C99.39 61.3306 100.045 61.2419 100.813 61.0819V59.1459C100.14 59.2157 99.6722 59.2695 99.3154 59.2695H99.2774V59.2695ZM115.592 57.2972L112.107 50.1394H111.284L107.857 57.3859L104.878 50.3881H102.312L107.332 61.3306H108.156L111.695 54.2063L115.235 61.3306H116.079L121.08 50.3881H118.513L115.592 57.2972ZM127.729 50.1379C126.043 50.1379 124.639 50.6906 123.495 51.7554C122.353 52.8215 121.773 54.1539 121.773 55.735C121.773 57.3161 122.353 58.6295 123.495 59.7132C124.639 60.7794 126.043 61.3306 127.729 61.3481C129.377 61.3481 130.782 60.7968 131.962 59.7132C133.142 58.6295 133.703 57.2986 133.703 55.7161C133.703 54.1539 133.104 52.8215 131.924 51.7379C130.782 50.6717 129.377 50.1568 127.729 50.1379ZM130.182 58.2034C129.508 58.8608 128.684 59.1808 127.691 59.1808C126.68 59.1808 125.856 58.8608 125.181 58.2034C124.507 57.5459 124.189 56.711 124.189 55.735C124.189 54.7226 124.507 53.9052 125.183 53.2477C125.856 52.5903 126.68 52.2703 127.691 52.2354H127.71C128.704 52.2528 129.527 52.5903 130.201 53.2303C130.875 53.8863 131.194 54.7226 131.194 55.7175C131.203 56.1786 131.118 56.6366 130.944 57.0641C130.77 57.4915 130.511 57.8796 130.182 58.2048V58.2034ZM141.459 50.2805H141.547H141.459ZM138.181 51.7728V50.3692H135.932V61.1343H138.349V55.3786C138.349 54.4376 138.668 53.7277 139.285 53.1939C139.903 52.679 140.689 52.4128 141.626 52.4128H142.357V50.3881C142.064 50.3128 141.761 50.2766 141.458 50.2805C140.091 50.2805 138.987 50.7779 138.181 51.7728ZM122.579 29.6739C122.579 28.7328 122.896 28.0215 123.514 27.4892C124.133 26.9743 124.918 26.7081 125.856 26.7081H126.587V24.6819C126.293 24.6071 125.991 24.5714 125.687 24.5757C124.301 24.5757 123.196 25.0906 122.391 26.0855V24.6819H120.142V35.431H122.56V29.6725H122.579V29.6739ZM125.687 24.5583H125.775H125.687ZM144.605 44.7212H147.02V61.1343H144.605V44.7212ZM149.943 55.095L154.494 50.3881H151.517L147.096 55.0775L152.021 61.1343H154.925L149.943 55.095ZM77.924 24.6645H74.9278L70.5264 29.3714L75.4542 35.4295H78.3568L73.3734 29.3903L77.924 24.6645ZM68.0361 19.015H70.4518V35.4295H68.0361V19.015Z" fill="white"/>
</g>
<defs>
<clipPath id="clip0">
<rect width="155" height="80" fill="white"/>
</clipPath>
</defs>
</svg>
