<svg viewBox="0 0 375 185" fill="none" xmlns="http://www.w3.org/2000/svg"
    class="w-100 mw-100 mb-sm-20 visible-sm">
        <path fill-rule="evenodd" clip-rule="evenodd"
            d="M78.1406 129.586V142.475H297.666V129.586C297.666 106.619 248.524 88 187.903 88C127.283 88 78.1406 106.619 78.1406 129.586Z"
            fill="#BED1F4" stroke="#000085" />
        <path
            d="M187.903 183.941C248.524 183.941 297.666 165.285 297.666 142.272C297.666 119.259 248.524 100.602 187.903 100.602C127.283 100.602 78.1406 119.259 78.1406 142.272C78.1406 165.285 127.283 183.941 187.903 183.941Z"
            fill="#000085" stroke="#000085" />
        <path d="M170.423 88.4063V95.3173" stroke="#000085" />
        <path d="M172.862 88.4063V98.5696" stroke="#000085" />
        <path d="M126.924 94.9111V97.7568" stroke="#000085" />
        <path d="M128.55 94.5044V96.537" stroke="#000085" />
        <path d="M159.446 99.3829V102.229" stroke="#000085" />
        <path d="M209.856 88.8131V100.196" stroke="#000085" />
        <path d="M223.271 90.0325V95.3174" stroke="#000085" />
        <path d="M78.1406 140.442C78.1406 131.441 82.8835 123.581 92.3691 116.863" stroke="#000085" />
        <path d="M93.5891 116.05L96.8413 113.611" stroke="#000085" />
        <path d="M172.39 80.5L-15.0977 80.5L-15.0977 61.5002L172.39 61.5698L172.39 80.5Z" fill="#BBD0EF"
            fill-opacity="0.5" stroke="#000085" />
        <path opacity="0.3"
            d="M-5.19254 65.5703L-5.19254 62.9987L170.958 62.9987L170.959 64.2298L170.96 65.5704L-5.19254 65.5703Z"
            fill="#000D6D" />
        <path opacity="0.5" d="M170.956 75.8568L170.959 78.4284L-10.3373 78.4284L-10.3373 75.8568L170.956 75.8568Z"
            fill="white" />
        <path opacity="0.2"
            d="M29.8443 61.7129C24.6959 61.7129 20.5222 65.8866 20.5222 71.035C20.5222 76.1835 24.6959 80.3571 29.8443 80.3571C34.9928 80.3571 39.1664 76.1835 39.1664 71.035C39.1664 65.8866 34.9928 61.7129 29.8443 61.7129Z"
            stroke="#000D6D" />
        <path
            d="M30.1656 81L30.1656 80.1484C35.0267 80.1484 38.9706 76.0699 38.9706 71.035C38.9706 66.0001 35.0267 61.9216 30.1656 61.9216L30.1656 61.07C35.4933 61.07 39.8091 65.5332 39.8091 71.035C39.8091 76.5368 35.4933 81 30.1656 81Z"
            fill="#000085" />
        <path opacity="0.2"
            d="M107.35 61.8045C102.073 61.8045 97.7953 66.006 97.7953 71.1888C97.7953 76.3716 102.073 80.5731 107.35 80.5731C112.627 80.5731 116.905 76.3716 116.905 71.1888C116.905 66.006 112.627 61.8045 107.35 61.8045Z"
            stroke="#000D6D" />
        <path
            d="M107.957 81L107.957 80.1484C112.818 80.1484 116.762 76.0699 116.762 71.035C116.762 66.0001 112.818 61.9217 107.957 61.9217L107.957 61.07C113.285 61.07 117.6 65.5332 117.6 71.035C117.6 76.5368 113.285 81 107.957 81Z"
            fill="#000085" />
        <path d="M204.903 61.5H392.391V80.4998L204.903 80.4302V61.5Z" fill="#BBD0EF" fill-opacity="0.5"
            stroke="#000085" />
        <path opacity="0.3" d="M382.486 76.4297V79.0013H206.335L206.334 77.7703L206.333 76.4297H382.486Z"
            fill="#000D6D" />
        <path opacity="0.5" d="M206.337 66.1432L206.334 63.5716H387.63V66.1432H206.337Z" fill="white" />
        <path opacity="0.2"
            d="M347.449 80.2871C352.597 80.2871 356.771 76.1135 356.771 70.965C356.771 65.8166 352.597 61.6429 347.449 61.6429C342.3 61.6429 338.127 65.8166 338.127 70.965C338.127 76.1135 342.3 80.2871 347.449 80.2871Z"
            stroke="#000D6D" />
        <path
            d="M347.127 61V61.8516C342.266 61.8516 338.322 65.9301 338.322 70.965C338.322 75.9999 342.266 80.0784 347.127 80.0784V80.93C341.8 80.93 337.484 76.4668 337.484 70.965C337.484 65.4632 341.8 61 347.127 61Z"
            fill="#000085" />
        <path opacity="0.2"
            d="M269.943 80.1955C275.22 80.1955 279.498 75.994 279.498 70.8112C279.498 65.6284 275.22 61.4269 269.943 61.4269C264.666 61.4269 260.388 65.6284 260.388 70.8112C260.388 75.994 264.666 80.1955 269.943 80.1955Z"
            stroke="#000D6D" />
        <path
            d="M269.336 61V61.8516C264.475 61.8516 260.531 65.9301 260.531 70.965C260.531 75.9999 264.475 80.0784 269.336 80.0784V80.93C264.008 80.93 259.693 76.4668 259.693 70.965C259.693 65.4632 264.008 61 269.336 61Z"
            fill="#000085" />
        <path d="M197.777 120V182.486H179.027V120L197.777 120Z" fill="#BBD0EF" fill-opacity="0.5" stroke="#000085" />
        <path opacity="0.3" d="M184.027 181.871L181.037 181.875L180.902 106.253L184.027 106.254V181.871Z"
            fill="#000D6D" />
        <path opacity="0.5" d="M193.402 107.504L195.794 107.5L195.902 181.246L194.706 181.248H193.402V107.504Z"
            fill="white" />
        <path opacity="0.2"
            d="M179.027 167.812C179.027 173.163 183.225 177.5 188.402 177.5C193.58 177.5 197.777 173.163 197.777 167.812C197.777 162.462 193.58 158.125 188.402 158.125C183.225 158.125 179.027 162.462 179.027 167.812Z"
            stroke="#000085" />
        <path d="M237.902 153.875V0.5H138.902V153.875H237.902Z" fill="#BED1F4" stroke="#000085" />
        <path d="M232.902 148.875V33H143.902V148.875H232.902Z" fill="#BED1F4" stroke="#000085" />
        <path d="M237.902 27V0.500002L138.902 0.500002V27L237.902 27Z" fill="white" stroke="#000085" />
        <path d="M232.902 22V5.5L143.902 5.5V22L232.902 22Z" fill="#DCEBFF" stroke="#000085" />
        <circle cx="226.527" cy="13.75" r="1.375" fill="#003CDA" stroke="#000085" />
        <circle cx="220.277" cy="13.75" r="1.375" fill="#33DFCC" stroke="#000085" />
        <path d="M232.902 8.875V5.5L143.902 5.5V8.875L232.902 8.875Z" fill="#5B88FF" stroke="#000085" />
        <path
            d="M157.152 91.625C157.152 74.3661 171.143 60.375 188.402 60.375C205.661 60.375 219.652 74.3661 219.652 91.625C219.652 108.884 205.661 122.875 188.402 122.875C171.143 122.875 157.152 108.884 157.152 91.625Z"
            fill="#BED1F4" stroke="#000085" />
        <path fill-rule="evenodd" clip-rule="evenodd"
            d="M204.353 110.608L207.037 107.677C213.589 100.519 215.247 90.1081 211.246 81.2474L209.875 78.2105L198.821 93.9563L202.981 98.3283L197.049 104.954L204.353 110.608ZM171.778 71.731L169.095 74.6627C162.543 81.8201 160.884 92.2312 164.885 101.092L166.257 104.129L177.31 88.383L173.15 84.0109L179.083 77.3856L171.778 71.731ZM207.414 75.0374L204.496 72.3412C197.372 65.7586 187.009 64.0927 178.19 68.1123L175.167 69.4899L190.839 80.5953L195.191 76.4155L201.785 82.376L207.414 75.0374ZM168.948 107.533L171.866 110.23C178.99 116.812 189.353 118.478 198.172 114.458L201.195 113.081L185.522 101.975L181.171 106.155L174.576 100.195L168.948 107.533Z"
            fill="#003CDA" />
</svg>