<svg width="1440" height="490" viewBox="0 0 1440 490" fill="none" xmlns="http://www.w3.org/2000/svg" class="svg-absolute bottom-40 mw-100 hidden-sm">
    <g>
    <path fill-rule="evenodd" clip-rule="evenodd" d="M450 352.295V384H990V352.295C990 295.799 869.117 250 720 250C570.883 250 450 295.799 450 352.295Z" fill="#BED1F4" stroke="#000085" stroke-width="2"/>
    <path d="M720 486C869.117 486 990 440.109 990 383.5C990 326.891 869.117 281 720 281C570.883 281 450 326.891 450 383.5C450 440.109 570.883 486 720 486Z" fill="#000085" stroke="#000085" stroke-width="2"/>
    <path d="M677 251V268" stroke="#000085" stroke-width="2"/>
    <path d="M683 251V276" stroke="#000085" stroke-width="2"/>
    <path d="M570 267V274" stroke="#000085" stroke-width="2"/>
    <path d="M574 266V271" stroke="#000085" stroke-width="2"/>
    <path d="M650 278V285" stroke="#000085" stroke-width="2"/>
    <path d="M774 252V280" stroke="#000085" stroke-width="2"/>
    <path d="M807 255V268" stroke="#000085" stroke-width="2"/>
    <path d="M450 379C450 356.858 461.667 337.525 485 321" stroke="#000085" stroke-width="2"/>
    <path d="M488 319L496 313" stroke="#000085" stroke-width="2"/>
    <path d="M406 141V140H420V141H406Z" fill="#000085"/>
    <path fill-rule="evenodd" clip-rule="evenodd" d="M250.662 35.7809C250.637 34.6823 250.001 34.7711 250 35.8687C249.993 47.8407 250.392 205 250.392 205C250.392 205 268 193.867 268 165.644C268 152.47 265.671 144.564 261.74 133.431C254.511 114.203 259.082 96.4853 259.697 87.0687C260.849 69.4159 251.425 69.4159 250.662 35.7809Z" fill="#000085"/>
    <mask id="path-15-inside-1" fill="white">
    <path d="M252 2C252 1.44772 251.552 1 251 1V1C250.448 1 250 1.44772 250 2V73C250 73.5523 250.448 74 251 74V74C251.552 74 252 73.5523 252 73V2Z"/>
    </mask>
    <path d="M252 2V73H248V2H252ZM250 73V2H254V73H250ZM251 72C250.448 72 250 72.4477 250 73H254C254 74.6569 252.657 76 251 76V72ZM252 73C252 72.4477 251.552 72 251 72V76C249.343 76 248 74.6569 248 73H252ZM251 3C251.552 3 252 2.55228 252 2H248C248 0.343146 249.343 -1 251 -1V3ZM251 -1C252.657 -1 254 0.343148 254 2H250C250 2.55228 250.448 3 251 3V-1Z" fill="#000085" mask="url(#path-15-inside-1)"/>
    <mask id="path-17-inside-2" fill="white">
    <path d="M252 46V45H324V46H252Z"/>
    </mask>
    <path d="M252 46H250V48H252V46ZM252 45V43H250V45H252ZM324 45H326V43H324V45ZM324 46V48H326V46H324ZM254 46V45H250V46H254ZM252 47H324V43H252V47ZM322 45V46H326V45H322ZM324 44H252V48H324V44Z" fill="#000085" mask="url(#path-17-inside-2)"/>
    <mask id="path-19-inside-3" fill="white">
    <path d="M252 39V38H267V39H252Z"/>
    </mask>
    <path d="M252 39H250V41H252V39ZM252 38V36H250V38H252ZM267 38H269V36H267V38ZM267 39V41H269V39H267ZM254 39V38H250V39H254ZM252 40H267V36H252V40ZM265 38V39H269V38H265ZM267 37H252V41H267V37Z" fill="#000085" mask="url(#path-19-inside-3)"/>
    <path d="M791 431V426H649V431H791Z" fill="white" stroke="#000085" stroke-width="2"/>
    <path d="M1601 149.61H1324.95C1279.39 149.61 1242.48 186.948 1242.48 232.496V249.148C1242.48 277.891 1219.15 301.14 1190.48 301.14H1062V331.881H1190.48C1235.96 331.881 1272.95 294.62 1272.95 249.148V232.415C1272.95 203.596 1296.2 180.686 1324.95 180.686H1601V149.61Z" fill="#BBD0EF" fill-opacity="0.5" stroke="#000085" stroke-width="2"/>
    <path opacity="0.5" fill-rule="evenodd" clip-rule="evenodd" d="M1575.63 156.774C1576.72 156.774 1577.61 155.887 1577.61 154.792C1577.61 153.697 1576.72 152.81 1575.63 152.81H1340.23C1339.14 152.81 1338.25 153.697 1338.25 154.792C1338.25 155.887 1339.14 156.774 1340.23 156.774H1575.63Z" fill="white"/>
    <path opacity="0.5" fill-rule="evenodd" clip-rule="evenodd" d="M1330.15 156.774C1331.24 156.774 1332.13 155.887 1332.13 154.792C1332.13 153.697 1331.24 152.81 1330.15 152.81C1322.34 152.81 1314.78 153.686 1307.57 155.406C1306.51 155.661 1305.85 156.73 1306.11 157.795C1306.36 158.86 1307.43 159.517 1308.5 159.262C1315.39 157.615 1322.65 156.774 1330.15 156.774Z" fill="white"/>
    <path opacity="0.5" fill-rule="evenodd" clip-rule="evenodd" d="M1269.84 181.087C1270.6 180.294 1270.57 179.039 1269.77 178.285C1268.98 177.53 1267.73 177.562 1266.97 178.355C1253.09 192.946 1245.44 212.419 1245.44 233.992C1245.44 235.087 1246.33 235.975 1247.42 235.975C1248.52 235.975 1249.41 235.087 1249.41 233.992C1249.41 213.428 1256.67 194.935 1269.84 181.087Z" fill="white"/>
    <path opacity="0.5" fill-rule="evenodd" clip-rule="evenodd" d="M1249.41 243.169C1249.41 242.074 1248.52 241.187 1247.42 241.187C1246.33 241.187 1245.44 242.074 1245.44 243.169V254.177C1245.44 255.272 1246.33 256.16 1247.42 256.16C1248.52 256.16 1249.41 255.272 1249.41 254.177V243.169Z" fill="white"/>
    <path opacity="0.5" fill-rule="evenodd" clip-rule="evenodd" d="M1248.12 265.367C1248.37 264.301 1247.7 263.235 1246.64 262.988C1245.57 262.74 1244.51 263.404 1244.26 264.47C1238.89 287.582 1216.18 305.109 1191.04 305.109L1127.77 304.283C1126.68 304.269 1125.78 305.145 1125.76 306.24C1125.75 307.334 1126.63 308.233 1127.72 308.248L1191.02 309.074C1218 309.074 1242.33 290.298 1248.12 265.367Z" fill="white"/>
    <path opacity="0.3" d="M1122.4 324.607C1121.31 324.607 1120.42 325.495 1120.42 326.589C1120.42 327.684 1121.31 328.572 1122.4 328.572H1190.03C1236.83 328.572 1270.82 291.555 1270.82 242.843V229.669C1270.82 211.734 1280.05 195.417 1294.95 186.077C1303.06 180.994 1312.44 178.257 1322.23 178.257H1562.33C1563.43 178.257 1564.32 177.37 1564.32 176.275C1564.32 175.18 1563.43 174.293 1562.33 174.293H1322.23C1311.69 174.293 1301.58 177.242 1292.84 182.718C1276.8 192.776 1266.85 210.355 1266.85 229.669V242.843C1266.85 289.437 1234.56 324.607 1190.03 324.607H1122.4Z" fill="#000D6D"/>
    <path opacity="0.2" fill-rule="evenodd" clip-rule="evenodd" d="M1257.56 231.066C1249.36 231.066 1242.72 237.714 1242.72 245.915C1242.72 254.116 1249.36 260.764 1257.56 260.764C1265.75 260.764 1272.4 254.116 1272.4 245.915C1272.4 237.714 1265.75 231.066 1257.56 231.066Z" stroke="#000D6D" stroke-width="1.2075"/>
    <path d="M1273.55 247.184C1273.55 237.856 1266.47 230.286 1257.72 230.286C1248.96 230.286 1241.88 237.856 1241.88 247.184C1241.88 247.423 1242.07 247.617 1242.31 247.617C1242.54 247.617 1242.73 247.423 1242.73 247.184C1242.73 238.325 1249.45 231.153 1257.72 231.153C1265.98 231.153 1272.7 238.325 1272.7 247.184C1272.7 247.423 1272.89 247.617 1273.12 247.617C1273.36 247.617 1273.55 247.423 1273.55 247.184Z" fill="#000085"/>
    <path opacity="0.2" fill-rule="evenodd" clip-rule="evenodd" d="M1166.28 301.402C1157.86 301.402 1151.04 308.224 1151.04 316.641C1151.04 325.057 1157.86 331.88 1166.28 331.88C1174.7 331.88 1181.52 325.057 1181.52 316.641C1181.52 308.224 1174.7 301.402 1166.28 301.402Z" stroke="#000D6D" stroke-width="1.2075"/>
    <path d="M1165.3 332.396C1174.49 332.396 1181.95 325.329 1181.95 316.6C1181.95 307.87 1174.49 300.803 1165.3 300.803C1165.07 300.803 1164.87 300.994 1164.87 301.23C1164.87 301.466 1165.07 301.657 1165.3 301.657C1174.03 301.657 1181.1 308.353 1181.1 316.6C1181.1 324.847 1174.03 331.543 1165.3 331.543C1165.07 331.543 1164.87 331.734 1164.87 331.97C1164.87 332.205 1165.07 332.396 1165.3 332.396Z" fill="#000085"/>
    <path opacity="0.2" fill-rule="evenodd" clip-rule="evenodd" d="M1343.46 149.621C1334.89 149.621 1327.93 156.573 1327.93 165.147C1327.93 173.722 1334.89 180.674 1343.46 180.674C1352.04 180.674 1358.99 173.722 1358.99 165.147C1358.99 156.573 1352.04 149.621 1343.46 149.621Z" stroke="#000D6D" stroke-width="1.2075"/>
    <path d="M1342.05 149C1341.8 149 1341.6 149.195 1341.6 149.436C1341.6 149.677 1341.8 149.873 1342.05 149.873C1351.25 149.873 1358.71 156.717 1358.71 165.147C1358.71 173.578 1351.25 180.422 1342.05 180.422C1341.8 180.422 1341.6 180.617 1341.6 180.858C1341.6 181.099 1341.8 181.294 1342.05 181.294C1351.74 181.294 1359.61 174.07 1359.61 165.147C1359.61 156.224 1351.74 149 1342.05 149Z" fill="#000085"/>
    <path d="M1107.89 395.76V394.465H1098.42V395.76C1098.42 395.76 1098.74 395.76 1099.38 395.76C1100.02 395.76 1100.81 395.76 1101.74 395.76C1102.69 395.76 1103.63 395.76 1104.57 395.76C1105.51 395.76 1106.3 395.76 1106.93 395.76C1107.57 395.76 1107.89 395.76 1107.89 395.76ZM1113.63 393.626C1115.33 393.626 1116.65 392.944 1117.59 391.582C1118.52 390.213 1118.99 388.375 1118.99 386.068C1118.99 383.775 1118.52 381.947 1117.58 380.584C1116.64 379.222 1115.32 378.54 1113.63 378.54C1111.94 378.54 1110.62 379.225 1109.66 380.594C1108.72 381.963 1108.25 383.791 1108.25 386.078C1108.25 388.385 1108.72 390.219 1109.65 391.582C1110.6 392.944 1111.92 393.626 1113.63 393.626ZM1113.63 392.037C1112.49 392.037 1111.61 391.498 1111 390.418C1110.39 389.339 1110.08 387.889 1110.08 386.068C1110.08 384.287 1110.39 382.854 1111.01 381.768C1111.63 380.682 1112.5 380.139 1113.63 380.139C1114.76 380.139 1115.63 380.682 1116.24 381.768C1116.86 382.847 1117.16 384.284 1117.16 386.078C1117.16 387.899 1116.86 389.349 1116.25 390.428C1115.64 391.501 1114.77 392.037 1113.63 392.037ZM1124.77 389.376L1127.29 393.383H1129.24L1125.74 388.051L1129.29 382.861H1127.33L1124.83 386.806H1124.79L1122.26 382.861H1120.3L1123.82 388.122L1120.24 393.383H1122.19L1124.73 389.376C1124.73 389.376 1124.74 389.376 1124.75 389.376C1124.76 389.376 1124.77 389.376 1124.77 389.376Z" fill="black"/>
    <path d="M1099 232H1021V405H1099V232Z" fill="#00C0AB" stroke="#000085" stroke-width="2"/>
    <path d="M1079 254H1040V382H1079V254Z" fill="#000085" stroke="#000085" stroke-width="2"/>
    <path d="M1047 254H1040V382H1047V254Z" fill="#33DFCC" stroke="#000085" stroke-width="2"/>
    <path d="M1057.21 243V243C1057.21 244.537 1058.46 245.783 1060 245.783C1061.53 245.783 1062.78 244.537 1062.78 243V243C1062.78 241.463 1061.53 240.217 1060 240.217C1058.46 240.217 1057.21 241.463 1057.21 243Z" fill="#33DFCC" stroke="#000085"/>
    <path d="M1056.5 243V243C1056.5 244.933 1058.06 246.5 1060 246.5C1061.93 246.5 1063.5 244.933 1063.5 243V243C1063.5 241.067 1061.93 239.5 1060 239.5C1058.06 239.5 1056.5 241.067 1056.5 243Z" fill="#33DFCC" stroke="#000085"/>
    <path d="M1077.21 243V243C1077.21 244.537 1078.46 245.783 1080 245.783C1081.53 245.783 1082.78 244.537 1082.78 243V243C1082.78 241.463 1081.53 240.217 1080 240.217C1078.46 240.217 1077.21 241.463 1077.21 243Z" fill="#33DFCC" stroke="#000085"/>
    <path d="M1076.5 243V243C1076.5 244.933 1078.06 246.5 1080 246.5C1081.93 246.5 1083.5 244.933 1083.5 243V243C1083.5 241.067 1081.93 239.5 1080 239.5C1078.06 239.5 1076.5 241.067 1076.5 243Z" fill="#33DFCC" stroke="#000085"/>
    <path d="M1037.21 243V243C1037.21 244.537 1038.46 245.783 1040 245.783C1041.53 245.783 1042.78 244.537 1042.78 243V243C1042.78 241.463 1041.53 240.217 1040 240.217C1038.46 240.217 1037.21 241.463 1037.21 243Z" fill="#276BFB" stroke="#000085"/>
    <path d="M1036.5 243V243C1036.5 244.933 1038.06 246.5 1040 246.5C1041.93 246.5 1043.5 244.933 1043.5 243V243C1043.5 241.067 1041.93 239.5 1040 239.5C1038.06 239.5 1036.5 241.067 1036.5 243Z" fill="#276BFB" stroke="#000085"/>
    <path d="M1057.21 393V393C1057.21 394.537 1058.46 395.783 1060 395.783C1061.53 395.783 1062.78 394.537 1062.78 393V393C1062.78 391.463 1061.53 390.217 1060 390.217C1058.46 390.217 1057.21 391.463 1057.21 393Z" fill="#33DFCC" stroke="#000085"/>
    <path d="M1056.5 393V393C1056.5 394.933 1058.06 396.5 1060 396.5C1061.93 396.5 1063.5 394.933 1063.5 393V393C1063.5 391.067 1061.93 389.5 1060 389.5C1058.06 389.5 1056.5 391.067 1056.5 393Z" fill="#33DFCC" stroke="#000085"/>
    <path d="M1077.21 393V393C1077.21 394.537 1078.46 395.783 1080 395.783C1081.53 395.783 1082.78 394.537 1082.78 393V393C1082.78 391.463 1081.53 390.217 1080 390.217C1078.46 390.217 1077.21 391.463 1077.21 393Z" fill="#33DFCC" stroke="#000085"/>
    <path d="M1076.5 393V393C1076.5 394.933 1078.06 396.5 1080 396.5C1081.93 396.5 1083.5 394.933 1083.5 393V393C1083.5 391.067 1081.93 389.5 1080 389.5C1078.06 389.5 1076.5 391.067 1076.5 393Z" fill="#276BFB" stroke="#000085"/>
    <path d="M1037.21 393V393C1037.21 394.537 1038.46 395.783 1040 395.783C1041.53 395.783 1042.78 394.537 1042.78 393V393C1042.78 391.463 1041.53 390.217 1040 390.217C1038.46 390.217 1037.21 391.463 1037.21 393Z" fill="#276BFB" stroke="#000085"/>
    <path d="M1036.5 393V393C1036.5 394.933 1038.06 396.5 1040 396.5C1041.93 396.5 1043.5 394.933 1043.5 393V393C1043.5 391.067 1041.93 389.5 1040 389.5C1038.06 389.5 1036.5 391.067 1036.5 393Z" fill="#276BFB" stroke="#000085"/>
    <path d="M1191 232H1099V405H1191V232Z" fill="#33DFCC" stroke="#000085" stroke-width="2"/>
    <path d="M1100 404.005H1190V240.416C1187 255.627 1181.93 257.618 1176.29 265.334C1164.5 279.585 1161.83 287.488 1164.11 303.653C1165.71 314.951 1165.9 334.192 1155.97 336.009C1132.54 340.293 1132.54 352.014 1131.51 355.717C1126.89 371.064 1126.8 380.424 1117.43 384.117C1107.4 388.069 1102.88 397.186 1100 404.005Z" fill="#00C0AB"/>
    <path d="M1078 303H786.815V332.109L1078 332V303Z" fill="#BBD0EF" fill-opacity="0.5" stroke="#000085" stroke-width="2"/>
    <path opacity="0.3" d="M802 326V330H1075.99L1075.99 328.085L1076 326H802Z" fill="#000D6D"/>
    <path opacity="0.5" d="M1075.99 310L1075.99 306H793.998V310H1075.99Z" fill="white"/>
    <path opacity="0.2" d="M856.498 332C848.489 332 841.998 325.508 841.998 317.5C841.998 309.492 848.489 303 856.498 303C864.506 303 870.998 309.492 870.998 317.5C870.998 325.508 864.506 332 856.498 332Z" stroke="#000D6D" stroke-width="2"/>
    <path d="M856.998 302V303.325C864.559 303.325 870.693 309.669 870.693 317.5C870.693 325.331 864.559 331.675 856.998 331.675V333C865.285 333 871.998 326.058 871.998 317.5C871.998 308.942 865.285 302 856.998 302Z" fill="#000085"/>
    <path opacity="0.2" d="M977.055 331.858C968.846 331.858 962.193 325.322 962.193 317.261C962.193 309.199 968.846 302.664 977.055 302.664C985.263 302.664 991.917 309.199 991.917 317.261C991.917 325.322 985.263 331.858 977.055 331.858Z" stroke="#000D6D" stroke-width="2"/>
    <path d="M977.998 302V303.325C985.559 303.325 991.693 309.669 991.693 317.5C991.693 325.331 985.559 331.675 977.998 331.675V333C986.285 333 992.998 326.058 992.998 317.5C992.998 308.942 986.285 302 977.998 302Z" fill="#000085"/>
    <circle cx="1149.5" cy="317.5" r="32.5" transform="rotate(-180 1149.5 317.5)" fill="#33DFCC"/>
    <circle cx="1143.5" cy="317.5" r="32.5" transform="rotate(-180 1143.5 317.5)" fill="#000085"/>
    <path d="M1124 317C1124 317 1129 307 1143 307C1157 307 1162 317 1162 317C1162 317 1157 327 1143 327C1129 327 1124 317 1124 317Z" fill="white"/>
    <circle cx="1136.5" cy="315.5" r="3.5" transform="rotate(-180 1136.5 315.5)" fill="black"/>
    <circle cx="1136.5" cy="315.5" r="5.5" transform="rotate(-180 1136.5 315.5)" stroke="black" stroke-width="2"/>
    <path d="M-161 149.61H115.052C160.606 149.61 197.522 186.948 197.522 232.496V249.148C197.522 277.891 220.844 301.14 249.514 301.14H378V331.881H249.514C204.037 331.881 167.044 294.62 167.044 249.148V232.415C167.044 203.596 143.799 180.686 115.052 180.686H-161V149.61Z" fill="#BBD0EF" fill-opacity="0.5" stroke="#000085" stroke-width="2"/>
    <path opacity="0.5" fill-rule="evenodd" clip-rule="evenodd" d="M-135.631 156.774C-136.725 156.774 -137.613 155.887 -137.613 154.792C-137.613 153.697 -136.725 152.81 -135.631 152.81H99.7655C100.86 152.81 101.748 153.697 101.748 154.792C101.748 155.887 100.86 156.774 99.7655 156.774H-135.631Z" fill="white"/>
    <path opacity="0.5" fill-rule="evenodd" clip-rule="evenodd" d="M109.848 156.774C108.753 156.774 107.866 155.887 107.866 154.792C107.866 153.697 108.753 152.81 109.848 152.81C117.66 152.81 125.221 153.686 132.423 155.406C133.487 155.661 134.144 156.73 133.89 157.795C133.636 158.86 132.566 159.517 131.501 159.262C124.604 157.615 117.352 156.774 109.848 156.774Z" fill="white"/>
    <path opacity="0.5" fill-rule="evenodd" clip-rule="evenodd" d="M170.153 181.087C169.399 180.294 169.43 179.039 170.224 178.285C171.017 177.53 172.272 177.562 173.026 178.355C186.903 192.946 194.556 212.419 194.556 233.992C194.556 235.087 193.668 235.975 192.574 235.975C191.479 235.975 190.591 235.087 190.591 233.992C190.591 213.428 183.324 194.935 170.153 181.087Z" fill="white"/>
    <path opacity="0.5" fill-rule="evenodd" clip-rule="evenodd" d="M190.592 243.169C190.592 242.074 191.479 241.187 192.574 241.187C193.669 241.187 194.556 242.074 194.556 243.169V254.177C194.556 255.272 193.669 256.16 192.574 256.16C191.479 256.16 190.592 255.272 190.592 254.177V243.169Z" fill="white"/>
    <path opacity="0.5" fill-rule="evenodd" clip-rule="evenodd" d="M191.878 265.367C191.63 264.301 192.294 263.235 193.36 262.988C194.427 262.74 195.492 263.404 195.74 264.47C201.109 287.582 223.823 305.109 248.955 305.109L312.226 304.283C313.321 304.269 314.22 305.145 314.234 306.24C314.248 307.334 313.373 308.233 312.278 308.248L248.98 309.074C222.001 309.074 197.67 290.298 191.878 265.367Z" fill="white"/>
    <path opacity="0.3" d="M317.596 324.607C318.691 324.607 319.578 325.495 319.578 326.589C319.578 327.684 318.691 328.572 317.596 328.572H249.965C203.168 328.572 169.182 291.555 169.182 242.843V229.669C169.182 211.734 159.95 195.417 145.047 186.077C136.935 180.994 127.553 178.257 117.764 178.257H-122.336C-123.43 178.257 -124.318 177.37 -124.318 176.275C-124.318 175.18 -123.43 174.293 -122.336 174.293H117.764C128.303 174.293 138.414 177.242 147.153 182.718C163.2 192.776 173.146 210.355 173.146 229.669V242.843C173.146 289.437 205.437 324.607 249.965 324.607H317.596Z" fill="#000D6D"/>
    <path opacity="0.2" fill-rule="evenodd" clip-rule="evenodd" d="M182.44 231.066C190.636 231.066 197.279 237.714 197.279 245.915C197.279 254.116 190.636 260.764 182.44 260.764C174.245 260.764 167.601 254.116 167.601 245.915C167.601 237.714 174.245 231.066 182.44 231.066Z" stroke="#000D6D" stroke-width="1.2075"/>
    <path d="M166.446 247.184C166.446 237.856 173.531 230.286 182.282 230.286C191.034 230.286 198.119 237.856 198.119 247.184C198.119 247.423 197.927 247.617 197.691 247.617C197.455 247.617 197.263 247.423 197.263 247.184C197.263 238.325 190.551 231.153 182.282 231.153C174.014 231.153 167.302 238.325 167.302 247.184C167.302 247.423 167.11 247.617 166.874 247.617C166.637 247.617 166.446 247.423 166.446 247.184Z" fill="#000085"/>
    <path opacity="0.2" fill-rule="evenodd" clip-rule="evenodd" d="M273.718 301.402C282.134 301.402 288.957 308.224 288.957 316.641C288.957 325.057 282.134 331.88 273.718 331.88C265.302 331.88 258.479 325.057 258.479 316.641C258.479 308.224 265.302 301.402 273.718 301.402Z" stroke="#000D6D" stroke-width="1.2075"/>
    <path d="M274.696 332.396C265.505 332.396 258.045 325.329 258.045 316.6C258.045 307.87 265.505 300.803 274.696 300.803C274.932 300.803 275.123 300.994 275.123 301.23C275.123 301.466 274.932 301.657 274.696 301.657C265.967 301.657 258.899 308.353 258.899 316.6C258.899 324.847 265.967 331.543 274.696 331.543C274.932 331.543 275.123 331.734 275.123 331.97C275.123 332.205 274.932 332.396 274.696 332.396Z" fill="#000085"/>
    <path opacity="0.2" fill-rule="evenodd" clip-rule="evenodd" d="M96.5373 149.621C105.112 149.621 112.063 156.573 112.063 165.147C112.063 173.722 105.112 180.674 96.5373 180.674C87.9625 180.674 81.0112 173.722 81.0112 165.147C81.0112 156.573 87.9625 149.621 96.5373 149.621Z" stroke="#000D6D" stroke-width="1.2075"/>
    <path d="M97.9504 149C98.1991 149 98.4007 149.195 98.4007 149.436C98.4007 149.677 98.1991 149.873 97.9504 149.873C88.7443 149.873 81.2909 156.717 81.2909 165.147C81.2909 173.578 88.7443 180.422 97.9504 180.422C98.1991 180.422 98.4007 180.617 98.4007 180.858C98.4007 181.099 98.1991 181.294 97.9504 181.294C88.2576 181.294 80.3904 174.07 80.3904 165.147C80.3904 156.224 88.2576 149 97.9504 149Z" fill="#000085"/>
    <path d="M332.103 395.76V394.465H341.573V395.76C341.573 395.76 341.256 395.76 340.622 395.76C339.981 395.76 339.192 395.76 338.255 395.76C337.31 395.76 336.369 395.76 335.432 395.76C334.488 395.76 333.698 395.76 333.064 395.76C332.424 395.76 332.103 395.76 332.103 395.76ZM326.367 393.626C324.667 393.626 323.348 392.944 322.411 391.582C321.473 390.213 321.004 388.375 321.004 386.068C321.004 383.775 321.476 381.947 322.421 380.584C323.358 379.222 324.674 378.54 326.367 378.54C328.06 378.54 329.382 379.225 330.333 380.594C331.277 381.963 331.749 383.791 331.749 386.078C331.749 388.385 331.28 390.219 330.343 391.582C329.398 392.944 328.073 393.626 326.367 393.626ZM326.367 392.037C327.506 392.037 328.383 391.498 328.997 390.418C329.611 389.339 329.918 387.889 329.918 386.068C329.918 384.287 329.608 382.854 328.987 381.768C328.366 380.682 327.493 380.139 326.367 380.139C325.24 380.139 324.37 380.682 323.756 381.768C323.142 382.847 322.836 384.284 322.836 386.078C322.836 387.899 323.139 389.349 323.746 390.428C324.353 391.501 325.227 392.037 326.367 392.037ZM315.227 389.376L312.708 393.383H310.755L314.256 388.051L310.705 382.861H312.667L315.166 386.806H315.207L317.736 382.861H319.699L316.178 388.122L319.76 393.383H317.807L315.268 389.376C315.268 389.376 315.261 389.376 315.247 389.376C315.234 389.376 315.227 389.376 315.227 389.376Z" fill="black"/>
    <path d="M341 232H419V405H341V232Z" fill="#00C0AB" stroke="#000085" stroke-width="2"/>
    <path d="M361 254H400V382H361V254Z" fill="#000085" stroke="#000085" stroke-width="2"/>
    <path d="M393 254H400V382H393V254Z" fill="#33DFCC" stroke="#000085" stroke-width="2"/>
    <path d="M382.783 243V243C382.783 244.537 381.537 245.783 380 245.783C378.463 245.783 377.217 244.537 377.217 243V243C377.217 241.463 378.463 240.217 380 240.217C381.537 240.217 382.783 241.463 382.783 243Z" fill="#33DFCC" stroke="#000085"/>
    <path d="M383.5 243V243C383.5 244.933 381.933 246.5 380 246.5C378.067 246.5 376.5 244.933 376.5 243V243C376.5 241.067 378.067 239.5 380 239.5C381.933 239.5 383.5 241.067 383.5 243Z" fill="#33DFCC" stroke="#000085"/>
    <path d="M362.783 243V243C362.783 244.537 361.537 245.783 360 245.783C358.463 245.783 357.217 244.537 357.217 243V243C357.217 241.463 358.463 240.217 360 240.217C361.537 240.217 362.783 241.463 362.783 243Z" fill="#33DFCC" stroke="#000085"/>
    <path d="M363.5 243V243C363.5 244.933 361.933 246.5 360 246.5C358.067 246.5 356.5 244.933 356.5 243V243C356.5 241.067 358.067 239.5 360 239.5C361.933 239.5 363.5 241.067 363.5 243Z" fill="#33DFCC" stroke="#000085"/>
    <path d="M402.783 243V243C402.783 244.537 401.537 245.783 400 245.783C398.463 245.783 397.217 244.537 397.217 243V243C397.217 241.463 398.463 240.217 400 240.217C401.537 240.217 402.783 241.463 402.783 243Z" fill="#276BFB" stroke="#000085"/>
    <path d="M403.5 243V243C403.5 244.933 401.933 246.5 400 246.5C398.067 246.5 396.5 244.933 396.5 243V243C396.5 241.067 398.067 239.5 400 239.5C401.933 239.5 403.5 241.067 403.5 243Z" fill="#276BFB" stroke="#000085"/>
    <path d="M382.783 393V393C382.783 394.537 381.537 395.783 380 395.783C378.463 395.783 377.217 394.537 377.217 393V393C377.217 391.463 378.463 390.217 380 390.217C381.537 390.217 382.783 391.463 382.783 393Z" fill="#33DFCC" stroke="#000085"/>
    <path d="M383.5 393V393C383.5 394.933 381.933 396.5 380 396.5C378.067 396.5 376.5 394.933 376.5 393V393C376.5 391.067 378.067 389.5 380 389.5C381.933 389.5 383.5 391.067 383.5 393Z" fill="#33DFCC" stroke="#000085"/>
    <path d="M362.783 393V393C362.783 394.537 361.537 395.783 360 395.783C358.463 395.783 357.217 394.537 357.217 393V393C357.217 391.463 358.463 390.217 360 390.217C361.537 390.217 362.783 391.463 362.783 393Z" fill="#33DFCC" stroke="#000085"/>
    <path d="M363.5 393V393C363.5 394.933 361.933 396.5 360 396.5C358.067 396.5 356.5 394.933 356.5 393V393C356.5 391.067 358.067 389.5 360 389.5C361.933 389.5 363.5 391.067 363.5 393Z" fill="#276BFB" stroke="#000085"/>
    <path d="M402.783 393V393C402.783 394.537 401.537 395.783 400 395.783C398.463 395.783 397.217 394.537 397.217 393V393C397.217 391.463 398.463 390.217 400 390.217C401.537 390.217 402.783 391.463 402.783 393Z" fill="#276BFB" stroke="#000085"/>
    <path d="M403.5 393V393C403.5 394.933 401.933 396.5 400 396.5C398.067 396.5 396.5 394.933 396.5 393V393C396.5 391.067 398.067 389.5 400 389.5C401.933 389.5 403.5 391.067 403.5 393Z" fill="#276BFB" stroke="#000085"/>
    <path d="M249 232H341V405H249V232Z" fill="#33DFCC" stroke="#000085" stroke-width="2"/>
    <path d="M340 404.005H250V240.416C253 255.627 258.071 257.618 263.706 265.334C275.5 279.585 278.169 287.488 275.884 303.653C274.288 314.951 274.095 334.192 284.031 336.009C307.456 340.293 307.456 352.014 308.485 355.717C313.112 371.064 313.194 380.424 322.57 384.117C332.602 388.069 337.122 397.186 340 404.005Z" fill="#00C0AB"/>
    <path d="M362 303H653.182V332.109L362 332V303Z" fill="#BBD0EF" fill-opacity="0.5" stroke="#000085" stroke-width="2"/>
    <path opacity="0.3" d="M637.998 326V330H364.005L364.003 328.085L364.002 326H637.998Z" fill="#000D6D"/>
    <path opacity="0.5" d="M364.009 310L364.004 306H646V310H364.009Z" fill="white"/>
    <path opacity="0.2" d="M583.5 332C591.508 332 598 325.508 598 317.5C598 309.492 591.508 303 583.5 303C575.492 303 569 309.492 569 317.5C569 325.508 575.492 332 583.5 332Z" stroke="#000D6D" stroke-width="2"/>
    <path d="M583 302V303.325C575.439 303.325 569.304 309.669 569.304 317.5C569.304 325.331 575.439 331.675 583 331.675V333C574.713 333 568 326.058 568 317.5C568 308.942 574.713 302 583 302Z" fill="#000085"/>
    <path opacity="0.2" d="M462.943 331.858C471.151 331.858 477.805 325.322 477.805 317.261C477.805 309.199 471.151 302.664 462.943 302.664C454.735 302.664 448.081 309.199 448.081 317.261C448.081 325.322 454.735 331.858 462.943 331.858Z" stroke="#000D6D" stroke-width="2"/>
    <path d="M462 302V303.325C454.439 303.325 448.304 309.669 448.304 317.5C448.304 325.331 454.439 331.675 462 331.675V333C453.713 333 447 326.058 447 317.5C447 308.942 453.713 302 462 302Z" fill="#000085"/>
    <circle r="32.5" transform="matrix(1 -8.74228e-08 -8.74228e-08 -1 290.5 317.5)" fill="#33DFCC"/>
    <circle r="32.5" transform="matrix(1 -8.74228e-08 -8.74228e-08 -1 296.5 317.5)" fill="#000085"/>
    <path d="M316 317C316 317 311 307 297 307C283 307 278 317 278 317C278 317 283 327 297 327C311 327 316 317 316 317Z" fill="white"/>
    <circle r="3.5" transform="matrix(1 -8.74228e-08 -8.74228e-08 -1 305.5 317.5)" fill="black"/>
    <circle r="5.5" transform="matrix(1 -8.74228e-08 -8.74228e-08 -1 305.5 317.5)" stroke="black" stroke-width="2"/>
    <path d="M341 442H400" stroke="#000085" stroke-width="2" stroke-linecap="round"/>
    <path d="M341 450H366" stroke="#000085" stroke-width="2" stroke-linecap="round"/>
    <path d="M1098 442H1136" stroke="#000085" stroke-width="2" stroke-linecap="round"/>
    <path d="M1098 450H1113" stroke="#000085" stroke-width="2" stroke-linecap="round"/>
    <path d="M1177 484H1188" stroke="#000085" stroke-width="2" stroke-linecap="round"/>
    <path d="M735 385V484.978H705V385L735 385Z" fill="#BBD0EF" fill-opacity="0.5" stroke="#000085" stroke-width="2"/>
    <path opacity="0.3" d="M713 483.993L708.216 484L708 363.006L713 363.006V483.993Z" fill="#000D6D"/>
    <path opacity="0.5" d="M728 365.006L731.827 365L732 482.994L730.086 482.997H728V365.006Z" fill="white"/>
    <path opacity="0.2" d="M705 461.5C705 470.06 711.716 477 720 477C728.284 477 735 470.06 735 461.5C735 452.94 728.284 446 720 446C711.716 446 705 452.94 705 461.5Z" stroke="#000085" stroke-width="2"/>
    <path d="M799 439V146H641V439H799Z" fill="#BED1F4" stroke="#000085" stroke-width="2"/>
    <path d="M791 431V198H649V431H791Z" fill="#BED1F4" stroke="#000085" stroke-width="2"/>
    <path d="M799 188V146H641V188H799Z" fill="white" stroke="#000085" stroke-width="2"/>
    <path d="M791 180V154H649V180H791Z" fill="#DCEBFF" stroke="#000085" stroke-width="2"/>
    <circle cx="781" cy="167" r="2.5" fill="#003CDA" stroke="#000085"/>
    <circle cx="771" cy="167" r="2.5" fill="#33DFCC" stroke="#000085"/>
    <path d="M791 159V154H649V159H791Z" fill="#5B88FF" stroke="#000085" stroke-width="2"/>
    <path d="M670 306C670 278.386 692.386 256 720 256C747.614 256 770 278.386 770 306C770 333.614 747.614 356 720 356C692.386 356 670 333.614 670 306Z" fill="white" stroke="#000085" stroke-width="2.415"/>
    <path fill-rule="evenodd" clip-rule="evenodd" d="M745.521 336.373L749.815 331.683C760.298 320.231 762.951 303.573 756.55 289.396L754.356 284.537L736.67 309.73L743.326 316.725L733.834 327.326L745.521 336.373ZM693.401 274.17L689.107 278.86C678.624 290.312 675.971 306.97 682.373 321.147L684.567 326.006L702.253 300.813L695.596 293.818L705.088 283.217L693.401 274.17ZM750.418 279.46L745.749 275.146C734.351 264.614 717.771 261.948 703.66 268.38L698.823 270.584L723.899 288.353L730.862 281.665L741.413 291.202L750.418 279.46ZM688.873 331.453L693.542 335.767C704.94 346.299 721.52 348.965 735.631 342.533L740.468 340.329L715.392 322.561L708.429 329.248L697.878 319.712L688.873 331.453Z" fill="#003CDA"/>
    <path d="M1100 193H1146V177H1191" stroke="#000085" stroke-width="2" stroke-linecap="round" stroke-linejoin="round"/>
    <path d="M1191 219H1181" stroke="#000085" stroke-width="2" stroke-linecap="round" stroke-linejoin="round"/>
    <path d="M1191 190H1167" stroke="#000085" stroke-width="2" stroke-linecap="round" stroke-linejoin="round"/>
    <path d="M1191 143V264.5" stroke="#000085" stroke-width="2" stroke-linecap="round" stroke-linejoin="round"/>
    </g>
    </svg>
    