<?xml version="1.0" encoding="utf-8"?>
<!-- Generator: Adobe Illustrator 23.1.1, SVG Export Plug-In . SVG Version: 6.00 Build 0)  -->
<svg version="1.1" id="lonh-positions" xmlns="http://www.w3.org/2000/svg" xmlns:xlink="http://www.w3.org/1999/xlink" x="0px"
	 y="0px" viewBox="0 0 1440 490" style="enable-background:new 0 0 1440 490;" width="1440" xml:space="preserve" class="svg-absolute bottom-40 mw-100 hidden-sm">
<style type="text/css">
	.st0{fill-rule:evenodd;clip-rule:evenodd;fill:#BED1F4;stroke:#000085;stroke-width:2;}
	.st1{fill:#000085;stroke:#000085;stroke-width:2;}
	.st2{fill:none;stroke:#000085;stroke-width:2;}
	.st3{fill:#000085;}
	.st4{fill-rule:evenodd;clip-rule:evenodd;fill:#000085;}
	.st5{fill:#FFFFFF;stroke:#000085;stroke-width:2;}
	.st6{opacity:0.2;fill:none;stroke:#000D6D;stroke-width:1.2075;enable-background:new    ;}
	.st7{fill:#00C0AB;stroke:#000085;stroke-width:2;}
	.st8{fill:#33DFCC;stroke:#000085;stroke-width:2;}
	.st9{fill:#33DFCC;stroke:#000085;}
	.st10{fill:#276BFB;stroke:#000085;}
	.st11{fill:#BBD0EF;fill-opacity:0.5;stroke:#000085;stroke-width:2;}
	.st12{opacity:0.5;fill-rule:evenodd;clip-rule:evenodd;fill:#FFFFFF;enable-background:new    ;}
	.st13{opacity:0.3;fill:#000D6D;enable-background:new    ;}
	.st14{fill:none;}
	.st15{fill:#33DFCC;stroke:#000085;stroke-width:2;stroke-linecap:round;stroke-linejoin:round;}
	.st16{fill:#29CC86;stroke:#000085;stroke-width:2.415;}
	.st17{opacity:0.5;fill:#FFFFFF;enable-background:new    ;}
	.st18{opacity:0.2;fill:none;stroke:#000D6D;stroke-width:2;enable-background:new    ;}
	.st19{fill:#00C0AB;}
	.st20{fill:#33DFCC;}
	.st21{fill:#FFFFFF;}
	.st22{fill:none;stroke:#000000;stroke-width:2;}
	.st23{fill:none;stroke:#000085;stroke-width:2;stroke-linecap:round;}
	.st24{opacity:0.2;fill:none;stroke:#000085;stroke-width:2;enable-background:new    ;}
	.st25{fill:#BED1F4;stroke:#000085;stroke-width:2;}
	.st26{fill:#DCEBFF;stroke:#000085;stroke-width:2;}
	.st27{fill:#003CDA;stroke:#000085;}
	.st28{fill:#5B88FF;stroke:#000085;stroke-width:2;}
	.st29{fill:#FFFFFF;stroke:#000085;stroke-width:2.415;}
	.st30{fill-rule:evenodd;clip-rule:evenodd;fill:#003CDA;}
	.st31{fill:none;stroke:#000085;stroke-width:2;stroke-linecap:round;stroke-linejoin:round;}
</style>
<g>
	<path class="st0" d="M450,352.3V384h540v-31.7C990,295.8,869.1,250,720,250S450,295.8,450,352.3z"/>
	<path class="st1" d="M720,486c149.1,0,270-45.9,270-102.5S869.1,281,720,281s-270,45.9-270,102.5S570.9,486,720,486z"/>
	<path class="st2" d="M677,251v17"/>
	<path class="st2" d="M683,251v25"/>
	<path class="st2" d="M570,267v7"/>
	<path class="st2" d="M574,266v5"/>
	<path class="st2" d="M650,278v7"/>
	<path class="st2" d="M774,252v28"/>
	<path class="st2" d="M807,255v13"/>
	<path class="st2" d="M450,379c0-22.1,11.7-41.5,35-58"/>
	<path class="st2" d="M488,319l8-6"/>
	<path class="st3" d="M406,141v-1h14v1H406z"/>
	<path class="st3" d="M251,48v-2h72v2H251z"/>
	<path class="st3" d="M251,33.8v-2h40v2H251z"/>
	<path class="st3" d="M252,56h-2V6h2V56z"/>
	<path class="st4" d="M250.7,35.8c0-1.1-0.7-1-0.7,0.1c0,12,0.4,169.1,0.4,169.1s17.6-11.1,17.6-39.4c0-13.2-2.3-21.1-6.3-32.2
		c-7.2-19.2-2.7-36.9-2-46.4C260.8,69.4,251.4,69.4,250.7,35.8z"/>
</g>
<path class="st5" d="M791,431v-5H649v5H791z"/>
<path class="st6" d="M1166.3,301.4c-8.4,0-15.2,6.8-15.2,15.2c0,8.4,6.8,15.2,15.2,15.2c8.4,0,15.2-6.8,15.2-15.2
	C1181.5,308.2,1174.7,301.4,1166.3,301.4z"/>
<path class="st3" d="M1165.3,332.4c9.2,0,16.6-7.1,16.6-15.8c0-8.7-7.5-15.8-16.6-15.8c-0.2,0-0.4,0.2-0.4,0.4
	c0,0.2,0.2,0.4,0.4,0.4c8.7,0,15.8,6.7,15.8,14.9c0,8.2-7.1,14.9-15.8,14.9c-0.2,0-0.4,0.2-0.4,0.4
	C1164.9,332.2,1165.1,332.4,1165.3,332.4z"/>
<path d="M1107.9,395.8v-1.3h-9.5v1.3c0,0,0.3,0,1,0s1.4,0,2.4,0c0.9,0,1.9,0,2.8,0s1.7,0,2.4,0
	C1107.6,395.8,1107.9,395.8,1107.9,395.8z M1113.6,393.6c1.7,0,3-0.7,4-2c0.9-1.4,1.4-3.2,1.4-5.5s-0.5-4.1-1.4-5.5s-2.3-2-3.9-2
	c-1.7,0-3,0.7-4,2.1c-0.9,1.4-1.4,3.2-1.4,5.5s0.5,4.1,1.4,5.5C1110.6,392.9,1111.9,393.6,1113.6,393.6z M1113.6,392
	c-1.1,0-2-0.5-2.6-1.6s-0.9-2.5-0.9-4.4c0-1.8,0.3-3.2,0.9-4.3s1.5-1.6,2.6-1.6s2,0.5,2.6,1.6s0.9,2.5,0.9,4.3s-0.3,3.3-0.9,4.4
	S1114.8,392,1113.6,392z M1124.8,389.4l2.5,4h1.9l-3.5-5.3l3.6-5.2h-2l-2.5,3.9l0,0l-2.5-3.9h-2l3.5,5.3l-3.6,5.3h1.9L1124.8,389.4
	C1124.7,389.4,1124.7,389.4,1124.8,389.4L1124.8,389.4z"/>
<path class="st7" d="M1099,232h-78v173h78V232z"/>
<path class="st1" d="M1079,254h-39v128h39V254z"/>
<path class="st8" d="M1047,254h-7v128h7V254z"/>
<path class="st9" d="M1057.2,243L1057.2,243c0,1.5,1.2,2.8,2.8,2.8c1.5,0,2.8-1.2,2.8-2.8l0,0c0-1.5-1.2-2.8-2.8-2.8
	C1058.5,240.2,1057.2,241.5,1057.2,243z"/>
<path class="st9" d="M1056.5,243L1056.5,243c0,1.9,1.6,3.5,3.5,3.5s3.5-1.6,3.5-3.5l0,0c0-1.9-1.6-3.5-3.5-3.5
	S1056.5,241.1,1056.5,243z"/>
<path class="st9" d="M1077.2,243L1077.2,243c0,1.5,1.2,2.8,2.8,2.8c1.5,0,2.8-1.2,2.8-2.8l0,0c0-1.5-1.2-2.8-2.8-2.8
	C1078.5,240.2,1077.2,241.5,1077.2,243z"/>
<path class="st9" d="M1076.5,243L1076.5,243c0,1.9,1.6,3.5,3.5,3.5s3.5-1.6,3.5-3.5l0,0c0-1.9-1.6-3.5-3.5-3.5
	S1076.5,241.1,1076.5,243z"/>
<path class="st10" d="M1037.2,243L1037.2,243c0,1.5,1.2,2.8,2.8,2.8c1.5,0,2.8-1.2,2.8-2.8l0,0c0-1.5-1.2-2.8-2.8-2.8
	C1038.5,240.2,1037.2,241.5,1037.2,243z"/>
<path class="st10" d="M1036.5,243L1036.5,243c0,1.9,1.6,3.5,3.5,3.5s3.5-1.6,3.5-3.5l0,0c0-1.9-1.6-3.5-3.5-3.5
	S1036.5,241.1,1036.5,243z"/>
<path class="st9" d="M1057.2,393L1057.2,393c0,1.5,1.2,2.8,2.8,2.8c1.5,0,2.8-1.2,2.8-2.8l0,0c0-1.5-1.2-2.8-2.8-2.8
	C1058.5,390.2,1057.2,391.5,1057.2,393z"/>
<path class="st9" d="M1056.5,393L1056.5,393c0,1.9,1.6,3.5,3.5,3.5s3.5-1.6,3.5-3.5l0,0c0-1.9-1.6-3.5-3.5-3.5
	S1056.5,391.1,1056.5,393z"/>
<path class="st9" d="M1077.2,393L1077.2,393c0,1.5,1.2,2.8,2.8,2.8c1.5,0,2.8-1.2,2.8-2.8l0,0c0-1.5-1.2-2.8-2.8-2.8
	C1078.5,390.2,1077.2,391.5,1077.2,393z"/>
<path class="st10" d="M1076.5,393L1076.5,393c0,1.9,1.6,3.5,3.5,3.5s3.5-1.6,3.5-3.5l0,0c0-1.9-1.6-3.5-3.5-3.5
	S1076.5,391.1,1076.5,393z"/>
<path class="st10" d="M1037.2,393L1037.2,393c0,1.5,1.2,2.8,2.8,2.8c1.5,0,2.8-1.2,2.8-2.8l0,0c0-1.5-1.2-2.8-2.8-2.8
	C1038.5,390.2,1037.2,391.5,1037.2,393z"/>
<path class="st10" d="M1036.5,393L1036.5,393c0,1.9,1.6,3.5,3.5,3.5s3.5-1.6,3.5-3.5l0,0c0-1.9-1.6-3.5-3.5-3.5
	S1036.5,391.1,1036.5,393z"/>
<path class="st6" d="M273.7,301.4c8.4,0,15.2,6.8,15.2,15.2c0,8.4-6.8,15.2-15.2,15.2c-8.4,0-15.2-6.8-15.2-15.2
	C258.5,308.2,265.3,301.4,273.7,301.4z"/>
<path class="st3" d="M274.7,332.4c-9.2,0-16.7-7.1-16.7-15.8c0-8.7,7.5-15.8,16.7-15.8c0.2,0,0.4,0.2,0.4,0.4c0,0.2-0.2,0.4-0.4,0.4
	c-8.7,0-15.8,6.7-15.8,14.9c0,8.2,7.1,14.9,15.8,14.9c0.2,0,0.4,0.2,0.4,0.4C275.1,332.2,274.9,332.4,274.7,332.4z"/>
<g id="tube_x5F_right2">
	<path class="st11" d="M1601,149.6h-276.1c-45.6,0-82.5,37.3-82.5,82.9v16.7c0,28.7-23.3,52-52,52h-20.7v30.7h20.8
		c45.5,0,82.5-37.3,82.5-82.7v-16.7c0-28.8,23.2-51.7,52-51.7h276L1601,149.6L1601,149.6z"/>
	<path class="st12" d="M1575.6,156.8c1.1,0,2-0.9,2-2s-0.9-2-2-2h-235.4c-1.1,0-2,0.9-2,2s0.9,2,2,2H1575.6z"/>
	<path class="st12" d="M1330.2,156.8c1.1,0,2-0.9,2-2s-0.9-2-2-2c-7.8,0-15.4,0.9-22.6,2.6c-1.1,0.3-1.7,1.3-1.5,2.4
		c0.2,1.1,1.3,1.7,2.4,1.5C1315.4,157.6,1322.7,156.8,1330.2,156.8z"/>
	<path class="st12" d="M1269.8,181.1c0.8-0.8,0.7-2-0.1-2.8c-0.8-0.8-2-0.7-2.8,0.1c-13.9,14.6-21.5,34.1-21.5,55.6c0,1.1,0.9,2,2,2
		s2-0.9,2-2C1249.4,213.4,1256.7,194.9,1269.8,181.1z"/>
	<path class="st12" d="M1249.4,243.2c0-1.1-0.9-2-2-2s-2,0.9-2,2v11c0,1.1,0.9,2,2,2s2-0.9,2-2V243.2z"/>
	<path class="st12" d="M1248.1,265.4c0.2-1.1-0.4-2.1-1.5-2.4c-1.1-0.2-2.1,0.4-2.4,1.5c-5.4,23.1-28.1,40.6-53.2,40.6l-63.3-0.8
		c-1.1,0-2,0.9-2,2s0.9,2,2,2l63.3,0.8C1218,309.1,1242.3,290.3,1248.1,265.4z"/>
	<path class="st13" d="M1122.4,324.6c-1.1,0-2,0.9-2,2s0.9,2,2,2h67.6c46.8,0,80.8-37,80.8-85.7v-13.2c0-17.9,9.2-34.3,24.1-43.6
		c8.1-5.1,17.5-7.8,27.3-7.8h240.1c1.1,0,2-0.9,2-2s-0.9-2-2-2h-240.1c-10.5,0-20.7,2.9-29.4,8.4c-16,10.1-26,27.6-26,47v13.2
		c0,46.6-32.3,81.8-76.8,81.8h-67.6V324.6z"/>
	<path class="st6" d="M1257.6,231.1c-8.2,0-14.8,6.6-14.8,14.8s6.6,14.8,14.8,14.8c8.2,0,14.8-6.6,14.8-14.8
		C1272.4,237.7,1265.8,231.1,1257.6,231.1z"/>
	<path class="st3" d="M1273.6,247.2c0-9.3-7.1-16.9-15.8-16.9c-8.8,0-15.8,7.6-15.8,16.9c0,0.2,0.2,0.4,0.4,0.4
		c0.2,0,0.4-0.2,0.4-0.4c0-8.9,6.7-16,15-16s15,7.2,15,16c0,0.2,0.2,0.4,0.4,0.4C1273.4,247.6,1273.6,247.4,1273.6,247.2z"/>
	<path class="st6" d="M1343.5,149.6c-8.6,0-15.5,7-15.5,15.5c0,8.6,7,15.5,15.5,15.5c8.6,0,15.5-7,15.5-15.5
		S1352,149.6,1343.5,149.6z"/>
	<path class="st3" d="M1342.1,149c-0.2,0-0.5,0.2-0.5,0.4s0.2,0.4,0.5,0.4c9.2,0,16.7,6.8,16.7,15.3c0,8.4-7.5,15.3-16.7,15.3
		c-0.2,0-0.5,0.2-0.5,0.4s0.2,0.4,0.5,0.4c9.7,0,17.6-7.2,17.6-16.1S1351.7,149,1342.1,149z"/>
</g>
<g id="tube_x5F_left2">
	<path class="st11" d="M-161,149.6h276.1c45.6,0,82.5,37.3,82.5,82.9v16.7c0,28.7,23.3,52,52,52H378v30.7H249.5
		c-45.5,0-82.5-37.3-82.5-82.7v-16.7c0-28.8-23.2-51.7-52-51.7h-276V149.6z"/>
	<path class="st12" d="M-135.6,156.8c-1.1,0-2-0.9-2-2s0.9-2,2-2H99.8c1.1,0,2,0.9,2,2s-0.9,2-2,2H-135.6z"/>
	<path class="st12" d="M109.8,156.8c-1.1,0-2-0.9-2-2s0.9-2,2-2c7.8,0,15.4,0.9,22.6,2.6c1.1,0.3,1.7,1.3,1.5,2.4s-1.3,1.7-2.4,1.5
		C124.6,157.6,117.4,156.8,109.8,156.8z"/>
	<path class="st12" d="M170.2,181.1c-0.8-0.8-0.7-2,0.1-2.8s2-0.7,2.8,0.1c13.9,14.6,21.5,34.1,21.5,55.6c0,1.1-0.9,2-2,2
		s-2-0.9-2-2C190.6,213.4,183.3,194.9,170.2,181.1z"/>
	<path class="st12" d="M190.6,243.2c0-1.1,0.9-2,2-2s2,0.9,2,2v11c0,1.1-0.9,2-2,2s-2-0.9-2-2V243.2z"/>
	<path class="st12" d="M191.9,265.4c-0.2-1.1,0.4-2.1,1.5-2.4c1.1-0.2,2.1,0.4,2.4,1.5c5.4,23.1,28.1,40.6,53.2,40.6l63.3-0.8
		c1.1,0,2,0.9,2,2s-0.9,2-2,2l-63.3,0.8C222,309.1,197.7,290.3,191.9,265.4z"/>
	<path class="st13" d="M317.6,324.6c1.1,0,2,0.9,2,2s-0.9,2-2,2H250c-46.8,0-80.8-37-80.8-85.7v-13.2c0-17.9-9.2-34.3-24.1-43.6
		c-8.1-5.1-17.5-7.8-27.3-7.8h-240.1c-1.1,0-2-0.9-2-2s0.9-2,2-2h240.1c10.5,0,20.7,2.9,29.4,8.4c16,10.1,26,27.6,26,47v13.2
		c0,46.6,32.3,81.8,76.8,81.8h67.6L317.6,324.6L317.6,324.6z"/>
	<path class="st6" d="M182.4,231.1c8.2,0,14.8,6.6,14.8,14.8s-6.6,14.8-14.8,14.8s-14.8-6.6-14.8-14.8
		C167.6,237.7,174.2,231.1,182.4,231.1z"/>
	<path class="st3" d="M166.4,247.2c0-9.3,7.1-16.9,15.8-16.9c8.8,0,15.8,7.6,15.8,16.9c0,0.2-0.2,0.4-0.4,0.4s-0.4-0.2-0.4-0.4
		c0-8.9-6.7-16-15-16s-15,7.2-15,16c0,0.2-0.2,0.4-0.4,0.4C166.6,247.6,166.4,247.4,166.4,247.2z"/>
	<path class="st6" d="M96.5,149.6c8.6,0,15.5,7,15.5,15.5c0,8.6-7,15.5-15.5,15.5c-8.6,0-15.5-7-15.5-15.5S88,149.6,96.5,149.6z"/>
	<path class="st3" d="M98,149c0.2,0,0.5,0.2,0.5,0.4s-0.2,0.4-0.5,0.4c-9.2,0-16.7,6.8-16.7,15.3c0,8.4,7.5,15.3,16.7,15.3
		c0.2,0,0.5,0.2,0.5,0.4s-0.2,0.4-0.5,0.4c-9.7,0-17.6-7.2-17.6-16.1S88.3,149,98,149z"/>
</g>
<path d="M332.1,395.8v-1.3h9.5v1.3c0,0-0.3,0-1,0c-0.6,0-1.4,0-2.4,0c-0.9,0-1.9,0-2.8,0s-1.7,0-2.4,0
	C332.4,395.8,332.1,395.8,332.1,395.8z M326.4,393.6c-1.7,0-3-0.7-4-2c-0.9-1.4-1.4-3.2-1.4-5.5s0.5-4.1,1.4-5.5s2.3-2,3.9-2
	s3,0.7,4,2.1c0.9,1.4,1.4,3.2,1.4,5.5s-0.5,4.1-1.4,5.5C329.4,392.9,328.1,393.6,326.4,393.6z M326.4,392c1.1,0,2-0.5,2.6-1.6
	s0.9-2.5,0.9-4.4c0-1.8-0.3-3.2-0.9-4.3s-1.5-1.6-2.6-1.6s-2,0.5-2.6,1.6s-0.9,2.5-0.9,4.3s0.3,3.3,0.9,4.4S325.2,392,326.4,392z
	 M315.2,389.4l-2.5,4h-2l3.5-5.3l-3.6-5.2h2l2.5,3.9l0,0l2.5-3.9h2l-3.5,5.3l3.6,5.3h-2L315.2,389.4
	C315.3,389.4,315.3,389.4,315.2,389.4L315.2,389.4z"/>
<path class="st7" d="M341,232h78v173h-78V232z"/>
<path class="st1" d="M361,254h39v128h-39V254z"/>
<path class="st8" d="M393,254h7v128h-7V254z"/>
<path class="st9" d="M382.8,243L382.8,243c0,1.5-1.2,2.8-2.8,2.8s-2.8-1.2-2.8-2.8l0,0c0-1.5,1.2-2.8,2.8-2.8S382.8,241.5,382.8,243
	z"/>
<path class="st9" d="M383.5,243L383.5,243c0,1.9-1.6,3.5-3.5,3.5s-3.5-1.6-3.5-3.5l0,0c0-1.9,1.6-3.5,3.5-3.5S383.5,241.1,383.5,243
	z"/>
<path class="st9" d="M362.8,243L362.8,243c0,1.5-1.2,2.8-2.8,2.8s-2.8-1.2-2.8-2.8l0,0c0-1.5,1.2-2.8,2.8-2.8S362.8,241.5,362.8,243
	z"/>
<path class="st9" d="M363.5,243L363.5,243c0,1.9-1.6,3.5-3.5,3.5s-3.5-1.6-3.5-3.5l0,0c0-1.9,1.6-3.5,3.5-3.5S363.5,241.1,363.5,243
	z"/>
<path class="st10" d="M402.8,243L402.8,243c0,1.5-1.2,2.8-2.8,2.8s-2.8-1.2-2.8-2.8l0,0c0-1.5,1.2-2.8,2.8-2.8
	S402.8,241.5,402.8,243z"/>
<path class="st10" d="M403.5,243L403.5,243c0,1.9-1.6,3.5-3.5,3.5s-3.5-1.6-3.5-3.5l0,0c0-1.9,1.6-3.5,3.5-3.5
	S403.5,241.1,403.5,243z"/>
<path class="st9" d="M382.8,393L382.8,393c0,1.5-1.2,2.8-2.8,2.8s-2.8-1.2-2.8-2.8l0,0c0-1.5,1.2-2.8,2.8-2.8S382.8,391.5,382.8,393
	z"/>
<path class="st9" d="M383.5,393L383.5,393c0,1.9-1.6,3.5-3.5,3.5s-3.5-1.6-3.5-3.5l0,0c0-1.9,1.6-3.5,3.5-3.5S383.5,391.1,383.5,393
	z"/>
<path class="st9" d="M362.8,393L362.8,393c0,1.5-1.2,2.8-2.8,2.8s-2.8-1.2-2.8-2.8l0,0c0-1.5,1.2-2.8,2.8-2.8S362.8,391.5,362.8,393
	z"/>
<path class="st10" d="M363.5,393L363.5,393c0,1.9-1.6,3.5-3.5,3.5s-3.5-1.6-3.5-3.5l0,0c0-1.9,1.6-3.5,3.5-3.5
	S363.5,391.1,363.5,393z"/>
<path class="st10" d="M402.8,393L402.8,393c0,1.5-1.2,2.8-2.8,2.8s-2.8-1.2-2.8-2.8l0,0c0-1.5,1.2-2.8,2.8-2.8
	S402.8,391.5,402.8,393z"/>
<path class="st10" d="M403.5,393L403.5,393c0,1.9-1.6,3.5-3.5,3.5s-3.5-1.6-3.5-3.5l0,0c0-1.9,1.6-3.5,3.5-3.5
	S403.5,391.1,403.5,393z"/>
<path id="line_x5F_left_x5F_way_1_" class="st14" d="M316.1,317.1h381.8"/>
<path id="line_x5F_right_x5F_way_1_" class="st14" d="M1125.6,317.1H741.5"/>
<g id="right_x5F_coin" transform="matrix(1,0,0,1,-253.02500000003363,0)">
	<g transform="translate(1365.077904, 290.000000)">
		<g id="Oval">
			<ellipse class="st15" cx="-16" cy="27.8" rx="12.9" ry="12.3"/>
			<ellipse class="st15" cx="-13.2" cy="27.8" rx="12.9" ry="12.3"/>
			<ellipse class="st15" cx="-13.2" cy="27.8" rx="7.9" ry="7.6"/>
		</g>
		<g transform="translate(21.098063, 13.755052)">
			<polygon id="Fill-5" class="st3" points="-33.4,19.7 -39.8,14.7 -33.9,15.8 -28.4,13.1 			"/>
			<path id="Combined-Shape" class="st3" d="M-33.9,16.5l-6-1.8l4.9-6.5l6.5,5L-33.9,16.5z M-34.7,9.8l-3.3,4.4l1.9-0.3l1.7-2.2
				l2.3,1.6l2-0.3L-34.7,9.8z"/>
		</g>
		<path id="Shape" class="st16" d="M-22.2,19.2h-2.9"/>
		<path class="st16" d="M-26,27.8h-2.9"/>
		<path class="st16" d="M-23.3,35.5h-2.6"/>
	</g>
</g>
<g id="left_x5F_coin" transform="matrix(1,0,0,1,-253.02500000003363,0)">
	<g transform="translate(1365.077904, 290.000000)">
		<g id="Oval_1_">
			<ellipse class="st15" cx="-770.1" cy="27.8" rx="12.9" ry="12.3"/>
			<ellipse class="st15" cx="-767.2" cy="27.8" rx="12.9" ry="12.3"/>
			<ellipse class="st15" cx="-767.2" cy="27.8" rx="7.9" ry="7.6"/>
		</g>
		<g transform="translate(21.098063, 13.755052)">
			<polygon id="Fill-5_1_" class="st3" points="-787.4,19.7 -793.9,14.7 -787.9,15.9 -782.5,13.2 			"/>
			<path id="Combined-Shape_1_" class="st3" d="M-787.9,16.5l-6-1.8l4.9-6.5l6.5,5L-787.9,16.5z M-788.7,9.9l-3.3,4.4l1.9-0.3
				l1.7-2.2l2.3,1.6l2-0.3L-788.7,9.9z"/>
		</g>
		<path id="Shape_1_" class="st16" d="M-776.2,19.3h-2.9"/>
		<path class="st16" d="M-780,27.9h-2.9"/>
		<path class="st16" d="M-777.4,35.5h-2.6"/>
	</g>
</g>
<g id="tube_x5F_right1">
	<path class="st11" d="M1078.9,303H787.7v29.1l291.2-0.1V303z"/>
	<path class="st13" d="M802.9,326v4h274v-1.9V326H802.9z"/>
	<path class="st17" d="M1076.9,310v-4h-282v4H1076.9z"/>
	<path class="st18" d="M857.4,332c-8,0-14.5-6.5-14.5-14.5s6.5-14.5,14.5-14.5s14.5,6.5,14.5,14.5S865.4,332,857.4,332z"/>
	<path class="st3" d="M857.9,302v1.3c7.6,0,13.7,6.3,13.7,14.2s-6.1,14.2-13.7,14.2v1.3c8.3,0,15-6.9,15-15.5S866.2,302,857.9,302z"
		/>
	<path class="st18" d="M978,331.9c-8.2,0-14.9-6.5-14.9-14.6s6.7-14.6,14.9-14.6s14.9,6.5,14.9,14.6
		C992.8,325.3,986.2,331.9,978,331.9z"/>
	<path class="st3" d="M978.9,302v1.3c7.6,0,13.7,6.3,13.7,14.2s-6.1,14.2-13.7,14.2v1.3c8.3,0,15-6.9,15-15.5S987.2,302,978.9,302z"
		/>
</g>
<g id="tube_x5F_left1">
	<path class="st11" d="M361.1,303h291.2v29.1L361.1,332V303z"/>
	<path class="st13" d="M637.1,326v4h-274v-1.9V326H637.1z"/>
	<path class="st17" d="M363.1,310v-4h282v4H363.1z"/>
	<path class="st18" d="M582.6,332c8,0,14.5-6.5,14.5-14.5s-6.5-14.5-14.5-14.5s-14.5,6.5-14.5,14.5S574.6,332,582.6,332z"/>
	<path class="st3" d="M582.1,302v1.3c-7.6,0-13.7,6.3-13.7,14.2s6.1,14.2,13.7,14.2v1.3c-8.3,0-15-6.9-15-15.5S573.8,302,582.1,302z
		"/>
	<path class="st18" d="M462,331.9c8.2,0,14.9-6.5,14.9-14.6s-6.7-14.6-14.9-14.6s-14.9,6.5-14.9,14.6
		C447.2,325.3,453.8,331.9,462,331.9z"/>
	<path class="st3" d="M461.1,302v1.3c-7.6,0-13.7,6.3-13.7,14.2s6.1,14.2,13.7,14.2v1.3c-8.3,0-15-6.9-15-15.5S452.8,302,461.1,302z
		"/>
</g>
<g id="block_x5F_right">
	<rect x="1080.6" y="298.6" class="st19" width="18" height="35.3"/>
	<path class="st8" d="M1191,232h-92v173h92V232z"/>
	<path class="st19" d="M1100,404h90V240.4c-3,15.2-8.1,17.2-13.7,24.9c-11.8,14.3-14.5,22.2-12.2,38.3c1.6,11.3,1.8,30.5-8.1,32.4
		c-23.4,4.3-23.4,16-24.5,19.7c-4.6,15.3-4.7,24.7-14.1,28.4C1107.4,388.1,1102.9,397.2,1100,404z"/>
	<circle class="st20" cx="1149.5" cy="317.5" r="32.5"/>
	<circle class="st3" cx="1143.5" cy="317.5" r="32.5"/>
	<path class="st21" d="M1124,317c0,0,5-10,19-10s19,10,19,10s-5,10-19,10S1124,317,1124,317z"/>
</g>
<g id="block_x5F_left">
	<rect x="340.6" y="300" class="st19" width="19.2" height="35"/>
	<path class="st8" d="M249,232h92v173h-92V232z"/>
	<path class="st19" d="M340,404h-90V240.4c3,15.2,8.1,17.2,13.7,24.9c11.8,14.3,14.5,22.2,12.2,38.3c-1.6,11.3-1.8,30.5,8.1,32.4
		c23.4,4.3,23.4,16,24.5,19.7c4.6,15.3,4.7,24.7,14.1,28.4C332.6,388.1,337.1,397.2,340,404z"/>
	<circle class="st20" cx="290.5" cy="317.5" r="32.5"/>
	<circle class="st3" cx="296.5" cy="317.5" r="32.5"/>
	<path class="st21" d="M316,317c0,0-5-10-19-10s-19,10-19,10s5,10,19,10S316,317,316,317z"/>
</g>
<g id="long-right-eye">
	<circle cx="1143" cy="317" r="3.5"/>
	<circle class="st22" cx="1143" cy="317" r="5.5"/>
</g>
<g id="long-left-eye">
	<circle cx="296.6" cy="317" r="3.5"/>
	<circle class="st22" cx="296.6" cy="317" r="5.5"/>
</g>
<g>
	<path class="st23" d="M341,442h59"/>
	<path class="st23" d="M341,450h25"/>
	<path class="st23" d="M1098,442h38"/>
	<path class="st23" d="M1098,450h15"/>
	<path class="st23" d="M1177,484h11"/>
	<path class="st11" d="M735,385v100h-30V385H735z"/>
	<path class="st13" d="M713,484h-4.8L708,363h5V484z"/>
	<path class="st17" d="M728,365h3.8l0.2,118h-1.9H728V365z"/>
	<path class="st24" d="M705,461.5c0,8.6,6.7,15.5,15,15.5s15-6.9,15-15.5s-6.7-15.5-15-15.5S705,452.9,705,461.5z"/>
	<path class="st25" d="M799,439V146H641v293H799z"/>
	<path class="st25" d="M791,431V198H649v233H791z"/>
	<path class="st5" d="M799,188v-42H641v42H799z"/>
	<path class="st26" d="M791,180v-26H649v26H791z"/>
	<circle class="st27" cx="781" cy="167" r="2.5"/>
	<circle class="st9" cx="771" cy="167" r="2.5"/>
	<path class="st28" d="M791,159v-5H649v5H791z"/>
</g>
<g id="long-wheel">
	<path class="st29" d="M670,306c0-27.6,22.4-50,50-50s50,22.4,50,50s-22.4,50-50,50S670,333.6,670,306z"/>
	<path class="st30" d="M745.5,336.4l4.3-4.7c10.5-11.5,13.1-28.1,6.7-42.3l-2.2-4.9l-17.7,25.2l6.7,7l-9.5,10.6L745.5,336.4z
		 M693.4,274.2l-4.3,4.7c-10.5,11.5-13.1,28.1-6.7,42.3l2.2,4.9l17.7-25.2l-6.7-7l9.5-10.6L693.4,274.2z M750.4,279.5l-4.7-4.3
		c-11.4-10.5-28-13.2-42.1-6.8l-4.8,2.2l25.1,17.8l7-6.7l10.6,9.5L750.4,279.5z M688.9,331.5l4.7,4.3c11.4,10.5,28,13.2,42.1,6.8
		l4.8-2.2l-25.1-17.8l-7,6.7l-10.6-9.5L688.9,331.5z"/>
</g>
<g>
	<path class="st31" d="M1100,193h46v-16h45"/>
	<path class="st31" d="M1191,219h-10"/>
	<path class="st31" d="M1191,190h-24"/>
	<path class="st31" d="M1191,143v121.5"/>
</g>
</svg>
