<svg width="224" height="45" viewBox="0 0 224 45" fill="none" xmlns="http://www.w3.org/2000/svg">
<path d="M159.032 11.3965C158.815 11.3965 158.65 11.4557 158.504 11.5315C158.442 11.5638 158.381 11.6006 158.326 11.6333L158.312 11.6417C158.252 11.6781 158.193 11.7127 158.128 11.7468L157.945 11.8421V12.0519C157.945 12.1469 157.924 12.217 157.886 12.3338L157.883 12.3423C157.846 12.4587 157.793 12.6196 157.793 12.8306V35.7689C157.793 35.9913 157.85 36.1608 157.922 36.3113C157.953 36.3749 157.988 36.4377 158.019 36.4937L158.028 36.5094C158.063 36.5721 158.096 36.6325 158.128 36.7003L158.152 36.7504L158.191 36.7901C158.399 37.0062 158.784 37.205 159.182 37.205C159.34 37.205 159.512 37.1339 159.635 37.0699C159.727 37.0223 159.824 36.9615 159.91 36.8919H159.936L160.036 36.7783C160.278 36.5022 160.415 36.1461 160.422 35.7751L160.422 35.7689V29.1936L163.097 26.2824L172.935 36.941L172.94 36.9466C173.149 37.1627 173.533 37.3615 173.931 37.3615C174.148 37.3615 174.313 37.3023 174.459 37.2265C174.521 37.1941 174.583 37.1573 174.637 37.1245L174.651 37.1163C174.712 37.0798 174.77 37.0452 174.836 37.0111L174.891 36.9822L174.933 36.9348C175.175 36.6587 175.312 36.3026 175.319 35.9316L175.319 35.9254C175.319 35.703 175.263 35.5335 175.19 35.383C175.16 35.3194 175.125 35.2566 175.094 35.2006L175.085 35.1849C175.05 35.1222 175.017 35.0617 174.984 34.9939L174.962 34.9486L165.062 24.0702L174.625 13.848L174.632 13.84C174.875 13.5639 175.012 13.2078 175.018 12.8368L175.018 12.8306C175.018 12.6081 174.962 12.4389 174.889 12.2887C174.859 12.2259 174.824 12.164 174.794 12.1086L174.784 12.0914C174.749 12.029 174.716 11.9688 174.684 11.9011L174.657 11.8446L174.612 11.8017C174.346 11.5484 173.998 11.404 173.635 11.3965H173.629C173.412 11.3965 173.246 11.4557 173.101 11.5315C173.038 11.5638 172.977 11.6006 172.922 11.6334L172.909 11.6417C172.848 11.6781 172.79 11.7127 172.724 11.7468L172.671 11.7743L160.42 25.2236V12.8306C160.42 12.6081 160.364 12.4389 160.291 12.2887C160.261 12.2259 160.226 12.164 160.195 12.1086L160.186 12.0914C160.151 12.029 160.118 11.9688 160.085 11.9011L160.058 11.8445L160.013 11.8015C159.748 11.5491 159.402 11.4049 159.04 11.3965H159.032Z" fill="white"/>
<path d="M183.712 11.3984C183.496 11.3984 183.33 11.4576 183.184 11.5335C183.122 11.5658 183.061 11.6026 183.006 11.6354L182.992 11.6437C182.932 11.6801 182.873 11.7147 182.808 11.7488L182.752 11.7777L182.711 11.8251C182.469 12.1006 182.332 12.4557 182.324 12.8258V35.9274C182.324 36.149 182.38 36.3182 182.452 36.4692C182.484 36.5347 182.519 36.5989 182.551 36.6563L182.558 36.6682C182.593 36.7313 182.627 36.792 182.66 36.8604L182.683 36.9085L182.72 36.947C182.928 37.1654 183.316 37.3634 183.712 37.3634H197.589V37.3072C197.658 37.2845 197.722 37.2559 197.783 37.2244C197.845 37.1921 197.906 37.1554 197.96 37.1228L197.974 37.1141C198.035 37.0777 198.093 37.0432 198.158 37.0092L198.214 36.9804L198.255 36.9335C198.498 36.6584 198.636 36.3032 198.644 35.9328V35.9254C198.644 35.7029 198.588 35.5333 198.515 35.3825C198.483 35.318 198.448 35.2545 198.416 35.1979L198.408 35.1839C198.373 35.121 198.339 35.0604 198.306 34.9924L198.279 34.9367L198.235 34.8944C197.97 34.6419 197.624 34.4977 197.261 34.4893H185.1V25.8121H194.095C194.312 25.8121 194.477 25.753 194.623 25.6771C194.685 25.6448 194.746 25.608 194.801 25.5752L194.815 25.5669C194.876 25.5305 194.934 25.4959 194.999 25.4618L195.055 25.4328L195.097 25.3854C195.339 25.11 195.476 24.7549 195.483 24.3848V24.378C195.483 24.1564 195.428 23.9872 195.355 23.8361C195.324 23.7707 195.288 23.7066 195.256 23.6492L195.249 23.6372C195.214 23.5741 195.181 23.5133 195.147 23.445L195.12 23.3894L195.076 23.347C194.811 23.0945 194.465 22.9503 194.102 22.9419H185.1V14.2687H197.254C197.471 14.2687 197.637 14.2096 197.783 14.1335C197.845 14.1013 197.906 14.0646 197.96 14.032L197.974 14.0233C198.035 13.9869 198.093 13.9523 198.158 13.9183L198.214 13.8896L198.255 13.8426C198.498 13.5669 198.637 13.2107 198.644 12.8394V12.8326C198.644 12.61 198.587 12.4407 198.514 12.2901C198.483 12.2264 198.448 12.1637 198.417 12.1077L198.408 12.0923C198.373 12.0298 198.339 11.9694 198.306 11.9015L198.279 11.8459L198.235 11.8035C197.97 11.551 197.624 11.4068 197.261 11.3984H183.712Z" fill="white"/>
<path d="M100.177 12.1756C99.9929 11.8887 99.7508 11.68 99.4667 11.5729C99.1819 11.4656 98.8761 11.4694 98.5844 11.5692C98.3166 11.6619 98.0639 11.8115 97.8802 12.0569C97.6946 12.3048 97.6045 12.6171 97.6045 12.9871V36.0819C97.6045 36.3045 97.6608 36.4736 97.7335 36.6238C97.764 36.6868 97.7987 36.7489 97.8296 36.8043L97.839 36.8212C97.8738 36.8836 97.9069 36.9438 97.9393 37.0114L98.0313 37.203L98.2373 37.203C98.2373 37.2031 98.2379 37.2032 98.2392 37.2034C98.2444 37.2043 98.2607 37.2072 98.2933 37.216C98.3244 37.2244 98.355 37.2338 98.3923 37.2451L98.4667 37.2676C98.6015 37.3077 98.7911 37.3595 98.9925 37.3595C99.2101 37.3595 99.3754 37.3005 99.5216 37.2244C99.5835 37.1921 99.6444 37.1554 99.6986 37.1228L99.713 37.1141C99.7735 37.0777 99.8317 37.0432 99.8971 37.0092L99.9522 36.9804L99.9937 36.9335C100.237 36.6584 100.375 36.3032 100.382 35.9328V18.2251L108.739 32.4321V32.836H111.217V32.4321L119.725 17.9662V36.0819C119.725 36.3045 119.781 36.4736 119.854 36.6238C119.884 36.6863 119.918 36.7481 119.949 36.8034L119.959 36.8214C119.994 36.884 120.027 36.9445 120.059 37.0126L120.084 37.0631L120.122 37.1031C120.332 37.3203 120.717 37.516 121.113 37.516C121.33 37.516 121.495 37.4569 121.641 37.381C121.703 37.3487 121.764 37.312 121.819 37.2792L121.833 37.2708C121.894 37.2344 121.952 37.1998 122.018 37.1657L122.073 37.1368L122.115 37.0894C122.357 36.8139 122.494 36.4588 122.501 36.0887V12.9871C122.501 12.682 122.404 12.3737 122.225 12.1349C122.053 11.9058 121.794 11.7299 121.471 11.7112C120.881 11.5297 120.298 11.761 119.931 12.3314L109.982 29.0203L100.184 12.1878L100.177 12.1756Z" fill="white"/>
<path fill-rule="evenodd" clip-rule="evenodd" d="M140.075 11.551L140.061 11.551C139.997 11.5507 139.87 11.5501 139.758 11.5887C139.7 11.6088 139.63 11.6442 139.569 11.7076H139.288V12.0206H139.247L132.241 29.3971L129.837 35.3145C129.756 35.4834 129.693 35.6546 129.693 35.8471C129.693 36.0435 129.759 36.2186 129.842 36.3908C129.927 36.5661 130.021 36.7169 130.148 36.8485C130.264 36.9687 130.395 37.0607 130.547 37.1427C130.652 37.2384 130.76 37.2919 130.86 37.3218V37.3615H131.195C131.455 37.3615 131.714 37.3172 131.939 37.1711C132.167 37.0229 132.319 36.7966 132.413 36.5116L134.43 31.4313H146.318L148.335 36.5121C148.43 36.7965 148.582 37.0227 148.81 37.1709C149.034 37.3171 149.293 37.3615 149.553 37.3615L149.563 37.3615C149.712 37.3616 149.96 37.3618 150.196 37.1487C150.515 36.9865 150.768 36.7147 150.91 36.3805C150.992 36.2117 151.055 36.0402 151.055 35.8471C151.055 35.655 150.992 35.4841 150.912 35.3162L148.509 29.3964L141.604 12.2752C141.597 12.239 141.585 12.1887 141.559 12.1347C141.539 12.0918 141.508 12.0428 141.463 11.9979V11.7076H141.099C141.021 11.6495 140.944 11.6123 140.877 11.5889C140.828 11.5717 140.784 11.5622 140.75 11.5571C140.733 11.5545 140.718 11.553 140.705 11.5522L140.688 11.5513L140.682 11.5511L140.678 11.5511L140.676 11.551H140.075ZM145.293 28.7176H135.458L140.375 16.536L145.293 28.7176Z" fill="white"/>
<path fill-rule="evenodd" clip-rule="evenodd" d="M207.487 11.553C207.27 11.553 207.105 11.6122 206.959 11.688C206.897 11.7204 206.835 11.7572 206.781 11.79L206.767 11.7982C206.706 11.8346 206.648 11.8693 206.582 11.9034L206.527 11.9323L206.485 11.9797C206.243 12.2551 206.106 12.6102 206.099 12.9803V35.9254C206.099 36.1478 206.155 36.3173 206.228 36.4678C206.258 36.5314 206.293 36.5942 206.325 36.6502L206.333 36.6659C206.368 36.7286 206.401 36.7891 206.434 36.8568L206.458 36.9069L206.496 36.9466C206.705 37.1627 207.089 37.3615 207.487 37.3615C207.704 37.3615 207.869 37.3023 208.015 37.2265C208.077 37.1941 208.139 37.1573 208.193 37.1245L208.207 37.1163C208.268 37.0798 208.326 37.0452 208.392 37.0111L208.447 36.9822L208.489 36.9348C208.731 36.6587 208.868 36.3026 208.875 35.9316L208.875 35.9254V25.8121H214.049L219.222 36.6991L219.224 36.7026C219.41 37.082 219.804 37.516 220.427 37.516L220.438 37.5161C220.587 37.5162 220.84 37.5164 221.076 37.2982C221.225 37.217 221.371 37.117 221.481 36.9752C221.595 36.8277 221.651 36.6591 221.664 36.472C221.745 36.2699 221.743 36.0997 221.718 35.947C221.707 35.8796 221.697 35.8327 221.689 35.7939C221.675 35.7304 221.666 35.6887 221.666 35.6143V35.5357L217.005 25.7148C218.55 25.3437 219.956 24.5648 220.974 23.3621C222.247 22.0407 222.719 20.5462 222.719 18.7608C222.719 16.7801 221.918 15.136 220.517 13.6835L220.502 13.6701C219.097 12.374 217.363 11.553 215.312 11.553H207.487ZM219.943 18.6043C219.943 19.7318 219.401 20.7439 218.535 21.6409C217.701 22.5052 216.588 22.9439 215.312 22.9439H208.875V14.2667H215.162C216.432 14.2667 217.559 14.7026 218.553 15.5853C219.534 16.4582 219.943 17.4561 219.943 18.6043Z" fill="white"/>
<path d="M6.02508 1.49962C5.29892 1.46485 4.57713 1.63194 3.93651 1.98309C3.2959 2.33424 2.76043 2.85632 2.3871 3.49376C2.01376 4.13121 1.81654 4.86056 1.81641 5.60346V40.4804L1.81828 41.2825C1.81828 42.4711 2.76116 43.4347 3.92426 43.4347C5.08736 43.4347 6.03024 42.4711 6.03024 41.2825V39.7173C6.03024 39.6867 6.02961 39.6561 6.02837 39.6258V5.96855L27.5125 20.5443C27.7487 20.705 27.9425 20.9228 28.0765 21.1784C28.2108 21.4343 28.281 21.7205 28.281 22.0109V39.5879C28.2785 39.6307 28.2772 39.6739 28.2772 39.7173V41.2825C28.2772 42.4711 29.2201 43.4347 30.3832 43.4347C31.5463 43.4347 32.4892 42.4711 32.4892 41.2825V40.4804H32.4929V22.0109C32.493 21.0108 32.2511 20.0263 31.7888 19.1449C31.3265 18.2634 30.6572 17.5118 29.8421 16.9583L8.06026 2.18053C7.45458 1.7697 6.75123 1.53439 6.02508 1.49962Z" fill="white"/>
<path d="M69.1716 41.2825V40.4804H69.1831V5.60346C69.183 4.86056 68.9858 4.13121 68.6124 3.49376C68.2391 2.85632 67.7037 2.33424 67.063 1.98309C66.4224 1.63194 65.7006 1.46485 64.9745 1.49962C64.2483 1.53439 63.545 1.7697 62.9393 2.18053L41.1577 16.9581C40.3421 17.5114 39.6729 18.2623 39.2101 19.1437C38.7472 20.0252 38.5049 21.01 38.5047 22.0105V39.584C38.5021 39.6281 38.5007 39.6726 38.5007 39.7173V41.2825C38.5007 42.4711 39.4436 43.4347 40.6067 43.4347C41.7698 43.4347 42.7127 42.4711 42.7127 41.2825V40.4804H42.7167V22.0112C42.7168 21.7209 42.7871 21.4348 42.9215 21.179C43.0559 20.923 43.2501 20.705 43.4869 20.5444L64.9712 5.96855V39.4911C64.9636 39.5654 64.9597 39.6409 64.9597 39.7173V41.2825C64.9597 42.4711 65.9026 43.4347 67.0657 43.4347C68.2288 43.4347 69.1716 42.4711 69.1716 41.2825Z" fill="white"/>
</svg>
