<svg width="51" height="50" viewBox="0 0 51 50" fill="none" xmlns="http://www.w3.org/2000/svg">
<circle cx="25.4033" cy="25" r="25" fill="#003CDA"/>
<path d="M14.605 18.2839C14.6385 17.9592 14.5122 17.6383 14.2647 17.4198L11.7437 14.4444V14H19.5714L25.6218 27L30.9411 14H38.4033V14.4444L36.2479 16.4691C36.062 16.6079 35.9699 16.836 36.0084 17.0617V31.9383C35.9699 32.164 36.062 32.3921 36.2479 32.5309L38.3529 34.5556V35H27.7647V34.5556L29.9453 32.4815C30.1596 32.2716 30.1596 32.2099 30.1596 31.8889V19.8642L24.0966 34.9506H23.2773L16.2184 19.8642V29.9753C16.1596 30.4004 16.3037 30.8284 16.6092 31.1358L19.4453 34.5062V34.9506H11.4033V34.5062L14.2395 31.1358C14.5427 30.8279 14.6784 30.3971 14.605 29.9753V18.2839Z" fill="white"/>
</svg>
