<svg width="150" height="175" viewBox="0 0 150 175" fill="none" xmlns="http://www.w3.org/2000/svg" class="mw-sm-px-100 h-sm-auto mb-sm-20">
    <g clip-path="">
        <path
            d="M122.6 145.533V146.533H123.6L126.998 146.533H127.998V145.533V61.9821C127.998 43.2656 122.342 27.821 112.781 17.0416C103.214 6.25477 89.7884 0.202759 74.3999 0.202759C59.0032 0.202759 45.9699 6.24843 36.8007 17.0373C27.6435 27.8122 22.3999 43.2438 22.3999 61.9416V145.533V146.533H23.3999H26.9999H27.9999V145.533V64.3471C27.9999 45.9947 32.7616 31.3538 40.9074 21.3221C49.0371 11.3102 60.5974 5.81101 74.3999 5.81101C88.2045 5.81101 100.224 11.3157 108.806 21.3421C117.398 31.3792 122.6 46.0161 122.6 64.3471V145.533Z"
            fill="#276BFB" stroke="#000085" stroke-width="2" />
        <path d="M96 57.7319H54V145.533H96V57.7319Z" fill="#276BFB" stroke="#000085" stroke-width="2" />
        <path
            d="M75 69.7595C81.6274 69.7595 87 64.3746 87 57.732C87 51.0894 81.6274 45.7045 75 45.7045C68.3726 45.7045 63 51.0894 63 57.732C63 64.3746 68.3726 69.7595 75 69.7595Z"
            fill="#33DFCC" stroke="#000085" stroke-width="2" />
        <path d="M54.3999 85.7938H95.5999V145.134H54.3999V85.7938Z" fill="#003CDA" stroke="#000085" stroke-width="2" />
        <path d="M150 155.155H0V175H150V155.155Z" fill="#33DFCC" />
    </g>
    <defs>
        <clipPath id="clip0">
            <rect width="150" height="175" fill="white" />
        </clipPath>
    </defs>
</svg>