<svg width="150" height="175" viewBox="0 0 150 175" fill="none" xmlns="http://www.w3.org/2000/svg" class="mw-sm-px-100 h-sm-auto mb-sm-20">
    <path d="M150 155.155H0V175H150V155.155Z" fill="#33DFCC" />
    <path
        d="M47.5481 8.00203C54.3874 5.10959 62.2731 8.32083 65.1605 15.1793C68.0661 22.0811 65.2101 29.8805 58.4109 32.756C39.0616 40.9392 27.7658 61.7728 32.0517 82.3887C36.3353 102.993 54.579 117.687 75.5998 117.454C96.6206 117.221 114.534 102.125 118.361 81.4309C122.19 60.7197 110.49 40.4973 90.9694 32.7476C84.117 30.0272 81.017 21.9467 83.773 14.9728C86.508 8.05177 94.321 4.66625 101.222 7.40608C132.708 19.9058 150.969 52.9777 144.799 86.3436C138.63 119.707 109.76 144.031 75.8976 144.407C42.0351 144.783 12.6346 121.106 5.7287 87.8881C-1.17772 54.6673 16.3464 21.1979 47.5481 8.00203Z"
        fill="#003CDA" stroke="#000085" stroke-width="2" />
    <path
        d="M68.0004 19.8454C68.0004 27.2664 61.9989 33.2784 54.6004 33.2784C47.202 33.2784 41.2004 27.2664 41.2004 19.8454C41.2004 12.4244 47.202 6.41241 54.6004 6.41241C61.9989 6.41241 68.0004 12.4244 68.0004 19.8454Z"
        fill="#276BFB" stroke="#000085" stroke-width="2" />
    <path
        d="M65.6003 19.8454C65.6003 25.9379 60.6733 30.8729 54.6003 30.8729C48.5274 30.8729 43.6003 25.9379 43.6003 19.8454C43.6003 13.7529 48.5274 8.81793 54.6003 8.81793C60.6733 8.81793 65.6003 13.7529 65.6003 19.8454Z"
        fill="#276BFB" stroke="#000085" stroke-width="2" />
    <path
        d="M109.4 19.8454C109.4 27.2664 103.399 33.2784 96.0003 33.2784C88.6019 33.2784 82.6003 27.2664 82.6003 19.8454C82.6003 12.4244 88.6019 6.41241 96.0003 6.41241C103.399 6.41241 109.4 12.4244 109.4 19.8454Z"
        fill="#276BFB" stroke="#000085" stroke-width="2" />
    <path
        d="M107 19.8454C107 25.9379 102.073 30.8729 96.0002 30.8729C89.9273 30.8729 85.0002 25.9379 85.0002 19.8454C85.0002 13.7529 89.9273 8.81793 96.0002 8.81793C102.073 8.81793 107 13.753 107 19.8454Z"
        fill="#276BFB" stroke="#000085" stroke-width="2" />
    <path
        d="M74.9999 27.0619C81.9587 27.0619 87.5999 21.4077 87.5999 14.433C87.5999 7.45827 81.9587 1.80414 74.9999 1.80414C68.0411 1.80414 62.3999 7.45827 62.3999 14.433C62.3999 21.4077 68.0411 27.0619 74.9999 27.0619Z"
        fill="#33DFCC" stroke="#000085" stroke-width="2" />
</svg>