<svg width="50" height="58" viewBox="0 0 50 58" fill="none" xmlns="http://www.w3.org/2000/svg">
<path fill-rule="evenodd" clip-rule="evenodd" d="M35.7414 29.8236C35.0089 27.7774 33.702 25.9866 31.9779 24.6667L31.9594 24.6456C31.7767 24.5071 31.5898 24.3744 31.3989 24.2475L31.362 24.2211C31.1739 24.0975 30.9826 23.9788 30.7883 23.8652L30.7356 23.8336C30.5451 23.7229 30.3492 23.6218 30.1487 23.5304L30.0908 23.4988C29.8857 23.4022 29.6786 23.3099 29.4697 23.2219L29.4013 23.1956C28.7252 22.9144 28.0236 22.699 27.3064 22.5523C26.893 23.3032 26.3616 23.9824 25.7325 24.5639C27.2099 24.682 28.6372 25.155 29.8935 25.9428L29.9645 25.9849L30.3119 26.2222L30.4698 26.3329C30.5751 26.412 30.6725 26.4911 30.7804 26.5702L30.9567 26.7126C31.0515 26.7917 31.1383 26.8708 31.2278 26.9525L31.4068 27.1239L31.6515 27.3717L31.8305 27.5642L32.0489 27.8199L32.22 28.0335L32.4174 28.2971C32.4832 28.3841 32.5279 28.4527 32.5806 28.5291C32.6332 28.6056 32.7016 28.7058 32.7569 28.798L32.9095 29.0511C32.9569 29.1355 33.0148 29.2304 33.0622 29.3201C33.1148 29.4071 33.1569 29.5046 33.2043 29.5995C33.249 29.6944 33.2938 29.7735 33.3333 29.8632C33.3825 29.9802 33.4299 30.0979 33.4754 30.2164C33.7251 30.8407 33.9017 31.4919 34.0017 32.1569L34.2886 33.222C34.4097 33.6649 35.5282 37.588 38.1206 38.9088C41.0919 40.4353 45.0265 42.3204 46.574 43.0665L26.1352 55.0888V46.8498C26.1352 45.5501 28.767 44.0288 29.9856 43.4936L30.0566 43.4541C30.3067 43.3302 30.5567 43.1957 30.7935 43.0533L30.8962 43.0006C31.4233 42.6825 31.9249 42.3238 32.3963 41.9276L32.5226 41.8142L32.6674 41.685C32.8156 41.5516 32.9604 41.4145 33.1017 41.2737L33.1753 41.2026C33.3306 41.047 33.4859 40.8994 33.6228 40.7174L33.7517 40.5698C33.8675 40.4327 33.9781 40.293 34.086 40.1506L34.1807 40.032C34.3123 39.858 34.4334 39.6787 34.5544 39.4968L34.5965 39.444C34.7597 39.1883 34.9045 38.9326 35.0571 38.6663C34.4839 37.9732 33.9929 37.2159 33.5938 36.4095C33.4306 36.8656 33.2253 37.3085 32.9885 37.733C32.8885 37.9175 32.7832 38.0968 32.6779 38.2708L32.6306 38.342C32.5312 38.49 32.4277 38.635 32.32 38.777L32.2253 38.8983C32.118 39.0369 32.0057 39.1715 31.8884 39.3017L31.8252 39.3755C31.0638 40.2085 30.1544 40.8924 29.1434 41.3924L28.9513 41.4899C28.4328 41.7193 23.8639 43.7494 23.8639 46.8367V55.0782L3.36199 43.0349C4.68053 42.2281 8.53353 39.9819 11.7023 38.9932C12.9418 38.6136 15.5737 40.2402 17.0659 41.4346L17.1554 41.5137C17.3528 41.6982 17.5607 41.8749 17.7765 42.0409L17.8502 42.1069C18.3239 42.4865 18.8292 42.8266 19.3582 43.1272L19.7135 43.3196L19.7846 43.3565C20.1294 43.5305 20.482 43.6887 20.8426 43.8285L21.0005 43.8891L21.1058 43.9313C21.6242 44.1211 22.1585 44.2688 22.698 44.3795C23.1226 43.6192 23.6705 42.9349 24.3192 42.3547C23.4543 42.2905 22.6028 42.1041 21.7901 41.801L21.6506 41.7483L21.3821 41.6402L21.2453 41.5822L20.9847 41.4609C20.3813 41.1677 19.812 40.8088 19.2872 40.3905L18.4713 39.6629C17.7222 39.0167 16.9112 38.4462 16.05 37.9597C14.0235 36.826 12.3286 36.4569 11.0285 36.8577C8.31772 37.6961 5.2648 39.3254 3.40146 40.4011L23.8718 4.23682V20.074C23.8718 20.6356 23.0296 22.1014 20.2162 23.3458L20.0215 23.4513C19.7478 23.5831 19.4819 23.7255 19.2214 23.8784L19.1688 23.9048C18.3024 24.416 17.5077 25.0401 16.8054 25.7608L16.7791 25.7872C16.5128 26.0615 16.2607 26.3493 16.0237 26.6493L15.9948 26.6889C15.8804 26.8351 15.769 26.9837 15.6605 27.1344L15.6237 27.1872C15.5261 27.3294 15.4313 27.4735 15.3394 27.6195L15.3079 27.6644C15.2152 27.814 15.1265 27.9661 15.042 28.1205L14.9815 28.2286C14.9052 28.3762 14.8289 28.5344 14.7525 28.6715L14.7183 28.7427C14.6505 28.8815 14.5865 29.0222 14.5262 29.1645L14.4604 29.3227C14.3999 29.4703 14.3446 29.6285 14.2893 29.7709L14.2367 29.9291C14.1964 30.0422 14.1596 30.1565 14.1262 30.2718C14.1077 30.3351 14.0867 30.3957 14.0709 30.4616C13.9198 30.9911 13.8098 31.5314 13.7419 32.0778L13.7156 32.323C13.7032 32.4343 13.6935 32.546 13.6867 32.6578C13.6814 32.7712 13.6867 32.8819 13.6682 32.9926C13.6498 33.106 13.6682 33.1297 13.6682 33.2036V33.454C13.6682 34.0077 13.7103 34.5613 13.7946 35.1123C14.6762 35.3278 15.5295 35.6464 16.3369 36.0615C16.089 35.2654 15.9561 34.438 15.9421 33.6043V33.454C15.9421 33.2536 15.9421 33.0559 15.9658 32.845V32.6868C15.9658 32.5154 16 32.3414 16.0237 32.1701V32.0962C16.0509 31.9055 16.0878 31.7163 16.1343 31.5294L16.1658 31.3844C16.2053 31.2262 16.2448 31.0733 16.2948 30.9177L16.3264 30.8176C16.379 30.6356 16.4448 30.459 16.5132 30.2824L16.5659 30.1637C16.6238 30.0187 16.6869 29.8737 16.7527 29.7287L16.8027 29.618C16.8843 29.4466 16.9738 29.2805 17.0659 29.1144L17.1159 29.0327C17.1989 28.8897 17.2857 28.749 17.3765 28.6108L17.4423 28.5133C17.5502 28.3551 17.6607 28.2075 17.7791 28.044L17.8002 28.0176C17.9134 27.8726 18.0318 27.7329 18.1529 27.5958L18.2187 27.5167C18.774 26.9051 19.4109 26.3699 20.1136 25.9269L21.0821 25.4787C21.6006 25.2494 26.1484 23.1639 26.1484 20.074V4.23682L46.7793 40.6726C44.937 39.7841 41.6998 38.2155 39.1733 36.9289C37.731 36.1907 36.7467 33.5885 36.4941 32.6552L36.2151 31.561C36.1118 30.9739 35.9604 30.3963 35.7624 29.8342L35.7414 29.8236ZM49.7164 41.2922L26.9774 1.14953C26.7766 0.798421 26.4864 0.507003 26.1363 0.305047C25.7863 0.103091 25.389 -0.00216487 24.9851 3.37509e-05C24.5821 -0.00123091 24.1859 0.104468 23.8369 0.306377C23.4878 0.508286 23.1984 0.799201 22.9981 1.14953L0.28538 41.2948C-0.000522492 41.8009 -0.0751992 42.3997 0.0776183 42.9607C0.230436 43.5216 0.598364 43.9994 1.10125 44.2898L23.8323 57.683C24.1869 57.8906 24.5902 58 25.0009 58C25.4116 58 25.8148 57.8906 26.1694 57.683L48.8979 44.3004C49.4005 44.0104 49.7685 43.5333 49.9218 42.9729C50.0751 42.4125 50.0012 41.8142 49.7164 41.308L49.7216 41.2922H49.7164Z" fill="#0D9991"/>
</svg>
