<svg width="255" height="51" viewBox="0 0 255 51" fill="none" xmlns="http://www.w3.org/2000/svg" class="mw-100">
<g clip-path="">
<path d="M83.8049 42H90.1957V20.8359H83.8049V42Z" fill="white"/>
<path d="M83 13.9796C83 11.7777 84.8203 10 86.9786 10C89.2224 10 91 11.7777 91 13.9796C91 16.1802 89.2224 17.9573 86.9786 17.9573C84.8203 17.9573 83 16.1802 83 13.9796Z" fill="white"/>
<path fill-rule="evenodd" clip-rule="evenodd" d="M56 12H67.8956C73.5877 12 77.242 16.0572 77.242 21.0422C77.242 24.9294 75.1601 27.4228 71.3374 28.7746L82 42H73.886L63.8598 29.6195H62.7554V42H56V12ZM67.0883 23.9157C69.0851 23.9157 70.5294 22.7753 70.5294 21.0422C70.5294 19.2256 69.0851 18.1692 67.0883 18.1692H62.7554V23.9157H67.0883Z" fill="white"/>
<path fill-rule="evenodd" clip-rule="evenodd" d="M101.461 42.8465H94.9712C95.3245 47.433 99.4303 51 105.742 51C111.437 51 117 48.2405 117 40.3834V20.4672H110.334V22.5911C109.318 21.1468 107.023 20 104.33 20C98.6793 20 94 24.756 94 30.7017C94 36.6468 98.6793 41.4034 104.33 41.4034C107.023 41.4034 109.318 40.256 110.334 38.8123V41.3183C110.334 44.3337 108.215 45.6917 105.92 45.6917C103.668 45.6917 102.167 44.8431 101.461 42.8465ZM105.787 25.8177C108.48 25.8177 110.863 27.7292 110.863 30.7017C110.863 33.6742 108.48 35.5857 105.787 35.5857C103.094 35.5857 100.71 33.6742 100.71 30.7017C100.71 27.7292 103.094 25.8177 105.787 25.8177Z" fill="white"/>
<path fill-rule="evenodd" clip-rule="evenodd" d="M121 31C121 24.8052 126.203 20 132.501 20C138.798 20 144 24.8052 144 31C144 37.1954 138.798 42 132.501 42C126.203 42 121 37.1954 121 31ZM137.353 31C137.353 28.0074 135.255 25.9427 132.501 25.9427C129.746 25.9427 127.647 28.0074 127.647 31C127.647 33.992 129.746 36.0573 132.501 36.0573C135.255 36.0573 137.353 33.992 137.353 31Z" fill="white"/>
<path fill-rule="evenodd" clip-rule="evenodd" d="M152.693 41.5374V39.4349C153.578 40.5704 155.75 42 158.718 42C164.524 42 169 36.996 169 31.025C169 25.0539 164.524 20.0499 158.718 20.0499C155.75 20.0499 153.578 21.4801 152.693 22.6156V10H146V41.5374H152.693ZM157.212 25.8105C160.226 25.8105 162.264 27.9979 162.264 31.025C162.264 34.0526 160.226 36.2394 157.212 36.2394C154.199 36.2394 152.161 34.0526 152.161 31.025C152.161 27.9979 154.199 25.8105 157.212 25.8105Z" fill="white"/>
<path d="M173 42H179V10H173V42Z" fill="white"/>
<path fill-rule="evenodd" clip-rule="evenodd" d="M193.499 20C187.203 20 182 24.8052 182 31C182 37.1954 187.203 42 193.499 42C199.796 42 205 37.1954 205 31C205 24.8052 199.796 20 193.499 20ZM193.499 25.9427C196.255 25.9427 198.353 28.0074 198.353 31C198.353 33.992 196.255 36.0573 193.499 36.0573C190.745 36.0573 188.647 33.992 188.647 31C188.647 28.0074 190.745 25.9427 193.499 25.9427Z" fill="white"/>
<path d="M208 31C208 24.889 212.9 20 219.61 20C225.878 20 229.808 23.7509 231 28.6825H224.113C223.318 26.9963 221.95 25.7318 219.61 25.7318C216.828 25.7318 214.71 27.7133 214.71 31C214.71 34.2873 216.828 36.2682 219.61 36.2682C221.95 36.2682 223.318 35.0037 224.113 33.3175H231C229.808 38.2491 225.878 42 219.61 42C212.9 42 208 37.111 208 31Z" fill="white"/>
<path d="M240.679 10H234V42H240.679V32.4424L248.907 42H257L246.916 30.3097L255.055 20.6667H247.137L240.679 28.3037V10Z" fill="white"/>
<path fill-rule="evenodd" clip-rule="evenodd" d="M25.9997 46C14.9541 46 6 37.0459 6 25.9997C6 14.9541 14.9541 6 25.9997 6C37.0453 6 46 14.9541 46 25.9997C46 37.0459 37.0453 46 25.9997 46Z" fill="white"/>
<path fill-rule="evenodd" clip-rule="evenodd" d="M22.1747 0L35 35L0 22.2482L22.1747 0Z" fill="white" stroke="#5B88FF"/>
<path fill-rule="evenodd" clip-rule="evenodd" d="M0.00390625 22.2493L34.9996 35L18.7474 19L0.00390625 22.2493Z" fill="white" stroke="#5B88FF"/>
<path fill-rule="evenodd" clip-rule="evenodd" d="M21.8803 0.0917969L18.7369 19.1167L0.0126953 22.2491L21.8803 0.0917969Z" fill="white" stroke="#5B88FF"/>
</g>
<defs>
<clipPath id="clip0">
<rect width="255" height="51" fill="white"/>
</clipPath>
</defs>
</svg>
