<svg width="376" height="369" viewBox="0 0 376 369" fill="none" xmlns="http://www.w3.org/2000/svg" class="visible-sm mb-sm-40">
    <g mask="">
        <path
            d="M30.2474 309.748V310.248H30.7474H138.057H138.557V309.748V260.932V260.432H138.057H30.7474H30.2474V260.932L30.2474 309.748Z"
            fill="#276BFB" stroke="#000085" />
        <path
            d="M29.9023 310.095V310.595H30.4023H138.402H138.902V310.095V260.585V260.085H138.402H30.4023H29.9023V260.585L29.9023 310.095Z"
            fill="#276BFB" stroke="#000085" />
        <path d="M43.4023 270V299H125.402V270H43.4023Z" fill="#000085" />
        <path d="M44.2462 272.884V270.116H124.558V272.884H44.2462Z" fill="#CBE2FF" stroke="#000085" />
        <path d="M43.9023 273.5V269.5H124.902V273.5H43.9023Z" fill="#CBE2FF" stroke="#000085" />
        <path
            d="M39.5636 272C39.5636 270.807 38.5963 269.839 37.403 269.839C36.2097 269.839 35.2424 270.807 35.2424 272V272C35.2424 273.193 36.2097 274.161 37.403 274.161C38.5963 274.161 39.5636 273.193 39.5636 272V272Z"
            fill="#33DFCC" stroke="#000085" />
        <path
            d="M39.9023 272C39.9023 270.619 38.7831 269.5 37.4023 269.5C36.0216 269.5 34.9023 270.619 34.9023 272V272C34.9023 273.381 36.0216 274.5 37.4023 274.5C38.7831 274.5 39.9023 273.381 39.9023 272V272Z"
            fill="#33DFCC" stroke="#000085" />
        <path
            d="M39.5636 284C39.5636 282.807 38.5963 281.839 37.403 281.839C36.2097 281.839 35.2424 282.807 35.2424 284V284C35.2424 285.193 36.2097 286.161 37.403 286.161C38.5963 286.161 39.5636 285.193 39.5636 284V284Z"
            fill="#33DFCC" stroke="#000085" />
        <path
            d="M39.9023 284C39.9023 282.619 38.7831 281.5 37.4023 281.5C36.0216 281.5 34.9023 282.619 34.9023 284V284C34.9023 285.381 36.0216 286.5 37.4023 286.5C38.7831 286.5 39.9023 285.381 39.9023 284V284Z"
            fill="#33DFCC" stroke="#000085" />
        <path
            d="M39.5636 296C39.5636 294.807 38.5963 293.839 37.403 293.839C36.2097 293.839 35.2424 294.807 35.2424 296V296C35.2424 297.193 36.2097 298.161 37.403 298.161C38.5963 298.161 39.5636 297.193 39.5636 296V296Z"
            fill="#33DFCC" stroke="#000085" />
        <path
            d="M39.9023 296C39.9023 294.619 38.7831 293.5 37.4023 293.5C36.0216 293.5 34.9023 294.619 34.9023 296V296C34.9023 297.381 36.0216 298.5 37.4023 298.5C38.7831 298.5 39.9023 297.381 39.9023 296V296Z"
            fill="#33DFCC" stroke="#000085" />
        <path
            d="M134.564 272C134.564 270.807 133.596 269.839 132.403 269.839C131.21 269.839 130.242 270.807 130.242 272V272C130.242 273.193 131.21 274.161 132.403 274.161C133.596 274.161 134.564 273.193 134.564 272V272Z"
            fill="#33DFCC" stroke="#000085" />
        <path
            d="M134.902 272C134.902 270.619 133.783 269.5 132.402 269.5C131.022 269.5 129.902 270.619 129.902 272V272C129.902 273.381 131.022 274.5 132.402 274.5C133.783 274.5 134.902 273.381 134.902 272V272Z"
            fill="#33DFCC" stroke="#000085" />
        <path
            d="M134.564 284C134.564 282.807 133.596 281.839 132.403 281.839C131.21 281.839 130.242 282.807 130.242 284V284C130.242 285.193 131.21 286.161 132.403 286.161C133.596 286.161 134.564 285.193 134.564 284V284Z"
            fill="#33DFCC" stroke="#000085" />
        <path
            d="M134.902 284C134.902 282.619 133.783 281.5 132.402 281.5C131.022 281.5 129.902 282.619 129.902 284V284C129.902 285.381 131.022 286.5 132.402 286.5C133.783 286.5 134.902 285.381 134.902 284V284Z"
            fill="#33DFCC" stroke="#000085" />
        <path
            d="M134.564 296C134.564 294.807 133.596 293.839 132.403 293.839C131.21 293.839 130.242 294.807 130.242 296V296C130.242 297.193 131.21 298.161 132.403 298.161C133.596 298.161 134.564 297.193 134.564 296V296Z"
            fill="#33DFCC" stroke="#000085" />
        <path
            d="M134.902 296C134.902 294.619 133.783 293.5 132.402 293.5C131.022 293.5 129.902 294.619 129.902 296V296C129.902 297.381 131.022 298.5 132.402 298.5C133.783 298.5 134.902 297.381 134.902 296V296Z"
            fill="#33DFCC" stroke="#000085" />
        <path d="M30.7492 309.185L30.7492 366.653H138.55V309.185H30.7492Z" fill="#003CDA" />
        <path d="M29.9026 367V367.5H30.4026H138.403H138.903V367V309V308.5H138.403H30.4026H29.9026V309L29.9026 367Z"
            fill="#003CDA" stroke="#000085" />
        <path
            d="M138.402 310V367H30.4023C40.4447 365.157 41.7588 362.041 46.853 358.578C53.602 354.979 62.7078 351.631 76.4532 353.938C83.7903 355.169 91.9121 349.945 93.5119 346.09C97.7528 335.872 104.079 331.697 106.523 331.065C116.655 328.222 125.045 323.559 127.265 317.775C129.596 311.701 133.9 311.769 138.402 310Z"
            fill="#276BFB" />
        <path
            d="M37.9631 314.654C37.9631 313.6 37.1087 312.745 36.0548 312.745C35.001 312.745 34.1466 313.6 34.1466 314.654C34.1466 315.707 35.001 316.562 36.0548 316.562C37.1087 316.562 37.9631 315.707 37.9631 314.654Z"
            fill="#CBE2FF" stroke="#000085" />
        <path
            d="M37.9648 361.347C37.9648 360.293 37.1104 359.439 36.0565 359.439C35.0026 359.439 34.1483 360.293 34.1483 361.347C34.1483 362.401 35.0026 363.255 36.0565 363.255C37.1104 363.255 37.9648 362.401 37.9648 361.347Z"
            fill="#CBE2FF" stroke="#000085" />
        <path
            d="M135.176 361.347C135.176 360.293 134.322 359.439 133.268 359.439C132.214 359.439 131.359 360.293 131.359 361.347C131.359 362.401 132.214 363.255 133.268 363.255C134.322 363.255 135.176 362.401 135.176 361.347Z"
            fill="#CBE2FF" stroke="#000085" />
        <path
            d="M135.176 314.654C135.176 313.6 134.322 312.745 133.268 312.745C132.214 312.745 131.359 313.6 131.359 314.654C131.359 315.707 132.214 316.562 133.268 316.562C134.322 316.562 135.176 315.707 135.176 314.654Z"
            fill="#CBE2FF" stroke="#000085" />
        <path
            d="M84.472 356.473C94.7867 356.473 103.149 348.11 103.149 337.794C103.149 327.478 94.7867 319.116 84.472 319.116C74.1564 319.116 65.7945 327.478 65.7945 337.794C65.7945 348.11 74.1564 356.473 84.472 356.473Z"
            fill="#000085" />
        <path fill-rule="evenodd" clip-rule="evenodd"
            d="M84.4725 356.751C74.0036 356.751 65.5174 348.264 65.5174 337.795C65.5174 327.326 74.0037 318.839 84.4725 318.839C94.9407 318.839 103.427 327.326 103.427 337.795C103.427 348.264 94.9407 356.751 84.4725 356.751Z"
            fill="#000085" />
        <path
            d="M65.6803 337.019C66.3293 346.627 74.4249 354.222 84.3166 354.222C94.2086 354.222 102.304 346.627 102.953 337.019C102.981 337.431 102.995 337.846 102.995 338.265C102.995 348.455 94.6327 356.715 84.3166 356.715C74.0008 356.715 65.6384 348.455 65.6384 338.265C65.6384 337.846 65.6525 337.431 65.6803 337.019V337.019Z"
            fill="#00C0AB" />
        <path fill-rule="evenodd" clip-rule="evenodd"
            d="M65.9573 337C66.5995 346.507 74.6163 353.944 84.3166 353.944C94.0173 353.944 102.034 346.507 102.676 337H103.23C103.259 337.42 103.273 337.842 103.273 338.265C103.273 348.609 94.7853 356.992 84.3166 356.992C73.8483 356.992 65.3608 348.609 65.3608 338.265C65.3608 337.842 65.3751 337.42 65.4034 337H65.9573Z"
            fill="#00C0AB" />
        <path fill-rule="evenodd" clip-rule="evenodd"
            d="M74.1765 337.888C74.1765 337.888 77.2667 332.69 84.2035 332.69C90.5788 332.69 94.5435 337.888 94.5435 337.888C94.5435 337.888 91.7264 342.882 84.36 342.882C77.8845 342.882 74.1765 337.888 74.1765 337.888Z"
            fill="white" />
        <path
            d="M86.4022 340.5C88.3355 340.5 89.9025 338.933 89.9025 337C89.9025 335.067 88.3354 333.5 86.4022 333.5C84.4696 333.5 82.9025 335.067 82.9025 337C82.9025 338.933 84.4695 340.5 86.4022 340.5Z"
            stroke="#000085" />
        <path fill-rule="evenodd" clip-rule="evenodd"
            d="M88.4025 337C88.4025 338.105 87.507 339 86.4025 339C85.2981 339 84.4025 338.105 84.4025 337C84.4025 335.895 85.2981 335 86.4025 335C87.507 335 88.4025 335.895 88.4025 337Z"
            fill="#000085" />
        <path
            d="M229.247 309.748V310.248H229.747H337.057H337.557V309.748V260.932V260.432H337.057H229.747H229.247V260.932V309.748Z"
            fill="#276BFB" stroke="#000085" />
        <path
            d="M228.902 310.095V310.595H229.402H337.402H337.902V310.095V260.585V260.085H337.402H229.402H228.902V260.585V310.095Z"
            fill="#276BFB" stroke="#000085" />
        <path d="M242.402 270V299H324.402V270H242.402Z" fill="#000085" />
        <path d="M243.246 272.884V270.116H323.558V272.884H243.246Z" fill="#CBE2FF" stroke="#000085" />
        <path d="M242.902 273.5V269.5H323.902V273.5H242.902Z" fill="#CBE2FF" stroke="#000085" />
        <path
            d="M238.564 272C238.564 270.807 237.596 269.839 236.403 269.839C235.21 269.839 234.242 270.807 234.242 272V272C234.242 273.193 235.21 274.161 236.403 274.161C237.596 274.161 238.564 273.193 238.564 272V272Z"
            fill="#33DFCC" stroke="#000085" />
        <path
            d="M238.902 272C238.902 270.619 237.783 269.5 236.402 269.5C235.022 269.5 233.902 270.619 233.902 272V272C233.902 273.381 235.022 274.5 236.402 274.5C237.783 274.5 238.902 273.381 238.902 272V272Z"
            fill="#33DFCC" stroke="#000085" />
        <path
            d="M238.564 284C238.564 282.807 237.596 281.839 236.403 281.839C235.21 281.839 234.242 282.807 234.242 284V284C234.242 285.193 235.21 286.161 236.403 286.161C237.596 286.161 238.564 285.193 238.564 284V284Z"
            fill="#33DFCC" stroke="#000085" />
        <path
            d="M238.902 284C238.902 282.619 237.783 281.5 236.402 281.5C235.022 281.5 233.902 282.619 233.902 284V284C233.902 285.381 235.022 286.5 236.402 286.5C237.783 286.5 238.902 285.381 238.902 284V284Z"
            fill="#33DFCC" stroke="#000085" />
        <path
            d="M238.564 296C238.564 294.807 237.596 293.839 236.403 293.839C235.21 293.839 234.242 294.807 234.242 296V296C234.242 297.193 235.21 298.161 236.403 298.161C237.596 298.161 238.564 297.193 238.564 296V296Z"
            fill="#33DFCC" stroke="#000085" />
        <path
            d="M238.902 296C238.902 294.619 237.783 293.5 236.402 293.5C235.022 293.5 233.902 294.619 233.902 296V296C233.902 297.381 235.022 298.5 236.402 298.5C237.783 298.5 238.902 297.381 238.902 296V296Z"
            fill="#33DFCC" stroke="#000085" />
        <path
            d="M333.564 272C333.564 270.807 332.596 269.839 331.403 269.839C330.21 269.839 329.242 270.807 329.242 272V272C329.242 273.193 330.21 274.161 331.403 274.161C332.596 274.161 333.564 273.193 333.564 272V272Z"
            fill="#33DFCC" stroke="#000085" />
        <path
            d="M333.902 272C333.902 270.619 332.783 269.5 331.402 269.5C330.022 269.5 328.902 270.619 328.902 272V272C328.902 273.381 330.022 274.5 331.402 274.5C332.783 274.5 333.902 273.381 333.902 272V272Z"
            fill="#33DFCC" stroke="#000085" />
        <path
            d="M333.564 284C333.564 282.807 332.596 281.839 331.403 281.839C330.21 281.839 329.242 282.807 329.242 284V284C329.242 285.193 330.21 286.161 331.403 286.161C332.596 286.161 333.564 285.193 333.564 284V284Z"
            fill="#33DFCC" stroke="#000085" />
        <path
            d="M333.902 284C333.902 282.619 332.783 281.5 331.402 281.5C330.022 281.5 328.902 282.619 328.902 284V284C328.902 285.381 330.022 286.5 331.402 286.5C332.783 286.5 333.902 285.381 333.902 284V284Z"
            fill="#33DFCC" stroke="#000085" />
        <path
            d="M333.564 296C333.564 294.807 332.596 293.839 331.403 293.839C330.21 293.839 329.242 294.807 329.242 296V296C329.242 297.193 330.21 298.161 331.403 298.161C332.596 298.161 333.564 297.193 333.564 296V296Z"
            fill="#33DFCC" stroke="#000085" />
        <path
            d="M333.902 296C333.902 294.619 332.783 293.5 331.402 293.5C330.022 293.5 328.902 294.619 328.902 296V296C328.902 297.381 330.022 298.5 331.402 298.5C332.783 298.5 333.902 297.381 333.902 296V296Z"
            fill="#33DFCC" stroke="#000085" />
        <path d="M229.749 309.185V366.653H337.55V309.185H229.749Z" fill="#003CDA" />
        <path d="M228.903 367V367.5H229.403H337.403H337.903V367V309V308.5H337.403H229.403H228.903V309V367Z"
            fill="#003CDA" stroke="#000085" />
        <path
            d="M337.402 310V367H229.402C239.445 365.157 240.759 362.041 245.853 358.578C252.602 354.979 261.708 351.631 275.453 353.938C282.79 355.169 290.912 349.945 292.512 346.09C296.753 335.872 303.079 331.697 305.523 331.065C315.655 328.222 324.045 323.559 326.265 317.775C328.596 311.701 332.9 311.769 337.402 310Z"
            fill="#276BFB" />
        <path
            d="M236.963 314.654C236.963 313.6 236.109 312.745 235.055 312.745C234.001 312.745 233.147 313.6 233.147 314.654C233.147 315.707 234.001 316.562 235.055 316.562C236.109 316.562 236.963 315.707 236.963 314.654Z"
            fill="#CBE2FF" stroke="#000085" />
        <path
            d="M236.965 361.347C236.965 360.293 236.11 359.439 235.057 359.439C234.003 359.439 233.148 360.293 233.148 361.347C233.148 362.401 234.003 363.255 235.057 363.255C236.11 363.255 236.965 362.401 236.965 361.347Z"
            fill="#CBE2FF" stroke="#000085" />
        <path
            d="M334.176 361.347C334.176 360.293 333.322 359.439 332.268 359.439C331.214 359.439 330.359 360.293 330.359 361.347C330.359 362.401 331.214 363.255 332.268 363.255C333.322 363.255 334.176 362.401 334.176 361.347Z"
            fill="#CBE2FF" stroke="#000085" />
        <path
            d="M334.176 314.654C334.176 313.6 333.322 312.745 332.268 312.745C331.214 312.745 330.359 313.6 330.359 314.654C330.359 315.707 331.214 316.562 332.268 316.562C333.322 316.562 334.176 315.707 334.176 314.654Z"
            fill="#CBE2FF" stroke="#000085" />
        <path
            d="M283.472 356.473C293.787 356.473 302.149 348.11 302.149 337.794C302.149 327.478 293.787 319.116 283.472 319.116C273.156 319.116 264.794 327.478 264.794 337.794C264.794 348.11 273.156 356.473 283.472 356.473Z"
            fill="#000085" />
        <path fill-rule="evenodd" clip-rule="evenodd"
            d="M283.472 356.751C273.004 356.751 264.517 348.264 264.517 337.795C264.517 327.326 273.004 318.839 283.472 318.839C293.941 318.839 302.427 327.326 302.427 337.795C302.427 348.264 293.941 356.751 283.472 356.751Z"
            fill="#000085" />
        <path
            d="M264.68 337.019C265.329 346.627 273.425 354.222 283.317 354.222C293.209 354.222 301.304 346.627 301.953 337.019C301.981 337.431 301.995 337.846 301.995 338.265C301.995 348.455 293.633 356.715 283.317 356.715C273.001 356.715 264.638 348.455 264.638 338.265C264.638 337.846 264.653 337.431 264.68 337.019V337.019Z"
            fill="#00C0AB" />
        <path fill-rule="evenodd" clip-rule="evenodd"
            d="M264.957 337C265.6 346.507 273.616 353.944 283.317 353.944C293.017 353.944 301.034 346.507 301.676 337H302.23C302.259 337.42 302.273 337.842 302.273 338.265C302.273 348.609 293.785 356.992 283.317 356.992C272.848 356.992 264.361 348.609 264.361 338.265C264.361 337.842 264.375 337.42 264.403 337H264.957Z"
            fill="#00C0AB" />
        <path fill-rule="evenodd" clip-rule="evenodd"
            d="M273.176 337.888C273.176 337.888 276.267 332.69 283.203 332.69C289.579 332.69 293.544 337.888 293.544 337.888C293.544 337.888 290.726 342.882 283.36 342.882C276.885 342.882 273.176 337.888 273.176 337.888Z"
            fill="white" />
        <path
            d="M285.402 340.5C287.335 340.5 288.903 338.933 288.903 337C288.903 335.067 287.335 333.5 285.402 333.5C283.47 333.5 281.903 335.067 281.903 337C281.903 338.933 283.47 340.5 285.402 340.5Z"
            stroke="#000085" />
        <path fill-rule="evenodd" clip-rule="evenodd"
            d="M287.403 337C287.403 338.105 286.507 339 285.403 339C284.298 339 283.403 338.105 283.403 337C283.403 335.895 284.298 335 285.403 335C286.507 335 287.403 335.895 287.403 337Z"
            fill="#000085" />
        <path d="M76.4025 298.5V226L96.4025 225.986V298.5L76.4025 298.5Z" fill="#BBD0EF" fill-opacity="0.5"
            stroke="#000085" />
        <path opacity="0.3" d="M92.4025 173L92.4025 296" stroke="#000D6D" stroke-width="4" stroke-linecap="square" />
        <path opacity="0.2" d="M81.4025 295V240" stroke="white" stroke-width="2" stroke-linecap="round" />
        <path opacity="0.2"
            d="M95.9672 260.223C95.9672 254.942 91.6772 250.662 86.3851 250.662C81.093 250.662 76.8029 254.942 76.8029 260.223C76.8029 265.503 81.093 269.784 86.3851 269.784C91.6772 269.784 95.9672 265.503 95.9672 260.223Z"
            stroke="#000D6D" />
        <path d="M76.4025 260C76.4025 265.523 80.8797 270 86.4025 270C91.9254 270 96.4025 265.523 96.4025 260"
            stroke="#000085" />
        <path
            d="M94.1919 247.209C94.1919 242.593 90.6112 238.851 86.1941 238.851C81.7771 238.851 78.1963 242.593 78.1963 247.209C78.1963 251.824 81.7771 255.566 86.1941 255.566C90.6112 255.566 94.1919 251.824 94.1919 247.209Z"
            fill="#FFCB76" stroke="#000085" />
        <path
            d="M94.1911 245.358C94.1911 240.742 90.6103 237 86.1933 237C81.7762 237 78.1955 240.742 78.1955 245.358C78.1955 249.973 81.7762 253.715 86.1933 253.715C90.6103 253.715 94.1911 249.973 94.1911 245.358Z"
            fill="#FFCB76" stroke="#000085" />
        <path
            d="M91.1269 245.357C91.1269 242.507 88.918 240.197 86.1931 240.197C83.4683 240.197 81.2594 242.507 81.2594 245.357C81.2594 248.207 83.4683 250.517 86.1931 250.517C88.918 250.517 91.1269 248.207 91.1269 245.357Z"
            fill="#FFCB76" stroke="#000085" />
        <path
            d="M89.1491 244.865L87.5007 247.013L87.8419 245.2L87.8728 245.035L87.7987 244.885L86.9817 243.234L89.1491 244.865Z"
            fill="black" stroke="#000085" />
        <path
            d="M86.2313 243.548L87.2396 245.179L86.7023 246.964L86.6374 246.494L86.6094 246.29L86.4462 246.165L85.4059 245.368L86.1923 244.279L86.3096 244.117L86.2823 243.918L86.2313 243.548Z"
            fill="black" stroke="#000085" />
        <path d="M80.6164 251.196V253.104Z" fill="#29CC86" />
        <path d="M80.6164 251.196V253.104" stroke="#000085" />
        <path d="M86.2034 253.677V255.585Z" fill="#29CC86" />
        <path d="M86.2034 253.677V255.585" stroke="#000085" />
        <path d="M91.2126 251.96V253.677Z" fill="#29CC86" />
        <path d="M91.2126 251.96V253.677" stroke="#000085" />
        <path d="M271.403 298.5V226L291.403 225.986V298.5L271.403 298.5Z" fill="#BBD0EF" fill-opacity="0.5"
            stroke="#000085" />
        <path opacity="0.3" d="M287.403 173L287.403 296" stroke="#000D6D" stroke-width="4" stroke-linecap="square" />
        <path opacity="0.2" d="M276.403 295V240" stroke="white" stroke-width="2" stroke-linecap="round" />
        <path opacity="0.2"
            d="M290.967 260.223C290.967 254.942 286.677 250.662 281.385 250.662C276.093 250.662 271.803 254.942 271.803 260.223C271.803 265.503 276.093 269.784 281.385 269.784C286.677 269.784 290.967 265.503 290.967 260.223Z"
            stroke="#000D6D" />
        <path d="M271.403 260C271.403 265.523 275.88 270 281.403 270C286.925 270 291.403 265.523 291.403 260"
            stroke="#000085" />
        <path d="M246.919 151.653L122.196 151.505L122.183 170.619L246.896 170.767L246.919 151.653Z" fill="#BBD0EF"
            fill-opacity="0.5" stroke="#000085" />
        <path opacity="0.3" d="M121.334 167.413L246.047 167.524" stroke="#000085" stroke-linecap="square" />
        <path opacity="0.2" d="M246.919 154.859L122.196 154.748" stroke="white" stroke-linecap="round" />
        <path opacity="0.2"
            d="M182.929 170.767C177.655 170.767 173.38 166.476 173.38 161.184C173.38 155.892 177.655 151.602 182.929 151.602C188.202 151.602 192.477 155.892 192.477 161.184C192.477 166.476 188.202 170.767 182.929 170.767Z"
            stroke="#000D6D" />
        <path
            d="M183.986 151.636C178.021 151.636 173.184 155.911 173.184 161.184C173.184 166.458 178.021 170.732 183.986 170.732"
            stroke="#000085" />
        <path
            d="M289.398 247.601C289.398 242.991 285.818 239.254 281.401 239.254C276.984 239.254 273.403 242.991 273.403 247.601C273.403 252.21 276.984 255.947 281.401 255.947C285.818 255.947 289.398 252.21 289.398 247.601Z"
            fill="#6D86B4" stroke="#000085" />
        <path
            d="M289.398 245.753C289.398 241.143 285.817 237.407 281.4 237.407C276.983 237.407 273.402 241.143 273.402 245.753C273.402 250.362 276.983 254.099 281.4 254.099C285.817 254.099 289.398 250.362 289.398 245.753Z"
            fill="#6D86B4" stroke="#000085" />
        <path
            d="M286.334 245.753C286.334 242.907 284.125 240.599 281.4 240.599C278.676 240.599 276.467 242.907 276.467 245.753C276.467 248.599 278.676 250.906 281.4 250.906C284.125 250.906 286.334 248.599 286.334 245.753Z"
            fill="#6D86B4" stroke="#000085" />
        <path d="M281.988 245.772L281.118 247.268L278.701 245.772L281.118 244.277L281.988 245.772Z" fill="#231F20"
            stroke="#000085" />
        <path
            d="M283.734 246.03L283.888 245.772L283.734 245.515L283.65 245.375L284.208 245.772L283.65 246.169L283.734 246.03Z"
            fill="#231F20" stroke="#000085" />
        <path d="M275.823 251.584V253.489Z" fill="#29CC86" />
        <path d="M275.823 251.584V253.489" stroke="#000085" />
        <path d="M281.41 254.061V255.966Z" fill="#29CC86" />
        <path d="M281.41 254.061V255.966" stroke="#000085" />
        <path d="M286.419 252.346V254.061Z" fill="#29CC86" />
        <path d="M286.419 252.346V254.061" stroke="#000085" />
        <path
            d="M297.668 1.13825L465.658 1.00931L465.672 20.0423L302.889 20.1751C297.143 20.1795 292.488 24.8388 292.488 30.5848L292.481 71.0877C292.481 76.3624 288.205 80.6384 282.93 80.6385C282.93 80.6385 282.93 80.6385 282.93 80.6385C277.655 80.6385 273.379 76.3625 273.379 71.0877L273.398 25.4457C273.397 12.0386 284.261 1.16706 297.668 1.15677L297.668 1.13825Z"
            fill="#BBD0EF" fill-opacity="0.5" stroke="#000085" />
        <path opacity="0.3"
            d="M464.771 17.0136L302.078 17.0136C295.371 17.0136 289.934 22.4509 289.934 29.158V56.1904C289.934 68.3404 280.085 78.1899 267.935 78.1899H257.484"
            stroke="#000085" stroke-width="3" stroke-linecap="square" />
        <path opacity="0.2" fill-rule="evenodd" clip-rule="evenodd"
            d="M464.774 5.47793L297.546 5.856C287.05 5.87973 278.493 14.2788 278.275 24.7722L277.702 52.2491C277.531 60.4273 270.853 66.968 262.673 66.968H257.815V63.968H262.673C269.22 63.968 274.566 58.7326 274.702 52.1865L275.275 24.7096C275.528 12.5868 285.414 2.88343 297.539 2.85601L464.768 2.47794L464.774 5.47793Z"
            fill="white" />
        <path opacity="0.2"
            d="M320.71 20.0924C325.984 20.0924 330.261 15.8205 330.261 10.5509C330.261 5.28121 325.984 1.00931 320.71 1.00931C315.435 1.00931 311.159 5.28121 311.159 10.5509C311.159 15.8205 315.435 20.0924 320.71 20.0924Z"
            stroke="#000D6D" />
        <path
            d="M320.705 1.00006C315.435 1.00006 311.163 5.27619 311.163 10.5511C311.163 15.8259 315.435 20.1021 320.705 20.1021"
            stroke="#000085" />
        <path opacity="0.2"
            d="M283.354 54.018C288.629 54.018 292.905 49.746 292.905 44.4764C292.905 39.2067 288.629 34.9348 283.354 34.9348C278.08 34.9348 273.803 39.2067 273.803 44.4764C273.803 49.746 278.08 54.018 283.354 54.018Z"
            stroke="#000D6D" />
        <path
            d="M273.379 44.7946C273.379 50.0642 277.655 54.3362 282.93 54.3362C288.205 54.3362 292.481 50.0642 292.481 44.7946"
            stroke="#231F20" />
        <path d="M236.337 215.572V119.631H328.123V215.572H236.337Z" fill="#E1E9F3" />
        <path fill-rule="evenodd" clip-rule="evenodd" d="M235.991 215.92V119.284H328.471V215.92H235.991Z"
            stroke="#231F20" />
        <path d="M255.234 154.907V128.843H309.675V154.907H255.234Z" fill="#231F20" />
        <path fill-rule="evenodd" clip-rule="evenodd" d="M254.887 155.254V128.496H310.022V155.254H254.887Z"
            stroke="#231F20" />
        <path d="M255.234 131.065V128.943H309.675V131.065H255.234Z" fill="#E1E9F3" />
        <path fill-rule="evenodd" clip-rule="evenodd" d="M254.887 131.412V128.596H310.022V131.412H254.887Z"
            stroke="#231F20" />
        <path d="M236.337 228.38V167.714H328.122V228.38H236.337Z" fill="#BED1F4" />
        <path fill-rule="evenodd" clip-rule="evenodd" d="M235.99 228.727V167.367H328.469V228.727H235.99Z"
            stroke="#231F20" />
        <path d="M239.113 224.91V170.311H325.274V224.91H239.113Z" fill="#BED1F4" />
        <path fill-rule="evenodd" clip-rule="evenodd" d="M238.766 225.257V169.964H325.621V225.257H238.766Z"
            stroke="#231F20" />
        <path d="M239.262 225.01V222.887H325.424V225.01H239.262Z" fill="#E1E9F3" />
        <path fill-rule="evenodd" clip-rule="evenodd" d="M238.914 225.356V222.54H325.77V225.356H238.914Z"
            stroke="#231F20" />
        <path d="M253.534 190.118H259.888V170.317L253.534 170.26V190.118Z" fill="white" />
        <path
            d="M269.887 197.879V207.656H260.004V199.557H253.808V213.917L276.172 213.947V191.706H239.633V197.879H269.887Z"
            fill="white" />
        <path d="M313.836 174.424H292.395V217.594H313.836V174.424Z" fill="#407BF7" stroke="#231F20" />
        <path d="M292.396 174.424H290.294V217.594H292.396V174.424Z" fill="#BED1F4" stroke="#231F20" />
        <path d="M301.399 181.47H297.884" stroke="white" />
        <path d="M304.412 183.479H297.884" stroke="white" />
        <path d="M299.893 185.487H297.884" stroke="white" />
        <path d="M306.421 185.487H300.897" stroke="white" />
        <path d="M301.399 187.496H297.884" stroke="white" />
        <path d="M299.893 189.505H297.884" stroke="white" />
        <path d="M302.906 189.505H300.897" stroke="white" />
        <path d="M308.429 189.505H303.91" stroke="white" />
        <path d="M301.399 197.539H297.884" stroke="white" />
        <path d="M300.395 199.548H297.884" stroke="white" />
        <path d="M308.429 199.548H301.399" stroke="white" />
        <path d="M311.944 199.548H309.434" stroke="white" />
        <path d="M301.399 201.557H297.884" stroke="white" />
        <path d="M300.395 203.565H297.884" stroke="white" />
        <path d="M311.944 203.565H301.399" stroke="white" />
        <path d="M301.399 191.513H297.884" stroke="white" />
        <path d="M311.944 191.513H302.403" stroke="white" />
        <path d="M304.44 193.522H297.884" stroke="white" />
        <path d="M302.906 195.531H297.884" stroke="white" />
        <path d="M311.944 195.531H303.91" stroke="white" />
        <path d="M305.918 205.574H297.884" stroke="white" />
        <path d="M300.395 207.582H297.884" stroke="white" />
        <path d="M303.91 207.582H301.399" stroke="white" />
        <path opacity="0.2" d="M300.803 216.752H312.785V204.117L300.803 216.752Z" fill="white" />
        <path opacity="0.2" d="M312.785 198.01L294.288 216.541H297.713L312.785 201.57V198.01Z" fill="white" />
        <path d="M236.933 57.32V100.333L327.607 100.333V57.32L236.933 57.32Z" fill="#0DA6A3" stroke="#000085" />
        <path d="M236.086 101.181V56.4732L328.454 56.4732V101.181L236.086 101.181Z" stroke="#000085" />
        <path d="M255.578 67.3342V92.383L308.953 92.383V67.3342L255.578 67.3342Z" fill="#000085" stroke="#000085" />
        <path d="M254.732 93.2298V66.487L309.8 66.487V93.2298L254.732 93.2298Z" fill="#000085" stroke="#000085" />
        <path d="M255.496 91.1286V92.25L308.871 92.25V91.1286L255.496 91.1286Z" fill="#4FE2DF" stroke="#000085" />
        <path d="M254.65 93.0972V90.2819L309.719 90.2819V93.0972L254.65 93.0972Z" stroke="#000085" />
        <path d="M236.933 32.1623V57.2111L327.607 57.2111V32.1623L236.933 32.1623Z" fill="#33DFCC" stroke="#000085" />
        <path d="M236.085 58.0584V31.3157L328.453 31.3157V58.0584L236.085 58.0584Z" fill="#33DFCC" stroke="#000085" />
        <path d="M255.191 53.096V36.3814L309.494 36.3814V53.096L255.191 53.096Z" fill="#4FE2DF" stroke="#000085" />
        <path
            d="M240.799 34.3458C240.799 34.9316 240.325 35.4065 239.74 35.4065C239.155 35.4065 238.68 34.9316 238.68 34.3458C238.68 33.76 239.155 33.2851 239.74 33.2851C240.325 33.2851 240.799 33.76 240.799 34.3458Z"
            fill="#4FE2DF" stroke="#000085" />
        <path
            d="M241.146 34.3456C241.146 35.123 240.516 35.7532 239.739 35.7532C238.963 35.7532 238.333 35.123 238.333 34.3456C238.333 33.5681 238.963 32.9379 239.739 32.9379C240.516 32.9379 241.146 33.5681 241.146 34.3456Z"
            stroke="#000085" />
        <path
            d="M240.799 53.6579C240.799 54.2437 240.325 54.7186 239.74 54.7186C239.155 54.7186 238.68 54.2437 238.68 53.6579C238.68 53.0721 239.155 52.5972 239.74 52.5972C240.325 52.5972 240.799 53.0721 240.799 53.6579Z"
            fill="#4FE2DF" stroke="#000085" />
        <path
            d="M241.146 53.6575C241.146 54.435 240.516 55.0652 239.74 55.0652C238.963 55.0652 238.333 54.435 238.333 53.6575C238.333 52.8801 238.963 52.2498 239.74 52.2498C240.516 52.2498 241.146 52.8801 241.146 53.6575Z"
            stroke="#000085" />
        <path
            d="M325.126 53.862C325.126 54.4478 324.652 54.9227 324.067 54.9227C323.482 54.9227 323.007 54.4478 323.007 53.862C323.007 53.2762 323.482 52.8013 324.067 52.8013C324.652 52.8013 325.126 53.2762 325.126 53.862Z"
            fill="#4FE2DF" stroke="#000085" />
        <path
            d="M325.473 53.8623C325.473 54.6397 324.843 55.27 324.066 55.27C323.29 55.27 322.66 54.6397 322.66 53.8623C322.66 53.0848 323.29 52.4546 324.066 52.4546C324.843 52.4546 325.473 53.0848 325.473 53.8623Z"
            stroke="#000085" />
        <path
            d="M325.283 34.3453C325.283 34.9311 324.808 35.406 324.223 35.406C323.638 35.406 323.164 34.9311 323.164 34.3453C323.164 33.7595 323.638 33.2846 324.223 33.2846C324.808 33.2846 325.283 33.7595 325.283 34.3453Z"
            fill="#4FE2DF" stroke="#000085" />
        <path
            d="M325.629 34.3454C325.629 35.1228 325 35.7531 324.223 35.7531C323.446 35.7531 322.817 35.1228 322.817 34.3454C322.817 33.568 323.446 32.9377 324.223 32.9377C325 32.9377 325.629 33.568 325.629 34.3454Z"
            stroke="#000085" />
        <path d="M264.867 46.9324H267.978V48.1091H263.403V40.9998H264.867V46.9324Z" fill="#000085" />
        <path
            d="M273.1 45.0281H270.287V46.9324H273.588V48.1091H268.823V40.9998H273.578V42.1863H270.287V43.8806H273.1V45.0281Z"
            fill="#000085" />
        <path
            d="M280.229 48.1091H278.764L275.912 43.4314V48.1091H274.448V40.9998H275.912L278.769 45.6873V40.9998H280.229V48.1091Z"
            fill="#000085" />
        <path
            d="M281.508 48.1091V40.9998H283.696C284.321 40.9998 284.879 41.1414 285.37 41.4246C285.865 41.7045 286.251 42.1049 286.528 42.6257C286.804 43.1433 286.943 43.7325 286.943 44.3933V44.7205C286.943 45.3813 286.806 45.9688 286.533 46.4832C286.262 46.9975 285.88 47.3962 285.385 47.6794C284.89 47.9626 284.332 48.1059 283.71 48.1091H281.508ZM282.973 42.1863V46.9324H283.681C284.254 46.9324 284.692 46.7452 284.994 46.3708C285.297 45.9965 285.452 45.461 285.458 44.7644V44.3884C285.458 43.6658 285.309 43.1189 285.009 42.7478C284.71 42.3735 284.272 42.1863 283.696 42.1863H282.973Z"
            fill="#000085" />
        <path
            d="M292.289 45.0281H289.477V46.9324H292.778V48.1091H288.012V40.9998H292.768V42.1863H289.477V43.8806H292.289V45.0281Z"
            fill="#000085" />
        <path
            d="M296.269 45.5066H295.102V48.1091H293.637V40.9998H296.279C297.118 40.9998 297.766 41.1869 298.222 41.5613C298.678 41.9356 298.906 42.4646 298.906 43.1482C298.906 43.6332 298.8 44.0385 298.588 44.364C298.38 44.6863 298.062 44.9434 297.636 45.1355L299.174 48.0408V48.1091H297.602L296.269 45.5066ZM295.102 44.3201H296.283C296.651 44.3201 296.936 44.2273 297.138 44.0417C297.34 43.8529 297.441 43.5942 297.441 43.2654C297.441 42.9301 297.345 42.6664 297.153 42.4744C296.964 42.2823 296.672 42.1863 296.279 42.1863H295.102V44.3201Z"
            fill="#000085" />
        <path d="M291.726 155.349L291.874 66.4477L272.841 66.4341L272.693 155.326L291.726 155.349Z" fill="#BBD0EF"
            fill-opacity="0.5" stroke="#231F20" />
        <path opacity="0.3" d="M276.033 67.2832V154.5" stroke="#000D6D" stroke-linecap="square" />
        <path opacity="0.2" d="M288.645 154.231V67.8765" stroke="white" stroke-linecap="square" />
        <path opacity="0.2"
            d="M272.714 104.877C272.714 99.6308 276.887 95.3778 282.034 95.3778C287.181 95.3778 291.353 99.6308 291.353 104.877C291.353 110.123 287.181 114.376 282.034 114.376C276.887 114.376 272.714 110.123 272.714 104.877Z"
            stroke="#000D6D" />
        <path
            d="M291.787 105.342C291.787 110.611 287.511 114.883 282.236 114.883C276.961 114.883 272.685 110.611 272.685 105.342"
            stroke="#231F20" />
        <path
            d="M290.385 90.001C290.385 94.627 286.771 98.3771 282.314 98.3771C277.856 98.3771 274.243 94.627 274.243 90.001C274.243 85.375 277.856 81.6248 282.314 81.6248C286.771 81.6248 290.385 85.375 290.385 90.001Z"
            fill="#FFCB76" stroke="#231F20" />
        <path
            d="M290.384 91.856C290.384 96.482 286.771 100.232 282.313 100.232C277.856 100.232 274.242 96.482 274.242 91.856C274.242 87.2299 277.856 83.4798 282.313 83.4798C286.771 83.4798 290.384 87.2299 290.384 91.856Z"
            fill="#FFCB76" stroke="#231F20" />
        <path
            d="M287.292 91.856C287.292 94.7123 285.063 97.0278 282.313 97.0278C279.563 97.0278 277.334 94.7123 277.334 91.856C277.334 88.9997 279.563 86.6841 282.313 86.6841C285.063 86.6841 287.292 88.9997 287.292 91.856Z"
            fill="#FFCB76" stroke="black" />
        <path fill-rule="evenodd" clip-rule="evenodd"
            d="M286.007 92.4464L282.746 88.2253L283.481 92.1072L281.715 95.6531L286.007 92.4464Z" fill="#231F20" />
        <path fill-rule="evenodd" clip-rule="evenodd"
            d="M283.918 92.1071L282.741 88.2253L278.449 91.432L281.71 95.653L283.918 92.1071ZM279.557 91.5819L282.43 89.4356L282.261 90.6491L280.822 91.7442L281.903 93.2306L281.721 94.544L279.557 91.5819Z"
            fill="#231F20" />
        <path d="M276.685 86.0042V84.0921Z" fill="#29CC86" />
        <path d="M276.685 86.0042V84.0921" stroke="#231F20" />
        <path d="M282.324 83.5183V81.6062Z" fill="#29CC86" />
        <path d="M282.324 83.5183V81.6062" stroke="#231F20" />
        <path d="M287.379 85.2394V83.5185Z" fill="#29CC86" />
        <path d="M287.379 85.2394V83.5185" stroke="#231F20" />
        <path d="M132.242 45.5019V228.727H40.4563L40.4563 45.5019H132.242Z" fill="#BED1F4" stroke="#000085" />
        <path d="M125.902 222.5L125.902 77.4999H46.9021L46.9021 222.5H125.902Z" fill="#BED1F4" stroke="#000085" />
        <path d="M125.902 222.5V211.5H46.9021V222.5H125.902Z" fill="#E1E9F3" stroke="#000085" />
        <path fill-rule="evenodd" clip-rule="evenodd"
            d="M132.402 70.9999L132.402 41.9999L40.4021 41.9999V70.9999H132.402Z" fill="#E1E9F3" stroke="#000085" />
        <path d="M126.902 65.4999V47.4999H46.9021V65.4999H126.902Z" fill="#E1E9F3" stroke="#000085" />
        <path
            d="M117.402 55.4999H117.402C116.021 55.4999 114.902 56.6191 114.902 57.9999C114.902 59.3806 116.021 60.4999 117.402 60.4999H117.402C118.783 60.4999 119.902 59.3806 119.902 57.9999C119.902 56.6191 118.783 55.4999 117.402 55.4999Z"
            fill="#407BF7" stroke="#000085" />
        <path
            d="M108.402 55.4999H108.402C107.021 55.4999 105.902 56.6191 105.902 57.9999C105.902 59.3806 107.021 60.4999 108.402 60.4999H108.402C109.783 60.4999 110.902 59.3806 110.902 57.9999C110.902 56.6191 109.783 55.4999 108.402 55.4999Z"
            fill="#4FE2DF" stroke="#000085" />
        <path
            d="M61.4023 150C61.4023 136.193 72.5952 125 86.4023 125C100.209 125 111.402 136.193 111.402 150C111.402 163.807 100.209 175 86.4023 175C72.5952 175 61.4023 163.807 61.4023 150Z"
            fill="white" stroke="#000085" />
        <path fill-rule="evenodd" clip-rule="evenodd"
            d="M84.8116 130.833L74.7358 140.117V160.182L84.8116 168.568L81.6297 149.401L84.8116 130.833ZM87.4631 130.833L97.0085 139.219L84.2813 147.604L87.4631 130.833ZM84.8116 150L98.0691 141.615V158.685L84.8116 150ZM87.4631 169.167L97.0085 161.38L84.2813 152.396L87.4631 169.167Z"
            fill="#003CDA" />
        <path d="M126.902 50.4999V46.4999L46.9021 46.4999V50.4999L126.902 50.4999Z" fill="#BED1F4" stroke="#000085" />
    </g>
</svg>