<svg width="944" height="768" viewBox="0 0 944 768" fill="none" xmlns="http://www.w3.org/2000/svg" class="svg-absolute">
    <path d="M859.894 742.76V741.465H850.424V742.76C850.424 742.76 850.741 742.76 851.375 742.76C852.016 742.76 852.805 742.76 853.743 742.76C854.687 742.76 855.628 742.76 856.566 742.76C857.51 742.76 858.299 742.76 858.933 742.76C859.574 742.76 859.894 742.76 859.894 742.76ZM865.631 740.626C867.331 740.626 868.649 739.944 869.587 738.582C870.524 737.213 870.993 735.375 870.993 733.068C870.993 730.775 870.521 728.947 869.577 727.584C868.639 726.222 867.324 725.54 865.631 725.54C863.938 725.54 862.616 726.225 861.665 727.594C860.721 728.963 860.248 730.791 860.248 733.078C860.248 735.385 860.717 737.219 861.655 738.582C862.599 739.944 863.924 740.626 865.631 740.626ZM865.631 739.037C864.491 739.037 863.614 738.498 863 737.418C862.387 736.339 862.08 734.889 862.08 733.068C862.08 731.287 862.39 729.854 863.011 728.768C863.631 727.682 864.505 727.139 865.631 727.139C866.757 727.139 867.627 727.682 868.241 728.768C868.855 729.847 869.162 731.284 869.162 733.078C869.162 734.899 868.858 736.349 868.251 737.428C867.644 738.501 866.771 739.037 865.631 739.037ZM876.77 736.376L879.29 740.383H881.242L877.742 735.051L881.293 729.861H879.33L876.831 733.806H876.791L874.261 729.861H872.298L875.819 735.122L872.238 740.383H874.19L876.73 736.376C876.73 736.376 876.737 736.376 876.75 736.376C876.764 736.376 876.77 736.376 876.77 736.376Z" fill="black"/>
    <path d="M850.998 579H772.998V752H850.998V579Z" fill="#276BFB" stroke="#000085" stroke-width="2"/>
    <path d="M830.998 601H791.998V729H830.998V601Z" fill="#000085" stroke="#000085" stroke-width="2"/>
    <path d="M798.998 601H791.998V729H798.998V601Z" fill="#CBE2FF" stroke="#000085" stroke-width="2"/>
    <path d="M809.214 590V590C809.214 591.537 810.46 592.783 811.997 592.783C813.534 592.783 814.78 591.537 814.78 590V590C814.78 588.463 813.534 587.217 811.997 587.217C810.46 587.217 809.214 588.463 809.214 590Z" fill="#33DFCC" stroke="#000085"/>
    <path d="M808.498 590V590C808.498 591.933 810.065 593.5 811.998 593.5C813.931 593.5 815.498 591.933 815.498 590V590C815.498 588.067 813.931 586.5 811.998 586.5C810.065 586.5 808.498 588.067 808.498 590Z" fill="#33DFCC" stroke="#000085"/>
    <path d="M829.214 590V590C829.214 591.537 830.46 592.783 831.997 592.783C833.534 592.783 834.78 591.537 834.78 590V590C834.78 588.463 833.534 587.217 831.997 587.217C830.46 587.217 829.214 588.463 829.214 590Z" fill="#33DFCC" stroke="#000085"/>
    <path d="M828.498 590V590C828.498 591.933 830.065 593.5 831.998 593.5C833.931 593.5 835.498 591.933 835.498 590V590C835.498 588.067 833.931 586.5 831.998 586.5C830.065 586.5 828.498 588.067 828.498 590Z" fill="#33DFCC" stroke="#000085"/>
    <path d="M789.214 590V590C789.214 591.537 790.46 592.783 791.997 592.783C793.534 592.783 794.78 591.537 794.78 590V590C794.78 588.463 793.534 587.217 791.997 587.217C790.46 587.217 789.214 588.463 789.214 590Z" fill="#33DFCC" stroke="#000085"/>
    <path d="M788.498 590V590C788.498 591.933 790.065 593.5 791.998 593.5C793.931 593.5 795.498 591.933 795.498 590V590C795.498 588.067 793.931 586.5 791.998 586.5C790.065 586.5 788.498 588.067 788.498 590Z" fill="#33DFCC" stroke="#000085"/>
    <path d="M809.214 740V740C809.214 741.537 810.46 742.783 811.997 742.783C813.534 742.783 814.78 741.537 814.78 740V740C814.78 738.463 813.534 737.217 811.997 737.217C810.46 737.217 809.214 738.463 809.214 740Z" fill="#33DFCC" stroke="#000085"/>
    <path d="M808.498 740V740C808.498 741.933 810.065 743.5 811.998 743.5C813.931 743.5 815.498 741.933 815.498 740V740C815.498 738.067 813.931 736.5 811.998 736.5C810.065 736.5 808.498 738.067 808.498 740Z" fill="#33DFCC" stroke="#000085"/>
    <path d="M829.214 740V740C829.214 741.537 830.46 742.783 831.997 742.783C833.534 742.783 834.78 741.537 834.78 740V740C834.78 738.463 833.534 737.217 831.997 737.217C830.46 737.217 829.214 738.463 829.214 740Z" fill="white" stroke="#000085"/>
    <path d="M828.498 740V740C828.498 741.933 830.065 743.5 831.998 743.5C833.931 743.5 835.498 741.933 835.498 740V740C835.498 738.067 833.931 736.5 831.998 736.5C830.065 736.5 828.498 738.067 828.498 740Z" fill="white" stroke="#000085"/>
    <path d="M789.214 740V740C789.214 741.537 790.46 742.783 791.997 742.783C793.534 742.783 794.78 741.537 794.78 740V740C794.78 738.463 793.534 737.217 791.997 737.217C790.46 737.217 789.214 738.463 789.214 740Z" fill="white" stroke="#000085"/>
    <path d="M788.498 740V740C788.498 741.933 790.065 743.5 791.998 743.5C793.931 743.5 795.498 741.933 795.498 740V740C795.498 738.067 793.931 736.5 791.998 736.5C790.065 736.5 788.498 738.067 788.498 740Z" fill="white" stroke="#000085"/>
    <path d="M942.998 579H850.998V752H942.998V579Z" fill="#5B88FF" stroke="#000085" stroke-width="2"/>
    <path d="M851.998 751.005H941.998V587.416C938.998 602.627 933.927 604.618 928.291 612.334C916.498 626.585 913.829 634.488 916.113 650.653C917.71 661.951 917.903 681.192 907.967 683.009C884.541 687.293 884.541 699.014 883.513 702.717C878.886 718.064 878.804 727.424 869.427 731.117C859.396 735.069 854.876 744.186 851.998 751.005Z" fill="#276BFB"/>
    <path d="M829.998 690H538.815V719.109L829.998 719V690Z" fill="#BBD0EF" fill-opacity="0.5" stroke="#000085" stroke-width="2"/>
    <path opacity="0.3" d="M554 713V717H827.993L827.995 715.085L827.996 713H554Z" fill="#000D6D"/>
    <path opacity="0.5" d="M827.989 697L827.994 693H545.998V697H827.989Z" fill="white"/>
    <path opacity="0.2" d="M608.498 719C600.489 719 593.998 712.508 593.998 704.5C593.998 696.492 600.489 690 608.498 690C616.506 690 622.998 696.492 622.998 704.5C622.998 712.508 616.506 719 608.498 719Z" stroke="#000D6D" stroke-width="2"/>
    <path d="M608.998 689V690.325C616.559 690.325 622.693 696.669 622.693 704.5C622.693 712.331 616.559 718.675 608.998 718.675V720C617.285 720 623.998 713.058 623.998 704.5C623.998 695.942 617.285 689 608.998 689Z" fill="#000085"/>
    <path opacity="0.2" d="M729.055 718.858C720.846 718.858 714.193 712.322 714.193 704.261C714.193 696.199 720.846 689.664 729.055 689.664C737.263 689.664 743.917 696.199 743.917 704.261C743.917 712.322 737.263 718.858 729.055 718.858Z" stroke="#000D6D" stroke-width="2"/>
    <path d="M729.998 689V690.325C737.559 690.325 743.693 696.669 743.693 704.5C743.693 712.331 737.559 718.675 729.998 718.675V720C738.285 720 744.998 713.058 744.998 704.5C744.998 695.942 738.285 689 729.998 689Z" fill="#000085"/>
    <circle cx="901.498" cy="664.5" r="32.5" transform="rotate(-180 901.498 664.5)" fill="#003CDA"/>
    <circle cx="895.498" cy="664.5" r="32.5" transform="rotate(-180 895.498 664.5)" fill="#000085"/>
    <path d="M875.998 664C875.998 664 880.998 654 894.998 654C908.998 654 913.998 664 913.998 664C913.998 664 908.998 674 894.998 674C880.998 674 875.998 664 875.998 664Z" fill="white"/>
    <circle cx="888.498" cy="662.5" r="3.5" transform="rotate(-180 888.498 662.5)" fill="black"/>
    <circle cx="888.498" cy="662.5" r="5.5" transform="rotate(-180 888.498 662.5)" stroke="black" stroke-width="2"/>
    <path d="M397 689H542V717.999L397 717.892V689Z" fill="#BBD0EF" fill-opacity="0.5" stroke="#000085" stroke-width="2"/>
    <path opacity="0.3" d="M527 713V717H401.001L401 715.085L401 713H527Z" fill="#000D6D"/>
    <path opacity="0.5" d="M401.002 697L401 693H535V697H401.002Z" fill="white"/>
    <path opacity="0.2" d="M472.5 719C480.508 719 487 712.508 487 704.5C487 696.492 480.508 690 472.5 690C464.492 690 458 696.492 458 704.5C458 712.508 464.492 719 472.5 719Z" stroke="#000D6D" stroke-width="2"/>
    <path d="M472 689V690.325C464.439 690.325 458.304 696.669 458.304 704.5C458.304 712.331 464.439 718.675 472 718.675V720C463.713 720 457 713.058 457 704.5C457 695.942 463.713 689 472 689Z" fill="#000085"/>
    <path d="M84.1037 742.76V741.465H93.5738V742.76C93.5738 742.76 93.2567 742.76 92.6227 742.76C91.9819 742.76 91.1928 742.76 90.2552 742.76C89.3109 742.76 88.37 742.76 87.4324 742.76C86.4881 742.76 85.6989 742.76 85.0649 742.76C84.4241 742.76 84.1037 742.76 84.1037 742.76ZM78.3671 740.626C76.6674 740.626 75.3487 739.944 74.4112 738.582C73.4736 737.213 73.0048 735.375 73.0048 733.068C73.0048 730.775 73.477 728.947 74.4213 727.584C75.3588 726.222 76.6741 725.54 78.3671 725.54C80.0601 725.54 81.3821 726.225 82.3332 727.594C83.2775 728.963 83.7496 730.791 83.7496 733.078C83.7496 735.385 83.2809 737.219 82.3433 738.582C81.399 739.944 80.0736 740.626 78.3671 740.626ZM78.3671 739.037C79.507 739.037 80.3839 738.498 80.9977 737.418C81.6115 736.339 81.9184 734.889 81.9184 733.068C81.9184 731.287 81.6081 729.854 80.9875 728.768C80.367 727.682 79.4935 727.139 78.3671 727.139C77.2407 727.139 76.3706 727.682 75.7568 728.768C75.143 729.847 74.8361 731.284 74.8361 733.078C74.8361 734.899 75.1396 736.349 75.7467 737.428C76.3537 738.501 77.2272 739.037 78.3671 739.037ZM67.2277 736.376L64.7084 740.383H62.7558L66.2564 735.051L62.7052 729.861H64.668L67.167 733.806H67.2075L69.7369 729.861H71.6997L68.1788 735.122L71.7604 740.383H69.8077L67.2682 736.376C67.2682 736.376 67.2614 736.376 67.2479 736.376C67.2345 736.376 67.2277 736.376 67.2277 736.376Z" fill="black"/>
    <path d="M93.0005 579H171.001V752H93.0005V579Z" fill="#276BFB" stroke="#000085" stroke-width="2"/>
    <path d="M113.001 601H152.001V729H113.001V601Z" fill="#000085" stroke="#000085" stroke-width="2"/>
    <path d="M145.001 601H152.001V729H145.001V601Z" fill="#CBE2FF" stroke="#000085" stroke-width="2"/>
    <path d="M134.784 590V590C134.784 591.537 133.538 592.783 132.001 592.783C130.464 592.783 129.218 591.537 129.218 590V590C129.218 588.463 130.464 587.217 132.001 587.217C133.538 587.217 134.784 588.463 134.784 590Z" fill="#33DFCC" stroke="#000085"/>
    <path d="M135.501 590V590C135.501 591.933 133.934 593.5 132.001 593.5C130.068 593.5 128.501 591.933 128.501 590V590C128.501 588.067 130.068 586.5 132.001 586.5C133.934 586.5 135.501 588.067 135.501 590Z" fill="#33DFCC" stroke="#000085"/>
    <path d="M114.784 590V590C114.784 591.537 113.538 592.783 112.001 592.783C110.464 592.783 109.218 591.537 109.218 590V590C109.218 588.463 110.464 587.217 112.001 587.217C113.538 587.217 114.784 588.463 114.784 590Z" fill="#33DFCC" stroke="#000085"/>
    <path d="M115.501 590V590C115.501 591.933 113.934 593.5 112.001 593.5C110.068 593.5 108.501 591.933 108.501 590V590C108.501 588.067 110.068 586.5 112.001 586.5C113.934 586.5 115.501 588.067 115.501 590Z" fill="#33DFCC" stroke="#000085"/>
    <path d="M154.784 590V590C154.784 591.537 153.538 592.783 152.001 592.783C150.464 592.783 149.218 591.537 149.218 590V590C149.218 588.463 150.464 587.217 152.001 587.217C153.538 587.217 154.784 588.463 154.784 590Z" fill="#33DFCC" stroke="#000085"/>
    <path d="M155.501 590V590C155.501 591.933 153.934 593.5 152.001 593.5C150.068 593.5 148.501 591.933 148.501 590V590C148.501 588.067 150.068 586.5 152.001 586.5C153.934 586.5 155.501 588.067 155.501 590Z" fill="#33DFCC" stroke="#000085"/>
    <path d="M134.784 740V740C134.784 741.537 133.538 742.783 132.001 742.783C130.464 742.783 129.218 741.537 129.218 740V740C129.218 738.463 130.464 737.217 132.001 737.217C133.538 737.217 134.784 738.463 134.784 740Z" fill="#33DFCC" stroke="#000085"/>
    <path d="M135.501 740V740C135.501 741.933 133.934 743.5 132.001 743.5C130.068 743.5 128.501 741.933 128.501 740V740C128.501 738.067 130.068 736.5 132.001 736.5C133.934 736.5 135.501 738.067 135.501 740Z" fill="#33DFCC" stroke="#000085"/>
    <path d="M114.784 740V740C114.784 741.537 113.538 742.783 112.001 742.783C110.464 742.783 109.218 741.537 109.218 740V740C109.218 738.463 110.464 737.217 112.001 737.217C113.538 737.217 114.784 738.463 114.784 740Z" fill="white" stroke="#000085"/>
    <path d="M115.501 740V740C115.501 741.933 113.934 743.5 112.001 743.5C110.068 743.5 108.501 741.933 108.501 740V740C108.501 738.067 110.068 736.5 112.001 736.5C113.934 736.5 115.501 738.067 115.501 740Z" fill="white" stroke="#000085"/>
    <path d="M154.784 740V740C154.784 741.537 153.538 742.783 152.001 742.783C150.464 742.783 149.218 741.537 149.218 740V740C149.218 738.463 150.464 737.217 152.001 737.217C153.538 737.217 154.784 738.463 154.784 740Z" fill="white" stroke="#000085"/>
    <path d="M155.501 740V740C155.501 741.933 153.934 743.5 152.001 743.5C150.068 743.5 148.501 741.933 148.501 740V740C148.501 738.067 150.068 736.5 152.001 736.5C153.934 736.5 155.501 738.067 155.501 740Z" fill="white" stroke="#000085"/>
    <path d="M1 579H93.0005V752H1V579Z" fill="#5B88FF" stroke="#000085" stroke-width="2"/>
    <path d="M92.0005 751.005H2.00055V587.416C5.0001 602.627 10.0711 604.618 15.707 612.334C27.5004 626.585 30.1691 634.488 27.8847 650.653C26.2881 661.951 26.0955 681.192 36.0313 683.009C59.4568 687.293 59.4568 699.014 60.4851 702.717C65.1122 718.064 65.1944 727.424 74.5707 731.117C84.6021 735.069 89.1221 744.186 92.0005 751.005Z" fill="#276BFB"/>
    <path d="M114.001 690H405.183V719.109L114.001 719V690Z" fill="#BBD0EF" fill-opacity="0.5" stroke="#000085" stroke-width="2"/>
    <path opacity="0.3" d="M389.998 713V717H116.005L116.004 715.085L116.003 713H389.998Z" fill="#000D6D"/>
    <path opacity="0.5" d="M116.009 697L116.004 693H398.001V697H116.009Z" fill="white"/>
    <path opacity="0.2" d="M335.501 719C343.509 719 350.001 712.508 350.001 704.5C350.001 696.492 343.509 690 335.501 690C327.492 690 321.001 696.492 321.001 704.5C321.001 712.508 327.492 719 335.501 719Z" stroke="#000D6D" stroke-width="2"/>
    <path d="M335.001 689V690.325C327.439 690.325 321.305 696.669 321.305 704.5C321.305 712.331 327.439 718.675 335.001 718.675V720C326.714 720 320.001 713.058 320.001 704.5C320.001 695.942 326.714 689 335.001 689Z" fill="#000085"/>
    <path opacity="0.2" d="M214.944 718.858C223.152 718.858 229.806 712.322 229.806 704.261C229.806 696.199 223.152 689.664 214.944 689.664C206.736 689.664 200.082 696.199 200.082 704.261C200.082 712.322 206.736 718.858 214.944 718.858Z" stroke="#000D6D" stroke-width="2"/>
    <path d="M214.001 689V690.325C206.439 690.325 200.305 696.669 200.305 704.5C200.305 712.331 206.439 718.675 214.001 718.675V720C205.714 720 199.001 713.058 199.001 704.5C199.001 695.942 205.714 689 214.001 689Z" fill="#000085"/>
    <circle r="32.5" transform="matrix(1 -8.74228e-08 -8.74228e-08 -1 42.5005 664.5)" fill="#003CDA"/>
    <circle r="32.5" transform="matrix(1 -8.74228e-08 -8.74228e-08 -1 48.5005 664.5)" fill="#000085"/>
    <path d="M68.0005 664C68.0005 664 63.0005 654 49.0005 654C35.0005 654 30.0005 664 30.0005 664C30.0005 664 35.0005 674 49.0005 674C63.0005 674 68.0005 664 68.0005 664Z" fill="white"/>
    <circle r="3.5" transform="matrix(1 -8.74228e-08 -8.74228e-08 -1 55.5005 662.5)" fill="black"/>
    <circle r="5.5" transform="matrix(1 -8.74228e-08 -8.74228e-08 -1 55.5005 662.5)" stroke="black" stroke-width="2"/>
    <path d="M676 767V474H518V767H676Z" fill="#BED1F4" stroke="#000085" stroke-width="2"/>
    <path d="M668 759V526H526V759H668Z" fill="#BED1F4" stroke="#000085" stroke-width="2"/>
    <path d="M676 516V474H518V516H676Z" fill="white" stroke="#000085" stroke-width="2"/>
    <path d="M668 508V482H526V508H668Z" fill="#DCEBFF" stroke="#000085" stroke-width="2"/>
    <circle cx="658" cy="495" r="2.5" fill="#003CDA" stroke="#000085"/>
    <circle cx="648" cy="495" r="2.5" fill="#33DFCC" stroke="#000085"/>
    <path d="M668 487V482H526V487H668Z" fill="#5B88FF" stroke="#000085" stroke-width="2"/>
    <path d="M554 634C554 610.252 573.252 591 597 591C620.748 591 640 610.252 640 634C640 657.748 620.748 677 597 677C573.252 677 554 657.748 554 634Z" fill="white" stroke="#000085" stroke-width="2"/>
    <path fill-rule="evenodd" clip-rule="evenodd" d="M594.263 601.034L576.933 617.002V651.514L594.263 665.937L588.791 632.97L594.263 601.034ZM598.824 601.034L615.242 615.457L593.351 629.879L598.824 601.034ZM594.263 634L617.067 619.577V648.938L594.263 634ZM598.824 666.967L615.242 653.574L593.351 638.121L598.824 666.967Z" fill="#003CDA"/>
    <path d="M773 469H942V569H773V469Z" fill="#CBE2FF" stroke="#000085" stroke-width="2"/>
    <path d="M773 455H942V474H773V455Z" fill="white" stroke="#000085" stroke-width="2"/>
    <path d="M789.5 464C789.5 465.381 788.381 466.5 787 466.5C785.619 466.5 784.5 465.381 784.5 464C784.5 462.619 785.619 461.5 787 461.5C788.381 461.5 789.5 462.619 789.5 464Z" fill="#BED1F4" stroke="#000085"/>
    <path d="M930.5 464C930.5 465.381 929.381 466.5 928 466.5C926.619 466.5 925.5 465.381 925.5 464C925.5 462.619 926.619 461.5 928 461.5C929.381 461.5 930.5 462.619 930.5 464Z" fill="#BED1F4" stroke="#000085"/>
    <path d="M818.5 549C834.24 549 847 536.24 847 520.5C847 504.76 834.24 492 818.5 492C802.76 492 790 504.76 790 520.5C790 536.24 802.76 549 818.5 549Z" fill="#BED1F4" stroke="#000085" stroke-width="2"/>
    <path fill-rule="evenodd" clip-rule="evenodd" d="M809 519.518L818.192 505L826.981 519.518L818.192 524.745L809 519.518Z" fill="#000085"/>
    <path fill-rule="evenodd" clip-rule="evenodd" d="M818.351 527.823L827.14 522.428L818.351 535.064L809.562 522.428L818.351 527.823Z" fill="#000085"/>
    <path d="M896.5 549.002C912.24 549.002 925 536.242 925 520.502C925 504.762 912.24 492.002 896.5 492.002C880.76 492.002 868 504.762 868 520.502C868 536.242 880.76 549.002 896.5 549.002Z" fill="#BED1F4" stroke="#000085" stroke-width="2"/>
    <path d="M896.717 528.837L896.717 508.69M896.717 528.837L890 522.092M896.717 528.837L903.607 521.919" stroke="#000085" stroke-width="2"/>
    <path d="M893 1V463.5C893 465.433 894.567 467 896.5 467C898.433 467 900 465.433 900 463.5V1H893Z" fill="#E1E9F3" stroke="#000085" stroke-width="2"/>
    <path opacity="0.5" fill-rule="evenodd" clip-rule="evenodd" d="M894 17V2H899V17H894Z" fill="#5B88FF"/>
    <path d="M892.427 454.502L899.632 438.822V420.016L892.427 437.259V420.016L899.632 402.251V385.527L892.427 402.251V385.527L899.632 368.81V352.09L892.427 368.81V352.09L899.632 334.325V317.6L892.427 334.325V317.6L899.632 299.839V285.209L892.427 299.839V285.209L899.632 269.534V255.944L892.427 269.534V255.944L899.632 240.273V224.594L892.427 240.273V224.594L899.632 207.878V192.202L892.427 207.878V192.202L899.632 176.523V161.897L892.427 176.523V161.897L899.632 146.222V131.587L892.427 146.222" stroke="#000085"/>
    <path d="M892.427 129.914L899.632 114.235V95.4289L892.427 112.672V95.4289L899.632 77.6635V60.9392L892.427 77.6635V60.9392L899.632 44.223V27.5027L892.427 44.223V27.5027L899.632 9.73743" stroke="#000085"/>
    <path d="M814.573 1V463.5C814.573 465.433 816.14 467 818.073 467C820.006 467 821.573 465.433 821.573 463.5V1H814.573Z" fill="#E1E9F3" stroke="#000085" stroke-width="2"/>
    <path opacity="0.5" fill-rule="evenodd" clip-rule="evenodd" d="M815.573 17V2H820.573V17H815.573Z" fill="#5B88FF"/>
    <path d="M814 454.502L821.204 438.822V420.016L814 437.259V420.016L821.204 402.251V385.527L814 402.251V385.527L821.204 368.81V352.09L814 368.81V352.09L821.204 334.325V317.6L814 334.325V317.6L821.204 299.839V285.209L814 299.839V285.209L821.204 269.534V255.944L814 269.534V255.944L821.204 240.273V224.594L814 240.273V224.594L821.204 207.878V192.202L814 207.878V192.202L821.204 176.523V161.897L814 176.523V161.897L821.204 146.222V131.587L814 146.222" stroke="#000085"/>
    <path d="M814 129.914L821.204 114.235V95.4289L814 112.672V95.4289L821.204 77.6635V60.9392L814 77.6635V60.9392L821.204 44.223V27.5027L814 44.223V27.5027L821.204 9.73743" stroke="#000085"/>
    <path d="M428 767V651H270V767H428Z" fill="#BED1F4" stroke="#000085" stroke-width="2"/>
    <path d="M428 570V651H270V570H428Z" fill="#DCEBFF" stroke="#000085" stroke-width="2"/>
    <path d="M428 474V555H270V474H428Z" fill="#00C0AB" stroke="#000085" stroke-width="2"/>
    <path d="M420 759V659H278V759H420Z" fill="#BED1F4" stroke="#000085" stroke-width="2"/>
    <path d="M420 759V751H278V759H420Z" fill="white" stroke="#000085" stroke-width="2"/>
    <path d="M304 592L304 630L394 630L394 592L304 592Z" fill="#000085" stroke="#000085" stroke-width="2"/>
    <path d="M304 592L304 600L394 600L394 592L304 592Z" fill="white" stroke="#000085" stroke-width="2"/>
    <path d="M394 543L394 505L304 505L304 543L394 543Z" fill="#000085" stroke="#000085" stroke-width="2"/>
    <path d="M394 543L394 535L304 535L304 543L394 543Z" fill="#33DFCC" stroke="#000085" stroke-width="2"/>
    <path d="M428 495V474H270V495H428Z" fill="#33DFCC" stroke="#000085" stroke-width="2"/>
    <circle cx="414" cy="485" r="2.5" stroke="#000085"/>
    <circle cx="284" cy="485" r="2.5" stroke="#000085"/>
    <path d="M375 667H412V742.947H375V667Z" fill="#5B88FF" stroke="#000085" stroke-width="2"/>
    <path d="M369 667H375V742.947H369V667Z" stroke="#000085" stroke-width="2"/>
    <path d="M378 670.947H392" stroke="white" stroke-width="2"/>
    <path d="M394 670.947H397" stroke="white" stroke-width="2"/>
    <path d="M401.001 670.947H409.001" stroke="white" stroke-width="2"/>
    <path d="M409 674.947H397" stroke="white" stroke-width="2"/>
    <path d="M394 674.947H385" stroke="white" stroke-width="2"/>
    <path d="M382 674.947H378" stroke="white" stroke-width="2"/>
    <path d="M382 678.947H378M394 678.947H391H389" stroke="white" stroke-width="2"/>
    <path d="M385 682.947H378M394 682.947H391H389" stroke="white" stroke-width="2"/>
    <path d="M401 680.947H397" stroke="white" stroke-width="2"/>
    <path d="M382 686.943H378" stroke="white" stroke-width="2"/>
    <path d="M387 686.943H384" stroke="white" stroke-width="2"/>
    <path d="M392 686.943H389" stroke="white" stroke-width="2"/>
    <path d="M382 690.947H378" stroke="white" stroke-width="2"/>
    <path d="M382 694.947H378" stroke="white" stroke-width="2"/>
    <path d="M387 698.947H378" stroke="white" stroke-width="2"/>
    <path d="M382 702.947H378" stroke="white" stroke-width="2"/>
    <path d="M380 710.947H378" stroke="white" stroke-width="2"/>
    <path d="M382 714.947H378" stroke="white" stroke-width="2"/>
    <path d="M380 718.947H378" stroke="white" stroke-width="2"/>
    <path d="M382 722.947H378" stroke="white" stroke-width="2"/>
    <path d="M380 726.947H378" stroke="white" stroke-width="2"/>
    <path d="M382 730.947H378" stroke="white" stroke-width="2"/>
    <path d="M386 730.947H384" stroke="white" stroke-width="2"/>
    <path d="M380 738.947H378" stroke="white" stroke-width="2"/>
    <path d="M382 734.947H378" stroke="white" stroke-width="2"/>
    <path d="M386 726.947H384" stroke="white" stroke-width="2"/>
    <path d="M390 726.947H388" stroke="white" stroke-width="2"/>
    <path d="M398 726.947H394" stroke="white" stroke-width="2"/>
    <path d="M398 722.947H396" stroke="white" stroke-width="2"/>
    <path d="M394 722.947H384" stroke="white" stroke-width="2"/>
    <path d="M386 718.947H384" stroke="white" stroke-width="2"/>
    <path d="M390 718.947H388" stroke="white" stroke-width="2"/>
    <path d="M396 718.947H394" stroke="white" stroke-width="2"/>
    <path d="M400 718.947H398" stroke="white" stroke-width="2"/>
    <path d="M387 714.947H384" stroke="white" stroke-width="2"/>
    <path d="M392 714.947H389" stroke="white" stroke-width="2"/>
    <path d="M384 710.947H382" stroke="white" stroke-width="2"/>
    <path d="M388 710.947H386" stroke="white" stroke-width="2"/>
    <path d="M392 710.947H390" stroke="white" stroke-width="2"/>
    <path d="M396 710.947H394" stroke="white" stroke-width="2"/>
    <path d="M400 710.947H398" stroke="white" stroke-width="2"/>
    <path d="M404 710.947H402" stroke="white" stroke-width="2"/>
    <path d="M384 706.947H380" stroke="white" stroke-width="2"/>
    <path d="M391 706.947H387" stroke="white" stroke-width="2"/>
    <path d="M397 706.947H394" stroke="white" stroke-width="2"/>
    <path d="M387 702.947H384" stroke="white" stroke-width="2"/>
    <path d="M397 702.947H394" stroke="white" stroke-width="2"/>
    <path d="M402 702.947H399" stroke="white" stroke-width="2"/>
    <path d="M407 702.947H404" stroke="white" stroke-width="2"/>
    <path d="M392 698.947H389" stroke="white" stroke-width="2"/>
    <path d="M397 698.947H394" stroke="white" stroke-width="2"/>
    <path d="M387 694.947H384" stroke="white" stroke-width="2"/>
    <path d="M392 694.947H389" stroke="white" stroke-width="2"/>
    <path d="M397 694.947H394" stroke="white" stroke-width="2"/>
    <path d="M402 694.947H399" stroke="white" stroke-width="2"/>
    <path d="M387 690.947H384" stroke="white" stroke-width="2"/>
    <path d="M392 690.947H389" stroke="white" stroke-width="2"/>
    <path opacity="0.2" d="M391 741.947H411V719.947L391 741.947Z" fill="white"/>
    <path opacity="0.2" d="M411 707.947L378 741.947H383.95L411 714.144V707.947Z" fill="white"/>
    <path d="M303 694H314V660H303V694Z" fill="white"/>
    <path d="M331 708V725H314L314.123 711H303V736H342V696.978H279V708H331Z" fill="white"/>
    <path d="M334 630L334 505L362.999 505L362.892 630L334 630Z" fill="#BBD0EF" fill-opacity="0.5" stroke="#000085" stroke-width="2"/>
    <path opacity="0.3" d="M356 506L360 506L360 628.999L358.085 629L356 629L356 506Z" fill="#000D6D"/>
    <path opacity="0.5" d="M342 628.998L338 629L338 506L342 506L342 628.998Z" fill="white"/>
    <path opacity="0.2" d="M363 562.5C363 554.492 356.508 548 348.5 548C340.492 548 334 554.492 334 562.5C334 570.508 340.492 577 348.5 577C356.508 577 363 570.508 363 562.5Z" stroke="#000D6D" stroke-width="2"/>
    <path d="M333 563L334.325 563C334.325 570.561 340.669 576.696 348.5 576.696C356.331 576.696 362.675 570.561 362.675 563L364 563C364 571.287 357.058 578 348.5 578C339.942 578 333 571.287 333 563Z" fill="#000085"/>
    <path d="M457 25.5V3H485V25.5C485 66.3691 451.869 99.5 411 99.5H137C111.595 99.5 91 120.095 91 145.5V303C91 328.405 111.595 349 137 349H288C328.869 349 362 382.131 362 423V470H334V423C334 397.595 313.405 377 288 377H137C96.1309 377 63 343.869 63 303V145.5C63 104.631 96.1309 71.5 137 71.5H411C436.405 71.5 457 50.9051 457 25.5Z" fill="#BBD0EF" fill-opacity="0.5" stroke="#000085" stroke-width="2"/>
    <path opacity="0.5" d="M341 469V422C341 393.281 317.719 370 289 370H140C101.892 370 71 339.108 71 301V144C71 107.549 100.549 78 137 78H413C440.614 78 463 55.6142 463 28V4" stroke="white" stroke-width="4"/>
    <path opacity="0.2" d="M362.032 435.516C362.032 427.766 355.75 421.484 348 421.484C340.25 421.484 333.968 427.766 333.968 435.516C333.968 443.266 340.25 449.548 348 449.548C355.75 449.548 362.032 443.266 362.032 435.516Z" stroke="#000D6D" stroke-width="2"/>
    <path d="M333 436L334.282 436C334.282 443.317 340.421 449.254 348 449.254C355.579 449.254 361.718 443.317 361.718 436L363 436C363 444.02 356.282 450.516 348 450.516C339.718 450.516 333 444.02 333 436Z" fill="#000085"/>
    <path opacity="0.2" d="M267.516 349.484C259.766 349.484 253.484 355.766 253.484 363.516C253.484 371.266 259.766 377.548 267.516 377.548C275.266 377.548 281.548 371.266 281.548 363.516C281.548 355.766 275.266 349.484 267.516 349.484Z" stroke="#000D6D" stroke-width="2"/>
    <path d="M268 378.516L268 377.234C275.317 377.234 281.254 371.095 281.254 363.516C281.254 355.937 275.317 349.798 268 349.798L268 348.516C276.02 348.516 282.516 355.234 282.516 363.516C282.516 371.798 276.02 378.516 268 378.516Z" fill="#000085"/>
    <path opacity="0.2" d="M157.032 349.484C149.282 349.484 143 355.766 143 363.516C143 371.266 149.282 377.548 157.032 377.548C164.782 377.548 171.064 371.266 171.064 363.516C171.064 355.766 164.782 349.484 157.032 349.484Z" stroke="#000D6D" stroke-width="2"/>
    <path d="M157.516 378.516L157.516 377.234C164.833 377.234 170.77 371.095 170.77 363.516C170.77 355.937 164.833 349.798 157.516 349.798L157.516 348.516C165.536 348.516 172.032 355.234 172.032 363.516C172.032 371.798 165.536 378.516 157.516 378.516Z" fill="#000085"/>
    <path opacity="0.2" d="M158 99.0323C165.75 99.0323 172.032 92.7499 172.032 85.0001C172.032 77.2503 165.75 70.9678 158 70.9678C150.25 70.9678 143.968 77.2503 143.968 85.0001C143.968 92.7499 150.25 99.0323 158 99.0323Z" stroke="#000D6D" stroke-width="2"/>
    <path d="M157.516 70L157.516 71.2819C150.199 71.2819 144.262 77.4211 144.262 85C144.262 92.5788 150.199 98.7181 157.516 98.7181L157.516 100C149.497 100 143 93.2817 143 85C143 76.7183 149.497 70 157.516 70Z" fill="#000085"/>
    <path opacity="0.2" d="M268.484 99.0323C276.234 99.0323 282.516 92.7499 282.516 85.0001C282.516 77.2503 276.234 70.9678 268.484 70.9678C260.734 70.9678 254.452 77.2503 254.452 85.0001C254.452 92.7499 260.734 99.0323 268.484 99.0323Z" stroke="#000D6D" stroke-width="2"/>
    <path d="M268 70L268 71.2819C260.683 71.2819 254.746 77.4211 254.746 85C254.746 92.5788 260.683 98.7181 268 98.7181L268 100C259.98 100 253.484 93.2817 253.484 85C253.484 76.7183 259.98 70 268 70Z" fill="#000085"/>
    <path opacity="0.2" d="M400 99.0323C407.75 99.0323 414.032 92.7499 414.032 85.0001C414.032 77.2503 407.75 70.9678 400 70.9678C392.25 70.9678 385.968 77.2503 385.968 85.0001C385.968 92.7499 392.25 99.0323 400 99.0323Z" stroke="#000D6D" stroke-width="2"/>
    <path d="M399.516 70L399.516 71.2819C392.199 71.2819 386.262 77.4211 386.262 85C386.262 92.5788 392.199 98.7181 399.516 98.7181L399.516 100C391.497 100 385 93.2817 385 85C385 76.7183 391.497 70 399.516 70Z" fill="#000085"/>
    <path opacity="0.2" d="M484.596 23.822C484.596 16.4555 478.625 10.4838 471.258 10.4838C463.892 10.4838 457.92 16.4555 457.92 23.822C457.92 31.1885 463.892 37.1602 471.258 37.1602C478.625 37.1602 484.596 31.1885 484.596 23.822Z" stroke="#000D6D" stroke-width="2"/>
    <path d="M457 24.282L458.219 24.282C458.219 31.2373 464.054 36.8802 471.258 36.8802C478.462 36.8802 484.298 31.2373 484.298 24.282L485.516 24.282C485.516 31.9049 479.13 38.0801 471.258 38.0801C463.386 38.0801 457 31.9049 457 24.282Z" fill="#000085"/>
    <path opacity="0.2" d="M90.0968 279.064C90.0968 271.831 84.2332 265.968 77.0001 265.968C69.7669 265.968 63.9033 271.831 63.9033 279.064C63.9033 286.298 69.7669 292.161 77.0001 292.161C84.2332 292.161 90.0968 286.298 90.0968 279.064Z" stroke="#000D6D" stroke-width="2"/>
    <path d="M63 279.516L64.1965 279.516C64.1965 286.346 69.9264 291.886 77 291.886C84.0736 291.886 89.8035 286.346 89.8035 279.516L91 279.516C91 287.001 84.7296 293.064 77 293.064C69.2704 293.064 63 287.001 63 279.516Z" fill="#000085"/>
    <path opacity="0.2" d="M90.0968 163.097C90.0968 155.863 84.2332 150 77.0001 150C69.7669 150 63.9033 155.863 63.9033 163.097C63.9033 170.33 69.7669 176.193 77.0001 176.193C84.2332 176.193 90.0968 170.33 90.0968 163.097Z" stroke="#000D6D" stroke-width="2"/>
    <path d="M63 163.548L64.1965 163.548C64.1965 170.378 69.9264 175.919 77 175.919C84.0736 175.919 89.8035 170.378 89.8035 163.548L91 163.548C91 171.033 84.7296 177.097 77 177.097C69.2704 177.097 63 171.033 63 163.548Z" fill="#000085"/>
</svg>
