<svg width="264" height="60" viewBox="0 0 264 60" fill="none" xmlns="http://www.w3.org/2000/svg">
<path d="M69.4997 37.9663C73.5036 37.9663 75.2386 35.8532 75.2386 33.3841C75.2386 27.8454 66.608 29.5582 66.608 26.8C66.608 25.6878 67.5868 24.9538 69.1216 24.9538C70.6786 24.9538 72.2579 25.4876 73.4146 26.6443L74.9049 24.7091C73.5258 23.3744 71.6574 22.6404 69.344 22.6404C66.0964 22.6404 63.9388 24.5311 63.9388 26.9779C63.9388 32.4499 72.5916 30.5147 72.5916 33.6288C72.5916 34.6075 71.7463 35.653 69.6109 35.653C67.5423 35.653 65.9407 34.6965 64.9175 33.6065L63.4717 35.6085C64.7841 37.0098 66.7637 37.9663 69.4997 37.9663Z" fill="white"/>
<path d="M80.6827 37.6994V22.8628H78.0802V37.6994H80.6827Z" fill="white"/>
<path d="M91.3995 37.9885C93.9798 37.9885 96.0484 36.9209 97.5165 35.2971V29.7361H90.4875V32.0272H94.914V34.3406C94.2467 34.9634 92.9121 35.6752 91.3995 35.6752C88.4633 35.6752 86.2834 33.4064 86.2834 30.2922C86.2834 27.1781 88.4633 24.9315 91.3995 24.9315C93.0678 24.9315 94.4691 25.799 95.2477 26.9112L97.383 25.71C96.1819 23.9973 94.2912 22.6182 91.3995 22.6182C87.1065 22.6182 83.6142 25.6433 83.6142 30.2922C83.6142 34.9412 87.1065 37.9885 91.3995 37.9885Z" fill="white"/>
<path d="M113.527 37.6994V22.8628H110.925V33.1617L103.34 22.8628H100.671V37.6994H103.273V27.1114L111.014 37.6994H113.527Z" fill="white"/>
<path d="M130.471 37.6994L124.643 22.8628H121.396L115.568 37.6994H118.526L119.616 34.8522H126.423L127.513 37.6994H130.471ZM125.689 32.5611H120.35L123.019 25.4876L125.689 32.5611Z" fill="white"/>
<path d="M141.679 37.6994V35.4083H135.139V22.8628H132.536V37.6994H141.679Z" fill="white"/>
<path d="M158.149 37.6994L163.976 22.8628H161.018L156.525 34.8744L152.032 22.8628H149.073L154.901 37.6994H158.149Z" fill="white"/>
<path d="M176.207 37.6994V35.4083H168.644V31.2932H176.051V29.0021H168.644V25.1539H176.207V22.8628H166.042V37.6994H176.207Z" fill="white"/>
<path d="M192.181 37.6994V22.8628H189.579V33.1617L181.994 22.8628H179.325V37.6994H181.927V27.1114L189.668 37.6994H192.181Z" fill="white"/>
<path d="M201.918 37.6994V25.1539H206.411V22.8628H194.822V25.1539H199.316V37.6994H201.918Z" fill="white"/>
<path d="M215.49 37.9663C219.783 37.9663 221.896 35.5195 221.896 31.8271V22.8628H219.271V31.7603C219.271 34.1181 217.959 35.653 215.49 35.653C212.999 35.653 211.686 34.1181 211.686 31.7603V22.8628H209.062V31.8493C209.062 35.4973 211.175 37.9663 215.49 37.9663Z" fill="white"/>
<path d="M236.972 37.6994L233.346 31.8715C235.126 31.5824 236.861 30.1588 236.861 27.5118C236.861 24.7758 234.948 22.8628 232.012 22.8628H225.494V37.6994H228.097V32.1607H230.677L233.969 37.6994H236.972ZM231.656 29.8696H228.097V25.1539H231.656C233.124 25.1539 234.191 26.0882 234.191 27.5118C234.191 28.9354 233.124 29.8696 231.656 29.8696Z" fill="white"/>
<path d="M250.072 37.6994V35.4083H242.509V31.2932H249.916V29.0021H242.509V25.1539H250.072V22.8628H239.906V37.6994H250.072Z" fill="white"/>
<path d="M258.261 37.9663C262.265 37.9663 264 35.8532 264 33.3841C264 27.8454 255.369 29.5582 255.369 26.8C255.369 25.6878 256.348 24.9538 257.883 24.9538C259.44 24.9538 261.019 25.4876 262.176 26.6443L263.666 24.7091C262.287 23.3744 260.418 22.6404 258.105 22.6404C254.858 22.6404 252.7 24.5311 252.7 26.9779C252.7 32.4499 261.353 30.5147 261.353 33.6288C261.353 34.6075 260.507 35.653 258.372 35.653C256.303 35.653 254.702 34.6965 253.679 33.6065L252.233 35.6085C253.545 37.0098 255.525 37.9663 258.261 37.9663Z" fill="white"/>
<path d="M33.3655 6.90079L23.9547 12.8895L14.5439 6.90079L23.9547 0.912109L33.3655 6.90079Z" fill="white"/>
<path d="M33.3655 53.099L23.9547 59.0877L14.5439 53.099L23.9547 47.1104L33.3655 53.099Z" fill="white"/>
<path d="M35.0768 21.4451L25.666 27.0061V15.4565L35.0768 9.46777V21.4451Z" fill="white"/>
<path d="M9.41079 21.4451L0 27.0061V15.4565L9.41079 9.46777V21.4451Z" fill="white"/>
<path d="M12.8334 21.4451L22.2441 27.0061V15.4565L12.8334 9.46777V21.4451Z" fill="white"/>
<path d="M38.4984 21.4451L47.9092 27.0061V15.4565L38.4984 9.46777V21.4451Z" fill="white"/>
<path d="M46.1985 30.0004L36.7877 35.9891L27.377 30.0004L36.7877 24.0117L46.1985 30.0004Z" fill="white"/>
<path d="M47.9098 44.5438L38.499 50.1047V38.5551L47.9098 32.5664V44.5438Z" fill="white"/>
<path d="M25.6654 44.5438L35.0762 50.1047V38.5551L25.6654 32.5664V44.5438Z" fill="white"/>
<path d="M20.5325 30.0004L11.1217 35.9891L1.71094 30.0004L11.1217 24.0117L20.5325 30.0004Z" fill="white"/>
<path d="M22.2438 44.5438L12.833 50.1047V38.5551L22.2438 32.5664V44.5438Z" fill="white"/>
<path d="M0.000343323 44.5438L9.41113 50.1047V38.5551L0.000343323 32.5664V44.5438Z" fill="white"/>
</svg>
