<svg viewBox="0 0 2284 790" version="1.1" xmlns="http://www.w3.org/2000/svg" xmlns:xlink="http://www.w3.org/1999/xlink">
    <defs>
        <rect id="smoking-tube-path-1" x="489.260701" y="5.52834609" width="20.7313856" height="20.7312978" rx="10.3656489"></rect>
    </defs>
    <g id="Page-1" stroke="none" stroke-width="1" fill="none" fill-rule="evenodd">
        <g id="smoking_tube" transform="translate(2.000000, 0.000000)">
            <g id="mobile-smoke" transform="translate(512.756272, 0.000000)" fill="#CBE2FF" opacity="0">
                <path d="M1698.2753,373.148885 L1751.21153,442.280568 C1775.03381,502.401294 1775.03381,551.823898 1751.21153,590.548382 C1664.47499,731.543643 1492.35534,678.588083 1524.61279,590.548382 C1561.09756,490.971137 1379.22564,442.280568 1298.97081,442.280568 C1245.46758,442.280568 1131.27996,442.280568 956.407924,442.280568 L0,442.280568 C47.3226641,413.729971 119.893004,399.454672 217.711019,399.454672 C339.757425,399.454672 364.178763,356.805626 426.427124,356.805626 C511.022995,356.805626 461.287685,308.288587 475.967866,284.085415 C504.463776,237.104293 530.416268,211.988788 635.285662,242.038911 C716.423711,265.290785 790.291086,238.934687 857.841215,168.953078 C947.060042,76.5229668 1031.08486,0 1160.19815,0 C1379.78124,0 1496.83644,106.492331 1453.80285,175.742497 C1410.76926,244.992663 1444.35795,313.944925 1561.09756,273.625003 C1677.83716,233.305082 1698.2753,373.148885 1698.2753,373.148885 Z" id="Fill-3045"></path>
                <path d="M1689.62135,788.950723 C1716.72621,788.950723 1735.9341,794.467752 1760.81857,750.33152 C1785.70303,706.195287 1738.69904,681.368656 1689.62135,681.368656 C1640.54365,681.368656 1640.54365,729.002722 1640.54365,750.33152 C1640.54365,771.660317 1662.51648,788.950723 1689.62135,788.950723 Z" id="Oval-4"></path>
            </g>
            <g id="tube" transform="translate(0.000000, 375)">
                <rect x="-23" y="3" width="524" height="27" fill="#CBE2FF" stroke="#000085" stroke-width="2"></rect>
<circle cx="498" cy="16" r="13" fill="#DCEBFF" stroke="#000085" stroke-width="2"></circle>
<circle cx="500" cy="15" r="6" fill="#000085"></circle>
            </g>
        </g>
        <g id="smoke-position" transform="translate(0.000000, 375)">
            <use fill="#000085" xlink:href="#smoking-tube-path-1"></use>
            <use fill="#000085" xlink:href="#smoking-tube-path-1"></use>
        </g>
    </g>
</svg>