<svg width="252" height="66" viewBox="0 0 252 66" fill="none" xmlns="http://www.w3.org/2000/svg">
<path d="M92.5348 46.5046C91.8125 47.2972 90.9298 47.783 89.833 47.8341C88.6828 47.8852 88.014 47.3994 87.8 46.3256C87.693 45.7886 87.6395 45.2261 87.6127 44.6892C87.586 38.9619 87.586 33.2346 87.5592 27.4817C87.5592 27.3283 87.586 27.2005 87.6127 27.047C87.7465 27.0215 87.8535 26.9959 87.9605 26.9959C89.2445 26.9959 90.5553 26.9959 91.8393 26.9703C92.0265 26.9703 92.2138 26.7147 92.401 26.5868C92.2138 26.4845 92.0533 26.28 91.866 26.28C91.224 26.2289 90.582 26.2544 89.94 26.2544C89.1643 26.2544 88.4153 26.2544 87.586 26.2544C87.586 24.3368 87.6127 22.547 87.5592 20.7317C87.5592 20.476 87.3988 20.0669 87.1848 19.9902C86.7567 19.8112 86.4625 20.0669 86.2752 20.5016C85.981 21.243 85.66 22.0101 85.2855 22.726C84.4562 24.3879 83.0652 25.4362 81.2462 25.8709C80.417 26.0755 79.5342 26.1522 78.6782 26.3056C78.3572 26.3823 77.7687 26.5868 77.7687 26.638C77.849 27.1749 80.2565 26.9448 81.166 26.9448C81.166 27.3027 81.166 27.5584 81.166 27.8141C81.166 32.5187 81.166 37.2488 81.1927 41.9534C81.1927 42.8739 81.2462 43.8199 81.3532 44.7403C81.594 46.7858 82.7977 48.1409 84.911 48.5245C86.2217 48.7546 87.6127 48.8057 88.9503 48.7546C90.5285 48.6779 91.9195 48.0642 93.043 46.9392C93.2838 46.7091 93.6315 46.4279 93.257 46.0955C93.15 46.0955 92.6953 46.3256 92.5348 46.5046ZM70.5997 31.1124C68.3795 30.0385 65.972 29.2459 63.6714 28.3255C62.0129 27.6607 60.3277 27.0215 58.7227 26.28C57.7329 25.8198 56.9572 25.0527 56.5559 24.03C55.5662 21.5754 56.6094 18.814 59.0169 17.5356C60.8894 16.5385 62.9492 16.3083 65.0357 16.5129C68.5132 16.8453 70.9742 18.5584 72.1245 21.7544C72.4455 22.6493 72.5525 23.6209 72.7932 24.5414C72.8735 24.8226 72.713 25.334 73.2747 25.2573C73.4085 25.2317 73.569 24.7715 73.569 24.5158C73.5957 21.9845 73.5957 19.4533 73.569 16.922C73.569 16.5896 73.8632 16.0527 73.2747 15.976C72.6595 15.8993 72.8467 16.5129 72.7397 16.8197C72.499 17.6635 72.0442 17.8936 71.215 17.5356C71.0545 17.4589 70.894 17.3822 70.7335 17.3055C67.7642 15.7458 64.5542 15.4135 61.1837 15.976C56.9304 16.6919 53.9077 19.4021 53.2122 23.2885C52.5969 26.638 53.2389 29.7317 56.2082 32.0073C57.0107 32.6209 57.9202 33.1834 58.8564 33.567C60.7824 34.3596 62.7352 35.0244 64.6879 35.7403C66.614 36.4306 68.5667 37.0187 70.252 38.1693C71.4022 38.9363 72.2047 39.9591 72.3652 41.3398C72.6862 44.2545 71.2417 46.5557 68.326 47.5784C65.5172 48.5756 62.7352 48.3199 59.9532 47.3995C56.6629 46.3 54.8172 44.1267 54.1484 40.9307C54.0147 40.2659 53.9077 39.6011 53.7472 38.9363C53.7204 38.8085 53.5332 38.7062 53.4262 38.6039C53.2924 38.7318 53.1319 38.8085 53.0517 38.9619C52.9982 39.0897 53.0249 39.2431 53.0249 39.3966C53.0249 40.8028 53.0249 42.2091 53.0249 43.5898H53.0517C53.0517 44.8426 53.0517 46.0955 53.0517 47.3483C53.0517 47.604 52.9714 47.8597 53.0517 48.1154C53.1052 48.2943 53.2924 48.4478 53.4262 48.6012C53.5599 48.4478 53.7204 48.3199 53.8007 48.1665C53.8809 47.9875 53.8809 47.7574 53.9077 47.5529C54.0682 46.8625 54.4427 46.6068 55.1649 46.7858C55.6732 46.9136 56.1814 47.1182 56.6629 47.3227C60.2474 48.9336 63.9657 49.4194 67.8445 48.6267C72.2315 47.7063 75.067 44.8682 75.602 40.6494C76.1905 36.0471 74.746 33.1323 70.5997 31.1124ZM145.366 46.9392C144.911 46.4534 144.483 45.9421 144.082 45.3795C141.434 41.5443 138.786 37.7346 136.137 33.8994C136.004 33.7204 135.897 33.5158 135.763 33.2857C137.261 31.7516 138.732 30.2431 140.203 28.7346C141.247 27.6607 142.45 26.8681 144.055 26.7914C144.189 26.7914 144.323 26.6124 144.43 26.5357C144.296 26.4334 144.136 26.28 144.002 26.28C141.354 26.2544 138.705 26.2544 136.057 26.28C135.897 26.28 135.763 26.4334 135.602 26.5357C135.736 26.638 135.87 26.7914 136.03 26.8169C136.565 26.9192 137.1 26.9448 137.609 27.0726C138.465 27.2772 138.786 27.763 138.491 28.5556C138.277 29.0925 137.983 29.655 137.582 30.0897C136.298 31.5471 134.934 32.9533 133.65 34.4363C132.499 35.7403 131.108 36.3284 129.182 35.9448C129.182 35.7403 129.182 35.459 129.182 35.1778C129.236 28.351 129.316 21.4987 129.396 14.672C129.396 14.1095 129.209 13.9816 128.647 14.0072C127.417 14.0839 126.213 14.1095 124.983 14.135C123.378 14.135 121.746 14.1606 120.141 14.2117C119.98 14.2117 119.82 14.3907 119.659 14.493C119.82 14.5953 119.98 14.6975 120.114 14.7998C120.141 14.8254 120.194 14.7998 120.248 14.7998C122.736 14.8765 122.789 14.9021 122.789 17.2799C122.816 26.4334 122.816 35.5869 122.816 44.7403C122.816 45.2517 122.789 45.7631 122.709 46.2744C122.575 47.3739 122.227 47.6551 121.077 47.7063C120.703 47.7318 120.328 47.7063 119.954 47.7574C119.793 47.783 119.686 47.9364 119.526 48.0387C119.659 48.1409 119.766 48.2688 119.927 48.3199C120.061 48.371 120.221 48.3199 120.382 48.3199C124.1 48.3199 127.818 48.3199 131.536 48.2943C131.884 48.2943 132.499 48.5756 132.526 48.0387C132.553 47.4506 131.911 47.7318 131.59 47.7063C129.503 47.604 129.209 47.3483 129.182 45.354C129.156 42.6182 129.182 39.8824 129.182 37.121C129.182 36.9676 129.209 36.7886 129.236 36.6352C130.359 36.4562 131.135 36.7886 131.724 37.7346C133.409 40.4449 135.174 43.0784 136.886 45.7631C137.047 46.0188 137.207 46.3256 137.314 46.6324C137.475 47.1182 137.288 47.4762 136.726 47.5784C136.271 47.6551 135.79 47.6296 135.335 47.7063C135.148 47.7318 134.96 47.8852 134.773 47.9875C134.96 48.0898 135.174 48.2943 135.362 48.2943C139.294 48.3199 143.253 48.3199 147.185 48.2943C147.399 48.2943 147.613 48.1409 147.827 48.0387C147.613 47.9108 147.399 47.7063 147.158 47.7063C146.463 47.7063 145.848 47.4506 145.366 46.9392ZM198.626 47.8085C198.091 47.7574 197.556 47.7574 197.021 47.7063C196.138 47.604 195.87 47.3483 195.736 46.5046C195.683 46.0955 195.683 45.6608 195.683 45.2261C195.683 37.121 195.656 28.9902 195.683 20.8851C195.683 18.8396 195.79 16.8197 195.843 14.7742C195.87 13.9816 195.87 13.9816 195.041 14.0072C194.345 14.0328 193.65 14.0839 192.981 14.0839C190.868 14.135 188.755 14.1606 186.641 14.2373C186.454 14.2373 186.267 14.4163 186.08 14.5186C186.267 14.6208 186.427 14.7998 186.641 14.8254C187.016 14.8765 187.39 14.8509 187.765 14.8765C188.915 14.9788 189.236 15.2345 189.236 16.3339C189.263 20.655 189.236 24.9504 189.236 29.4249C189.102 29.2204 189.076 29.1437 189.022 29.0925C187.952 26.7658 186.026 25.6919 183.431 25.6919C179.071 25.7175 175.941 27.6863 174.069 31.3937C172.17 35.2033 172.089 39.1664 173.668 43.104C174.925 46.2744 177.386 48.2432 180.917 48.8313C184.608 49.4449 187.578 48.3199 189.102 44.817C189.129 44.7403 189.209 44.6892 189.236 44.6636C189.236 45.7631 189.263 46.8625 189.236 47.962C189.236 48.4478 189.397 48.6523 189.932 48.6523C192.794 48.5756 195.683 48.4989 198.545 48.4222C198.706 48.4222 198.84 48.2176 199 48.1154C198.92 47.962 198.786 47.8085 198.626 47.8085ZM188.594 43.3852C188.407 44.3312 187.899 45.2517 187.39 46.121C186.882 46.9904 186.026 47.5784 185.01 47.8852C183.164 48.4733 181.639 47.8597 180.81 46.1722C180.088 44.7403 179.874 43.1807 179.74 41.5954C179.446 37.8113 179.392 34.0528 180.195 30.2942C180.302 29.834 180.435 29.3993 180.623 28.9647C181.131 27.7118 181.907 26.7147 183.431 26.5357C185.117 26.3311 186.534 26.7914 187.524 28.1465C188.567 29.5527 189.022 31.1636 189.156 32.8766C189.263 34.0783 189.29 40.1892 188.594 43.3852ZM169.04 41.1608C168.558 41.0841 168.13 41.2119 167.97 41.6977C167.863 42.0045 167.836 42.3113 167.756 42.6182C167.06 46.121 163.503 49.0614 158.688 47.8852C156.815 47.425 155.986 45.9676 155.478 44.3568C154.702 41.9278 154.648 39.4221 154.622 36.763H155.451C159.276 36.763 163.101 36.763 166.927 36.763C167.355 36.763 167.783 36.763 168.184 36.7119C169.067 36.6352 169.495 36.2772 169.548 35.4335C169.842 32.1096 168.665 28.3766 164.68 26.6635C163.529 26.1777 162.219 25.8453 160.961 25.7431C156.093 25.2828 151.492 27.0982 149.191 31.6493C147.64 34.7431 147.372 37.9903 148.282 41.263C149.218 44.6125 151.385 46.9392 154.809 48.1665C157.323 49.0614 159.891 49.1637 162.513 48.6779C164.573 48.2688 166.392 47.3994 167.783 45.8653C168.799 44.7659 169.548 43.5131 169.628 42.0045C169.709 41.5443 169.521 41.2375 169.04 41.1608ZM155.852 28.7601C156.681 26.8425 158.313 26.0243 160.4 26.3567C161.577 26.5612 162.379 27.1749 162.7 28.2232C162.994 29.2204 163.208 30.2431 163.315 31.2658C163.422 32.4164 163.396 33.5925 163.369 34.7687C163.342 35.5869 162.994 36.0471 162.192 36.0471C159.704 36.0982 157.216 36.0727 154.648 36.0727C154.782 33.5414 154.862 31.0613 155.852 28.7601ZM117.6 47.0926C117.493 47.1693 117.386 47.2716 117.279 47.3227C115.968 48.1409 114.818 47.6551 114.711 46.1722C114.63 45.354 114.657 44.5102 114.657 43.692C114.684 39.8824 114.737 36.0982 114.711 32.2886C114.711 29.655 113.801 27.4561 110.966 26.4845C107.328 25.2573 103.663 25.2828 100.052 26.5357C97.4835 27.4306 96.0925 29.476 96.1728 31.8539C96.1995 33.03 96.8148 33.6181 98.0185 33.6437C99.356 33.6692 99.998 33.1067 100.078 31.905C100.132 31.1124 100.132 30.3454 100.212 29.5527C100.399 27.763 101.336 26.6891 103.074 26.4078C103.77 26.28 104.492 26.2544 105.188 26.28C107.033 26.3823 108.077 27.226 108.21 28.9902C108.371 31.0357 108.344 33.1067 108.371 35.1522C108.371 35.6636 108.371 36.1494 108.371 36.7374C107.809 36.7374 107.328 36.7119 106.846 36.7374C104.358 36.9164 101.871 37.0443 99.4095 37.3511C97.965 37.5301 96.6275 38.1181 95.718 39.3199C93.899 41.6977 94.6213 45.8653 97.1358 47.5784C100.827 50.0841 105.937 49.1381 108.398 45.4307C108.478 45.6864 108.531 45.8398 108.558 45.9932C108.959 47.425 109.976 48.2688 111.501 48.55C112.838 48.8057 114.202 48.8824 115.54 48.55C116.423 48.3455 117.252 48.0131 118.081 47.6296C118.268 47.5529 118.482 47.0415 118.402 46.8881C118.108 46.5813 117.84 46.9137 117.6 47.0926ZM108.023 44.1523C107.622 46.1722 106.284 47.5017 104.519 47.783C102.941 48.0387 101.817 47.4762 101.336 46.0188C100.64 43.9222 100.64 41.8 101.309 39.7034C101.683 38.5528 102.539 37.8113 103.797 37.6835C105.161 37.5301 106.552 37.5045 107.916 37.4278C108.344 37.4022 108.424 37.6068 108.424 37.9647C108.398 38.6806 108.264 42.8483 108.023 44.1523Z" fill="black"/>
</svg>
