<svg width="1193" height="489" viewBox="0 0 1193 489" fill="none" xmlns="http://www.w3.org/2000/svg"
    class="mt-r-90 mx-auto">
    <path d="M102 488.5H166" stroke="#000085" />
    <path d="M246 488.5H311" stroke="#000085" />
    <path d="M559 488.5H650" stroke="#000085" />
    <path d="M739 488.5H865" stroke="#000085" />
    <path d="M938 488.5H985" stroke="#000085" />
    <path
        d="M357 488.5H479.5V453.5M479.5 453.5H465M479.5 453.5V361.5M479.5 361.5H464M479.5 361.5V201.5M479.5 201.5H444M479.5 201.5V191.5H416"
        stroke="#000085" />
    <circle cx="218.5" cy="160.5" r="32.5" fill="#CFDDF3" />
    <circle cx="224.5" cy="160.5" r="32.5" fill="#000085" />
    <path d="M244 161C244 161 239 171 225 171C211 171 206 161 206 161C206 161 211 151 225 151C239 151 244 161 244 161Z"
        fill="white" />
    <circle cx="221.5" cy="164.5" r="3.5" fill="black" />
    <circle cx="221.5" cy="164.5" r="5.5" stroke="black" stroke-width="2" />
    <path d="M273 304C279.075 304 284 308.925 284 315C284 321.075 279.075 326 273 326" stroke="#000085" stroke-width="2"
        stroke-linecap="round" />
    <path opacity="0.2"
        d="M12 201C18.0751 201 23 196.075 23 190C23 183.925 18.0751 179 12 179C5.92487 179 1 183.925 1 190C1 196.075 5.92487 201 12 201Z"
        stroke="#407BF7" stroke-width="2" stroke-linecap="round" />
    <path opacity="0.2"
        d="M33.7777 288.34C29.6407 284.203 29.6346 277.502 33.7641 273.373C37.8936 269.243 44.5949 269.249 48.7319 273.386"
        stroke="#407BF7" stroke-width="2" stroke-linecap="round" />
    <path opacity="0.2" d="M414 440C408.477 440 404 435.299 404 429.5C404 423.701 408.477 419 414 419" stroke="#407BF7"
        stroke-width="2" stroke-linecap="round" />
    <path opacity="0.2" d="M320 342.5C320 336.701 315.299 332 309.5 332C303.701 332 299 336.701 299 342.5"
        stroke="#407BF7" stroke-width="2" stroke-linecap="round" />
    <path opacity="0.2" d="M320 247C320 240.925 315.299 236 309.5 236C303.701 236 299 240.925 299 247" stroke="#407BF7"
        stroke-width="2" stroke-linecap="round" />
    <path opacity="0.2"
        d="M273 304C266.925 304 262 308.925 262 315C262 321.075 266.925 326 273 326C279.075 326 284 321.075 284 315C284 308.925 279.075 304 273 304Z"
        stroke="#407BF7" stroke-width="2" stroke-linecap="round" />
    <path opacity="0.2" d="M294 342.5C294 336.701 289.299 332 283.5 332C277.701 332 273 336.701 273 342.5"
        stroke="#407BF7" stroke-width="2" stroke-linecap="round" />
    <circle cx="1154.5" cy="42.5" r="32.5" fill="#CFDDF3" />
    <circle cx="1160.5" cy="42.5" r="32.5" fill="#000085" />
    <path opacity="0.2"
        d="M1092.97 53.3324C1087.12 53.3324 1082.38 48.5974 1082.38 42.7564C1082.38 36.9155 1087.12 32.1804 1092.97 32.1804C1098.81 32.1804 1103.56 36.9155 1103.56 42.7564C1103.56 48.5974 1098.81 53.3324 1092.97 53.3324Z"
        fill="#BBD0EF" fill-opacity="0.5" stroke="#407BF7" stroke-width="2" stroke-linecap="round" />
    <path
        d="M1049 53H1160C1166.02 52.9868 1171.26 48.4552 1171.25 42.5914C1171.25 36.7362 1166.02 31.9943 1160.01 32C1160 32 1160.36 32 1160.35 32L1049 32V53Z"
        fill="#BBD0EF" fill-opacity="0.5" stroke="#000085" stroke-width="2" />
    <g opacity="0.3">
        <path fill-rule="evenodd" clip-rule="evenodd" d="M1051 48H1158Z" fill="#BBD0EF" fill-opacity="0.5" />
        <path d="M1051 48H1158" stroke="#407BF7" stroke-width="4" stroke-linecap="round" />
    </g>
    <path fill-rule="evenodd" clip-rule="evenodd"
        d="M1093 53C1099.08 53 1104 48.299 1104 42.5C1104 36.701 1099.08 32 1093 32" fill="#BBD0EF"
        fill-opacity="0.5" />
    <path d="M1093 53C1099.08 53 1104 48.299 1104 42.5C1104 36.701 1099.08 32 1093 32" stroke="#000085" stroke-width="2"
        stroke-linecap="round" />
    <g opacity="0.5">
        <path fill-rule="evenodd" clip-rule="evenodd" d="M1061 37H1092Z" fill="#BBD0EF" fill-opacity="0.5" />
        <path d="M1061 37H1092" stroke="white" stroke-width="4" stroke-linecap="round" />
    </g>
    <g opacity="0.5">
        <path fill-rule="evenodd" clip-rule="evenodd" d="M1110 37H1157Z" fill="#BBD0EF" fill-opacity="0.5" />
        <path d="M1110 37H1157" stroke="white" stroke-width="4" stroke-linecap="round" />
    </g>
    <path opacity="0.2" d="M294 246.5C294 240.701 289.299 236 283.5 236C277.701 236 273 240.701 273 246.5"
        stroke="#407BF7" stroke-width="2" stroke-linecap="round" />
    <circle cx="1034.5" cy="299.5" r="32.5" fill="#CFDDF3" />
    <circle cx="1040.5" cy="299.5" r="32.5" fill="#000085" />
    <path d="M1 339H89V459H1V339Z" fill="#DCEBFF" stroke="#000085" stroke-width="2" />
    <path d="M89 339H151V459H89V339Z" fill="white" stroke="#000085" stroke-width="2" />
    <circle cx="96" cy="346" r="2.5" stroke="#000085" />
    <circle cx="144" cy="346" r="2.5" stroke="#000085" />
    <circle cx="96" cy="452" r="2.5" stroke="#000085" />
    <circle cx="144" cy="452" r="2.5" stroke="#000085" />
    <path
        d="M88 458H2V413C4.86667 417.186 9.6881 417.734 15.0964 419.851C19.0836 421.858 21.6786 424.566 23.1871 427.828C26.7377 435.454 34.4986 440.319 42.9482 439.784C53.8086 438.341 56.8208 443.821 61.0941 448.613C64.0044 451.866 67.943 453.906 72.2794 453.367C80.7048 452.294 84.105 455.339 88 458Z"
        fill="#CBE2FF" />
    <path d="M103 353.031L131 353.001V445H103V353.031Z" stroke="#000085" stroke-width="2" />
    <path d="M137 353V445H131V353H137Z" fill="#DCEBFF" stroke="#000085" stroke-width="2" />
    <path d="M18 351H53V387H18V351Z" fill="#5B88FF" stroke="#000085" stroke-width="2" />
    <path d="M13 351H18V387H13V351Z" fill="white" stroke="#000085" stroke-width="2" />
    <path opacity="0.2" d="M52 364L34 386H52V364Z" fill="white" />
    <path opacity="0.2" d="M52 354L23 386H28.3697L52 359.43V354Z" fill="white" />
    <path opacity="0.3"
        d="M772.557 282.663V278.264C772.584 261.469 781.817 246.992 806.921 246.962H905.717C953.338 246.962 996.993 208.216 996.993 155.018V99.0452"
        stroke="#5B88FF" stroke-width="3" />
    <path fill-rule="evenodd" clip-rule="evenodd"
        d="M979.011 153.938V99.0377L1001 99V154C1001 207.622 957.788 251 905 251H806C786.035 251.023 776.452 262.089 776.421 280.904V283.431H755.034V282.664V280.903C755.069 250.976 775.296 230.037 806 230H905C945.966 230 979.008 195.574 979.011 153.938Z"
        fill="#BBD0EF" fill-opacity="0.5" stroke="#000085" stroke-width="2" />
    <path opacity="0.5"
        d="M907 234C925.395 234 943.16 226.371 957.079 213.738M964.113 206.521C975.595 193.193 983 175.722 983 157M983 149C983 145.621 983 115.758 983 109M826.15 234.091C855.794 234.091 874.044 234 882 234L826.15 234.091ZM887 234C891.275 234 898.468 234 902 234H887Z"
        stroke="white" stroke-width="4" stroke-linecap="round" />
    <path opacity="0.2" d="M834.5 251C840.299 251 845 246.299 845 240.5C845 234.701 840.299 230 834.5 230"
        stroke="#407BF7" stroke-width="2" stroke-linecap="round" />
    <path d="M835 251C828.925 251 824 246.299 824 240.5C824 234.701 828.925 230 835 230" stroke="#000085"
        stroke-width="2" stroke-linecap="round" />
    <path opacity="0.2"
        d="M978.59 216.873C982.601 212.398 982.231 205.524 977.764 201.52C973.296 197.517 966.423 197.899 962.412 202.375"
        stroke="#407BF7" stroke-width="2" stroke-linecap="round" />
    <path
        d="M961.201 203.441C958.273 208.514 960.126 215.067 965.34 218.077C970.554 221.087 977.155 219.416 980.084 214.343"
        stroke="#000085" stroke-width="2" stroke-linecap="round" />
    <path
        d="M1.00001 206.137L1 206.133L1.0021 160C1.0021 93.5357 54.0992 40 119.621 40H159.481V61.753H119.621C65.952 61.753 22.9979 105.542 22.9979 160V205C22.9979 259.458 65.952 303.989 119.621 303.989H293.998C311.524 303.99 328.741 311.055 341.13 323.629C353.518 336.2 360.474 353.247 360.47 371.02C360.47 397.318 382.138 419 407.998 419H522.998L529.998 433L523.998 440H407.998C389.878 440 371.847 433.016 359.036 420.019C346.227 407.024 339.032 389.401 339.032 371.025C339.032 359.013 334.328 347.493 325.958 339.001C317.589 330.511 305.83 326 293.998 326H119.621C54.3662 326 1.38551 272.296 1.00001 206.137Z"
        fill="#CBE2FF" fill-opacity="0.4" stroke="#000085" stroke-width="2" />
    <path opacity="0.2"
        d="M350 383C356.075 383 361 378.075 361 372C361 365.925 356.075 361 350 361C343.925 361 339 365.925 339 372C339 378.075 343.925 383 350 383Z"
        stroke="#407BF7" stroke-width="2" stroke-linecap="round" />
    <path opacity="0.2"
        d="M52.2977 88.2976C56.4076 84.1878 56.4136 77.5304 52.3112 73.428C48.2088 69.3256 41.5514 69.3316 37.4416 73.4415C33.3317 77.5514 33.3257 84.2087 37.4281 88.3111C41.5305 92.4135 48.1878 92.4075 52.2977 88.2976Z"
        stroke="#407BF7" stroke-width="1.2075" stroke-linecap="round" />
    <path
        d="M52.8258 88.1832C48.6579 92.3511 41.9065 92.3573 37.7461 88.1969C33.5857 84.0365 33.5918 77.2851 37.7598 73.1172"
        stroke="#000085" stroke-width="2" stroke-linecap="round" />
    <path d="M23 190C23 196.075 18.0751 201 12 201C5.92487 201 1 196.075 1 190" stroke="#000085" stroke-width="2"
        stroke-linecap="round" />
    <path d="M414 440C420.075 440 425 435.299 425 429.5C425 423.701 420.075 419 414 419" stroke="#000085"
        stroke-width="2" stroke-linecap="round" />
    <path opacity="0.2" d="M479 440C473.477 440 469 435.299 469 429.5C469 423.701 473.477 419 479 419" stroke="#407BF7"
        stroke-width="2" stroke-linecap="round" />
    <path d="M479 440C485.075 440 490 435.299 490 429.5C490 423.701 485.075 419 479 419" stroke="#000085"
        stroke-width="2" stroke-linecap="round" />
    <path opacity="0.2" d="M479 407C473.477 407 469 402.299 469 396.5C469 390.701 473.477 386 479 386" stroke="#407BF7"
        stroke-width="2" stroke-linecap="round" />
    <path opacity="0.3"
        d="M114.599 320.717C102.429 319.839 93.7775 318.627 88.6434 317.08C80.9424 314.76 67.2235 310.061 51.3327 297.848C46.8058 294.369 43.4164 291.594 40.6577 289.061C33.7328 282.701 30.7832 277.865 23.7956 267.242C18.2049 258.743 13.9078 249.681 10.9043 240.056"
        stroke="#407BF7" stroke-width="4" stroke-linecap="round" />
    <path opacity="0.3" d="M145 55H120C96.7513 55 75.6627 61.8112 58.5 75" stroke="#407BF7" stroke-width="4"
        stroke-linecap="round" />
    <path opacity="0.3" d="M39 95C25.5 112.5 17 132 17 160M17 168.323C17 173.584 17 181.477 17 192" stroke="#407BF7"
        stroke-width="4" stroke-linecap="round" />
    <path opacity="0.5"
        d="M138.339 44.8813H112.397C89.1484 44.8813 59.784 59.4673 39.5 80M30 89C15.0192 108.116 6 133.237 6 159V169"
        stroke="white" stroke-width="4" stroke-linecap="round" />
    <path opacity="0.3"
        d="M512 434.802C440.471 434.802 423.54 435 409.918 435C391.992 435 375.917 427.761 363.242 415.085C350.566 402.409 344.327 386.953 344.327 369.026C344.327 356.98 338.659 343.69 330.141 335.172C321.623 326.654 306.54 321 294.494 321H122"
        stroke="#407BF7" stroke-width="4" stroke-linecap="round" />
    <path opacity="0.5" d="M272.515 308.672H180.771" stroke="white" stroke-width="4" stroke-linecap="round" />
    <path opacity="0.5"
        d="M170.214 308.672C144.795 308.672 117.765 309.638 95.6763 305.302C80.9505 302.412 67.9406 296.105 56.6465 286.382"
        stroke="white" stroke-width="4" stroke-linecap="round" />
    <path opacity="0.5" d="M17.4229 206.994C17.4229 233.69 26.7463 257.188 45.3931 277.49" stroke="white"
        stroke-width="4.83" stroke-linecap="round" />
    <path opacity="0.5" d="M512 423L425.944 423.113" stroke="white" stroke-width="4" stroke-linecap="round" />
    <path opacity="0.5" d="M385 417C390.74 421.028 399.375 423.042 410.902 423.042" stroke="white" stroke-width="4"
        stroke-linecap="round" />
    <path opacity="0.5"
        d="M326 318C334.298 323.152 339.56 328.68 342.597 333.008M349.357 343.326C354.006 353.505 356.214 363.396 355.984 373"
        stroke="white" stroke-width="4" stroke-linecap="round" />
    <path
        d="M299 185V356C299.033 384.417 321.984 406.94 350 407H520L520.552 407.878L520 386L350.125 386.117C333.957 386.084 319.935 372.861 319.916 356.443V184.443"
        stroke="#000085" stroke-width="2" />
    <path opacity="0.3" d="M511 401H351C324.258 400.943 305.081 381.108 305.049 353.974V200" stroke="#407BF7"
        stroke-width="4" stroke-linecap="round" />
    <path opacity="0.5" d="M453.744 390H362" stroke="white" stroke-width="4" stroke-linecap="round" />
    <path opacity="0.5" d="M315 337V198" stroke="white" stroke-width="4" stroke-linecap="round" />
    <path opacity="0.5" d="M511 390H491" stroke="white" stroke-width="4" stroke-linecap="round" />
    <path opacity="0.5" d="M481.659 390H464" stroke="white" stroke-width="4" stroke-linecap="round" />
    <path opacity="0.5" d="M328.751 383.583C331.455 386.224 336.037 388.244 339.334 388.865" stroke="white"
        stroke-width="4" stroke-linecap="round" />
    <path opacity="0.5" d="M316.231 362.943C315.959 366.059 318.383 374.158 324.515 379.574" stroke="white"
        stroke-width="4" stroke-linecap="round" />
    <path
        d="M244 388H119H118C112.009 388.007 106.993 393.134 107 399.131C107.007 405.136 111.873 410 117.873 410H243.543C275.727 410 294 388.936 294 358V185H273V358C273 376.294 263.114 388 244 388Z"
        fill="#CBE2FF" fill-opacity="0.4" stroke="#000085" stroke-width="2" />
    <path opacity="0.3" d="M288 197.106V355.106C288 382.033 275.075 404 242.249 404L134 404" stroke="#407BF7"
        stroke-width="4" stroke-linecap="round" />
    <path opacity="0.5" d="M277 254V203" stroke="white" stroke-width="4" stroke-linecap="round" />
    <path opacity="0.2"
        d="M223 410C229.075 410 234 405.075 234 399C234 392.925 229.075 388 223 388C216.925 388 212 392.925 212 399C212 405.075 216.925 410 223 410Z"
        stroke="#407BF7" stroke-width="2" stroke-linecap="round" />
    <path d="M223 410C216.925 410 212 405.075 212 399C212 392.925 216.925 388 223 388" stroke="#000085" stroke-width="2"
        stroke-linecap="round" />
    <path opacity="0.2"
        d="M141 304C134.925 304 130 308.925 130 315C130 321.075 134.925 326 141 326C147.075 326 152 321.075 152 315C152 308.925 147.075 304 141 304Z"
        stroke="#407BF7" stroke-width="2" stroke-linecap="round" />
    <path d="M141 304C147.075 304 152 308.925 152 315C152 321.075 147.075 326 141 326" stroke="#000085" stroke-width="2"
        stroke-linecap="round" />
    <path d="M294 246C294 252.075 289.299 257 283.5 257C277.701 257 273 252.075 273 246" stroke="#000085"
        stroke-width="2" stroke-linecap="round" />
    <path d="M320 246C320 252.075 315.299 257 309.5 257C304 257 299 251.5 299 246" stroke="#000085" stroke-width="2"
        stroke-linecap="round" />
    <path d="M294 342C294 348.075 289.299 353 283.5 353C277.701 353 273 348.075 273 342" stroke="#000085"
        stroke-width="2" stroke-linecap="round" />
    <path d="M320 342C320 348.075 315.299 353 309.5 353C303.701 353 299 348.075 299 342" stroke="#000085"
        stroke-width="2" stroke-linecap="round" />
    <path opacity="0.2"
        d="M371.5 407C377.299 407 382 402.299 382 396.5C382 390.701 377.299 386 371.5 386C365.701 386 361 390.701 361 396.5C361 402.299 365.701 407 371.5 407Z"
        stroke="#407BF7" stroke-width="2" stroke-linecap="round" />
    <path d="M371 407C377.075 407 382 402.299 382 396.5C382 390.701 377.075 386 371 386" stroke="#000085"
        stroke-width="2" stroke-linecap="round" />
    <path opacity="0.2"
        d="M578.977 404.148C584.091 404.148 588.237 399.813 588.237 394.464C588.237 389.116 584.091 384.781 578.977 384.781C573.863 384.781 569.717 389.116 569.717 394.464C569.717 399.813 573.863 404.148 578.977 404.148Z"
        stroke="#231F20" stroke-width="1.48522" />
    <path opacity="0.2" d="M1001 346C1001 340.477 996.747 336 991.5 336C986.253 336 982 340.477 982 346"
        stroke="#407BF7" stroke-width="2" stroke-linecap="round" />
    <path
        d="M925.686 397.473C929.826 397.473 933.182 394.123 933.182 389.99C933.182 385.858 929.826 382.508 925.686 382.508C921.546 382.508 918.19 385.858 918.19 389.99C918.19 394.123 921.546 397.473 925.686 397.473Z"
        fill="#4FE2DF" stroke="#231F20" stroke-width="1.2075" />
    <path
        d="M927.45 397.473C931.59 397.473 934.946 394.123 934.946 389.99C934.946 385.858 931.59 382.508 927.45 382.508C923.31 382.508 919.954 385.858 919.954 389.99C919.954 394.123 923.31 397.473 927.45 397.473Z"
        fill="#4FE2DF" stroke="#231F20" stroke-width="1.2075" />
    <path
        d="M927.45 394.832C930.129 394.832 932.3 392.664 932.3 389.99C932.3 387.316 930.129 385.148 927.45 385.148C924.771 385.148 922.599 387.316 922.599 389.99C922.599 392.664 924.771 394.832 927.45 394.832Z"
        fill="#4FE2DF" stroke="#231F20" stroke-width="1.2075" />
    <path d="M922.246 384.333H920.626Z" fill="#29CC86" />
    <path d="M922.246 384.333H920.626" stroke="#231F20" stroke-width="1.2075" />
    <path d="M920.108 389.822H918.487Z" fill="#29CC86" />
    <path d="M920.108 389.822H918.487" stroke="#231F20" stroke-width="1.2075" />
    <path d="M921.676 394.631H920.108Z" fill="#29CC86" />
    <path d="M921.676 394.631H920.108" stroke="#231F20" stroke-width="1.2075" />
    <path
        d="M984.645 387.034C995.804 377.317 1001 364.676 1001 346C1001 333.012 1004.83 321.759 1011.46 316.03C1022.38 306.588 1039.68 309.154 1039.68 309.154C1043.17 309.795 1046.73 308.471 1049 305.691C1051.26 302.91 1051.87 299.105 1050.6 295.736C1049.33 292.367 1046.37 289.957 1042.86 289.432C1041.8 289.259 1016.69 285.285 998.723 300.803C987.494 310.495 982 326.875 982 346C982 358.569 978.457 366.104 971.852 371.853C964.103 378.6 953.15 379.688 946.613 379.649C943.309 379.629 905.856 379.321 905.792 379.311C902.321 378.752 898.821 380.122 896.613 382.903C894.405 385.685 893.825 389.454 895.094 392.788C896.362 396.122 899.285 398.513 902.758 399.058C905.678 399.463 943.899 399.654 946.846 399.629C956.54 399.629 972.358 397.727 984.645 387.034Z"
        fill="#BBD0EF" fill-opacity="0.5" stroke="#000085" stroke-width="2" />
    <path opacity="0.2"
        d="M1041 310C1046.52 310 1051 305.523 1051 300C1051 294.477 1046.52 290 1041 290C1035.47 290 1031 294.477 1031 300C1031 305.523 1035.47 310 1041 310Z"
        stroke="#000085" stroke-width="2" stroke-linecap="round" />
    <path opacity="0.3"
        d="M935.59 395.333C946.598 395.333 965.442 396.862 979.395 385.669C992.066 375.495 996.732 361.3 996.732 341.749C996.732 328.152 1001.43 318.213 1008.96 312.216C1019.27 304 1034.81 303.973 1035 304"
        stroke="#407BF7" stroke-width="4" stroke-linecap="round" />
    <path opacity="0.5"
        d="M935.826 384.916C944.759 384.916 960.051 385.852 971.373 379.003C981.655 372.778 986.066 361.75 986.066 352.128"
        stroke="white" stroke-width="4" stroke-linecap="round" />
    <path d="M1001 344C1001 349.523 996.747 354 991.5 354C986.253 354 982 349.523 982 344" stroke="#000085"
        stroke-width="2" stroke-linecap="round" />
    <path opacity="0.5" d="M986.923 335.169C986.096 339.253 986.096 343.95 986.096 346.915" stroke="white"
        stroke-width="4" stroke-linecap="round" />
    <path opacity="0.5" d="M993.38 315.437C991.065 319.046 989.526 323.868 988.512 328.48" stroke="white"
        stroke-width="4" stroke-linecap="round" />
    <path opacity="0.5"
        d="M265.456 381.26C268.432 378.696 270.957 375.936 272.741 372.003C274.524 368.069 276.039 363.5 276.039 358.372"
        stroke="white" stroke-width="4.83" stroke-linecap="round" />
    <path opacity="0.5" d="M175.061 393.302H242.533" stroke="white" stroke-width="4" stroke-linecap="round" />
    <path opacity="0.5" d="M157.422 393.302H168.014" stroke="white" stroke-width="4" stroke-linecap="round" />
    <path
        d="M283.535 156.838C292.436 156.838 299.652 153.99 299.652 150.478C299.652 146.965 292.436 144.117 283.535 144.117C274.634 144.117 267.418 146.965 267.418 150.478C267.418 153.99 274.634 156.838 283.535 156.838Z"
        stroke="#000085" stroke-width="2" />
    <path
        d="M283.535 167.131C292.436 167.131 299.652 164.284 299.652 160.771C299.652 157.258 292.436 154.411 283.535 154.411C274.634 154.411 267.418 157.258 267.418 160.771C267.418 164.284 274.634 167.131 283.535 167.131Z"
        stroke="#000085" stroke-width="2" />
    <path
        d="M594.851 163.822C596.069 163.822 597.056 162.836 597.056 161.621C597.056 160.405 596.069 159.42 594.851 159.42C593.634 159.42 592.646 160.405 592.646 161.621C592.646 162.836 593.634 163.822 594.851 163.822Z"
        fill="#E1E9F3" stroke="#231F20" stroke-width="1.5456" />
    <path
        d="M593.968 443.762C595.186 443.762 596.173 442.777 596.173 441.561C596.173 440.346 595.186 439.361 593.968 439.361C592.751 439.361 591.764 440.346 591.764 441.561C591.764 442.777 592.751 443.762 593.968 443.762Z"
        fill="#E1E9F3" stroke="#231F20" stroke-width="1.5456" />
    <path opacity="0.2"
        d="M616.899 405.028C622.013 405.028 626.159 400.693 626.159 395.345C626.159 389.997 622.013 385.661 616.899 385.661C611.785 385.661 607.639 389.997 607.639 395.345C607.639 400.693 611.785 405.028 616.899 405.028Z"
        stroke="#231F20" stroke-width="1.48522" />
    <path opacity="0.2"
        d="M616.899 432.318C622.013 432.318 626.159 427.983 626.159 422.635C626.159 417.287 622.013 412.951 616.899 412.951C611.785 412.951 607.639 417.287 607.639 422.635C607.639 427.983 611.785 432.318 616.899 432.318Z"
        stroke="#231F20" stroke-width="1.48522" />
    <path opacity="0.5"
        d="M759.339 277.873C759.339 271.422 763.97 251.998 777.237 243.239C790.503 234.48 797.43 234.367 820.529 234.367"
        stroke="white" stroke-width="4" stroke-linecap="round" />
    <path d="M518 150H593V483H518V150Z" fill="#DCEBFF" stroke="#000085" stroke-width="2" />
    <path d="M535 379H575V399H535V379Z" fill="#E1E9F3" stroke="#000085" stroke-width="2" />
    <circle cx="563" cy="389" r="4.5" fill="#33DFCC" stroke="#000085" />
    <circle cx="547" cy="389" r="4.5" fill="#33DFCC" stroke="#000085" />
    <path d="M535 411H575V431H535V411Z" fill="#E1E9F3" stroke="#000085" stroke-width="2" />
    <circle cx="563" cy="421" r="4.5" fill="#33DFCC" stroke="#000085" />
    <circle cx="547" cy="421" r="4.5" fill="#33DFCC" stroke="#000085" />
    <path d="M538 160.053H575V236H538V160.053Z" fill="#5B88FF" stroke="#000085" stroke-width="2" />
    <path d="M532 160.053H538V236H532V160.053Z" stroke="#000085" stroke-width="2" />
    <path d="M541 164H555" stroke="white" stroke-width="2" />
    <path d="M557 164H560" stroke="white" stroke-width="2" />
    <path d="M564.001 164H572.001" stroke="white" stroke-width="2" />
    <path d="M572 168H560" stroke="white" stroke-width="2" />
    <path d="M557 168H548" stroke="white" stroke-width="2" />
    <path d="M545 168H541" stroke="white" stroke-width="2" />
    <path d="M545 172H541M557 172H554H552" stroke="white" stroke-width="2" />
    <path d="M548 176H541M557 176H554H552" stroke="white" stroke-width="2" />
    <path d="M564 174H560" stroke="white" stroke-width="2" />
    <path d="M545 179.996H541" stroke="white" stroke-width="2" />
    <path d="M550 179.996H547" stroke="white" stroke-width="2" />
    <path d="M555 179.996H552" stroke="white" stroke-width="2" />
    <path d="M545 184H541" stroke="white" stroke-width="2" />
    <path d="M545 188H541" stroke="white" stroke-width="2" />
    <path d="M550 192H541" stroke="white" stroke-width="2" />
    <path d="M545 196H541" stroke="white" stroke-width="2" />
    <path d="M543 204H541" stroke="white" stroke-width="2" />
    <path d="M545 208H541" stroke="white" stroke-width="2" />
    <path d="M543 212H541" stroke="white" stroke-width="2" />
    <path d="M545 216H541" stroke="white" stroke-width="2" />
    <path d="M543 220H541" stroke="white" stroke-width="2" />
    <path d="M545 224H541" stroke="white" stroke-width="2" />
    <path d="M549 224H547" stroke="white" stroke-width="2" />
    <path d="M543 232H541" stroke="white" stroke-width="2" />
    <path d="M545 228H541" stroke="white" stroke-width="2" />
    <path d="M549 220H547" stroke="white" stroke-width="2" />
    <path d="M553 220H551" stroke="white" stroke-width="2" />
    <path d="M561 220H557" stroke="white" stroke-width="2" />
    <path d="M561 216H559" stroke="white" stroke-width="2" />
    <path d="M557 216H547" stroke="white" stroke-width="2" />
    <path d="M549 212H547" stroke="white" stroke-width="2" />
    <path d="M553 212H551" stroke="white" stroke-width="2" />
    <path d="M559 212H557" stroke="white" stroke-width="2" />
    <path d="M563 212H561" stroke="white" stroke-width="2" />
    <path d="M550 208H547" stroke="white" stroke-width="2" />
    <path d="M555 208H552" stroke="white" stroke-width="2" />
    <path d="M547 204H545" stroke="white" stroke-width="2" />
    <path d="M551 204H549" stroke="white" stroke-width="2" />
    <path d="M555 204H553" stroke="white" stroke-width="2" />
    <path d="M559 204H557" stroke="white" stroke-width="2" />
    <path d="M563 204H561" stroke="white" stroke-width="2" />
    <path d="M567 204H565" stroke="white" stroke-width="2" />
    <path d="M547 200H543" stroke="white" stroke-width="2" />
    <path d="M554 200H550" stroke="white" stroke-width="2" />
    <path d="M560 200H557" stroke="white" stroke-width="2" />
    <path d="M550 196H547" stroke="white" stroke-width="2" />
    <path d="M560 196H557" stroke="white" stroke-width="2" />
    <path d="M565 196H562" stroke="white" stroke-width="2" />
    <path d="M570 196H567" stroke="white" stroke-width="2" />
    <path d="M555 192H552" stroke="white" stroke-width="2" />
    <path d="M560 192H557" stroke="white" stroke-width="2" />
    <path d="M550 188H547" stroke="white" stroke-width="2" />
    <path d="M555 188H552" stroke="white" stroke-width="2" />
    <path d="M560 188H557" stroke="white" stroke-width="2" />
    <path d="M565 188H562" stroke="white" stroke-width="2" />
    <path d="M550 184H547" stroke="white" stroke-width="2" />
    <path d="M555 184H552" stroke="white" stroke-width="2" />
    <path opacity="0.2" d="M554 235H574V213L554 235Z" fill="white" />
    <path opacity="0.2" d="M574 201L541 235H546.95L574 207.197V201Z" fill="white" />
    <path d="M593 150H648.121V483H593V150Z" fill="white" stroke="#000085" stroke-width="2" />
    <circle cx="600" cy="157" r="2.5" stroke="#000085" />
    <circle cx="641" cy="157" r="2.5" stroke="#000085" />
    <circle cx="600" cy="476" r="2.5" stroke="#000085" />
    <circle cx="641" cy="476" r="2.5" stroke="#000085" />
    <path d="M628 164V469H604V164H628Z" stroke="#000085" stroke-width="2" />
    <path d="M634 164V469H628V164H634Z" fill="#DCEBFF" stroke="#000085" stroke-width="2" />
    <path opacity="0.2" d="M684 432C690.075 432 695 427.075 695 421C695 414.925 690.075 410 684 410" stroke="#407BF7"
        stroke-width="2" stroke-linecap="round" />
    <path
        d="M616.55 410H741.385V432.078L616.549 431.956C610.576 431.95 605.736 427.035 605.736 420.973C605.736 414.913 610.578 410 616.55 410Z"
        fill="#BBD0EF" fill-opacity="0.5" stroke="#000085" stroke-width="2" />
    <g opacity="0.3">
        <path fill-rule="evenodd" clip-rule="evenodd" d="M718 427H628Z" fill="#BBD0EF" fill-opacity="0.5" />
        <path d="M718 427H628" stroke="#407BF7" stroke-width="4" stroke-linecap="round" />
    </g>
    <g opacity="0.5">
        <path fill-rule="evenodd" clip-rule="evenodd" d="M723.646 414H661Z" fill="#BBD0EF" fill-opacity="0.5" />
        <path d="M723.646 414H661" stroke="white" stroke-width="4" stroke-linecap="round" />
    </g>
    <path d="M684 432C677.925 432 673 427.075 673 421C673 414.925 677.925 410 684 410" stroke="#000085" stroke-width="2"
        stroke-linecap="round" />
    <path d="M856 278H940V440H856V278Z" fill="white" stroke="#000085" stroke-width="2" />
    <path d="M921 292L921 426H870V292H921Z" stroke="#000085" stroke-width="2" />
    <path d="M926 292L926 426H920V292H926Z" fill="#DCEBFF" stroke="#000085" stroke-width="2" />
    <circle r="2.5" transform="matrix(-1 0 0 1 933 285)" stroke="#000085" />
    <circle r="2.5" transform="matrix(-1 0 0 1 863 285)" stroke="#000085" />
    <circle r="2.5" transform="matrix(-1 0 0 1 933 433)" stroke="#000085" />
    <circle r="2.5" transform="matrix(-1 0 0 1 863 433)" stroke="#000085" />
    <path d="M723 278H856V440H723V278Z" fill="#DCEBFF" stroke="#000085" stroke-width="2" />
    <path
        d="M821 439L724 438.928V298C724.527 298.873 724.961 299.802 725.296 300.769C727.684 306.991 731.589 312.483 736.638 316.724C740.025 319.6 741.445 324.579 741.942 329.802C742.935 339.934 736.569 354.395 742.046 362.89C744.932 367.367 756.199 366.818 760.42 369.709C781.277 380.242 767.373 406.933 781.968 415.215C790.941 418.69 813.054 421.887 821 439Z"
        fill="#CBE2FF" />
    <rect x="191" y="1" width="55" height="98" fill="white" stroke="#000085" stroke-width="2" />
    <circle cx="199" cy="9" r="2.5" stroke="#000085" />
    <circle cx="238" cy="9" r="2.5" stroke="#000085" />
    <circle cx="199" cy="91" r="2.5" stroke="#000085" />
    <circle cx="238" cy="91" r="2.5" stroke="#000085" />
    <rect x="227" y="16" width="6" height="68" fill="#DCEBFF" stroke="#000085" stroke-width="2" />
    <rect x="205" y="16" width="28" height="68" stroke="#000085" stroke-width="2" />
    <rect x="-1" y="1" width="71" height="98" transform="matrix(-1 0 0 1 190 0)" fill="#DCEBFF" stroke="#000085"
        stroke-width="2" />
    <path
        d="M139.465 48.7785C139.465 34.1582 129.746 24.8987 121 21V98H190C181.739 75.5823 170.582 91.8559 163.761 70.7089C158.415 54.1392 139.465 63.3987 139.465 48.7785Z"
        fill="#CBE2FF" />
    <circle cx="171" cy="51" r="4.5" fill="#003CDA" stroke="#000085" />
    <circle cx="155" cy="51" r="4.5" fill="#33DFCC" stroke="#000085" />
    <circle cx="139" cy="51" r="4.5" fill="#33DFCC" stroke="#000085" />
    <rect x="-1" y="1" width="55" height="98" transform="matrix(-1 0 0 1 978 0)" fill="white" stroke="#000085"
        stroke-width="2" />
    <circle r="2.5" transform="matrix(-1 0 0 1 971 9)" stroke="#000085" />
    <circle r="2.5" transform="matrix(-1 0 0 1 932 9)" stroke="#000085" />
    <circle r="2.5" transform="matrix(-1 0 0 1 971 91)" stroke="#000085" />
    <circle r="2.5" transform="matrix(-1 0 0 1 932 91)" stroke="#000085" />
    <rect x="-1" y="1" width="6" height="68" transform="matrix(-1 0 0 1 942 15)" fill="#DCEBFF" stroke="#000085"
        stroke-width="2" />
    <rect x="-1" y="1" width="28" height="68" transform="matrix(-1 0 0 1 964 15)" stroke="#000085" stroke-width="2" />
    <rect x="979" y="1" width="71" height="98" fill="#DCEBFF" stroke="#000085" stroke-width="2" />
    <path
        d="M1030.54 48.7785C1030.54 34.1582 1040.25 24.8987 1049 21V98H980C988.261 75.5823 999.418 91.8559 1006.24 70.7089C1011.58 54.1392 1030.54 63.3987 1030.54 48.7785Z"
        fill="#CBE2FF" />
    <circle r="4.5" transform="matrix(-1 0 0 1 999 51)" fill="#003CDA" stroke="#000085" />
    <circle r="4.5" transform="matrix(-1 0 0 1 1015 51)" fill="#33DFCC" stroke="#000085" />
    <circle r="4.5" transform="matrix(-1 0 0 1 1031 51)" fill="#33DFCC" stroke="#000085" />
    <circle cx="118" cy="399" r="11" fill="#000085" />
    <circle cx="617" cy="421" r="11" fill="#000085" />
    <rect x="831" y="394" width="10" height="10" fill="#33DFCC" stroke="#000085" stroke-width="2" />
    <rect x="831" y="410" width="10" height="10" fill="#5B88FF" stroke="#000085" stroke-width="2" />
    <rect x="813" y="292" width="28" height="90" fill="#5B88FF" stroke="#000085" stroke-width="2" />
    <path opacity="0.2" d="M836 293H819V351L836 293Z" fill="white" />
    <rect x="813" y="292" width="5" height="90" fill="white" stroke="#000085" stroke-width="2" />
    <path
        d="M830.305 381.022C826.145 381.022 822.772 377.659 822.772 373.511C822.772 369.363 826.145 366 830.305 366C834.465 366 837.838 369.363 837.838 373.511C837.838 377.659 834.465 381.022 830.305 381.022Z"
        fill="#5B88FF" stroke="#000085" />
    <path
        d="M828.533 381.022C824.373 381.022 821 377.659 821 373.511C821 369.363 824.373 366 828.533 366C832.693 366 836.066 369.363 836.066 373.511C836.066 377.659 832.693 381.022 828.533 381.022Z"
        fill="#5B88FF" stroke="#000085" />
    <path
        d="M828.533 378.371C825.841 378.371 823.659 376.195 823.659 373.511C823.659 370.827 825.841 368.651 828.533 368.651C831.225 368.651 833.407 370.827 833.407 373.511C833.407 376.195 831.225 378.371 828.533 378.371Z"
        fill="#5B88FF" stroke="#000085" />
    <path d="M833.762 367.833H835.39Z" fill="#5B88FF" />
    <path d="M833.762 367.833H835.39" stroke="#000085" />
    <path d="M835.911 373.342H837.539Z" fill="#5B88FF" />
    <path d="M835.911 373.342H837.539" stroke="#000085" />
    <path d="M834.335 378.17H835.911Z" fill="#5B88FF" />
    <path d="M834.335 378.17H835.911" stroke="#000085" />
    <path
        d="M830.305 365.022C826.145 365.022 822.772 361.659 822.772 357.511C822.772 353.363 826.145 350 830.305 350C834.465 350 837.838 353.363 837.838 357.511C837.838 361.659 834.465 365.022 830.305 365.022Z"
        fill="#33DFCC" stroke="#000085" />
    <path
        d="M828.533 365.022C824.373 365.022 821 361.659 821 357.511C821 353.363 824.373 350 828.533 350C832.693 350 836.066 353.363 836.066 357.511C836.066 361.659 832.693 365.022 828.533 365.022Z"
        fill="#33DFCC" stroke="#000085" />
    <path
        d="M828.533 362.371C825.841 362.371 823.659 360.195 823.659 357.511C823.659 354.827 825.841 352.651 828.533 352.651C831.225 352.651 833.407 354.827 833.407 357.511C833.407 360.195 831.225 362.371 828.533 362.371Z"
        fill="#33DFCC" stroke="#000085" />
    <path d="M833.762 351.833H835.39Z" fill="#33DFCC" />
    <path d="M833.762 351.833H835.39" stroke="#000085" />
    <path d="M835.911 357.342H837.539Z" fill="#33DFCC" />
    <path d="M835.911 357.342H837.539" stroke="#000085" />
    <path d="M834.335 362.17H835.911Z" fill="#33DFCC" />
    <path d="M834.335 362.17H835.911" stroke="#000085" />
    <rect x="793" y="394" width="10" height="10" fill="#33DFCC" stroke="#000085" stroke-width="2" />
    <rect x="793" y="410" width="10" height="10" fill="#33DFCC" stroke="#000085" stroke-width="2" />
    <rect x="775" y="292" width="28" height="90" fill="#5B88FF" stroke="#000085" stroke-width="2" />
    <rect x="775" y="292" width="5" height="90" fill="white" stroke="#000085" stroke-width="2" />
    <path
        d="M792.305 381.022C788.145 381.022 784.772 377.659 784.772 373.511C784.772 369.363 788.145 366 792.305 366C796.465 366 799.838 369.363 799.838 373.511C799.838 377.659 796.465 381.022 792.305 381.022Z"
        fill="#5B88FF" stroke="#000085" />
    <path
        d="M790.533 381.022C786.373 381.022 783 377.659 783 373.511C783 369.363 786.373 366 790.533 366C794.693 366 798.066 369.363 798.066 373.511C798.066 377.659 794.693 381.022 790.533 381.022Z"
        fill="#5B88FF" stroke="#000085" />
    <path
        d="M790.533 378.371C787.841 378.371 785.659 376.195 785.659 373.511C785.659 370.827 787.841 368.651 790.533 368.651C793.225 368.651 795.407 370.827 795.407 373.511C795.407 376.195 793.225 378.371 790.533 378.371Z"
        fill="#5B88FF" stroke="#000085" />
    <path d="M795.762 367.833H797.39Z" fill="#5B88FF" />
    <path d="M795.762 367.833H797.39" stroke="#000085" />
    <path d="M797.911 373.342H799.539Z" fill="#5B88FF" />
    <path d="M797.911 373.342H799.539" stroke="#000085" />
    <path d="M796.335 378.17H797.911Z" fill="#5B88FF" />
    <path d="M796.335 378.17H797.911" stroke="#000085" />
    <path
        d="M792.305 365.022C788.145 365.022 784.772 361.659 784.772 357.511C784.772 353.363 788.145 350 792.305 350C796.465 350 799.838 353.363 799.838 357.511C799.838 361.659 796.465 365.022 792.305 365.022Z"
        fill="#33DFCC" stroke="#000085" />
    <path
        d="M790.533 365.022C786.373 365.022 783 361.659 783 357.511C783 353.363 786.373 350 790.533 350C794.693 350 798.066 353.363 798.066 357.511C798.066 361.659 794.693 365.022 790.533 365.022Z"
        fill="#33DFCC" stroke="#000085" />
    <path
        d="M790.533 362.371C787.841 362.371 785.659 360.195 785.659 357.511C785.659 354.827 787.841 352.651 790.533 352.651C793.225 352.651 795.407 354.827 795.407 357.511C795.407 360.195 793.225 362.371 790.533 362.371Z"
        fill="#33DFCC" stroke="#000085" />
    <path d="M795.762 351.833H797.39Z" fill="#33DFCC" />
    <path d="M795.762 351.833H797.39" stroke="#000085" />
    <path d="M797.911 357.342H799.539Z" fill="#33DFCC" />
    <path d="M797.911 357.342H799.539" stroke="#000085" />
    <path d="M796.335 362.17H797.911Z" fill="#33DFCC" />
    <path d="M796.335 362.17H797.911" stroke="#000085" />
    <path
        d="M792.305 349.022C788.145 349.022 784.772 345.659 784.772 341.511C784.772 337.363 788.145 334 792.305 334C796.465 334 799.838 337.363 799.838 341.511C799.838 345.659 796.465 349.022 792.305 349.022Z"
        fill="#5B88FF" stroke="#000085" />
    <path
        d="M790.533 349.022C786.373 349.022 783 345.659 783 341.511C783 337.363 786.373 334 790.533 334C794.693 334 798.066 337.363 798.066 341.511C798.066 345.659 794.693 349.022 790.533 349.022Z"
        fill="#5B88FF" stroke="#000085" />
    <path
        d="M790.533 346.371C787.841 346.371 785.659 344.195 785.659 341.511C785.659 338.827 787.841 336.651 790.533 336.651C793.225 336.651 795.407 338.827 795.407 341.511C795.407 344.195 793.225 346.371 790.533 346.371Z"
        fill="#5B88FF" stroke="#000085" />
    <path d="M795.762 335.833H797.39Z" fill="#5B88FF" />
    <path d="M795.762 335.833H797.39" stroke="#000085" />
    <path d="M797.911 341.342H799.539Z" fill="#5B88FF" />
    <path d="M797.911 341.342H799.539" stroke="#000085" />
    <path d="M796.335 346.17H797.911Z" fill="#5B88FF" />
    <path d="M796.335 346.17H797.911" stroke="#000085" />
    <path
        d="M792.305 333.022C788.145 333.022 784.772 329.659 784.772 325.511C784.772 321.363 788.145 318 792.305 318C796.465 318 799.838 321.363 799.838 325.511C799.838 329.659 796.465 333.022 792.305 333.022Z"
        fill="#5B88FF" stroke="#000085" />
    <path
        d="M790.533 333.022C786.373 333.022 783 329.659 783 325.511C783 321.363 786.373 318 790.533 318C794.693 318 798.066 321.363 798.066 325.511C798.066 329.659 794.693 333.022 790.533 333.022Z"
        fill="#5B88FF" stroke="#000085" />
    <path
        d="M790.533 330.371C787.841 330.371 785.659 328.195 785.659 325.511C785.659 322.827 787.841 320.651 790.533 320.651C793.225 320.651 795.407 322.827 795.407 325.511C795.407 328.195 793.225 330.371 790.533 330.371Z"
        fill="#5B88FF" stroke="#000085" />
    <path d="M795.762 319.833H797.39Z" fill="#5B88FF" />
    <path d="M795.762 319.833H797.39" stroke="#000085" />
    <path d="M797.911 325.342H799.539Z" fill="#5B88FF" />
    <path d="M797.911 325.342H799.539" stroke="#000085" />
    <path d="M796.335 330.17H797.911Z" fill="#5B88FF" />
    <path d="M796.335 330.17H797.911" stroke="#000085" />
    <path
        d="M792.305 317.022C788.145 317.022 784.772 313.659 784.772 309.511C784.772 305.363 788.145 302 792.305 302C796.465 302 799.838 305.363 799.838 309.511C799.838 313.659 796.465 317.022 792.305 317.022Z"
        fill="#33DFCC" stroke="#000085" />
    <path
        d="M790.533 317.022C786.373 317.022 783 313.659 783 309.511C783 305.363 786.373 302 790.533 302C794.693 302 798.066 305.363 798.066 309.511C798.066 313.659 794.693 317.022 790.533 317.022Z"
        fill="#33DFCC" stroke="#000085" />
    <path
        d="M790.533 314.371C787.841 314.371 785.659 312.195 785.659 309.511C785.659 306.827 787.841 304.651 790.533 304.651C793.225 304.651 795.407 306.827 795.407 309.511C795.407 312.195 793.225 314.371 790.533 314.371Z"
        fill="#33DFCC" stroke="#000085" />
    <path d="M795.762 303.833H797.39Z" fill="#33DFCC" />
    <path d="M795.762 303.833H797.39" stroke="#000085" />
    <path d="M797.911 309.342H799.539Z" fill="#33DFCC" />
    <path d="M797.911 309.342H799.539" stroke="#000085" />
    <path d="M796.335 314.17H797.911Z" fill="#33DFCC" />
    <path d="M796.335 314.17H797.911" stroke="#000085" />
    <rect x="755" y="394" width="10" height="10" fill="#5B88FF" stroke="#000085" stroke-width="2" />
    <rect x="755" y="410" width="10" height="10" fill="#5B88FF" stroke="#000085" stroke-width="2" />
    <rect x="737" y="292" width="28" height="90" fill="#5B88FF" stroke="#000085" stroke-width="2" />
    <rect x="737" y="292" width="5" height="90" fill="white" stroke="#000085" stroke-width="2" />
    <path
        d="M754.305 381.022C750.145 381.022 746.772 377.659 746.772 373.511C746.772 369.363 750.145 366 754.305 366C758.465 366 761.838 369.363 761.838 373.511C761.838 377.659 758.465 381.022 754.305 381.022Z"
        fill="#5B88FF" stroke="#000085" />
    <path
        d="M752.533 381.022C748.373 381.022 745 377.659 745 373.511C745 369.363 748.373 366 752.533 366C756.693 366 760.066 369.363 760.066 373.511C760.066 377.659 756.693 381.022 752.533 381.022Z"
        fill="#5B88FF" stroke="#000085" />
    <path
        d="M752.533 378.371C749.841 378.371 747.659 376.195 747.659 373.511C747.659 370.827 749.841 368.651 752.533 368.651C755.225 368.651 757.407 370.827 757.407 373.511C757.407 376.195 755.225 378.371 752.533 378.371Z"
        fill="#5B88FF" stroke="#000085" />
    <path d="M757.762 367.833H759.39Z" fill="#5B88FF" />
    <path d="M757.762 367.833H759.39" stroke="#000085" />
    <path d="M759.911 373.342H761.539Z" fill="#5B88FF" />
    <path d="M759.911 373.342H761.539" stroke="#000085" />
    <path d="M758.335 378.17H759.911Z" fill="#5B88FF" />
    <path d="M758.335 378.17H759.911" stroke="#000085" />
    <path
        d="M754.305 365.022C750.145 365.022 746.772 361.659 746.772 357.511C746.772 353.363 750.145 350 754.305 350C758.465 350 761.838 353.363 761.838 357.511C761.838 361.659 758.465 365.022 754.305 365.022Z"
        fill="#5B88FF" stroke="#000085" />
    <path
        d="M752.533 365.022C748.373 365.022 745 361.659 745 357.511C745 353.363 748.373 350 752.533 350C756.693 350 760.066 353.363 760.066 357.511C760.066 361.659 756.693 365.022 752.533 365.022Z"
        fill="#5B88FF" stroke="#000085" />
    <path
        d="M752.533 362.371C749.841 362.371 747.659 360.195 747.659 357.511C747.659 354.827 749.841 352.651 752.533 352.651C755.225 352.651 757.407 354.827 757.407 357.511C757.407 360.195 755.225 362.371 752.533 362.371Z"
        fill="#5B88FF" stroke="#000085" />
    <path d="M757.762 351.833H759.39Z" fill="#5B88FF" />
    <path d="M757.762 351.833H759.39" stroke="#000085" />
    <path d="M759.911 357.342H761.539Z" fill="#5B88FF" />
    <path d="M759.911 357.342H761.539" stroke="#000085" />
    <path d="M758.335 362.17H759.911Z" fill="#5B88FF" />
    <path d="M758.335 362.17H759.911" stroke="#000085" />
    <path opacity="0.2" d="M764 329L747 381H764V329Z" fill="white" />
    <path
        d="M754.305 349.022C750.145 349.022 746.772 345.659 746.772 341.511C746.772 337.363 750.145 334 754.305 334C758.465 334 761.838 337.363 761.838 341.511C761.838 345.659 758.465 349.022 754.305 349.022Z"
        fill="#33DFCC" stroke="#000085" />
    <path
        d="M752.533 349.022C748.373 349.022 745 345.659 745 341.511C745 337.363 748.373 334 752.533 334C756.693 334 760.066 337.363 760.066 341.511C760.066 345.659 756.693 349.022 752.533 349.022Z"
        fill="#33DFCC" stroke="#000085" />
    <path
        d="M752.533 346.371C749.841 346.371 747.659 344.195 747.659 341.511C747.659 338.827 749.841 336.651 752.533 336.651C755.225 336.651 757.407 338.827 757.407 341.511C757.407 344.195 755.225 346.371 752.533 346.371Z"
        fill="#33DFCC" stroke="#000085" />
    <path d="M757.762 335.833H759.39Z" fill="#33DFCC" />
    <path d="M757.762 335.833H759.39" stroke="#000085" />
    <path d="M759.911 341.342H761.539Z" fill="#33DFCC" />
    <path d="M759.911 341.342H761.539" stroke="#000085" />
    <path d="M758.335 346.17H759.911Z" fill="#33DFCC" />
    <path d="M758.335 346.17H759.911" stroke="#000085" />
    <path
        d="M754.305 333.022C750.145 333.022 746.772 329.659 746.772 325.511C746.772 321.363 750.145 318 754.305 318C758.465 318 761.838 321.363 761.838 325.511C761.838 329.659 758.465 333.022 754.305 333.022Z"
        fill="#33DFCC" stroke="#000085" />
    <path
        d="M752.533 333.022C748.373 333.022 745 329.659 745 325.511C745 321.363 748.373 318 752.533 318C756.693 318 760.066 321.363 760.066 325.511C760.066 329.659 756.693 333.022 752.533 333.022Z"
        fill="#33DFCC" stroke="#000085" />
    <path
        d="M752.533 330.371C749.841 330.371 747.659 328.195 747.659 325.511C747.659 322.827 749.841 320.651 752.533 320.651C755.225 320.651 757.407 322.827 757.407 325.511C757.407 328.195 755.225 330.371 752.533 330.371Z"
        fill="#33DFCC" stroke="#000085" />
    <path d="M757.762 319.833H759.39Z" fill="#33DFCC" />
    <path d="M757.762 319.833H759.39" stroke="#000085" />
    <path d="M759.911 325.342H761.539Z" fill="#33DFCC" />
    <path d="M759.911 325.342H761.539" stroke="#000085" />
    <path d="M758.335 330.17H759.911Z" fill="#33DFCC" />
    <path d="M758.335 330.17H759.911" stroke="#000085" />
    <path opacity="0.2" d="M781 347.527L781.07 368L802 313.854V293L781 347.527Z" fill="white" />
    <path opacity="0.5" d="M656.738 414H619.857" stroke="white" stroke-width="4" stroke-linecap="round" />
    <path opacity="0.2" d="M684 398C690.075 398 695 393.075 695 387C695 380.925 690.075 376 684 376" stroke="#407BF7"
        stroke-width="2" stroke-linecap="round" />
    <path
        d="M615.084 376H723V398.078L615.084 397.956C609.92 397.95 605.736 393.035 605.736 386.973C605.736 380.913 609.922 376 615.084 376Z"
        fill="#BBD0EF" fill-opacity="0.5" stroke="#000085" stroke-width="2" />
    <g opacity="0.3">
        <path fill-rule="evenodd" clip-rule="evenodd" d="M718 393H627Z" fill="#BBD0EF" fill-opacity="0.5" />
        <path d="M718 393H627" stroke="#407BF7" stroke-width="4" stroke-linecap="round" />
    </g>
    <g opacity="0.5">
        <path fill-rule="evenodd" clip-rule="evenodd" d="M718 380H688Z" fill="#BBD0EF" fill-opacity="0.5" />
        <path d="M718 380H688" stroke="white" stroke-width="4" stroke-linecap="round" />
    </g>
    <path d="M684 398C677.925 398 673 393.075 673 387C673 380.925 677.925 376 684 376" stroke="#000085" stroke-width="2"
        stroke-linecap="round" />
    <circle cx="617" cy="387" r="11" fill="#000085" />
    <path opacity="0.5" d="M656.738 380H619.857" stroke="white" stroke-width="4" stroke-linecap="round" />
    <path
        d="M283.5 195C289.299 195 294 190.299 294 184.5C294 178.701 289.299 174 283.5 174C277.701 174 273 178.701 273 184.5C273 190.299 277.701 195 283.5 195Z"
        fill="#CBE2FF" stroke="#000085" stroke-width="2" />
    <path
        d="M283.5 191C287.09 191 290 188.09 290 184.5C290 180.91 287.09 178 283.5 178C279.91 178 277 180.91 277 184.5C277 188.09 279.91 191 283.5 191Z"
        fill="#CBE2FF" stroke="#000085" />
    <path
        d="M309.5 195C315.299 195 320 190.299 320 184.5C320 178.701 315.299 174 309.5 174C303.701 174 299 178.701 299 184.5C299 190.299 303.701 195 309.5 195Z"
        fill="#CBE2FF" stroke="#000085" stroke-width="2" />
    <path
        d="M309.5 191C313.09 191 316 188.09 316 184.5C316 180.91 313.09 178 309.5 178C305.91 178 303 180.91 303 184.5C303 188.09 305.91 191 309.5 191Z"
        fill="#CBE2FF" stroke="#000085" />
    <path opacity="0.5" d="M277 342V263" stroke="white" stroke-width="4" stroke-linecap="round" />
    <path d="M479 407C485.075 407 490 402.299 490 396.5C490 390.701 485.075 386 479 386" stroke="#000085"
        stroke-width="2" stroke-linecap="round" />
    <path
        d="M48.3853 272.403C52.5649 276.583 52.5135 283.411 48.2703 287.654C44.0272 291.897 37.1992 291.949 33.0195 287.769"
        stroke="#000085" stroke-width="2" stroke-linecap="round" />
    <rect x="22" y="356" width="4" height="2" fill="white" />
    <rect x="22" y="360" width="2" height="2" fill="white" />
    <rect x="22" y="368" width="2" height="2" fill="white" />
    <rect x="26" y="368" width="2" height="2" fill="white" />
    <rect x="22" y="372" width="2" height="2" fill="white" />
    <rect x="26" y="372" width="2" height="2" fill="white" />
    <rect x="30" y="372" width="2" height="2" fill="white" />
    <rect x="34" y="372" width="4" height="2" fill="white" />
    <rect x="40" y="372" width="4" height="2" fill="white" />
    <rect x="22" y="376" width="2" height="2" fill="white" />
    <rect x="26" y="376" width="2" height="2" fill="white" />
    <rect x="30" y="376" width="4" height="2" fill="white" />
    <rect x="22" y="380" width="2" height="2" fill="white" />
    <rect x="26" y="380" width="2" height="2" fill="white" />
    <rect x="30" y="368" width="5" height="2" fill="white" />
    <rect x="24" y="364" width="2" height="2" fill="white" />
    <rect x="28" y="364" width="2" height="2" fill="white" />
    <rect x="32" y="364" width="6" height="2" fill="white" />
    <rect x="40" y="364" width="6" height="2" fill="white" />
    <rect x="26" y="360" width="2" height="2" fill="white" />
    <rect x="30" y="360" width="2" height="2" fill="white" />
    <rect x="34" y="360" width="2" height="2" fill="white" />
    <rect x="42" y="360" width="2" height="2" fill="white" />
    <rect x="46" y="360" width="3" height="2" fill="white" />
    <rect x="32" y="356" width="4" height="2" fill="white" />
    <rect x="38" y="356" width="2" height="2" fill="white" />
    <rect x="42" y="356" width="2" height="2" fill="white" />
    <rect x="46" y="356" width="3" height="2" fill="white" />
</svg>