<svg width="51" height="50" viewBox="0 0 51 50" fill="none" xmlns="http://www.w3.org/2000/svg">
<circle cx="25.4033" cy="25" r="25" fill="#003CDA"/>
<path d="M10.8627 24.5069L16.8519 26.8772L19.1748 34.7783C19.3221 35.2836 19.9115 35.4673 20.2928 35.1366L23.6298 32.2518C23.9765 31.9486 24.4792 31.9302 24.8432 32.215L30.8671 36.8546C31.2831 37.1761 31.8725 36.9373 31.9765 36.4044L36.3882 13.9047C36.5009 13.3259 35.9635 12.839 35.4435 13.0503L10.854 23.1104C10.2473 23.3584 10.256 24.268 10.8627 24.5069ZM18.8021 25.6185L30.5117 17.9747C30.7197 17.8369 30.9364 18.1401 30.7544 18.3146L21.0902 27.8418C20.7522 28.1726 20.5355 28.6228 20.4662 29.1097L20.1368 31.6913C20.0935 32.0404 19.6341 32.068 19.5474 31.7373L18.282 27.0242C18.1433 26.4913 18.3513 25.9125 18.8021 25.6185Z" fill="white"/>
</svg>
