<svg width="1440" height="561" viewBox="0 0 1448 565" fill="none" xmlns="http://www.w3.org/2000/svg" class="mw-100">
    <g>
        <path d="M724.007 561.163C978.054 561.163 1184 470.688 1184 359.081C1184 247.475 978.054 157 724.007 157C469.96 157 264.014 247.475 264.014 359.081C264.014 470.688 469.96 561.163 724.007 561.163Z" fill="#276BFB" stroke="#000085" stroke-width="2"/>
        <path d="M268.707 387.603C265.614 378.16 264.014 368.504 264.014 358.685C264.014 247.298 469.96 157 724.007 157C978.054 157 1184 247.298 1184 358.685C1184 368.504 1182.4 378.16 1179.31 387.603C1147.32 289.916 955.659 214.836 724.007 214.836C492.354 214.836 300.697 289.916 268.707 387.603L268.707 387.603Z" fill="#BED1F4" stroke="#000085" stroke-width="3"/>
        <path d="M650.121 164.55H651.605V192.73H650.121V164.55Z" fill="#000085"/>
        <path d="M661.997 160.034H663.482V203.43H661.997V160.034Z" fill="#000085"/>
        <path d="M469.011 193.405H470.496V206.754H469.011V193.405Z" fill="#000085"/>
        <path d="M475.691 188.474H477.176V197.854H475.691V188.474Z" fill="#000085"/>
        <path d="M503.897 212.011H505.382V225.359H503.897V212.011Z" fill="#000085"/>
        <path d="M814.902 160.776H816.386V180.057H814.902V160.776Z" fill="#000085"/>
        <path d="M1083.6 234.126H1085.08V282.329H1083.6V234.126Z" fill="#000085"/>
        <path d="M1073.95 227.214H1075.43V250.203H1073.95V227.214Z" fill="#000085"/>
        <path d="M265.005 368.406L264 367.903C264 329.709 283.328 305.11 323.097 276.667L323.962 277.873C284.557 306.055 265.005 330.729 265.005 368.406Z" fill="#000085"/>
        <path d="M329.839 274.946L329.095 273.662L343.198 265.505L343.942 266.788L329.839 274.946Z" fill="#000085"/>
        <path d="M301.79 306.713L300.734 305.671C310.042 296.248 319.229 288.31 328.295 281.857L329.156 283.065C320.163 289.466 311.041 297.349 301.79 306.713Z" fill="#000085"/>
        <path opacity="0.2" d="M1112.28 433.102C1123.83 433.102 1133.2 423.65 1133.2 411.991C1133.2 400.331 1123.83 390.88 1112.28 390.88C1100.72 390.88 1091.35 400.331 1091.35 411.991C1091.35 423.65 1100.72 433.102 1112.28 433.102Z" stroke="#000D6D" stroke-width="2"/>
        <path opacity="0.2" d="M990.393 158.879C1001.64 158.879 1010.76 149.685 1010.76 138.342C1010.76 127 1001.64 117.805 990.393 117.805C979.145 117.805 970.027 127 970.027 138.342C970.027 149.685 979.145 158.879 990.393 158.879Z" stroke="#000D6D" stroke-width="2"/>
        <path opacity="0.2" d="M836.686 45.9169C848.488 45.9169 858.056 36.0629 858.056 23.9075C858.056 11.7521 848.488 1.89819 836.686 1.89819C824.883 1.89819 815.315 11.7521 815.315 23.9075C815.315 36.0629 824.883 45.9169 836.686 45.9169Z" stroke="#000D6D" stroke-width="2"/>
        <path opacity="0.2" d="M644.993 45.6588C656.93 45.6588 666.606 35.9012 666.606 23.8646C666.606 11.8279 656.93 2.07031 644.993 2.07031C633.056 2.07031 623.379 11.8279 623.379 23.8646C623.379 35.9012 633.056 45.6588 644.993 45.6588Z" stroke="#000D6D" stroke-width="2"/>
        <path opacity="0.2" d="M500.763 196.198C512.471 196.198 521.961 186.628 521.961 174.823C521.961 163.018 512.471 153.448 500.763 153.448C489.056 153.448 479.565 163.018 479.565 174.823C479.565 186.628 489.056 196.198 500.763 196.198Z" stroke="#000D6D" stroke-width="2"/>
        <path fill-rule="evenodd" clip-rule="evenodd" d="M522.558 242.804C521.361 232.199 512.435 223.96 501.601 223.96C489.989 223.96 480.569 233.425 480.509 245.125C480.508 245.087 480.508 245.05 480.508 245.012V178.487C480.508 63.5964 537.472 1.89819 652.99 1.89819H841.825C958.418 1.89819 1015.91 64.1691 1015.91 180.129L1015.52 322.212C1015.52 360.27 1046.09 391.061 1083.8 391.061H1179.43L1179.17 391.989C1178.04 396.11 1174.71 402.541 1169.17 411.327C1163.65 420.082 1158.5 427.338 1153.72 433.098L1153.51 433.36H1083.9C1023.16 433.36 973.879 383.665 973.879 322.417L973.482 180.417C973.482 137.064 965.371 105.781 947.397 84.1168C928.135 60.9004 897.167 48.4811 851.854 46.5816H743.828C742.384 46.5816 740.957 46.447 739.558 46.1819L643.084 46.1813C598.162 48.0638 567.483 60.3675 548.4 83.3676C530.594 104.83 522.558 135.822 522.558 178.773V242.804Z" fill="#BBD0EF" fill-opacity="0.5"/>
        <path d="M522.359 243.433L521.72 178.632C521.72 135.681 529.756 104.688 547.562 83.2263C566.645 60.2262 597.647 47.7994 642.569 45.9169M479.671 245.074C479.671 245.036 479.671 244.999 479.671 244.961V178.345C479.671 63.4551 536.845 1.89819 652.364 1.89819H842.028C958.621 1.89819 1014.77 63.8092 1014.77 179.77V322.606C1014.77 360.664 1045.25 390.919 1082.96 390.919H1178.59L1178.34 391.848C1177.2 395.969 1173.87 402.4 1168.33 411.186C1162.81 419.94 1157.66 427.197 1152.88 432.957L1152.67 433.219H1083.07C1022.32 433.219 972.923 383.854 972.923 322.606V179.77C972.923 136.416 964.533 105.639 946.559 83.9756C927.297 60.7591 896.245 47.8164 850.933 45.9169H743.189M743.189 45.9169C709.554 45.9169 676.215 45.7741 642.569 45.9169M743.189 45.9169C709.556 45.9169 676.215 45.7755 642.569 45.9169" stroke="#000085" stroke-width="2"/>
        <path opacity="0.3" d="M788.265 12.6486C786.43 12.5862 784.992 11.0345 785.054 9.18286C785.116 7.3312 786.654 5.8807 788.489 5.94309C834.664 7.51265 860.939 8.62996 867.603 9.31301C898.297 12.4592 923.717 20.4491 944.179 33.2896C948.165 35.7909 951.963 38.4764 955.575 41.3461C992.878 70.9832 1010.22 119.961 1010.22 189.573C1010.22 191.425 1008.73 192.927 1006.89 192.927C1005.06 192.927 1003.57 191.425 1003.57 189.573C1003.57 121.826 986.913 74.7841 951.461 46.6171C948.042 43.9011 944.445 41.3578 940.667 38.9868C921.122 26.7222 896.669 19.0362 866.93 15.9879C860.496 15.3283 834.178 14.2092 788.265 12.6486Z" fill="#000D6D"/>
        <path opacity="0.3" d="M1003.01 203.543C1003.01 201.69 1004.5 200.188 1006.34 200.188C1008.18 200.188 1009.66 201.69 1009.66 203.543V264.279C1009.66 266.132 1008.18 267.633 1006.34 267.633C1004.5 267.633 1003.01 266.132 1003.01 264.279V203.543Z" fill="#000D6D"/>
        <path opacity="0.3" d="M1010.72 334.27C1015.37 367.839 1047.63 395.922 1082.81 395.922H1167.71L1163.63 402.632H1082.81C1043.99 402.632 1008.59 371.548 1004 334.181C1003.67 331.486 1010.35 331.547 1010.72 334.27Z" fill="#000D6D"/>
        <path opacity="0.5" d="M641.785 41.0953L641.923 41.0924C641.9 41.0933 641.877 41.0943 641.854 41.0953H641.785ZM517.056 174.921V225.668C514.977 223.641 513.199 222.166 510.406 220.625V174.921C510.406 83.6554 549.706 38.2418 641.647 34.3889L738.141 34.386C739.66 34.6788 740.897 34.7972 742.149 34.7972H851.638C944.219 38.6741 984.181 85.6956 984.181 178.283L984.59 310.161C984.59 345.224 995.728 373.228 1016.13 392.401C1035.45 410.56 1062.58 420.206 1093.72 420.206H1160.05L1154.23 426.916H1093.72C1060.98 426.916 1032.22 416.69 1011.6 397.311C989.79 376.818 977.939 347.021 977.939 310.168L977.531 178.29C977.531 89.1615 940.226 45.2437 851.569 41.5065H742.149C740.587 41.5065 739.041 41.3682 737.522 41.0953H641.854C553.67 44.812 517.056 87.1442 517.056 174.921Z" fill="white"/>
        <path opacity="0.3" d="M490.372 188.213V215.461C490.372 217.314 488.883 218.816 487.047 218.816C485.21 218.816 483.722 217.314 483.722 215.461V188.213C483.722 138.064 492.367 98.7609 509.761 70.3199C530.93 40.1046 558.779 20.9097 593.298 12.6598C611.044 8.41874 632.432 5.89864 655.816 5.89864C676.913 5.89864 717.174 5.80882 776.597 5.62917C778.433 5.62361 779.926 7.12103 779.932 8.97373C779.937 10.8264 778.453 12.3329 776.617 12.3384C717.187 12.5181 676.921 12.6079 655.816 12.6079C632.948 12.6079 612.075 15.0674 594.831 19.1884C561.933 27.0508 535.485 45.2656 515.366 73.9323C498.738 101.174 490.372 139.262 490.372 188.213Z" fill="#000D6D"/>
        <path opacity="0.2" d="M994.134 322.071C1005.61 322.071 1014.92 312.689 1014.92 301.115C1014.92 289.541 1005.61 280.159 994.134 280.159C982.656 280.159 973.351 289.541 973.351 301.115C973.351 312.689 982.656 322.071 994.134 322.071Z" stroke="#000D6D" stroke-width="2"/>
        <path d="M1015.42 299.826L1014.08 300.287C1014.08 311.397 1005.15 320.404 994.134 320.404C984.039 320.404 975.696 312.845 974.367 303.034C974.246 302.136 973.766 300.287 973.505 295.87L972.52 300.287C972.52 312.324 982.197 322.082 994.134 322.082C1004.24 322.082 1012.72 315.093 1015.09 305.65C1015.52 303.934 1015.42 301.677 1015.42 299.826Z" fill="#000085"/>
        <path d="M1112.17 389.981L1108.27 391.143C1111.06 391.143 1114.36 391.763 1115.41 391.934C1125.05 393.493 1132.41 401.879 1132.41 411.991C1132.41 422.893 1123.85 431.79 1113.11 432.285C1112.8 432.3 1108.59 432.768 1108.27 432.768L1112.17 434C1124.28 434 1134.09 424.146 1134.09 411.991C1134.09 399.835 1124.28 389.981 1112.17 389.981Z" fill="#000085"/>
        <path d="M969.179 141.104L970.438 141.104C970.555 141.543 971.2 143.414 971.342 143.839C974.759 154.01 985.468 159.89 995.897 157.071C1005.8 154.394 1012.03 144.797 1010.85 134.818C1010.74 133.849 1010.77 132.442 1010.51 131.472L1011.9 131.472C1015.05 143.328 1008.08 155.514 996.327 158.691C985.366 161.654 974.121 155.733 970.101 145.303C969.811 144.55 969.391 141.902 969.179 141.104Z" fill="#000085"/>
        <path d="M837.576 46.8154V45.371C848.481 45.371 857.334 35.419 857.334 23.551C857.334 11.6831 848.481 2.07503 837.576 2.07503V1C838.784 1 840.534 1.03143 842.826 1.09428C852.094 3.6305 858.947 12.7279 858.947 23.551C858.947 36.3351 849.386 46.8154 837.576 46.8154Z" fill="#000085"/>
        <path d="M645.407 46.3316V45.2611C656.648 45.2611 665.774 35.6934 665.774 23.8753C665.774 12.0572 656.648 2.48951 645.407 2.48951V1.419C647.616 1.419 649.749 1.15242 651.76 1.78545C660.833 4.64104 667.437 13.455 667.437 23.8753C667.437 34.677 660.341 43.7526 650.754 46.2546C649.043 46.7013 647.252 46.3316 645.407 46.3316Z" fill="#000085"/>
        <path d="M522.005 175.253H520.944C520.944 163.905 511.826 154.706 500.578 154.706C489.33 154.706 480.211 163.905 480.211 175.253H479.15C479.15 172.649 478.992 170.15 479.808 167.828C482.837 159.205 490.992 153.029 500.578 153.029C510.625 153.029 519.101 159.815 521.749 169.091C522.308 171.048 522.005 173.115 522.005 175.253Z" fill="#000085"/>
        <path d="M500.988 267.779C512.791 267.779 522.359 258.126 522.359 246.218C522.359 234.311 512.791 224.658 500.988 224.658C489.186 224.658 479.618 234.311 479.618 246.218C479.618 258.126 489.186 267.779 500.988 267.779Z" fill="#CBE2FF" fill-opacity="0.6" stroke="#000085" stroke-width="2"/>
        <path d="M500.988 264.185C510.824 264.185 518.797 256.141 518.797 246.218C518.797 236.295 510.824 228.251 500.988 228.251C491.153 228.251 483.179 236.295 483.179 246.218C483.179 256.141 491.153 264.185 500.988 264.185Z" stroke="#000085" stroke-width="2"/>
        <path opacity="0.2" d="M258.145 82.1278C246.209 82.1278 236.532 72.3702 236.532 60.3335C236.532 48.2969 246.209 38.5393 258.145 38.5393C270.082 38.5393 279.759 48.2969 279.759 60.3335C279.759 72.3702 270.082 82.1278 258.145 82.1278Z" stroke="#000D6D" stroke-width="2"/>
        <path d="M-130.746 38.4071C-129.07 38.3808 -127.382 38.3672 -125.681 38.3672H250.148C365.666 38.3672 422.629 100.065 422.629 214.956V246.536L422.629 246.649C422.569 234.95 413.148 225.484 401.537 225.484C390.703 225.484 381.777 233.723 380.58 244.328V215.242C380.58 172.291 372.544 141.299 354.738 119.836C335.655 96.8365 304.975 84.5326 260.054 82.6499L163.579 82.6508C162.181 82.9157 160.753 83.0508 159.31 83.0508H-130.746V38.4071Z" fill="#BBD0EF" fill-opacity="0.5"/>
        <path d="M380.779 243.968L381.418 215.101C381.418 172.15 373.382 141.157 355.576 119.695C336.493 96.6952 305.49 84.2684 260.569 82.3859H-179.31L-170.406 38.3672H250.774C366.292 38.3672 423.467 99.9241 423.467 214.814V245.496C423.467 245.534 423.467 245.572 423.467 245.609" stroke="#000085" stroke-width="2"/>
        <path d="M257.73 82.8001V81.7296C246.489 81.7296 237.363 72.1619 237.363 60.3438C237.363 48.5257 246.489 38.958 257.73 38.958V37.8875C255.521 37.8875 253.388 37.6209 251.377 38.254C242.304 41.1095 235.701 49.9235 235.701 60.3438C235.701 71.1455 242.796 80.2211 252.383 82.7231C254.095 83.1698 255.886 82.8001 257.73 82.8001Z" fill="#000085"/>
        <path opacity="0.2" d="M379.784 182.376C377.59 171.211 384.939 160.366 396.198 158.154C407.457 155.943 418.362 163.201 420.556 174.366C422.749 185.532 415.4 196.376 404.141 198.588C392.883 200.8 381.977 193.541 379.784 182.376Z" stroke="#000D6D" stroke-width="2"/>
        <path d="M379.079 182.111L380.08 181.914C378.014 171.4 385.287 161.106 396.341 158.934C407.396 156.762 418.022 163.54 420.088 174.055L421.089 173.858C420.683 171.792 420.54 169.748 419.579 167.983C415.241 160.021 405.783 155.464 396.036 157.379C385.932 159.364 378.747 167.669 378.168 177.095C378.065 178.779 378.74 180.386 379.079 182.111Z" fill="#000085"/>
        <path opacity="0.3" d="M412.766 224.681V228.203C412.766 228.374 413.487 229.363 415.324 229.363C417.16 229.363 419.416 235.987 419.416 234.134V224.681C419.416 174.532 410.771 135.229 393.377 106.788C372.207 76.5726 344.359 57.3778 309.839 49.1278C292.094 44.8868 270.705 42.3667 247.322 42.3667C226.225 42.3667 185.964 42.2768 126.541 42.0972C124.705 42.0916 123.211 43.589 123.206 45.4417C123.2 47.2945 124.685 48.8009 126.521 48.8064C185.951 48.9861 226.216 49.0759 247.322 49.0759C270.189 49.0759 291.063 51.5354 308.306 55.6564C341.204 63.5188 367.652 81.7336 387.771 110.4C404.4 137.642 412.766 175.73 412.766 224.681Z" fill="#000D6D"/>
        <path d="M402.149 268.313C390.346 268.313 380.778 258.661 380.778 246.753C380.778 234.846 390.346 225.193 402.149 225.193C413.952 225.193 423.52 234.846 423.52 246.753C423.52 258.661 413.952 268.313 402.149 268.313Z" fill="#DCEBFF" fill-opacity="0.6" stroke="#000085" stroke-width="2"/>
        <path d="M402.149 264.72C392.313 264.72 384.34 256.676 384.34 246.753C384.34 236.831 392.313 228.787 402.149 228.787C411.985 228.787 419.958 236.831 419.958 246.753C419.958 256.676 411.985 264.72 402.149 264.72Z" stroke="#000085" stroke-width="2"/>
        <path opacity="0.5" d="M87.4127 71.2664H160.989C161.763 71.2664 162.53 71.2217 163.362 71.1182C163.877 71.0541 164.416 70.9673 164.997 70.855L261.491 70.8576C353.432 74.7106 392.732 120.124 392.732 211.39V227.178C389.939 228.72 388.161 230.193 386.082 232.222V211.39C386.082 123.613 349.468 81.2806 261.283 77.5645H165.616C164.097 77.8373 162.551 77.9759 160.989 77.9759H87.4127V71.2664Z" fill="white"/>
        <rect x="-0.909039" y="1.08335" width="1671.21" height="42.7862" transform="matrix(-0.996195 0.0871557 0.0871557 0.996195 1580.38 282.206)" fill="#CBE2FF" stroke="#000085" stroke-width="2"/>
        <rect x="1581.36" y="282.999" width="1671.21" height="32.0375" transform="rotate(175 1581.36 282.999)" fill="white" stroke="#000085" stroke-width="2"/>
        <rect x="1580.19" y="269.614" width="1671.21" height="5.16579" transform="rotate(175 1580.19 269.614)" fill="#DCEBFF" stroke="#000085" stroke-width="2"/>
        <path d="M1160.43 331.62L1082.79 338.412" stroke="#000085" stroke-width="2" stroke-linecap="round" stroke-linejoin="round"/>
        <path d="M1066.73 339.817L1043.98 341.808" stroke="#000085" stroke-width="2" stroke-linecap="round" stroke-linejoin="round"/>
        <path d="M448.681 418.167L395.588 422.812" stroke="#000085" stroke-width="2" stroke-linecap="round" stroke-linejoin="round"/>
        <path fill-rule="evenodd" clip-rule="evenodd" d="M500 371C483.929 371 470.901 358.074 470.901 342.128C470.901 326.183 529.099 326.183 529.099 342.128C529.099 358.074 516.071 371 500 371Z" fill="#276BFB" stroke="#000085" stroke-width="2"/>
        <path d="M500 357.57C483.929 357.57 470.901 350.054 470.901 340.782C470.901 331.51 483.929 323.994 500 323.994C516.071 323.994 529.099 331.51 529.099 340.782C529.099 350.054 516.071 357.57 500 357.57Z" fill="#5B88FF" stroke="#000085" stroke-width="2"/>
        <path d="M500 351.974C487.02 351.974 476.497 346.963 476.497 340.782C476.497 334.601 487.02 329.59 500 329.59C512.98 329.59 523.503 334.601 523.503 340.782C523.503 346.963 512.98 351.974 500 351.974Z" fill="#000085"/>
        <path d="M501.862 348.158C492.982 348.158 485.783 340.959 485.783 332.079C485.783 323.199 492.982 316 501.862 316C510.743 316 517.942 323.199 517.942 332.079C517.942 340.959 510.743 348.158 501.862 348.158Z" fill="#33DFCC" stroke="#000085" stroke-width="2"/>
        <path d="M498.079 348.158C489.199 348.158 482 340.959 482 332.079C482 323.199 489.199 316 498.079 316C506.96 316 514.159 323.199 514.159 332.079C514.159 340.959 506.96 348.158 498.079 348.158Z" fill="#33DFCC" stroke="#000085" stroke-width="2"/>
        <path d="M498.08 342.483C492.334 342.483 487.675 337.825 487.675 332.079C487.675 326.333 492.334 321.675 498.08 321.675C503.826 321.675 508.484 326.333 508.484 332.079C508.484 337.825 503.826 342.483 498.08 342.483Z" fill="#33DFCC" stroke="#000085" stroke-width="2"/>
        <path d="M509.24 319.924H512.716Z" fill="#33DFCC"/>
        <path d="M509.24 319.924H512.716" stroke="#000085" stroke-width="2"/>
        <path d="M513.827 331.717H517.304Z" fill="#33DFCC"/>
        <path d="M513.827 331.717H517.304" stroke="#000085" stroke-width="2"/>
        <path d="M510.464 342.051H513.828Z" fill="#33DFCC"/>
        <path d="M510.464 342.051H513.828" stroke="#000085" stroke-width="2"/>
        <path fill-rule="evenodd" clip-rule="evenodd" d="M402.099 379C386.028 379 373 366.074 373 350.128C373 334.183 431.198 334.183 431.198 350.128C431.198 366.074 418.17 379 402.099 379Z" fill="#276BFB" stroke="#000085" stroke-width="2"/>
        <path d="M402.099 365.57C386.028 365.57 373 358.054 373 348.782C373 339.51 386.028 331.994 402.099 331.994C418.17 331.994 431.198 339.51 431.198 348.782C431.198 358.054 418.17 365.57 402.099 365.57Z" fill="#5B88FF" stroke="#000085" stroke-width="2"/>
        <path d="M402.099 359.974C389.118 359.974 378.595 354.963 378.595 348.782C378.595 342.601 389.118 337.59 402.099 337.59C415.079 337.59 425.602 342.601 425.602 348.782C425.602 354.963 415.079 359.974 402.099 359.974Z" fill="#000085"/>
        <path d="M403.962 356.158C395.081 356.158 387.882 348.959 387.882 340.079C387.882 331.199 395.081 324 403.962 324C412.842 324 420.041 331.199 420.041 340.079C420.041 348.959 412.842 356.158 403.962 356.158Z" fill="#33DFCC" stroke="#000085" stroke-width="2"/>
        <path d="M400.179 356.158C391.298 356.158 384.099 348.959 384.099 340.079C384.099 331.199 391.298 324 400.179 324C409.059 324 416.258 331.199 416.258 340.079C416.258 348.959 409.059 356.158 400.179 356.158Z" fill="#33DFCC" stroke="#000085" stroke-width="2"/>
        <path d="M400.179 350.483C394.433 350.483 389.775 345.825 389.775 340.079C389.775 334.333 394.433 329.675 400.179 329.675C405.925 329.675 410.583 334.333 410.583 340.079C410.583 345.825 405.925 350.483 400.179 350.483Z" fill="#33DFCC" stroke="#000085" stroke-width="2"/>
        <path d="M411.339 327.924H414.815Z" fill="#33DFCC"/>
        <path d="M411.339 327.924H414.815" stroke="#000085" stroke-width="2"/>
        <path d="M415.926 339.717H419.403Z" fill="#33DFCC"/>
        <path d="M415.926 339.717H419.403" stroke="#000085" stroke-width="2"/>
        <path d="M412.564 350.051H415.927Z" fill="#33DFCC"/>
        <path d="M412.564 350.051H415.927" stroke="#000085" stroke-width="2"/>
    </g>
</svg>
