<svg width="376" height="401" viewBox="0 0 376 401" fill="none" xmlns="http://www.w3.org/2000/svg" class="w-100 mw-100 visible-sm mb-sm-20">
    <g>
        <path
            d="M189.063 399.846C301.013 399.846 391.767 359.976 391.767 310.795C391.767 261.614 301.013 221.744 189.063 221.744C77.1125 221.744 -13.6412 261.614 -13.6412 310.795C-13.6412 359.976 77.1125 399.846 189.063 399.846Z"
            fill="#276BFB" stroke="#000085" />
        <path
            d="M-11.5732 323.364C-12.936 319.202 -13.6412 314.947 -13.6412 310.62C-13.6412 261.535 77.1125 221.744 189.063 221.744C301.013 221.744 391.767 261.535 391.767 310.62C391.767 314.947 391.062 319.202 389.699 323.364C375.602 280.316 291.145 247.231 189.063 247.231C86.9811 247.231 2.52374 280.316 -11.5732 323.364L-11.5732 323.364Z"
            fill="#BED1F4" stroke="#000085" />
        <path d="M156.504 225.071H157.158V237.489H156.504V225.071Z" fill="#000085" />
        <path d="M161.737 223.081H162.391V242.204H161.737V223.081Z" fill="#000085" />
        <path d="M76.6946 237.787H77.3488V243.669H76.6946V237.787Z" fill="#000085" />
        <path d="M79.6378 235.614H80.292V239.747H79.6378V235.614Z" fill="#000085" />
        <path d="M92.0676 245.985H92.7217V251.868H92.0676V245.985Z" fill="#000085" />
        <path d="M229.117 223.408H229.771V231.904H229.117V223.408Z" fill="#000085" />
        <path d="M347.522 255.731H348.176V276.972H347.522V255.731Z" fill="#000085" />
        <path d="M343.271 252.685H343.925V262.815H343.271V252.685Z" fill="#000085" />
        <path
            d="M-13.2045 314.904L-13.6475 314.682C-13.6475 297.851 -5.13018 287.011 12.3949 274.477L12.7756 275.009C-4.5886 287.428 -13.2045 298.301 -13.2045 314.904Z"
            fill="#000085" />
        <path d="M15.366 273.719L15.0382 273.153L21.2529 269.559L21.5806 270.124L15.366 273.719Z" fill="#000085" />
        <path
            d="M3.00545 287.718L2.53986 287.259C6.64172 283.106 10.69 279.608 14.6851 276.765L15.0647 277.297C11.1017 280.118 7.08186 283.591 3.00545 287.718Z"
            fill="#000085" />
        <path opacity="0.2"
            d="M360.161 343.413C365.254 343.413 369.382 339.248 369.382 334.11C369.382 328.972 365.254 324.807 360.161 324.807C355.068 324.807 350.94 328.972 350.94 334.11C350.94 339.248 355.068 343.413 360.161 343.413Z"
            stroke="#000D6D" />
        <path opacity="0.2"
            d="M306.451 222.572C311.407 222.572 315.426 218.521 315.426 213.522C315.426 208.524 311.407 204.472 306.451 204.472C301.494 204.472 297.476 208.524 297.476 213.522C297.476 218.521 301.494 222.572 306.451 222.572Z"
            stroke="#000D6D" />
        <path opacity="0.2"
            d="M238.717 172.793C243.918 172.793 248.134 168.451 248.134 163.095C248.134 157.738 243.918 153.396 238.717 153.396C233.516 153.396 229.299 157.738 229.299 163.095C229.299 168.451 233.516 172.793 238.717 172.793Z"
            stroke="#000D6D" />
        <path opacity="0.2"
            d="M154.244 172.68C159.504 172.68 163.768 168.38 163.768 163.076C163.768 157.772 159.504 153.472 154.244 153.472C148.983 153.472 144.719 157.772 144.719 163.076C144.719 168.38 148.983 172.68 154.244 172.68Z"
            stroke="#000D6D" />
        <path opacity="0.2"
            d="M90.6864 239.018C95.8454 239.018 100.028 234.8 100.028 229.598C100.028 224.396 95.8454 220.179 90.6864 220.179C85.5274 220.179 81.3452 224.396 81.3452 229.598C81.3452 234.8 85.5274 239.018 90.6864 239.018Z"
            stroke="#000D6D" />
        <path fill-rule="evenodd" clip-rule="evenodd"
            d="M100.29 259.555C99.7629 254.882 95.8295 251.251 91.0556 251.251C85.9386 251.251 81.7873 255.422 81.7607 260.578C81.7607 260.561 81.7606 260.545 81.7606 260.528V231.213C81.7606 180.584 106.863 153.396 157.768 153.396H240.981C292.36 153.396 317.695 180.837 317.695 231.937L317.525 294.548C317.525 311.319 330.994 324.887 347.613 324.887H389.752L389.64 325.296C389.14 327.112 387.672 329.946 385.231 333.818C382.799 337.676 380.531 340.873 378.424 343.412L378.329 343.527H347.657C320.89 343.527 299.173 321.628 299.173 294.638L298.998 232.063C298.998 212.959 295.424 199.174 287.503 189.627C279.015 179.396 265.369 173.923 245.401 173.086H197.797C197.161 173.086 196.532 173.027 195.916 172.91L153.402 172.91C133.607 173.74 120.087 179.161 111.678 189.297C103.832 198.754 100.29 212.412 100.29 231.339V259.555Z"
            fill="#BBD0EF" fill-opacity="0.5" />
        <path
            d="M100.203 259.832L99.921 231.277C99.921 212.349 103.462 198.692 111.309 189.235C119.718 179.099 133.38 173.623 153.175 172.793M81.3914 260.556C81.3913 260.539 81.3912 260.522 81.3912 260.506V231.15C81.3912 180.522 106.586 153.396 157.492 153.396H241.071C292.449 153.396 317.194 180.678 317.194 231.778V294.721C317.194 311.492 330.625 324.825 347.243 324.825H389.383L389.27 325.234C388.771 327.05 387.302 329.884 384.862 333.756C382.43 337.614 380.161 340.811 378.055 343.349L377.959 343.465H347.288C320.521 343.465 298.752 321.712 298.752 294.721V231.778C298.752 212.674 295.054 199.111 287.134 189.565C278.646 179.334 264.962 173.631 244.994 172.793H197.515M197.515 172.793C182.694 172.793 168.002 172.731 153.175 172.793M197.515 172.793C182.694 172.793 168.002 172.731 153.175 172.793"
            stroke="#000085" />
        <path opacity="0.3"
            d="M217.379 158.133C216.571 158.105 215.937 157.422 215.964 156.606C215.991 155.79 216.669 155.151 217.478 155.178C237.826 155.87 249.404 156.362 252.341 156.663C265.867 158.05 277.068 161.57 286.086 167.229C287.842 168.331 289.516 169.514 291.107 170.779C307.545 183.839 315.187 205.422 315.187 236.098C315.187 236.914 314.531 237.576 313.722 237.576C312.912 237.576 312.256 236.914 312.256 236.098C312.256 206.244 304.917 185.514 289.294 173.102C287.788 171.905 286.203 170.784 284.538 169.739C275.925 164.335 265.149 160.948 252.045 159.604C249.209 159.314 237.612 158.821 217.379 158.133Z"
            fill="#000D6D" />
        <path opacity="0.3"
            d="M312.012 242.254C312.012 241.437 312.668 240.776 313.477 240.776C314.286 240.776 314.942 241.437 314.942 242.254V269.018C314.942 269.835 314.286 270.497 313.477 270.497C312.668 270.497 312.012 269.835 312.012 269.018V242.254Z"
            fill="#000D6D" />
        <path opacity="0.3"
            d="M315.409 299.861C317.455 314.654 331.672 327.029 347.178 327.029H384.591L382.793 329.986H347.178C330.07 329.986 314.47 316.288 312.448 299.822C312.302 298.634 315.243 298.661 315.409 299.861Z"
            fill="#000D6D" />
        <path opacity="0.5"
            d="M152.83 170.669L152.891 170.667C152.881 170.668 152.87 170.668 152.86 170.669H152.83ZM97.8659 229.641V252.004C96.9497 251.111 96.1659 250.461 94.9353 249.782V229.641C94.9353 189.424 112.253 169.411 152.769 167.713L195.291 167.712C195.96 167.841 196.505 167.893 197.057 167.893H245.305C286.103 169.602 303.713 190.323 303.713 231.123L303.893 289.237C303.893 304.688 308.801 317.029 317.792 325.478C326.307 333.48 338.262 337.731 351.985 337.731H381.211L378.647 340.687H351.985C337.555 340.687 324.882 336.181 315.794 327.641C306.184 318.611 300.962 305.48 300.962 289.24L300.782 231.126C300.782 191.85 284.343 172.497 245.275 170.85H197.057C196.369 170.85 195.687 170.789 195.018 170.669H152.86C114 172.307 97.8659 190.961 97.8659 229.641Z"
            fill="white" />
        <path opacity="0.3"
            d="M86.1078 235.498V247.506C86.1078 248.322 85.4518 248.984 84.6425 248.984C83.8333 248.984 83.1772 248.322 83.1772 247.506V235.498C83.1772 213.4 86.9869 196.08 94.652 183.547C103.981 170.232 116.252 161.773 131.464 158.138C139.284 156.269 148.709 155.158 159.014 155.158C168.31 155.158 186.052 155.119 212.238 155.04C213.047 155.037 213.705 155.697 213.707 156.514C213.71 157.33 213.056 157.994 212.247 157.996C186.058 158.075 168.314 158.115 159.014 158.115C148.937 158.115 139.738 159.199 132.14 161.015C117.643 164.479 105.988 172.506 97.1219 185.139C89.7944 197.143 86.1078 213.927 86.1078 235.498Z"
            fill="#000D6D" />
        <path opacity="0.2"
            d="M308.098 294.486C313.155 294.486 317.256 290.352 317.256 285.251C317.256 280.151 313.155 276.017 308.098 276.017C303.04 276.017 298.939 280.151 298.939 285.251C298.939 290.352 303.04 294.486 308.098 294.486Z"
            stroke="#000D6D" />
        <path
            d="M317.48 284.683L316.889 284.887C316.889 289.783 312.953 293.752 308.098 293.752C303.649 293.752 299.973 290.42 299.387 286.097C299.334 285.701 299.122 284.887 299.007 282.94L298.573 284.887C298.573 290.191 302.837 294.491 308.098 294.491C312.549 294.491 316.287 291.411 317.332 287.25C317.521 286.494 317.48 285.499 317.48 284.683Z"
            fill="#000085" />
        <path
            d="M360.113 324.412L358.395 324.923C359.624 324.923 361.077 325.197 361.543 325.272C365.788 325.959 369.031 329.655 369.031 334.11C369.031 338.915 365.261 342.835 360.529 343.054C360.391 343.06 358.535 343.266 358.395 343.266L360.113 343.809C365.449 343.809 369.774 339.467 369.774 334.11C369.774 328.754 365.449 324.412 360.113 324.412Z"
            fill="#000085" />
        <path
            d="M297.102 214.739L297.657 214.739C297.708 214.933 297.993 215.757 298.056 215.944C299.561 220.426 304.28 223.018 308.876 221.775C313.24 220.596 315.986 216.367 315.467 211.969C315.417 211.542 315.429 210.922 315.315 210.495L315.93 210.495C317.317 215.719 314.244 221.089 309.065 222.489C304.235 223.795 299.28 221.186 297.509 216.59C297.381 216.258 297.196 215.091 297.102 214.739Z"
            fill="#000085" />
        <path
            d="M239.109 173.189V172.553C243.915 172.553 247.816 168.167 247.816 162.938C247.816 157.708 243.915 153.474 239.109 153.474V153C239.642 153 240.413 153.014 241.423 153.042C245.507 154.159 248.527 158.168 248.527 162.938C248.527 168.571 244.314 173.189 239.109 173.189Z"
            fill="#000085" />
        <path
            d="M154.426 172.976V172.504C159.38 172.504 163.401 168.288 163.401 163.08C163.401 157.873 159.38 153.656 154.426 153.656V153.185C155.4 153.185 156.339 153.067 157.226 153.346C161.224 154.605 164.134 158.489 164.134 163.08C164.134 167.84 161.007 171.84 156.782 172.942C156.028 173.139 155.239 172.976 154.426 172.976Z"
            fill="#000085" />
        <path
            d="M100.047 229.788H99.5794C99.5794 224.787 95.5612 220.733 90.6045 220.733C85.6478 220.733 81.6297 224.787 81.6297 229.788H81.1621C81.1621 228.64 81.0926 227.539 81.452 226.516C82.7868 222.716 86.3806 219.994 90.6045 219.994C95.032 219.994 98.7672 222.985 99.9341 227.073C100.18 227.935 100.047 228.846 100.047 229.788Z"
            fill="#000085" />
        <path
            d="M90.7852 270.561C95.9863 270.561 100.203 266.307 100.203 261.06C100.203 255.813 95.9863 251.559 90.7852 251.559C85.5841 251.559 81.3679 255.813 81.3679 261.06C81.3679 266.307 85.5841 270.561 90.7852 270.561Z"
            fill="#CBE2FF" fill-opacity="0.6" stroke="#000085" />
        <path
            d="M90.785 268.977C95.1193 268.977 98.6328 265.432 98.6328 261.06C98.6328 256.687 95.1193 253.142 90.785 253.142C86.4508 253.142 82.9373 256.687 82.9373 261.06C82.9373 265.432 86.4508 268.977 90.785 268.977Z"
            stroke="#000085" />
        <path
            d="M-187.6 169.484C-186.861 169.473 -186.117 169.467 -185.368 169.467H-19.752C31.1532 169.467 56.255 196.655 56.255 247.284V261.2L56.2548 261.25C56.2284 256.094 52.0771 251.923 46.9601 251.923C42.1861 251.923 38.2528 255.554 37.7253 260.227V247.41C37.7253 228.483 34.1841 214.825 26.3374 205.367C17.9283 195.232 4.40864 189.81 -15.3867 188.981L-57.9 188.981C-58.5162 189.098 -59.1452 189.157 -59.7813 189.157H-187.6V169.484Z"
            fill="#BBD0EF" fill-opacity="0.5" />
        <path
            d="M37.8129 260.068L38.0946 247.347C38.0946 228.42 34.5535 214.763 26.7067 205.305C18.2977 195.17 4.63583 189.694 -15.1597 188.864H-209L-205.076 169.467H-19.476C31.4292 169.467 56.6244 196.593 56.6244 247.221V260.742C56.6244 260.758 56.6243 260.775 56.6243 260.792"
            stroke="#000085" />
        <path opacity="0.2"
            d="M37.3749 232.927C36.4083 228.007 39.6468 223.228 44.6082 222.253C49.5696 221.278 54.3752 224.477 55.3418 229.397C56.3083 234.317 53.0699 239.096 48.1085 240.071C43.1471 241.046 38.3415 237.847 37.3749 232.927Z"
            stroke="#000D6D" />
        <path
            d="M37.0641 232.81L37.5054 232.723C36.5952 228.09 39.7999 223.553 44.6713 222.596C49.5426 221.639 54.2253 224.626 55.1355 229.26L55.5768 229.173C55.3979 228.262 55.3351 227.362 54.9113 226.584C52.9996 223.075 48.8318 221.067 44.5366 221.911C40.0842 222.786 36.9179 226.445 36.6629 230.599C36.6174 231.341 36.9148 232.049 37.0641 232.81Z"
            fill="#000085" />
        <path opacity="0.3"
            d="M51.9085 251.569V253.121C51.9085 253.196 52.2265 253.632 53.0357 253.632C53.845 253.632 54.8391 256.551 54.8391 255.735V251.569C54.8391 229.47 51.0295 212.15 43.3644 199.617C34.0357 186.302 21.764 177.844 6.55229 174.208C-1.26768 172.339 -10.6928 171.229 -20.9973 171.229C-30.2938 171.229 -48.0356 171.189 -74.2215 171.11C-75.0307 171.108 -75.6887 171.768 -75.6911 172.584C-75.6936 173.4 -75.0395 174.064 -74.2302 174.067C-48.0415 174.146 -30.2977 174.185 -20.9973 174.185C-10.9203 174.185 -1.72182 175.269 5.87676 177.085C20.3738 180.55 32.0285 188.577 40.8944 201.209C48.2219 213.214 51.9085 229.998 51.9085 251.569Z"
            fill="#000D6D" />
        <path
            d="M47.2305 270.797C42.0294 270.797 37.8131 266.543 37.8131 261.296C37.8131 256.049 42.0294 251.795 47.2305 251.795C52.4315 251.795 56.6478 256.049 56.6478 261.296C56.6478 266.543 52.4315 270.797 47.2305 270.797Z"
            fill="#DCEBFF" fill-opacity="0.6" stroke="#000085" />
        <path
            d="M47.2298 269.213C42.8956 269.213 39.3821 265.668 39.3821 261.296C39.3821 256.923 42.8956 253.378 47.2298 253.378C51.5641 253.378 55.0776 256.923 55.0776 261.296C55.0776 265.668 51.5641 269.213 47.2298 269.213Z"
            stroke="#000085" />
        <path opacity="0.5"
            d="M-91.464 183.964H-59.0413C-58.7005 183.964 -58.3621 183.945 -57.9956 183.899C-57.7687 183.871 -57.531 183.832 -57.2752 183.783L-14.7534 183.784C25.7621 185.482 43.0803 205.494 43.0803 245.712V252.67C41.8497 253.349 41.0659 253.998 40.1497 254.892V245.712C40.1497 207.032 24.0153 188.377 -14.8448 186.74H-57.0025C-57.6716 186.86 -58.3531 186.921 -59.0413 186.921H-91.464V183.964Z"
            fill="white" />
        <rect x="-0.454519" y="0.541675" width="736.331" height="18.7358"
            transform="matrix(-0.996195 0.0871557 0.0871557 0.996195 566.325 276.923)" fill="#CBE2FF"
            stroke="#000085" />
        <rect x="566.806" y="277.214" width="736.331" height="13.9992" transform="rotate(175 566.806 277.214)"
            fill="white" stroke="#000085" />
        <rect x="566.29" y="271.316" width="736.331" height="2.15773" transform="rotate(175 566.29 271.316)"
            fill="#DCEBFF" stroke="#000085" />
        <path d="M381.378 298.693L347.168 301.686" stroke="#000085" stroke-linecap="round" stroke-linejoin="round" />
        <path d="M340.09 302.305L330.063 303.183" stroke="#000085" stroke-linecap="round" stroke-linejoin="round" />
        <path d="M67.7343 336.832L44.338 338.879" stroke="#000085" stroke-linecap="round" stroke-linejoin="round" />
        <path fill-rule="evenodd" clip-rule="evenodd"
            d="M90.3502 316.047C83.2682 316.047 77.5272 310.351 77.5272 303.324C77.5272 296.298 103.173 296.298 103.173 303.324C103.173 310.351 97.4322 316.047 90.3502 316.047Z"
            fill="#276BFB" stroke="#000085" />
        <path
            d="M90.3505 310.129C83.2686 310.129 77.5275 306.817 77.5275 302.731C77.5275 298.645 83.2686 295.333 90.3505 295.333C97.4325 295.333 103.174 298.645 103.174 302.731C103.174 306.817 97.4325 310.129 90.3505 310.129Z"
            fill="#5B88FF" stroke="#000085" />
        <path
            d="M90.3507 307.663C84.6306 307.663 79.9936 305.455 79.9936 302.731C79.9936 300.007 84.6306 297.799 90.3507 297.799C96.0707 297.799 100.708 300.007 100.708 302.731C100.708 305.455 96.0707 307.663 90.3507 307.663Z"
            fill="#000085" />
        <path
            d="M91.1719 305.981C87.2586 305.981 84.0862 302.809 84.0862 298.896C84.0862 294.983 87.2586 291.811 91.1719 291.811C95.0852 291.811 98.2575 294.983 98.2575 298.896C98.2575 302.809 95.0852 305.981 91.1719 305.981Z"
            fill="#33DFCC" stroke="#000085" />
        <path
            d="M89.5039 305.981C85.5906 305.981 82.4182 302.809 82.4182 298.896C82.4182 294.983 85.5906 291.81 89.5039 291.81C93.4172 291.81 96.5895 294.983 96.5895 298.896C96.5895 302.809 93.4172 305.981 89.5039 305.981Z"
            fill="#33DFCC" stroke="#000085" />
        <path
            d="M89.5042 303.481C86.972 303.481 84.9193 301.428 84.9193 298.896C84.9193 296.364 86.972 294.311 89.5042 294.311C92.0363 294.311 94.089 296.364 94.089 298.896C94.089 301.428 92.0363 303.481 89.5042 303.481Z"
            fill="#33DFCC" stroke="#000085" />
        <path d="M94.4225 293.54H95.9545Z" fill="#33DFCC" />
        <path d="M94.4225 293.54H95.9545" stroke="#000085" />
        <path d="M96.4439 298.736H97.9758Z" fill="#33DFCC" />
        <path d="M96.4439 298.736H97.9758" stroke="#000085" />
        <path d="M94.9618 303.29H96.4438Z" fill="#33DFCC" />
        <path d="M94.9618 303.29H96.4438" stroke="#000085" />
        <path fill-rule="evenodd" clip-rule="evenodd"
            d="M47.209 319.573C40.1271 319.573 34.386 313.876 34.386 306.85C34.386 299.823 60.0321 299.823 60.0321 306.85C60.0321 313.876 54.291 319.573 47.209 319.573Z"
            fill="#276BFB" stroke="#000085" />
        <path
            d="M47.2088 313.655C40.1268 313.655 34.3857 310.342 34.3857 306.257C34.3857 302.171 40.1268 298.859 47.2088 298.859C54.2908 298.859 60.0319 302.171 60.0319 306.257C60.0319 310.342 54.2908 313.655 47.2088 313.655Z"
            fill="#5B88FF" stroke="#000085" />
        <path
            d="M47.2087 311.189C41.4887 311.189 36.8516 308.98 36.8516 306.257C36.8516 303.533 41.4887 301.325 47.2087 301.325C52.9288 301.325 57.5658 303.533 57.5658 306.257C57.5658 308.98 52.9288 311.189 47.2087 311.189Z"
            fill="#000085" />
        <path
            d="M48.0303 309.508C44.117 309.508 40.9447 306.335 40.9447 302.422C40.9447 298.509 44.117 295.337 48.0303 295.337C51.9436 295.337 55.116 298.509 55.116 302.422C55.116 306.335 51.9436 309.508 48.0303 309.508Z"
            fill="#33DFCC" stroke="#000085" />
        <path
            d="M46.3625 309.507C42.4492 309.507 39.2768 306.334 39.2768 302.421C39.2768 298.508 42.4492 295.336 46.3625 295.336C50.2758 295.336 53.4481 298.508 53.4481 302.421C53.4481 306.334 50.2758 309.507 46.3625 309.507Z"
            fill="#33DFCC" stroke="#000085" />
        <path
            d="M46.3627 307.006C43.8306 307.006 41.7779 304.954 41.7779 302.422C41.7779 299.89 43.8306 297.837 46.3627 297.837C48.8949 297.837 50.9476 299.89 50.9476 302.422C50.9476 304.954 48.8949 307.006 46.3627 307.006Z"
            fill="#33DFCC" stroke="#000085" />
        <path d="M51.2811 297.065H52.813Z" fill="#33DFCC" />
        <path d="M51.2811 297.065H52.813" stroke="#000085" />
        <path d="M53.3025 302.262H54.8344Z" fill="#33DFCC" />
        <path d="M53.3025 302.262H54.8344" stroke="#000085" />
        <path d="M51.8203 306.816H53.3024Z" fill="#33DFCC" />
        <path d="M51.8203 306.816H53.3024" stroke="#000085" />
        <path
            d="M244.02 69.1708L244.02 69.1708L548.5 39.9225V128.459H246.575C231.049 128.459 218.59 116.202 218.59 100.685V97.147C218.59 82.6615 229.6 70.549 244.02 69.1708Z"
            fill="#E1E9F3" stroke="#000085" />
        <path
            d="M246.793 77.533H548.5V128.459H246.575C232.418 128.459 221.165 117.312 221.165 103.161C221.165 89.007 232.639 77.533 246.793 77.533Z"
            fill="#CBE2FF" stroke="#000085" />
        <path
            d="M255.134 82.1682H548.429V125.034L255.134 124.964C239.466 124.964 226.839 122.522 226.839 103.704C226.839 84.8856 239.466 82.1682 255.134 82.1682Z"
            stroke="#000085" stroke-dasharray="241.5 120.75" />
        <path opacity="0.5"
            d="M325.25 78.1739H343.173C347.318 94.4305 347.208 111.573 342.787 127.817H324.749C330.192 111.728 330.329 94.285 325.25 78.1739Z"
            fill="#5B88FF" />
        <path
            d="M245.786 103.342L197.722 55.2774L204.277 48.7218L252.342 96.7864C252.537 96.9816 252.854 96.9816 253.049 96.7864L300.71 49.1253L307.266 55.6809L259.605 103.342C259.409 103.537 259.409 103.854 259.605 104.049L307.266 151.71L300.71 158.266L253.049 110.605C252.854 110.409 252.537 110.409 252.342 110.605L204.681 158.266L198.125 151.71L245.786 104.049C245.982 103.854 245.982 103.537 245.786 103.342Z"
            fill="#CBE2FF" stroke="#000085" stroke-linecap="round" stroke-linejoin="round" />
        <path
            d="M337.586 103.779C337.586 150.774 299.489 188.871 252.494 188.871C205.499 188.871 167.402 150.774 167.402 103.779C167.402 56.7841 205.499 18.6871 252.494 18.6871C299.489 18.6871 337.586 56.7841 337.586 103.779ZM252.494 172.753C290.587 172.753 321.467 141.872 321.467 103.779C321.467 65.686 290.587 34.8055 252.494 34.8055C214.401 34.8055 183.52 65.686 183.52 103.779C183.52 141.872 214.401 172.753 252.494 172.753Z"
            fill="#276BFB" stroke="#000085" />
        <path opacity="0.6" fill-rule="evenodd" clip-rule="evenodd"
            d="M309.649 43.4343C276.302 11.9448 223.208 12.7665 191.841 46.3487C160.473 79.9309 163.002 133.518 196.349 165.107C229.696 196.597 282.042 194.903 313.41 161.321C344.679 127.739 342.996 75.0235 309.649 43.4343ZM195.45 160.299C163.196 129.818 161.566 78.8221 191.841 46.3487C222.115 13.8754 272.766 12.2341 305.02 42.7145C337.273 73.1949 338.903 124.191 308.629 156.664C278.355 189.138 227.704 190.779 195.45 160.299Z"
            fill="#265ED4" />
        <path d="M252.494 172.823V179.671" stroke="#000085" />
        <path d="M255.632 172.823V177.388" stroke="#000085" />
        <path d="M249.356 24.4638V34.7349" stroke="#000085" />
        <path d="M257.915 18.7577V22.752" stroke="#000085" />
        <path d="M252.209 30.1699V34.7349" stroke="#000085" />
        <path
            d="M270.12 101.75C270.12 92.1557 262.342 84.3781 252.748 84.3781C243.154 84.3781 235.376 92.1557 235.376 101.75C235.376 111.344 243.154 119.122 252.748 119.122C262.342 119.122 270.12 111.344 270.12 101.75Z"
            fill="white" stroke="#000085" />
        <path
            d="M270.12 104.578C270.12 94.984 262.342 87.2064 252.748 87.2064C243.154 87.2064 235.376 94.984 235.376 104.578C235.376 114.172 243.154 121.95 252.748 121.95C262.342 121.95 270.12 114.172 270.12 104.578Z"
            fill="#BED1F4" stroke="#000085" />
        <path
            d="M245.818 95.7904H249.812V87.5661C248.922 87.7193 247.875 88.0446 247.529 88.1367C246.316 88.4603 245.818 88.6135 245.818 88.7073C245.818 88.9527 245.818 91.1599 245.818 95.7904Z"
            fill="#276BFB" stroke="#000085" />
        <path
            d="M255.518 102.067V107.203H249.812V103.208H245.818V111.197H259.512V98.0729H236.688C236.037 99.2617 235.852 100.773 235.547 102.067H255.518Z"
            fill="#276BFB" stroke="#000085" />
    </g>
</svg>