<svg width="51" height="50" viewBox="0 0 51 50" fill="none" xmlns="http://www.w3.org/2000/svg">
<circle cx="25.4033" cy="25" r="25" fill="#003CDA"/>
<path fill-rule="evenodd" clip-rule="evenodd" d="M39.4033 17.6043C38.4468 18.046 37.4187 18.3446 36.3396 18.4789C37.4409 17.7915 38.2868 16.7031 38.6851 15.4061C37.6543 16.0426 36.5127 16.5048 35.2976 16.7538C34.3247 15.6744 32.9383 15 31.4041 15C28.4583 15 26.0699 17.4867 26.0699 20.5538C26.0699 20.9891 26.1171 21.413 26.208 21.8196C21.7748 21.5879 17.8443 19.3768 15.2134 16.0165C14.7541 16.8368 14.4911 17.7908 14.4911 18.8088C14.4911 20.7357 15.4329 22.4356 16.8642 23.4316C15.9897 23.4027 15.1673 23.1528 14.4481 22.7369C14.4476 22.7601 14.4476 22.7833 14.4476 22.8067C14.4476 25.4976 16.2864 27.7422 18.7265 28.2527C18.2789 28.3795 17.8077 28.4475 17.3212 28.4475C16.9775 28.4475 16.6433 28.4126 16.3176 28.3479C16.9964 30.5543 18.9663 32.16 21.3006 32.2047C19.4749 33.6943 17.175 34.5824 14.6757 34.5824C14.2451 34.5824 13.8206 34.5559 13.4033 34.5047C15.764 36.0805 18.5678 37 21.5802 37C31.3917 37 36.7571 28.5371 36.7571 21.1978C36.7571 20.957 36.7519 20.7175 36.7416 20.4793C37.7839 19.6962 38.6882 18.718 39.4033 17.6043Z" fill="white"/>
</svg>
