<svg width="68" height="68" viewBox="0 0 68 68" fill="none" xmlns="http://www.w3.org/2000/svg">
<path d="M41.5859 32.685C43.3682 31.7203 44.4833 30.0215 44.2228 27.1912C43.8721 23.3233 40.7286 22.0264 36.7605 21.657L36.7598 16.292H33.6853L33.6845 21.516C32.8755 21.516 32.0509 21.5328 31.23 21.5503L31.2294 16.2927L28.1576 16.2924L28.1571 21.6561C27.4914 21.6705 26.8376 21.6843 26.1992 21.6843V21.6684L21.9585 21.6665L21.9591 25.1539C21.9591 25.1539 24.2296 25.1085 24.1922 25.1525C25.437 25.1535 25.8434 25.9215 25.9604 26.5844L25.9613 32.6963V41.2815C25.9065 41.6975 25.6758 42.3623 24.8054 42.3635C24.845 42.4005 22.5689 42.3631 22.5689 42.3631L21.9591 46.2626H25.9594C26.7048 46.2636 27.4372 46.2759 28.1557 46.282L28.1584 51.7077L31.2294 51.7087L31.2285 46.3398C32.0734 46.3581 32.8889 46.3661 33.6855 46.3649L33.6846 51.7087H36.7591L36.7608 46.292C41.9287 45.9766 45.5466 44.5935 45.9964 39.4373C46.3589 35.2861 44.52 33.4331 41.5859 32.685ZM31.3035 25.3893C33.0375 25.3893 38.4908 24.8026 38.4916 28.6509C38.4908 32.3403 33.0392 31.9093 31.3035 31.9093V25.3893ZM31.3021 42.39L31.3035 35.201C33.3868 35.2003 39.9213 34.564 39.9221 38.7938C39.923 42.8502 33.3868 42.3883 31.3021 42.39Z" fill="#0D9991"/>
<path fill-rule="evenodd" clip-rule="evenodd" d="M34 3.625C17.2243 3.625 3.625 17.2243 3.625 34C3.625 50.7756 17.2243 64.375 34 64.375C50.7756 64.375 64.375 50.7756 64.375 34C64.375 17.2243 50.7756 3.625 34 3.625ZM0.625 34C0.625 15.5675 15.5675 0.625 34 0.625C52.4325 0.625 67.375 15.5675 67.375 34C67.375 52.4325 52.4325 67.375 34 67.375C15.5675 67.375 0.625 52.4325 0.625 34Z" fill="#0D9991"/>
<path d="M16.241 16.1094C20.7975 11.5864 27.0723 8.79199 33.9998 8.79199C40.936 8.79199 47.2179 11.5934 51.7757 16.1264L53.2111 14.7332C48.2896 9.82589 41.499 6.79199 33.9998 6.79199C26.5058 6.79199 19.7193 9.82177 14.7986 14.7232L16.241 16.1094Z" fill="#0D9991"/>
<path d="M13.6297 19.1476L12.1753 17.7499C8.79346 22.2845 6.7915 27.9086 6.7915 34.0003C6.7915 41.1801 9.57243 47.7103 14.1159 52.5726L15.5536 51.1818C11.3583 46.6796 8.7915 40.6397 8.7915 34.0003C8.7915 28.447 10.5872 23.3131 13.6297 19.1476Z" fill="#0D9991"/>
<path d="M18.5086 53.8885L17.058 55.2918C21.7063 58.9953 27.5946 61.2087 33.9998 61.2087C40.4253 61.2087 46.3305 58.9814 50.9855 55.2567L49.5354 53.8538C45.2542 57.2086 39.8606 59.2087 33.9998 59.2087C28.1593 59.2087 22.7827 57.2224 18.5086 53.8885Z" fill="#0D9991"/>
<path d="M52.484 51.1409L53.9218 52.5318C58.4427 47.6738 61.2082 41.16 61.2082 34.0003C61.2082 27.9141 59.2098 22.2946 55.8335 17.7622L54.385 19.1681C57.4184 23.33 59.2082 28.4561 59.2082 34.0003C59.2082 40.6196 56.6569 46.6431 52.484 51.1409Z" fill="#0D9991"/>
</svg>
