<svg width="424" height="300" viewBox="0 0 424 300" fill="none" xmlns="http://www.w3.org/2000/svg" class="svg-absolute t-240 right hidden-sm">
    <mask id="mask0" mask-type="alpha" maskUnits="userSpaceOnUse" x="0" y="0" width="424" height="300">
        <rect width="424" height="300" fill="#C4C4C4"/>
    </mask>
    <g mask="url(#mask0)">
        <path d="M135.534 89.3452L135.534 89.3452L669 38.1007V193H140C112.858 193 91.0801 171.574 91.0801 144.451V138.25C91.0801 112.928 110.327 91.7544 135.534 89.3452Z" fill="#E1E9F3" stroke="#000085" stroke-width="2"/>
        <path d="M140.382 104H669V193H140C115.258 193 95.5928 173.521 95.5928 148.79C95.5928 124.053 115.646 104 140.382 104Z" fill="#CBE2FF" stroke="#000085" stroke-width="2"/>
        <path d="M155 112H669V187.122L155 187C127.541 187 105.412 182.72 105.412 149.741C105.412 116.762 127.541 112 155 112Z" stroke="#000085" stroke-width="2" stroke-dasharray="241.5 120.75"/>
        <path opacity="0.5" d="M277.877 105H309.288C316.552 133.49 316.36 163.532 308.612 192H277C286.539 163.803 286.78 133.235 277.877 105Z" fill="#5B88FF"/>
    </g>
    <g id="big-wheel">
        <path d="M138.706 149.019L54.5599 64.8736L65.8736 53.5599L150.019 137.706C150.41 138.096 151.043 138.096 151.434 137.706L234.872 54.267L246.186 65.5807L162.747 149.019C162.357 149.41 162.357 150.043 162.747 150.434L246.186 233.872L234.872 245.186L151.434 161.747C151.043 161.357 150.41 161.357 150.019 161.747L66.5807 245.186L55.267 233.872L138.706 150.434C139.096 150.043 139.096 149.41 138.706 149.019Z" fill="#CBE2FF" stroke="#000085" stroke-width="2" stroke-linecap="round" stroke-linejoin="round"/>
        <path d="M299.373 149.873C299.373 232.163 232.663 298.873 150.373 298.873C68.0826 298.873 1.37305 232.163 1.37305 149.873C1.37305 67.5824 68.0826 0.872864 150.373 0.872864C232.663 0.872864 299.373 67.5824 299.373 149.873ZM150.373 270.873C217.2 270.873 271.373 216.699 271.373 149.873C271.373 83.0464 217.2 28.8729 150.373 28.8729C83.5466 28.8729 29.373 83.0464 29.373 149.873C29.373 216.699 83.5466 270.873 150.373 270.873Z" fill="#276BFB" stroke="#000085" stroke-width="2"/>
        <path d="M150.373 270.873V282.873" stroke="#000085" stroke-width="2"/>
        <path d="M155.873 270.873V278.873" stroke="#000085"/>
        <path d="M144.873 10.8729V28.8729" stroke="#000085"/>
        <path d="M159.873 0.872864V7.87286" stroke="#000085"/>
        <path d="M149.873 20.8729V28.8729" stroke="#000085"/>
    </g>
    <g>    
        <path opacity="0.6" fill-rule="evenodd" clip-rule="evenodd" d="M250.538 44.1187C192.098 -11.0667 99.0504 -9.6266 44.0781 49.2262C-10.8942 108.079 -6.46164 201.991 51.9789 257.351C110.419 312.536 202.156 309.567 257.128 250.715C311.927 191.862 308.979 99.4787 250.538 44.1187ZM50.4039 248.923C-6.12068 195.506 -8.97752 106.136 44.0781 49.2262C97.1337 -7.68341 185.9 -10.5597 242.424 42.8572C298.949 96.2742 301.806 185.645 248.75 242.554C195.695 299.464 106.929 302.34 50.4039 248.923Z" fill="#265ED4"/>
        <path d="M181.261 146.317C181.261 129.503 167.631 115.873 150.817 115.873C134.003 115.873 120.373 129.503 120.373 146.317C120.373 163.131 134.003 176.761 150.817 176.761C167.631 176.761 181.261 163.131 181.261 146.317Z" fill="white" stroke="#000085" stroke-width="2"/>
        <path d="M181.261 151.274C181.261 134.46 167.631 120.829 150.817 120.829C134.003 120.829 120.373 134.46 120.373 151.274C120.373 168.087 134.003 181.718 150.817 181.718C167.631 181.718 181.261 168.087 181.261 151.274Z" fill="#BED1F4" stroke="#000085" stroke-width="2"/>
        <path d="M138.672 135.873H145.672V121.46C144.113 121.728 142.277 122.298 141.672 122.46C139.546 123.027 138.672 123.295 138.672 123.46C138.672 123.89 138.672 127.758 138.672 135.873Z" fill="#276BFB" stroke="#000085" stroke-width="2"/>
        <path d="M155.672 146.873V155.873H145.672V148.873H138.672V162.873H162.672V139.873H122.672C121.531 141.956 121.207 144.605 120.672 146.873H155.672Z" fill="#276BFB" stroke="#000085" stroke-width="2"/>
    </g>
</svg>
