<svg width="208" height="70" viewBox="0 0 208 70" fill="none" xmlns="http://www.w3.org/2000/svg">
    <g clip-path="">
        <path d="M116.229 59.6806C122.581 60.5634 126.523 59.3864 129.517 56.3703C131.415 54.4576 132.875 52.2507 134.116 49.8967C139.227 40.4071 151.638 17.529 151.638 17.529H142.731L133.459 36.2876L130.539 17.529H121.048V17.9704C121.048 17.9704 124.26 35.1106 125.866 43.9381C126.085 45.2623 126.377 48.6462 124.041 50.7795C122.727 52.0301 120.829 52.9864 117.543 52.4714L116.229 59.6806V59.6806ZM109.147 17.529L100.532 37.2439L100.313 37.1703L99.1452 18.044H89.7272L80.6012 37.2439L80.3821 37.0968L80.0171 17.529H71.0371L72.7893 48.9404H82.4994L91.9174 28.4899H92.1364L93.5966 48.9404H103.38L117.543 17.529H109.147ZM160.983 48.9404H151.565C153.682 38.3474 155.653 28.1221 157.771 17.529H165.072V23.3405C166.021 20.9865 167.408 18.7061 169.671 17.7497C171.861 16.7934 175.293 16.867 178.797 17.8969C177.41 20.6187 176.388 22.9727 174.855 25.9152C173.54 25.621 172.299 25.3267 171.058 25.1796C168.284 24.8853 166.313 25.9888 165.364 28.637C164.706 30.4761 164.268 32.4623 163.903 34.375C162.881 39.2301 162.005 44.0853 160.983 48.9404V48.9404ZM191.135 25.0325C192.45 23.4141 194.932 22.4578 196.684 23.0463C198.874 23.7083 199.604 26.2095 198.071 27.9014C197.56 28.4899 196.83 28.9313 196.1 29.2255C193.837 30.1083 191.5 30.0347 189.018 29.5934C189.383 27.8278 190.04 26.3566 191.135 25.0325V25.0325ZM203.182 41.1427H202.89C199.312 42.5404 195.297 42.9083 192.523 42.0991C189.456 41.2163 187.704 38.568 188.288 35.552C197.341 36.2876 201.21 34.5956 203.328 33.3451C208.949 29.9612 210.337 20.9129 203.036 18.2647C196.611 15.9107 187.631 17.0141 183.397 22.1635C179.527 26.8715 178.432 32.0209 179.016 37.8324C179.454 42.1726 182.374 48.3519 192.011 49.3818C197.852 49.9703 201.576 48.4255 201.868 48.3519L203.182 41.1427V41.1427Z" fill="white"/>
        <path d="M42.5637 0.0214844H21.1723C16.9379 0.0214844 13.1415 2.59618 11.5353 6.56858L0 35.0374H21.3914C25.6258 35.0374 29.4223 32.4627 31.0284 28.4903L42.5637 0.0214844Z" fill="white"/>
        <path d="M49.5669 17.7234L36.7231 34.1547C34.7518 36.8029 31.7585 38.4949 28.2541 38.4949H12.7749L7.08179 52.5454H28.4732C32.7076 52.5454 36.504 49.9707 38.1102 45.9983L49.5669 17.7234Z" fill="white"/>
        <path d="M45.265 63.5063L56.8003 35.0374L43.8048 51.6627C41.8336 54.3109 38.8403 56.0029 35.3359 56.0029H19.9297L14.2366 70.0534H35.628C39.8624 70.0534 43.6588 67.4787 45.265 63.5063Z" fill="white"/>
    </g>
    <defs>
        <clipPath id="clip0">
            <rect width="208" height="70" fill="white"/>
        </clipPath>
    </defs>
</svg>
