<svg width="252" height="66" viewBox="0 0 252 66" fill="none" xmlns="http://www.w3.org/2000/svg">
<path d="M22.899 37.3238C21.9448 38.7295 20.99 40.1348 20.0346 41.5397C19.9729 41.6268 20.0346 41.6138 20.0346 41.6138H29.3429C29.4072 41.6138 29.4689 41.6372 29.5148 41.6801L33.7635 45.5216C33.8147 45.5684 33.8435 45.6334 33.8435 45.7036C33.8435 45.8401 33.7307 45.9506 33.5916 45.9506H12.7483C12.5602 45.9458 12.381 45.8703 12.247 45.7395C12.113 45.6086 12.0342 45.4322 12.0266 45.246C12.0266 45.246 11.8954 44.6324 12.2156 44.115C12.2812 44.024 14.378 40.9963 16.9065 37.3472L22.899 37.3238V37.3238ZM22.8924 28.7074L25.8014 24.5084C25.9103 24.3498 25.8014 24.3589 25.8014 24.3589L20.0779 24.3355H16.1808C16.1126 24.3355 16.0483 24.3095 16.0011 24.2627L12.1014 20.4212C12.0665 20.3864 12.0428 20.3422 12.0334 20.294C12.024 20.2458 12.0292 20.196 12.0485 20.1508C12.0678 20.1056 12.1002 20.0672 12.1417 20.0403C12.1831 20.0134 12.2317 19.9994 12.2812 20H33.1232C33.5037 20 33.8448 20.3328 33.8448 20.7033C33.8448 20.7033 33.9026 21.0829 33.6716 21.4391C33.5653 21.6055 31.3439 24.8802 28.7249 28.7412L22.8911 28.7074H22.8924ZM113.431 36.9325L118.602 45.6295C118.701 45.7946 118.576 46 118.379 46H113.808C113.763 46.0002 113.719 45.9889 113.68 45.9673C113.641 45.9456 113.608 45.9144 113.585 45.8765L106.054 33.3679C105.955 33.2015 106.081 32.9948 106.28 32.9961L109.845 33.0247C111.06 33.0247 112.106 32.6022 112.984 31.7598C113.418 31.3714 113.763 30.8954 113.996 30.3637C114.229 29.832 114.344 29.257 114.334 28.6775C114.334 27.5101 113.896 26.5052 112.982 25.6615C112.571 25.2534 112.082 24.9311 111.543 24.7136C111.004 24.4961 110.427 24.3879 109.845 24.3953H100.937C100.583 24.3953 100.349 23.9312 100.349 23.9312C100.333 23.9168 100.32 23.9001 100.308 23.8818L98.2209 20.4212C98.1225 20.2561 98.2458 20.0494 98.4439 20.0494H109.845C112.309 20.0494 114.435 20.8918 116.191 22.5792C117.946 24.2978 118.823 26.3102 118.823 28.6775C118.823 30.4936 118.318 32.116 117.236 33.5759C116.25 34.9539 115.021 35.9549 113.553 36.5815C113.52 36.5946 113.491 36.6146 113.466 36.6402C113.442 36.6657 113.423 36.6961 113.411 36.7294C113.4 36.7627 113.396 36.798 113.399 36.8331C113.402 36.8681 113.413 36.902 113.431 36.9325V36.9325ZM147.876 41.0223L143.579 44.7962C143.403 44.9509 143.101 44.8417 143.101 44.6246V20.3406C143.101 20.1248 143.402 20.0156 143.577 20.169L147.873 23.887C147.926 23.9325 147.957 23.9936 147.957 24.0586V40.8507C147.957 40.9157 147.927 40.9768 147.876 41.0223V41.0223ZM175.628 26.9264C173.894 28.6138 173.06 30.6574 173.06 33.0247C173.06 35.392 173.894 37.4681 175.628 39.1555C177.361 40.8429 179.496 41.6528 181.93 41.6528C184.364 41.6528 186.465 40.8429 188.198 39.1568C189.964 37.4356 190.799 35.392 190.799 33.0247C190.799 30.6561 189.931 28.6138 188.198 26.9264C186.465 25.239 184.364 24.3953 181.93 24.3953C179.496 24.3953 177.395 25.2065 175.628 26.9264V26.9264ZM191.331 23.8766C193.966 26.4064 195.299 29.4562 195.299 33.0247C195.299 36.6257 193.966 39.6742 191.331 42.1728C188.731 44.7026 185.63 46 181.93 46C178.23 46 175.128 44.7026 172.527 42.1728C169.927 39.6417 168.593 36.6257 168.593 33.0247C168.593 29.4562 169.927 26.4077 172.527 23.8766C175.095 21.3468 178.228 20.0494 181.93 20.0494C185.63 20.0494 188.731 21.3468 191.331 23.8766V23.8766ZM238.749 20.0494C238.888 20.0494 239 20.1599 239 20.2964V46L217.234 26.6755C217.208 26.6524 217.187 26.6239 217.172 26.5921C217.158 26.5603 217.15 26.5258 217.15 26.4909V20.6058C217.15 20.3913 217.409 20.2782 217.57 20.4212L234.211 35.2152C234.373 35.3582 234.631 35.2451 234.631 35.0293V20.299C234.63 20.2664 234.637 20.234 234.649 20.2038C234.662 20.1736 234.68 20.1462 234.704 20.1231C234.727 20.1 234.755 20.0817 234.785 20.0693C234.816 20.0569 234.848 20.0505 234.881 20.0507H238.749V20.0494ZM62.7735 41.6528H76.0759C76.2203 41.6528 76.3357 41.7646 76.3357 41.9011V45.7517C76.3344 45.8187 76.3063 45.8824 76.2576 45.9289C76.2089 45.9755 76.1436 46.001 76.0759 46H58.3883C58.244 46 58.1272 45.8895 58.1272 45.7517C58.1272 45.6828 58.1574 45.6165 58.2112 45.5697L62.5964 41.7191C62.6455 41.6768 62.7084 41.6537 62.7735 41.6541V41.6528ZM62.5504 30.8836H72.6762C72.8205 30.8836 72.9386 30.9954 72.9386 31.1306V34.95C72.9386 35.0865 72.8205 35.197 72.6762 35.197H62.5504H62.6751V30.8849H62.5504V30.8836ZM76.3344 20.299V24.147C76.3344 24.2835 76.2177 24.394 76.0746 24.394H62.7801C62.7113 24.3941 62.6451 24.368 62.5951 24.3212L58.5681 20.4719C58.4054 20.3159 58.5209 20.0494 58.7531 20.0494H76.0733C76.2177 20.0494 76.3357 20.1599 76.3357 20.2964L76.3344 20.299Z" fill="#343992"/>
</svg>
