<svg width="47" height="47" viewBox="0 0 47 47" fill="none" xmlns="http://www.w3.org/2000/svg">
<path d="M36.3212 31.6304C38.0199 33.9098 39.7718 36.2422 41.5237 38.5746C38.0199 42.7093 33.6668 45.3598 28.4112 46.4729C22.5717 47.6922 17.0507 46.791 11.6889 43.8225C16.4667 40.2709 21.1383 36.7723 25.8631 33.2737C26.9248 34.2808 27.9334 35.288 28.9421 36.2422C30.0569 37.3024 29.6322 37.3554 31.0656 36.5602C33.0298 35.447 34.6755 33.9098 35.9496 32.0544C36.0026 31.9484 36.1088 31.8424 36.1619 31.7364C36.1088 31.7364 36.1619 31.7364 36.3212 31.6304ZM15.4581 36.2952C14.1309 37.3024 12.9099 38.2035 11.6889 39.1577C10.7864 39.8468 9.88394 40.4829 8.98147 41.172C8.60986 41.4901 8.34442 41.4901 7.91973 41.119C3.88513 37.5144 1.33697 33.0616 0.381407 27.7607C-0.574155 22.4068 0.275234 17.3179 2.8234 12.4941C2.87649 12.388 2.98266 12.229 3.03575 12.123C3.03575 12.07 3.08883 12.07 3.19501 12.017C6.69873 16.6288 10.2555 21.2406 13.7593 25.8524C13.6531 26.0114 13.6 26.1174 13.4938 26.2234C12.4321 27.3366 11.3704 28.4498 10.2556 29.51C9.93703 29.8281 9.88394 30.0931 10.0963 30.4642C11.2111 32.5845 12.7506 34.3338 14.6618 35.7651C14.9272 35.9241 15.1395 36.0831 15.4581 36.2952ZM35.2594 3.37647C33.5606 4.59568 31.8619 5.81489 30.1631 6.98109C27.2433 9.04845 24.3235 11.1688 21.4569 13.2362C21.0853 13.5012 20.8198 13.5542 20.5013 13.1832C19.5457 12.176 18.5371 11.2748 17.5815 10.2677C17.3161 10.0026 17.0507 9.94961 16.6791 10.1086C14.3963 11.2748 12.5914 12.9181 11.1049 14.9855C10.9988 15.0915 10.8926 15.2505 10.7864 15.4096C9.93703 14.2964 9.14073 13.2892 8.34442 12.229C7.49504 11.1158 6.69873 10.0026 5.90243 8.94244C5.637 8.57137 5.58391 8.30632 5.95552 7.93526C10.0432 3.42948 15.0864 0.779018 21.1383 0.142908C25.9162 -0.387184 30.4816 0.566981 34.7286 2.84638C34.8878 2.9524 35.0471 3.0054 35.2063 3.11142C35.2063 3.27045 35.2063 3.32346 35.2594 3.37647ZM43.9126 35.182C42.7977 33.7507 41.7891 32.4255 40.7804 31.1003C38.4446 28.0257 36.1088 24.8982 33.7199 21.8237C33.4014 21.3996 33.4014 21.1346 33.773 20.7635C34.7816 19.7563 35.7372 18.7491 36.7459 17.742C37.0113 17.4769 37.1175 17.2119 36.9051 16.8408C35.7372 14.6144 34.1446 12.7591 32.0742 11.2748C31.915 11.1688 31.7557 11.0098 31.5433 10.9038C31.7026 10.7447 31.8619 10.6387 31.968 10.5327C33.9853 8.99544 36.0026 7.51119 38.0199 5.97392C38.3385 5.70887 38.6039 5.60285 38.9755 5.97392C44.0187 10.5327 46.7262 16.2047 46.9916 23.0429C47.0978 27.0186 46.1953 30.7822 44.3903 34.3338C44.2311 34.5459 44.0718 34.8109 43.9126 35.182Z" fill="#0D9991"/>
</svg>
