<?xml version="1.0" standalone="no"?>
<!DOCTYPE svg PUBLIC "-//W3C//DTD SVG 20010904//EN"
 "http://www.w3.org/TR/2001/REC-SVG-20010904/DTD/svg10.dtd">
<svg version="1.0" xmlns="http://www.w3.org/2000/svg"
 width="700.000000pt" height="700.000000pt" viewBox="0 0 700.000000 700.000000"
 preserveAspectRatio="xMidYMid meet">
<metadata>
Created by potrace 1.11, written by Peter Selinger 2001-2013
</metadata>
<g transform="translate(0.000000,700.000000) scale(0.100000,-0.100000)"
fill="#000000" stroke="none">
<path d="M986 6984 c-432 -78 -790 -390 -930 -809 -54 -160 -56 -195 -56 -876
l0 -629 718 0 c394 0 1456 -3 2360 -7 l1642 -6 0 -1224 0 -1223 -1235 0 -1235
0 0 685 0 685 345 0 345 0 0 -335 0 -335 545 0 545 0 0 535 0 535 -2015 0
-2016 0 4 -1477 3 -1478 22 -88 c88 -356 313 -641 632 -802 90 -45 128 -60
245 -92 l90 -26 1465 -8 c806 -5 1917 -8 2470 -6 1000 3 1005 3 1105 26 425
95 759 394 895 799 64 191 60 26 60 2677 0 2654 4 2486 -61 2679 -79 238 -250
464 -457 607 -99 69 -261 144 -379 177 l-98 27 -1527 3 -1528 2 0 -965 0 -965
-345 0 -345 0 0 965 0 965 -592 -1 c-467 -1 -610 -4 -672 -15z"/>
</g>
</svg>
