<svg width="271" height="271" viewBox="0 0 271 271" fill="none" xmlns="http://www.w3.org/2000/svg">
<path d="M255.262 11.9312C252.55 9.45268 249.556 7.30186 246.341 5.5231C239.546 1.82966 231.938 -0.11298 224.204 -0.129395H46.208C35.3875 -0.0704219 24.9226 3.74089 16.5983 10.6544C8.27401 17.568 2.60602 27.1554 0.561121 37.7815C0.0853947 40.4186 -0.145651 43.0939 -0.129067 45.7735L-0.208984 81.2215V90.4558V97.3652V174.793L-0.0782117 210.03L-0.0200907 224.43C-0.0585528 231.601 1.57317 238.683 4.74584 245.115C7.39942 250.358 11.0177 255.053 15.4111 258.955C23.8779 266.555 34.8524 270.762 46.2298 270.769H224.226C236.537 270.753 248.34 265.856 257.046 257.15C265.751 248.444 270.649 236.64 270.664 224.328V46.3257C270.653 39.8331 269.275 33.4155 266.622 27.4899C263.968 21.5644 260.098 16.2633 255.262 11.9312Z" fill="url(#paint0_linear)"/>
<path d="M270.641 200.351V193.485L265.577 199.741L270.641 200.351Z" fill="#0035DD"/>
<path d="M265.577 199.741L270.641 193.485V175.656L254.287 190.339L265.577 199.741Z" fill="#003ED9"/>
<path d="M270.641 175.656V123.599L254.287 190.339L270.641 175.656Z" fill="#003CDA"/>
<path d="M74.1916 25.2764L65.7859 -0.130737H51.9313L48.7927 42.6771L74.1916 25.2764Z" fill="#00B2AF"/>
<path d="M51.9311 -0.130737H46.1844C39.6695 -0.121422 33.23 1.26314 27.287 3.93238C21.3441 6.60163 16.0315 10.4954 11.6968 15.3591L48.7926 42.6771L51.9311 -0.130737Z" fill="#00C0AB"/>
<path d="M-0.25354 147.045V150.481L1.77343 148.018L-0.25354 147.045Z" fill="#00E2A0"/>
<path d="M266.913 242.498C269.373 236.758 270.641 230.579 270.64 224.334V200.358L265.555 199.748L266.913 242.498Z" fill="#003ED9"/>
<path d="M11.6982 15.3591C5.99744 21.6683 2.1441 29.4256 0.560755 37.7802C0.0850284 40.4172 -0.146017 43.0926 -0.129434 45.7722L-0.209351 81.2201L48.794 42.7134L11.6982 15.3591Z" fill="#00D3A6"/>
<path d="M48.7938 42.677L-0.209529 81.2055L-0.231323 90.4398H27.4779L48.7938 42.677Z" fill="#00D1A7"/>
<path d="M15.708 116.799L-0.25354 116.806V147.045L1.77343 148.018L15.708 116.799Z" fill="#00D1A7"/>
<path d="M236.422 76.5339L270.641 93.0555V88.5146L245.351 59.1405L236.422 76.5339Z" fill="#004CD3"/>
<path d="M87.2476 185.355L91.1199 187.048L90.8729 185.355H87.2476Z" fill="#00B5B0"/>
<path d="M61.6512 90.4399H77.017L75.1281 77.4784L61.6512 90.4399Z" fill="#00B5B0"/>
<path d="M87.1883 160.13L80.8676 116.799H34.2327L1.77209 148.018L87.1883 185.333V160.13Z" fill="#00B5B0"/>
<path d="M60.5477 223.724L113.009 270.767H125.84L91.1194 187.048L60.5477 223.724Z" fill="#00A0B8"/>
<path d="M-0.122681 210.029L-0.0645596 224.429C-0.103022 231.6 1.5287 238.682 4.70137 245.113C7.35495 250.356 10.9732 255.052 15.3666 258.954L60.5557 223.724L-0.122681 210.029Z" fill="#00CEA7"/>
<path d="M1.77343 148.018L-0.25354 150.481V174.791L-0.115502 210.029L60.5484 223.724L1.77343 148.018Z" fill="#00CEA7"/>
<path d="M15.3655 258.954C23.8323 266.554 34.8068 270.761 46.1842 270.767H57.249L60.5546 223.724L15.3655 258.954Z" fill="#00BEAE"/>
<path d="M74.1916 25.2764L48.7927 42.6771L75.1289 77.4784L74.1916 25.2764Z" fill="#00AFB2"/>
<path d="M87.1883 185.355V185.333L1.77209 148.018L60.547 223.724L91.1187 187.048L87.2464 185.355H87.1883Z" fill="#00B7AF"/>
<path d="M15.7066 116.799L1.77209 148.018L34.2327 116.799H15.7066Z" fill="#00BCAD"/>
<path d="M48.7928 42.677L27.4769 90.4398H61.6521L75.129 77.4783L48.7928 42.677Z" fill="#00BCAD"/>
<path d="M167.766 193.158L139.991 270.767H160.922L192.685 249.589L167.766 193.158Z" fill="#007BC3"/>
<path d="M57.2495 270.767H113.009L60.5479 223.724L57.2495 270.767Z" fill="#00A6B6"/>
<path d="M254.287 190.339L270.641 123.599V95.4166L201.622 86.4148L254.287 190.339Z" fill="#0051D1"/>
<path d="M201.622 86.4148L270.641 95.4166V93.0554L236.422 76.5338L201.622 86.4148Z" fill="#0054D1"/>
<path d="M192.686 249.589L203.278 270.768H220.431V270.753L192.686 249.589Z" fill="#0063CB"/>
<path d="M134.848 31.3939L135.451 90.4399H140.922L150.367 28.5676L134.848 31.3939Z" fill="#0089C0"/>
<path d="M136.896 116.792H135.712L135.792 124.035L136.896 116.792Z" fill="#0089C0"/>
<path d="M113.75 29.2651L113.765 47.6612L134.848 31.3939L113.75 29.2651Z" fill="#00A0B6"/>
<path d="M87.1891 68.1714V26.5914L74.1918 25.2764L75.129 77.4784L87.1891 68.1714Z" fill="#00A0B6"/>
<path d="M113.75 29.2651L134.848 31.3939L135.183 -0.130737H114.477L113.736 0.334249L113.75 29.2651Z" fill="#0195BB"/>
<path d="M87.1891 17.0809L74.1918 25.2763L87.1891 26.5914V17.0809Z" fill="#0195BB"/>
<path d="M87.1882 17.081V-0.130737H65.7852L74.1909 25.2764L87.1882 17.081Z" fill="#01A4B7"/>
<path d="M114.476 -0.130737H113.728L113.735 0.334249L114.476 -0.130737Z" fill="#01A4B7"/>
<path d="M90.8721 185.355L91.1191 187.048L92.3106 185.355H90.8721Z" fill="#009DB8"/>
<path d="M77.0171 90.4399H92.0196L75.1282 77.4784L77.0171 90.4399Z" fill="#009DB8"/>
<path d="M87.1893 132.412H113.787V155.073L135.793 124.035L126.363 116.792L80.8687 116.799L87.1893 160.13V132.412Z" fill="#009DB8"/>
<path d="M135.713 116.792H126.363L135.793 124.035L135.713 116.792Z" fill="#0096BB"/>
<path d="M113.764 47.6612L113.786 74.8193H113.721H87.1883V68.1715L75.1282 77.4784L92.0196 90.4399H135.451L134.848 31.3939L113.764 47.6612Z" fill="#0096BB"/>
<path d="M198.803 54.9048L150.367 28.5676L201.622 86.4149L198.803 54.9048Z" fill="#0071C7"/>
<path d="M270.641 51.0904V46.3098C270.63 39.8212 269.255 33.4075 266.605 27.4847C263.956 21.5618 260.09 16.2623 255.26 11.9298L245.351 59.155L270.641 51.0904Z" fill="#0145D6"/>
<path d="M150.367 28.5677L140.043 -0.130737H135.182L134.848 31.3939L150.367 28.5677Z" fill="#0089C0"/>
<path d="M113.786 155.073V158.517H151.74L135.793 124.035L113.786 155.073Z" fill="#008CBD"/>
<path d="M92.3111 185.355L91.1196 187.048L167.767 193.158L164.156 185.355H92.3111Z" fill="#008CBD"/>
<path d="M91.1196 187.048L125.84 270.767H139.992L167.767 193.158L91.1196 187.048Z" fill="#008DBD"/>
<path d="M148.456 116.792H136.897L135.793 124.035L148.456 116.792Z" fill="#007CC2"/>
<path d="M150.366 28.5676L140.921 90.4399H182.834V97.1459L201.622 86.4149L150.366 28.5676Z" fill="#007CC2"/>
<path d="M220.431 270.753L241.595 204.449L192.686 249.589L220.431 270.753Z" fill="#005FCD"/>
<path d="M167.766 193.158L241.594 204.449L254.287 190.339L167.766 193.158Z" fill="#005ECF"/>
<path d="M192.686 249.589L241.594 204.449L167.766 193.158L192.686 249.589Z" fill="#0068CB"/>
<path d="M270.641 88.5146V51.0905L245.351 59.1405L270.641 88.5146Z" fill="#0042D7"/>
<path d="M164.156 185.355L167.766 193.158L170.237 185.355H164.156Z" fill="#0079C4"/>
<path d="M151.74 158.517H155.997V116.792H148.456L135.793 124.035L151.74 158.517Z" fill="#0079C4"/>
<path d="M182.833 97.1458V145.642L201.621 86.4148L182.833 97.1458Z" fill="#0079C4"/>
<path d="M160.922 270.768H203.278L192.685 249.589L160.922 270.768Z" fill="#0072C8"/>
<path d="M241.594 204.449L220.431 270.753H220.642H224.202C231.054 270.746 237.82 269.221 244.013 266.288C250.206 263.354 255.672 259.086 260.019 253.788L241.594 204.449Z" fill="#0052D2"/>
<path d="M201.622 86.4148L182.834 145.642V185.355H170.236L167.766 193.158L254.287 190.339L201.622 86.4148Z" fill="#0064CC"/>
<path d="M236.422 76.5339L198.803 54.9048L201.622 86.4149L236.422 76.5339Z" fill="#0062CD"/>
<path d="M245.351 59.1405L198.803 54.9048L236.422 76.5339L245.351 59.1405Z" fill="#005BCE"/>
<path d="M245.351 59.1405L255.26 11.9153C252.548 9.43678 249.554 7.28597 246.339 5.5072L198.803 54.912L245.351 59.1405Z" fill="#0157D0"/>
<path d="M220.431 270.767H220.64L220.431 270.753V270.767Z" fill="#0056D1"/>
<path d="M254.287 190.339L241.595 204.449L265.577 199.741L254.287 190.339Z" fill="#004CD5"/>
<path d="M198.804 54.9048L246.339 5.49994C242.199 3.24218 237.738 1.63236 233.11 0.726562L150.389 28.5676L198.804 54.9048Z" fill="#0068CB"/>
<path d="M233.108 0.726527C230.175 0.145708 227.192 -0.148713 224.201 -0.152588H140.049L150.366 28.5458L233.108 0.726527Z" fill="#0071C7"/>
<path d="M241.595 204.449L260.02 253.803C262.842 250.381 265.164 246.574 266.914 242.498L265.577 199.741L241.595 204.449Z" fill="#014AD5"/>
<path d="M87.1892 26.5915V68.1714V74.8193H113.721H113.787L113.765 47.6612L113.751 29.2651L113.736 0.334249L113.729 -0.130737H87.1892V17.081V26.5915Z" fill="white"/>
<path d="M34.2341 116.799H80.869L126.363 116.792H135.713H136.898H148.457H155.998V158.517H151.74H113.787V155.073V132.412H87.1896V160.13V185.334V185.355H87.2478H90.8731H92.3116H164.156H170.237H182.835V145.643V97.1459V90.4399H140.923H135.452H92.021H77.0184H61.6527H27.4775H-0.231744L-0.25354 97.3494V116.806L15.708 116.799H34.2341Z" fill="white"/>
<defs>
<linearGradient id="paint0_linear" x1="-0.252575" y1="135.32" x2="270.643" y2="135.32" gradientUnits="userSpaceOnUse">
<stop stop-color="#00CC99"/>
<stop offset="1" stop-color="#0033CC"/>
</linearGradient>
</defs>
</svg>
