<svg width="95" height="37" viewBox="0 0 95 37" fill="none" xmlns="http://www.w3.org/2000/svg">
<g clip-path="url(#clip0)">
<path d="M34.8418 1.62898C34.4716 1.29058 34.0629 0.99693 33.624 0.754073C32.6966 0.249803 31.6581 -0.0154286 30.6025 -0.0176697H6.30708C4.83015 -0.00961806 3.40175 0.510745 2.26553 1.45466C1.12932 2.39857 0.355668 3.70757 0.0765505 5.15836C0.0116166 5.5184 -0.0199198 5.88367 -0.0176563 6.24952L-0.0285645 11.0893V12.3501V13.2934V23.8647L-0.0107147 28.6757L-0.00278155 30.6417C-0.00803141 31.6209 0.214689 32.5878 0.64774 33.4658C1.00994 34.1817 1.50381 34.8228 2.10348 35.3555C3.25915 36.3932 4.75711 36.9675 6.31006 36.9684H30.6055C32.2859 36.9663 33.897 36.2976 35.0852 35.109C36.2735 33.9204 36.942 32.3088 36.9441 30.6279V6.3249C36.9425 5.43846 36.7545 4.56226 36.3923 3.75324C36.0301 2.94421 35.5018 2.22045 34.8418 1.62898V1.62898Z" fill="url(#paint0_linear)"/>
<path d="M36.9409 27.3542V26.4168L36.2498 27.2709L36.9409 27.3542Z" fill="#0035DD"/>
<path d="M36.2497 27.2709L36.9409 26.4168V23.9825L34.7087 25.9873L36.2497 27.2709Z" fill="#003ED9"/>
<path d="M36.9409 23.9825V16.8752L34.7087 25.9873L36.9409 23.9825Z" fill="#003CDA"/>
<path d="M10.1268 3.45102L8.9795 -0.0178528H7.08843L6.66003 5.82676L10.1268 3.45102Z" fill="#00B2AF"/>
<path d="M7.08837 -0.0178528H6.30398C5.41474 -0.016581 4.53578 0.172455 3.7246 0.536891C2.91342 0.901327 2.18828 1.43295 1.59662 2.097L6.65998 5.82676L7.08837 -0.0178528Z" fill="#00C0AB"/>
<path d="M-0.0346069 20.0762V20.5454L0.242063 20.2091L-0.0346069 20.0762Z" fill="#00E2A0"/>
<path d="M36.4324 33.1085C36.7682 32.3249 36.9412 31.4812 36.9411 30.6287V27.3552L36.2469 27.2719L36.4324 33.1085Z" fill="#003ED9"/>
<path d="M1.59644 2.097C0.818322 2.9584 0.292362 4.01751 0.0762453 5.15818C0.0113114 5.51822 -0.0202249 5.88349 -0.0179614 6.24933L-0.0288696 11.0891L6.6598 5.83172L1.59644 2.097Z" fill="#00D3A6"/>
<path d="M6.65997 5.82675L-0.0287024 11.0871L-0.0316772 12.3479H3.75047L6.65997 5.82675Z" fill="#00D1A7"/>
<path d="M2.14405 15.9467L-0.0346069 15.9477V20.0762L0.242063 20.2091L2.14405 15.9467Z" fill="#00D1A7"/>
<path d="M32.2701 10.4493L36.9408 12.705V12.085L33.4889 8.07454L32.2701 10.4493Z" fill="#004CD3"/>
<path d="M11.9084 25.3068L12.437 25.5379L12.4033 25.3068H11.9084Z" fill="#00B5B0"/>
<path d="M8.41528 12.3479H10.5126L10.2548 10.5782L8.41528 12.3479Z" fill="#00B5B0"/>
<path d="M11.9011 21.8627L11.0383 15.9467H4.67294L0.242249 20.2091L11.9011 25.3038V21.8627Z" fill="#00B5B0"/>
<path d="M8.26428 30.5453L15.425 36.9683H17.1762L12.4371 25.5379L8.26428 30.5453Z" fill="#00A0B8"/>
<path d="M-0.0168457 28.6755L-0.00891252 30.6416C-0.0141624 31.6207 0.208558 32.5876 0.641609 33.4657C1.00381 34.1815 1.49768 34.8226 2.09735 35.3553L8.26541 30.5453L-0.0168457 28.6755Z" fill="#00CEA7"/>
<path d="M0.242063 20.2091L-0.0346069 20.5454V23.8645L-0.0157655 28.6755L8.2645 30.5453L0.242063 20.2091Z" fill="#00CEA7"/>
<path d="M2.09735 35.3553C3.25302 36.393 4.75098 36.9673 6.30393 36.9683H7.81421L8.26541 30.5453L2.09735 35.3553Z" fill="#00BEAE"/>
<path d="M10.1268 3.45102L6.66003 5.82676L10.2548 10.5782L10.1268 3.45102Z" fill="#00AFB2"/>
<path d="M11.9011 25.3068V25.3038L0.242249 20.2091L8.26469 30.5453L12.4376 25.5379L11.909 25.3068H11.9011Z" fill="#00B7AF"/>
<path d="M2.14423 15.9467L0.242249 20.2091L4.67294 15.9467H2.14423Z" fill="#00BCAD"/>
<path d="M6.65974 5.82675L3.75024 12.3479H8.41496L10.2545 10.5782L6.65974 5.82675Z" fill="#00BCAD"/>
<path d="M22.8994 26.3722L19.1083 36.9683H21.9653L26.3008 34.0767L22.8994 26.3722Z" fill="#007BC3"/>
<path d="M7.81409 36.9683H15.425L8.26429 30.5453L7.81409 36.9683Z" fill="#00A6B6"/>
<path d="M34.7087 25.9873L36.9409 16.8752V13.0274L27.5203 11.7983L34.7087 25.9873Z" fill="#0051D1"/>
<path d="M27.5203 11.7983L36.9409 13.0274V12.705L32.2703 10.4493L27.5203 11.7983Z" fill="#0054D1"/>
<path d="M26.3005 34.0767L27.7464 36.9683H30.0877V36.9663L26.3005 34.0767Z" fill="#0063CB"/>
<path d="M18.406 4.28625L18.4883 12.3479H19.235L20.5242 3.90038L18.406 4.28625Z" fill="#0089C0"/>
<path d="M18.6858 15.9457H18.5242L18.5351 16.9347L18.6858 15.9457Z" fill="#0089C0"/>
<path d="M15.5262 3.99561L15.5282 6.50724L18.406 4.28625L15.5262 3.99561Z" fill="#00A0B6"/>
<path d="M11.9008 9.30753V3.63056L10.1267 3.45102L10.2546 10.5782L11.9008 9.30753Z" fill="#00A0B6"/>
<path d="M15.526 3.99561L18.4058 4.28625L18.4514 -0.0178528H15.6252L15.524 0.0456324L15.526 3.99561Z" fill="#0195BB"/>
<path d="M11.9008 2.33209L10.1267 3.45102L11.9008 3.63057V2.33209Z" fill="#0195BB"/>
<path d="M11.901 2.33209V-0.0178528H8.97955L10.1269 3.45102L11.901 2.33209Z" fill="#01A4B7"/>
<path d="M15.6256 -0.0178528H15.5234L15.5244 0.0456324L15.6256 -0.0178528Z" fill="#01A4B7"/>
<path d="M12.4036 25.3068L12.4373 25.5379L12.6 25.3068H12.4036Z" fill="#009DB8"/>
<path d="M10.5127 12.3479H12.5605L10.2549 10.5782L10.5127 12.3479Z" fill="#009DB8"/>
<path d="M11.9007 18.0784H15.5311V21.1723L18.5348 16.9347L17.2477 15.9457L11.038 15.9467L11.9007 21.8627V18.0784Z" fill="#009DB8"/>
<path d="M18.5239 15.9457H17.2476L18.5348 16.9347L18.5239 15.9457Z" fill="#0096BB"/>
<path d="M15.5285 6.50725L15.5314 10.2152H15.5225H11.901V9.30754L10.2549 10.5782L12.5605 12.3479H18.4885L18.4062 4.28625L15.5285 6.50725Z" fill="#0096BB"/>
<path d="M27.1354 7.49622L20.5241 3.90038L27.5202 11.7983L27.1354 7.49622Z" fill="#0071C7"/>
<path d="M36.9411 6.97543V6.32273C36.9396 5.43684 36.7519 4.56116 36.3903 3.75251C36.0286 2.94386 35.501 2.2203 34.8417 1.62878L33.4891 8.07651L36.9411 6.97543Z" fill="#0145D6"/>
<path d="M20.5242 3.90038L19.115 -0.0178528H18.4516L18.406 4.28625L20.5242 3.90038Z" fill="#0089C0"/>
<path d="M15.5313 21.1723V21.6425H20.7117L18.535 16.9347L15.5313 21.1723Z" fill="#008CBD"/>
<path d="M12.5997 25.3068L12.4371 25.5379L22.899 26.3722L22.4061 25.3068H12.5997Z" fill="#008CBD"/>
<path d="M12.4371 25.5379L17.1762 36.9683H19.1079L22.899 26.3722L12.4371 25.5379Z" fill="#008DBD"/>
<path d="M20.2634 15.9457H18.6856L18.5349 16.9347L20.2634 15.9457Z" fill="#007CC2"/>
<path d="M20.5245 3.90038L19.2354 12.3479H24.9562V13.2635L27.5206 11.7983L20.5245 3.90038Z" fill="#007CC2"/>
<path d="M30.0876 36.9663L32.9763 27.9137L26.3005 34.0767L30.0876 36.9663Z" fill="#005FCD"/>
<path d="M22.8994 26.3722L32.9765 27.9137L34.7089 25.9873L22.8994 26.3722Z" fill="#005ECF"/>
<path d="M26.3007 34.0767L32.9765 27.9137L22.8994 26.3722L26.3007 34.0767Z" fill="#0068CB"/>
<path d="M36.9411 12.085V6.97545L33.4891 8.07454L36.9411 12.085Z" fill="#0042D7"/>
<path d="M22.4063 25.3068L22.8992 26.3722L23.2363 25.3068H22.4063Z" fill="#0079C4"/>
<path d="M20.7116 21.6425H21.2927V15.9457H20.2634L18.5349 16.9347L20.7116 21.6425Z" fill="#0079C4"/>
<path d="M24.9561 13.2635V19.8848L27.5205 11.7983L24.9561 13.2635Z" fill="#0079C4"/>
<path d="M21.9653 36.9683H27.7466L26.3008 34.0767L21.9653 36.9683Z" fill="#0072C8"/>
<path d="M32.9766 27.9137L30.088 36.9663H30.1167H30.6026C31.5379 36.9653 32.4614 36.7571 33.3067 36.3566C34.152 35.9561 34.8981 35.3733 35.4914 34.6501L32.9766 27.9137Z" fill="#0052D2"/>
<path d="M27.5204 11.7983L24.956 19.8848V25.3068H23.2365L22.8994 26.3722L34.7089 25.9873L27.5204 11.7983Z" fill="#0064CC"/>
<path d="M32.2703 10.4493L27.1355 7.49622L27.5203 11.7983L32.2703 10.4493Z" fill="#0062CD"/>
<path d="M33.489 8.07453L27.1355 7.49622L32.2703 10.4493L33.489 8.07453Z" fill="#005BCE"/>
<path d="M33.489 8.07453L34.8416 1.62681C34.4714 1.28842 34.0627 0.994765 33.6239 0.751907L27.1355 7.49722L33.489 8.07453Z" fill="#0157D0"/>
<path d="M30.088 36.9682H30.1165L30.088 36.9663V36.9682Z" fill="#0056D1"/>
<path d="M34.7085 25.9873L32.9761 27.9137L36.2496 27.2709L34.7085 25.9873Z" fill="#004CD5"/>
<path d="M27.1352 7.49622L33.6236 0.750913C33.0585 0.442658 32.4495 0.222868 31.8178 0.0991974L20.5269 3.90038L27.1352 7.49622Z" fill="#0068CB"/>
<path d="M31.8182 0.0991985C31.4178 0.0198985 31.0107 -0.0202992 30.6025 -0.0208282H19.1162L20.5244 3.8974L31.8182 0.0991985Z" fill="#0071C7"/>
<path d="M32.9761 27.9137L35.491 34.652C35.8763 34.1848 36.1931 33.6651 36.432 33.1085L36.2496 27.2709L32.9761 27.9137Z" fill="#014AD5"/>
<path d="M11.9006 3.63057V9.30754V10.2152H15.5221H15.5311L15.5281 6.50724L15.5261 3.99561L15.5241 0.0456324L15.5231 -0.0178528H11.9006V2.33209V3.63057Z" fill="white"/>
<path d="M4.67275 15.9467H11.0381L17.2479 15.9457H18.5241H18.6858H20.2635H21.2928V21.6425H20.7117H15.5313V21.1723V18.0784H11.9009V21.8627V25.3038V25.3068H11.9088H12.4037H12.6H22.4064H23.2364H24.956V19.8848V13.2635V12.3479H19.2351H18.4884H12.5603H10.5126H8.41524H3.75052H-0.0316319L-0.0346069 13.2912V15.9477L2.14405 15.9467H4.67275Z" fill="white"/>
<path d="M53.6037 14.9676C51.9179 14.9676 50.3124 15.6174 49.6639 16.8732V7.94557H45.6804V28.6963H49.6639V27.0507C50.3124 28.2628 51.9586 28.9999 53.6037 28.9999C57.0665 28.9999 60.098 26.271 60.098 22.0264C60.094 17.6955 57.0665 14.9676 53.6037 14.9676ZM52.8243 25.1848C51.1791 25.1848 49.7065 23.8427 49.7065 21.9371C49.7065 19.9016 51.1791 18.7321 52.8243 18.7321C54.5557 18.7321 55.941 20.0316 55.941 21.9371C55.941 23.9319 54.512 25.1878 52.8243 25.1878V25.1848Z" fill="#003CDA"/>
<path d="M90.4456 28.6805H95.035L89.7961 21.4045L94.2119 15.2543H89.5799L87.5877 18.1994L85.5964 15.2543H80.9634L85.3802 21.4045L80.0977 28.6805H84.7307L87.5877 24.5668L90.4456 28.6805Z" fill="#003CDA"/>
<path d="M65.9446 14.0937C65.9454 13.5924 66.1447 13.1117 66.499 12.757C66.8532 12.4023 67.3335 12.2024 67.8347 12.2011H73.9214L63.9613 25.2394L63.4843 25.8603C63.756 26.6829 64.2797 27.399 64.9813 27.907C65.6828 28.415 66.5264 28.6891 67.3924 28.6904H73.4762C74.5675 28.6891 75.6138 28.2548 76.3854 27.4829C77.1571 26.711 77.5912 25.6644 77.5925 24.5728V16.0251L75.0142 19.2837V24.2177C75.0127 24.7185 74.813 25.1984 74.4589 25.5525C74.1047 25.9065 73.6249 26.106 73.1242 26.1073H67.0354C66.7455 26.116 66.4574 26.059 66.1925 25.9407L75.3633 14.0372V14.0461L77.1225 11.7537C76.7747 11.0861 76.2509 10.5266 75.6077 10.1357C74.9646 9.74491 74.2267 9.53773 73.4742 9.53668H67.3904C66.299 9.538 65.2526 9.97237 64.4809 10.7445C63.7091 11.5166 63.2752 12.5635 63.2741 13.6553V21.34L65.9446 17.8979V14.0937Z" fill="#003CDA"/>
</g>
<defs>
<linearGradient id="paint0_linear" x1="-0.0345143" y1="18.4754" x2="36.9411" y2="18.4754" gradientUnits="userSpaceOnUse">
<stop stop-color="#00CC99"/>
<stop offset="1" stop-color="#0033CC"/>
</linearGradient>
<clipPath id="clip0">
<rect width="95" height="37" fill="white"/>
</clipPath>
</defs>
</svg>
