<svg width="503" height="47" viewBox="0 0 503 47" fill="none" xmlns="http://www.w3.org/2000/svg">
<rect x="1" y="1" width="501" height="45" stroke="#000085" stroke-width="2"/>
<rect opacity="0.2" x="2" y="2" width="499" height="43" fill="#5B88FF"/>
<rect opacity="0.5" x="2" y="6" width="499" height="6" fill="white"/>
<rect opacity="0.3" x="2" y="35" width="499" height="6" fill="#000085"/>
<path opacity="0.2" d="M79 0.999998C91.4264 0.999999 101.5 11.0736 101.5 23.5C101.5 35.9264 91.4264 46 79 46" stroke="#000085" stroke-width="2"/>
<path d="M78.5 46C66.0736 46 56 35.9264 56 23.5C56 11.0736 66.0736 1 78.5 1" stroke="#000085" stroke-width="2"/>
<path opacity="0.2" d="M195 0.999998C207.426 0.999999 217.5 11.0736 217.5 23.5C217.5 35.9264 207.426 46 195 46" stroke="#000085" stroke-width="2"/>
<path d="M194.5 46C182.074 46 172 35.9264 172 23.5C172 11.0736 182.074 1 194.5 1" stroke="#000085" stroke-width="2"/>
<path opacity="0.2" d="M311 0.999998C323.426 0.999999 333.5 11.0736 333.5 23.5C333.5 35.9264 323.426 46 311 46" stroke="#000085" stroke-width="2"/>
<path d="M310.5 46C298.074 46 288 35.9264 288 23.5C288 11.0736 298.074 1 310.5 1" stroke="#000085" stroke-width="2"/>
<path opacity="0.2" d="M427 0.999998C439.426 0.999999 449.5 11.0736 449.5 23.5C449.5 35.9264 439.426 46 427 46" stroke="#000085" stroke-width="2"/>
<path d="M426.5 46C414.074 46 404 35.9264 404 23.5C404 11.0736 414.074 1 426.5 1" stroke="#000085" stroke-width="2"/>
</svg>
