<svg width="503" height="47" viewBox="0 0 503 47" fill="none" xmlns="http://www.w3.org/2000/svg">
<rect x="1" y="-1" width="501" height="45" transform="matrix(-1 0 0 1 503 2)" stroke="#000085" stroke-width="2"/>
<rect opacity="0.2" width="499" height="43" transform="matrix(-1 0 0 1 501 2)" fill="#5B88FF"/>
<rect opacity="0.5" width="499" height="6" transform="matrix(-1 0 0 1 501 6)" fill="white"/>
<rect opacity="0.3" width="499" height="6" transform="matrix(-1 0 0 1 501 35)" fill="#000085"/>
<path opacity="0.2" d="M424 0.999998C411.574 0.999999 401.5 11.0736 401.5 23.5C401.5 35.9264 411.574 46 424 46" stroke="#000085" stroke-width="2"/>
<path d="M424.5 46C436.926 46 447 35.9264 447 23.5C447 11.0736 436.926 1 424.5 1" stroke="#000085" stroke-width="2"/>
<path opacity="0.2" d="M308 0.999998C295.574 0.999999 285.5 11.0736 285.5 23.5C285.5 35.9264 295.574 46 308 46" stroke="#000085" stroke-width="2"/>
<path d="M308.5 46C320.926 46 331 35.9264 331 23.5C331 11.0736 320.926 1 308.5 1" stroke="#000085" stroke-width="2"/>
<path opacity="0.2" d="M192 0.999998C179.574 0.999999 169.5 11.0736 169.5 23.5C169.5 35.9264 179.574 46 192 46" stroke="#000085" stroke-width="2"/>
<path d="M192.5 46C204.926 46 215 35.9264 215 23.5C215 11.0736 204.926 1 192.5 1" stroke="#000085" stroke-width="2"/>
<path opacity="0.2" d="M76 0.999998C63.5736 0.999999 53.5 11.0736 53.5 23.5C53.5 35.9264 63.5736 46 76 46" stroke="#000085" stroke-width="2"/>
<path d="M76.5 46C88.9264 46 99 35.9264 99 23.5C99 11.0736 88.9264 1 76.5 1" stroke="#000085" stroke-width="2"/>
</svg>
