
<svg width="3006px" height="1091px" viewBox="0 0 3006 1091" version="1.1" xmlns="http://www.w3.org/2000/svg" xmlns:xlink="http://www.w3.org/1999/xlink">
    <!-- Generator: Sketch 49.3 (51167) - http://www.bohemiancoding.com/sketch -->
    <desc>Created with Sketch.</desc>
    <defs>
        <rect id="path-1" x="0" y="204" width="3000" height="881"></rect>
        <ellipse id="path-2" cx="817.857881" cy="358.993723" rx="817.857881" ry="358.993723"></ellipse>
        <rect id="path-4" x="0" y="20" width="1043" height="630"></rect>
        <rect id="path-5" x="0" y="0" width="1043" height="24"></rect>
        <polygon id="path-6" points="0 428.662472 44.5610259 428.662472 44.5610259 0 0 0"></polygon>
    </defs>
    <g id="Page-1" stroke="none" stroke-width="1" fill="none" fill-rule="evenodd">
        <g id="illustration-copy" transform="translate(3.000000, 3.000000)">
            <g id="Rectangle-8">
                <use fill="#19C5C2" fill-rule="evenodd" xlink:href="#path-1"></use>
                <rect stroke="#2A144C" stroke-width="2.41499984" x="-1.20749992" y="202.7925" width="3002.415" height="883.415"></rect>
            </g>
            <g id="Group-6" transform="translate(333.000000, 214.000000)" fill="#231F20" fill-rule="nonzero">
                <polygon id="Path-21-Copy-3" points="71 3 71 0 189 0 189 3"></polygon>
                <polygon id="Path-21-Copy-3" points="1932 815 1932 812 2050 812 2050 815"></polygon>
                <polygon id="Path-21-Copy-3" transform="translate(2043.000000, 796.500000) scale(1, -1) translate(-2043.000000, -796.500000) " points="2023 798 2023 795 2063 795 2063 798"></polygon>
                <polygon id="Path-21-Copy-3" points="1789 11 1789 8 1829 8 1829 11"></polygon>
                <polygon id="Path-21-Copy-4" points="0 14 0 11 40 11 40 14"></polygon>
            </g>
            <g id="hole" transform="translate(682.000000, 291.000000)">
                <mask id="mask-3" fill="white">
                    <use xlink:href="#path-2"></use>
                </mask>
                <use id="Oval-6" stroke="#231F20" stroke-width="2.41499984" fill="#001135" xlink:href="#path-2"></use>
                <g id="texture" mask="url(#mask-3)" fill="#BED1F4" fill-rule="nonzero" opacity="0.100000001">
                    <g transform="translate(-445.907993, 170.589499)" id="Fill-1818">
                        <path d="M0,0 C3.51081503,129.463819 140.295906,265.497992 371.89125,370.037494 C612.842694,478.800233 931.06772,542.817531 1263.01571,542.817531 C1594.96369,542.817531 1913.18872,478.800233 2154.14016,370.037494 C2385.73551,265.497992 2522.5206,129.463819 2522.5206,0 C2526.03141,131.22106 2388.30432,268.192062 2155.58394,373.239394 C1914.16312,482.214003 1595.44647,546.330202 1263.01571,546.330202 C930.584944,546.330202 611.868294,482.214003 370.447475,373.239394 C137.727091,268.192062 0,131.22106 0,0 Z" transform="translate(1261.293070, 273.165101) scale(1, -1) translate(-1261.293070, -273.165101) "></path>
                        <path d="M0,472.430465 C3.51081548,602.190163 141.036997,742.40782 371.916584,850.987153 C614.283451,964.968788 932.49022,1032.40583 1263.01587,1032.40583 C1593.54152,1032.40583 1911.74829,964.968788 2154.11516,850.987153 C2384.99474,742.40782 2522.52093,602.190163 2522.52093,472.430465 C2526.03174,603.915247 2387.59003,745.066353 2155.6095,854.163441 C1912.76271,968.370777 1594.04568,1035.91596 1263.01587,1035.91596 C931.986062,1035.91596 613.269028,968.370777 370.422237,854.163441 C138.441713,745.066353 0,603.915247 0,472.430465 Z" transform="translate(1261.293070, 754.173214) scale(1, -1) translate(-1261.293070, -754.173214) "></path>
                    </g>
                </g>
                <g id="pipe-blue" mask="url(#mask-3)">
                    <g transform="translate(1216.000000, 517.000000)">
                        <g id="Group" stroke="none" stroke-width="1" fill-rule="evenodd">
                            <path d="M291.254728,402.094147 L142.729934,402.094147 C66.5995592,402.094147 3.27969163,342.078747 0.355777723,266.342873 C0.294467572,264.754803 0.259712246,144.285774 0.251950457,142.684289 C-0.251950457,64.3279922 63.2395646,0.505524497 141.218231,0.505524497 L407.87865,0.505524497 C421.483975,0.505524497 433.199671,11.1215389 433.703572,24.8970815 C434.207473,39.3045296 422.743727,51.0579742 408.508526,51.0579742 L142.352008,51.0579742 C92.4658176,51.0579742 51.1459427,90.9944094 50.6420418,141.041335 C50.6269979,142.550573 50.648783,262.925524 50.7065491,264.417244 C52.5836765,312.891169 92.4547455,351.668079 141.218231,351.668079 L291.254728,351.668079 C305.112003,351.668079 316.449774,363.04238 316.449774,376.944304 C316.449774,390.846227 305.237978,402.094147 291.254728,402.094147 Z" id="Shape" stroke="#231F20" stroke-width="2.41499984" fill-opacity="0.5" fill="#BBD0EF" fill-rule="nonzero"></path>
                            <path d="M417.519598,36.4532456 C419.702901,36.4532456 421.472819,38.2272303 421.472819,40.4155513 C421.472819,42.6038724 419.702901,44.3778571 417.519598,44.3778571 L151.540149,44.3778571 C149.356845,44.3778571 147.586928,42.6038724 147.586928,40.4155513 C147.586928,38.2272303 149.356845,36.4532456 151.540149,36.4532456 L417.519598,36.4532456 Z" id="Shape" fill="#000D6D" fill-rule="nonzero" opacity="0.300000012"></path>
                            <path d="M365.014098,8.71710519 C367.197402,8.71710519 368.967319,10.4910899 368.967319,12.679411 C368.967319,14.867732 367.197402,16.6417167 365.014098,16.6417167 L262.543239,16.6417167 C260.359936,16.6417167 258.590018,14.867732 258.590018,12.679411 C258.590018,10.4910899 260.359936,8.71710519 262.543239,8.71710519 L365.014098,8.71710519 Z" id="Shape" fill="#FFFFFF" fill-rule="nonzero" opacity="0.5"></path>
                            <path d="M247.871641,8.71710519 C250.054945,8.71710519 251.824862,10.4910899 251.824862,12.679411 C251.824862,14.867732 250.054945,16.6417167 247.871641,16.6417167 L211.151363,16.6417167 C208.968059,16.6417167 207.198142,14.867732 207.198142,12.679411 C207.198142,10.4910899 208.968059,8.71710519 211.151363,8.71710519 L247.871641,8.71710519 Z" id="Shape-Copy-19" fill="#FFFFFF" fill-rule="nonzero" opacity="0.5"></path>
                            <path d="M141.218231,51.0579742 C91.3320406,51.0579742 50.6420418,91.7526962 50.6420418,141.926002 C50.6420418,143.816167 50.6996116,264.566926 50.8130875,266.428517 C53.7117637,313.981762 93.0901588,351.668079 141.218231,351.668079 C177.499097,351.668079 177.499097,402.220528 141.218231,402.220528 C65.2499107,402.220528 3.12067636,341.615265 0.348482293,266.069353 C0.28431589,264.320735 0.251950457,143.690064 0.251950457,141.926002 C0.251950457,63.9488488 63.4915151,0.505524497 141.218231,0.505524497 C176.239344,0.505524497 176.239344,51.0579742 141.218231,51.0579742 Z" id="Shape" stroke="#231F20" stroke-width="2.41499984" fill="#407BF7" fill-rule="nonzero"></path>
                            <path d="M2.63548085,159.754054 L2.63548085,125.473016 C9.7366639,130.228979 17.9564365,132.60696 27.2947987,132.60696 C36.6331608,132.60696 44.2910848,130.228979 50.2685706,125.473016 L50.2685706,159.754054 C39.4521811,159.793351 31.5133328,159.812999 26.4520257,159.812999 C21.3907186,159.812999 13.4518703,159.793351 2.63548085,159.754054 Z" id="Fill-1832-Copy" fill="#336ADF"></path>
                            <path d="M163.39987,377.828971 L163.39987,380.470509 L142.236032,380.470509 C78.7903809,380.470509 26.3154081,330.403245 22.926847,267.095575 C22.874844,266.124016 22.8324925,243.019254 22.7965679,204.38918 C22.774605,180.772235 22.7535271,146.485184 22.7535271,141.730198 C22.7535271,75.6619883 76.3787988,21.8639345 142.236032,21.8639345 L166.093339,21.8639345 L166.093339,24.5054717 L142.236032,24.5054717 C77.8348786,24.5054717 25.389008,77.1203244 25.389008,141.730198 C25.389008,146.484199 25.4100854,180.770524 25.4320476,204.386718 C25.4673651,242.36399 25.5108043,266.062169 25.5585433,266.954065 C28.8722033,328.862373 80.1935806,377.828971 142.236032,377.828971 L163.39987,377.828971 Z" id="Shape" fill="#231F20" fill-rule="nonzero"></path>
                        </g>
                        <path d="M350.193106,39.0964077 L327.424243,39.0964077" id="Shape" stroke="#FFFFFF" stroke-width="9.65999936" opacity="0.5" stroke-linecap="round"></path>
                        <path d="M428.539642,39.0964077 L372.228715,39.0964077" id="Shape" stroke="#FFFFFF" stroke-width="9.65999936" opacity="0.5" stroke-linecap="round"></path>
                    </g>
                </g>
                <g id="l" mask="url(#mask-3)">
                    <g transform="translate(-424.000000, 478.000000)">
                        <g id="Group-142" transform="translate(0.000000, 1.000000)">
                            <path d="M-1.86533081e-13,0.139628072 L636.674814,0.139628072 C741.844497,0.139628072 827.174157,85.4592314 827.174157,190.61652 L827.174157,229.589672 C827.174157,295.949364 881.075814,349.844669 947.267751,349.844669 L947.618902,420.417674 C842.624795,420.417674 757.11956,334.922516 757.11956,229.940782 L757.11956,190.96763 C757.11956,124.432383 703.217903,70.7126333 636.85039,70.7126333 L0.175575431,70.7126333 L-1.86533081e-13,0.139628072 Z" id="Shape" stroke="#231F20" stroke-width="2.41499984" fill-opacity="0.5" fill="#BBD0EF" fill-rule="nonzero"></path>
                            <path d="M57.2062614,16.9245526 C54.6787297,16.9245526 52.6297604,14.8755921 52.6297604,12.3480711 C52.6297604,9.82055016 54.6787297,7.77158959 57.2062614,7.77158959 L600.665744,7.77158959 C603.193276,7.77158959 605.242245,9.82055016 605.242245,12.3480711 C605.242245,14.8755921 603.193276,16.9245526 600.665744,16.9245526 L57.2062614,16.9245526 Z" id="Path" fill="#FFFFFF" opacity="0.5"></path>
                            <path d="M623.94306,16.9245526 C621.415528,16.9245526 619.366559,14.8755921 619.366559,12.3480711 C619.366559,9.82055016 621.415528,7.77158959 623.94306,7.77158959 C641.978445,7.77158959 659.435506,9.79466213 676.061648,13.7667271 C678.519997,14.3540384 680.036771,16.8230253 679.449457,19.2813636 C678.862143,21.739702 676.393146,23.2564692 673.934797,22.6691579 C658.011067,18.8649027 641.267818,16.9245526 623.94306,16.9245526 Z" id="Path" fill="#FFFFFF" opacity="0.5"></path>
                            <path d="M763.169969,73.0547316 C761.428087,71.2232741 761.500709,68.3265165 763.332174,66.5846423 C765.16364,64.8427681 768.06041,64.9153898 769.802291,66.7468473 C801.840787,100.432917 819.507995,145.390756 819.507995,195.197494 C819.507995,197.725015 817.459025,199.773976 814.931494,199.773976 C812.403962,199.773976 810.354993,197.725015 810.354993,195.197494 C810.354993,147.720357 793.577088,105.025532 763.169969,73.0547316 Z" id="Path" fill="#FFFFFF" opacity="0.5"></path>
                            <path d="M810.354993,216.382872 C810.354993,213.855352 812.403962,211.806391 814.931494,211.806391 C817.459025,211.806391 819.507995,213.855352 819.507995,216.382872 L819.507995,241.798115 C819.507995,244.325636 817.459025,246.374597 814.931494,246.374597 C812.403962,246.374597 810.354993,244.325636 810.354993,241.798115 L810.354993,216.382872 Z" id="Path" fill="#FFFFFF" opacity="0.5"></path>
                            <path d="M813.325569,267.631052 C812.753658,265.169084 814.285861,262.709642 816.747839,262.137735 C819.209817,261.565827 821.669269,263.098023 822.241179,265.55999 C834.636419,318.919201 887.07567,359.383498 945.098044,359.383887 L1091.17319,357.47702 C1093.70051,357.444028 1095.77605,359.466069 1095.80904,361.993375 C1095.84203,364.520681 1093.81998,366.596212 1091.29267,366.629203 L945.157781,368.536461 C882.870822,368.536461 826.696385,325.18994 813.325569,267.631052 Z" id="Path" fill="#FFFFFF" opacity="0.5"></path>
                            <path d="M947.429519,413.552952 C839.390124,413.552952 760.925989,328.091757 760.925989,215.631194 L760.925989,185.215322 C760.925989,143.809597 739.612346,106.138907 705.206568,84.5761257 C686.47855,72.8389064 664.817784,66.5220175 642.218175,66.5220175 L87.8992916,66.5220175 C85.3717599,66.5220175 83.3227907,64.4730569 83.3227907,61.945536 C83.3227907,59.418015 85.3717599,57.3690544 87.8992916,57.3690544 L642.218175,57.3690544 C666.549434,57.3690544 689.892581,64.176573 710.067252,76.8204384 C747.116644,100.040025 770.078991,140.624708 770.078991,185.215322 L770.078991,215.631194 C770.078991,323.203023 844.628027,404.399989 947.429519,404.399989 L947.429519,413.552952 Z" id="Path" fill="#000D6D" fill-rule="nonzero" opacity="0.300000012"></path>
                        </g>
                        <g id="Group-143" transform="translate(251.707550, 0.000000)">
                            <g id="Group-184" transform="translate(505.321975, 188.779863)">
                                <path d="M34.9569349,1.22160667 C53.5637277,1.22160667 68.6475136,16.315345 68.6475136,34.9344148 C68.6475136,53.5534846 53.5637277,68.6472229 34.9569349,68.6472229 C16.350142,68.6472229 1.26635609,53.5534846 1.26635609,34.9344148 C1.26635609,16.315345 16.350142,1.22160667 34.9569349,1.22160667 Z" id="Oval" stroke="#000D6D" stroke-width="1.20749992" opacity="0.2"></path>
                                <path d="M0,37.1839124 C0,16.6589873 15.7822654,0 35.2771945,0 C54.7721236,0 70.554389,16.6589873 70.554389,37.1839124 C70.554389,37.7104793 70.1275204,38.1373461 69.6009513,38.1373461 C69.0743822,38.1373461 68.6475136,37.7104793 68.6475136,37.1839124 C68.6475136,17.6897557 53.6952402,1.9068673 35.2771945,1.9068673 C16.8591488,1.9068673 1.90687538,17.6897557 1.90687538,37.1839124 C1.90687538,37.7104793 1.48000679,38.1373461 0.953437689,38.1373461 C0.426868594,38.1373461 0,37.7104793 0,37.1839124 Z" id="Oval-Copy-4" fill="#231F20" fill-rule="nonzero"></path>
                            </g>
                            <g id="Group-132" transform="translate(305.100061, 0.000000)">
                                <path d="M35.5093592,2.39258933 C54.116152,2.39258933 69.1999379,17.4863276 69.1999379,36.1053974 C69.1999379,54.7244672 54.116152,69.8182055 35.5093592,69.8182055 C16.9025663,69.8182055 1.8187804,54.7244672 1.8187804,36.1053974 C1.8187804,17.4863276 16.9025663,2.39258933 35.5093592,2.39258933 Z" id="Oval" stroke="#000D6D" stroke-width="1.20749992" opacity="0.2"></path>
                                <path d="M38.1375076,0.953433651 C38.6640767,0.953433651 39.0909453,1.38030044 39.0909453,1.9068673 C39.0909453,2.43343417 38.6640767,2.86030095 38.1375076,2.86030095 C18.6432683,2.86030095 2.86031307,17.812511 2.86031307,36.2304787 C2.86031307,54.6484465 18.6432683,69.6006565 38.1375076,69.6006565 C38.6640767,69.6006565 39.0909453,70.0275233 39.0909453,70.5540902 C39.0909453,71.0806571 38.6640767,71.5075238 38.1375076,71.5075238 C17.6124956,71.5075238 0.953437689,55.7253253 0.953437689,36.2304787 C0.953437689,16.7356322 17.6124956,0.953433651 38.1375076,0.953433651 Z" id="Oval-Copy-4" fill="#231F20" fill-rule="nonzero"></path>
                            </g>
                            <g id="Group-132">
                                <path d="M35.5093592,2.39258933 C54.116152,2.39258933 69.1999379,17.4863276 69.1999379,36.1053974 C69.1999379,54.7244672 54.116152,69.8182055 35.5093592,69.8182055 C16.9025663,69.8182055 1.8187804,54.7244672 1.8187804,36.1053974 C1.8187804,17.4863276 16.9025663,2.39258933 35.5093592,2.39258933 Z" id="Oval" stroke="#000D6D" stroke-width="1.20749992" opacity="0.2"></path>
                                <path d="M38.1375076,0.953433651 C38.6640767,0.953433651 39.0909453,1.38030044 39.0909453,1.9068673 C39.0909453,2.43343417 38.6640767,2.86030095 38.1375076,2.86030095 C18.6432683,2.86030095 2.86031307,17.812511 2.86031307,36.2304787 C2.86031307,54.6484465 18.6432683,69.6006565 38.1375076,69.6006565 C38.6640767,69.6006565 39.0909453,70.0275233 39.0909453,70.5540902 C39.0909453,71.0806571 38.6640767,71.5075238 38.1375076,71.5075238 C17.6124956,71.5075238 0.953437689,55.7253253 0.953437689,36.2304787 C0.953437689,16.7356322 17.6124956,0.953433651 38.1375076,0.953433651 Z" id="Oval-Copy-4" fill="#231F20" fill-rule="nonzero"></path>
                            </g>
                        </g>
                    </g>
                </g>
                <path d="M8.34398855,410.27853 C2.84541109,393.476434 0,376.298413 0,358.828811 C0,160.653131 366.167446,0 817.857881,0 C1269.54832,0 1635.71576,160.653131 1635.71576,358.828811 C1635.71576,376.298413 1632.87035,393.476434 1627.37177,410.27853 C1570.49434,236.477156 1229.73087,102.899438 817.857881,102.899438 C405.984896,102.899438 65.221423,236.477156 8.34398499,410.278541 Z" id="Combined-Shape" stroke="#231F20" stroke-width="2.41499984" fill="#BED1F4" mask="url(#mask-3)"></path>
                <g id="Group-107" mask="url(#mask-3)" fill="#231F20" fill-rule="nonzero">
                    <g transform="translate(-1.079680, 0.000000)">
                        <polygon id="Path-10" points="687.515194 13.1963006 690.154408 13.1963006 690.154408 63.3422428 687.515194 63.3422428"></polygon>
                        <polygon id="Path-10-Copy" points="708.628905 11.8766705 711.268119 11.8766705 711.268119 89.1004023 708.628905 89.1004023"></polygon>
                        <polygon id="Path-10-Copy-5" points="365.531111 58.0637226 368.170325 58.0637226 368.170325 81.8170637 365.531111 81.8170637"></polygon>
                        <polygon id="Path-10-Copy-7" points="377.407573 49.2893563 380.046787 49.2893563 380.046787 65.981503 377.407573 65.981503"></polygon>
                        <polygon id="Path-10-Copy-6" points="427.552635 97.6526244 430.191849 97.6526244 430.191849 121.405965 427.552635 121.405965"></polygon>
                        <polygon id="Path-10-Copy-2" points="980.467926 0 983.10714 0 983.10714 87.0955839 980.467926 87.0955839"></polygon>
                        <polygon id="Path-10-Copy-3" points="1458.16562 112.168555 1460.80484 112.168555 1460.80484 197.944509 1458.16562 197.944509"></polygon>
                        <polygon id="Path-10-Copy-4" points="1441.01073 124.705041 1443.64995 124.705041 1443.64995 165.613572 1441.01073 165.613572"></polygon>
                        <path d="M2.6392138,390.610498 L0,390.610498 C0,322.644558 35.4166385,263.320647 106.120045,212.707035 L107.656273,214.853104 C37.6016099,265.002309 2.6392138,323.56535 2.6392138,390.610498 Z" id="Path-11"></path>
                        <polygon id="Path-12" points="118.106185 209.643592 116.783843 207.359507 141.856374 192.843576 143.178716 195.127661"></polygon>
                        <path d="M68.239151,266.172625 L66.3607526,264.318659 C82.9094138,247.551323 99.2418023,233.425766 115.359724,221.942709 L116.89109,224.092251 C100.90304,235.482782 84.6851247,249.509333 68.239151,266.172625 Z" id="Path-12-Copy"></path>
                    </g>
                </g>
            </g>
            <g id="Group-3" transform="translate(979.000000, 0.000000)">
                <g id="Rectangle-8">
                    <use fill="#407BF7" fill-rule="evenodd" xlink:href="#path-4"></use>
                    <rect stroke="#2A144C" stroke-width="2.41499984" x="-1.20749992" y="18.7925001" width="1045.415" height="632.415"></rect>
                </g>
                <g id="Group-22" transform="translate(434.000000, 420.000000)" fill="#407BF7" font-family="Karla-Bold, Karla" font-size="16" font-weight="bold" letter-spacing="1.230769" line-spacing="18">
                    <text id="Back-to-Homepage">
                        <tspan x="0" y="15">BACK TO HOMEPAGE</tspan>
                    </text>
                </g>
                <g id="Group-22" transform="translate(414.000000, 461.000000)" fill="#407BF7" font-family="Karla-Bold, Karla" font-size="20" font-weight="bold" letter-spacing="1.538461" line-spacing="21.7349986">
                    <text id="Back-to-Homepage">
                        <tspan x="0" y="18">BACK TO HOMEPAGE</tspan>
                    </text>
                </g>
                <polygon id="Path-21-Copy-3" fill="#231F20" fill-rule="nonzero" points="102 641.764173 102 639 449.588307 639 449.588307 641.764173"></polygon>
                <polygon id="Path-21-Copy-3" fill="#231F20" fill-rule="nonzero" transform="translate(698.500000, 642.382087) scale(1, -1) translate(-698.500000, -642.382087) " points="609 643.764173 609 641 788 641 788 643.764173"></polygon>
                <polygon id="Path-21-Copy-3" fill="#231F20" fill-rule="nonzero" transform="translate(911.588307, 642.146260) scale(1, -1) translate(-911.588307, -642.146260) " points="902.588307 643.528346 902.588307 640.764173 920.588307 640.764173 920.588307 643.528346"></polygon>
                <polygon id="Path-21-Copy-3" fill="#231F20" fill-rule="nonzero" transform="translate(936.382460, 634.146260) scale(1, -1) translate(-936.382460, -634.146260) " points="916.588307 635.528346 916.588307 632.764173 956.176614 632.764173 956.176614 635.528346"></polygon>
                <polygon id="Path-21-Copy-4" fill="#231F20" fill-rule="nonzero" points="70 36.764173 70 34 109.588307 34 109.588307 36.764173"></polygon>
                <polygon id="Path-21-Copy-4" fill="#231F20" fill-rule="nonzero" points="130 36.764173 130 34 169.588307 34 169.588307 36.764173"></polygon>
                <g id="Rectangle-8">
                    <use fill="#6092FD" fill-rule="evenodd" xlink:href="#path-5"></use>
                    <rect stroke="#231F20" stroke-width="2.41499984" x="-1.20749992" y="-1.20749992" width="1045.415" height="26.4149998"></rect>
                </g>
            </g>
            <g id="Group-2" transform="translate(1439.000000, 556.000000)">
                <g id="Group-97" transform="translate(41.000000, 23.000000)">
                    <mask id="mask-7" fill="white">
                        <use xlink:href="#path-6"></use>
                    </mask>
                    <g id="Fill-4395">
                        <use fill="#BED1F4" fill-rule="evenodd" xlink:href="#path-6"></use>
                        <path stroke="#231F20" stroke-width="2.41499984" d="M-1.20749992,429.869972 L-1.20749992,-1.20749992 L45.7685259,-1.20749992 L45.7685259,429.869972 L-1.20749992,429.869972 Z"></path>
                    </g>
                    <path d="M-1.13519871e-13,169.11998 C-3.88073566e-13,174.855604 10.2671544,180.893104 22.280513,180.893104 C34.2938716,180.893104 44.5610259,174.855604 44.5610259,169.11998 L44.5610259,0 L-1.73916003e-13,0 L-1.13519871e-13,169.11998 Z" id="Fill-4395" fill="#336ADF" opacity="0.5" mask="url(#mask-7)"></path>
                    <path d="M3.09054594e-13,599.11998 C3.44826706e-14,604.855604 10.2671544,610.893104 22.280513,610.893104 C34.2938716,610.893104 44.5610259,604.855604 44.5610259,599.11998 L44.5610259,400.140625 C45.160918,421.576208 0.634187311,422.507845 -0.000318113548,400.140625 L3.09054594e-13,599.11998 Z" id="Fill-4395" fill="#336ADF" opacity="0.5" mask="url(#mask-7)"></path>
                    <path d="M49.5947183,193 C40.8380985,207.298675 32.4056455,218.329546 24.2973592,226.092611 C16.1890728,233.855677 7.75661979,236.816343 -1,234.974609 L-1,286.360489 C7.41240667,284.365686 15.8448597,279.549907 24.2973592,271.91315 C32.7498586,264.276394 41.1823117,253.532092 49.5947183,239.680245 L49.5947183,287.942563 C41.8261544,300.401891 33.3937013,310.473688 24.2973592,318.157954 C15.201017,325.842219 6.76856394,330.97266 -1,333.549276 L-1,374.720948 C8.17731385,371.51911 16.6097669,367.089764 24.2973592,361.432907 C31.9849514,355.77605 40.4174045,346.481507 49.5947183,333.549276 L49.5947183,374.720948 C40.8199045,389.621052 32.3874514,400.182375 24.2973592,406.404917 C16.2072669,412.62746 7.77481387,416.402029 -1,417.728626 L-1,437.518734 L49.5947183,437.518734 L49.5947183,193 Z" id="Path-2" stroke="#231F20" stroke-width="2.41499984" stroke-linejoin="round" mask="url(#mask-7)"></path>
                    <path d="M-1,16.7603377 L-1,61.6802446 C7.41240667,59.6854418 15.8448597,54.8696622 24.2973592,47.2329057 C32.7498586,39.5961492 41.1823117,28.8518473 49.5947183,15 L49.5947183,63.2623185 C41.8261544,75.7216469 33.3937013,85.7934437 24.2973592,93.4777089 C15.201017,101.161974 6.76856394,106.292415 -1,108.869031 L-1,150.040703 C8.17731385,146.838866 16.6097669,142.409519 24.2973592,136.752662 C31.9849514,131.095806 40.4174045,121.801262 49.5947183,108.869031 L49.5947183,150.040703 C40.7652912,164.48761 32.3328382,175.048934 24.2973592,181.724673 C16.2618801,188.400412 7.82942708,193.792969 -1,197.902344 L-1,16.7603377 Z" id="Path-2" stroke="#231F20" stroke-width="2.41499984" stroke-linejoin="round" mask="url(#mask-7)"></path>
                </g>
                <g id="Group" stroke="#231F20" stroke-width="2.41499984">
                    <path d="M61.5,0 L61.5,0 C95.4655121,-6.23936335e-15 123,27.5344879 123,61.5 L123,138 L0,138 L0,61.5 C-4.15957557e-15,27.5344879 27.5344879,6.23936335e-15 61.5,0 Z" id="Rectangle" fill="#FFFFFF"></path>
                    <path d="M61.5,18 L61.5,18 C95.4655121,18 123,45.5344879 123,79.5 L123,146 C123,151.522847 118.522847,156 113,156 L10,156 C4.4771525,156 6.76353751e-16,151.522847 0,146 L0,79.5 C-4.15957557e-15,45.5344879 27.5344879,18 61.5,18 Z" id="Rectangle" fill="#BED1F4"></path>
                </g>
            </g>
        </g>
    </g>
</svg>